<svg xmlns="http://www.w3.org/2000/svg" xmlns:xlink="http://www.w3.org/1999/xlink" viewBox="0 0 500 401"><defs><linearGradient id="A" x1="263.6" x2="263.6" y1="127.71" y2="292.57" gradientTransform="matrix(-1.9888 -.080652 .069466 -1.7238 744.12 599.73)" xlink:href="#K"><stop stop-color="rgba(142, 91, 245, 1)" offset="0"/><stop stop-color="rgba(83, 13, 221, 1)" offset="1"/></linearGradient><linearGradient id="B" x1="297.25" x2="297.25" y1="117.8" y2="149.45" gradientTransform="matrix(-.15921 1.9904 -2.4884 -.2003 674.49 -521.04)" xlink:href="#K"><stop stop-color="rgba(88, 14, 237, 1)" offset="0"/><stop stop-color="rgba(52, 8, 141, 1)" offset="1"/></linearGradient><radialGradient id="C" cx="357.38" cy="283.24" r="9.596" gradientTransform="matrix(1.9904 0 0 1.9968 -296.08 -220.96)" xlink:href="#K"><stop stop-color="rgba(88, 14, 237, 1)" offset="0"/><stop stop-color="rgba(52, 8, 141, 1)" offset="1"/></radialGradient><radialGradient id="D" cx="326.66" cy="301.73" r="2.85" gradientTransform="matrix(1.9904 0 0 1.9968 -296.08 -220.96)" xlink:href="#K"><stop stop-color="rgba(88, 14, 237, 1)" offset="0"/><stop stop-color="rgba(52, 8, 141, 1)" offset="1"/></radialGradient><radialGradient id="E" cx="339.6" cy="295.47" r="6.492" gradientTransform="matrix(1.9904 0 0 1.9968 -296.08 -220.96)" xlink:href="#K"><stop stop-color="rgba(88, 14, 237, 1)" offset="0"/><stop stop-color="rgba(52, 8, 141, 1)" offset="1"/></radialGradient><radialGradient id="F" cx="222.81" cy="157.85" r="44.039" gradientTransform="matrix(1.9949 1e-6 .005814 1.9923 -349.35 -210.11)" xlink:href="#K"><stop stop-color="#bada55" offset="0"/><stop stop-color="#758d29" offset="1"/></radialGradient><radialGradient id="G" cx="222.81" cy="157.85" r="44.039" gradientTransform="matrix(1.9949 1e-6 .005814 1.9923 -173.73 -16.967)" xlink:href="#K"><stop stop-color="#bada55" offset="0"/><stop stop-color="#758d29" offset="1"/></radialGradient><radialGradient id="H" cx="317.57" cy="137.35" r="9.697" gradientTransform="matrix(1.9904 0 0 1.9968 -296.08 -220.96)" xlink:href="#K"><stop stop-color="rgba(139, 13, 217, 1)" offset="0"/><stop stop-color="rgba(77, 7, 121, 1)" offset="1"/></radialGradient><linearGradient id="I" x1="357.88" x2="357.88" y1="169.49" y2="245.92" gradientTransform="matrix(-1.4818 -1.3382 1.3108 -1.4485 709.21 948.98)" xlink:href="#K"><stop stop-color="#9518e2" offset="0"/><stop stop-color="#1d072c" offset="1"/></linearGradient><linearGradient id="J" x1="210.96" x2="210.96" y1="244.25" y2="291.18" gradientTransform="matrix(1.9019 .58892 -.37412 1.2159 -186.02 -154.48)" xlink:href="#K"><stop stop-color="rgba(166, 125, 247, 1)" offset="0"/><stop stop-color="rgba(100, 29, 241, 1)" offset="1"/></linearGradient><linearGradient id="K" gradientUnits="userSpaceOnUse"/></defs><path d="M12.472 148.39c0 1.27-1.297 2.251-3.085 2.251-1.627 0-2.924-.981-2.924-2.251 0-1.168 1.297-2.149 2.924-2.149 1.788 0 3.085.981 3.085 2.149zm0-14.56c0 1.172-1.297 2.149-3.085 2.149-1.627 0-2.924-.977-2.924-2.149s1.297-2.247 2.924-2.247c1.788 0 3.085 1.073 3.085 2.247zm0-14.66c0 1.27-1.297 2.247-3.085 2.247-1.627 0-2.924-.977-2.924-2.247 0-1.173 1.297-2.152 2.924-2.152 1.788 0 3.085.979 3.085 2.152zm0-14.56c0 1.168-1.297 2.149-3.085 2.149-1.627 0-2.924-.981-2.924-2.149 0-1.174 1.297-2.152 2.924-2.152 1.788 0 3.085.978 3.085 2.152zm0-14.556c0 1.17-1.297 2.151-3.085 2.151-1.627 0-2.924-.981-2.924-2.151 0-1.274 1.297-2.248 2.924-2.248 1.788 0 3.085.974 3.085 2.248zm0-14.658c0 1.27-1.297 2.245-3.085 2.245-1.627 0-2.924-.975-2.924-2.245 0-1.175 1.297-2.151 2.924-2.151 1.788 0 3.085.976 3.085 2.151zm20.313 87.644c0 1.175-1.459 2.153-3.085 2.153-1.621 0-3.09-.978-3.09-2.153 0-1.265 1.469-2.246 3.09-2.246 1.626 0 3.085.981 3.085 2.246zm0-14.65c0 1.27-1.459 2.251-3.085 2.251-1.621 0-3.09-.981-3.09-2.251 0-1.168 1.469-2.149 3.09-2.149 1.626 0 3.085.981 3.085 2.149zm0-14.56c0 1.172-1.459 2.149-3.085 2.149-1.621 0-3.09-.977-3.09-2.149s1.469-2.247 3.09-2.247c1.626 0 3.085 1.073 3.085 2.247zm0-14.66c0 1.27-1.459 2.247-3.085 2.247-1.621 0-3.09-.977-3.09-2.247 0-1.173 1.469-2.152 3.09-2.152 1.626 0 3.085.979 3.085 2.152zm0-14.56c0 1.168-1.459 2.149-3.085 2.149-1.621 0-3.09-.981-3.09-2.149 0-1.174 1.469-2.152 3.09-2.152 1.626 0 3.085.978 3.085 2.152zm0-14.556c0 1.17-1.459 2.151-3.085 2.151-1.621 0-3.09-.981-3.09-2.151 0-1.274 1.469-2.248 3.09-2.248 1.626 0 3.085.974 3.085 2.248zm0-14.658c0 1.27-1.459 2.245-3.085 2.245-1.621 0-3.09-.975-3.09-2.245 0-1.175 1.469-2.151 3.09-2.151 1.626 0 3.085.976 3.085 2.151zm0-14.561c0 1.174-1.459 2.151-3.085 2.151-1.621 0-3.09-.977-3.09-2.151 0-1.27 1.469-2.247 3.09-2.247 1.626 0 3.085.977 3.085 2.247zm0-14.657c0 1.27-1.459 2.247-3.085 2.247-1.621 0-3.09-.977-3.09-2.247 0-1.171 1.469-2.148 3.09-2.148 1.626 0 3.085.977 3.085 2.148zM52.93 148.39c0 1.27-1.297 2.251-3.079 2.251-1.626 0-2.929-.981-2.929-2.251 0-1.168 1.303-2.149 2.929-2.149 1.782 0 3.079.981 3.079 2.149zm0-14.56c0 1.172-1.297 2.149-3.079 2.149-1.626 0-2.929-.977-2.929-2.149s1.303-2.247 2.929-2.247c1.782 0 3.079 1.073 3.079 2.247zm0-14.66c0 1.27-1.297 2.247-3.079 2.247-1.626 0-2.929-.977-2.929-2.247 0-1.173 1.303-2.152 2.929-2.152 1.782 0 3.079.979 3.079 2.152zm0-14.56c0 1.168-1.297 2.149-3.079 2.149-1.626 0-2.929-.981-2.929-2.149 0-1.174 1.303-2.152 2.929-2.152 1.782 0 3.079.978 3.079 2.152zm0-14.556c0 1.17-1.297 2.151-3.079 2.151-1.626 0-2.929-.981-2.929-2.151 0-1.274 1.303-2.248 2.929-2.248 1.782 0 3.079.974 3.079 2.248zm0-14.658c0 1.27-1.297 2.245-3.079 2.245-1.626 0-2.929-.975-2.929-2.245 0-1.175 1.303-2.151 2.929-2.151 1.782 0 3.079.976 3.079 2.151zm0-14.561c0 1.174-1.297 2.151-3.079 2.151-1.626 0-2.929-.977-2.929-2.151 0-1.27 1.303-2.247 2.929-2.247 1.782 0 3.079.977 3.079 2.247zm0-14.657c0 1.27-1.297 2.247-3.079 2.247-1.626 0-2.929-.977-2.929-2.247 0-1.171 1.303-2.148 2.929-2.148 1.782 0 3.079.977 3.079 2.148zm20.315 0c0 1.27-1.465 2.247-3.091 2.247s-3.086-.977-3.086-2.247c0-1.171 1.46-2.148 3.086-2.148s3.091.977 3.091 2.148z" fill="#3f7bfc"/><path transform="matrix(-.5459 -.83785 .83785 -.5459 168.54 693.16)" d="M342.34 366.84c-11.592 8.325-47.07 17.594-58.641 11.687-9.293-4.724-43.175-20.877-58.795-31.061-12.369-8.064-59.972-46.925-31.184-94.113 19.038-31.208 99.118-43.971 124.88-17.928 13.438 13.558 20.62 31.617 21.595 49.956.325 5.738 2.673 11.081 6.558 14.907 3.636 3.544 6.722 7.931 9.01 13.107 8.414 18.903 2.583 42.025-13.425 53.445z" fill="url(#G)" fill-opacity=".18" paint-order="fill"/><path transform="matrix(.5459 .83785 -.83785 .5459 351.4 -260.8)" d="M486.96 263.06c-11.592 8.328-25.541 8.776-37.113 2.868-9.291-4.725-83.71-33.99-84.201-33.99-14.75.113-56.094-35.174-27.305-82.363 19.039-31.209 99.117-43.971 124.88-17.927 13.436 13.558 20.619 31.616 21.595 49.956.323 5.736 2.674 11.081 6.559 14.906 3.634 3.544 6.721 7.932 9.009 13.107 8.414 18.902 2.582 42.023-13.426 53.443z" fill="url(#I)" fill-opacity=".73"/><path d="m295.56 77.45c-15.82 0-28.637-14.092-28.637-31.573 0-17.476 12.817-31.63 28.637-31.63 15.881 0 28.698 14.154 28.698 31.63 0 17.481-12.817 31.573-28.698 31.573z" fill="url(#B)"/><path d="m395.8 312.25c-1.507 34.64-50.909 29.924-88.851 42.471-45.119 14.921-93.74 7.55-129.06-1.805-16.748-4.436-28.923-7.374-45.812-16.519-10.211-5.528-65.724-36.019-89.708-64.484-27.837-33.039-63.137-74.55 4.458-114.56 21.186-12.539 5.955-74.506 8.713-82.004 19.744-54.181 101.77-41.078 155.75-36.698 50.912 4.132 69.654 4.657 87.814 7.659 15.555 2.571 42.021 6.627 60.854 16.97 31.275 17.179 42.48 32.568 53.907 51.418 13.277 21.901 9.724 10.678 28.044 52.124 12.538 28.366 7.992 41.581-5.5 67.832-16.965 33.008-37.828 13.68-40.609 77.594z" fill="url(#A)" stroke="rgba(0, 0, 0, 0.133)" stroke-miterlimit="1" stroke-opacity=".55"/><path d="M336.01 73.878c-10.649 0-19.279-9.184-19.279-20.573s8.63-20.61 19.279-20.61c10.693 0 19.322 9.223 19.322 20.61s-8.629 20.573-19.322 20.573z" fill="url(#H)" fill-opacity=".91"/><path d="M128.9 292.82c-40.882-8.039-66.842-41.216-80.15-17.895-12.111 21.227-2.488 51.879 23.521 67.03 41.931 24.428 58.853 18.083 89.811 16.9 46.314-1.771 55.544-52.924 21.538-61.896s-35.127-.285-54.72-4.139z" fill="url(#J)" fill-opacity=".93"/><path d="M194.62 31.62c0 1.175-1.299 2.148-3.08 2.148-1.626 0-2.928-.973-2.928-2.148 0-1.27 1.302-2.251 2.928-2.251 1.781 0 3.08.981 3.08 2.251zm-20.15-14.661c0 1.271-1.458 2.251-3.084 2.251s-3.086-.98-3.086-2.251c0-1.167 1.46-2.148 3.086-2.148s3.084.981 3.084 2.148zm0 14.661c0 1.175-1.458 2.148-3.084 2.148s-3.086-.973-3.086-2.148c0-1.27 1.46-2.251 3.086-2.251s3.084.981 3.084 2.251zm-20.3-14.661c0 1.271-1.309 2.251-3.096 2.251-1.626 0-2.924-.98-2.924-2.251 0-1.167 1.298-2.148 2.924-2.148 1.787 0 3.096.981 3.096 2.148zm0 14.661c0 1.175-1.309 2.148-3.096 2.148-1.626 0-2.924-.973-2.924-2.148 0-1.27 1.298-2.251 2.924-2.251 1.787 0 3.096.981 3.096 2.251zm-20.32-14.661c0 1.271-1.303 2.251-2.927 2.251-1.794 0-3.085-.98-3.085-2.251 0-1.167 1.291-2.148 3.085-2.148 1.624 0 2.927.981 2.927 2.148zm0 14.661c0 1.175-1.303 2.148-2.927 2.148-1.794 0-3.085-.973-3.085-2.148 0-1.27 1.291-2.251 3.085-2.251 1.624 0 2.927.981 2.927 2.251zm-20.14-14.661c0 1.271-1.471 2.251-3.095 2.251s-3.084-.98-3.084-2.251c0-1.167 1.458-2.148 3.084-2.148s3.095.981 3.095 2.148zm0 14.661c0 1.175-1.471 2.148-3.095 2.148s-3.084-.973-3.084-2.148c0-1.27 1.458-2.251 3.084-2.251s3.095.981 3.095 2.251zM93.396 16.959c0 1.271-1.304 2.251-2.93 2.251-1.787 0-3.085-.98-3.085-2.251 0-1.167 1.298-2.148 3.085-2.148 1.626 0 2.93.981 2.93 2.148zm0 14.661c0 1.175-1.304 2.148-2.93 2.148-1.787 0-3.085-.973-3.085-2.148 0-1.27 1.298-2.251 3.085-2.251 1.626 0 2.93.981 2.93 2.251zM73.245 16.959c0 1.271-1.465 2.251-3.091 2.251s-3.086-.98-3.086-2.251c0-1.167 1.46-2.148 3.086-2.148s3.091.981 3.091 2.148zm0 14.661c0 1.175-1.465 2.148-3.091 2.148s-3.086-.973-3.086-2.148c0-1.27 1.46-2.251 3.086-2.251s3.091.981 3.091 2.251zm-20.315 0c0 1.175-1.297 2.148-3.079 2.148-1.626 0-2.929-.973-2.929-2.148 0-1.27 1.303-2.251 2.929-2.251 1.782 0 3.079.981 3.079 2.251z" fill="#3f7bfc"/><path d="m415.24 365.7c-10.546 0-19.07-9.417-19.07-21.087s8.524-21.086 19.07-21.086 19.132 9.416 19.132 21.086-8.586 21.087-19.132 21.087z" fill="url(#C)" fill-opacity=".86"/><path d="M379.87 382.27c-7.134 0-12.9-5.911-12.9-13.24s5.766-13.239 12.9-13.239 12.942 5.913 12.942 13.239-5.809 13.24-12.942 13.24z" fill="url(#E)" fill-opacity=".75"/><path d="M354.12 387.04c-3.133 0-5.666-2.458-5.666-5.505s2.533-5.505 5.666-5.505 5.68 2.46 5.68 5.505-2.55 5.505-5.68 5.505z" fill="url(#D)" fill-opacity=".58"/><path transform="matrix(-.5459 -.83785 .83785 -.5459 58.868 247.43)" d="M166.72 173.7c-11.592 8.326-47.07 17.594-58.642 11.687-9.293-4.723-43.175-20.876-58.795-31.061C36.915 146.262-10.689 107.4 18.1 60.212c19.038-31.207 99.118-43.97 124.88-17.926 13.438 13.558 20.62 31.616 21.596 49.956.324 5.737 2.673 11.08 6.558 14.906 3.636 3.544 6.722 7.932 9.009 13.107 8.414 18.903 2.584 42.025-13.424 53.445z" fill="url(#F)" fill-opacity=".18" paint-order="fill"/></svg>