<?xml version="1.0" encoding="utf-8"?>
<svg viewBox="0 0 500 401" xmlns="http://www.w3.org/2000/svg">
  <defs>
    <linearGradient gradientUnits="userSpaceOnUse" x1="263.6" y1="127.713" x2="263.6" y2="292.568" id="gradient-0" gradientTransform="matrix(-1.988816, -0.080652, 0.069466, -1.723753, 744.124919, 599.725422)">
      <stop offset="0" style="stop-color: rgba(142, 91, 245, 1)"/>
      <stop offset="1" style="stop-color: rgba(83, 13, 221, 1)"/>
    </linearGradient>
    <linearGradient gradientUnits="userSpaceOnUse" x1="297.254" y1="117.795" x2="297.254" y2="149.447" id="gradient-3" gradientTransform="matrix(-0.159206, 1.990396, -2.488353, -0.200305, 674.488627, -521.043682)">
      <stop offset="0" style="stop-color: rgba(88, 14, 237, 1)"/>
      <stop offset="1" style="stop-color: rgba(52, 8, 141, 1)"/>
    </linearGradient>
    <radialGradient gradientUnits="userSpaceOnUse" cx="357.38" cy="283.245" r="9.596" id="gradient-4" gradientTransform="matrix(1.99044, 0, 0, 1.996794, -296.075826, -220.963909)">
      <stop offset="0" style="stop-color: rgba(88, 14, 237, 1)"/>
      <stop offset="1" style="stop-color: rgba(52, 8, 141, 1)"/>
    </radialGradient>
    <radialGradient gradientUnits="userSpaceOnUse" cx="326.664" cy="301.733" r="2.85" id="gradient-5" gradientTransform="matrix(1.99044, 0, 0, 1.996794, -296.075826, -220.963909)">
      <stop offset="0" style="stop-color: rgba(88, 14, 237, 1)"/>
      <stop offset="1" style="stop-color: rgba(52, 8, 141, 1)"/>
    </radialGradient>
    <radialGradient gradientUnits="userSpaceOnUse" cx="339.605" cy="295.471" r="6.492" id="gradient-6" gradientTransform="matrix(1.99044, 0, 0, 1.996794, -296.075826, -220.963909)">
      <stop offset="0" style="stop-color: rgba(88, 14, 237, 1)"/>
      <stop offset="1" style="stop-color: rgba(52, 8, 141, 1)"/>
    </radialGradient>
    <radialGradient gradientUnits="userSpaceOnUse" cx="222.814" cy="157.854" r="44.039" id="gradient-8" gradientTransform="matrix(1.994895, 0.000001, 0.005814, 1.992337, -349.351522, -210.10907)">
      <stop offset="0" style="stop-color: #bada55"/>
      <stop offset="1" style="stop-color: #758d29"/>
    </radialGradient>
    <radialGradient gradientUnits="userSpaceOnUse" cx="222.814" cy="157.854" r="44.039" id="gradient-9" gradientTransform="matrix(1.994895, 0.000001, 0.005814, 1.992337, -173.725293, -16.966572)">
      <stop offset="0" style="stop-color: #bada55"/>
      <stop offset="1" style="stop-color: #758d29"/>
    </radialGradient>
    <radialGradient gradientUnits="userSpaceOnUse" cx="317.569" cy="137.346" r="9.697" id="gradient-1" gradientTransform="matrix(1.99044, 0, 0, 1.996794, -296.075826, -220.963909)">
      <stop offset="0" style="stop-color: rgba(139, 13, 217, 1)"/>
      <stop offset="1" style="stop-color: rgba(77, 7, 121, 1)"/>
    </radialGradient>
    <linearGradient gradientUnits="userSpaceOnUse" x1="357.882" y1="169.493" x2="357.882" y2="245.916" id="gradient-10" gradientTransform="matrix(-1.481786, -1.338235, 1.310773, -1.448494, 709.209973, 948.978547)">
      <stop offset="0" style="stop-color: rgb(149, 24, 226);"/>
      <stop offset="1" style="stop-color: rgb(29, 7, 44);"/>
    </linearGradient>
    <linearGradient gradientUnits="userSpaceOnUse" x1="210.956" y1="244.248" x2="210.956" y2="291.181" id="gradient-7" gradientTransform="matrix(1.901902, 0.588921, -0.374121, 1.215935, -186.019384, -154.47768)">
      <stop offset="0" style="stop-color: rgba(166, 125, 247, 1)"/>
      <stop offset="1" style="stop-color: rgba(100, 29, 241, 1)"/>
    </linearGradient>
  </defs>
  <path class="s4" d="M 12.472 148.389 C 12.472 149.659 11.175 150.64 9.387 150.64 C 7.76 150.64 6.463 149.659 6.463 148.389 C 6.463 147.221 7.76 146.24 9.387 146.24 C 11.175 146.24 12.472 147.221 12.472 148.389 Z" style="fill: rgb(63, 123, 252);"/>
  <path class="s4" d="M 12.472 133.83 C 12.472 135.002 11.175 135.979 9.387 135.979 C 7.76 135.979 6.463 135.002 6.463 133.83 C 6.463 132.656 7.76 131.583 9.387 131.583 C 11.175 131.583 12.472 132.656 12.472 133.83 Z" style="fill: rgb(63, 123, 252);"/>
  <path class="s4" d="M 12.472 119.173 C 12.472 120.443 11.175 121.42 9.387 121.42 C 7.76 121.42 6.463 120.443 6.463 119.173 C 6.463 118 7.76 117.021 9.387 117.021 C 11.175 117.021 12.472 118 12.472 119.173 Z" style="fill: rgb(63, 123, 252);"/>
  <path class="s4" d="M 12.472 104.614 C 12.472 105.782 11.175 106.763 9.387 106.763 C 7.76 106.763 6.463 105.782 6.463 104.614 C 6.463 103.44 7.76 102.462 9.387 102.462 C 11.175 102.462 12.472 103.44 12.472 104.614 Z" style="fill: rgb(63, 123, 252);"/>
  <path class="s4" d="M 12.472 90.054 C 12.472 91.224 11.175 92.205 9.387 92.205 C 7.76 92.205 6.463 91.224 6.463 90.054 C 6.463 88.78 7.76 87.806 9.387 87.806 C 11.175 87.806 12.472 88.78 12.472 90.054 Z" style="fill: rgb(63, 123, 252);"/>
  <path class="s4" d="M 12.472 75.396 C 12.472 76.666 11.175 77.641 9.387 77.641 C 7.76 77.641 6.463 76.666 6.463 75.396 C 6.463 74.221 7.76 73.245 9.387 73.245 C 11.175 73.245 12.472 74.221 12.472 75.396 Z" style="fill: rgb(63, 123, 252);"/>
  <path class="s4" d="M 32.785 163.044 C 32.785 164.219 31.326 165.197 29.7 165.197 C 28.079 165.197 26.61 164.219 26.61 163.044 C 26.61 161.779 28.079 160.798 29.7 160.798 C 31.326 160.798 32.785 161.779 32.785 163.044 Z" style="fill: rgb(63, 123, 252);"/>
  <path class="s4" d="M 32.785 148.389 C 32.785 149.659 31.326 150.64 29.7 150.64 C 28.079 150.64 26.61 149.659 26.61 148.389 C 26.61 147.221 28.079 146.24 29.7 146.24 C 31.326 146.24 32.785 147.221 32.785 148.389 Z" style="fill: rgb(63, 123, 252);"/>
  <path class="s4" d="M 32.785 133.83 C 32.785 135.002 31.326 135.979 29.7 135.979 C 28.079 135.979 26.61 135.002 26.61 133.83 C 26.61 132.656 28.079 131.583 29.7 131.583 C 31.326 131.583 32.785 132.656 32.785 133.83 Z" style="fill: rgb(63, 123, 252);"/>
  <path class="s4" d="M 32.785 119.173 C 32.785 120.443 31.326 121.42 29.7 121.42 C 28.079 121.42 26.61 120.443 26.61 119.173 C 26.61 118 28.079 117.021 29.7 117.021 C 31.326 117.021 32.785 118 32.785 119.173 Z" style="fill: rgb(63, 123, 252);"/>
  <path class="s4" d="M 32.785 104.614 C 32.785 105.782 31.326 106.763 29.7 106.763 C 28.079 106.763 26.61 105.782 26.61 104.614 C 26.61 103.44 28.079 102.462 29.7 102.462 C 31.326 102.462 32.785 103.44 32.785 104.614 Z" style="fill: rgb(63, 123, 252);"/>
  <path class="s4" d="M 32.785 90.054 C 32.785 91.224 31.326 92.205 29.7 92.205 C 28.079 92.205 26.61 91.224 26.61 90.054 C 26.61 88.78 28.079 87.806 29.7 87.806 C 31.326 87.806 32.785 88.78 32.785 90.054 Z" style="fill: rgb(63, 123, 252);"/>
  <path class="s4" d="M 32.785 75.396 C 32.785 76.666 31.326 77.641 29.7 77.641 C 28.079 77.641 26.61 76.666 26.61 75.396 C 26.61 74.221 28.079 73.245 29.7 73.245 C 31.326 73.245 32.785 74.221 32.785 75.396 Z" style="fill: rgb(63, 123, 252);"/>
  <path class="s4" d="M 32.785 60.835 C 32.785 62.009 31.326 62.986 29.7 62.986 C 28.079 62.986 26.61 62.009 26.61 60.835 C 26.61 59.565 28.079 58.588 29.7 58.588 C 31.326 58.588 32.785 59.565 32.785 60.835 Z" style="fill: rgb(63, 123, 252);"/>
  <path class="s4" d="M 32.785 46.178 C 32.785 47.448 31.326 48.425 29.7 48.425 C 28.079 48.425 26.61 47.448 26.61 46.178 C 26.61 45.007 28.079 44.03 29.7 44.03 C 31.326 44.03 32.785 45.007 32.785 46.178 Z" style="fill: rgb(63, 123, 252);"/>
  <path class="s4" d="M 52.93 148.389 C 52.93 149.659 51.633 150.64 49.851 150.64 C 48.225 150.64 46.922 149.659 46.922 148.389 C 46.922 147.221 48.225 146.24 49.851 146.24 C 51.633 146.24 52.93 147.221 52.93 148.389 Z" style="fill: rgb(63, 123, 252);"/>
  <path class="s4" d="M 52.93 133.83 C 52.93 135.002 51.633 135.979 49.851 135.979 C 48.225 135.979 46.922 135.002 46.922 133.83 C 46.922 132.656 48.225 131.583 49.851 131.583 C 51.633 131.583 52.93 132.656 52.93 133.83 Z" style="fill: rgb(63, 123, 252);"/>
  <path class="s4" d="M 52.93 119.173 C 52.93 120.443 51.633 121.42 49.851 121.42 C 48.225 121.42 46.922 120.443 46.922 119.173 C 46.922 118 48.225 117.021 49.851 117.021 C 51.633 117.021 52.93 118 52.93 119.173 Z" style="fill: rgb(63, 123, 252);"/>
  <path class="s4" d="M 52.93 104.614 C 52.93 105.782 51.633 106.763 49.851 106.763 C 48.225 106.763 46.922 105.782 46.922 104.614 C 46.922 103.44 48.225 102.462 49.851 102.462 C 51.633 102.462 52.93 103.44 52.93 104.614 Z" style="fill: rgb(63, 123, 252);"/>
  <path class="s4" d="M 52.93 90.054 C 52.93 91.224 51.633 92.205 49.851 92.205 C 48.225 92.205 46.922 91.224 46.922 90.054 C 46.922 88.78 48.225 87.806 49.851 87.806 C 51.633 87.806 52.93 88.78 52.93 90.054 Z" style="fill: rgb(63, 123, 252);"/>
  <path class="s4" d="M 52.93 75.396 C 52.93 76.666 51.633 77.641 49.851 77.641 C 48.225 77.641 46.922 76.666 46.922 75.396 C 46.922 74.221 48.225 73.245 49.851 73.245 C 51.633 73.245 52.93 74.221 52.93 75.396 Z" style="fill: rgb(63, 123, 252);"/>
  <path class="s4" d="M 52.93 60.835 C 52.93 62.009 51.633 62.986 49.851 62.986 C 48.225 62.986 46.922 62.009 46.922 60.835 C 46.922 59.565 48.225 58.588 49.851 58.588 C 51.633 58.588 52.93 59.565 52.93 60.835 Z" style="fill: rgb(63, 123, 252);"/>
  <path class="s4" d="M 52.93 46.178 C 52.93 47.448 51.633 48.425 49.851 48.425 C 48.225 48.425 46.922 47.448 46.922 46.178 C 46.922 45.007 48.225 44.03 49.851 44.03 C 51.633 44.03 52.93 45.007 52.93 46.178 Z" style="fill: rgb(63, 123, 252);"/>
  <path class="s4" d="M 73.245 46.178 C 73.245 47.448 71.78 48.425 70.154 48.425 C 68.528 48.425 67.068 47.448 67.068 46.178 C 67.068 45.007 68.528 44.03 70.154 44.03 C 71.78 44.03 73.245 45.007 73.245 46.178 Z" style="fill: rgb(63, 123, 252);"/>
  <path class="s10" d="M 342.341 366.838 C 330.749 375.163 295.271 384.432 283.7 378.525 C 274.407 373.801 240.525 357.648 224.905 347.464 C 212.536 339.4 164.933 300.539 193.721 253.351 C 212.759 222.143 292.839 209.38 318.603 235.423 C 332.041 248.981 339.223 267.04 340.198 285.379 C 340.523 291.117 342.871 296.46 346.756 300.286 C 350.392 303.83 353.478 308.217 355.766 313.393 C 364.18 332.296 358.349 355.418 342.341 366.838 Z" style="fill-rule: nonzero; paint-order: fill; fill-opacity: 0.18; fill: url(#gradient-9);" transform="matrix(-0.5459, -0.83785, 0.83785, -0.5459, 168.54404, 693.160827)"/>
  <path class="s10" d="M 486.955 263.063 C 475.363 271.391 461.414 271.839 449.842 265.931 C 440.551 261.206 366.132 231.941 365.641 231.941 C 350.891 232.054 309.547 196.767 338.336 149.578 C 357.375 118.369 437.453 105.607 463.218 131.651 C 476.654 145.209 483.837 163.267 484.813 181.607 C 485.136 187.343 487.487 192.688 491.372 196.513 C 495.006 200.057 498.093 204.445 500.381 209.62 C 508.795 228.522 502.963 251.643 486.955 263.063 Z" style="fill-opacity: 0.73; fill: url(#gradient-10);" transform="matrix(0.5459, 0.83785, -0.83785, 0.5459, 351.399439, -260.803316)"/>
  <path class="s17" d="M 295.559 77.45 C 279.739 77.45 266.922 63.358 266.922 45.877 C 266.922 28.401 279.739 14.247 295.559 14.247 C 311.44 14.247 324.257 28.401 324.257 45.877 C 324.257 63.358 311.44 77.45 295.559 77.45 Z" style="fill: url(#gradient-3);"/>
  <path class="s2" d="M 395.803 312.251 C 394.296 346.891 344.894 342.175 306.952 354.722 C 261.833 369.643 213.212 362.272 177.892 352.917 C 161.144 348.481 148.969 345.543 132.08 336.398 C 121.869 330.87 66.356 300.379 42.372 271.914 C 14.535 238.875 -20.765 197.364 46.83 157.356 C 68.016 144.817 52.785 82.85 55.543 75.352 C 75.287 21.171 157.311 34.274 211.293 38.654 C 262.205 42.786 280.947 43.311 299.107 46.313 C 314.662 48.884 341.128 52.94 359.961 63.283 C 391.236 80.462 402.441 95.851 413.868 114.701 C 427.145 136.602 423.592 125.379 441.912 166.825 C 454.45 195.191 449.904 208.406 436.412 234.657 C 419.447 267.665 398.584 248.337 395.803 312.251 Z" style="fill: url(#gradient-0); stroke-miterlimit: 1; stroke: rgba(0, 0, 0, 0.133); stroke-opacity: 0.55;"/>
  <path class="s17" d="M 336.006 73.878 C 325.357 73.878 316.727 64.694 316.727 53.305 C 316.727 41.918 325.357 32.695 336.006 32.695 C 346.699 32.695 355.328 41.918 355.328 53.305 C 355.328 64.694 346.699 73.878 336.006 73.878 Z" style="fill: url(#gradient-1); fill-opacity: 0.91;"/>
  <path class="s6" d="M 128.902 292.816 C 88.02 284.777 62.06 251.6 48.752 274.921 C 36.641 296.148 46.264 326.8 72.273 341.951 C 114.204 366.379 131.126 360.034 162.084 358.851 C 208.398 357.08 217.628 305.927 183.622 296.955 C 149.618 287.98 148.495 296.67 128.902 292.816 Z" style="stroke-opacity: 0; stroke-width: 0px; stroke: rgb(151, 210, 63); fill-opacity: 0.93; fill: url(#gradient-7);"/>
  <path class="s4" d="M 194.615 31.62 C 194.615 32.795 193.316 33.768 191.535 33.768 C 189.909 33.768 188.607 32.795 188.607 31.62 C 188.607 30.35 189.909 29.369 191.535 29.369 C 193.316 29.369 194.615 30.35 194.615 31.62 Z" style="fill: rgb(63, 123, 252);"/>
  <path class="s4" d="M 174.467 16.959 C 174.467 18.23 173.009 19.21 171.383 19.21 C 169.757 19.21 168.297 18.23 168.297 16.959 C 168.297 15.792 169.757 14.811 171.383 14.811 C 173.009 14.811 174.467 15.792 174.467 16.959 Z" style="fill: rgb(63, 123, 252);"/>
  <path class="s4" d="M 174.467 31.62 C 174.467 32.795 173.009 33.768 171.383 33.768 C 169.757 33.768 168.297 32.795 168.297 31.62 C 168.297 30.35 169.757 29.369 171.383 29.369 C 173.009 29.369 174.467 30.35 174.467 31.62 Z" style="fill: rgb(63, 123, 252);"/>
  <path class="s4" d="M 154.167 16.959 C 154.167 18.23 152.858 19.21 151.071 19.21 C 149.445 19.21 148.147 18.23 148.147 16.959 C 148.147 15.792 149.445 14.811 151.071 14.811 C 152.858 14.811 154.167 15.792 154.167 16.959 Z" style="fill: rgb(63, 123, 252);"/>
  <path class="s4" d="M 154.167 31.62 C 154.167 32.795 152.858 33.768 151.071 33.768 C 149.445 33.768 148.147 32.795 148.147 31.62 C 148.147 30.35 149.445 29.369 151.071 29.369 C 152.858 29.369 154.167 30.35 154.167 31.62 Z" style="fill: rgb(63, 123, 252);"/>
  <path class="s4" d="M 133.853 16.959 C 133.853 18.23 132.55 19.21 130.926 19.21 C 129.132 19.21 127.841 18.23 127.841 16.959 C 127.841 15.792 129.132 14.811 130.926 14.811 C 132.55 14.811 133.853 15.792 133.853 16.959 Z" style="fill: rgb(63, 123, 252);"/>
  <path class="s4" d="M 133.853 31.62 C 133.853 32.795 132.55 33.768 130.926 33.768 C 129.132 33.768 127.841 32.795 127.841 31.62 C 127.841 30.35 129.132 29.369 130.926 29.369 C 132.55 29.369 133.853 30.35 133.853 31.62 Z" style="fill: rgb(63, 123, 252);"/>
  <path class="s4" d="M 113.708 16.959 C 113.708 18.23 112.237 19.21 110.613 19.21 C 108.987 19.21 107.529 18.23 107.529 16.959 C 107.529 15.792 108.987 14.811 110.613 14.811 C 112.237 14.811 113.708 15.792 113.708 16.959 Z" style="fill: rgb(63, 123, 252);"/>
  <path class="s4" d="M 113.708 31.62 C 113.708 32.795 112.237 33.768 110.613 33.768 C 108.987 33.768 107.529 32.795 107.529 31.62 C 107.529 30.35 108.987 29.369 110.613 29.369 C 112.237 29.369 113.708 30.35 113.708 31.62 Z" style="fill: rgb(63, 123, 252);"/>
  <path class="s4" d="M 93.396 16.959 C 93.396 18.23 92.092 19.21 90.466 19.21 C 88.679 19.21 87.381 18.23 87.381 16.959 C 87.381 15.792 88.679 14.811 90.466 14.811 C 92.092 14.811 93.396 15.792 93.396 16.959 Z" style="fill: rgb(63, 123, 252);"/>
  <path class="s4" d="M 93.396 31.62 C 93.396 32.795 92.092 33.768 90.466 33.768 C 88.679 33.768 87.381 32.795 87.381 31.62 C 87.381 30.35 88.679 29.369 90.466 29.369 C 92.092 29.369 93.396 30.35 93.396 31.62 Z" style="fill: rgb(63, 123, 252);"/>
  <path class="s4" d="M 73.245 16.959 C 73.245 18.23 71.78 19.21 70.154 19.21 C 68.528 19.21 67.068 18.23 67.068 16.959 C 67.068 15.792 68.528 14.811 70.154 14.811 C 71.78 14.811 73.245 15.792 73.245 16.959 Z" style="fill: rgb(63, 123, 252);"/>
  <path class="s4" d="M 73.245 31.62 C 73.245 32.795 71.78 33.768 70.154 33.768 C 68.528 33.768 67.068 32.795 67.068 31.62 C 67.068 30.35 68.528 29.369 70.154 29.369 C 71.78 29.369 73.245 30.35 73.245 31.62 Z" style="fill: rgb(63, 123, 252);"/>
  <path class="s4" d="M 52.93 31.62 C 52.93 32.795 51.633 33.768 49.851 33.768 C 48.225 33.768 46.922 32.795 46.922 31.62 C 46.922 30.35 48.225 29.369 49.851 29.369 C 51.633 29.369 52.93 30.35 52.93 31.62 Z" style="fill: rgb(63, 123, 252);"/>
  <path class="s12" d="M 415.238 365.705 C 404.692 365.705 396.168 356.288 396.168 344.618 C 396.168 332.948 404.692 323.532 415.238 323.532 C 425.784 323.532 434.37 332.948 434.37 344.618 C 434.37 356.288 425.784 365.705 415.238 365.705 Z" style="fill: url(#gradient-4); fill-opacity: 0.86;"/>
  <path class="s12" d="M 379.866 382.268 C 372.732 382.268 366.966 376.357 366.966 369.028 C 366.966 361.702 372.732 355.789 379.866 355.789 C 386.999 355.789 392.808 361.702 392.808 369.028 C 392.808 376.357 386.999 382.268 379.866 382.268 Z" style="fill: url(#gradient-6); fill-opacity: 0.75;"/>
  <path class="s12" d="M 354.122 387.039 C 350.989 387.039 348.456 384.581 348.456 381.534 C 348.456 378.489 350.989 376.029 354.122 376.029 C 357.252 376.029 359.802 378.489 359.802 381.534 C 359.802 384.581 357.252 387.039 354.122 387.039 Z" style="fill: url(#gradient-5); fill-opacity: 0.58;"/>
  <path class="s10" d="M 166.715 173.695 C 155.123 182.021 119.645 191.289 108.073 185.382 C 98.78 180.659 64.898 164.506 49.278 154.321 C 36.91 146.257 -10.694 107.395 18.095 60.207 C 37.133 29 117.213 16.237 142.976 42.281 C 156.414 55.839 163.596 73.897 164.572 92.237 C 164.896 97.974 167.245 103.317 171.13 107.143 C 174.766 110.687 177.852 115.075 180.139 120.25 C 188.553 139.153 182.723 162.275 166.715 173.695 Z" style="fill-rule: nonzero; paint-order: fill; fill-opacity: 0.18; fill: url(#gradient-8);" transform="matrix(-0.5459, -0.83785, 0.83785, -0.5459, 58.867668, 247.432503)"/>
</svg>