<svg xmlns="http://www.w3.org/2000/svg" viewBox="0 389.6 1023.4 1401.3"><path d="M220.9 1678.8h-30.2v-76c0-11.2-8.8-19.9-19.9-19.9H143c-11.2 0-20.9 8.7-20.9 19.9v167.6c0 11.2 9.8 20.5 20.9 20.5h27.9c11.2 0 19.9-9.3 19.9-20.5v-73.6H221c5.1 0 9.6-4.4 9.6-9.6v.2c-.1-5-4.6-8.6-9.7-8.6zM802.4 1678.8h29.3v-76c0-11.2 9.6-19.9 20.8-19.9h27.9c11.2 0 21 8.7 21 19.9v167.6c0 11.2-9.8 20.5-21 20.5h-27.9c-11.2 0-20.8-9.3-20.8-20.5v-73.6h-29.3c-5.1 0-9.6-4.4-9.6-9.6v.2c.1-5 4.5-8.6 9.6-8.6z"/><path fill="#4F8DC6" d="M511.7 389.6H19.8C8.6 389.6 0 398 0 409.2V479c0 11.2 8.6 20.9 19.8 20.9h491.9V389.6z"/><path fill="#4385B5" d="M1023.4 479v-69.9c0-11.2-8.7-19.5-19.9-19.5H511.7v110.3h491.9c11.1 0 19.8-9.7 19.8-20.9zM511.7 540.2v-40.3H38l1.2 30.5c101.9-1.7 282.6-2.4 472.5 9.8z"/><path fill="#4F8DC6" d="M39.2 528.8l39.2 986.1c0 38.8 27.3 70.8 60.9 70.8h65.9v132.7c0 25.5 31.4 45.4 70.2 45.4h236.3V539c-189.9-12.2-370.6-11.9-472.5-10.2z"/><path fill="#3C7AA0" d="M981.1 607.4l4.3-107.4H511.7v40.3C675.3 550.7 847 571 981.1 607.4z"/><path fill="#4385B5" d="M511.7 539v1224.8h236.2c38.8 0 70.3-19.9 70.3-45.4v-132.7H884c33.7 0 60.9-32 60.9-70.8L981 606c-134-36.3-305.7-56.5-469.3-67z"/><path fill-rule="evenodd" clip-rule="evenodd" fill="#F4F4F4" d="M366.5 1177.1c-15.2.1-28.7-3.1-40.6-9.6-11.9-6.6-19.1-13.7-21.6-21.4-1.5-3.8-2.6-7.4-3.2-10.6-.6-3.3-1-7.3-1-12-.1-7.4.8-14.2 2.7-20.3 1.9-6.1 4.1-11.4 6.8-15.9 2.6-4.5 4.9-7.8 6.8-10.1 1.9-2.2 3.3-3.7 4.2-4.3l-31.8-18.8 103.7-3.2 48 90.4-30-17.1c-.9.9-2.3 2.3-4.2 4.3-1.9 1.9-4.1 4.3-6.6 7.2-2.5 2.9-4.9 5.7-7.2 8.5-2.3 2.9-4 5.2-4.8 7-2 3.6-3 6.9-3 9.8 0 4.8 1.8 8.4 5.2 10.9 3.4 2.5 6.2 4.2 8.3 5l-31.7.2zm299.3 13.4c10.1-.4 19.4-2.6 27.8-6.7 8.4-4.1 15.6-8.8 21.5-14 5.9-5.2 10.3-9.7 13.2-13.5 2.9-3.7 5-6.5 6.1-8.3-2 6.2-4.5 12.2-7.4 17.9-2.9 5.7-6.7 12.5-11.4 20.6-2.9 5.4-5 9.1-6.1 11.2-2.3 5.1-4.8 10.3-7.4 15.7-6.4 13.8-11.6 24.7-15.7 32.7-4.1 8.1-8.6 15.9-13.6 23.3-5 7.5-10.1 13.5-15.4 18-5.3 4.5-10.8 6.8-16.4 6.9-3.9 0-21.5.2-53 .5l.3 36.5-55.1-87.8 54.4-87-.1 34.8c51.3-.5 77.4-.8 78.3-.8zM463.5 887.3c10.1-.3 29.4-.5 57.9-.8 28.8-.3 49.9.3 63.5 1.9 13.5 1.5 22.1 5.3 25.7 11.5.6 1.2 2.2 4.1 4.8 8.7 2.6 4.6 5.6 9.6 9 15.3 3.4 5.6 6.2 10.2 8.4 13.7 2.1 3.5 3.6 6.2 4.5 8l31.5-18.6-43.2 97-107.4-8.8 29.7-17.6-38-64.2c-5.7-10.1-12.3-18.2-19.8-24.5-7.5-6.3-14.9-10.8-22.2-13.6-7.3-2.7-13.4-4.5-18.3-5.2-4.9-.7-8.6-1-10.9-1 6.4-.9 14.7-1.6 24.8-1.8zm-139.3 289.6c-11.3-5.1-19-11.5-22.9-19.2 1.2 2.1 3.1 5.4 5.7 9.9 2.6 4.6 6 10.7 10.4 18.4 4.4 7.7 9 15.8 13.8 24.3 4.8 8.5 8.3 14.9 10.4 19 1.2 2.4 2 4 2.3 4.9 3.6 7.7 7 14.5 10.2 20.6 3.2 6 6.8 12.3 10.9 18.8 4.1 6.5 8.3 11.8 12.6 15.9 4.3 4.1 8.4 6.1 12.3 6.1l116.2-1.1-1-111.5c-68.6.7-115.7 1.1-141.6 1.3-14.9.2-28-2.3-39.3-7.4zm330.1-3.8c-5.3-8.3-16.6-25.8-33.9-52.5-17.3-26.7-27.5-42.4-30.5-47.1l91.2-55.2c.9 1.5 3 5.3 6.3 11.5s7.4 13.7 12.2 22.6c10 18.6 17.4 32.4 22.2 41.4 4.8 9 8.3 15.3 10.4 18.8 1.5 2.7 2.3 6.1 2.3 10.2.1 5.6-1.2 12-3.8 19.2-.9 1.8-2.9 4.6-6 8.5-3.1 3.9-7.5 8.4-13.2 13.7-5.7 5.3-12.9 10-21.4 14.2-8.6 4.2-17.8 6.5-27.6 6.9-.2.2-3-4-8.2-12.2zm-213.8-121.2l-90.4-50.1c.9-1.5 5-8.2 12.3-20.2 1.5-2.4 5.2-8.5 11.2-18.4 6-9.9 11.3-18.6 16-26.3 4.7-7.6 8.5-14 11.4-19.1 2.9-5.1 5-8.5 6.1-10.3 2-3.6 5.1-6.3 9.1-8.1 4-1.8 9.8-3.5 17.5-5.1 3 0 7 .3 12 1s11.2 2.4 18.5 5.2c7.3 2.8 14.6 7.2 21.9 13.2 7.3 6.1 13.7 13.9 19.1 23.7l1.4 2.2c1.5 2.4 2.9 4.6 4.1 6.7l-70.2 105.6z"/></svg>