<svg xmlns="http://www.w3.org/2000/svg" xmlns:xlink="http://www.w3.org/1999/xlink" viewBox="46.739 0.861 282.26 343.14"><style><![CDATA[.B{fill:#333}.C{fill:#ffc0bb}.D{fill:#fff}.E{opacity:.3}.F{fill:#ff5b7e}.G{fill:#f99893}.H{fill:#02baa8}.I{opacity:.5}.J{opacity:.6}.K{fill:#02ccc0}.L{fill:#cfe9fa}.M{fill:#1a1a1a}.N{fill:#9e9da2}.O{fill:#07085b}.P{pointer-events:none}.Q{fill:#183658}.R{fill:#d8d9dd}.S{fill:#122f5b}.T{fill-rule:evenodd}]]></style><defs><linearGradient id="A" x1="253.43" x2="253.43" y1="-203.83" y2="348.95" gradientUnits="userSpaceOnUse"><stop stop-color="rgba(153, 106, 246, 1)" offset="0"/><stop stop-color="rgba(88, 14, 236, 1)" offset="1"/></linearGradient><linearGradient id="B" x1="190.8" x2="190.8" y1="-96.498" y2="359.17" gradientUnits="userSpaceOnUse"><stop stop-color="rgba(153, 106, 246, 1)" offset="0"/><stop stop-color="rgba(88, 14, 236, 1)" offset="1"/></linearGradient><linearGradient id="C" x1="151.78" x2="151.78" y1="-34.836" y2="309.19" gradientUnits="userSpaceOnUse"><stop stop-color="rgba(153, 106, 246, 1)" offset="0"/><stop stop-color="rgba(88, 14, 236, 1)" offset="1"/></linearGradient><path id="D" d="M70.9243056 262.9440931l-.9202986.0081997c-.1236222.0081997-.2129049-.1557943-.1991691-.3361877l.0824148-.81997c.0068679-.0737973.0618111-.1311952.1304901-.1311952.2953197.0163994.7279974.2131922 1.0233171 1.0823604.0343395.0983964-.0274716.1967928-.1167543.1967928z"/><path id="E" d="M89.4538998 246.3970985l-1.2018825-2.2385181 2.2732749-1.5743424.8035443 1.4923454q.7486011 1.6809385-.8447517 2.2385181z"/><path id="F" d="M86.8097583 241.6166734l-1.6002207-3.1076863q-.3639987-.7871712-1.0713924-.8855676l2.7540279-.0573979c.3639987-.0081997.7211295.1229955 1.0027134.3853859.0824148.081997.1579617.163994.206037.2541907q.206037.3689865.9821097 1.9023304l1.2842973-.8773679-1.510938 3.2962794-3.2210451-.1229955z"/><path id="G" d="M85.3674993 239.3207574l-1.1400714 2.2795166-2.3213502-1.4923454.7623369-1.5169445q.9271665-1.557943 2.1359169-.2541907z"/></defs><path transform="matrix(-.91352 .4068 -.4068 -.91352 514.47 35.745)" d="M638.91-203.83c-24.023.116-49.471 3.111-72.074 6.725-67.98 10.879-147.02 42.082-201.48 91.934-62.531 57.23-43.521 148.39-107.4 204.49-74.579 65.501-191.67 52.563-272.91 111.08-51.082 36.79-104.98 92.804-117.72 138.55h570.11l202.1-552.78h-.634z" fill="url(#A)" fill-opacity=".35" class="P"/><path transform="matrix(-.99345 .11424000000000001 -.11424000000000001 -.99345 395.37 240.02)" d="M396.32-96.498c-15.434.095-31.341 2.563-45.324 5.545-42.053 8.966-88.1 34.689-115.48 75.781-31.436 47.177-5.223 122.33-37.699 168.57-37.916 53.995-115.21 43.331-158.48 91.567-27.208 30.33-53.279 76.504-54.455 114.21h366.68l45.165-455.67h-.407z" fill="url(#B)" fill-opacity=".7" class="P"/><path transform="matrix(-.97112 .23857 -.23857 -.97112 331.89 234.18)" d="M349.78-34.836c-13.264.071-27.158 1.936-39.448 4.186-36.962 6.769-78.936 26.19-106.33 57.215-31.451 35.618-16.034 92.353-48.291 127.27-37.66 40.765-103.04 32.714-144.75 69.131-26.23 22.899-52.98 57.76-57.55 86.228h314.9l81.812-344.03h-.35z" fill="url(#C)" paint-order="stroke markers" class="P"/><path d="M73.095 191.13h46.997c4.086 0 7.396 3.394 7.396 7.576v28.109h3.131v-28.109c0-4.182 3.312-7.576 7.397-7.576h20.707c4.08 0 7.39 3.394 7.39 7.576v28.109h2.933v-28.109c0-4.182 3.31-7.576 7.396-7.576H222.1c4.079 0 7.391 3.394 7.391 7.576V235.4c0 4.181-3.312 7.576-7.391 7.576h-45.658c-3.358 0-6.187-2.288-7.095-5.428h-3.535c-.901 3.14-3.737 5.428-7.089 5.428h-20.707c-3.358 0-6.187-2.288-7.093-5.428h-3.744c-.9 3.14-3.729 5.428-7.087 5.428H73.095c-4.081 0-7.39-3.395-7.39-7.576v-36.694c0-4.182 3.309-7.576 7.39-7.576z" class="B"/><path d="M92.839 189.74v-7.043l10.543-14.572h104.23v61.105H92.842v-39.49z" class="K"/><path d="M207.67 167.34h4.038v62.524h-4.038V167.34z" class="H"/><path d="M91.7340426 227.8657765h19.2095163v-59.1116373h1.4903343v59.1116373h22.320675v-59.1116373h1.4903343v59.1116373h22.3138071v-59.1116373h1.4972022v59.1116373h22.3138071v-59.1116373h1.4903343v59.1116373h22.3138071v-59.1116373h1.4972022v61.1041644h-1.4972022v-.6641757h-22.3138071v.6641757h-1.4903343v-.6641757h-22.3138071v.6641757h-1.4972022v-.6641757h-22.3138071v.6641757h-1.4903343v-.6641757h-22.320675v.6641757h-1.4903343v-.6641757H91.7340426z" style="mix-blend-mode:multiply" class="K"/><path d="M183.86 167.34h4.046v62.524h-4.046V167.34zm-23.8 0h4.039v62.524h-4.039V167.34zm-23.82 0h4.039v62.524h-4.039V167.34zm-23.81 0h4.046v62.524h-4.046V167.34z" class="H"/><g class="K"><path d="M87.792 234.39H63.589l-3.955-31.249 16.715-28.592 27.094-5.789-5.206 43.573-10.445 22.057z"/><path d="M103.038606 182.6936292L88.6984308 233.400574l-1.4903343-.4263844 16.2357156-64.2200504h1.6826355z" style="mix-blend-mode:multiply"/></g><g class="H"><path d="m105.81 166.04 3.928 1.091-17.114 67.253-3.929-1.098 17.115-67.246z"/><path d="M60.382 229.2h152.36v5.19H60.382v-5.19z"/></g><g class="K"><path d="M60.382 229.2h152.36v1.337H60.382V229.2z" style="mix-blend-mode:screen" class="I"/><path d="M63.6031242 204.127645l-.0274716-.2787898 14.6835702-25.9684499 20.9951703-3.771862-13.0902174 51.8877016H65.9656818zm33.721389-28.0839725l-18.2411424 3.27988-14.079195 24.8942892 2.1839922 20.2040608h17.925219z" style="mix-blend-mode:multiply" class="T"/><path d="m259.95 193.07 9.25 28.256v17.884h-29.682-23.44v-43.09c0-3.739 2.672-6.773 5.975-6.773h33.172c2.102 0 3.991 1.485 4.725 3.723z"/><path d="M226.0770345 197.6908805q5.5561311 34.2419472 34.2364815 32.8397985l.1098864 5.2724071-.1098864 1.2709535-.4601493.8937673-.5906394.6723754-.892827.4509835-.4258098.0655976-2.0328984.0491982h-7.1563518q-8.6810256-.0163994-8.722233.0081997-.0412074.0245991-3.2416488 0l-10.8169425-7.9045108z" opacity=".2" style="mix-blend-mode:multiply"/><path d="M269.2 221.32h1.232v11.922H269.2V221.32z"/></g><path d="M225.88 236.11v-38.415c0-1.771 1.271-3.214 2.829-3.214h22.61c1.174 0 2.238.844 2.65 2.091l6.366 19.367c.118.353.18.73.18 1.115v19.056c0 1.771-1.264 3.214-2.823 3.214h-28.983c-1.558 0-2.829-1.443-2.829-3.214zm2.829-41.4c-1.456 0-2.631 1.337-2.631 2.985v38.415c0 1.648 1.175 2.985 2.631 2.985h28.983c1.449 0 2.623-1.337 2.623-2.985v-19.056c0-.352-.054-.705-.165-1.041l-6.366-19.368c-.385-1.156-1.374-1.935-2.465-1.935h-22.61z" class="Q T"/><path d="M271.27 232.38h-.843v-10.2h.843c.213 0 .385.197.385.442v9.324c0 .238-.172.434-.385.434z" fill="#e5be00"/><path d="M256.14 216.49h-27.059c-.845 0-1.525-.779-1.525-1.73v-16.916c0-.959.68-1.73 1.525-1.73h21.785c.652 0 1.23.46 1.441 1.157l5.276 16.907c.35 1.132-.385 2.312-1.443 2.312z" class="Q"/><path d="m272.37 243.42c0 2.329-1.414 4.223-3.152 4.223h-53.137v-8.437h53.137c1.738 0 3.152 1.886 3.152 4.214z" class="H"/><path d="M267.62 216.49h-2.053l-5.962-18.194c-.342-1.058.344-2.182 1.34-2.182l6.675 20.376z" class="Q"/><path d="M148.79 247.64h-2.555-27.424c-.816-1.645-1.055-2.501-.721-2.567s1.373-2.544 3.132-7.421l6.235-5.272 6.855-1.852 6.236 1.852 4.662 3.813 2.892 4.092 1.497 6.084-.809 1.271z" class="B"/><path d="M149.47 248.38c-.372 0-.666-.328-.68-.738-.344-9.052-6.938-16.293-14.993-16.293-8.05 0-14.642 7.241-14.986 16.293-.014.41-.316.738-.68.738-.391 0-.701-.369-.687-.812.378-9.864 7.568-17.768 16.353-17.768 8.791 0 15.981 7.904 16.352 17.768.02.443-.295.812-.679.812z" class="H"/><path d="M235.35 195.08h1.051v22.442h-1.051V195.08z" class="K"/><path d="M103.69 247.64h-2.553-27.424c-.811-1.645-1.051-2.501-.722-2.567s1.378-2.544 3.132-7.421l6.242-5.272 6.848-1.852 6.244 1.852 4.655 3.813 2.899 4.092 1.49 6.084-.811 1.271z" class="B"/><path d="M104.37 248.38c-.365 0-.667-.328-.681-.738-.343-9.052-6.936-16.293-14.992-16.293-8.049 0-14.643 7.241-14.985 16.293-.014.41-.316.738-.681.738-.391 0-.7-.369-.686-.812.377-9.864 7.568-17.768 16.352-17.768 8.791 0 15.982 7.904 16.36 17.768.013.443-.296.812-.687.812z" class="H"/><path d="m133.8 233.15c7.21 0 13.055 6.634 13.055 14.817s-5.845 14.816-13.055 14.816c-7.205 0-13.049-6.633-13.049-14.816s5.844-14.817 13.049-14.817z" class="M"/><g class="N"><path d="m133.8 237.66c5.021 0 9.085 4.617 9.085 10.308 0 5.698-4.064 10.315-9.085 10.315-5.014 0-9.08-4.617-9.08-10.315 0-5.691 4.066-10.308 9.08-10.308z"/><path d="M128.74 239.41c-.871 1.583-1.38 3.452-1.38 5.454 0 5.698 4.066 10.315 9.079 10.315 1.876 0 3.62-.648 5.07-1.755-1.607 2.91-4.458 4.854-7.706 4.854-5.014 0-9.08-4.617-9.08-10.315 0-3.559 1.593-6.708 4.017-8.553z" style="mix-blend-mode:multiply" class="I"/></g><g class="R"><path d="m133.8 241.07c3.358 0 6.077 3.091 6.077 6.896 0 3.813-2.719 6.895-6.077 6.895-3.352 0-6.072-3.082-6.072-6.895 0-3.805 2.72-6.896 6.072-6.896z"/><path d="M130.45 242.22c-.639 1.091-1.009 2.402-1.009 3.813 0 3.804 2.719 6.896 6.071 6.896 1.243 0 2.397-.427 3.351-1.148-1.085 1.861-2.946 3.082-5.061 3.082-3.352 0-6.072-3.082-6.072-6.895 0-2.394 1.078-4.511 2.72-5.748z" style="mix-blend-mode:screen" class="E"/></g><path d="M269.21 239.21c1.738 0 3.152 1.886 3.152 4.214 0 .172-.014.344-.027.517-.192-2.091-1.511-3.715-3.125-3.715h-53.137v-1.016h53.137z" style="mix-blend-mode:screen" class="I K"/><path d="m88.698 233.15c7.211 0 13.057 6.634 13.057 14.817s-5.846 14.816-13.057 14.816c-7.204 0-13.049-6.633-13.049-14.816s5.845-14.817 13.049-14.817z" class="M"/><g class="N"><path d="m88.698 237.66c5.02 0 9.086 4.617 9.086 10.308 0 5.698-4.066 10.315-9.086 10.315-5.013 0-9.079-4.617-9.079-10.315 0-5.691 4.066-10.308 9.079-10.308z"/><path d="M83.637 239.41c-.873 1.583-1.381 3.452-1.381 5.454 0 5.698 4.065 10.315 9.086 10.315 1.875 0 3.613-.648 5.062-1.755-1.607 2.91-4.451 4.854-7.706 4.854-5.013 0-9.079-4.617-9.079-10.315 0-3.559 1.593-6.708 4.018-8.553z" style="mix-blend-mode:multiply" class="I"/></g><g class="R"><path d="m88.698 241.07c3.358 0 6.078 3.091 6.078 6.896 0 3.813-2.72 6.895-6.078 6.895-3.351 0-6.071-3.082-6.071-6.895 0-3.805 2.72-6.896 6.071-6.896z"/><path d="M85.347 242.22c-.639 1.091-1.01 2.402-1.01 3.813 0 3.804 2.72 6.896 6.071 6.896 1.244 0 2.397-.427 3.359-1.148-1.092 1.861-2.953 3.082-5.069 3.082-3.351 0-6.071-3.082-6.071-6.895 0-2.394 1.078-4.511 2.72-5.748z" style="mix-blend-mode:screen" class="E"/></g><path d="M246.78 247.64h-2.556H216.8c-.811-1.645-1.05-2.501-.721-2.567.335-.071 1.379-2.544 3.132-7.421l6.243-5.272 6.848-1.852 6.242 1.852 4.656 3.813 2.899 4.092 1.49 6.084-.809 1.271zm-17.11-28.09v-.861c0-.115.076-.197.173-.197h7.912c.095 0 .171.082.171.197v.861c0 .107-.076.197-.171.197h-7.912c-.097 0-.173-.09-.173-.197z" class="B"/><path d="m231.79 233.15c7.204 0 13.048 6.634 13.048 14.817s-5.844 14.816-13.048 14.816c-7.212 0-13.055-6.633-13.055-14.816s5.843-14.817 13.055-14.817z" class="M"/><g class="N"><path d="m231.79 237.66c5.014 0 9.079 4.617 9.079 10.308 0 5.698-4.065 10.315-9.079 10.315-5.02 0-9.087-4.617-9.087-10.315 0-5.691 4.067-10.308 9.087-10.308z"/><path d="M226.72 239.41c-.872 1.583-1.38 3.452-1.38 5.454 0 5.698 4.066 10.315 9.086 10.315 1.874 0 3.612-.648 5.062-1.755-1.608 2.91-4.451 4.854-7.699 4.854-5.02 0-9.087-4.617-9.087-10.315 0-3.559 1.594-6.708 4.018-8.553z" style="mix-blend-mode:multiply" class="I"/></g><g class="R"><path d="m231.79 241.07c3.352 0 6.071 3.091 6.071 6.896 0 3.813-2.719 6.895-6.071 6.895-3.359 0-6.079-3.082-6.079-6.895 0-3.805 2.72-6.896 6.079-6.896z"/><path d="M228.43 242.22c-.639 1.091-1.009 2.402-1.009 3.813 0 3.804 2.72 6.896 6.07 6.896 1.244 0 2.398-.427 3.359-1.148-1.091 1.861-2.952 3.082-5.061 3.082-3.359 0-6.079-3.082-6.079-6.895 0-2.394 1.086-4.511 2.72-5.748z" style="mix-blend-mode:screen" class="E"/></g><path d="M176.31 246.18v-6.42c0-.803.577-1.46 1.291-1.46h26.112c.714 0 1.291.657 1.291 1.46v6.42c0 .812-.577 1.468-1.291 1.468h-26.112c-.714 0-1.291-.656-1.291-1.468z" class="M"/><path d="M200.78 247.81v-13.423h.879v13.423c0 .09-.061.156-.137.156h-.604c-.076 0-.138-.066-.138-.156zm-20.79 0v-13.423h.88v13.423c0 .09-.062.156-.138.156h-.605c-.076 0-.137-.066-.137-.156z" class="N"/><path d="M56.096 236.06v-1.362c0-.171.124-.311.274-.311h10.2c.151 0 .275.14.275.311v1.362c0 .172-.124.303-.275.303h-10.2c-.15 0-.274-.131-.274-.303z" class="B"/><path d="M247.46 248.38c-.363 0-.666-.328-.678-.738-.345-9.052-6.938-16.293-14.987-16.293-8.057 0-14.649 7.241-14.993 16.293-.013.41-.316.738-.68.738-.392 0-.7-.369-.686-.812.377-9.864 7.568-17.768 16.359-17.768 8.784 0 15.974 7.904 16.352 17.768.014.443-.295.812-.687.812z" class="H"/><path d="M247.02 196.12l6.188 20.376h-5.062l-6.38-20.376h5.254zm-7.23 0l6.428 20.376h-1.992l-6.045-20.376h1.609z" class="E D"/><path d="M131.42 218.99c-1.296.99-3.797 1.181-7.505.574-2.308-1.847-1.922-2.927 1.16-3.239s5.27-1.348 6.579-3.107c1.14 2.859 1.062 4.783-.234 5.772z" fill="#c2ddf9"/><path d="M116.58 214.38v-.041c-.097-.713.274-1.394.851-1.632.103-.041.159-.155.145-.27l-.083-.648.578-.099.081.648c.014.123.096.214.199.214.619.049 1.141.573 1.237 1.287l.006.04c.014.124-.054.247-.164.271l.296 2.263c.109.017.205.115.226.255l.419 3.255c.069.533-.254 1.025-.721 1.107l-.66.107-.652.106c-.474.082-.907-.287-.975-.82l-.419-3.255c-.02-.14.048-.262.151-.32l-.289-2.255c-.109 0-.206-.09-.226-.213z" class="J L"/><path d="M117.39 212.12l-.034-.255c-.007-.057.027-.106.069-.114l.701-.115c.048-.008.088.033.095.082l.035.254c.006.058-.027.107-.069.115l-.701.115c-.047.008-.089-.033-.096-.082z" class="F"/><path d="M116.92 214.3c-.055 0-.096-.049-.096-.106-.006-.837.549-1.239.577-1.255.042-.033.096-.017.124.033s.013.114-.028.147c-.02.017-.495.353-.488 1.075 0 .048-.034.09-.081.098 0 .005-.003.008-.008.008z" class="D"/><g class="L"><path d="M117.1 216.85l-.289-2.255 1.32-.221c-.651.202-.979.467-.982.796-.008.491-.159 1.738 1.269 1.516-.769.208-1.149.544-1.139 1.008.006.689.02 3.691 1.716 3.445l-.652.106c-.474.082-.907-.287-.975-.82l-.419-3.255c-.02-.14.048-.262.151-.32z" style="mix-blend-mode:multiply" class="E"/><path d="M123.21 213.85l.034-.008c.618-.205 1.256.114 1.546.738.048.098.157.147.253.115l.556-.181.165.64-.556.18c-.096.033-.165.14-.158.255.048.697-.337 1.361-.955 1.566l-.034.008c-.103.041-.219-.025-.261-.14l-1.923.64c0 .131-.076.254-.192.287l-2.789.927c-.453.147-.927-.148-1.058-.664l-.192-.722-.185-.722c-.131-.516.131-1.058.584-1.213l2.788-.918c.117-.042.234.015.295.13l1.929-.639c-.019-.123.049-.246.153-.279z" class="J"/></g><path d="M125.29 214.45l.22-.074c.048-.016.097.017.11.066l.192.77c.014.049-.014.107-.055.115l-.219.074c-.042.016-.09-.016-.104-.066l-.199-.77c-.013-.05.014-.107.055-.115z" class="F"/><path d="M123.33 214.22c-.006-.058.028-.115.082-.123.728-.115 1.154.45 1.168.476.034.049.027.114-.014.147-.034.041-.096.033-.13-.008-.014-.025-.378-.508-1.003-.402-.041.008-.089-.024-.096-.074-.005-.006-.007-.011-.007-.016z" class="D"/><g class="L"><path d="M121.13 214.77l1.929-.639.372 1.452c-.266-.7-.541-1.031-.824-.993-.433.065-1.538.065-1.148 1.64-.287-.836-.633-1.219-1.036-1.147-.605.106-3.221.532-2.775 2.41l-.185-.722c-.131-.516.131-1.058.584-1.213l2.788-.918c.117-.042.234.015.295.13z" style="mix-blend-mode:multiply" class="E"/><path d="M122.05 211.21l.026-.025c.51-.435 1.209-.385 1.67.075.075.073.192.081.274.008l.461-.394.35.533-.461.393c-.082.074-.109.197-.061.304.261.631.11 1.402-.406 1.836l-.026.025c-.09.073-.214.065-.282-.025l-1.601 1.362c.042.122.008.27-.089.352l-2.308 1.968c-.378.328-.913.238-1.194-.189l-.399-.607-.398-.598c-.288-.426-.213-1.041.165-1.361l2.307-1.968c.097-.082.227-.082.316 0l1.6-1.37c-.054-.106-.034-.245.056-.319z" class="J"/></g><path d="M124.17 210.94l.186-.147c.034-.034.089-.024.116.016l.426.64c.027.041.02.106-.021.139l-.178.147c-.035.033-.09.025-.117-.016l-.426-.639c-.027-.042-.021-.107.014-.14z" class="F"/><path d="M122.28 211.5c-.027-.05-.007-.115.034-.139.646-.411 1.216-.041 1.244-.025.041.025.055.09.034.139-.027.05-.083.066-.131.042-.02-.017-.507-.321-1.057.024-.042.024-.09.016-.117-.033-.004 0-.007-.003-.007-.008z" class="D"/><g class="L"><path d="M120.39 212.9l1.6-1.37.804 1.206c-.471-.547-.832-.743-1.086-.59-.383.23-1.407.672-.555 1.992-.532-.672-.974-.894-1.326-.664-.529.336-2.83 1.779-1.827 3.353l-.398-.598c-.288-.426-.213-1.041.165-1.361l2.307-1.968c.097-.082.227-.082.316 0z" style="mix-blend-mode:multiply" class="E"/><path d="M116.55 216.36l-.026-.016c-.551-.361-.785-1.107-.592-1.772.034-.114-.013-.237-.103-.294l-.494-.329.295-.573.495.327c.089.058.206.042.274-.049.405-.516 1.092-.663 1.648-.295l.028.017c.097.065.131.197.089.312l1.731 1.139c.082-.099.213-.115.315-.049l2.501 1.64c.412.27.549.869.308 1.328l-.329.656-.329.648c-.241.468-.762.623-1.169.361l-2.499-1.641c-.109-.073-.157-.213-.131-.336l-1.73-1.14c-.063.099-.186.132-.282.066z" class="J"/></g><path d="M115.5 214.26l-.193-.131c-.04-.025-.054-.091-.034-.131l.358-.697c.02-.042.075-.058.117-.034l.192.124c.041.033.055.09.034.14l-.357.688c-.02.049-.075.066-.117.041z" class="F"/><path d="M116.7 216.02c-.028.049-.089.057-.124.017-.584-.518-.508-1.255-.508-1.288.006-.057.054-.098.103-.091.054.009.088.058.082.115 0 .025-.062.656.433 1.1.04.032.048.089.028.131-.006.005-.01.01-.014.016z" class="D"/><path d="M118.57 217.44l-1.73-1.14.666-1.303c-.262.7-.28 1.153-.055 1.361.33.312 1.093 1.214 1.834-.197-.339.815-.346 1.361-.02 1.64.48.426 2.547 2.271 3.433.607l-.329.648c-.241.468-.762.623-1.169.361l-2.499-1.641c-.109-.073-.157-.213-.131-.336z" style="mix-blend-mode:multiply" class="E L"/><path d="M122.34 218.94c.966-2.488 1.44-3.991 1.422-4.51l4.347.393-1.572 4.273-4.197-.156zm-5.86.35l-1.573-4.264 4.348-.403c-.019.52.455 2.023 1.421 4.511l-4.196.156z" fill="#d7eef9"/><path d="M114.57 216.99h13.31v10.079h-13.31V216.99z" fill="#edd9a4"/><g fill="#d6bb80"><path d="M123.38 216.99h4.499v10.079h-4.499V216.99z"/><path d="M123.99 219.02c0-.131.089-.238.199-.238h3.077c.109 0 .199.107.199.238s-.09.246-.199.246h-3.077c-.11 0-.199-.115-.199-.246z" style="mix-blend-mode:multiply"/></g><path d="M131.55 262.94l-.474-1.557.061-1.788.33-.164 1.497.467v1.485l-1.414 1.557z" class="C"/><path d="m132.56 228.2 2.851 9.939-2.177 22.172h-2.467l-1.057-29.339 2.85-2.772z" class="S"/><path d="M141.09 262.94l-.467-1.557.056-1.788.336-.164 1.49.467v1.485l-1.415 1.557zm-18.53-40.6c.055-.05.884.271 2.486.959l.371.902-.495.607-.748.287c-1.916.631-1.93.573-1.958.5-.034-.074.687-.59.626-.656s-1.203.246-1.169.139c.042-.115 1.058-.549 1.024-.615-.034-.073-1.133.254-1.161.083-.028-.165 1.182-.476 1.106-.599-.068-.123-1.305.23-1.305.074-.007-.14 1.36-.566 1.799-.705.056-.017.07-.099.028-.14-.673-.672-.686-.771-.604-.836z" class="C"/><path d="M132.47 228.7c2.577-.367 4.455.301 5.631 2.001s2.747 11.495 4.712 29.387l-2.37.222-9.671-29.273 1.698-2.337z" fill="#224887"/><path d="M131.9 211.28l1.854.435.22 1.96c-.622.536-1.332.536-2.129 0l.055-2.395z" class="C"/><path d="M131.87 212.56l.027-1.279 1.882.665.048.475c-.411.172-1.208.386-1.957.139z" fill="#fc8d84"/><path d="M124.66 222.19c.949.262 3.174.13 4.863-.017l.192-4.1c.289-2.449.934-4.069 1.937-4.862.993.136 1.838-.099 2.534-.706 1.337.017 2.393.438 3.166 1.264 2.057 2.011 2.305 5.075.749 9.191l.845 8.159c-1.273.492-4.512.59-9.718.295.256-1.733.366-3.48.329-5.239-1.652-.105-3.284-.307-4.897-.607-.064-.405-.064-1.532 0-3.378z" fill="#e4f0ff"/><path d="M134.94 217.62c-.04.303-.109.599-.199.885-.095.296-.22.566-.364.837-.151.254-.308.508-.501.729-.37.459-.817.829-1.29 1.124-.481.304-.99.533-1.512.705-1.037.353-2.122.484-3.201.517-1.078.024-2.149-.058-3.214-.221 1.071.065 2.144.09 3.208.024l.399-.024.398-.042.797-.115.199-.024.192-.041.391-.09c.131-.025.261-.066.391-.099l.193-.057c.061-.017.123-.041.185-.066.515-.155 1.01-.385 1.47-.672.467-.279.899-.631 1.27-1.05.75-.844 1.216-2.017 1.216-3.238.028.303.014.615-.028.918zm-8.5 8.21l1.785.172c1.189.082 2.385.107 3.572.017.591-.042 1.189-.115 1.773-.23.583-.107 1.159-.263 1.723-.484.556-.213 1.099-.501 1.587-.886.494-.376.913-.869 1.222-1.451-.269.614-.681 1.132-1.16 1.55s-1.024.737-1.594.968c-1.134.483-2.342.688-3.537.778-1.201.082-2.404.049-3.599-.073-1.195-.115-2.383-.321-3.551-.615l1.779.254z" fill="#a2adbe"/><path d="M128.64 263c0-.156.11-.279.24-.279l4.354-.016c.131 0 .241.122.241.279 0 .147-.11.27-.241.279l-4.347.008c-.137 0-.247-.123-.247-.271z" class="S"/><path d="M133.24 261.03l.165 1.542c.021.188-.069.36-.192.36l-4.265.016c-.111 0-.22-.082-.275-.229-.061-.147-.075-.377.116-.68.372-.607 1.608-.772 2.226-1.28.014-.011.027-.016.041-.016l1.964-.008c.111 0 .206.131.22.295z" fill="#3660ac"/><path d="M131.27 261.6c-.069-.18-.295-.632-.769-.533-.034 0-.062-.025-.062-.074-.007-.049.014-.098.041-.098.536-.115.797.401.88.615.02.04.006.098-.021.123-.027.016-.055 0-.069-.033zm-.44.2c-.069-.18-.289-.632-.768-.534-.029.008-.056-.024-.063-.074s.014-.089.048-.097c.53-.107.797.401.88.615.02.04.006.098-.029.122-.02.017-.054 0-.068-.032zm-.42.19c-.069-.18-.288-.632-.769-.533-.028 0-.056-.024-.062-.074 0-.049.02-.098.048-.107.529-.106.796.411.879.616.02.049.006.106-.02.131-.028.017-.063 0-.076-.033z" class="D"/><path d="M138.08 263c0-.156.111-.279.248-.279l4.348-.016c.137 0 .24.122.247.279 0 .147-.11.27-.247.279l-4.348.008c-.137 0-.248-.123-.248-.271z" class="S"/><path d="M142.7 261.03l.159 1.542c.02.188-.069.36-.193.36l-4.266.016c-.109 0-.219-.082-.274-.229-.062-.147-.075-.377.117-.68.378-.607 1.608-.772 2.226-1.28.013-.011.027-.016.04-.016l1.965-.008c.109 0 .206.131.226.295z" fill="#3660ac"/><path d="M140.72 261.6c-.069-.18-.295-.632-.768-.533-.028 0-.055-.025-.063-.074s.015-.098.048-.098c.53-.115.791.401.88.615.014.04.006.098-.028.123-.027.016-.055 0-.069-.033zm-.44.2c-.069-.18-.296-.632-.771-.534-.034.008-.061-.024-.061-.074h-.007c0-.048.021-.089.048-.097.535-.107.797.401.879.615.02.04.006.098-.02.122-.028.017-.055 0-.068-.032zm-.41.19c-.068-.18-.295-.632-.769-.533-.035 0-.062-.024-.062-.074-.007-.049.013-.098.041-.107.536-.106.796.411.879.616.021.049.007.106-.021.131-.027.017-.054 0-.068-.033z" class="D"/><path d="M130.22 205.86c.037-.093.287.04.748.401l-.865 2.312-.006-1.852.123-.861z" class="B"/><path d="M130.58 208.63c.096.369-.035.738-.296.828-.254.09-.549-.139-.646-.5-.095-.368.034-.746.296-.829.253-.09.549.132.646.501z" class="G"/><path d="M130.19 208.82l-.014-.27c-.028-.369.006-.754.117-1.14.344-1.246 1.386-2.099 2.534-2.074 1.553.033 2.706 1.541 2.569 3.247.171-.082.357-.091.509.009.294.188.37.687.157 1.106-.205.418-.618.606-.913.418-.042-.027-.079-.06-.111-.098-.246 1.434-1.387 2.443-2.637 2.288-1.237-.156-2.204-1.247-2.211-3.486z" class="C"/><path d="M132.24 208.72c-.005.087-.016.175-.034.263s-.049.172-.111.254l-.02.032-.021.025c-.014.008-.028.017-.034.033-.018.022-.03.047-.034.074-.014.057 0 .114.027.18.068.123.199.197.337.254-.144.017-.317-.024-.427-.18-.061-.065-.095-.18-.075-.287.007-.057.027-.106.056-.148.014-.024.034-.04.048-.057.013-.008.013-.016.02-.016l.014-.017c.068-.107.109-.271.137-.426l.083-.492c.034.172.047.344.034.508z" class="G"/><path d="M133.28 208.36c.132.017.221.149.206.287s-.13.247-.253.23-.214-.14-.199-.286c.014-.14.123-.247.246-.231zm-1.96-.1c.13.017.22.147.205.287s-.13.246-.254.23-.213-.14-.199-.288c.015-.139.124-.246.248-.229z" class="B"/><path d="M132.76 210.66c-.151.066-.315.1-.481.1-.082-.007-.161-.02-.24-.042s-.152-.06-.226-.098l-.2-.156c-.064-.055-.121-.118-.171-.189.117.115.247.221.392.296s.294.114.453.114c.151.008.308-.017.453-.074.078-.022.151-.052.219-.09.075-.038.145-.082.214-.131-.123.123-.261.205-.413.27z" class="G"/><g class="B"><path d="M133.16 207.77c.116-.033.255-.025.377.017.124.032.241.106.33.213.049.04.083.106.117.163s.057.124.075.189c-.055-.04-.095-.082-.143-.123-.049-.032-.09-.074-.138-.106-.089-.066-.192-.107-.289-.14s-.206-.05-.315-.05-.22.009-.344.026c.089-.09.207-.156.33-.189zm-1.68.07c-.11-.017-.218-.014-.323.008-.096.016-.199.049-.302.107-.048.015-.096.057-.144.082-.055.032-.097.073-.158.097.027-.059.059-.117.096-.171s.082-.108.138-.148c.095-.09.219-.148.342-.172.131-.024.262-.008.378.041.125.049.227.123.31.229-.117-.032-.227-.058-.337-.073zm-1.19-2.83c-.512-.07-.469-.299.13-.688.901-.591 3.159-1.058 4.416.008.244-.41.491-.538.743-.385s.137.342-.344.565c.338.05.547.178.626.386.082.229-.227.181-.393.139.276.107 1.272 1.099.364 3.526-.123-.054-.476-.765-1.057-2.132-1.858.777-2.645.749-2.355-.082-1.951.941-2.73.913-2.336-.082-.691-.065-.622-.483.206-1.255z"/><path d="M135.83 208.57c-.132-.082-.283-.068-.452.042-.175.114-.288.413-.338.893-.801.405-1.006-.513-.618-2.755.417-2.383.708-2.233.873.451l.535 1.369z"/></g><path d="M161.68 217.88l-.214-1.025.529-1.861.22.344.797-1.221.034.008c.179.057.227.426.028.926l-.159.394c-.048.255.043.656.214 1.156l-1.449 1.279z" class="C"/><path d="M173.39 217.91c-3.882 3.039-6.138 4.409-6.765 4.108-.94-.442-4.388-4.354-4.388-4.379-.055-.814.148-1.549.611-2.206l4.285 2.912 6.442-5.027-.185 4.592z" fill="#f4a640"/><path d="M164.9 232.39c-2.315-.353-4.142 1.984-7.988-.657-3.736-2.565-3.201-3.656-3.152-6.518.048-2.87 2.177-5.502 3.97-7.216 1.016-.976 2.26-1.443 3.495-1.435l-.618-3.116c.696.503 1.554.59 2.576.263-.252 1.224-.656 2.197-1.209 2.919 1.284.213 2.507.951 3.4 2.181.018.028.036.052.055.074 1.524 2.132.741 4.395 1.29 7.174.625 3.182.494 6.683-1.819 6.331z" class="B"/><path d="M161.2 216.19l.028.377c-.159.017-.316-.082-.35-.254l-.358-1.976c-.02-.09.014-.197.083-.254.213-.189.659-.566.762-.508.131.073-.529.737-.48.778.055.042.81-.287.838-.18.02.099-.694.541-.68.598.006.058.728-.115.775-.016.042.082-.679.386-.686.426l.068 1.009zm6.55 46.13l2.37-1.657 1.449 1.443-.618.501-2.149.335-.873-.147c-.027-.017-.087-.175-.179-.475z" class="C"/><path d="M171.57 262.1l-.006.935c0 .156-.111.287-.254.287l-3.929-.033c-.289 0-.392-.418-.152-.59l.522-.385c.289.417 1.195.712 3.819-.214z" class="O"/><path d="M175.58 207.52l-3.475.484c-.26-1.288.66-3.272 1.752-3.674 1.085-.41 2.562-.229 3.778 1.058.81.852.883 2.137.219 3.854l-2.274-1.722z" class="B"/><path d="M176.67 228.74l-.797.115-1.614.122c-.27.006-.54.004-.81-.007l-.803-.05-.804-.123-.783-.213.79.189.797.114.803.05h.81l1.607-.107.804-.107.797-.139-.797.156z" fill="#daeef7" class="I"/><path d="M170.52 262.16l-.976-1.107.351-2.197.123-.156 2.047.246-.488 3.157-1.057.057zm11.66.07l.919-2.984 1.924.082-.207.827-1.477 1.805-.761.508c-.028.005-.161-.073-.398-.238z" class="C"/><path d="M185.03 259.33l.515.73c.089.122.069.303-.042.401l-3.063 2.796c-.227.197-.542-.049-.446-.36l.193-.665c.459.115 1.317-.303 2.843-2.902z" class="O"/><path d="M184.24 260.13l-1.366-.164-.956-1.951.008-.214 1.731-1.279 1.374 2.805-.791.803zm2.46-51.57c.028.05.096.05.123-.008.193-.434.818-1.804.928-1.779.13.041-.398 1.279-.316 1.385.09.099.583-1.123.714-1.066.137.067-.35 1.173-.302 1.223s.612-.952.708-.969c.103-.015-.386 1.132-.344 1.214.048.082.612-.59.666-.541s.103.074-.79 1.985l-.385.737-.597.411-.673-.575-.309-2.828c.076-.074.151-.041.577.811z" class="C"/><path d="M174.91 229.98l-.618 13.078c-.618 9.216-1.319 14.792-2.102 16.728h-2.61l1.278-32.479h3.895l.157 2.673z" fill="#1e1e1e"/><path d="M170.72 231.04l.144-3.739 3.111-.09.069.361 3.551-.5c1.945 2.847 2.689 6.537 2.231 11.069s-.643 7.609-.542 9.233c2.51 2.618 4.148 5.816 4.918 9.593-1.104.869-2.027 1.377-2.768 1.525-3.686-6.39-5.669-9.965-5.949-10.725-.253-.672-1.09-7.708-1.73-13.259 0 0-2.767-2.304-3.035-3.468z" fill="#3a2645"/><path d="M170.18 218.93c.193-2.009 1.079-3.837 2.445-5.1.166-.156.358-.263.564-.32.57-.156 1.305-.18 1.67-.189h1.181c1.272.082 2.193.221 2.76.418.845.303 4.182 1.985 4.554 1.747.247-.158 1.235-2.022 2.967-5.592l1.428.844c-.6 4.991-1.731 7.673-3.392 8.044s-3.299.309-4.925-.172c-.316 5.013-.881 7.959-1.696 8.839-3.205.252-5.405.298-6.6.14-.324-.041-.584-.329-.632-.689-.193-1.345-.611-4.879-.324-7.97z" fill="#feb546"/><g class="C"><path d="M171.72 214.84c.267-.36.57-.705.899-1.008.165-.156.364-.263.57-.32.57-.156 1.305-.18 1.67-.189h1.181l.768.066c-.961.828-2.754 1.951-5.088 1.451z"/><path d="M175.6 213.9l-2.246.049c.047-.565.083-1.311 0-1.583-.092-.305.695-.48 2.362-.524-.088.782-.126 1.468-.116 2.058z"/></g><path d="M175.72 211.84l-.089 1.05c-.453.418-1.044.632-1.655.541-.206-.033-.398-.091-.577-.181.014-.376.014-.721-.041-.886-.092-.305.695-.48 2.362-.524z" class="G"/><path d="M176.49 208.37c.802.076 1.541.568 2.22 1.476 1.022 1.369 1.105 4.534-.894 6.084s-2.933 1.402-3.662 3.14c-.607-1.323-.39-2.719.654-4.19-.339.06-.623.252-.851.574-.006-1.208.449-2.099 1.359-2.673 1.367-.869 1.73-2.362.845-2.853-.586-.328-.476-.848.329-1.558z" class="B"/><path d="M172.46 208.56c.06.386-.111.738-.378.795-.276.058-.544-.212-.605-.598s.11-.738.385-.796c.268-.057.542.214.598.599z" class="G"/><path d="M172.06 210.13c-.069-.493-.048-1.001-.008-1.427.01-.093.015-.186.015-.279.014-.378.088-.763.233-1.14.481-1.214 1.628-1.935 2.781-1.754 1.567.238 2.583 1.926 2.26 3.632.185-.065.372-.049.515.074.282.229.302.738.048 1.14-.254.393-.687.532-.968.304-.042-.034-.076-.072-.103-.115-.398 1.418-1.655 2.287-2.905 1.959-.948-.246-1.73-1.148-1.868-2.394z" class="C"/><path d="M175.14 208.87c.137.033.219.188.192.336-.034.155-.172.254-.303.222-.137-.042-.219-.189-.192-.345.034-.156.172-.246.303-.213zm-2.02-.41c.137.041.22.188.193.344-.035.156-.165.246-.302.213s-.22-.188-.186-.344c.028-.148.165-.246.295-.213zm1.76.01c.06-.022.124-.041.193-.058.13-.024.267-.015.391.025.069.022.13.049.186.082.059.038.115.082.165.131.103.099.178.222.24.353-.089-.106-.179-.205-.282-.287-.028-.025-.116-.082-.159-.107-.054-.033-.111-.057-.171-.073-.116-.042-.24-.05-.364-.042s-.247.039-.37.082c.055-.04.11-.073.171-.106zm-1.49-.31c-.117-.057-.233-.098-.358-.107-.058-.005-.118-.005-.178 0-.054.009-.151.034-.186.042-.116.04-.233.098-.35.164.097-.107.207-.189.33-.238.065-.027.129-.046.193-.057s.135-.014.199-.008c.138.008.268.057.378.131.059.038.113.081.164.131s.097.099.131.164c-.101-.094-.208-.167-.323-.222z" class="B"/><path d="M179.44 218.62l-.06.017c-.076.016-.152.024-.234.032-.078 0-.154-.011-.227-.032-.079-.017-.151-.045-.22-.082s-.13-.091-.192-.14c.069.041.13.082.207.107.034.016.068.025.102.04.041.009.075.017.109.017.074.017.148.022.221.017l.158-.025c-.055-.071-.106-.145-.152-.221-.059-.093-.112-.192-.158-.295l-.069-.165-.048-.164c-.034-.106-.048-.221-.061-.336l.095.32.131.312.165.286c.056.091.125.181.193.263l.04.049z" class="D"/><path d="M177.34 209.16c-1.104-.787-1.909-1.659-2.417-2.616-.056.454-.028.777.082.968-.068.032-1.222-.771-1.339-1.902-.079-.755.424-.881 1.504-.378l1.03.041c.041.033.652.64.681.681.018.028.251.585.7 1.673l.143.59-.061.755-.323.188z" class="B"/><path d="M171.72 231.96l.233.271.447.549.419.574.398.59.083.123-.11-.09c-.116-.098-.241-.18-.364-.262l-.384-.229-.097-.05-.103-.041c-.027-.016-.061-.033-.096-.049-.036-.011-.07-.025-.103-.041l-.104-.033-.102-.033-.11-.032-.102-.025.102.025.11.016.102.032.11.034c.138.043.274.101.407.172l.391.212.37.271-.034.033c-.123-.205-.26-.401-.398-.59l-.412-.582-.434-.558-.459-.533.24.246zm3.44 1.95l.515-.762.549-.738.577-.705.302-.336c.097-.115.207-.222.31-.328l-.591.689-.563.721-.536.738-.425.615c.109-.088.224-.167.343-.237.164-.105.333-.198.508-.279.169-.082.343-.154.522-.214l.137-.041.138-.041.069-.016.069-.008.136-.025-.136.033-.069.016-.063.017-.137.041-.137.049-.13.049c-.042.016-.091.033-.131.058l-.131.057c-.04.016-.082.041-.123.065l-.502.287-.467.336-.137.115.103-.156z" class="I" fill="#daeef7"/><g class="G"><path d="M173.7573723 211.09739q-.4876209-.0573979-.5219604-.5821787.2678481-.1475946.5288283.1147958.3021876-.1475946.5769036.0327988-.0961506.5001817-.5837715.4345841z" style="mix-blend-mode:multiply" class="E"/><path d="M174.24 210.75c-.137.05-.288.074-.432.058-.073-.005-.144-.022-.212-.048-.075-.029-.141-.064-.2-.107l-.178-.14-.145-.181c.103.107.213.206.344.279.123.074.254.123.398.139.137.01.274-.008.412-.04l.2-.074c.068-.033.132-.069.191-.107-.109.099-.24.173-.378.221zm-.48-1.59l-.185.402c-.028.065-.055.131-.069.197-.007.033-.021.073 0 .107.014.016.027.04.041.057.09.106.199.188.309.279-.064-.028-.126-.061-.185-.1-.056-.032-.117-.073-.165-.13-.028-.025-.062-.058-.076-.098-.013-.033-.006-.09 0-.132.014-.082.042-.155.069-.222.06-.136.128-.267.206-.393l.248-.361-.193.394z"/></g><path d="M119.87 228.69h.638 10.604l-3.001 32.626c-.103 1.14-.947 2.009-1.957 2.009h-5.646-.638-5.646c-1.01 0-1.861-.869-1.964-2.009l-2.995-32.626h10.605z" class="F"/><path d="M107.99 229.5v-.697c0-.582.418-1.057.934-1.057h22.348c.515 0 .935.475.935 1.057v.697c0 .583-.42 1.058-.935 1.058h-22.348c-.516 0-.934-.475-.934-1.058z" fill="#f44e7a"/><path d="m125.85 230.56-2.094 32.766h-7.671l-1.938-32.766h11.703z" opacity=".2" class="D"/><path d="M83.019 220.36c.294-.516.473-.95.473-1.246l-.097-.491c-.122-.607 0-1.018.214-1.034h.041l.653 1.582.322-.327.221 2.238-.447 1.108-1.38-1.83zm-12.85 41.05v-1.262l1.276-.394.282.139.048 1.517-.398 1.328-1.208-1.328z" class="C"/><path d="M74.297 263.22l-4.409.05c-.077 0-.131-.066-.139-.148v-.221c0-.083.062-.157.139-.157l4.409-.048c.074 0 .129.065.136.155v.214c0 .09-.062.155-.136.155z" class="B"/><path d="M70.162 260.86l1.881-.024c.028 0 .052.008.076.024.604.476 1.785.606 2.149 1.181.193.286.179.508.124.647-.055.148-.158.222-.267.222l-4.121.041c-.124.008-.213-.156-.199-.336l.143-1.468c.021-.164.111-.287.214-.287z" class="F"/><g class="B"><path d="M71.803 261.69c-.034-.016-.042-.073-.028-.115.083-.205.33-.697.845-.598.028.008.048.049.048.09v.008c-.006.041-.034.074-.061.066-.46-.082-.673.352-.742.516-.014.042-.042.05-.062.033z"/><path d="M72.23 261.88c-.029-.025-.043-.074-.022-.123.076-.197.323-.689.845-.599.028.008.048.049.042.099 0 .049-.028.073-.063.065-.46-.082-.673.353-.734.525-.014.033-.042.049-.068.033zm.398.17c-.028-.024-.042-.073-.021-.122.075-.196.329-.689.845-.599.027.009.047.049.041.099 0 .04-.028.074-.056.065-.466-.082-.672.353-.74.525-.015.032-.043.049-.069.032z"/></g><use xlink:href="#D" fill="#e87b50" style="mix-blend-mode:multiply" class="E"/><path d="M61.282 261.41v-1.262l1.277-.394.282.139.048 1.517-.398 1.328-1.209-1.328z" class="C"/><path d="M65.409 263.22l-4.409.05c-.069 0-.13-.066-.137-.148v-.221c0-.083.061-.157.137-.157l4.409-.048c.076 0 .138.065.138.155v.214c0 .09-.062.155-.138.155z" class="B"/><path d="M61.274 260.86l1.883-.024c.026 0 .052.008.074.024.605.476 1.787.606 2.151 1.181.192.286.177.508.123.647-.055.148-.157.222-.268.222l-4.121.041c-.123.008-.213-.156-.198-.336l.144-1.468c.02-.164.109-.287.212-.287z" class="F"/><g class="B"><path d="M62.916 261.69c-.034-.016-.042-.073-.027-.115.082-.205.328-.697.844-.598.028.008.048.049.048.09v.008c-.006.041-.034.074-.061.066-.46-.082-.674.352-.743.516-.013.042-.041.05-.061.033z"/><path d="M63.342 261.88c-.028-.025-.042-.074-.021-.123.076-.197.323-.689.844-.599.028.008.048.049.042.099 0 .049-.028.073-.062.065-.461-.082-.673.353-.735.525-.013.033-.04.049-.068.033zm.398.17c-.027-.024-.042-.073-.02-.122.075-.196.329-.689.844-.599.028.009.048.049.042.099 0 .04-.029.074-.055.065-.468-.082-.674.353-.742.525-.014.032-.042.049-.069.032z"/></g><use xlink:href="#D" x="-8.8870626" fill="#e87b50" style="mix-blend-mode:multiply" class="E"/><path d="M71.878 213.94l6.264 7.355 5.433-2.164c.388.858.469 1.743.241 2.656-.008.017-4.698 3.543-5.846 3.804-.768.176-3.042-1.964-6.819-6.42l.727-5.231z" fill="#f44e7a"/><path d="M65.437 208.37c-.409-1.941-.138-3.281.81-4.018 1.415-1.099 2.926-.992 3.956-.345 1.03.64 1.655 2.92 1.202 4.223l-3.413-1.214-2.555 1.354z" class="O"/><path d="M69.103 211.1l.407 2.886-2.548.271.123-3.296 2.018.139z" class="C"/><path d="M67.044 212.1l.041-1.14 2.018.139.193 1.377c-1.099.493-1.841.058-2.252-.376zm4.388-3.96c.261.123.357.525.213.894-.137.361-.46.558-.721.434-.254-.131-.35-.525-.213-.894s.46-.565.721-.434z" class="G"/><path d="M68.445 212.12c-1.312 0-2.384-1.197-2.493-2.714-.036.032-.078.061-.124.082-.329.164-.736-.09-.907-.55-.171-.466-.048-.967.282-1.123.172-.082.356-.049.529.058.027-1.78 1.38-3.19 2.987-3.018 1.189.132 2.185 1.148 2.411 2.484.069.411.069.812 0 1.19-.018.092-.033.188-.041.286-.241 2.313-1.353 3.313-2.644 3.305z" class="C"/><path d="M69.069 207.93l.034.516c.014.164.036.345.097.452l.014.024c.007 0 .007.008.013.016.021.025.035.042.048.066.029.049.042.107.049.164.006.114-.042.221-.11.287-.137.14-.317.164-.467.131.15-.041.295-.106.377-.222.035-.057.062-.122.049-.179-.005-.028-.014-.056-.028-.082-.006-.017-.021-.025-.028-.042l-.02-.024-.02-.033c-.055-.098-.077-.188-.091-.279-.008-.092-.01-.186-.005-.279.005-.172.033-.352.088-.516z" class="G"/><path d="M67.936 208.47c-.13 0-.24-.115-.24-.262 0-.157.11-.272.24-.272s.234.115.234.272c0 .147-.103.262-.234.262zm2.04.16c-.131 0-.234-.122-.234-.271s.103-.27.234-.27.242.123.242.27-.111.271-.242.271z" class="B"/><g class="O"><path d="M68.445 207.58c-.117-.042-.234-.066-.35-.082s-.22-.014-.331.008c-.102.025-.212.057-.309.115-.055.016-.103.057-.157.09l-.159.106c.029-.065.06-.128.097-.188.042-.049.082-.115.137-.156.104-.09.233-.148.364-.172.13-.034.268-.017.392.033s.24.13.316.246zm1.057.08c.09-.106.213-.163.337-.205.13-.032.268-.032.391.008.13.042.255.116.344.222.055.049.089.115.123.172.032.066.059.131.082.197-.055-.041-.102-.082-.15-.124-.049-.032-.09-.082-.144-.106-.096-.073-.199-.114-.303-.155-.105-.033-.213-.049-.322-.049l-.358.04z"/><path d="M65.773 207.92c-.105-.099-.199-.145-.282-.139l.068-.943.255-.567 1.044-1.574c.034-.041.804-.533.852-.558.032-.016.407.033 1.126.148 1.269-.3 1.798-.074 1.587.681-.316 1.131-1.704 1.73-1.779 1.681.151-.17.234-.495.248-.976-.976 1.214-2.831 2.116-3.119 2.247z"/></g><path d="M69.667 209.97c-.055.344-.329.607-.673.614-.337.009-.625-.237-.694-.573l1.367-.041z" class="D"/><path d="M66.316 213.48l3.577-.017.453 2.404-1.964 5.83c-1.309-1.597-1.964-2.51-1.964-2.74 0-.344-.906-2.918-.756-3.263.102-.23.32-.967.654-2.214z" class="C"/><path d="M72.401 260.36c-.463.393-1.367.51-2.713.352l-1.401-24.509c2.019-2.432 3.534-4.49 4.546-6.174.065 4.734-.08 14.845-.432 30.331z" fill="#1e1e1e"/><path d="M68.287 236.51l-4.52 24.107c-.705.3-1.673.3-2.904 0l2.835-30.552 1.546.361c4.904-3.329 7.434-3.01 7.589.959.014.287-.577-.77-.577-.41-1.566 3.176-2.889 5.021-3.969 5.535z" fill="#3a2645"/><path d="M62.882 235.44c-.041-.058-.117-.033-.137.033-.125.525-.536 2.181-.667 2.172-.144 0 .192-1.492.075-1.582s-.411 1.377-.57 1.336c-.157-.032.151-1.361.089-1.401s-.479 1.188-.583 1.23.199-1.337.138-1.411-.549.796-.626.754c-.068-.032-.123-.049.481-2.37l.274-.901.571-.599.845.459.9 3.017c-.069.099-.159.075-.79-.737z" class="C"/><path d="M66.632 213.85c1.195.82 2.263.82 3.207 0l.728 2.501c-.076.082-.913 2.69-.913 2.772 0 .09-.997 1.131-1.457.352-.46-.787-.762-.697-1.373-2.345s-1.072-2.164-.921-2.345c.105-.115.348-.426.729-.935z" fill="#3c2340"/><path d="M69.139 218.44l.754-4.978 1.814.345c1.309.344 1.712 6.178 1.209 17.498-3.828 1.372-6.95 1.2-9.369-.516l.302-10.463-1.812 5.83c-.101.344.15 2.689.756 7.035-.302.569-.857.796-1.662.68-.908-3.082-1.411-5.425-1.512-7.027-.151-2.402 1.663-10.29 2.418-11.66.504-.918 1.965-1.491 4.381-1.722l2.721 4.978z" class="F"/><path d="M77.037 230.12c1.181-3.001.755-5.756 2.911-7.765.023-.027.049-.052.075-.073 1.258-1.157 2.783-1.673 4.28-1.583-.477-.957-.733-2.16-.769-3.608 1.084.64 2.071.763 2.96.369l-1.326 3.362c1.394.312 2.706 1.164 3.66 2.534 1.683 2.402 3.551 5.936 3.022 9.199-.521 3.24-.144 4.617-4.883 6.544-4.883 1.984-6.469-1.14-9.161-1.345-2.686-.213-2.123-4.198-.769-7.634z" class="B"/><path d="M85.553 219.28c.007-.04-.749-.573-.687-.655.069-.099.851.278.879.221.021-.066-.694-.746-.653-.853.056-.115.839.443.907.418.069-.033-.543-.951-.378-1.008.124-.033.557.508.756.779.061.081.082.204.041.311l-.803 2.132c-.069.188-.276.255-.447.197l.102-.418.283-1.124z" class="C"/><path d="M85.12 228.69h.638 10.604l-2.994 32.626c-.11 1.14-.954 2.009-1.964 2.009h-5.646-.638-5.646c-1.009 0-1.853-.869-1.964-2.009l-2.994-32.626H85.12z" fill="#feb546"/><path d="M73.238 229.5v-.697c0-.582.419-1.057.934-1.057h22.349c.515 0 .933.475.933 1.057v.697c0 .583-.418 1.058-.933 1.058H74.172c-.515 0-.934-.475-.934-1.058z" fill="#f4a640"/><g class="D"><path d="m91.096 230.56-2.095 32.766h-7.665l-1.937-32.766h11.697z" opacity=".2"/><g class="J"><path d="M83.0667528 244.3143747l-1.5864849 3.115886q-.4258098.7461727-.1510938 1.4923454l-1.4079195-2.6895016c-.1854333-.3525871-.2609802-.7707718-.1991691-1.1807568.0206037-.1147958.0480753-.2377913.0961506-.327988q.1785654-.3853859.9683739-1.9105301l-1.304901-.8281697 3.2759883-.1393949 1.4903343 3.2388815zm-1.0439208 2.5583064h2.3076144v3.0256893h-1.5384096q-1.648296-.1475946-1.2499578-1.9843274zm4.9654917-.1557943l3.1661019-.081997q.7760727.0245991 1.1950146-.6313769l-1.2842973 2.7632989c-.1716975.3607868-.4464135.655976-.7829406.8035706-.1030185.0491982-.206037.081997-.3021876.081997q-.3777345.0327988-1.9367478.0573979l.0549432 1.6973379-1.8131256-3.0994866 1.6620318-3.1322854z"/><use xlink:href="#E"/><use xlink:href="#F"/><use xlink:href="#G"/></g></g><path d="M156.73 228.69h.632 10.611l-3.001 32.626c-.103 1.14-.948 2.009-1.958 2.009h-5.652-.632-5.652c-1.01 0-1.854-.869-1.958-2.009l-3-32.626h10.61z" fill="#67a2da"/><path d="M144.9 229.5v-.697c0-.582.419-1.057.941-1.057h22.348c.515 0 .934.475.934 1.057v.697c0 .583-.419 1.058-.934 1.058h-22.348c-.522 0-.941-.475-.941-1.058z" fill="#224887"/><g class="D"><path d="m162.76 230.56-2.088 32.766h-7.671l-1.937-32.766h11.696z" opacity=".2"/><g class="J"><path d="M154.7332893 244.3143747l-1.5864849 3.115886q-.4189419.7461727-.1510938 1.4923454l-1.4010516-2.6895016c-.1854333-.3525871-.2609802-.7707718-.1991691-1.1807568.0206037-.1147958.0480753-.2377913.0892827-.327988q.1785654-.3853859.9683739-1.9105301l-1.304901-.8281697 3.2759883-.1393949 1.4903343 3.2388815zm-1.0370529 2.5583064h2.3076144v3.0256893h-1.5384096q-1.6551639-.1475946-1.2499578-1.9843274zm4.9586238-.1557943l3.1661019-.081997q.7829406.0245991 1.2018825-.6313769l-1.2911652 2.7632989c-.1648296.3607868-.4395456.655976-.7829406.8035706-.1030185.0491982-.1991691.081997-.2953197.081997q-.3846024.0327988-1.9436157.0573979l.0549432 1.6973379-1.8062577-3.0994866 1.6551639-3.1322854z"/><path d="M161.1204363 246.3970985l-1.2018825-2.2385181 2.2732749-1.5743424.8035443 1.4923454q.7486011 1.6809385-.8378838 2.2385181zm-2.6441415-4.7804251l-1.6002207-3.1076863q-.3571308-.7871712-1.0645245-.8855676l2.74716-.0573979c.3639987-.0081997.7211295.1229955 1.0027134.3853859.0824148.081997.1579617.163994.2129049.2541907q.206037.3689865.9821097 1.9023304l1.2774294-.8773679-1.510938 3.2962794-3.2141772-.1229955z"/><path d="M157.0340358 239.3207574l-1.1400714 2.2795166-2.3144823-1.4923454.755469-1.5169445q.9340344-1.557943 2.1359169-.2541907z"/><path d="M117.5710824 244.3143747l-1.5864849 3.115886q-.4258098.7461727-.1510938 1.4923454l-1.4079195-2.6895016c-.1854333-.3525871-.2609802-.7707718-.1923012-1.1807568.0137358-.1147958.0480753-.2377913.0892827-.327988q.1785654-.3853859.9683739-1.9105301l-1.304901-.8281697 3.2759883-.1393949 1.4903343 3.2388815zm-1.0439208 2.5583064h2.3076144v3.0256893h-1.5384096q-1.648296-.1475946-1.2430899-1.9843274zm4.9654917-.1557943l3.1661019-.081997q.7760727.0245991 1.1950146-.6313769l-1.2842973 2.7632989c-.1716975.3607868-.4464135.655976-.7829406.8035706-.1030185.0491982-.206037.081997-.3021876.081997q-.3777345.0327988-1.9367478.0573979l.0549432 1.6973379-1.8062577-3.0994866 1.6551639-3.1322854z"/><use xlink:href="#E" x="34.5043296"/><use xlink:href="#F" x="34.5043296"/><use xlink:href="#G" x="34.5043296"/></g><path d="M192.68 160.83c-.018-.181-.026-.364-.026-.55 0-3.14 2.245-5.69 5.013-5.69.886 0 1.716.262 2.438.721 1.017-3.19 3.708-5.461 6.868-5.461 2.652 0 4.972 1.607 6.256 4.009.557-.196 1.147-.303 1.759-.303 2.376 0 4.43 1.591 5.37 3.879.324-.099.668-.148 1.016-.148 1.91 0 3.511 1.517 3.922 3.543H192.68zm-101.393-5.77l-.034-.771c0-4.379 3.125-7.921 6.978-7.921 1.236 0 2.391.361 3.393.992 1.421-4.436 5.171-7.601 9.566-7.601 3.696 0 6.93 2.238 8.716 5.584.775-.27 1.6-.419 2.451-.419 3.312 0 6.168 2.215 7.48 5.404.453-.139.927-.205 1.414-.205 2.666 0 4.898 2.108 5.468 4.937H91.287zm-51.021 18.16c.336-1.649 1.634-2.886 3.186-2.886.289 0 .563.049.831.122.763-1.861 2.432-3.156 4.362-3.156.501 0 .982.09 1.435.246 1.036-1.952 2.925-3.256 5.082-3.256 2.568 0 4.76 1.845 5.584 4.436.59-.368 1.264-.582 1.985-.582 2.245 0 4.072 2.075 4.072 4.625l-.021.451H40.266z"/></g></svg>