<?xml version="1.0" encoding="utf-8"?>
<svg viewBox="46.739 0.861 282.261 343.139" xmlns="http://www.w3.org/2000/svg">
  <defs>
    <linearGradient gradientUnits="userSpaceOnUse" x1="253.434" y1="-203.83" x2="253.434" y2="348.946" id="gradient-3">
      <stop offset="0" style="stop-color: rgba(153, 106, 246, 1)"/>
      <stop offset="1" style="stop-color: rgba(88, 14, 236, 1)"/>
    </linearGradient>
    <linearGradient gradientUnits="userSpaceOnUse" x1="190.805" y1="-96.498" x2="190.805" y2="359.173" id="gradient-2">
      <stop offset="0" style="stop-color: rgba(153, 106, 246, 1)"/>
      <stop offset="1" style="stop-color: rgba(88, 14, 236, 1)"/>
    </linearGradient>
    <linearGradient gradientUnits="userSpaceOnUse" x1="151.775" y1="-34.836" x2="151.775" y2="309.19" id="gradient-1">
      <stop offset="0" style="stop-color: rgba(153, 106, 246, 1)"/>
      <stop offset="1" style="stop-color: rgba(88, 14, 236, 1)"/>
    </linearGradient>
    <linearGradient gradientUnits="userSpaceOnUse" x1="151.775" y1="-34.836" x2="151.775" y2="309.19" id="gradient-0">
      <stop offset="0" style="stop-color: rgba(187, 218, 85, 1)"/>
      <stop offset="1" style="stop-color: rgba(135, 165, 36, 1)"/>
    </linearGradient>
  </defs>
  <path id="path-4" style="stroke: none; stroke-linecap: butt; stroke-linejoin: miter; stroke-opacity: 1; stroke-width: 0px; fill-opacity: 0.35; fill: url(#gradient-3); pointer-events: none;" d="M 638.908 -203.83 C 614.885 -203.714 589.437 -200.719 566.834 -197.105 C 498.854 -186.226 419.816 -155.023 365.358 -105.171 C 302.827 -47.941 321.837 43.22 257.958 99.318 C 183.379 164.819 66.285 151.881 -14.952 210.398 C -66.034 247.188 -119.934 303.202 -132.673 348.946 L 437.44 348.946 L 639.542 -203.83 L 638.908 -203.83 Z" transform="matrix(-0.913519, 0.406795, -0.406795, -0.913519, 514.468018, 35.745216)"/>
  <path id="path-3" style="stroke: none; stroke-linecap: butt; stroke-linejoin: miter; stroke-opacity: 1; stroke-width: 0px; fill-opacity: 0.7; fill: url(#gradient-2); pointer-events: none;" d="M 396.32 -96.498 C 380.886 -96.403 364.979 -93.935 350.996 -90.953 C 308.943 -81.987 262.896 -56.264 235.521 -15.172 C 204.085 32.005 230.298 107.154 197.822 153.396 C 159.906 207.391 82.608 196.727 39.338 244.963 C 12.13 275.293 -13.941 321.467 -15.117 359.173 L 351.562 359.173 L 396.727 -96.498 L 396.32 -96.498 Z" transform="matrix(-0.993453, 0.114244, -0.114244, -0.993453, 395.365265, 240.0168)"/>
  <path id="path-1" style="fill-opacity: 1; stroke-linecap: butt; stroke-linejoin: miter; stroke-opacity: 1; stroke: url(#gradient-0); paint-order: stroke markers; fill: url(#gradient-1); stroke-width: 0px; pointer-events: none;" d="M 349.783 -34.836 C 336.519 -34.765 322.625 -32.9 310.335 -30.65 C 273.373 -23.881 231.399 -4.46 204.009 26.565 C 172.558 62.183 187.975 118.918 155.718 153.831 C 118.058 194.596 52.681 186.545 10.967 222.962 C -15.263 245.861 -42.013 280.722 -46.583 309.19 L 268.321 309.19 L 350.133 -34.836 L 349.783 -34.836 Z" transform="matrix(-0.971125, 0.238573, -0.238573, -0.971125, 331.894165, 234.183517)"/>
  <path class="s0" d="M 73.095 191.133 L 120.092 191.133 C 124.178 191.133 127.488 194.527 127.488 198.709 L 127.488 226.818 L 130.619 226.818 L 130.619 198.709 C 130.619 194.527 133.931 191.133 138.016 191.133 L 158.723 191.133 C 162.803 191.133 166.113 194.527 166.113 198.709 L 166.113 226.818 L 169.046 226.818 L 169.046 198.709 C 169.046 194.527 172.356 191.133 176.442 191.133 L 222.1 191.133 C 226.179 191.133 229.491 194.527 229.491 198.709 L 229.491 235.403 C 229.491 239.584 226.179 242.979 222.1 242.979 L 176.442 242.979 C 173.084 242.979 170.255 240.691 169.347 237.551 L 165.812 237.551 C 164.911 240.691 162.075 242.979 158.723 242.979 L 138.016 242.979 C 134.658 242.979 131.829 240.691 130.923 237.551 L 127.179 237.551 C 126.279 240.691 123.45 242.979 120.092 242.979 L 73.095 242.979 C 69.014 242.979 65.705 239.584 65.705 235.403 L 65.705 198.709 C 65.705 194.527 69.014 191.133 73.095 191.133 Z" style="fill: rgb(51, 51, 51);"/>
  <path class="s1" d="M 92.839 189.739 L 92.839 182.696 L 103.382 168.124 L 207.609 168.124 L 207.609 229.229 L 92.839 229.229 L 92.839 189.739 Z" style="fill: rgb(2, 204, 192);"/>
  <path class="s2" d="M 207.671 167.337 L 211.709 167.337 L 211.709 229.861 L 207.671 229.861 L 207.671 167.337 Z" style="fill: rgb(2, 186, 168);"/>
  <g style="mix-blend-mode: multiply;" transform="matrix(0.068679, 0, 0, 0.081997, 40.265934, 139.761154)">
    <path class="s1" d="m749.4 1074.5h279.7v-720.9h21.7v720.9h325v-720.9h21.7v720.9h324.9v-720.9h21.8v720.9h324.9v-720.9h21.7v720.9h324.9v-720.9h21.8v720.9v16.2v8.1h-21.8v-8.1h-324.9v8.1h-21.7v-8.1h-324.9v8.1h-21.8v-8.1h-324.9v8.1h-21.7v-8.1h-325v8.1h-21.7v-8.1h-279.7z" style="fill: rgb(2, 204, 192);"/>
  </g>
  <path class="s2" d="M 183.859 167.337 L 187.905 167.337 L 187.905 229.861 L 183.859 229.861 L 183.859 167.337 Z" style="fill: rgb(2, 186, 168);"/>
  <path class="s2" d="M 160.055 167.337 L 164.094 167.337 L 164.094 229.861 L 160.055 229.861 L 160.055 167.337 Z" style="fill: rgb(2, 186, 168);"/>
  <path class="s2" d="M 136.245 167.337 L 140.284 167.337 L 140.284 229.861 L 136.245 229.861 L 136.245 167.337 Z" style="fill: rgb(2, 186, 168);"/>
  <path class="s2" d="M 112.433 167.337 L 116.479 167.337 L 116.479 229.861 L 112.433 229.861 L 112.433 167.337 Z" style="fill: rgb(2, 186, 168);"/>
  <path class="s1" d="M 87.792 234.386 L 63.589 234.386 L 59.634 203.137 L 76.349 174.545 L 103.443 168.756 L 98.237 212.329 L 87.792 234.386 Z" style="fill: rgb(2, 204, 192);"/>
  <g style="mix-blend-mode: multiply;" transform="matrix(0.068679, 0, 0, 0.081997, 40.265934, 139.761154)">
    <path class="s1" d="m914 523.6l-208.8 618.4l-21.7-5.2l236.4-783.2h24.5z" style="fill: rgb(2, 204, 192);"/>
  </g>
  <path class="s2" d="M 105.813 166.042 L 109.741 167.133 L 92.627 234.386 L 88.698 233.288 L 105.813 166.042 Z" style="fill: rgb(2, 186, 168);"/>
  <path class="s2" d="M 60.382 229.196 L 212.74 229.196 L 212.74 234.386 L 60.382 234.386 L 60.382 229.196 Z" style="fill: rgb(2, 186, 168);"/>
  <path class="s3" d="M 60.382 229.196 L 212.74 229.196 L 212.74 230.533 L 60.382 230.533 L 60.382 229.196 Z" style="fill: rgb(2, 204, 192); mix-blend-mode: screen; opacity: 0.5;"/>
  <g style="mix-blend-mode: multiply;" transform="matrix(0.068679, 0, 0, 0.081997, 40.265934, 139.761154)">
    <path fill-rule="evenodd" class="s1" d="m339.8 785l-0.4-3.4l213.8-316.7l305.7-46l-190.6 632.8h-294.1zm491-342.5l-265.6 40l-205 303.6l31.8 246.4h261z" style="fill: rgb(2, 204, 192);"/>
  </g>
  <path class="s1" d="M 259.949 193.068 L 269.199 221.324 L 269.199 239.208 L 239.517 239.208 L 216.077 239.208 L 216.077 196.118 C 216.077 192.379 218.749 189.345 222.052 189.345 L 255.224 189.345 C 257.326 189.345 259.215 190.83 259.949 193.068 Z" style="fill: rgb(2, 204, 192);"/>
  <g style="opacity: 0.2; mix-blend-mode: multiply;" transform="matrix(0.068679, 0, 0, 0.081997, 40.265934, 139.761154)">
    <path class="s1" d="m2705.5 706.5q80.9 417.6 498.5 400.5l1.6 64.3l-1.6 15.5l-6.7 10.9l-8.6 8.2l-13 5.5l-6.2 0.8l-29.6 0.6h-104.2q-126.4-0.2-127 0.1q-0.6 0.3-47.2 0l-157.5-96.4z" style="fill: rgb(2, 204, 192);"/>
  </g>
  <path class="s1" d="M 269.199 221.324 L 270.431 221.324 L 270.431 233.246 L 269.199 233.246 L 269.199 221.324 Z" style="fill: rgb(2, 204, 192);"/>
  <path fill-rule="evenodd" class="s4" d="M 225.878 236.108 L 225.878 197.693 C 225.878 195.922 227.149 194.479 228.707 194.479 L 251.317 194.479 C 252.491 194.479 253.555 195.323 253.967 196.57 L 260.333 215.937 C 260.451 216.29 260.513 216.667 260.513 217.052 L 260.513 236.108 C 260.513 237.879 259.249 239.322 257.69 239.322 L 228.707 239.322 C 227.149 239.322 225.878 237.879 225.878 236.108 Z M 228.707 194.708 C 227.251 194.708 226.076 196.045 226.076 197.693 L 226.076 236.108 C 226.076 237.756 227.251 239.093 228.707 239.093 L 257.69 239.093 C 259.139 239.093 260.313 237.756 260.313 236.108 L 260.313 217.052 C 260.313 216.7 260.259 216.347 260.148 216.011 L 253.782 196.643 C 253.397 195.487 252.408 194.708 251.317 194.708 L 228.707 194.708 Z" style="fill: rgb(24, 54, 88);"/>
  <path class="s5" d="M 271.274 232.385 L 270.431 232.385 L 270.431 222.185 L 271.274 222.185 C 271.487 222.185 271.659 222.382 271.659 222.627 L 271.659 231.951 C 271.659 232.189 271.487 232.385 271.274 232.385 Z" style="fill: rgb(229, 190, 0);"/>
  <path class="s4" d="M 256.144 216.494 L 229.085 216.494 C 228.24 216.494 227.56 215.715 227.56 214.764 L 227.56 197.848 C 227.56 196.889 228.24 196.118 229.085 196.118 L 250.87 196.118 C 251.522 196.118 252.1 196.578 252.311 197.275 L 257.587 214.182 C 257.937 215.314 257.202 216.494 256.144 216.494 Z" style="fill: rgb(24, 54, 88);"/>
  <path class="s2" d="M 272.366 243.422 C 272.366 245.751 270.952 247.645 269.214 247.645 L 216.077 247.645 L 216.077 239.208 L 269.214 239.208 C 270.952 239.208 272.366 241.094 272.366 243.422 Z" style="fill: rgb(2, 186, 168);"/>
  <path class="s4" d="M 267.62 216.494 L 265.567 216.494 L 259.605 198.3 C 259.263 197.242 259.949 196.118 260.945 196.118 L 267.62 216.494 Z" style="fill: rgb(24, 54, 88);"/>
  <path class="s0" d="M 148.793 247.645 L 146.238 247.645 L 118.814 247.645 C 117.998 246 117.759 245.144 118.093 245.078 C 118.423 245.007 119.466 242.534 121.225 237.657 L 127.46 232.385 L 134.315 230.533 L 140.551 232.385 L 145.213 236.198 L 148.105 240.29 L 149.602 246.374 L 148.793 247.645 Z" style="fill: rgb(51, 51, 51);"/>
  <path class="s2" d="M 149.473 248.383 C 149.101 248.383 148.807 248.055 148.793 247.645 C 148.449 238.593 141.855 231.352 133.8 231.352 C 125.75 231.352 119.158 238.593 118.814 247.645 C 118.8 248.055 118.498 248.383 118.134 248.383 C 117.743 248.383 117.433 248.014 117.447 247.571 C 117.825 237.707 125.015 229.803 133.8 229.803 C 142.591 229.803 149.781 237.707 150.152 247.571 C 150.172 248.014 149.857 248.383 149.473 248.383 Z" style="fill: rgb(2, 186, 168);"/>
  <path class="s1" d="M 235.348 195.085 L 236.399 195.085 L 236.399 217.527 L 235.348 217.527 L 235.348 195.085 Z" style="fill: rgb(2, 204, 192);"/>
  <path class="s0" d="M 103.69 247.645 L 101.137 247.645 L 73.713 247.645 C 72.902 246 72.662 245.144 72.991 245.078 C 73.325 245.007 74.369 242.534 76.123 237.657 L 82.365 232.385 L 89.213 230.533 L 95.457 232.385 L 100.112 236.198 L 103.011 240.29 L 104.501 246.374 L 103.69 247.645 Z" style="fill: rgb(51, 51, 51);"/>
  <path class="s2" d="M 104.371 248.383 C 104.006 248.383 103.704 248.055 103.69 247.645 C 103.347 238.593 96.754 231.352 88.698 231.352 C 80.649 231.352 74.055 238.593 73.713 247.645 C 73.699 248.055 73.397 248.383 73.032 248.383 C 72.641 248.383 72.332 248.014 72.346 247.571 C 72.723 237.707 79.914 229.803 88.698 229.803 C 97.489 229.803 104.68 237.707 105.058 247.571 C 105.071 248.014 104.762 248.383 104.371 248.383 Z" style="fill: rgb(2, 186, 168);"/>
  <path class="s6" d="M 133.8 233.148 C 141.01 233.148 146.855 239.782 146.855 247.965 C 146.855 256.148 141.01 262.781 133.8 262.781 C 126.595 262.781 120.751 256.148 120.751 247.965 C 120.751 239.782 126.595 233.148 133.8 233.148 Z" style="fill: rgb(26, 26, 26);"/>
  <path class="s7" d="M 133.8 237.657 C 138.821 237.657 142.885 242.274 142.885 247.965 C 142.885 253.663 138.821 258.28 133.8 258.28 C 128.786 258.28 124.72 253.663 124.72 247.965 C 124.72 242.274 128.786 237.657 133.8 237.657 Z" style="fill: rgb(158, 157, 162);"/>
  <path class="s8" d="M 128.737 239.412 C 127.866 240.995 127.357 242.864 127.357 244.866 C 127.357 250.564 131.423 255.181 136.436 255.181 C 138.312 255.181 140.056 254.533 141.506 253.426 C 139.899 256.336 137.048 258.28 133.8 258.28 C 128.786 258.28 124.72 253.663 124.72 247.965 C 124.72 244.406 126.313 241.257 128.737 239.412 Z" style="fill: rgb(158, 157, 162); mix-blend-mode: multiply; opacity: 0.5;"/>
  <path class="s9" d="M 133.8 241.069 C 137.158 241.069 139.877 244.16 139.877 247.965 C 139.877 251.778 137.158 254.86 133.8 254.86 C 130.448 254.86 127.728 251.778 127.728 247.965 C 127.728 244.16 130.448 241.069 133.8 241.069 Z" style="fill: rgb(216, 217, 221);"/>
  <path class="s10" d="M 130.448 242.217 C 129.809 243.308 129.439 244.619 129.439 246.03 C 129.439 249.834 132.158 252.926 135.51 252.926 C 136.753 252.926 137.907 252.499 138.861 251.778 C 137.776 253.639 135.915 254.86 133.8 254.86 C 130.448 254.86 127.728 251.778 127.728 247.965 C 127.728 245.571 128.806 243.454 130.448 242.217 Z" style="fill: rgb(216, 217, 221); mix-blend-mode: screen; opacity: 0.3;"/>
  <path class="s3" d="M 269.214 239.208 C 270.952 239.208 272.366 241.094 272.366 243.422 C 272.366 243.594 272.352 243.766 272.339 243.939 C 272.147 241.848 270.828 240.224 269.214 240.224 L 216.077 240.224 L 216.077 239.208 L 269.214 239.208 Z" style="fill: rgb(2, 204, 192); mix-blend-mode: screen; opacity: 0.5;"/>
  <path class="s6" d="M 88.698 233.148 C 95.909 233.148 101.755 239.782 101.755 247.965 C 101.755 256.148 95.909 262.781 88.698 262.781 C 81.494 262.781 75.649 256.148 75.649 247.965 C 75.649 239.782 81.494 233.148 88.698 233.148 Z" style="fill: rgb(26, 26, 26);"/>
  <path class="s7" d="M 88.698 237.657 C 93.718 237.657 97.784 242.274 97.784 247.965 C 97.784 253.663 93.718 258.28 88.698 258.28 C 83.685 258.28 79.619 253.663 79.619 247.965 C 79.619 242.274 83.685 237.657 88.698 237.657 Z" style="fill: rgb(158, 157, 162);"/>
  <path class="s8" d="M 83.637 239.412 C 82.764 240.995 82.256 242.864 82.256 244.866 C 82.256 250.564 86.321 255.181 91.342 255.181 C 93.217 255.181 94.955 254.533 96.404 253.426 C 94.797 256.336 91.953 258.28 88.698 258.28 C 83.685 258.28 79.619 253.663 79.619 247.965 C 79.619 244.406 81.212 241.257 83.637 239.412 Z" style="fill: rgb(158, 157, 162); mix-blend-mode: multiply; opacity: 0.5;"/>
  <path class="s9" d="M 88.698 241.069 C 92.056 241.069 94.776 244.16 94.776 247.965 C 94.776 251.778 92.056 254.86 88.698 254.86 C 85.347 254.86 82.627 251.778 82.627 247.965 C 82.627 244.16 85.347 241.069 88.698 241.069 Z" style="fill: rgb(216, 217, 221);"/>
  <path class="s10" d="M 85.347 242.217 C 84.708 243.308 84.337 244.619 84.337 246.03 C 84.337 249.834 87.057 252.926 90.408 252.926 C 91.652 252.926 92.805 252.499 93.767 251.778 C 92.675 253.639 90.814 254.86 88.698 254.86 C 85.347 254.86 82.627 251.778 82.627 247.965 C 82.627 245.571 83.705 243.454 85.347 242.217 Z" style="fill: rgb(216, 217, 221); mix-blend-mode: screen; opacity: 0.3;"/>
  <path class="s0" d="M 246.778 247.645 L 244.222 247.645 L 216.798 247.645 C 215.987 246 215.748 245.144 216.077 245.078 C 216.412 245.007 217.456 242.534 219.209 237.657 L 225.452 232.385 L 232.3 230.533 L 238.542 232.385 L 243.198 236.198 L 246.097 240.29 L 247.587 246.374 L 246.778 247.645 Z" style="fill: rgb(51, 51, 51);"/>
  <path class="s0" d="M 229.668 219.553 L 229.668 218.692 C 229.668 218.577 229.744 218.495 229.841 218.495 L 237.753 218.495 C 237.848 218.495 237.924 218.577 237.924 218.692 L 237.924 219.553 C 237.924 219.66 237.848 219.75 237.753 219.75 L 229.841 219.75 C 229.744 219.75 229.668 219.66 229.668 219.553 Z" style="fill: rgb(51, 51, 51);"/>
  <path class="s6" d="M 231.791 233.148 C 238.995 233.148 244.839 239.782 244.839 247.965 C 244.839 256.148 238.995 262.781 231.791 262.781 C 224.579 262.781 218.736 256.148 218.736 247.965 C 218.736 239.782 224.579 233.148 231.791 233.148 Z" style="fill: rgb(26, 26, 26);"/>
  <path class="s7" d="M 231.791 237.657 C 236.805 237.657 240.87 242.274 240.87 247.965 C 240.87 253.663 236.805 258.28 231.791 258.28 C 226.771 258.28 222.704 253.663 222.704 247.965 C 222.704 242.274 226.771 237.657 231.791 237.657 Z" style="fill: rgb(158, 157, 162);"/>
  <path class="s8" d="M 226.722 239.412 C 225.85 240.995 225.342 242.864 225.342 244.866 C 225.342 250.564 229.408 255.181 234.428 255.181 C 236.302 255.181 238.04 254.533 239.49 253.426 C 237.882 256.336 235.039 258.28 231.791 258.28 C 226.771 258.28 222.704 253.663 222.704 247.965 C 222.704 244.406 224.298 241.257 226.722 239.412 Z" style="fill: rgb(158, 157, 162); mix-blend-mode: multiply; opacity: 0.5;"/>
  <path class="s9" d="M 231.791 241.069 C 235.143 241.069 237.862 244.16 237.862 247.965 C 237.862 251.778 235.143 254.86 231.791 254.86 C 228.432 254.86 225.712 251.778 225.712 247.965 C 225.712 244.16 228.432 241.069 231.791 241.069 Z" style="fill: rgb(216, 217, 221);"/>
  <path class="s10" d="M 228.432 242.217 C 227.793 243.308 227.423 244.619 227.423 246.03 C 227.423 249.834 230.143 252.926 233.493 252.926 C 234.737 252.926 235.891 252.499 236.852 251.778 C 235.761 253.639 233.9 254.86 231.791 254.86 C 228.432 254.86 225.712 251.778 225.712 247.965 C 225.712 245.571 226.798 243.454 228.432 242.217 Z" style="fill: rgb(216, 217, 221); mix-blend-mode: screen; opacity: 0.3;"/>
  <path class="s6" d="M 176.312 246.177 L 176.312 239.757 C 176.312 238.954 176.889 238.297 177.603 238.297 L 203.715 238.297 C 204.429 238.297 205.006 238.954 205.006 239.757 L 205.006 246.177 C 205.006 246.989 204.429 247.645 203.715 247.645 L 177.603 247.645 C 176.889 247.645 176.312 246.989 176.312 246.177 Z" style="fill: rgb(26, 26, 26);"/>
  <path class="s7" d="M 200.782 247.809 L 200.782 234.386 L 201.661 234.386 L 201.661 247.809 C 201.661 247.899 201.6 247.965 201.524 247.965 L 200.92 247.965 C 200.844 247.965 200.782 247.899 200.782 247.809 Z" style="fill: rgb(158, 157, 162);"/>
  <path class="s7" d="M 179.993 247.809 L 179.993 234.386 L 180.873 234.386 L 180.873 247.809 C 180.873 247.899 180.811 247.965 180.735 247.965 L 180.13 247.965 C 180.054 247.965 179.993 247.899 179.993 247.809 Z" style="fill: rgb(158, 157, 162);"/>
  <path class="s0" d="M 56.096 236.059 L 56.096 234.697 C 56.096 234.526 56.22 234.386 56.37 234.386 L 66.57 234.386 C 66.721 234.386 66.845 234.526 66.845 234.697 L 66.845 236.059 C 66.845 236.231 66.721 236.362 66.57 236.362 L 56.37 236.362 C 56.22 236.362 56.096 236.231 56.096 236.059 Z" style="fill: rgb(51, 51, 51);"/>
  <path class="s2" d="M 247.456 248.383 C 247.093 248.383 246.79 248.055 246.778 247.645 C 246.433 238.593 239.84 231.352 231.791 231.352 C 223.734 231.352 217.142 238.593 216.798 247.645 C 216.785 248.055 216.482 248.383 216.118 248.383 C 215.726 248.383 215.418 248.014 215.432 247.571 C 215.809 237.707 223 229.803 231.791 229.803 C 240.575 229.803 247.765 237.707 248.143 247.571 C 248.157 248.014 247.848 248.383 247.456 248.383 Z" style="fill: rgb(2, 186, 168);"/>
  <path class="s11" d="M 247.017 196.118 L 253.205 216.494 L 248.143 216.494 L 241.763 196.118 L 247.017 196.118 Z" style="fill: rgb(255, 255, 255); opacity: 0.3;"/>
  <path class="s11" d="M 239.786 196.118 L 246.214 216.494 L 244.222 216.494 L 238.177 196.118 L 239.786 196.118 Z" style="fill: rgb(255, 255, 255); opacity: 0.3;"/>
  <path class="s12" d="M 131.416 218.987 C 130.12 219.977 127.619 220.168 123.911 219.561 C 121.603 217.714 121.989 216.634 125.071 216.322 C 128.148 216.011 130.341 214.974 131.65 213.215 C 132.79 216.074 132.712 217.998 131.416 218.987 Z" style="fill: rgb(194, 221, 249);"/>
  <path class="s13" d="M 116.582 214.379 L 116.582 214.338 C 116.485 213.625 116.856 212.944 117.433 212.706 C 117.536 212.665 117.592 212.551 117.578 212.436 L 117.495 211.788 L 118.073 211.689 L 118.154 212.337 C 118.168 212.46 118.25 212.551 118.353 212.551 C 118.972 212.6 119.494 213.124 119.59 213.838 L 119.596 213.878 C 119.61 214.002 119.542 214.125 119.432 214.149 L 119.728 216.412 C 119.837 216.429 119.933 216.527 119.954 216.667 L 120.373 219.922 C 120.442 220.455 120.119 220.947 119.652 221.029 L 118.992 221.136 L 118.34 221.242 C 117.866 221.324 117.433 220.955 117.365 220.422 L 116.946 217.167 C 116.926 217.027 116.994 216.905 117.097 216.847 L 116.808 214.592 C 116.699 214.592 116.602 214.502 116.582 214.379 Z" style="fill: rgb(207, 233, 250); opacity: 0.6;"/>
  <path class="s14" d="M 117.392 212.124 L 117.358 211.869 C 117.351 211.812 117.385 211.763 117.427 211.755 L 118.128 211.64 C 118.176 211.632 118.216 211.673 118.223 211.722 L 118.258 211.976 C 118.264 212.034 118.231 212.083 118.189 212.091 L 117.488 212.206 C 117.441 212.214 117.399 212.173 117.392 212.124 Z" style="fill: rgb(255, 91, 126);"/>
  <path class="s15" d="M 116.918 214.297 C 116.863 214.297 116.822 214.248 116.822 214.191 C 116.816 213.354 117.371 212.952 117.399 212.936 C 117.441 212.903 117.495 212.919 117.523 212.969 C 117.55 213.018 117.536 213.083 117.495 213.116 C 117.475 213.133 117 213.469 117.007 214.191 C 117.007 214.239 116.973 214.281 116.926 214.289 C 116.926 214.294 116.923 214.297 116.918 214.297 Z" style="fill: rgb(255, 255, 255);"/>
  <path class="s16" d="M 117.097 216.847 L 116.808 214.592 L 118.128 214.371 C 117.477 214.573 117.149 214.838 117.146 215.167 C 117.138 215.658 116.987 216.905 118.415 216.683 C 117.646 216.891 117.266 217.227 117.276 217.691 C 117.282 218.38 117.296 221.382 118.992 221.136 L 118.34 221.242 C 117.866 221.324 117.433 220.955 117.365 220.422 L 116.946 217.167 C 116.926 217.027 116.994 216.905 117.097 216.847 Z" style="fill: rgb(207, 233, 250); mix-blend-mode: multiply; opacity: 0.3;"/>
  <path class="s13" d="M 123.21 213.854 L 123.244 213.846 C 123.862 213.641 124.5 213.96 124.79 214.584 C 124.838 214.682 124.947 214.731 125.043 214.699 L 125.599 214.518 L 125.764 215.158 L 125.208 215.338 C 125.112 215.371 125.043 215.478 125.05 215.593 C 125.098 216.29 124.713 216.954 124.095 217.159 L 124.061 217.167 C 123.958 217.208 123.842 217.142 123.8 217.027 L 121.877 217.667 C 121.877 217.798 121.801 217.921 121.685 217.954 L 118.896 218.881 C 118.443 219.028 117.969 218.733 117.838 218.217 L 117.646 217.495 L 117.461 216.773 C 117.33 216.257 117.592 215.715 118.045 215.56 L 120.833 214.642 C 120.95 214.6 121.067 214.657 121.128 214.772 L 123.057 214.133 C 123.038 214.01 123.106 213.887 123.21 213.854 Z" style="fill: rgb(207, 233, 250); opacity: 0.6;"/>
  <path class="s14" d="M 125.29 214.453 L 125.51 214.379 C 125.558 214.363 125.607 214.396 125.62 214.445 L 125.812 215.215 C 125.826 215.264 125.798 215.322 125.757 215.33 L 125.538 215.404 C 125.496 215.42 125.448 215.388 125.434 215.338 L 125.235 214.568 C 125.222 214.518 125.249 214.461 125.29 214.453 Z" style="fill: rgb(255, 91, 126);"/>
  <path class="s15" d="M 123.333 214.215 C 123.327 214.157 123.361 214.1 123.415 214.092 C 124.143 213.977 124.569 214.542 124.583 214.568 C 124.617 214.617 124.61 214.682 124.569 214.715 C 124.535 214.756 124.473 214.748 124.439 214.707 C 124.425 214.682 124.061 214.199 123.436 214.305 C 123.395 214.313 123.347 214.281 123.34 214.231 C 123.335 214.225 123.333 214.22 123.333 214.215 Z" style="fill: rgb(255, 255, 255);"/>
  <path class="s16" d="M 121.128 214.772 L 123.057 214.133 L 123.429 215.585 C 123.163 214.885 122.888 214.554 122.605 214.592 C 122.172 214.657 121.067 214.657 121.457 216.232 C 121.17 215.396 120.824 215.013 120.421 215.085 C 119.816 215.191 117.2 215.617 117.646 217.495 L 117.461 216.773 C 117.33 216.257 117.592 215.715 118.045 215.56 L 120.833 214.642 C 120.95 214.6 121.067 214.657 121.128 214.772 Z" style="fill: rgb(207, 233, 250); mix-blend-mode: multiply; opacity: 0.3;"/>
  <path class="s13" d="M 122.049 211.214 L 122.075 211.189 C 122.585 210.754 123.284 210.804 123.745 211.264 C 123.82 211.337 123.937 211.345 124.019 211.272 L 124.48 210.878 L 124.83 211.411 L 124.369 211.804 C 124.287 211.878 124.26 212.001 124.308 212.108 C 124.569 212.739 124.418 213.51 123.902 213.944 L 123.876 213.969 C 123.786 214.042 123.662 214.034 123.594 213.944 L 121.993 215.306 C 122.035 215.428 122.001 215.576 121.904 215.658 L 119.596 217.626 C 119.218 217.954 118.683 217.864 118.402 217.437 L 118.003 216.83 L 117.605 216.232 C 117.317 215.806 117.392 215.191 117.77 214.871 L 120.077 212.903 C 120.174 212.821 120.304 212.821 120.393 212.903 L 121.993 211.533 C 121.939 211.427 121.959 211.288 122.049 211.214 Z" style="fill: rgb(207, 233, 250); opacity: 0.6;"/>
  <path class="s14" d="M 124.171 210.935 L 124.357 210.788 C 124.391 210.754 124.446 210.764 124.473 210.804 L 124.899 211.444 C 124.926 211.485 124.919 211.55 124.878 211.583 L 124.7 211.73 C 124.665 211.763 124.61 211.755 124.583 211.714 L 124.157 211.075 C 124.13 211.033 124.136 210.968 124.171 210.935 Z" style="fill: rgb(255, 91, 126);"/>
  <path class="s15" d="M 122.275 211.501 C 122.248 211.451 122.268 211.386 122.309 211.362 C 122.955 210.951 123.525 211.321 123.553 211.337 C 123.594 211.362 123.608 211.427 123.587 211.476 C 123.56 211.526 123.504 211.542 123.456 211.518 C 123.436 211.501 122.949 211.197 122.399 211.542 C 122.357 211.566 122.309 211.558 122.282 211.509 C 122.278 211.509 122.275 211.506 122.275 211.501 Z" style="fill: rgb(255, 255, 255);"/>
  <path class="s16" d="M 120.393 212.903 L 121.993 211.533 L 122.797 212.739 C 122.326 212.192 121.965 211.996 121.711 212.149 C 121.328 212.379 120.304 212.821 121.156 214.141 C 120.624 213.469 120.182 213.247 119.83 213.477 C 119.301 213.813 117 215.256 118.003 216.83 L 117.605 216.232 C 117.317 215.806 117.392 215.191 117.77 214.871 L 120.077 212.903 C 120.174 212.821 120.304 212.821 120.393 212.903 Z" style="fill: rgb(207, 233, 250); mix-blend-mode: multiply; opacity: 0.3;"/>
  <path class="s13" d="M 116.554 216.363 L 116.528 216.347 C 115.977 215.986 115.743 215.24 115.936 214.575 C 115.97 214.461 115.923 214.338 115.833 214.281 L 115.339 213.952 L 115.634 213.379 L 116.129 213.706 C 116.218 213.764 116.335 213.748 116.403 213.657 C 116.808 213.141 117.495 212.994 118.051 213.362 L 118.079 213.379 C 118.176 213.444 118.21 213.576 118.168 213.691 L 119.899 214.83 C 119.981 214.731 120.112 214.715 120.214 214.781 L 122.715 216.421 C 123.127 216.691 123.264 217.29 123.023 217.749 L 122.694 218.405 L 122.365 219.053 C 122.124 219.521 121.603 219.676 121.196 219.414 L 118.697 217.773 C 118.588 217.7 118.54 217.56 118.566 217.437 L 116.836 216.297 C 116.773 216.396 116.65 216.429 116.554 216.363 Z" style="fill: rgb(207, 233, 250); opacity: 0.6;"/>
  <path class="s14" d="M 115.503 214.256 L 115.31 214.125 C 115.27 214.1 115.256 214.034 115.276 213.994 L 115.634 213.297 C 115.654 213.255 115.709 213.239 115.751 213.263 L 115.943 213.387 C 115.984 213.42 115.998 213.477 115.977 213.527 L 115.62 214.215 C 115.6 214.264 115.545 214.281 115.503 214.256 Z" style="fill: rgb(255, 91, 126);"/>
  <path class="s15" d="M 116.699 216.019 C 116.671 216.068 116.61 216.076 116.575 216.036 C 115.991 215.518 116.067 214.781 116.067 214.748 C 116.073 214.691 116.121 214.65 116.17 214.657 C 116.224 214.666 116.258 214.715 116.252 214.772 C 116.252 214.797 116.19 215.428 116.685 215.872 C 116.725 215.904 116.733 215.961 116.713 216.003 C 116.707 216.008 116.703 216.013 116.699 216.019 Z" style="fill: rgb(255, 255, 255);"/>
  <path class="s16" d="M 118.566 217.437 L 116.836 216.297 L 117.502 214.994 C 117.24 215.694 117.222 216.147 117.447 216.355 C 117.777 216.667 118.54 217.569 119.281 216.158 C 118.942 216.973 118.935 217.519 119.261 217.798 C 119.741 218.224 121.808 220.069 122.694 218.405 L 122.365 219.053 C 122.124 219.521 121.603 219.676 121.196 219.414 L 118.697 217.773 C 118.588 217.7 118.54 217.56 118.566 217.437 Z" style="fill: rgb(207, 233, 250); mix-blend-mode: multiply; opacity: 0.3;"/>
  <path class="s17" d="M 122.337 218.938 C 123.303 216.45 123.777 214.947 123.759 214.428 C 125.206 214.548 126.655 214.68 128.106 214.821 L 126.534 219.094 L 122.337 218.938 Z" style="fill: rgb(215, 238, 249);"/>
  <path class="s17" d="M 116.479 219.291 L 114.906 215.027 C 116.357 214.885 117.807 214.751 119.254 214.624 C 119.235 215.144 119.709 216.647 120.675 219.135 L 116.479 219.291 Z" style="fill: rgb(215, 238, 249);"/>
  <path class="s18" d="M 114.57 216.994 L 127.88 216.994 L 127.88 227.073 L 114.57 227.073 L 114.57 216.994 Z" style="fill: rgb(237, 217, 164);"/>
  <path class="s19" d="M 123.381 216.994 L 127.88 216.994 L 127.88 227.073 L 123.381 227.073 L 123.381 216.994 Z" style="fill: rgb(214, 187, 128);"/>
  <path class="s20" d="M 123.993 219.02 C 123.993 218.889 124.082 218.782 124.192 218.782 L 127.269 218.782 C 127.378 218.782 127.468 218.889 127.468 219.02 C 127.468 219.151 127.378 219.266 127.269 219.266 L 124.192 219.266 C 124.082 219.266 123.993 219.151 123.993 219.02 Z" style="fill: rgb(214, 187, 128); mix-blend-mode: multiply;"/>
  <path class="s21" d="M 131.547 262.945 L 131.073 261.388 L 131.134 259.6 L 131.464 259.436 L 132.961 259.903 L 132.961 261.388 L 131.547 262.945 Z" style="fill: rgb(255, 192, 187);"/>
  <path class="s22" d="M 132.563 228.203 L 135.414 238.142 L 133.237 260.314 L 130.77 260.314 L 129.713 230.975 L 132.563 228.203 Z" style="fill: rgb(18, 47, 91);"/>
  <path class="s21" d="M 141.093 262.945 L 140.626 261.388 L 140.682 259.6 L 141.018 259.436 L 142.508 259.903 L 142.508 261.388 L 141.093 262.945 Z" style="fill: rgb(255, 192, 187);"/>
  <path class="s21" d="M 122.564 222.341 C 122.619 222.291 123.448 222.612 125.05 223.3 L 125.421 224.202 L 124.926 224.809 L 124.178 225.096 C 122.262 225.727 122.248 225.669 122.22 225.596 C 122.186 225.522 122.907 225.006 122.846 224.94 C 122.783 224.875 121.643 225.186 121.677 225.079 C 121.719 224.964 122.735 224.53 122.701 224.464 C 122.667 224.391 121.568 224.718 121.54 224.547 C 121.512 224.382 122.722 224.071 122.646 223.948 C 122.578 223.825 121.341 224.178 121.341 224.022 C 121.334 223.882 122.701 223.456 123.14 223.317 C 123.196 223.3 123.21 223.218 123.168 223.177 C 122.495 222.505 122.482 222.406 122.564 222.341 Z" style="fill: rgb(255, 192, 187);"/>
  <path class="s23" d="M 132.468 228.704 C 135.045 228.337 136.923 229.005 138.099 230.705 C 139.275 232.404 140.846 242.2 142.811 260.092 L 140.441 260.314 L 130.77 231.041 L 132.468 228.704 Z" style="fill: rgb(34, 72, 135);"/>
  <path class="s21" d="M 131.897 211.279 L 133.751 211.714 L 133.971 213.674 C 133.349 214.21 132.639 214.21 131.842 213.674 L 131.897 211.279 Z" style="fill: rgb(255, 192, 187);"/>
  <path class="s24" d="M 131.87 212.558 L 131.897 211.279 L 133.779 211.944 L 133.827 212.419 C 133.416 212.591 132.619 212.805 131.87 212.558 Z" style="fill: rgb(252, 141, 132);"/>
  <path class="s25" d="M 124.658 222.194 C 125.607 222.456 127.832 222.324 129.521 222.177 C 129.534 220.594 129.589 219.118 129.713 218.077 C 130.002 215.628 130.647 214.008 131.65 213.215 C 132.643 213.351 133.488 213.116 134.184 212.509 C 135.521 212.526 136.577 212.947 137.35 213.773 C 139.407 215.784 139.655 218.848 138.099 222.964 L 138.944 231.123 C 137.671 231.615 134.432 231.713 129.226 231.418 C 129.482 229.685 129.592 227.938 129.555 226.179 C 127.903 226.074 126.271 225.872 124.658 225.572 C 124.594 225.167 124.594 224.04 124.658 222.194 Z" style="fill: rgb(228, 240, 255);"/>
  <path class="s26" d="M 134.939 217.618 C 134.899 217.921 134.83 218.217 134.74 218.503 C 134.645 218.799 134.52 219.069 134.376 219.34 C 134.225 219.594 134.068 219.848 133.875 220.069 C 133.505 220.528 133.058 220.898 132.585 221.193 C 132.104 221.497 131.595 221.726 131.073 221.898 C 130.036 222.251 128.951 222.382 127.872 222.415 C 126.794 222.439 125.723 222.357 124.658 222.194 C 125.729 222.259 126.802 222.284 127.866 222.218 C 128.003 222.209 128.134 222.201 128.265 222.194 L 128.663 222.152 C 128.93 222.127 129.198 222.087 129.46 222.037 L 129.659 222.013 L 129.851 221.972 L 130.242 221.882 C 130.373 221.857 130.503 221.816 130.633 221.783 L 130.826 221.726 C 130.887 221.709 130.949 221.685 131.011 221.66 C 131.526 221.505 132.021 221.275 132.481 220.988 C 132.948 220.709 133.38 220.357 133.751 219.938 C 134.501 219.094 134.967 217.921 134.967 216.7 C 134.995 217.003 134.981 217.315 134.939 217.618 Z" style="fill: rgb(162, 173, 190);"/>
  <path class="s26" d="M 126.437 225.826 C 127.033 225.897 127.628 225.954 128.222 225.998 C 129.411 226.08 130.607 226.105 131.794 226.015 C 132.385 225.973 132.983 225.9 133.567 225.785 C 134.15 225.678 134.726 225.522 135.29 225.301 C 135.846 225.088 136.389 224.8 136.877 224.415 C 137.371 224.039 137.79 223.546 138.099 222.964 C 137.83 223.578 137.418 224.096 136.939 224.514 C 136.458 224.932 135.915 225.251 135.345 225.482 C 134.211 225.965 133.003 226.17 131.808 226.26 C 130.607 226.342 129.404 226.309 128.209 226.187 C 127.014 226.072 125.826 225.866 124.658 225.572 C 125.249 225.669 125.84 225.76 126.437 225.826 Z" style="fill: rgb(162, 173, 190);"/>
  <path class="s22" d="M 128.635 263.003 C 128.635 262.847 128.745 262.724 128.875 262.724 L 133.229 262.708 C 133.36 262.708 133.47 262.83 133.47 262.987 C 133.47 263.134 133.36 263.257 133.229 263.266 L 128.882 263.274 C 128.745 263.274 128.635 263.151 128.635 263.003 Z" style="fill: rgb(18, 47, 91);"/>
  <path class="s27" d="M 133.243 261.027 L 133.408 262.569 C 133.429 262.757 133.339 262.929 133.216 262.929 L 128.951 262.945 C 128.84 262.945 128.731 262.863 128.676 262.716 C 128.615 262.569 128.601 262.339 128.792 262.036 C 129.164 261.429 130.4 261.264 131.018 260.756 C 131.032 260.745 131.045 260.74 131.059 260.74 L 133.023 260.732 C 133.134 260.732 133.229 260.863 133.243 261.027 Z" style="fill: rgb(54, 96, 172);"/>
  <path class="s15" d="M 131.272 261.601 C 131.203 261.421 130.977 260.969 130.503 261.068 C 130.469 261.068 130.441 261.043 130.441 260.994 C 130.434 260.945 130.455 260.896 130.482 260.896 C 131.018 260.781 131.279 261.297 131.362 261.511 C 131.382 261.551 131.368 261.609 131.341 261.634 C 131.314 261.65 131.286 261.634 131.272 261.601 Z" style="fill: rgb(255, 255, 255);"/>
  <path class="s15" d="M 130.826 261.798 C 130.757 261.618 130.537 261.166 130.058 261.264 C 130.029 261.272 130.002 261.24 129.995 261.19 C 129.988 261.142 130.009 261.101 130.043 261.093 C 130.573 260.986 130.84 261.494 130.923 261.708 C 130.943 261.748 130.929 261.806 130.894 261.83 C 130.874 261.847 130.84 261.83 130.826 261.798 Z" style="fill: rgb(255, 255, 255);"/>
  <path class="s15" d="M 130.414 261.986 C 130.345 261.806 130.126 261.354 129.645 261.453 C 129.617 261.453 129.589 261.429 129.583 261.379 C 129.583 261.33 129.603 261.281 129.631 261.272 C 130.16 261.166 130.427 261.683 130.51 261.888 C 130.53 261.937 130.516 261.994 130.49 262.019 C 130.462 262.036 130.427 262.019 130.414 261.986 Z" style="fill: rgb(255, 255, 255);"/>
  <path class="s22" d="M 138.084 263.003 C 138.084 262.847 138.195 262.724 138.332 262.724 L 142.68 262.708 C 142.817 262.708 142.92 262.83 142.927 262.987 C 142.927 263.134 142.817 263.257 142.68 263.266 L 138.332 263.274 C 138.195 263.274 138.084 263.151 138.084 263.003 Z" style="fill: rgb(18, 47, 91);"/>
  <path class="s27" d="M 142.7 261.027 L 142.859 262.569 C 142.879 262.757 142.79 262.929 142.666 262.929 L 138.4 262.945 C 138.291 262.945 138.181 262.863 138.126 262.716 C 138.064 262.569 138.051 262.339 138.243 262.036 C 138.621 261.429 139.851 261.264 140.469 260.756 C 140.482 260.745 140.496 260.74 140.509 260.74 L 142.474 260.732 C 142.583 260.732 142.68 260.863 142.7 261.027 Z" style="fill: rgb(54, 96, 172);"/>
  <path class="s15" d="M 140.722 261.601 C 140.653 261.421 140.427 260.969 139.954 261.068 C 139.926 261.068 139.899 261.043 139.891 260.994 C 139.885 260.945 139.906 260.896 139.939 260.896 C 140.469 260.781 140.73 261.297 140.819 261.511 C 140.833 261.551 140.825 261.609 140.791 261.634 C 140.764 261.65 140.736 261.634 140.722 261.601 Z" style="fill: rgb(255, 255, 255);"/>
  <path class="s15" d="M 140.284 261.798 C 140.215 261.618 139.988 261.166 139.513 261.264 C 139.479 261.272 139.452 261.24 139.452 261.19 L 139.445 261.19 C 139.445 261.142 139.466 261.101 139.493 261.093 C 140.028 260.986 140.29 261.494 140.372 261.708 C 140.392 261.748 140.378 261.806 140.352 261.83 C 140.324 261.847 140.297 261.83 140.284 261.798 Z" style="fill: rgb(255, 255, 255);"/>
  <path class="s15" d="M 139.871 261.986 C 139.803 261.806 139.576 261.354 139.102 261.453 C 139.067 261.453 139.04 261.429 139.04 261.379 C 139.033 261.33 139.053 261.281 139.081 261.272 C 139.617 261.166 139.877 261.683 139.96 261.888 C 139.981 261.937 139.967 261.994 139.939 262.019 C 139.912 262.036 139.885 262.019 139.871 261.986 Z" style="fill: rgb(255, 255, 255);"/>
  <path class="s0" d="M 130.221 205.86 C 130.258 205.767 130.508 205.9 130.969 206.261 L 130.104 208.573 L 130.098 206.721 C 130.148 206.245 130.189 205.958 130.221 205.86 Z" style="fill: rgb(51, 51, 51);"/>
  <path class="s28" d="M 130.579 208.631 C 130.675 209 130.544 209.369 130.283 209.459 C 130.029 209.549 129.734 209.32 129.637 208.959 C 129.542 208.591 129.671 208.213 129.933 208.13 C 130.186 208.04 130.482 208.262 130.579 208.631 Z" style="fill: rgb(249, 152, 147);"/>
  <path class="s21" d="M 130.194 208.819 C 130.189 208.726 130.184 208.637 130.18 208.549 C 130.152 208.18 130.186 207.795 130.297 207.409 C 130.641 206.163 131.683 205.31 132.831 205.335 C 134.384 205.368 135.537 206.876 135.4 208.582 C 135.571 208.5 135.757 208.491 135.909 208.591 C 136.203 208.779 136.279 209.278 136.066 209.697 C 135.861 210.115 135.448 210.303 135.153 210.115 C 135.111 210.088 135.074 210.055 135.042 210.017 C 134.796 211.451 133.655 212.46 132.405 212.305 C 131.168 212.149 130.201 211.058 130.194 208.819 Z" style="fill: rgb(255, 192, 187);"/>
  <path class="s28" d="M 132.241 208.721 C 132.236 208.808 132.225 208.896 132.207 208.984 C 132.186 209.074 132.158 209.156 132.096 209.238 L 132.076 209.27 L 132.055 209.295 C 132.041 209.303 132.027 209.312 132.021 209.328 C 132.003 209.35 131.991 209.375 131.987 209.402 C 131.973 209.459 131.987 209.516 132.014 209.582 C 132.082 209.705 132.213 209.779 132.351 209.836 C 132.207 209.853 132.034 209.812 131.924 209.656 C 131.863 209.591 131.829 209.476 131.849 209.369 C 131.856 209.312 131.876 209.263 131.905 209.221 C 131.919 209.197 131.939 209.181 131.953 209.164 C 131.966 209.156 131.966 209.148 131.973 209.148 L 131.987 209.131 C 132.055 209.024 132.096 208.86 132.124 208.705 C 132.158 208.549 132.179 208.385 132.207 208.213 C 132.241 208.385 132.254 208.557 132.241 208.721 Z" style="fill: rgb(249, 152, 147);"/>
  <path class="s0" d="M 133.284 208.36 C 133.416 208.377 133.505 208.509 133.49 208.647 C 133.476 208.787 133.36 208.894 133.237 208.877 C 133.112 208.86 133.023 208.737 133.038 208.591 C 133.052 208.451 133.161 208.344 133.284 208.36 Z" style="fill: rgb(51, 51, 51);"/>
  <path class="s0" d="M 131.321 208.262 C 131.451 208.279 131.541 208.409 131.526 208.549 C 131.512 208.688 131.396 208.795 131.272 208.779 C 131.148 208.762 131.059 208.639 131.073 208.491 C 131.088 208.352 131.197 208.245 131.321 208.262 Z" style="fill: rgb(51, 51, 51);"/>
  <path class="s28" d="M 132.762 210.664 C 132.611 210.73 132.447 210.764 132.281 210.764 C 132.199 210.757 132.12 210.744 132.041 210.722 C 131.963 210.695 131.889 210.662 131.815 210.624 C 131.746 210.575 131.677 210.525 131.615 210.468 C 131.551 210.413 131.494 210.35 131.444 210.279 C 131.561 210.394 131.691 210.5 131.836 210.575 C 131.979 210.648 132.13 210.689 132.289 210.689 C 132.44 210.697 132.597 210.672 132.742 210.615 C 132.82 210.593 132.893 210.563 132.961 210.525 C 133.036 210.487 133.106 210.443 133.175 210.394 C 133.052 210.517 132.914 210.599 132.762 210.664 Z" style="fill: rgb(249, 152, 147);"/>
  <path class="s0" d="M 133.161 207.77 C 133.277 207.737 133.416 207.745 133.538 207.787 C 133.662 207.819 133.779 207.893 133.868 208 C 133.917 208.04 133.951 208.106 133.985 208.163 C 134.018 208.224 134.042 208.287 134.06 208.352 C 134.005 208.312 133.965 208.27 133.917 208.229 C 133.868 208.197 133.827 208.155 133.779 208.123 C 133.69 208.057 133.587 208.016 133.49 207.983 C 133.389 207.951 133.284 207.933 133.175 207.933 C 133.064 207.933 132.955 207.942 132.831 207.959 C 132.92 207.869 133.038 207.803 133.161 207.77 Z" style="fill: rgb(51, 51, 51);"/>
  <path class="s0" d="M 131.485 207.836 C 131.375 207.819 131.267 207.822 131.162 207.844 C 131.066 207.86 130.963 207.893 130.86 207.951 C 130.812 207.966 130.764 208.008 130.716 208.033 C 130.661 208.065 130.619 208.106 130.558 208.13 C 130.585 208.071 130.617 208.013 130.654 207.959 C 130.696 207.909 130.736 207.851 130.792 207.811 C 130.887 207.721 131.011 207.663 131.134 207.639 C 131.265 207.615 131.396 207.631 131.512 207.68 C 131.637 207.729 131.739 207.803 131.822 207.909 C 131.705 207.877 131.595 207.851 131.485 207.836 Z" style="fill: rgb(51, 51, 51);"/>
  <path class="s0" d="M 130.29 205.006 C 129.778 204.936 129.821 204.707 130.42 204.318 C 131.321 203.727 133.579 203.26 134.836 204.326 C 135.08 203.916 135.327 203.788 135.579 203.941 C 135.83 204.094 135.716 204.283 135.235 204.506 C 135.573 204.556 135.782 204.684 135.861 204.892 C 135.943 205.121 135.634 205.073 135.468 205.031 C 135.744 205.138 136.74 206.13 135.832 208.557 C 135.709 208.503 135.356 207.792 134.775 206.425 C 132.917 207.202 132.13 207.174 132.42 206.343 C 130.469 207.284 129.69 207.256 130.084 206.261 C 129.393 206.196 129.462 205.778 130.29 205.006 Z" style="fill: rgb(51, 51, 51);"/>
  <path class="s0" d="M 135.832 208.573 C 135.7 208.491 135.549 208.505 135.38 208.615 C 135.205 208.729 135.092 209.028 135.042 209.508 C 134.241 209.913 134.036 208.995 134.424 206.753 C 134.841 204.37 135.132 204.52 135.297 207.204 L 135.832 208.573 Z" style="fill: rgb(51, 51, 51);"/>
  <path class="s21" d="M 161.677 217.88 L 161.463 216.855 L 161.992 214.994 L 162.212 215.338 C 162.456 214.972 162.721 214.565 163.009 214.117 L 163.043 214.125 C 163.222 214.182 163.27 214.551 163.071 215.051 L 162.912 215.445 C 162.864 215.7 162.955 216.101 163.126 216.601 L 161.677 217.88 Z" style="fill: rgb(255, 192, 187);"/>
  <path class="s29" d="M 173.386 217.913 C 169.504 220.952 167.248 222.322 166.621 222.021 C 165.681 221.579 162.233 217.667 162.233 217.642 C 162.178 216.828 162.381 216.093 162.844 215.436 L 167.129 218.348 L 173.571 213.321 L 173.386 217.913 Z" style="fill: rgb(244, 166, 64);"/>
  <path class="s0" d="M 164.905 232.394 C 162.59 232.041 160.763 234.378 156.917 231.737 C 153.181 229.172 153.716 228.081 153.765 225.219 C 153.813 222.349 155.942 219.717 157.735 218.003 C 158.751 217.027 159.995 216.56 161.23 216.568 L 160.612 213.452 C 161.308 213.955 162.166 214.042 163.188 213.715 C 162.936 214.939 162.532 215.912 161.979 216.634 C 163.263 216.847 164.486 217.585 165.379 218.815 C 165.397 218.843 165.415 218.867 165.434 218.889 C 166.958 221.021 166.175 223.284 166.724 226.063 C 167.349 229.245 167.218 232.746 164.905 232.394 Z" style="fill: rgb(51, 51, 51);"/>
  <path class="s21" d="M 161.202 216.191 L 161.23 216.568 C 161.071 216.585 160.914 216.486 160.88 216.314 L 160.522 214.338 C 160.502 214.248 160.536 214.141 160.605 214.084 C 160.818 213.895 161.264 213.518 161.367 213.576 C 161.498 213.649 160.838 214.313 160.887 214.354 C 160.942 214.396 161.697 214.067 161.725 214.174 C 161.745 214.273 161.031 214.715 161.045 214.772 C 161.051 214.83 161.773 214.657 161.82 214.756 C 161.862 214.838 161.141 215.142 161.134 215.182 L 161.202 216.191 Z" style="fill: rgb(255, 192, 187);"/>
  <path class="s21" d="M 167.754 262.315 L 170.124 260.658 L 171.573 262.101 L 170.955 262.602 L 168.806 262.937 C 168.247 262.855 167.957 262.806 167.933 262.79 C 167.906 262.773 167.846 262.615 167.754 262.315 Z" style="fill: rgb(255, 192, 187);"/>
  <path class="s30" d="M 171.573 262.101 L 171.567 263.036 C 171.567 263.192 171.456 263.323 171.313 263.323 L 167.384 263.29 C 167.095 263.29 166.992 262.872 167.232 262.7 L 167.754 262.315 C 168.043 262.732 168.949 263.027 171.573 262.101 Z" style="fill: rgb(7, 8, 91);"/>
  <path class="s0" d="M 175.583 207.516 L 172.108 208 C 171.848 206.712 172.768 204.728 173.86 204.326 C 174.945 203.916 176.422 204.097 177.638 205.384 C 178.448 206.236 178.521 207.521 177.857 209.238 L 175.583 207.516 Z" style="fill: rgb(51, 51, 51);"/>
  <path class="s31" d="M 176.669 228.745 C 176.404 228.789 176.138 228.827 175.872 228.86 C 175.337 228.925 174.799 228.967 174.258 228.982 C 173.988 228.988 173.718 228.986 173.448 228.975 C 173.181 228.967 172.912 228.95 172.645 228.925 C 172.377 228.892 172.108 228.851 171.841 228.802 C 171.575 228.742 171.315 228.671 171.058 228.589 C 171.319 228.665 171.583 228.728 171.848 228.778 C 172.108 228.827 172.377 228.868 172.645 228.892 C 172.915 228.919 173.183 228.937 173.448 228.942 C 173.718 228.952 173.988 228.952 174.258 228.942 C 174.794 228.933 175.33 228.892 175.865 228.835 C 176.136 228.802 176.404 228.767 176.669 228.728 C 176.937 228.688 177.205 228.638 177.466 228.589 C 177.205 228.646 176.937 228.696 176.669 228.745 Z" style="fill: rgb(218, 238, 247); opacity: 0.5;"/>
  <path class="s21" d="M 170.516 262.158 L 169.54 261.051 L 169.891 258.854 L 170.014 258.698 L 172.061 258.944 L 171.573 262.101 L 170.516 262.158 Z" style="fill: rgb(255, 192, 187);"/>
  <path class="s21" d="M 182.185 262.232 L 183.104 259.248 L 185.028 259.33 L 184.821 260.157 L 183.344 261.962 C 182.869 262.301 182.614 262.47 182.583 262.47 C 182.555 262.475 182.422 262.397 182.185 262.232 Z" style="fill: rgb(255, 192, 187);"/>
  <path class="s30" d="M 185.028 259.33 L 185.543 260.06 C 185.632 260.182 185.612 260.363 185.501 260.461 L 182.438 263.257 C 182.211 263.454 181.896 263.208 181.992 262.897 L 182.185 262.232 C 182.644 262.347 183.502 261.929 185.028 259.33 Z" style="fill: rgb(7, 8, 91);"/>
  <path class="s21" d="M 184.237 260.133 L 182.871 259.969 L 181.915 258.018 L 181.923 257.804 L 183.654 256.525 L 185.028 259.33 L 184.237 260.133 Z" style="fill: rgb(255, 192, 187);"/>
  <path class="s21" d="M 186.696 208.565 C 186.724 208.615 186.792 208.615 186.819 208.557 C 187.012 208.123 187.637 206.753 187.747 206.778 C 187.877 206.819 187.349 208.057 187.431 208.163 C 187.521 208.262 188.014 207.04 188.145 207.097 C 188.282 207.164 187.795 208.27 187.843 208.32 C 187.891 208.369 188.455 207.368 188.551 207.351 C 188.654 207.336 188.165 208.483 188.207 208.565 C 188.255 208.647 188.819 207.975 188.873 208.024 C 188.928 208.073 188.976 208.098 188.083 210.009 L 187.698 210.746 L 187.101 211.157 L 186.428 210.582 C 186.171 208.746 186.068 207.803 186.119 207.754 C 186.195 207.68 186.27 207.713 186.696 208.565 Z" style="fill: rgb(255, 192, 187);"/>
  <path class="s32" d="M 174.911 229.975 L 174.293 243.053 C 173.675 252.269 172.974 257.845 172.191 259.781 L 169.581 259.781 L 170.859 227.302 L 174.754 227.302 L 174.911 229.975 Z" style="fill: rgb(30, 30, 30);"/>
  <path class="s33" d="M 170.715 231.041 L 170.859 227.302 L 173.97 227.212 L 174.039 227.573 L 177.59 227.073 C 179.535 229.92 180.279 233.61 179.821 238.142 C 179.36 242.674 179.178 245.751 179.279 247.375 C 181.789 249.993 183.427 253.191 184.197 256.968 C 183.093 257.837 182.17 258.345 181.429 258.493 C 177.743 252.103 175.76 248.528 175.48 247.768 C 175.227 247.096 174.39 240.06 173.75 234.509 C 173.75 234.509 170.983 232.205 170.715 231.041 Z" style="fill: rgb(58, 38, 69);"/>
  <path class="s34" d="M 170.178 218.93 C 170.371 216.921 171.257 215.093 172.623 213.83 C 172.789 213.674 172.981 213.567 173.187 213.51 C 173.757 213.354 174.492 213.33 174.857 213.321 L 176.038 213.321 C 177.31 213.403 178.231 213.542 178.798 213.739 C 179.643 214.042 182.98 215.724 183.352 215.486 C 183.599 215.328 184.587 213.464 186.319 209.894 L 187.747 210.738 C 187.147 215.729 186.016 218.411 184.355 218.782 C 182.696 219.148 181.056 219.091 179.43 218.61 C 179.114 223.623 178.549 226.569 177.734 227.449 C 174.529 227.701 172.329 227.747 171.134 227.589 C 170.81 227.548 170.55 227.26 170.502 226.9 C 170.309 225.555 169.891 222.021 170.178 218.93 Z" style="fill: rgb(254, 181, 70);"/>
  <path class="s21" d="M 171.718 214.838 C 171.985 214.478 172.288 214.133 172.617 213.83 C 172.782 213.674 172.981 213.567 173.187 213.51 C 173.757 213.354 174.492 213.33 174.857 213.321 L 176.038 213.321 C 176.257 213.338 176.513 213.359 176.806 213.387 C 175.845 214.215 174.052 215.338 171.718 214.838 Z" style="fill: rgb(255, 192, 187);"/>
  <path class="s21" d="M 175.605 213.903 L 173.359 213.952 C 173.406 213.387 173.442 212.641 173.359 212.369 C 173.267 212.064 174.054 211.889 175.721 211.845 C 175.633 212.627 175.595 213.313 175.605 213.903 Z" style="fill: rgb(255, 192, 187);"/>
  <path class="s28" d="M 175.721 211.845 C 175.685 212.162 175.655 212.513 175.632 212.895 C 175.179 213.313 174.588 213.527 173.977 213.436 C 173.771 213.403 173.579 213.345 173.4 213.255 C 173.414 212.879 173.414 212.534 173.359 212.369 C 173.267 212.064 174.054 211.889 175.721 211.845 Z" style="fill: rgb(249, 152, 147);"/>
  <path class="s0" d="M 176.49 208.369 C 177.292 208.445 178.031 208.937 178.71 209.845 C 179.732 211.214 179.815 214.379 177.816 215.929 C 175.818 217.479 174.883 217.331 174.154 219.069 C 173.547 217.746 173.764 216.35 174.808 214.879 C 174.469 214.939 174.185 215.131 173.957 215.453 C 173.951 214.245 174.406 213.354 175.316 212.78 C 176.683 211.911 177.046 210.418 176.161 209.927 C 175.575 209.599 175.685 209.079 176.49 208.369 Z" style="fill: rgb(51, 51, 51);"/>
  <path class="s28" d="M 172.46 208.565 C 172.52 208.951 172.349 209.303 172.082 209.36 C 171.806 209.418 171.538 209.148 171.477 208.762 C 171.415 208.377 171.587 208.024 171.862 207.966 C 172.13 207.909 172.404 208.18 172.46 208.565 Z" style="fill: rgb(249, 152, 147);"/>
  <path class="s21" d="M 172.061 210.132 C 171.992 209.639 172.013 209.131 172.053 208.705 C 172.063 208.612 172.068 208.519 172.068 208.426 C 172.082 208.048 172.156 207.663 172.301 207.286 C 172.782 206.072 173.929 205.351 175.082 205.532 C 176.649 205.77 177.665 207.458 177.342 209.164 C 177.527 209.099 177.714 209.115 177.857 209.238 C 178.139 209.467 178.159 209.976 177.905 210.378 C 177.651 210.771 177.218 210.91 176.937 210.682 C 176.895 210.648 176.861 210.61 176.834 210.567 C 176.436 211.985 175.179 212.854 173.929 212.526 C 172.981 212.28 172.199 211.378 172.061 210.132 Z" style="fill: rgb(255, 192, 187);"/>
  <path class="s0" d="M 175.145 208.869 C 175.282 208.902 175.364 209.057 175.337 209.205 C 175.303 209.36 175.165 209.459 175.034 209.427 C 174.897 209.385 174.815 209.238 174.842 209.082 C 174.876 208.926 175.014 208.836 175.145 208.869 Z" style="fill: rgb(51, 51, 51);"/>
  <path class="s0" d="M 173.118 208.459 C 173.255 208.5 173.338 208.647 173.311 208.803 C 173.276 208.959 173.146 209.049 173.009 209.016 C 172.871 208.984 172.789 208.828 172.823 208.672 C 172.851 208.524 172.988 208.426 173.118 208.459 Z" style="fill: rgb(51, 51, 51);"/>
  <path class="s0" d="M 174.883 208.467 C 174.943 208.445 175.007 208.426 175.076 208.409 C 175.206 208.385 175.343 208.394 175.467 208.434 C 175.536 208.456 175.597 208.483 175.653 208.516 C 175.712 208.554 175.768 208.598 175.818 208.647 C 175.921 208.746 175.996 208.869 176.058 209 C 175.969 208.894 175.879 208.795 175.776 208.713 C 175.748 208.688 175.66 208.631 175.617 208.606 C 175.563 208.573 175.506 208.549 175.446 208.533 C 175.33 208.491 175.206 208.483 175.082 208.491 C 174.959 208.503 174.835 208.53 174.712 208.573 C 174.767 208.533 174.822 208.5 174.883 208.467 Z" style="fill: rgb(51, 51, 51);"/>
  <path class="s0" d="M 173.393 208.155 C 173.276 208.098 173.16 208.057 173.035 208.048 C 172.977 208.043 172.917 208.043 172.857 208.048 C 172.803 208.057 172.706 208.082 172.671 208.09 C 172.555 208.13 172.438 208.188 172.321 208.254 C 172.418 208.147 172.528 208.065 172.651 208.016 C 172.716 207.989 172.78 207.97 172.844 207.959 C 172.912 207.948 172.979 207.945 173.043 207.951 C 173.181 207.959 173.311 208.008 173.421 208.082 C 173.48 208.12 173.534 208.163 173.585 208.213 C 173.633 208.262 173.682 208.312 173.716 208.377 C 173.615 208.283 173.508 208.21 173.393 208.155 Z" style="fill: rgb(51, 51, 51);"/>
  <path class="s15" d="M 179.436 218.618 L 179.376 218.635 C 179.3 218.651 179.224 218.659 179.142 218.667 C 179.064 218.667 178.988 218.656 178.915 218.635 C 178.836 218.618 178.764 218.59 178.695 218.553 C 178.627 218.52 178.565 218.462 178.503 218.413 C 178.572 218.454 178.633 218.495 178.71 218.52 C 178.744 218.536 178.778 218.545 178.812 218.56 C 178.853 218.569 178.887 218.577 178.921 218.577 C 178.995 218.594 179.069 218.599 179.142 218.594 C 179.197 218.588 179.249 218.579 179.3 218.569 C 179.245 218.498 179.194 218.424 179.148 218.348 C 179.089 218.255 179.036 218.156 178.99 218.053 C 178.963 217.995 178.943 217.946 178.921 217.888 C 178.907 217.839 178.887 217.781 178.873 217.724 C 178.839 217.618 178.825 217.503 178.812 217.388 C 178.839 217.495 178.867 217.601 178.907 217.708 C 178.95 217.818 178.993 217.921 179.038 218.02 C 179.089 218.118 179.144 218.214 179.203 218.306 C 179.259 218.397 179.328 218.487 179.396 218.569 L 179.436 218.618 Z" style="fill: rgb(255, 255, 255);"/>
  <path class="s0" d="M 177.342 209.164 C 176.238 208.377 175.433 207.505 174.925 206.548 C 174.869 207.002 174.897 207.325 175.007 207.516 C 174.939 207.548 173.785 206.745 173.668 205.614 C 173.589 204.859 174.092 204.733 175.172 205.236 C 175.831 205.241 176.175 205.255 176.202 205.277 C 176.243 205.31 176.854 205.917 176.883 205.958 C 176.901 205.986 177.134 206.543 177.583 207.631 L 177.726 208.221 L 177.665 208.976 L 177.342 209.164 Z" style="fill: rgb(51, 51, 51);"/>
  <path class="s31" d="M 171.724 231.959 C 171.806 232.047 171.884 232.137 171.957 232.23 C 172.108 232.41 172.257 232.593 172.404 232.779 C 172.546 232.965 172.686 233.156 172.823 233.353 C 172.961 233.544 173.094 233.741 173.221 233.943 L 173.304 234.066 L 173.194 233.976 C 173.078 233.878 172.953 233.796 172.83 233.714 C 172.706 233.632 172.579 233.555 172.446 233.485 C 172.413 233.468 172.381 233.451 172.349 233.435 L 172.246 233.394 C 172.219 233.378 172.185 233.361 172.15 233.345 C 172.114 233.334 172.08 233.32 172.047 233.304 L 171.943 233.271 L 171.841 233.238 L 171.786 233.222 L 171.731 233.206 L 171.629 233.181 L 171.731 233.206 L 171.786 233.214 L 171.841 233.222 L 171.943 233.254 L 172.053 233.288 C 172.191 233.331 172.327 233.389 172.46 233.46 C 172.591 233.525 172.722 233.596 172.851 233.672 C 172.974 233.754 173.098 233.845 173.221 233.943 L 173.187 233.976 C 173.064 233.771 172.927 233.575 172.789 233.386 C 172.655 233.189 172.518 232.995 172.377 232.804 C 172.235 232.612 172.09 232.427 171.943 232.246 C 171.797 232.06 171.644 231.882 171.484 231.713 C 171.567 231.795 171.649 231.877 171.724 231.959 Z" style="fill: rgb(218, 238, 247); opacity: 0.5;"/>
  <path class="s31" d="M 175.165 233.91 C 175.33 233.653 175.502 233.399 175.68 233.148 C 175.858 232.903 176.042 232.656 176.229 232.41 C 176.418 232.169 176.609 231.934 176.806 231.705 C 176.903 231.59 177.006 231.476 177.108 231.369 C 177.205 231.254 177.315 231.147 177.418 231.041 C 177.217 231.264 177.02 231.495 176.827 231.73 C 176.635 231.965 176.446 232.205 176.264 232.451 C 176.08 232.692 175.903 232.937 175.728 233.189 C 175.587 233.391 175.444 233.596 175.303 233.804 C 175.412 233.716 175.527 233.637 175.646 233.567 C 175.81 233.462 175.979 233.369 176.154 233.288 C 176.323 233.206 176.497 233.134 176.676 233.074 L 176.813 233.033 L 176.951 232.992 L 177.02 232.976 L 177.089 232.968 L 177.225 232.943 L 177.089 232.976 L 177.02 232.992 L 176.957 233.009 L 176.82 233.05 L 176.683 233.099 C 176.642 233.115 176.599 233.132 176.553 233.148 C 176.511 233.164 176.462 233.181 176.422 233.206 L 176.291 233.263 C 176.251 233.279 176.209 233.304 176.168 233.328 C 175.998 233.416 175.831 233.511 175.666 233.615 C 175.508 233.722 175.35 233.828 175.199 233.951 L 175.062 234.066 L 175.165 233.91 Z" style="fill: rgb(218, 238, 247); opacity: 0.5;"/>
  <g style="opacity: 0.3; mix-blend-mode: multiply;" transform="matrix(0.068679, 0, 0, 0.081997, 40.265934, 139.761154)">
    <path class="s28" d="m1943.7 870q-7.1-0.7-7.6-7.1q3.9-1.8 7.7 1.4q4.4-1.8 8.4 0.4q-1.4 6.1-8.5 5.3z" style="fill: rgb(249, 152, 147);"/>
  </g>
  <path class="s28" d="M 174.237 210.754 C 174.1 210.804 173.949 210.828 173.805 210.812 C 173.732 210.807 173.661 210.79 173.593 210.764 C 173.518 210.735 173.452 210.7 173.393 210.657 C 173.331 210.615 173.269 210.567 173.215 210.517 C 173.165 210.456 173.116 210.397 173.07 210.336 C 173.173 210.443 173.283 210.542 173.414 210.615 C 173.537 210.689 173.668 210.738 173.812 210.754 C 173.949 210.764 174.086 210.746 174.224 210.714 C 174.293 210.692 174.359 210.667 174.424 210.64 C 174.492 210.607 174.556 210.571 174.615 210.533 C 174.506 210.632 174.375 210.706 174.237 210.754 Z" style="fill: rgb(249, 152, 147);"/>
  <path class="s28" d="M 173.764 209.164 C 173.702 209.295 173.633 209.427 173.579 209.566 C 173.551 209.631 173.524 209.697 173.51 209.763 C 173.503 209.796 173.489 209.836 173.51 209.87 C 173.524 209.886 173.537 209.91 173.551 209.927 C 173.641 210.033 173.75 210.115 173.86 210.206 C 173.796 210.178 173.734 210.145 173.675 210.106 C 173.619 210.074 173.558 210.033 173.51 209.976 C 173.482 209.951 173.448 209.918 173.434 209.878 C 173.421 209.845 173.428 209.788 173.434 209.746 C 173.448 209.664 173.476 209.591 173.503 209.524 C 173.563 209.388 173.631 209.257 173.709 209.131 C 173.785 209.009 173.867 208.885 173.957 208.77 C 173.894 208.902 173.826 209.033 173.764 209.164 Z" style="fill: rgb(249, 152, 147);"/>
  <path class="s14" d="M 119.872 228.688 L 120.51 228.688 L 131.114 228.688 L 128.113 261.314 C 128.01 262.454 127.166 263.323 126.156 263.323 L 120.51 263.323 L 119.872 263.323 L 114.226 263.323 C 113.216 263.323 112.365 262.454 112.262 261.314 L 109.267 228.688 L 119.872 228.688 Z" style="fill: rgb(255, 91, 126);"/>
  <path class="s35" d="M 107.99 229.499 L 107.99 228.802 C 107.99 228.22 108.408 227.745 108.924 227.745 L 131.272 227.745 C 131.787 227.745 132.207 228.22 132.207 228.802 L 132.207 229.499 C 132.207 230.082 131.787 230.557 131.272 230.557 L 108.924 230.557 C 108.408 230.557 107.99 230.082 107.99 229.499 Z" style="fill: rgb(244, 78, 122);"/>
  <path class="s36" d="M 125.846 230.557 L 123.752 263.323 L 116.081 263.323 L 114.143 230.557 L 125.846 230.557 Z" style="fill: rgb(255, 255, 255); opacity: 0.2;"/>
  <path class="s21" d="M 83.019 220.364 C 83.313 219.848 83.492 219.414 83.492 219.118 L 83.395 218.627 C 83.273 218.02 83.395 217.609 83.609 217.593 L 83.65 217.593 C 83.888 218.173 84.106 218.7 84.303 219.175 L 84.625 218.848 L 84.846 221.086 L 84.399 222.194 L 83.019 220.364 Z" style="fill: rgb(255, 192, 187);"/>
  <path class="s21" d="M 70.169 261.412 L 70.169 260.15 L 71.445 259.756 L 71.727 259.895 L 71.775 261.412 L 71.377 262.74 L 70.169 261.412 Z" style="fill: rgb(255, 192, 187);"/>
  <path class="s0" d="M 74.297 263.224 L 69.888 263.274 C 69.811 263.274 69.757 263.208 69.749 263.126 L 69.749 262.905 C 69.749 262.822 69.811 262.748 69.888 262.748 L 74.297 262.7 C 74.371 262.7 74.426 262.765 74.433 262.855 L 74.433 263.069 C 74.433 263.159 74.371 263.224 74.297 263.224 Z" style="fill: rgb(51, 51, 51);"/>
  <path class="s14" d="M 70.162 260.863 L 72.043 260.839 C 72.071 260.839 72.095 260.847 72.119 260.863 C 72.723 261.339 73.904 261.469 74.268 262.044 C 74.461 262.33 74.447 262.552 74.392 262.691 C 74.337 262.839 74.234 262.913 74.125 262.913 L 70.004 262.954 C 69.88 262.962 69.791 262.798 69.805 262.618 L 69.948 261.15 C 69.969 260.986 70.059 260.863 70.162 260.863 Z" style="fill: rgb(255, 91, 126);"/>
  <path class="s0" d="M 71.803 261.691 C 71.769 261.675 71.761 261.618 71.775 261.576 C 71.858 261.371 72.105 260.879 72.62 260.978 C 72.648 260.986 72.668 261.027 72.668 261.068 L 72.668 261.076 C 72.662 261.117 72.634 261.15 72.607 261.142 C 72.147 261.06 71.934 261.494 71.865 261.658 C 71.851 261.7 71.823 261.708 71.803 261.691 Z" style="fill: rgb(51, 51, 51);"/>
  <path class="s0" d="M 72.23 261.88 C 72.201 261.855 72.187 261.806 72.208 261.757 C 72.284 261.56 72.531 261.068 73.053 261.158 C 73.081 261.166 73.101 261.207 73.095 261.257 C 73.095 261.306 73.067 261.33 73.032 261.322 C 72.572 261.24 72.359 261.675 72.298 261.847 C 72.284 261.88 72.256 261.896 72.23 261.88 Z" style="fill: rgb(51, 51, 51);"/>
  <path class="s0" d="M 72.628 262.051 C 72.6 262.027 72.586 261.978 72.607 261.929 C 72.682 261.733 72.936 261.24 73.452 261.33 C 73.479 261.339 73.499 261.379 73.493 261.429 C 73.493 261.469 73.465 261.503 73.437 261.494 C 72.971 261.412 72.765 261.847 72.697 262.019 C 72.682 262.051 72.654 262.068 72.628 262.051 Z" style="fill: rgb(51, 51, 51);"/>
  <g style="opacity: 0.3; mix-blend-mode: multiply;" transform="matrix(0.068679, 0, 0, 0.081997, 40.265934, 139.761154)">
    <path class="s37" d="m446.4 1502.3l-13.4 0.1c-1.8 0.1-3.1-1.9-2.9-4.1l1.2-10c0.1-0.9 0.9-1.6 1.9-1.6c4.3 0.2 10.6 2.6 14.9 13.2c0.5 1.2-0.4 2.4-1.7 2.4z" style="fill: rgb(232, 123, 80);"/>
  </g>
  <path class="s21" d="M 61.282 261.412 L 61.282 260.15 L 62.559 259.756 L 62.841 259.895 L 62.889 261.412 L 62.491 262.74 L 61.282 261.412 Z" style="fill: rgb(255, 192, 187);"/>
  <path class="s0" d="M 65.409 263.224 L 61 263.274 C 60.931 263.274 60.87 263.208 60.863 263.126 L 60.863 262.905 C 60.863 262.822 60.924 262.748 61 262.748 L 65.409 262.7 C 65.485 262.7 65.547 262.765 65.547 262.855 L 65.547 263.069 C 65.547 263.159 65.485 263.224 65.409 263.224 Z" style="fill: rgb(51, 51, 51);"/>
  <path class="s14" d="M 61.274 260.863 L 63.157 260.839 C 63.183 260.839 63.209 260.847 63.231 260.863 C 63.836 261.339 65.018 261.469 65.382 262.044 C 65.574 262.33 65.559 262.552 65.505 262.691 C 65.45 262.839 65.348 262.913 65.237 262.913 L 61.116 262.954 C 60.993 262.962 60.903 262.798 60.918 262.618 L 61.062 261.15 C 61.082 260.986 61.171 260.863 61.274 260.863 Z" style="fill: rgb(255, 91, 126);"/>
  <path class="s0" d="M 62.916 261.691 C 62.882 261.675 62.874 261.618 62.889 261.576 C 62.971 261.371 63.217 260.879 63.733 260.978 C 63.761 260.986 63.781 261.027 63.781 261.068 L 63.781 261.076 C 63.775 261.117 63.747 261.15 63.72 261.142 C 63.26 261.06 63.046 261.494 62.977 261.658 C 62.964 261.7 62.936 261.708 62.916 261.691 Z" style="fill: rgb(51, 51, 51);"/>
  <path class="s0" d="M 63.342 261.88 C 63.314 261.855 63.3 261.806 63.321 261.757 C 63.397 261.56 63.644 261.068 64.165 261.158 C 64.193 261.166 64.213 261.207 64.207 261.257 C 64.207 261.306 64.179 261.33 64.145 261.322 C 63.684 261.24 63.472 261.675 63.41 261.847 C 63.397 261.88 63.37 261.896 63.342 261.88 Z" style="fill: rgb(51, 51, 51);"/>
  <path class="s0" d="M 63.74 262.051 C 63.713 262.027 63.698 261.978 63.72 261.929 C 63.795 261.733 64.049 261.24 64.564 261.33 C 64.592 261.339 64.612 261.379 64.606 261.429 C 64.606 261.469 64.577 261.503 64.551 261.494 C 64.083 261.412 63.877 261.847 63.809 262.019 C 63.795 262.051 63.767 262.068 63.74 262.051 Z" style="fill: rgb(51, 51, 51);"/>
  <g style="opacity: 0.3; mix-blend-mode: multiply;" transform="matrix(0.068679, 0, 0, 0.081997, 40.265934, 139.761154)">
    <path class="s37" d="m317 1502.3l-13.4 0.1c-1.8 0.1-3.1-1.9-2.9-4.1l1.2-10c0.1-0.9 0.9-1.6 1.9-1.6c4.3 0.2 10.6 2.6 14.9 13.2c0.5 1.2-0.4 2.4-1.7 2.4z" style="fill: rgb(232, 123, 80);"/>
  </g>
  <path class="s35" d="M 71.878 213.936 L 78.142 221.291 L 83.575 219.127 C 83.963 219.985 84.044 220.87 83.816 221.783 C 83.808 221.8 79.118 225.326 77.97 225.587 C 77.202 225.763 74.928 223.623 71.151 219.167 L 71.878 213.936 Z" style="fill: rgb(244, 78, 122);"/>
  <path class="s30" d="M 65.437 208.369 C 65.028 206.428 65.299 205.088 66.247 204.351 C 67.662 203.252 69.173 203.359 70.203 204.006 C 71.233 204.646 71.858 206.926 71.405 208.229 L 67.992 207.015 L 65.437 208.369 Z" style="fill: rgb(7, 8, 91);"/>
  <path class="s21" d="M 69.103 211.099 L 69.51 213.985 L 66.962 214.256 L 67.085 210.96 L 69.103 211.099 Z" style="fill: rgb(255, 192, 187);"/>
  <path class="s28" d="M 67.044 212.1 L 67.085 210.96 L 69.103 211.099 L 69.296 212.476 C 68.197 212.969 67.455 212.534 67.044 212.1 Z" style="fill: rgb(249, 152, 147);"/>
  <path class="s28" d="M 71.432 208.139 C 71.693 208.262 71.789 208.664 71.645 209.033 C 71.508 209.394 71.185 209.591 70.924 209.467 C 70.67 209.336 70.574 208.942 70.711 208.573 C 70.848 208.205 71.171 208.008 71.432 208.139 Z" style="fill: rgb(249, 152, 147);"/>
  <path class="s21" d="M 68.445 212.124 C 67.133 212.124 66.061 210.927 65.952 209.41 C 65.916 209.442 65.874 209.471 65.828 209.492 C 65.499 209.656 65.092 209.402 64.921 208.942 C 64.75 208.476 64.873 207.975 65.203 207.819 C 65.375 207.737 65.559 207.77 65.732 207.877 C 65.759 206.097 67.112 204.687 68.719 204.859 C 69.908 204.991 70.904 206.007 71.13 207.343 C 71.199 207.754 71.199 208.155 71.13 208.533 C 71.112 208.625 71.097 208.721 71.089 208.819 C 70.848 211.132 69.736 212.132 68.445 212.124 Z" style="fill: rgb(255, 192, 187);"/>
  <path class="s28" d="M 69.069 207.926 C 69.077 208.098 69.09 208.27 69.103 208.442 C 69.117 208.606 69.139 208.787 69.2 208.894 L 69.214 208.918 C 69.221 208.918 69.221 208.926 69.227 208.934 C 69.248 208.959 69.262 208.976 69.275 209 C 69.304 209.049 69.317 209.107 69.324 209.164 C 69.33 209.278 69.282 209.385 69.214 209.451 C 69.077 209.591 68.897 209.615 68.747 209.582 C 68.897 209.541 69.042 209.476 69.124 209.36 C 69.159 209.303 69.186 209.238 69.173 209.181 C 69.168 209.153 69.159 209.125 69.145 209.099 C 69.139 209.082 69.124 209.074 69.117 209.057 L 69.097 209.033 L 69.077 209 C 69.022 208.902 69 208.812 68.986 208.721 C 68.978 208.629 68.976 208.535 68.981 208.442 C 68.986 208.27 69.014 208.09 69.069 207.926 Z" style="fill: rgb(249, 152, 147);"/>
  <path class="s0" d="M 67.936 208.467 C 67.806 208.467 67.696 208.352 67.696 208.205 C 67.696 208.048 67.806 207.933 67.936 207.933 C 68.067 207.933 68.17 208.048 68.17 208.205 C 68.17 208.352 68.067 208.467 67.936 208.467 Z" style="fill: rgb(51, 51, 51);"/>
  <path class="s0" d="M 69.976 208.631 C 69.845 208.631 69.742 208.509 69.742 208.36 C 69.742 208.213 69.845 208.09 69.976 208.09 C 70.107 208.09 70.218 208.213 70.218 208.36 C 70.218 208.509 70.107 208.631 69.976 208.631 Z" style="fill: rgb(51, 51, 51);"/>
  <path class="s30" d="M 68.445 207.582 C 68.328 207.54 68.211 207.516 68.095 207.5 C 67.984 207.483 67.875 207.486 67.764 207.508 C 67.662 207.533 67.552 207.565 67.455 207.623 C 67.4 207.639 67.352 207.68 67.298 207.713 C 67.243 207.745 67.195 207.787 67.139 207.819 C 67.168 207.754 67.199 207.691 67.236 207.631 C 67.278 207.582 67.318 207.516 67.373 207.475 C 67.477 207.385 67.606 207.327 67.737 207.303 C 67.867 207.269 68.005 207.286 68.129 207.336 C 68.252 207.385 68.369 207.466 68.445 207.582 Z" style="fill: rgb(7, 8, 91);"/>
  <path class="s30" d="M 69.502 207.663 C 69.592 207.557 69.715 207.5 69.839 207.458 C 69.969 207.426 70.107 207.426 70.23 207.466 C 70.36 207.508 70.485 207.582 70.574 207.688 C 70.629 207.737 70.663 207.803 70.697 207.86 C 70.729 207.926 70.756 207.991 70.779 208.057 C 70.724 208.016 70.677 207.975 70.629 207.933 C 70.58 207.901 70.539 207.851 70.485 207.827 C 70.389 207.754 70.286 207.713 70.182 207.672 C 70.077 207.639 69.969 207.623 69.86 207.623 C 69.742 207.631 69.626 207.639 69.502 207.663 Z" style="fill: rgb(7, 8, 91);"/>
  <path class="s30" d="M 65.773 207.918 C 65.668 207.819 65.574 207.773 65.491 207.779 L 65.559 206.836 L 65.814 206.269 C 66.487 205.247 66.835 204.722 66.858 204.695 C 66.892 204.654 67.662 204.162 67.71 204.137 C 67.742 204.121 68.117 204.17 68.836 204.285 C 70.105 203.985 70.634 204.211 70.423 204.966 C 70.107 206.097 68.719 206.696 68.644 206.647 C 68.795 206.477 68.878 206.152 68.892 205.671 C 67.916 206.885 66.061 207.787 65.773 207.918 Z" style="fill: rgb(7, 8, 91);"/>
  <path class="s15" d="M 69.667 209.968 C 69.612 210.312 69.338 210.575 68.994 210.582 C 68.657 210.591 68.369 210.345 68.3 210.009 L 69.667 209.968 Z" style="fill: rgb(255, 255, 255);"/>
  <path class="s21" d="M 66.316 213.477 L 69.893 213.46 L 70.346 215.864 L 68.382 221.694 C 67.073 220.097 66.418 219.184 66.418 218.954 C 66.418 218.61 65.512 216.036 65.662 215.691 C 65.764 215.461 65.982 214.724 66.316 213.477 Z" style="fill: rgb(255, 192, 187);"/>
  <path class="s32" d="M 72.401 260.363 C 71.938 260.756 71.034 260.873 69.688 260.715 L 68.287 236.206 C 70.306 233.774 71.821 231.716 72.833 230.032 C 72.898 234.766 72.753 244.877 72.401 260.363 Z" style="fill: rgb(30, 30, 30);"/>
  <path class="s33" d="M 68.287 236.51 L 63.767 260.617 C 63.062 260.917 62.094 260.917 60.863 260.617 L 63.698 230.065 L 65.244 230.426 C 70.148 227.097 72.678 227.416 72.833 231.385 C 72.847 231.672 72.256 230.615 72.256 230.975 C 70.69 234.151 69.367 235.996 68.287 236.51 Z" style="fill: rgb(58, 38, 69);"/>
  <path class="s21" d="M 62.882 235.436 C 62.841 235.378 62.765 235.403 62.745 235.469 C 62.62 235.994 62.209 237.65 62.078 237.641 C 61.934 237.641 62.27 236.149 62.153 236.059 C 62.037 235.969 61.742 237.436 61.583 237.395 C 61.426 237.363 61.734 236.034 61.672 235.994 C 61.611 235.953 61.193 237.182 61.089 237.224 C 60.986 237.264 61.288 235.887 61.227 235.813 C 61.165 235.739 60.678 236.609 60.601 236.567 C 60.533 236.535 60.478 236.518 61.082 234.197 L 61.356 233.296 L 61.927 232.697 L 62.772 233.156 C 63.413 235.097 63.713 236.103 63.672 236.173 C 63.603 236.272 63.513 236.248 62.882 235.436 Z" style="fill: rgb(255, 192, 187);"/>
  <path class="s38" d="M 66.632 213.854 C 67.827 214.674 68.895 214.674 69.839 213.854 C 70.375 215.461 70.618 216.295 70.567 216.355 C 70.491 216.437 69.654 219.045 69.654 219.127 C 69.654 219.217 68.657 220.258 68.197 219.479 C 67.737 218.692 67.435 218.782 66.824 217.134 C 66.213 215.486 65.752 214.97 65.903 214.789 C 66.008 214.674 66.251 214.363 66.632 213.854 Z" style="fill: rgb(60, 35, 64);"/>
  <path class="s14" d="M 69.139 218.438 L 69.893 213.46 L 71.707 213.805 C 73.016 214.149 73.419 219.983 72.916 231.303 C 69.088 232.675 65.966 232.503 63.547 230.787 L 63.849 220.324 C 62.742 223.866 62.137 225.809 62.037 226.154 C 61.936 226.498 62.187 228.843 62.793 233.189 C 62.491 233.758 61.936 233.985 61.131 233.869 C 60.223 230.787 59.72 228.444 59.619 226.842 C 59.468 224.44 61.282 216.552 62.037 215.182 C 62.541 214.264 64.002 213.691 66.418 213.46 L 69.139 218.438 Z" style="fill: rgb(255, 91, 126);"/>
  <path class="s0" d="M 77.037 230.122 C 78.218 227.121 77.792 224.366 79.948 222.357 C 79.971 222.33 79.997 222.305 80.023 222.284 C 81.281 221.127 82.806 220.611 84.303 220.701 C 83.826 219.744 83.57 218.541 83.534 217.093 C 84.618 217.733 85.605 217.856 86.494 217.462 L 85.168 220.824 C 86.562 221.136 87.874 221.988 88.828 223.358 C 90.511 225.76 92.379 229.294 91.85 232.557 C 91.329 235.797 91.706 237.174 86.967 239.101 C 82.084 241.085 80.498 237.961 77.806 237.756 C 75.12 237.543 75.683 233.558 77.037 230.122 Z" style="fill: rgb(51, 51, 51);"/>
  <path class="s21" d="M 85.553 219.282 C 85.56 219.242 84.804 218.709 84.866 218.627 C 84.935 218.528 85.717 218.905 85.745 218.848 C 85.766 218.782 85.051 218.102 85.092 217.995 C 85.148 217.88 85.931 218.438 85.999 218.413 C 86.068 218.38 85.456 217.462 85.621 217.405 C 85.745 217.372 86.178 217.913 86.377 218.184 C 86.438 218.265 86.459 218.388 86.418 218.495 L 85.615 220.627 C 85.546 220.815 85.339 220.882 85.168 220.824 L 85.27 220.406 L 85.553 219.282 Z" style="fill: rgb(255, 192, 187);"/>
  <path class="s34" d="M 85.12 228.688 L 85.758 228.688 L 96.362 228.688 L 93.368 261.314 C 93.258 262.454 92.414 263.323 91.404 263.323 L 85.758 263.323 L 85.12 263.323 L 79.474 263.323 C 78.465 263.323 77.621 262.454 77.51 261.314 L 74.516 228.688 L 85.12 228.688 Z" style="fill: rgb(254, 181, 70);"/>
  <path class="s29" d="M 73.238 229.499 L 73.238 228.802 C 73.238 228.22 73.657 227.745 74.172 227.745 L 96.521 227.745 C 97.036 227.745 97.454 228.22 97.454 228.802 L 97.454 229.499 C 97.454 230.082 97.036 230.557 96.521 230.557 L 74.172 230.557 C 73.657 230.557 73.238 230.082 73.238 229.499 Z" style="fill: rgb(244, 166, 64);"/>
  <path class="s36" d="M 91.096 230.557 L 89.001 263.323 L 81.336 263.323 L 79.399 230.557 L 91.096 230.557 Z" style="fill: rgb(255, 255, 255); opacity: 0.2;"/>
  <g style="opacity: 0.6;" transform="matrix(0.068679, 0, 0, 0.081997, 40.265934, 139.761154)">
    <path class="s15" d="m623.2 1275.1l-23.1 38q-6.2 9.1-2.2 18.2l-20.5-32.8c-2.7-4.3-3.8-9.4-2.9-14.4c0.3-1.4 0.7-2.9 1.4-4q2.6-4.7 14.1-23.3l-19-10.1l47.7-1.7l21.7 39.5z" style="fill: rgb(255, 255, 255);"/>
    <path class="s15" d="m608 1306.3h33.6v36.9h-22.4q-24-1.8-18.2-24.2z" style="fill: rgb(255, 255, 255);"/>
    <path class="s15" d="m680.3 1304.4l46.1-1q11.3 0.3 17.4-7.7l-18.7 33.7c-2.5 4.4-6.5 8-11.4 9.8c-1.5 0.6-3 1-4.4 1q-5.5 0.4-28.2 0.7l0.8 20.7l-26.4-37.8l24.2-38.2z" style="fill: rgb(255, 255, 255);"/>
    <path class="s15" d="m716.2 1300.5l-17.5-27.3l33.1-19.2l11.7 18.2q10.9 20.5-12.3 27.3z" style="fill: rgb(255, 255, 255);"/>
    <path class="s15" d="m677.7 1242.2l-23.3-37.9q-5.3-9.6-15.6-10.8l40.1-0.7c5.3-0.1 10.5 1.5 14.6 4.7c1.2 1 2.3 2 3 3.1q3 4.5 14.3 23.2l18.7-10.7l-22 40.2l-46.9-1.5z" style="fill: rgb(255, 255, 255);"/>
    <path class="s15" d="m656.7 1214.2l-16.6 27.8l-33.8-18.2l11.1-18.5q13.5-19 31.1-3.1z" style="fill: rgb(255, 255, 255);"/>
  </g>
  <path class="s39" d="M 156.731 228.688 L 157.363 228.688 L 167.974 228.688 L 164.973 261.314 C 164.87 262.454 164.025 263.323 163.015 263.323 L 157.363 263.323 L 156.731 263.323 L 151.079 263.323 C 150.069 263.323 149.225 262.454 149.121 261.314 L 146.121 228.688 L 156.731 228.688 Z" style="fill: rgb(103, 162, 218);"/>
  <path class="s23" d="M 144.905 229.499 L 144.905 228.802 C 144.905 228.22 145.324 227.745 145.846 227.745 L 168.194 227.745 C 168.709 227.745 169.128 228.22 169.128 228.802 L 169.128 229.499 C 169.128 230.082 168.709 230.557 168.194 230.557 L 145.846 230.557 C 145.324 230.557 144.905 230.082 144.905 229.499 Z" style="fill: rgb(34, 72, 135);"/>
  <path class="s36" d="M 162.761 230.557 L 160.673 263.323 L 153.002 263.323 L 151.065 230.557 L 162.761 230.557 Z" style="fill: rgb(255, 255, 255); opacity: 0.2;"/>
  <g style="opacity: 0.6;" transform="matrix(0.068679, 0, 0, 0.081997, 40.265934, 139.761154)">
    <path class="s15" d="m1666.7 1275.1l-23.1 38q-6.1 9.1-2.2 18.2l-20.4-32.8c-2.7-4.3-3.8-9.4-2.9-14.4c0.3-1.4 0.7-2.9 1.3-4q2.6-4.7 14.1-23.3l-19-10.1l47.7-1.7l21.7 39.5z" style="fill: rgb(255, 255, 255);"/>
    <path class="s15" d="m1651.6 1306.3h33.6v36.9h-22.4q-24.1-1.8-18.2-24.2z" style="fill: rgb(255, 255, 255);"/>
    <path class="s15" d="m1723.8 1304.4l46.1-1q11.4 0.3 17.5-7.7l-18.8 33.7c-2.4 4.4-6.4 8-11.4 9.8c-1.5 0.6-2.9 1-4.3 1q-5.6 0.4-28.3 0.7l0.8 20.7l-26.3-37.8l24.1-38.2z" style="fill: rgb(255, 255, 255);"/>
    <path class="s15" d="m1759.7 1300.5l-17.5-27.3l33.1-19.2l11.7 18.2q10.9 20.5-12.2 27.3z" style="fill: rgb(255, 255, 255);"/>
    <path class="s15" d="m1721.2 1242.2l-23.3-37.9q-5.2-9.6-15.5-10.8l40-0.7c5.3-0.1 10.5 1.5 14.6 4.7c1.2 1 2.3 2 3.1 3.1q3 4.5 14.3 23.2l18.6-10.7l-22 40.2l-46.8-1.5z" style="fill: rgb(255, 255, 255);"/>
    <path class="s15" d="m1700.2 1214.2l-16.6 27.8l-33.7-18.2l11-18.5q13.6-19 31.1-3.1z" style="fill: rgb(255, 255, 255);"/>
  </g>
  <g style="opacity: 0.6;" transform="matrix(0.068679, 0, 0, 0.081997, 40.265934, 139.761154)">
    <path class="s15" d="m1125.6 1275.1l-23.1 38q-6.2 9.1-2.2 18.2l-20.5-32.8c-2.7-4.3-3.8-9.4-2.8-14.4c0.2-1.4 0.7-2.9 1.3-4q2.6-4.7 14.1-23.3l-19-10.1l47.7-1.7l21.7 39.5z" style="fill: rgb(255, 255, 255);"/>
    <path class="s15" d="m1110.4 1306.3h33.6v36.9h-22.4q-24-1.8-18.1-24.2z" style="fill: rgb(255, 255, 255);"/>
    <path class="s15" d="m1182.7 1304.4l46.1-1q11.3 0.3 17.4-7.7l-18.7 33.7c-2.5 4.4-6.5 8-11.4 9.8c-1.5 0.6-3 1-4.4 1q-5.5 0.4-28.2 0.7l0.8 20.7l-26.3-37.8l24.1-38.2z" style="fill: rgb(255, 255, 255);"/>
    <path class="s15" d="m1218.6 1300.5l-17.5-27.3l33.1-19.2l11.7 18.2q10.9 20.5-12.3 27.3z" style="fill: rgb(255, 255, 255);"/>
    <path class="s15" d="m1180.1 1242.2l-23.3-37.9q-5.3-9.6-15.6-10.8l40.1-0.7c5.3-0.1 10.5 1.5 14.6 4.7c1.2 1 2.3 2 3 3.1q3 4.5 14.3 23.2l18.7-10.7l-22 40.2l-46.9-1.5z" style="fill: rgb(255, 255, 255);"/>
    <path class="s15" d="m1159.1 1214.2l-16.6 27.8l-33.8-18.2l11.1-18.5q13.5-19 31.1-3.1z" style="fill: rgb(255, 255, 255);"/>
  </g>
  <path class="s15" d="M 192.678 160.827 C 192.66 160.646 192.652 160.463 192.652 160.277 C 192.652 157.137 194.897 154.587 197.665 154.587 C 198.551 154.587 199.381 154.849 200.103 155.308 C 201.12 152.118 203.811 149.847 206.971 149.847 C 209.623 149.847 211.943 151.454 213.227 153.856 C 213.784 153.66 214.374 153.553 214.986 153.553 C 217.362 153.553 219.416 155.144 220.356 157.432 C 220.68 157.333 221.024 157.284 221.372 157.284 C 223.282 157.284 224.883 158.801 225.294 160.827 L 192.678 160.827 Z" style="fill: rgb(255, 255, 255);"/>
  <path class="s15" d="M 91.287 155.063 C 91.264 154.805 91.253 154.549 91.253 154.292 C 91.253 149.913 94.378 146.371 98.231 146.371 C 99.467 146.371 100.622 146.732 101.624 147.363 C 103.045 142.927 106.795 139.762 111.19 139.762 C 114.886 139.762 118.12 142 119.906 145.346 C 120.681 145.076 121.506 144.927 122.357 144.927 C 125.669 144.927 128.525 147.142 129.837 150.331 C 130.29 150.192 130.764 150.126 131.251 150.126 C 133.917 150.126 136.149 152.234 136.719 155.063 L 91.287 155.063 Z" style="fill: rgb(255, 255, 255);"/>
  <path class="s15" d="M 40.266 173.225 C 40.602 171.576 41.9 170.339 43.452 170.339 C 43.741 170.339 44.015 170.388 44.283 170.461 C 45.046 168.6 46.715 167.305 48.645 167.305 C 49.146 167.305 49.627 167.395 50.08 167.551 C 51.116 165.599 53.005 164.295 55.162 164.295 C 57.73 164.295 59.922 166.14 60.746 168.731 C 61.336 168.363 62.01 168.149 62.731 168.149 C 64.976 168.149 66.803 170.224 66.803 172.774 C 66.803 172.927 66.796 173.077 66.782 173.225 L 40.266 173.225 Z" style="fill: rgb(255, 255, 255);"/>
</svg>