<svg width="3681" height="723" viewBox="0 0 3681 723" fill="none" xmlns="http://www.w3.org/2000/svg">
<g clip-path="url(#clip0_106_259)">
<path d="M3627.79 476.72L3565.46 488.942C3503.4 501.681 3377.92 525.402 3249.22 508.072C3119.82 490.795 2984.3 430.038 2857.27 426.831C2729.49 423.153 2607.43 475.917 2479.53 465.181C2350.92 454.506 2213.81 380.554 2085.92 369.816C1957.29 359.144 1835.26 411.905 1711.52 436.416C1587.03 460.453 1458.39 457.776 1329.6 439.52C1200.15 421.85 1028.69 387.284 967.749 407.203C839.221 449.214 780.381 411.731 714.542 464.964C671.675 499.622 637.595 532.814 577.467 544.461C453.022 569.034 320.968 537.317 256.933 521.292L190.528 505.466L175.481 378.749L238.658 373.517C238.658 373.517 503.689 242.288 665.496 240.451C764.718 239.325 932.629 316.043 932.629 316.043L1311.2 284.689L1689.77 253.336C1689.77 253.336 1919.08 170.508 2068.34 221.983C2217.61 273.459 2432.67 255.437 2432.67 255.437L2825.5 159.276L3204.08 127.923L3518.76 101.861L3582.66 96.5691L3627.8 476.726L3627.79 476.72Z" fill="url(#paint0_linear_106_259)" fill-opacity="0.73"/>
<path d="M3008.42 708.2L2955.18 711.125C2902.18 714.554 2795.01 719.652 2685.61 687.427C2575.62 655.159 2460.94 583.007 2352.79 563.694C2244.01 543.862 2139.4 575.513 2030.59 549.319C1979.12 536.977 1937.78 506.76 1900.35 471.795C1859.33 433.477 1754.13 426.544 1696.53 412.677C1587.11 386.445 1482.52 418.096 1376.84 424.129C1270.51 429.64 1160.99 410.597 1051.53 377.527C941.493 344.899 829.374 299.301 723.701 305.339C617.373 310.845 515.371 369.051 409.637 374.601C303.352 380.597 191.272 335.003 136.935 312.316L80.5696 289.498L69.3161 173.629L123.189 177.096L411.752 234.356C411.752 234.356 575.097 243.53 658.449 219.129C777.977 184.137 1037.76 235.949 1037.76 235.949L1360.58 256.722L1683.39 277.495C1683.39 277.495 1995.98 243.305 2147.07 262.672C2214.31 271.29 2329.02 319.042 2329.02 319.042L2651.85 339.816L2920.19 357.084L2974.67 360.59L3008.42 708.198L3008.42 708.2Z" fill="url(#paint1_linear_106_259)" fill-opacity="0.4"/>
<path d="M2863.86 581.819L2815.93 589.691C2768.25 598.092 2671.72 613.063 2570.39 587.22C2468.51 561.388 2370.47 541.685 2271.23 529.923C2171.38 517.644 2244.04 535.863 2143.69 516.599C2072.08 502.935 2076.8 453 1978.49 443.233C1898.44 435.282 1889.1 405.663 1804.21 400.496C1732.66 396.141 1600.44 418.648 1533.6 407.81C1333.83 375.42 1298.2 406.25 1191.99 401.597C991.299 392.804 961.894 367.848 896.789 385.195C843.458 399.405 767.915 443.795 685.576 446.579C604.213 449.329 576.538 518.87 508.703 534.861C416.569 556.58 288.45 418.123 237.615 397.948L184.943 377.81L166.113 251.502L445.451 378.85C445.451 378.85 587.921 260.595 668.607 252.351C752.365 243.794 728.215 214.61 844.433 177.915C933.878 149.673 1129.74 150.372 1129.74 150.372L1407.88 152.171L1676.24 160.208C1676.24 160.208 1880.61 179.495 1963.48 212.047C2063.43 251.316 2077.9 275.487 2156.05 281.418C2290.37 291.611 2473.51 334.915 2473.51 334.915L2757.83 203.801L2807.36 202.89L2863.86 581.826L2863.86 581.819Z" fill="url(#paint2_linear_106_259)"/>
</g>
<defs>
<linearGradient id="paint0_linear_106_259" x1="2004.94" y1="623.12" x2="1971.97" y2="224.987" gradientUnits="userSpaceOnUse">
<stop stop-color="#5A11EB"/>
<stop offset="1" stop-color="#350A8C"/>
</linearGradient>
<linearGradient id="paint1_linear_106_259" x1="1442.52" y1="622.539" x2="1465.64" y2="263.309" gradientUnits="userSpaceOnUse">
<stop stop-color="#5A11EB"/>
<stop offset="1" stop-color="#350A8C"/>
</linearGradient>
<linearGradient id="paint2_linear_106_259" x1="304.431" y1="250.438" x2="2417.52" y2="-87.8579" gradientUnits="userSpaceOnUse">
<stop stop-color="#5A11EB"/>
<stop offset="1" stop-color="#350A8C"/>
</linearGradient>
<clipPath id="clip0_106_259">
<rect width="3681" height="723" fill="white"/>
</clipPath>
</defs>
</svg>
