<svg xmlns="http://www.w3.org/2000/svg" viewBox="46.739 0.861 282.26 343.14"><style><![CDATA[.B{fill:#422c4f}.C{fill:#454f6b}.D{fill:#fff}.E{fill:#de7274}.F{fill:#eba58e}.G{fill:#e78882}.H{fill:#e36b85}.I{fill:#bd6c67}.J{fill:#df8d6d}.K{fill-rule:evenodd}.L{fill:#f0bf9c}.M{pointer-events:none}.N{fill:#fbeed1}.O{fill:#a34262}.P{fill:#7dd3e9}.Q{fill:#8c404c}.R{fill:#654059}]]></style><defs><linearGradient id="A" x1="253.43" x2="253.43" y1="-203.83" y2="348.95" gradientUnits="userSpaceOnUse"><stop stop-color="rgba(153, 106, 246, 1)" offset="0"/><stop stop-color="rgba(88, 14, 236, 1)" offset="1"/></linearGradient><linearGradient id="B" x1="190.8" x2="190.8" y1="-96.498" y2="359.17" gradientUnits="userSpaceOnUse"><stop stop-color="rgba(153, 106, 246, 1)" offset="0"/><stop stop-color="rgba(88, 14, 236, 1)" offset="1"/></linearGradient><linearGradient id="C" x1="151.78" x2="151.78" y1="-34.836" y2="309.19" gradientUnits="userSpaceOnUse"><stop stop-color="rgba(153, 106, 246, 1)" offset="0"/><stop stop-color="rgba(88, 14, 236, 1)" offset="1"/></linearGradient></defs><path transform="matrix(-.91352 .4068 -.4068 -.91352 514.47 35.745)" d="M638.91-203.83c-24.023.116-49.471 3.111-72.074 6.725-67.98 10.879-147.02 42.082-201.48 91.934-62.531 57.23-43.521 148.39-107.4 204.49-74.579 65.501-191.67 52.563-272.91 111.08-51.082 36.79-104.98 92.804-117.72 138.55h570.11l202.1-552.78h-.634z" fill="url(#A)" fill-opacity=".35" class="M"/><path transform="matrix(-.99345 .11424000000000001 -.11424000000000001 -.99345 395.37 240.02)" d="M396.32-96.498c-15.434.095-31.341 2.563-45.324 5.545-42.053 8.966-88.1 34.689-115.48 75.781-31.436 47.177-5.223 122.33-37.699 168.57-37.916 53.995-115.21 43.331-158.48 91.567-27.208 30.33-53.279 76.504-54.455 114.21h366.68l45.165-455.67h-.407z" fill="url(#B)" fill-opacity=".7" class="M"/><path transform="matrix(-.97112 .23857 -.23857 -.97112 331.89 234.18)" d="M349.78-34.836c-13.264.071-27.158 1.936-39.448 4.186-36.962 6.769-78.936 26.19-106.33 57.215-31.451 35.618-16.034 92.353-48.291 127.27-37.66 40.765-103.04 32.714-144.75 69.131-26.23 22.899-52.98 57.76-57.55 86.228h314.9l81.812-344.03h-.35z" fill="url(#C)" paint-order="stroke markers" class="M"/><path d="M111.95 222.19l24.692.017-.02 35.246-24.693-.017.021-35.246z" fill="#a64f5a"/><path d="M82.662 222.18l29.289.017-.021 35.246-29.289-.022.021-35.241z" class="I"/><path d="M94.238 222.18l4.875.006-.005 4.321h-4.87v-4.327zm30.052.03h2.833l-.005 4.327-2.828-.006v-4.321zm-30.069 31.44h4.871v3.781h-4.876l.005-3.781zm30.059.01h2.831l-.006 3.786-2.83-.006.005-3.78z" opacity=".5" class="D"/><path d="M113.63 222.19l-.014 25.726c-.005 4.817 4.147 8.727 9.271 8.727l13.739.011v.799l-24.693-.017.021-35.246h1.676z" opacity=".2" class="B"/><path d="M134.27 229.66l24.692.017-.016 27.791-24.693-.018.017-27.79z" class="I"/><path d="M104.98 229.64l29.289.022-.017 27.79-29.294-.017.022-27.795z" class="J"/><path d="M116.55 229.65h4.875l-.005 4.327-4.87-.006v-4.321zm30.06.02h2.832l-.005 4.327h-2.827v-4.327zm-30.07 23.99l4.877.006v3.78l-4.877-.005v-3.781zm30.06.02h2.827v3.782h-2.832l.005-3.782z" opacity=".5" class="D"/><path d="M135.94 229.66l-.01 18.275c-.005 4.817 4.146 8.722 9.266 8.728l13.744.005v.8l-24.693-.018.017-27.79h1.676z" opacity=".2" class="B"/><path d="M129.98 244.74l-18.537 1.294-.663-8.316 18.538-1.295.662 8.317z" class="N"/><g class="C"><path d="M119.08 241.49l-.118.31c-.052.12-.112.216-.177.287l-.435.523c-.176.21-.336.359-.481.445l-.161.175c-.055.056-.113.087-.176.095-.031 0-.066-.005-.108-.017l-.14-.034c-.048-.015-.09-.041-.113-.079-.032-.18-.057-.373-.072-.58l-.059-.939-.051-.939c-.024-.278-.062-.534-.109-.766-.003-.003-.063-.049-.182-.135-.071-.052-.109-.101-.113-.146-.003-.023 0-.046.011-.067.021-.053.075-.087.16-.102l.196-.033c.442.052.916.227 1.419.523.131.079.239.163.326.253.277.289.427.566.45.832.011.135-.012.267-.067.394zm-.615-.653c-.073-.265-.372-.487-.897-.663l.176 2.279c.538-.517.789-.997.751-1.436-.006-.059-.018-.119-.03-.18zm4.335.603c-.278.615-.718.998-1.319 1.148l-.223.034c-.319.018-.658-.102-1.013-.361-.239-.176-.372-.415-.4-.714-.034-.334.055-.699.269-1.098.095-.168.211-.314.353-.438.162-.151.322-.229.482-.237.092-.007.18.013.262.062.087.048.307.109.659.181.278.055.483.166.611.332.226.288.351.539.372.753.009.121-.006.232-.053.338zm-.718-.377c-.073-.326-.202-.516-.389-.569-.03-.007-.057-.01-.077-.01-.07.003-.15.053-.243.15-.104.11-.187.175-.25.198-.037.016-.094.005-.17-.028s-.129-.056-.15-.056-.031.009-.041.016c-.187.147-.266.362-.239.647.017.192.09.351.218.479.176.176.317.261.425.253.248-.015.478-.152.687-.41.197-.249.274-.471.229-.67z" class="K"/><path d="M125.8 239.31l-.037 1.424.015 1.412.037.36c.01.056-.007.106-.052.152s-.094.071-.156.078c-.113.008-.215-.059-.305-.202-.272-.42-.622-1.086-1.051-1.997-.01-.023-.02-.035-.031-.035-.027.005-.043.031-.047.079-.023.507-.012 1.038.032 1.593l.087.81c.011.101-.014.175-.077.219-.024.027-.052.04-.082.04s-.062-.004-.104-.022l-.109-.039c-.051-.013-.084-.053-.097-.125l-.027-.168-.067-.614-.042-1.401.005-1.418c-.003-.075.062-.118.198-.129.062-.011.158.026.289.112.138.207.312.545.523 1.013.208.446.388.784.544 1.014l.092-2.134c.007-.071.059-.111.156-.118.035 0 .074.002.119.006l.109.022c.037.011.063.034.078.068z"/></g><g class="O"><path d="m186.71 157.49-12.854 1.648-1.179-8.136c3.1 5.328 9.97 6.213 12.848-1.648l1.185 8.136z"/><path d="M196.91 167.94l.099.101-15.033 1.929-15.032 1.931.056-.123c2.537-5.189 3.604-10.9 3.091-16.589l-.196-2.222 3.488 3.309 7.052 3.1 5.904-4.761 2.419-4.067.445 2.188c1.128 5.611 3.783 10.842 7.707 15.204z"/></g><path d="M191.82 153.31c-.089.765-.699 1.35-1.511 1.457l-20.697 2.656c-.812.107-1.562-.304-1.873-1.019-.305-.714-.068-1.502.595-1.957l10.028-6.91-.286-1.975c-.025-.18-.202-.304-.393-.282-1.314.169-2.531-.669-2.765-1.885l-.164-1.136c-.187-1.265.76-2.442 2.111-2.617l.482-.061c.667-.084 1.303.09 1.807.439.512.359.884.905.977 1.547l.062.444c.027.18-.109.349-.299.372s-.373-.102-.399-.282l-.063-.444c-.133-.906-1.024-1.542-1.987-1.419l-.487.063c-.963.123-1.641.962-1.511 1.868l.171 1.136c.18.856 1.041 1.441 1.971 1.318.576-.074 1.103.309 1.182.849l.289 1.975 11.631 4.13c.772.27 1.222.968 1.129 1.733zm-1.377-1.114l-11.653-4.135-10.042 6.921c-.492.337-.497.843-.357 1.175s.523.686 1.124.613l20.701-2.661c.6-.073.864-.518.905-.872s-.109-.838-.678-1.041z" class="C K"/><path d="M198.73 185.49c.398 4.04 1.123 8.046 2.174 11.984l.844 3.174-15.033 1.93-15.032 1.929-.088-3.268c-.114-4.057-.56-8.103-1.325-12.098l-3.324-17.246c7.397-6.206 6.615-10.792 2.951-18.934l2.78-1.958 1.412 3.269c.896 2.071 3.163 3.303 5.519 2.999l.512-.062.518-.067c2.35-.304 4.188-2.066 4.456-4.282l.431-3.505 3.235 1.187c-1.207 8.766-.653 13.38 8.251 17.493l1.719 17.455z" fill="#cc6164"/><path d="M163.08 166.61c4.892-.664 10.431-.641 14.919-.433-.244 1.109-.605 2.195-1.159 3.196-.844 1.542-2.154 2.898-3.821 3.635-2.448 1.086-5.559.675-7.594-1.002-1.61-1.327-2.468-3.386-2.345-5.396z" fill="#eca85e"/><path d="M161.46 166.89l.851-.163.775-.113c-.123 2.01.735 4.069 2.345 5.396 2.035 1.677 5.146 2.088 7.594 1.002 1.667-.737 2.977-2.093 3.821-3.635.554-1.001.915-2.087 1.159-3.196l1.475.079c-.289 1.232-.714 2.436-1.329 3.556-1.026 1.868-2.611 3.511-4.634 4.406-2.961 1.316-6.73.816-9.193-1.21-1.838-1.52-2.874-3.826-2.864-6.122z" class="D"/><path d="M187.14 190.17c0 2.048.272 4.018.817 5.908l-36.494.006.388-5.948c-2.847-.833-5.42-2.47-7.299-4.647 3.753-5.605 8.153-11.378 10.798-14.759 1.501-1.919 3.665-3.27 6.108-3.838-.01 2.296 1.026 4.602 2.864 6.122 2.463 2.026 6.232 2.526 9.193 1.21 2.023-.895 3.608-2.538 4.634-4.406.615-1.12 1.04-2.324 1.329-3.556l2.687.18c3.256.253 6.212 1.874 8.045 4.418 3.071 4.264 5.606 9.216 7.605 14.854-4.547 2.897-7.248 3.578-10.675 4.456z" fill="#f4d071"/><path d="M155.88 172.5c-1.404 2.559-3.821 11.422-4.033 17.634-.466-.135-.921-.297-1.372-.472.839-.642 1.461-1.728.415-3.461-2.024-3.359 1.014-8.873 4.99-13.701zm28.02 18.25c1.143-.044 2.224-.238 3.242-.579 0 2.048.272 4.018.817 5.908h-2.95c-.31-1.294-.621-2.982-.565-4.372-.624.142-1.319.14-2.086-.005-2.852-13.837-2.106-23.503 3.5-23.352-5.451 2.854-3.199 11.716-1.958 22.4z" fill="#eca85e"/><path d="M222.74 175.9c-1.707 1.407-4.321 1.744-6.377.834-1.402-.625-2.5-1.768-3.209-3.062-.459-.844-.767-1.755-.968-2.689 3.774-.169 8.421-.18 12.533.382.103 1.689-.622 3.421-1.979 4.535z" class="O"/><path d="M223.68 176.74c-2.071 1.699-5.239 2.115-7.723 1.007-1.699-.753-3.029-2.132-3.888-3.708-.518-.939-.875-1.953-1.119-2.993l1.243-.062c.201.934.509 1.845.968 2.689.709 1.294 1.807 2.437 3.209 3.062 2.056.91 4.67.573 6.377-.834 1.357-1.114 2.082-2.846 1.979-4.535l.657.097.709.14c.006 1.924-.865 3.866-2.412 5.137z" fill="#e8916a"/><path d="M195.53 187.37c1.681-4.738 3.813-8.895 6.398-12.474 1.543-2.132 4.032-3.494 6.766-3.702l2.256-.152c.244 1.04.601 2.054 1.119 2.993.859 1.576 2.189 2.955 3.888 3.708 2.484 1.108 5.652.692 7.723-1.007 1.547-1.271 2.418-3.213 2.412-5.137 2.05.478 3.873 1.614 5.13 3.23 2.216 2.841 5.911 7.697 9.059 12.412-1.578 1.829-3.747 3.202-6.14 3.894l.322 4.996-30.667-.045c.463-1.587.695-3.241.695-4.963-2.879-.736-5.146-1.317-8.961-3.753z" fill="#cc6164"/><path d="M234.95 187.83c-.878 1.458-.36 2.369.343 2.91l-1.155.394c-.17-5.222-2.194-12.666-3.369-14.815 3.333 4.056 5.88 8.693 4.181 11.511zm-29.36-15.04c4.706-.119 5.327 8.001 2.914 19.626-.642.124-1.226.124-1.749 0 .046 1.17-.218 2.588-.481 3.674l-2.481-.006c.463-1.587.695-3.241.695-4.963.855.289 1.763.455 2.722.495 1.056-8.98 2.955-16.424-1.62-18.826z" class="O"/><path d="M216.06 196.12l22.46.016-.031 61.456-22.46-.017.031-61.455z" class="I"/><path d="M140.58 196.09l75.552.039-.021 61.455-75.557-.039.026-61.455z" class="J"/><path d="M140.47 251.56l44.804.028c8.086.006 14.639-6.15 14.644-13.751l.011-16.183c0-4.85-4.177-8.789-9.339-8.789l-50.098-.034.01-16.761 75.552.05 22.46.016-.009 16.172-7.056-.005c-5.16 0-9.344 3.927-9.348 8.783l-.006 16.25c-.005 7.601 6.543 13.768 14.624 13.774h1.764v6.482l-22.46-.017-75.553-.051v-5.964z" opacity=".3" class="B"/><path d="M207.33 209.75l-75.552-.051 8.723-13.627 75.552.05-8.723 13.628z" fill="#ef9c81"/><path d="M247.02 209.78l-22.46-.016-8.506-13.64 22.46.016 8.506 13.64z" class="J"/><path d="M168.51 193.72c1.994.006 3.874.878 5.084 2.369h-2.722c-4.752 4.417-7.362 10.657-7.077 16.931.269 5.97 2.744 12.013 1.585 17.887-2.894-1.198-6.18-.973-9.339-.996-3.158-.017-6.75-.264-9.029-2.324 2.051-3.381 2.554-7.405 2.522-11.298s-.543-7.781-.347-11.664c.124-2.538.59-5.12 1.62-7.444.942-2.122 3.189-3.467 5.633-3.467l12.07.006z" class="D"/><path d="M154.21 222.22c-1.186 0-2.734-.225-3.893-1.192-.062-.051-.068-.147-.011-.203s.156-.068.219-.011c1.174.979 2.794 1.147 3.949 1.114.941-.028 1.894-.186 2.811-.332l1.464-.219c1.823-.237 3.204-.124 4.353.348.079.035.115.119.079.191-.032.079-.124.113-.202.079-1.092-.449-2.423-.557-4.188-.331l-1.45.22-2.863.336h-.268zm.36-7.93c-.067-1.931-.409-3.956-.734-6.016-.317-2.053-.518-4.202-.068-6.177.228-.979.59-1.896 1.098-2.684.254-.394.538-.754.844-1.075.311-.321.641-.59.983-.827-1.226 1.103-2.05 2.807-2.339 4.687-.301 1.885-.047 3.933.268 5.97.322 2.042.61 4.141.544 6.122-.056 1.975-.476 3.831-1.222 5.26.497-1.518.699-3.335.626-5.26zm3.81-5.62c-.29-1.535-.705-3.106-.689-4.635.006-.766.125-1.503.352-2.168.234-.668.586-1.254 1.014-1.71-.703 1.024-1.002 2.421-.91 3.866.078 1.457.527 2.977.829 4.547s.46 3.168.48 4.664c.026 1.496-.088 2.898-.274 4.097-.015-2.42-.196-5.572-.802-8.661z" fill="#f6dcc5"/><path d="M223.09 194.54l3.241.005c.673 0 1.315.249 1.802.681 1.771 1.604 3.006 3.72 3.473 5.987l.533 3.185c.26 1.047.756 2.087 1.666 2.74 1.089.788 2.568.877 3.935.748s2.723-.444 4.09-.349c1.796.13 3.721 1.16 3.535 3.191-.057.641-.332 1.249-.745 1.761-1.222 1.513-3.246 2.065-5.026 2.752l-4.51 1.486c-1.397.393-2.845.725-4.306.658-1.341-.062-2.703-.496-3.64-1.396-1.003-.962-1.417-2.346-1.506-3.691s.11-2.69.155-4.035c.14-4.478-.999-9.886-5.12-12.136.379-.957 1.342-1.587 2.423-1.587z" class="C"/><path d="M224.85 201.44c-.176-.495-.373-.973-.601-1.434.513-.896 1.31-1.654 2.273-2.116 1.072-.517 2.324-.664 3.505-.45.393.601.729 1.243 1.003 1.902-1.34-.406-2.852-.304-4.104.298-.85.411-1.564 1.041-2.076 1.8zm.82 3.78c-.068-.648-.171-1.289-.306-1.924.518-.821 1.275-1.514 2.179-1.953 1.227-.585 2.698-.697 4.018-.326.01.067.025.129.041.191l.244 1.536c-1.29-.332-2.708-.219-3.898.355-.969.467-1.761 1.221-2.278 2.121z" class="D"/><path d="m185.11 250.3-32.81-2.385 1.206-14.725 32.81 2.386-1.206 14.724z" class="N"/><g class="C"><path d="M164.43 241.71l-.341.491c-.146.195-.296.346-.451.455l-1.041.799c-.413.315-.779.531-1.097.648l-.367.259c-.132.089-.259.131-.384.123-.061-.004-.132-.018-.212-.045l-.259-.096c-.093-.033-.157-.084-.191-.152.003-.311.023-.643.062-.996l.232-1.615.235-1.609c.05-.476.072-.915.061-1.317-.007-.007-.111-.099-.31-.275-.121-.101-.176-.193-.167-.276.005-.037.018-.073.042-.107.059-.086.175-.131.352-.135l.398-.011c.846.18 1.707.576 2.584 1.187.232.161.414.329.548.501.434.548.628 1.051.58 1.508-.028.236-.118.457-.274.663zm-.974-1.243c-.043-.468-.546-.908-1.506-1.316l-.48 3.905c1.242-.77 1.903-1.529 1.981-2.279.011-.101.012-.204.005-.31zm8.494 2.253c-.751.985-1.723 1.543-2.914 1.67-.142.015-.283.019-.425.011-.618-.033-1.214-.305-1.791-.815-.389-.346-.557-.775-.502-1.289.063-.57.368-1.169.917-1.795.233-.262.508-.486.822-.669.363-.222.696-.323.999-.304.173.007.332.061.477.163s.534.247 1.175.439c.508.149.855.376 1.04.68.325.533.467.983.425 1.351-.02.209-.095.396-.223.558zm-1.221-.782c-.018-.568-.194-.913-.528-1.036-.052-.02-.099-.031-.146-.034-.127-.007-.298.06-.512.202-.234.166-.415.259-.537.282-.077.018-.183-.01-.317-.084s-.223-.115-.265-.119c-.034-.003-.062.002-.082.017-.407.21-.636.558-.688 1.041-.035.33.043.615.233.855.269.334.507.507.714.518.477.027.96-.16 1.45-.557.465-.379.693-.741.678-1.085z" class="K"/><path d="M179.04 239.42l-.528 2.503-.414 2.487-.036.647c0 .102-.051.186-.15.253-.097.072-.205.103-.322.096-.227-.015-.407-.159-.537-.434-.4-.809-.873-2.072-1.419-3.786-.011-.037-.027-.059-.052-.061-.048-.005-.085.037-.109.123-.207.886-.353 1.821-.439 2.807l-.089 1.458c-.01.18-.084.3-.222.36-.055.041-.111.06-.171.057-.052-.005-.116-.026-.191-.068l-.202-.101c-.093-.03-.145-.109-.154-.237l.003-.309.068-1.098c.058-.66.177-1.484.352-2.475l.461-2.492c.02-.14.161-.199.424-.181.128-.004.304.086.528.27.204.398.439 1.036.704 1.914.255.84.501 1.481.735 1.924l.86-3.736c.03-.124.143-.178.336-.163.065.004.141.018.228.045l.202.056c.072.03.117.076.134.141z"/></g><path d="M214.8 196.95c2.335 9.977-6.244 23.695-4.705 56.352l-10.742-.011c-1.235-20.89-.777-36.069 1.377-45.538-3.479 5.565-8.996 25.327-9.007 45.538l-10.585-.012c-1.236-23.523 1.98-42.304 9.648-56.346l24.014.017z" fill="#984058"/><path d="M194.71 204.75l6.02 3.004c-1.853 2.966-4.286 9.954-6.155 18.895-.01-1.413.005-3.116.093-4.946.234-4.833 1.771-9.537 4.473-13.656-1.537 0-2.95-.782-3.696-2.048l-.735-1.249z" class="B"/><path d="M208.7 252.22c-.081 0-.149-.062-.154-.135-1.398-16.368 1.18-30.327 3.059-40.518 1.062-5.756 1.9-10.308 1.76-13.622-.005-.079.061-.147.149-.152.089.005.156.061.162.14.14 3.348-.699 7.906-1.766 13.684-1.879 10.174-4.446 24.117-3.054 40.446.005.079-.057.146-.145.157h-.011zm3.62-46.83c-.042 0-.078-.017-.11-.044-.92-.856-1.578-2.088-1.9-3.568-.284-1.311-.289-2.668-.295-3.978 0-.079.074-.147.157-.147h.004c.083 0 .156.068.156.147.005 1.294.005 2.633.285 3.922.305 1.418.931 2.599 1.811 3.415.063.057.063.152.005.209-.031.027-.072.044-.113.044zm-12.28 1.46l-.187-.108c-.527-.298-.885-.894-.962-1.592-.068-.619.066-1.216.196-1.8l1.02-4.558c.021-.079.104-.129.186-.113s.14.09.12.174l-1.02 4.558c-.125.557-.253 1.138-.192 1.705.057.523.29.979.63 1.255l1.844-7.579c.021-.079.104-.129.187-.113s.14.096.118.174l-1.94 7.997zm-10.03 45.36c-.089 0-.155-.062-.155-.147.009-17.319 2.437-31.921 7.2-43.387.031-.074.123-.113.201-.085.084.028.119.118.089.191-4.753 11.434-7.17 25.995-7.18 43.281 0 .085-.072.147-.155.147z" fill="#b55975"/><path d="M215.37 190.67c.864 1.508.916 3.32.139 4.873l-.709 1.407-24.014-.017-.508-.753c-.951-1.425-1.107-3.191-.419-4.738.326-.737.467-1.531.414-2.324l-1.496-21.928 8.046.006c1.924 2.408 3.929 2.408 6.013 0l7.807.006 2.299 1.98 1.76 19.384c.067.737.295 1.452.668 2.104z" class="P"/><path d="M203.4 196.94l-12.61-.012-.508-.753c-.951-1.425-1.107-3.191-.419-4.738.326-.737.467-1.531.414-2.324l-.035-.552 9.581-2.773 5.808-12.953 7.9 2.785-3.049 14.438c-.564 2.656-2.449 4.896-5.069 6.015l-2.013.867z" fill="#5fa5cc"/><path d="M203.4 196.94l-4.638 1.986-1.558 2.453-9.281 1.744c.848-2.161 1.801-4.237 2.867-6.195l12.61.012z" class="B"/><path d="M208.66 259.52l-15.111-.005c.462-.861 1.264-1.53 2.258-1.857l1.465-.468c.772-.253 1.44-.714 1.921-1.333l1.988-2.56h5.683c1.049 1.523 1.648 3.598 1.796 6.223z" class="C"/><path d="M208.69 260.73h-3.971l.006-1.21h3.938l.027 1.21zm-3.91-1.27l-3.613 1.204-7.951-.005c.056-.428.197-.833.393-1.204l11.171.005z" class="B"/><path d="M189.82 259.5l-15.109-.011c.459-.855 1.258-1.531 2.257-1.851l1.464-.473c.766-.247 1.439-.709 1.916-1.328l1.993-2.566 5.684.005c1.049 1.524 1.647 3.598 1.795 6.224z" class="C"/><g class="B"><path d="M189.84 260.66l-3.971-.005v-1.204h3.944l.027 1.209z"/><path d="M185.92 259.45l-3.613 1.204-7.947-.006c.058-.428.197-.834.394-1.211l11.166.013z"/></g><path d="M189.52 174.85l-6.145-.006 2.22-5.458c.54-1.327 1.896-2.2 3.402-2.2l.523 7.664z" class="P"/><path d="M187.15 174.84l1.806-5.024.347 5.03-2.153-.006z" fill="#5fa5cc"/><path d="m196.83 167.19v-2.442l4.761-3.64 1.252 6.082c-2.084 2.408-4.089 2.408-6.013 0z" class="L"/><path d="M201.59 161.11c-.238 2.813-2.391 5.423-4.761 5.029v-1.389l4.761-3.64z" class="G"/><path d="M196.84 150.24c3.52.006 6.289 2.841 5.99 6.143l-.233 2.567c-.151 1.621-.844 3.156-1.983 4.383l-.481.518c-.787.849-1.9 1.373-3.095 1.463-1.404.095-2.775-.417-3.723-1.39-1.149-1.187-1.874-2.684-2.07-4.276l-.384-3.095c-.419-3.359 2.376-6.313 5.979-6.313z" class="L"/><path d="M201.99 160.53c-.3-.794-.455-1.626-.455-2.465v-.877c-1.311-.895-2.106-2.308-2.169-3.827l-.011-.275c-2.008 1.936-5.14 3.095-8.014 2.914-1.438-.09-3.043-.596-3.322-2.149-.077-.422-.026-.861.113-1.272.379-1.103 1.274-1.896 2.179-2.622 1.409-1.125 2.956-2.172 4.748-2.577 1.796-.399 3.892-.029 5.063 1.317 1.055-.776 2.784-.596 3.872.141 1.081.737 1.693 1.981 1.873 3.224.181 1.249-.02 2.52-.279 3.753-.217 1.013-.475 2.036-.999 2.942s-1.497 1.773-2.599 1.773z" class="Q"/><path d="M203.09 158.06c.409-.371 1.068-.552 1.549-.281.403.231.58.698.605 1.136.063.985-.497 1.975-1.397 2.481-.435.242-1.021.36-1.434.085-.311-.208-.441-.591-.425-.951.025-.433.212-.9.372-1.306.161-.421.384-.849.73-1.164z" class="L"/><path d="M203.95 158.89c-.217.022-.46.27-.46.479.295-.023.544.264.548.539.005.282-.166.541-.378.738-.144.146-.368.276-.559.186-.181-.091-.202-.321-.186-.507.031-.399.134-.788.306-1.154.06-.135.138-.276.253-.383s.269-.179.429-.174c.17.011.321.108.425.237.103.123.171.276.233.421-.056-.202-.393-.41-.611-.382z" class="G"/><path d="M199.23 157.37h-3.375c.083-.371.466-.669.843-.788s.798-.084 1.18.023c.477.13.994.445 1.352.765z" class="Q"/><path d="M197.07 159.47c-.217 0-.387-.163-.387-.365v-.401c0-.201.17-.364.387-.364s.388.163.388.364v.401c0 .202-.176.365-.388.365z" class="B"/><path d="M192.1 156.6c.239-.106.497-.141.73-.017s.471.417.523.788l-2.087-.006c.218-.32.539-.635.834-.765z" class="Q"/><path d="M192.24 159.22v-.629c0-.141.124-.253.268-.253.151 0 .27.112.27.253v.629c0 .135-.119.254-.27.254-.144 0-.268-.119-.268-.254z" class="B"/><path d="M194.49 161.21c-.245.09-.513.147-.783.129-.382-.022-.709-.23-.869-.479l2.464.007c-.218.118-.569.252-.812.343z" class="G"/><path d="M193.48 162.69l4.349-.068c-.498.635-1.326 1.097-2.17 1.113s-1.657-.427-2.179-1.045z" class="D"/><path d="M154.77 174.83l19.723.01-.017 25.478-19.721-.011.015-25.477z" class="J"/><path d="M174.49 174.84l22.187.012-.016 25.479-22.188-.013.017-25.478z" class="I"/><path d="m172.23 187.27-15.198 2.003-1.02-6.82 15.198-2.008 1.02 6.825z" class="N"/><g class="C"><path d="M162.23 185.63l-.088.253c-.037.098-.085.177-.14.236l-.362.44c-.142.175-.275.302-.403.376l-.13.147c-.049.048-.099.076-.156.084-.028.004-.06.002-.098-.005l-.129-.023c-.049-.011-.085-.03-.108-.056-.042-.143-.079-.296-.11-.462l-.119-.754-.114-.749-.155-.606c-.004-.004-.062-.038-.175-.102-.07-.038-.108-.075-.116-.113-.002-.018 0-.037.007-.056.012-.041.059-.07.14-.084.058-.015.118-.026.18-.034.404.019.846.137 1.325.354.125.057.228.118.311.186.272.221.43.437.471.648.021.108.01.215-.031.32zm-.612-.495c-.082-.21-.369-.374-.858-.49l.321 1.817c.452-.442.644-.838.579-1.186-.01-.045-.023-.093-.042-.141zm3.642.135c-.17.461-.471.756-.901.883-.052.019-.104.031-.156.033-.238.027-.493-.048-.766-.224-.187-.116-.299-.283-.337-.501-.045-.243-.001-.514.13-.81.059-.125.136-.235.233-.332.11-.116.222-.181.336-.192.07-.008.135.005.197.034s.23.07.492.107c.21.03.367.103.471.22.183.202.288.381.315.535.018.089.013.171-.014.247zm-.555-.247c-.068-.238-.173-.37-.316-.4-.02-.005-.039-.006-.056-.006-.049.007-.105.047-.17.118-.07.086-.125.139-.167.158-.027.011-.07.006-.13-.017s-.095-.033-.113-.033-.024.007-.031.01c-.125.117-.169.278-.134.484.024.14.086.251.186.337.141.124.252.18.33.169.18-.018.339-.126.478-.326.129-.187.171-.352.123-.494z" class="K"/><path d="M168.04 183.14l.051 1.176.094 1.159.052.298c.01.046 0 .087-.03.125s-.077.064-.125.073c-.093.01-.182-.04-.263-.152-.253-.334-.581-.865-.985-1.593-.006-.014-.015-.023-.025-.023-.021.004-.032.027-.032.068.007.417.044.852.114 1.306l.118.663c.015.083-.003.145-.05.186-.018.022-.041.036-.068.039-.02.005-.048-.001-.082-.017l-.094-.028c-.042-.003-.069-.033-.088-.09l-.032-.141-.087-.506c-.048-.303-.089-.686-.119-1.147l-.078-1.171c-.002-.064.049-.101.156-.112.05-.015.135.009.248.072.124.166.287.434.486.805.197.361.366.631.508.811l-.046-1.761c.004-.061.045-.094.124-.102.028-.003.059-.003.098 0l.088.006c.031.008.052.027.067.056z"/></g><path d="M178.66 174.84l-.004 15.294c-.007 2.65 2.282 4.8 5.098 4.805l12.911.006-.006 5.386-22.188-.013.017-25.478h4.172z" opacity=".3" class="B"/><path d="M210.6 167.14c2.805 0 4.809 2.555 3.98 5.075l-5.512 16.813c-.746 2.262-2.428 4.146-4.67 5.227l-8.955 4.316c-.907.433-1.941.557-2.931.349l-2.671-.557-.729.876-2.485-5.321h1.289c.315-1.638 1.662-2.926 3.396-3.264 2.065-.405 4.037-1.159 5.814-2.234l3.618-2.183 5.906-16.436c.569-1.592 2.163-2.667 3.95-2.661z" class="P"/><path d="M188.76 198.44l-2.258.856-3.141 2.836c-.741.67-1.833.849-2.77.467l-2.459-1.012-.822.382c-.43.203-.949.09-1.237-.264-.374-.451-.239-1.109.288-1.391l3.635-1.975c.513-.281.848-.781.896-1.344.052-.619-.265-1.221-.824-1.558l-1.419-.862c-.361-.219-.5-.658-.33-1.034.197-.429.73-.614 1.179-.423l2.646 1.148 2.842 1.355 2.134-.686 1.64 3.505z" class="L"/><path d="M187.12 194.94l1.64 3.505-1.253.479-.746-3.865.359-.119z" class="G"/><path d="M117.82 197.57l3.753 24.662c.193 1.271.285 2.56.271 3.842l-.306 25.417-7.237-.005-1.511-10.016c-.85-5.622-.544-11.344.901-16.859l-6.322-14.28-2.474 15.231c-1.719 10.492-2.579 19.129-2.583 25.912l-7.014-.006-.736-10.978c-.336-4.946.218-9.908 1.627-14.685l.377-1.277c-1.786-11.131-4.038-21.748-.999-27.746l22.253.788z" class="C"/><path d="M107.42 210.39l.969-5.924c1.914 0 3.599-.732 5.052-2.195-.311 2.487-2.49 4.294-4.463 4.535l.021.056c.947 2.342 1.532 4.806 1.735 7.304l.367 4.541-3.681-8.317z" class="B"/><g fill="#797c99"><path d="M99.016 224.57l.004.028-.388 1.311c-1.407 4.766-1.951 9.695-1.621 14.635l.58 8.637c.006.079-.056.152-.144.152-.004.004-.007.006-.012.006-.077 0-.149-.063-.155-.141l-.579-8.637c-.331-4.974.217-9.931 1.636-14.731l.367-1.249-.589-3.573c-1.29-7.788-2.506-15.142-1.565-20.515.011-.085.094-.141.177-.123.088.011.144.09.129.168-.932 5.334.28 12.66 1.569 20.425l.591 3.607zm17.384 24.61c.01.079-.047.152-.135.164-.007.003-.014.005-.021.005-.077 0-.144-.056-.155-.129l-1.154-7.67c-.854-5.65-.554-11.327.89-16.863l-3.944-8.924c-.037-.073.005-.157.082-.191s.172.005.202.079l3.986 9.013-.01.046c-1.444 5.52-1.745 11.168-.901 16.796l1.16 7.674z"/><path d="M101.13 200.93c-.451 1.974-2.154 3.618-4.239 4.101h-.042c-.067 0-.13-.045-.151-.107-.021-.079.032-.163.115-.18 1.971-.45 3.587-2.015 4.011-3.877.017-.079.099-.13.187-.112s.134.09.119.175zm8.57 3.01c-.036 0-.072-.012-.098-.034-.052-.04-.072-.108-.052-.164.364-.939.487-1.963.357-2.959-.01-.079.052-.152.135-.164.089-.011.166.045.175.13.116.889.038 1.806-.226 2.673.828-.642 1.31-1.666 1.232-2.673-.006-.079.057-.152.144-.157s.161.056.166.135c.098 1.26-.605 2.537-1.755 3.189-.024.017-.05.024-.078.024z"/></g><path d="M94.785 199.03c.217-.782.488-1.519.829-2.188l22.254.788.186 1.203c-7.516 2.189-15.711 2.256-23.269.197z" class="B"/><path d="M121.95 257.66l-7.005-.006.802-2.892-.113-3.218h4.524l.208 3.15 2.712 1.469c-.482.422-.875.939-1.128 1.497z" class="F"/><path d="M114.12 260.62l.828-2.965 7.005.006c.253-.558.646-1.075 1.128-1.497l.398.219c.534.287 1.113.485 1.723.585h.006c2.039.338 3.686 1.773 4.188 3.664l-15.276-.012z" class="H"/><path d="M115.63 251.54h4.524l.077 1.119-4.566-.006-.035-1.113z" class="E"/><path d="M103.06 257.65l-7.009-.005.808-2.892-.118-3.219h4.528l.207 3.151 2.714 1.469c-.487.422-.881.94-1.13 1.496z" class="F"/><path d="M95.174 260.61l.823-2.965 7.009.005c.249-.556.642-1.074 1.128-1.496l.394.214c.533.292 1.118.488 1.723.591h.006c2.045.331 3.685 1.766 4.193 3.662l-15.276-.011z" class="H"/><path d="M96.738 251.53h4.528l.073 1.12-4.56-.005-.041-1.115z" class="E"/><path d="M115.36 168.1c.294 1.828.589 3.742-.047 5.491-.668 1.829-2.304 3.247-4.172 4.051s-3.96 1.047-6.016 1.064c-1.785.017-3.603-.129-5.269-.732s-3.19-1.698-3.977-3.207c-1.267-2.42-.455-5.351.887-7.73s3.26-4.795 4.224-7.326c-1.548-2.06-1.88-4.868-.854-7.191 1.025-2.331 3.379-4.085 6.019-4.508 2.641-.416 5.477.523 7.259 2.403 1.687-.084 3.379 1.08 4.238 2.448.861 1.361.952 3.094.389 4.59s-1.739 2.752-3.163 3.602c.357 2.155.129 4.895.482 7.045z" class="R"/><path d="M120.84 176.6l2.805 8.142 14.304-3.471c1.28-2.195 3.2-3.605 5.761-4.233.29.71.027 1.515-.637 1.942-.435.287-.894.625-1.18.951 2.386.664 4.783.484 6 .315.436-.056.823.259.823.675 0 .242-.139.467-.367.59l-.529.283c-.035.956-.248 1.867-.45 2.543-.207.703-.864 1.215-1.641 1.243-2.471.106-4.719-.219-6.745-.974l-14.54 5.548c-2.226.85-4.768-.157-5.679-2.256l-1.993-4.608-1.331-5.435 3.866-.833 1.533-.422z" class="G"/><path d="M141.3 182.58c-.542.501-1.52.614-2.24.378.709-.063 1.392-.355 1.9-.821s.838-1.104.922-1.767c.237.68-.038 1.71-.582 2.21zm-20.88-5.86l.87 2.532c.424 1.232.056 2.577-.938 3.466-1.066.957-1.754 2.217-1.956 3.585l-.083.545-1.537-3.556-1.331-5.435 4.975-1.137zm3.22 8.02l-3.032 2.104c.378-2.014 1.347-2.842 2.904-2.481l.128.377z" class="E"/><path d="M116.05 168.1c1.552.54 2.77 1.705 3.307 3.173l1.906 5.194-2.008.557-1.751-3.646-1.454-5.278z" class="H"/><path d="M118.04 172.27c.161.569.399 1.12.705 1.638l1.672 2.807-1.109.304-1.749-3.646-.783-2.836c.622.421 1.073 1.035 1.264 1.733z" fill="#ce5172"/><path d="M101.42 168.91c1.659-.672 3.244-1.218 4.751-1.638h5.918c1.4 0 2.74.277 4.016.828l1.455 5.278 2.542 5.306c.715 1.485.181 3.241-1.268 4.147-.818.506-1.373 1.317-1.532 2.223-.585 3.285-.388 6.655.574 9.863l1.019 3.404c-9.863 1.654-18.011 1.478-24.448-.528l2.521-5.11c1.538-3.129 2.304-6.544 2.221-9.993-.073-3.286-.207-7.191-.425-8.835-.272-2.051.613-3.699 2.656-4.945z" class="H"/><path d="M100.45 182.44l-1.688-8.588 8.023-2.694 4.205 7.584-.497.659 3.679 9.2 2.806-.288c-.052 2.223.249 4.446.896 6.601l-3.261 1.89c-3.09 1.795-7.154.507-8.454-2.678l-4.772-11.686h-.937z" fill="#ce5172"/><path d="M98.761 173.85c-.662-2.047.508-4.225 2.656-4.945 2.137-.714 4.498.276 5.367 2.251l3.025 6.876-8.656 3.212-2.392-7.394z" class="H"/><path d="M109.12 178.29l4.67 11.169 14.918-3.039c.988-1.92 2.458-3.173 4.411-3.758.455.562.429 1.356-.073 1.885-.428.447-.75.917-.966 1.413 2.22.539 4.762.534 6.013.483.442-.017.814.299.844.709.026.36-.217.704-.596.789-1.08.25-2.388.314-3.928.19 1.066.366 2.516.478 3.489.512.606.017 1.082.479 1.077 1.046v.856c0 .512-.393.945-.926 1.035-3.135.533-6.154-.09-9.06-1.867l-14.303 5.936c-2.375.984-5.151-.04-6.174-2.279l-5.831-12.688 6.435-2.392z" class="F"/><path d="M109.33 178.8l-5.839 3.647-.809-1.761 6.435-2.392.213.506zm4.46 10.66l-3.511 2.464c.385-2.149 1.499-3.103 3.346-2.863l.165.399z" class="E"/><path d="M112.09 165.17v2.098c-.938 1.638-3.976 2.757-5.918 0v-5.125l5.918 3.027z" class="F"/><path d="M106.17 162.15l5.918 3.027v1.418c-2.103.659-3.686-.614-5.918-3.725v-.72z" class="E"/><path d="M116.42 159.92c.046 1.199-.213 2.397-.751 3.489-.704 1.418-2.184 2.363-3.851 2.448-.958.044-1.911-.196-2.718-.693l-2.039-1.26c-.937-.585-1.589-1.485-1.823-2.509.176-.219.332-.451.456-.698.368-.737.482-1.586.315-2.392 3.381-.585 6.451-3.038 7.749-6.036 1.058.843 1.859 1.918 2.455 3.094.027.184.045.369.052.557l.155 4z" class="F"/><path d="M109.4 156.85c.383-.107.802-.141 1.186-.022.378.123.76.421.843.793l-3.38-.005c.357-.327.875-.637 1.351-.766z" class="R"/><path d="M109.82 159.35v-.404c0-.203.176-.366.387-.366.218 0 .388.163.388.366v.404c0 .203-.17.368-.388.368-.211 0-.387-.165-.387-.368z" class="B"/><path d="M116.01 157.62h-2.086c.053-.372.291-.67.524-.787s.496-.085.73.016c.295.135.615.444.832.771z" class="R"/><path d="M114.77 159.72c-.147 0-.271-.114-.271-.254v-.625c0-.141.124-.253.275-.253.144 0 .269.112.269.253l-.005.625c0 .14-.12.254-.268.254z" class="B"/><path d="M111.98 161.12h2.469c-.165.248-.487.456-.869.478-.275.012-.543-.045-.787-.13s-.596-.229-.813-.348z" class="E"/><path d="M111.62 163.98c-.845-.011-1.672-.472-2.169-1.114l4.353.074c-.523.618-1.34 1.057-2.184 1.04z" class="D"/><path d="M105.56 161.82c-.036.32-.191.641-.476.821-.295.181-.683.175-1.025.096-.999-.231-1.791-1.114-1.859-2.082-.026-.361.047-.743.291-1.024.403-.462 1.185-.501 1.739-.214.844.434 1.439 1.513 1.33 2.403z" class="F"/><path d="M102.91 160.14c.14-.124.347-.181.538-.168.197.005.384.078.554.173.528.299.874.867.884 1.446.006.237-.072.501-.294.608-.15.073-.337.051-.487-.028-.145-.084-.254-.214-.336-.348-.124-.209-.196-.457-.119-.682s.347-.393.585-.314c-.088-.227-.27-.423-.481-.553s-.591-.146-.844-.134z" class="E"/></svg>