<?xml version="1.0" encoding="utf-8"?>
<svg viewBox="46.739 0.861 282.261 343.139" xmlns="http://www.w3.org/2000/svg">
  <defs>
    <linearGradient gradientUnits="userSpaceOnUse" x1="253.434" y1="-203.83" x2="253.434" y2="348.946" id="gradient-3">
      <stop offset="0" style="stop-color: rgba(153, 106, 246, 1)"/>
      <stop offset="1" style="stop-color: rgba(88, 14, 236, 1)"/>
    </linearGradient>
    <linearGradient gradientUnits="userSpaceOnUse" x1="190.805" y1="-96.498" x2="190.805" y2="359.173" id="gradient-2">
      <stop offset="0" style="stop-color: rgba(153, 106, 246, 1)"/>
      <stop offset="1" style="stop-color: rgba(88, 14, 236, 1)"/>
    </linearGradient>
    <linearGradient gradientUnits="userSpaceOnUse" x1="151.775" y1="-34.836" x2="151.775" y2="309.19" id="gradient-1">
      <stop offset="0" style="stop-color: rgba(153, 106, 246, 1)"/>
      <stop offset="1" style="stop-color: rgba(88, 14, 236, 1)"/>
    </linearGradient>
    <linearGradient gradientUnits="userSpaceOnUse" x1="151.775" y1="-34.836" x2="151.775" y2="309.19" id="gradient-0">
      <stop offset="0" style="stop-color: rgba(187, 218, 85, 1)"/>
      <stop offset="1" style="stop-color: rgba(135, 165, 36, 1)"/>
    </linearGradient>
  </defs>
  <path id="path-4" style="stroke: none; stroke-linecap: butt; stroke-linejoin: miter; stroke-opacity: 1; stroke-width: 0px; fill-opacity: 0.35; fill: url(#gradient-3); pointer-events: none;" d="M 638.908 -203.83 C 614.885 -203.714 589.437 -200.719 566.834 -197.105 C 498.854 -186.226 419.816 -155.023 365.358 -105.171 C 302.827 -47.941 321.837 43.22 257.958 99.318 C 183.379 164.819 66.285 151.881 -14.952 210.398 C -66.034 247.188 -119.934 303.202 -132.673 348.946 L 437.44 348.946 L 639.542 -203.83 L 638.908 -203.83 Z" transform="matrix(-0.913519, 0.406795, -0.406795, -0.913519, 514.468018, 35.745216)"/>
  <path id="path-3" style="stroke: none; stroke-linecap: butt; stroke-linejoin: miter; stroke-opacity: 1; stroke-width: 0px; fill-opacity: 0.7; fill: url(#gradient-2); pointer-events: none;" d="M 396.32 -96.498 C 380.886 -96.403 364.979 -93.935 350.996 -90.953 C 308.943 -81.987 262.896 -56.264 235.521 -15.172 C 204.085 32.005 230.298 107.154 197.822 153.396 C 159.906 207.391 82.608 196.727 39.338 244.963 C 12.13 275.293 -13.941 321.467 -15.117 359.173 L 351.562 359.173 L 396.727 -96.498 L 396.32 -96.498 Z" transform="matrix(-0.993453, 0.114244, -0.114244, -0.993453, 395.365265, 240.0168)"/>
  <path id="path-1" style="fill-opacity: 1; stroke-linecap: butt; stroke-linejoin: miter; stroke-opacity: 1; stroke: url(#gradient-0); paint-order: stroke markers; fill: url(#gradient-1); stroke-width: 0px; pointer-events: none;" d="M 349.783 -34.836 C 336.519 -34.765 322.625 -32.9 310.335 -30.65 C 273.373 -23.881 231.399 -4.46 204.009 26.565 C 172.558 62.183 187.975 118.918 155.718 153.831 C 118.058 194.596 52.681 186.545 10.967 222.962 C -15.263 245.861 -42.013 280.722 -46.583 309.19 L 268.321 309.19 L 350.133 -34.836 L 349.783 -34.836 Z" transform="matrix(-0.971125, 0.238573, -0.238573, -0.971125, 331.894165, 234.183517)"/>
  <path class="s0" d="M 111.951 222.194 L 136.643 222.211 L 136.623 257.457 L 111.93 257.44 L 111.951 222.194 Z" style="fill: rgb(166, 79, 90);"/>
  <path class="s1" d="M 82.662 222.177 L 111.951 222.194 L 111.93 257.44 L 82.641 257.418 L 82.662 222.177 Z" style="fill: rgb(189, 108, 103);"/>
  <path class="s2" d="M 94.238 222.183 L 99.113 222.189 L 99.108 226.51 L 94.238 226.51 L 94.238 222.183 Z" style="fill: rgb(255, 255, 255); opacity: 0.5;"/>
  <path class="s2" d="M 124.291 222.206 L 127.124 222.206 L 127.119 226.533 L 124.291 226.527 L 124.291 222.206 Z" style="fill: rgb(255, 255, 255); opacity: 0.5;"/>
  <path class="s2" d="M 94.221 253.648 L 99.092 253.648 L 99.092 257.429 L 94.216 257.429 L 94.221 253.648 Z" style="fill: rgb(255, 255, 255); opacity: 0.5;"/>
  <path class="s2" d="M 124.277 253.665 L 127.108 253.665 L 127.102 257.451 L 124.272 257.445 L 124.277 253.665 Z" style="fill: rgb(255, 255, 255); opacity: 0.5;"/>
  <path class="s3" d="M 113.627 222.194 L 113.613 247.92 C 113.608 252.737 117.76 256.647 122.884 256.647 L 136.623 256.658 L 136.623 257.457 L 111.93 257.44 L 111.951 222.194 L 113.627 222.194 Z" style="fill: rgb(66, 44, 79); opacity: 0.2;"/>
  <path class="s1" d="M 134.268 229.661 L 158.96 229.678 L 158.944 257.469 L 134.251 257.451 L 134.268 229.661 Z" style="fill: rgb(189, 108, 103);"/>
  <path class="s4" d="M 104.979 229.639 L 134.268 229.661 L 134.251 257.451 L 104.957 257.434 L 104.979 229.639 Z" style="fill: rgb(223, 141, 109);"/>
  <path class="s2" d="M 116.554 229.65 L 121.429 229.65 L 121.424 233.977 L 116.554 233.971 L 116.554 229.65 Z" style="fill: rgb(255, 255, 255); opacity: 0.5;"/>
  <path class="s2" d="M 146.608 229.667 L 149.44 229.667 L 149.435 233.994 L 146.608 233.994 L 146.608 229.667 Z" style="fill: rgb(255, 255, 255); opacity: 0.5;"/>
  <path class="s2" d="M 116.537 253.659 L 121.414 253.665 L 121.414 257.445 L 116.537 257.44 L 116.537 253.659 Z" style="fill: rgb(255, 255, 255); opacity: 0.5;"/>
  <path class="s2" d="M 146.598 253.681 L 149.425 253.681 L 149.425 257.463 L 146.593 257.463 L 146.598 253.681 Z" style="fill: rgb(255, 255, 255); opacity: 0.5;"/>
  <path class="s3" d="M 135.944 229.661 L 135.934 247.936 C 135.929 252.753 140.08 256.658 145.2 256.664 L 158.944 256.669 L 158.944 257.469 L 134.251 257.451 L 134.268 229.661 L 135.944 229.661 Z" style="fill: rgb(66, 44, 79); opacity: 0.2;"/>
  <path class="s5" d="M 129.981 244.735 L 111.444 246.029 L 110.781 237.713 L 129.319 236.418 L 129.981 244.735 Z" style="fill: rgb(251, 238, 209);"/>
  <path fill-rule="evenodd" class="s6" d="M 119.079 241.488 C 119.038 241.593 118.998 241.697 118.961 241.798 C 118.909 241.918 118.849 242.014 118.784 242.085 C 118.639 242.262 118.494 242.436 118.349 242.608 C 118.173 242.818 118.013 242.967 117.868 243.053 C 117.82 243.109 117.766 243.167 117.707 243.228 C 117.652 243.284 117.594 243.315 117.531 243.323 C 117.5 243.323 117.465 243.318 117.423 243.306 C 117.378 243.299 117.331 243.287 117.283 243.272 C 117.231 243.258 117.193 243.231 117.17 243.193 C 117.138 243.013 117.113 242.82 117.098 242.613 C 117.076 242.404 117.057 242.09 117.039 241.674 C 117.023 241.258 117.005 240.944 116.988 240.735 C 116.964 240.457 116.926 240.201 116.879 239.969 C 116.876 239.966 116.816 239.92 116.697 239.834 C 116.626 239.782 116.588 239.733 116.584 239.688 C 116.581 239.665 116.584 239.642 116.595 239.621 C 116.616 239.568 116.67 239.534 116.755 239.519 C 116.821 239.507 116.886 239.497 116.951 239.486 C 117.393 239.538 117.867 239.713 118.37 240.009 C 118.501 240.088 118.609 240.172 118.696 240.262 C 118.973 240.551 119.123 240.828 119.146 241.094 C 119.157 241.229 119.134 241.361 119.079 241.488 Z M 118.464 240.835 C 118.391 240.57 118.092 240.348 117.567 240.172 C 117.595 240.891 117.654 241.652 117.743 242.451 C 118.281 241.934 118.532 241.454 118.494 241.015 C 118.488 240.956 118.476 240.896 118.464 240.835 Z" style="fill: rgb(69, 79, 107);"/>
  <path fill-rule="evenodd" class="s6" d="M 122.8 241.438 C 122.522 242.053 122.082 242.436 121.481 242.586 C 121.408 242.6 121.335 242.612 121.258 242.62 C 120.939 242.638 120.6 242.518 120.245 242.259 C 120.006 242.083 119.873 241.844 119.845 241.545 C 119.811 241.211 119.9 240.846 120.114 240.447 C 120.209 240.279 120.325 240.133 120.467 240.009 C 120.629 239.858 120.789 239.78 120.949 239.772 C 121.041 239.765 121.129 239.785 121.211 239.834 C 121.298 239.882 121.518 239.943 121.87 240.015 C 122.148 240.07 122.353 240.181 122.481 240.347 C 122.707 240.635 122.832 240.886 122.853 241.1 C 122.862 241.221 122.847 241.332 122.8 241.438 Z M 122.082 241.061 C 122.009 240.735 121.88 240.545 121.693 240.492 C 121.663 240.485 121.636 240.482 121.616 240.482 C 121.546 240.485 121.466 240.535 121.373 240.632 C 121.269 240.742 121.186 240.807 121.123 240.83 C 121.086 240.846 121.029 240.835 120.953 240.802 C 120.874 240.765 120.824 240.746 120.803 240.746 C 120.786 240.749 120.772 240.755 120.762 240.762 C 120.575 240.909 120.496 241.124 120.523 241.409 C 120.54 241.601 120.613 241.76 120.741 241.888 C 120.917 242.064 121.058 242.149 121.166 242.141 C 121.414 242.126 121.644 241.989 121.853 241.731 C 122.05 241.482 122.127 241.26 122.082 241.061 Z" style="fill: rgb(69, 79, 107);"/>
  <path class="s6" d="M 125.799 239.311 C 125.784 239.784 125.773 240.258 125.762 240.735 C 125.741 241.301 125.746 241.772 125.777 242.147 C 125.788 242.27 125.799 242.391 125.814 242.507 C 125.824 242.563 125.807 242.613 125.762 242.659 C 125.721 242.704 125.668 242.73 125.606 242.737 C 125.493 242.745 125.391 242.678 125.301 242.535 C 125.029 242.115 124.679 241.449 124.25 240.538 C 124.24 240.515 124.23 240.503 124.219 240.503 C 124.192 240.508 124.176 240.534 124.172 240.582 C 124.149 241.089 124.16 241.62 124.204 242.175 C 124.225 242.441 124.254 242.711 124.291 242.985 C 124.302 243.086 124.277 243.16 124.214 243.204 C 124.19 243.231 124.162 243.244 124.132 243.244 C 124.105 243.248 124.07 243.24 124.028 243.222 C 123.969 243.199 123.933 243.186 123.919 243.183 C 123.868 243.17 123.835 243.13 123.822 243.058 C 123.811 243.006 123.803 242.95 123.795 242.89 C 123.768 242.694 123.744 242.49 123.728 242.276 C 123.7 241.905 123.686 241.438 123.686 240.875 C 123.689 240.024 123.691 239.551 123.691 239.457 C 123.688 239.382 123.753 239.339 123.889 239.328 C 123.951 239.317 124.047 239.354 124.178 239.44 C 124.316 239.647 124.49 239.985 124.701 240.453 C 124.909 240.899 125.089 241.237 125.245 241.467 C 125.262 240.994 125.293 240.283 125.337 239.333 C 125.344 239.262 125.396 239.222 125.493 239.215 C 125.528 239.215 125.567 239.217 125.612 239.221 C 125.674 239.232 125.71 239.241 125.721 239.243 C 125.758 239.254 125.784 239.277 125.799 239.311 Z" style="fill: rgb(69, 79, 107);"/>
  <path class="s7" d="M 186.711 157.493 L 173.857 159.141 L 172.678 151.005 C 175.778 156.333 182.648 157.218 185.526 149.357 L 186.711 157.493 Z" style="fill: rgb(163, 66, 98);"/>
  <path class="s7" d="M 196.913 167.936 L 197.012 168.037 L 181.979 169.966 L 166.947 171.897 L 167.003 171.774 C 169.54 166.585 170.607 160.874 170.094 155.185 L 169.898 152.963 L 173.386 156.272 L 180.438 159.372 L 186.342 154.611 L 188.761 150.544 L 189.206 152.732 C 190.334 158.343 192.989 163.574 196.913 167.936 Z" style="fill: rgb(163, 66, 98);"/>
  <path fill-rule="evenodd" class="s6" d="M 191.82 153.312 C 191.731 154.077 191.121 154.662 190.309 154.769 L 169.612 157.425 C 168.8 157.532 168.05 157.121 167.739 156.406 C 167.434 155.692 167.671 154.904 168.334 154.449 L 178.362 147.539 L 178.076 145.564 C 178.051 145.384 177.874 145.26 177.683 145.282 C 176.369 145.451 175.152 144.613 174.918 143.397 C 174.914 143.364 174.758 142.295 174.754 142.261 C 174.567 140.996 175.514 139.819 176.865 139.644 L 177.347 139.583 C 178.014 139.499 178.65 139.673 179.154 140.022 C 179.666 140.381 180.038 140.927 180.131 141.569 L 180.193 142.013 C 180.22 142.193 180.084 142.362 179.894 142.385 C 179.701 142.413 179.521 142.283 179.495 142.103 L 179.432 141.659 C 179.299 140.753 178.408 140.117 177.445 140.24 L 176.958 140.303 C 175.995 140.426 175.317 141.265 175.447 142.171 C 175.452 142.205 175.612 143.274 175.618 143.307 C 175.798 144.163 176.659 144.748 177.589 144.625 C 178.165 144.551 178.692 144.934 178.771 145.474 L 179.06 147.449 L 190.691 151.579 C 191.463 151.849 191.913 152.547 191.82 153.312 Z M 190.443 152.198 L 178.79 148.063 L 168.748 154.984 C 168.256 155.321 168.251 155.827 168.391 156.159 C 168.536 156.491 168.914 156.845 169.515 156.772 L 190.216 154.111 C 190.816 154.038 191.08 153.593 191.121 153.239 C 191.163 152.884 191.012 152.401 190.443 152.198 Z" style="fill: rgb(69, 79, 107);"/>
  <path class="s8" d="M 198.731 185.492 C 199.129 189.532 199.854 193.538 200.905 197.476 L 201.749 200.65 L 186.716 202.58 L 171.684 204.509 L 171.596 201.241 C 171.482 197.184 171.036 193.138 170.271 189.143 L 166.947 171.897 C 174.344 165.691 173.562 161.105 169.898 152.963 L 172.678 151.005 L 174.09 154.274 C 174.986 156.345 177.253 157.577 179.609 157.273 L 180.121 157.211 L 180.639 157.144 C 182.989 156.84 184.827 155.078 185.095 152.862 L 185.526 149.357 L 188.761 150.544 C 187.554 159.31 188.108 163.924 197.012 168.037 L 198.731 185.492 Z" style="fill: rgb(204, 97, 100);"/>
  <path class="s9" d="M 163.085 166.613 C 167.977 165.949 173.516 165.972 178.004 166.18 C 177.76 167.289 177.399 168.375 176.845 169.376 C 176.001 170.918 174.691 172.274 173.024 173.011 C 170.576 174.097 167.465 173.686 165.43 172.009 C 163.82 170.682 162.962 168.623 163.085 166.613 Z" style="fill: rgb(236, 168, 94);"/>
  <path class="s10" d="M 161.459 166.889 C 161.739 166.827 162.019 166.771 162.31 166.726 C 162.563 166.688 162.822 166.651 163.085 166.613 C 162.962 168.623 163.82 170.682 165.43 172.009 C 167.465 173.686 170.576 174.097 173.024 173.011 C 174.691 172.274 176.001 170.918 176.845 169.376 C 177.399 168.375 177.76 167.289 178.004 166.18 C 178.511 166.203 179.003 166.229 179.479 166.259 C 179.19 167.491 178.765 168.695 178.15 169.815 C 177.124 171.683 175.539 173.326 173.516 174.221 C 170.555 175.537 166.786 175.037 164.323 173.011 C 162.485 171.491 161.449 169.185 161.459 166.889 Z" style="fill: rgb(255, 255, 255);"/>
  <path class="s11" d="M 187.141 190.167 C 187.141 192.215 187.413 194.185 187.958 196.075 L 151.464 196.081 C 151.654 193.391 151.782 191.409 151.852 190.133 C 149.005 189.3 146.432 187.663 144.553 185.486 C 148.306 179.881 152.706 174.108 155.351 170.727 C 156.852 168.808 159.016 167.457 161.459 166.889 C 161.449 169.185 162.485 171.491 164.323 173.011 C 166.786 175.037 170.555 175.537 173.516 174.221 C 175.539 173.326 177.124 171.683 178.15 169.815 C 178.765 168.695 179.19 167.491 179.479 166.259 C 180.448 166.31 181.348 166.377 182.166 166.439 C 185.422 166.692 188.378 168.313 190.211 170.857 C 193.282 175.121 195.817 180.073 197.816 185.711 C 193.269 188.608 190.568 189.289 187.141 190.167 Z" style="fill: rgb(244, 208, 113);"/>
  <path class="s9" d="M 155.885 172.499 C 154.481 175.058 152.064 183.921 151.852 190.133 C 151.386 189.998 150.931 189.836 150.48 189.661 C 151.319 189.019 151.941 187.933 150.895 186.2 C 148.871 182.841 151.909 177.327 155.885 172.499 Z" style="fill: rgb(236, 168, 94);"/>
  <path class="s9" d="M 183.899 190.746 C 185.042 190.702 186.123 190.508 187.141 190.167 C 187.141 192.215 187.413 194.185 187.958 196.075 L 185.008 196.075 C 184.698 194.781 184.387 193.093 184.443 191.703 C 183.819 191.845 183.124 191.843 182.357 191.698 C 179.505 177.861 180.251 168.195 185.857 168.346 C 180.406 171.2 182.658 180.062 183.899 190.746 Z" style="fill: rgb(236, 168, 94);"/>
  <path class="s7" d="M 222.744 175.897 C 221.037 177.304 218.423 177.641 216.367 176.731 C 214.965 176.106 213.867 174.963 213.158 173.669 C 212.699 172.825 212.391 171.914 212.19 170.98 C 215.964 170.811 220.611 170.8 224.723 171.362 C 224.826 173.051 224.101 174.783 222.744 175.897 Z" style="fill: rgb(163, 66, 98);"/>
  <path class="s12" d="M 223.677 176.736 C 221.606 178.435 218.438 178.851 215.954 177.743 C 214.255 176.99 212.925 175.611 212.066 174.035 C 211.548 173.096 211.191 172.082 210.947 171.042 C 211.348 171.019 211.761 170.999 212.19 170.98 C 212.391 171.914 212.699 172.825 213.158 173.669 C 213.867 174.963 214.965 176.106 216.367 176.731 C 218.423 177.641 221.037 177.304 222.744 175.897 C 224.101 174.783 224.826 173.051 224.723 171.362 C 224.943 171.393 225.163 171.424 225.38 171.459 C 225.618 171.498 225.856 171.543 226.089 171.599 C 226.095 173.523 225.224 175.465 223.677 176.736 Z" style="fill: rgb(232, 145, 106);"/>
  <path class="s8" d="M 195.527 187.37 C 197.208 182.632 199.34 178.475 201.925 174.896 C 203.468 172.764 205.957 171.402 208.691 171.194 C 209.38 171.143 210.135 171.092 210.947 171.042 C 211.191 172.082 211.548 173.096 212.066 174.035 C 212.925 175.611 214.255 176.99 215.954 177.743 C 218.438 178.851 221.606 178.435 223.677 176.736 C 225.224 175.465 226.095 173.523 226.089 171.599 C 228.139 172.077 229.962 173.213 231.219 174.829 C 233.435 177.67 237.13 182.526 240.278 187.241 C 238.7 189.07 236.531 190.443 234.138 191.135 C 234.198 192.208 234.305 193.873 234.46 196.131 L 203.793 196.086 C 204.256 194.499 204.488 192.845 204.488 191.123 C 201.609 190.387 199.342 189.806 195.527 187.37 Z" style="fill: rgb(204, 97, 100);"/>
  <path class="s7" d="M 234.95 187.831 C 234.072 189.289 234.59 190.2 235.293 190.741 C 234.915 190.887 234.531 191.022 234.138 191.135 C 233.968 185.913 231.944 178.469 230.769 176.32 C 234.102 180.376 236.649 185.013 234.95 187.831 Z" style="fill: rgb(163, 66, 98);"/>
  <path class="s7" d="M 205.59 172.792 C 210.296 172.673 210.917 180.793 208.504 192.418 C 207.862 192.542 207.278 192.542 206.755 192.418 C 206.801 193.588 206.537 195.006 206.274 196.092 L 203.793 196.086 C 204.256 194.499 204.488 192.845 204.488 191.123 C 205.343 191.412 206.251 191.578 207.21 191.618 C 208.266 182.638 210.165 175.194 205.59 172.792 Z" style="fill: rgb(163, 66, 98);"/>
  <path class="s1" d="M 216.057 196.12 L 238.517 196.136 L 238.486 257.592 L 216.026 257.575 L 216.057 196.12 Z" style="fill: rgb(189, 108, 103);"/>
  <path class="s4" d="M 140.583 196.092 L 216.135 196.131 L 216.114 257.586 L 140.557 257.547 L 140.583 196.092 Z" style="fill: rgb(223, 141, 109);"/>
  <path class="s13" d="M 140.473 251.56 L 185.277 251.588 C 193.363 251.594 199.916 245.438 199.921 237.837 L 199.932 221.654 C 199.932 216.804 195.755 212.865 190.593 212.865 L 140.495 212.831 L 140.505 196.07 L 216.057 196.12 L 238.517 196.136 L 238.508 212.308 L 231.452 212.303 C 226.292 212.303 222.108 216.23 222.104 221.086 L 222.098 237.336 C 222.093 244.937 228.641 251.104 236.722 251.11 L 238.486 251.11 L 238.486 257.592 L 216.026 257.575 L 140.473 257.524 L 140.473 251.56 Z" style="fill: rgb(66, 44, 79); opacity: 0.3;"/>
  <path class="s14" d="M 207.334 209.748 L 131.782 209.697 L 140.505 196.07 L 216.057 196.12 L 207.334 209.748 Z" style="fill: rgb(239, 156, 129);"/>
  <path class="s4" d="M 247.023 209.776 L 224.563 209.76 L 216.057 196.12 L 238.517 196.136 L 247.023 209.776 Z" style="fill: rgb(223, 141, 109);"/>
  <path class="s10" d="M 168.509 193.723 C 170.503 193.729 172.383 194.601 173.593 196.092 L 170.871 196.092 C 166.119 200.509 163.509 206.749 163.794 213.023 C 164.063 218.993 166.538 225.036 165.379 230.91 C 162.485 229.712 159.199 229.937 156.04 229.914 C 152.882 229.897 149.29 229.65 147.011 227.59 C 149.062 224.209 149.565 220.185 149.533 216.292 C 149.502 212.404 148.99 208.511 149.186 204.628 C 149.31 202.09 149.776 199.508 150.806 197.184 C 151.748 195.062 153.995 193.717 156.439 193.717 L 168.509 193.723 Z" style="fill: rgb(255, 255, 255);"/>
  <path class="s15" d="M 154.213 222.222 C 153.027 222.222 151.479 221.997 150.32 221.03 C 150.258 220.979 150.252 220.883 150.309 220.827 C 150.367 220.766 150.465 220.759 150.528 220.816 C 151.702 221.795 153.322 221.963 154.477 221.93 C 155.418 221.902 156.371 221.744 157.288 221.598 C 157.768 221.519 158.261 221.44 158.752 221.379 C 160.575 221.142 161.956 221.255 163.105 221.727 C 163.184 221.762 163.22 221.846 163.184 221.918 C 163.152 221.997 163.06 222.031 162.982 221.997 C 161.89 221.548 160.559 221.44 158.794 221.666 C 158.312 221.727 157.821 221.806 157.344 221.886 C 156.412 222.036 155.449 222.194 154.481 222.222 C 154.396 222.222 154.306 222.222 154.213 222.222 Z" style="fill: rgb(246, 220, 197);"/>
  <path class="s15" d="M 154.569 214.289 C 154.502 212.358 154.16 210.333 153.835 208.273 C 153.518 206.22 153.317 204.071 153.767 202.096 C 153.995 201.117 154.357 200.2 154.865 199.412 C 155.119 199.018 155.403 198.658 155.709 198.337 C 156.02 198.016 156.35 197.747 156.692 197.51 C 155.466 198.613 154.642 200.317 154.353 202.197 C 154.052 204.082 154.306 206.13 154.621 208.167 C 154.943 210.209 155.231 212.308 155.165 214.289 C 155.109 216.264 154.689 218.12 153.943 219.549 C 154.44 218.031 154.642 216.214 154.569 214.289 Z" style="fill: rgb(246, 220, 197);"/>
  <path class="s15" d="M 158.385 208.667 C 158.095 207.132 157.68 205.561 157.696 204.032 C 157.702 203.266 157.821 202.529 158.048 201.864 C 158.282 201.196 158.634 200.61 159.062 200.154 C 158.359 201.178 158.06 202.575 158.152 204.02 C 158.23 205.477 158.679 206.997 158.981 208.567 C 159.28 210.137 159.441 211.735 159.461 213.231 C 159.487 214.727 159.373 216.129 159.187 217.328 C 159.172 214.908 158.991 211.756 158.385 208.667 Z" style="fill: rgb(246, 220, 197);"/>
  <path class="s6" d="M 223.086 194.539 L 226.327 194.544 C 227 194.544 227.642 194.793 228.129 195.225 C 229.9 196.829 231.135 198.945 231.602 201.212 C 231.82 202.265 231.878 203.351 232.135 204.397 C 232.395 205.444 232.891 206.484 233.801 207.137 C 234.89 207.925 236.369 208.014 237.736 207.885 C 239.103 207.756 240.459 207.441 241.826 207.536 C 243.622 207.666 245.547 208.696 245.361 210.727 C 245.304 211.368 245.029 211.976 244.616 212.488 C 243.394 214.001 241.37 214.553 239.59 215.24 C 238.114 215.802 236.608 216.298 235.08 216.726 C 233.683 217.119 232.235 217.451 230.774 217.384 C 229.433 217.322 228.071 216.888 227.134 215.988 C 226.131 215.026 225.717 213.642 225.628 212.297 C 225.54 210.952 225.738 209.607 225.783 208.262 C 225.923 203.784 224.784 198.376 220.663 196.126 C 221.042 195.169 222.005 194.539 223.086 194.539 Z" style="fill: rgb(69, 79, 107);"/>
  <path class="s10" d="M 224.847 201.437 C 224.671 200.942 224.474 200.464 224.246 200.003 C 224.759 199.107 225.556 198.349 226.519 197.887 C 227.591 197.37 228.843 197.223 230.024 197.437 C 230.417 198.038 230.753 198.68 231.027 199.339 C 229.687 198.933 228.175 199.035 226.923 199.637 C 226.073 200.048 225.359 200.678 224.847 201.437 Z" style="fill: rgb(255, 255, 255);"/>
  <path class="s10" d="M 225.67 205.224 C 225.602 204.576 225.499 203.935 225.364 203.3 C 225.882 202.479 226.639 201.786 227.543 201.347 C 228.77 200.762 230.241 200.65 231.561 201.021 C 231.571 201.088 231.586 201.15 231.602 201.212 C 231.705 201.719 231.773 202.236 231.846 202.748 C 230.556 202.416 229.138 202.529 227.948 203.103 C 226.979 203.57 226.187 204.324 225.67 205.224 Z" style="fill: rgb(255, 255, 255);"/>
  <path class="s5" d="M 185.112 250.305 L 152.302 247.92 L 153.508 233.195 L 186.318 235.581 L 185.112 250.305 Z" style="fill: rgb(251, 238, 209);"/>
  <path fill-rule="evenodd" class="s6" d="M 164.431 241.707 C 164.31 241.873 164.196 242.036 164.09 242.198 C 163.944 242.393 163.794 242.544 163.639 242.653 C 163.29 242.924 162.944 243.189 162.598 243.452 C 162.185 243.767 161.819 243.983 161.501 244.1 C 161.387 244.182 161.264 244.268 161.134 244.359 C 161.002 244.448 160.875 244.49 160.75 244.482 C 160.689 244.478 160.618 244.464 160.538 244.437 C 160.459 244.411 160.372 244.379 160.279 244.341 C 160.186 244.308 160.122 244.257 160.088 244.189 C 160.091 243.878 160.111 243.546 160.15 243.193 C 160.188 242.829 160.265 242.291 160.382 241.578 C 160.5 240.87 160.577 240.333 160.617 239.969 C 160.667 239.493 160.689 239.054 160.678 238.652 C 160.671 238.645 160.567 238.553 160.368 238.377 C 160.247 238.276 160.192 238.184 160.201 238.101 C 160.206 238.064 160.219 238.028 160.243 237.994 C 160.302 237.908 160.418 237.863 160.595 237.859 C 160.729 237.851 160.862 237.848 160.993 237.848 C 161.839 238.028 162.7 238.424 163.577 239.035 C 163.809 239.196 163.991 239.364 164.125 239.536 C 164.559 240.084 164.753 240.587 164.705 241.044 C 164.677 241.28 164.587 241.501 164.431 241.707 Z M 163.457 240.464 C 163.414 239.996 162.911 239.556 161.951 239.148 C 161.748 240.371 161.587 241.672 161.471 243.053 C 162.713 242.283 163.374 241.524 163.452 240.774 C 163.463 240.673 163.464 240.57 163.457 240.464 Z" style="fill: rgb(69, 79, 107);"/>
  <path fill-rule="evenodd" class="s6" d="M 171.947 242.716 C 171.196 243.701 170.224 244.259 169.033 244.386 C 168.891 244.401 168.75 244.405 168.608 244.397 C 167.99 244.364 167.394 244.092 166.817 243.582 C 166.428 243.236 166.26 242.807 166.315 242.293 C 166.378 241.723 166.683 241.124 167.232 240.498 C 167.465 240.236 167.74 240.012 168.054 239.829 C 168.417 239.607 168.75 239.506 169.053 239.525 C 169.226 239.532 169.385 239.586 169.53 239.688 C 169.672 239.789 170.064 239.935 170.705 240.127 C 171.213 240.276 171.56 240.503 171.745 240.807 C 172.07 241.34 172.212 241.79 172.17 242.158 C 172.15 242.367 172.075 242.554 171.947 242.716 Z M 170.726 241.934 C 170.708 241.366 170.532 241.021 170.198 240.898 C 170.146 240.878 170.099 240.867 170.052 240.864 C 169.925 240.857 169.754 240.924 169.54 241.066 C 169.306 241.232 169.125 241.325 169.003 241.348 C 168.926 241.366 168.82 241.338 168.686 241.264 C 168.551 241.189 168.463 241.149 168.421 241.145 C 168.387 241.142 168.359 241.147 168.339 241.162 C 167.932 241.372 167.703 241.72 167.651 242.203 C 167.616 242.533 167.694 242.818 167.884 243.058 C 168.153 243.392 168.391 243.565 168.598 243.576 C 169.075 243.603 169.558 243.416 170.048 243.019 C 170.513 242.64 170.741 242.278 170.726 241.934 Z" style="fill: rgb(69, 79, 107);"/>
  <path class="s6" d="M 179.039 239.424 C 178.86 240.256 178.684 241.091 178.511 241.927 C 178.298 242.917 178.16 243.746 178.097 244.414 C 178.08 244.632 178.068 244.847 178.061 245.061 C 178.061 245.163 178.01 245.247 177.911 245.314 C 177.814 245.386 177.706 245.417 177.589 245.41 C 177.362 245.395 177.182 245.251 177.052 244.976 C 176.652 244.167 176.179 242.904 175.633 241.19 C 175.622 241.153 175.606 241.131 175.581 241.129 C 175.533 241.124 175.496 241.166 175.472 241.252 C 175.265 242.138 175.119 243.073 175.033 244.059 C 174.988 244.536 174.959 245.022 174.944 245.517 C 174.934 245.697 174.86 245.817 174.722 245.877 C 174.667 245.918 174.611 245.937 174.551 245.934 C 174.499 245.929 174.435 245.908 174.36 245.866 C 174.253 245.813 174.186 245.779 174.158 245.765 C 174.065 245.735 174.013 245.656 174.004 245.528 C 174.004 245.431 174.004 245.327 174.007 245.219 C 174.017 244.87 174.04 244.504 174.075 244.121 C 174.133 243.461 174.252 242.637 174.427 241.646 C 174.702 240.146 174.856 239.315 174.888 239.154 C 174.908 239.014 175.049 238.955 175.312 238.973 C 175.44 238.969 175.616 239.059 175.84 239.243 C 176.044 239.641 176.279 240.279 176.544 241.157 C 176.799 241.997 177.045 242.638 177.279 243.081 C 177.465 242.256 177.752 241.01 178.139 239.345 C 178.169 239.221 178.282 239.167 178.475 239.182 C 178.54 239.186 178.616 239.2 178.703 239.227 C 178.817 239.256 178.884 239.275 178.905 239.283 C 178.977 239.313 179.022 239.359 179.039 239.424 Z" style="fill: rgb(69, 79, 107);"/>
  <path class="s16" d="M 214.804 196.947 C 217.139 206.924 208.56 220.642 210.099 253.299 L 199.357 253.288 C 198.122 232.398 198.58 217.219 200.734 207.75 C 197.255 213.315 191.738 233.077 191.727 253.288 L 181.142 253.276 C 179.906 229.753 183.122 210.972 190.79 196.93 L 214.804 196.947 Z" style="fill: rgb(152, 64, 88);"/>
  <path class="s17" d="M 194.714 204.746 L 200.734 207.75 C 198.881 210.716 196.448 217.704 194.579 226.645 C 194.569 225.232 194.584 223.529 194.672 221.699 C 194.906 216.866 196.443 212.162 199.145 208.043 C 197.608 208.043 196.195 207.261 195.449 205.995 L 194.714 204.746 Z" style="fill: rgb(66, 44, 79);"/>
  <path class="s18" d="M 208.7 252.224 C 208.619 252.224 208.551 252.162 208.546 252.089 C 207.148 235.721 209.726 221.762 211.605 211.571 C 212.667 205.815 213.505 201.263 213.365 197.949 C 213.36 197.87 213.426 197.802 213.514 197.797 C 213.603 197.802 213.67 197.858 213.676 197.937 C 213.816 201.285 212.977 205.843 211.91 211.621 C 210.031 221.795 207.464 235.738 208.856 252.067 C 208.861 252.146 208.799 252.213 208.711 252.224 C 208.708 252.224 208.704 252.224 208.7 252.224 Z" style="fill: rgb(181, 89, 117);"/>
  <path class="s18" d="M 212.325 205.387 C 212.283 205.387 212.247 205.37 212.215 205.343 C 211.295 204.487 210.637 203.255 210.315 201.775 C 210.031 200.464 210.026 199.107 210.02 197.797 C 210.02 197.718 210.094 197.65 210.177 197.65 C 210.177 197.65 210.178 197.65 210.181 197.65 C 210.264 197.65 210.337 197.718 210.337 197.797 C 210.342 199.091 210.342 200.43 210.622 201.719 C 210.927 203.137 211.553 204.318 212.433 205.134 C 212.496 205.191 212.496 205.286 212.438 205.343 C 212.407 205.37 212.366 205.387 212.325 205.387 Z" style="fill: rgb(181, 89, 117);"/>
  <path class="s18" d="M 200.036 206.851 L 199.849 206.743 C 199.322 206.445 198.964 205.849 198.887 205.151 C 198.819 204.532 198.953 203.935 199.083 203.351 L 200.103 198.793 C 200.124 198.714 200.207 198.664 200.289 198.68 C 200.371 198.697 200.429 198.77 200.409 198.854 L 199.389 203.412 C 199.264 203.969 199.136 204.55 199.197 205.117 C 199.254 205.64 199.487 206.096 199.827 206.372 L 201.671 198.793 C 201.692 198.714 201.775 198.664 201.858 198.68 C 201.945 198.697 201.998 198.776 201.976 198.854 L 200.036 206.851 Z" style="fill: rgb(181, 89, 117);"/>
  <path class="s18" d="M 190.009 252.208 C 189.92 252.208 189.854 252.146 189.854 252.061 C 189.863 234.742 192.291 220.14 197.054 208.674 C 197.085 208.6 197.177 208.561 197.255 208.589 C 197.339 208.617 197.374 208.707 197.344 208.78 C 192.591 220.214 190.174 234.775 190.164 252.061 C 190.164 252.146 190.092 252.208 190.009 252.208 Z" style="fill: rgb(181, 89, 117);"/>
  <path class="s19" d="M 215.374 190.667 C 216.238 192.175 216.29 193.987 215.513 195.54 L 214.804 196.947 L 190.79 196.93 L 190.282 196.177 C 189.331 194.752 189.175 192.986 189.863 191.439 C 190.189 190.702 190.33 189.908 190.277 189.115 L 188.781 167.187 L 196.827 167.193 C 198.751 169.601 200.756 169.601 202.84 167.193 L 210.647 167.199 L 212.946 169.179 L 214.706 188.563 C 214.773 189.3 215.001 190.015 215.374 190.667 Z" style="fill: rgb(125, 211, 233);"/>
  <path class="s20" d="M 203.4 196.942 L 190.79 196.93 L 190.282 196.177 C 189.331 194.752 189.175 192.986 189.863 191.439 C 190.189 190.702 190.33 189.908 190.277 189.115 L 190.242 188.563 L 199.823 185.79 L 205.631 172.837 L 213.531 175.622 L 210.482 190.06 C 209.918 192.716 208.033 194.956 205.413 196.075 L 203.4 196.942 Z" style="fill: rgb(95, 165, 204);"/>
  <path class="s17" d="M 203.4 196.942 L 198.762 198.928 L 197.204 201.381 L 187.923 203.125 C 188.771 200.964 189.724 198.888 190.79 196.93 L 203.4 196.942 Z" style="fill: rgb(66, 44, 79);"/>
  <path class="s6" d="M 208.664 259.516 L 193.553 259.511 C 194.015 258.65 194.817 257.981 195.811 257.654 L 197.276 257.186 C 198.048 256.933 198.716 256.472 199.197 255.853 L 201.185 253.293 L 206.868 253.293 C 207.917 254.816 208.516 256.891 208.664 259.516 Z" style="fill: rgb(69, 79, 107);"/>
  <path class="s17" d="M 208.691 260.726 L 204.72 260.726 L 204.726 259.516 L 208.664 259.516 C 208.685 259.91 208.7 260.305 208.691 260.726 Z" style="fill: rgb(66, 44, 79);"/>
  <path class="s17" d="M 204.777 259.46 L 201.164 260.664 L 193.213 260.659 C 193.269 260.231 193.41 259.826 193.606 259.455 L 204.777 259.46 Z" style="fill: rgb(66, 44, 79);"/>
  <path class="s6" d="M 189.816 259.505 L 174.707 259.494 C 175.166 258.639 175.965 257.963 176.964 257.643 L 178.428 257.17 C 179.194 256.923 179.867 256.461 180.344 255.842 L 182.337 253.276 L 188.021 253.281 C 189.07 254.805 189.668 256.879 189.816 259.505 Z" style="fill: rgb(69, 79, 107);"/>
  <path class="s17" d="M 189.843 260.659 L 185.872 260.654 L 185.872 259.45 L 189.816 259.45 C 189.837 259.838 189.854 260.237 189.843 260.659 Z" style="fill: rgb(66, 44, 79);"/>
  <path class="s17" d="M 185.924 259.45 L 182.311 260.654 L 174.364 260.648 C 174.422 260.22 174.561 259.814 174.758 259.437 L 185.924 259.45 Z" style="fill: rgb(66, 44, 79);"/>
  <path class="s19" d="M 189.517 174.851 L 183.372 174.845 L 185.592 169.387 C 186.132 168.06 187.488 167.187 188.994 167.187 L 189.517 174.851 Z" style="fill: rgb(125, 211, 233);"/>
  <path class="s20" d="M 187.151 174.845 L 188.957 169.821 L 189.304 174.851 L 187.151 174.845 Z" style="fill: rgb(95, 165, 204);"/>
  <path class="s21" d="M 196.827 167.193 L 196.827 164.751 L 201.588 161.111 L 202.84 167.193 C 200.756 169.601 198.751 169.601 196.827 167.193 Z" style="fill: rgb(240, 191, 156);"/>
  <path class="s22" d="M 201.588 161.111 C 201.35 163.924 199.197 166.534 196.827 166.14 L 196.827 164.751 L 201.588 161.111 Z" style="fill: rgb(231, 136, 130);"/>
  <path class="s21" d="M 196.836 150.24 C 200.356 150.246 203.125 153.081 202.826 156.383 L 202.593 158.95 C 202.442 160.571 201.749 162.106 200.61 163.333 L 200.129 163.851 C 199.342 164.7 198.229 165.224 197.034 165.314 C 195.63 165.409 194.259 164.897 193.311 163.924 C 192.162 162.737 191.437 161.24 191.241 159.648 L 190.857 156.553 C 190.438 153.194 193.233 150.24 196.836 150.24 Z" style="fill: rgb(240, 191, 156);"/>
  <path class="s23" d="M 201.992 160.531 C 201.692 159.737 201.537 158.905 201.537 158.066 L 201.537 157.189 C 200.226 156.294 199.431 154.881 199.368 153.362 L 199.357 153.087 C 197.349 155.023 194.217 156.182 191.343 156.001 C 189.905 155.911 188.3 155.405 188.021 153.852 C 187.944 153.43 187.995 152.991 188.134 152.58 C 188.513 151.477 189.408 150.684 190.313 149.958 C 191.722 148.833 193.269 147.786 195.061 147.381 C 196.857 146.982 198.953 147.352 200.124 148.698 C 201.179 147.922 202.908 148.102 203.996 148.839 C 205.077 149.576 205.689 150.82 205.869 152.063 C 206.05 153.312 205.849 154.583 205.59 155.816 C 205.373 156.829 205.115 157.852 204.591 158.758 C 204.068 159.665 203.094 160.531 201.992 160.531 Z" style="fill: rgb(140, 64, 76);"/>
  <path class="s21" d="M 203.094 158.061 C 203.503 157.69 204.162 157.509 204.643 157.78 C 205.046 158.011 205.223 158.478 205.248 158.916 C 205.311 159.901 204.751 160.891 203.851 161.397 C 203.416 161.639 202.83 161.757 202.417 161.482 C 202.106 161.274 201.976 160.891 201.992 160.531 C 202.017 160.098 202.204 159.631 202.364 159.225 C 202.525 158.804 202.748 158.376 203.094 158.061 Z" style="fill: rgb(240, 191, 156);"/>
  <path class="s22" d="M 203.954 158.888 C 203.737 158.91 203.494 159.158 203.494 159.367 C 203.789 159.344 204.038 159.631 204.042 159.906 C 204.047 160.188 203.876 160.447 203.664 160.644 C 203.52 160.79 203.296 160.92 203.105 160.83 C 202.924 160.739 202.903 160.509 202.919 160.323 C 202.95 159.924 203.053 159.535 203.225 159.169 C 203.285 159.034 203.363 158.893 203.478 158.786 C 203.592 158.68 203.747 158.607 203.907 158.612 C 204.077 158.623 204.228 158.72 204.332 158.849 C 204.435 158.972 204.503 159.125 204.565 159.27 C 204.509 159.068 204.172 158.86 203.954 158.888 Z" style="fill: rgb(231, 136, 130);"/>
  <path class="s23" d="M 199.228 157.374 L 195.853 157.374 C 195.936 157.003 196.319 156.705 196.696 156.586 C 197.074 156.468 197.494 156.502 197.876 156.609 C 198.353 156.739 198.87 157.054 199.228 157.374 Z" style="fill: rgb(140, 64, 76);"/>
  <path class="s17" d="M 197.074 159.473 C 196.857 159.473 196.687 159.31 196.687 159.108 L 196.687 158.707 C 196.687 158.506 196.857 158.343 197.074 158.343 C 197.292 158.343 197.462 158.506 197.462 158.707 L 197.462 159.108 C 197.462 159.31 197.286 159.473 197.074 159.473 Z" style="fill: rgb(66, 44, 79);"/>
  <path class="s23" d="M 192.105 156.603 C 192.344 156.497 192.602 156.462 192.835 156.586 C 193.067 156.705 193.306 157.003 193.358 157.374 L 191.271 157.368 C 191.489 157.048 191.81 156.733 192.105 156.603 Z" style="fill: rgb(140, 64, 76);"/>
  <path class="s17" d="M 192.24 159.219 L 192.24 158.59 C 192.24 158.449 192.364 158.337 192.508 158.337 C 192.659 158.337 192.778 158.449 192.778 158.59 L 192.778 159.219 C 192.778 159.354 192.659 159.473 192.508 159.473 C 192.364 159.473 192.24 159.354 192.24 159.219 Z" style="fill: rgb(66, 44, 79);"/>
  <path class="s22" d="M 194.492 161.212 C 194.247 161.302 193.979 161.359 193.709 161.341 C 193.327 161.319 193 161.111 192.84 160.862 L 195.304 160.869 C 195.086 160.987 194.735 161.121 194.492 161.212 Z" style="fill: rgb(231, 136, 130);"/>
  <path class="s10" d="M 193.477 162.687 C 194.926 162.664 196.375 162.641 197.826 162.619 C 197.328 163.254 196.5 163.716 195.656 163.732 C 194.812 163.744 193.999 163.305 193.477 162.687 Z" style="fill: rgb(255, 255, 255);"/>
  <path class="s4" d="M 154.766 174.829 L 174.489 174.839 L 174.472 200.317 L 154.751 200.306 L 154.766 174.829 Z" style="fill: rgb(223, 141, 109);"/>
  <path class="s1" d="M 174.489 174.839 L 196.676 174.851 L 196.66 200.33 L 174.472 200.317 L 174.489 174.839 Z" style="fill: rgb(189, 108, 103);"/>
  <path class="s5" d="M 172.227 187.269 L 157.029 189.272 L 156.009 182.452 L 171.207 180.444 L 172.227 187.269 Z" style="fill: rgb(251, 238, 209);"/>
  <path fill-rule="evenodd" class="s6" d="M 162.231 185.632 C 162.197 185.719 162.167 185.803 162.143 185.885 C 162.106 185.983 162.058 186.062 162.003 186.121 C 161.883 186.272 161.761 186.418 161.641 186.561 C 161.499 186.736 161.366 186.863 161.238 186.937 C 161.199 186.982 161.156 187.031 161.108 187.084 C 161.059 187.132 161.009 187.16 160.952 187.168 C 160.924 187.172 160.892 187.17 160.854 187.163 C 160.813 187.155 160.77 187.148 160.725 187.14 C 160.676 187.129 160.64 187.11 160.617 187.084 C 160.575 186.941 160.538 186.788 160.507 186.622 C 160.473 186.453 160.433 186.202 160.388 185.868 C 160.344 185.538 160.305 185.289 160.274 185.119 C 160.229 184.898 160.177 184.696 160.119 184.513 C 160.115 184.509 160.057 184.475 159.944 184.411 C 159.874 184.373 159.836 184.336 159.828 184.298 C 159.826 184.28 159.828 184.261 159.835 184.242 C 159.847 184.201 159.894 184.172 159.975 184.158 C 160.033 184.143 160.093 184.132 160.155 184.124 C 160.559 184.143 161.001 184.261 161.48 184.478 C 161.605 184.535 161.708 184.596 161.791 184.664 C 162.063 184.885 162.221 185.101 162.262 185.312 C 162.283 185.42 162.272 185.527 162.231 185.632 Z M 161.619 185.137 C 161.537 184.927 161.25 184.763 160.761 184.647 C 160.837 185.221 160.943 185.827 161.082 186.464 C 161.534 186.022 161.726 185.626 161.661 185.278 C 161.651 185.233 161.638 185.185 161.619 185.137 Z" style="fill: rgb(69, 79, 107);"/>
  <path fill-rule="evenodd" class="s6" d="M 165.26 185.272 C 165.09 185.733 164.789 186.028 164.359 186.155 C 164.307 186.174 164.255 186.186 164.203 186.188 C 163.965 186.215 163.71 186.14 163.437 185.964 C 163.25 185.848 163.138 185.681 163.1 185.463 C 163.055 185.22 163.099 184.949 163.23 184.653 C 163.289 184.528 163.366 184.418 163.463 184.321 C 163.573 184.205 163.685 184.14 163.799 184.129 C 163.869 184.121 163.934 184.134 163.996 184.163 C 164.062 184.197 164.226 184.233 164.488 184.27 C 164.698 184.3 164.855 184.373 164.959 184.49 C 165.142 184.692 165.247 184.871 165.274 185.025 C 165.292 185.114 165.287 185.196 165.26 185.272 Z M 164.705 185.025 C 164.637 184.787 164.532 184.655 164.389 184.625 C 164.369 184.62 164.35 184.619 164.333 184.619 C 164.284 184.626 164.228 184.666 164.163 184.737 C 164.093 184.823 164.038 184.876 163.996 184.895 C 163.969 184.906 163.926 184.901 163.866 184.878 C 163.809 184.855 163.771 184.845 163.753 184.845 C 163.739 184.848 163.729 184.852 163.722 184.855 C 163.597 184.972 163.553 185.133 163.588 185.339 C 163.612 185.479 163.674 185.59 163.774 185.676 C 163.915 185.8 164.026 185.856 164.104 185.845 C 164.284 185.827 164.443 185.719 164.582 185.519 C 164.711 185.332 164.753 185.167 164.705 185.025 Z" style="fill: rgb(69, 79, 107);"/>
  <path class="s6" d="M 168.044 183.139 C 168.061 183.529 168.079 183.921 168.095 184.315 C 168.114 184.78 168.144 185.167 168.189 185.474 C 168.203 185.576 168.22 185.675 168.241 185.772 C 168.251 185.818 168.241 185.859 168.211 185.897 C 168.176 185.938 168.134 185.961 168.086 185.97 C 167.993 185.98 167.904 185.93 167.823 185.818 C 167.57 185.484 167.242 184.953 166.838 184.225 C 166.832 184.211 166.823 184.202 166.813 184.202 C 166.792 184.206 166.781 184.229 166.781 184.27 C 166.788 184.687 166.825 185.122 166.895 185.576 C 166.93 185.793 166.968 186.014 167.013 186.239 C 167.028 186.322 167.01 186.384 166.963 186.425 C 166.945 186.447 166.922 186.461 166.895 186.464 C 166.875 186.469 166.847 186.463 166.813 186.447 C 166.763 186.433 166.733 186.423 166.719 186.419 C 166.677 186.416 166.65 186.386 166.631 186.329 C 166.62 186.281 166.61 186.234 166.599 186.188 C 166.565 186.028 166.536 185.859 166.512 185.682 C 166.464 185.379 166.423 184.996 166.393 184.535 C 166.348 183.833 166.323 183.443 166.315 183.364 C 166.313 183.3 166.364 183.263 166.471 183.252 C 166.521 183.237 166.606 183.261 166.719 183.324 C 166.843 183.49 167.006 183.758 167.205 184.129 C 167.402 184.49 167.571 184.76 167.713 184.94 C 167.703 184.553 167.687 183.966 167.667 183.179 C 167.671 183.118 167.712 183.085 167.791 183.077 C 167.819 183.074 167.85 183.074 167.889 183.077 C 167.937 183.081 167.966 183.083 167.977 183.083 C 168.008 183.091 168.029 183.11 168.044 183.139 Z" style="fill: rgb(69, 79, 107);"/>
  <path class="s13" d="M 178.661 174.839 L 178.657 190.133 C 178.65 192.783 180.939 194.933 183.755 194.938 L 196.666 194.944 L 196.66 200.33 L 174.472 200.317 L 174.489 174.839 L 178.661 174.839 Z" style="fill: rgb(66, 44, 79); opacity: 0.3;"/>
  <path class="s19" d="M 210.596 167.137 C 213.401 167.137 215.405 169.692 214.576 172.212 L 209.064 189.025 C 208.318 191.287 206.636 193.171 204.394 194.252 L 195.439 198.568 C 194.532 199.001 193.498 199.125 192.508 198.917 L 189.837 198.36 L 189.108 199.236 L 186.623 193.915 L 187.912 193.915 C 188.227 192.277 189.574 190.989 191.308 190.651 C 193.373 190.246 195.345 189.492 197.122 188.417 L 200.74 186.234 L 206.646 169.798 C 207.215 168.206 208.809 167.131 210.596 167.137 Z" style="fill: rgb(125, 211, 233);"/>
  <path class="s21" d="M 188.761 198.443 L 186.503 199.299 L 183.362 202.135 C 182.621 202.805 181.529 202.984 180.592 202.602 L 178.133 201.59 L 177.311 201.972 C 176.881 202.175 176.362 202.062 176.074 201.708 C 175.7 201.257 175.835 200.599 176.362 200.317 L 179.997 198.342 C 180.51 198.061 180.845 197.561 180.893 196.998 C 180.945 196.379 180.628 195.777 180.069 195.44 L 178.65 194.578 C 178.289 194.359 178.15 193.92 178.32 193.544 C 178.517 193.115 179.05 192.93 179.499 193.121 L 182.145 194.269 L 184.987 195.624 L 187.121 194.938 L 188.761 198.443 Z" style="fill: rgb(240, 191, 156);"/>
  <path class="s22" d="M 187.121 194.938 L 188.761 198.443 L 187.508 198.922 L 186.762 195.057 L 187.121 194.938 Z" style="fill: rgb(231, 136, 130);"/>
  <path class="s6" d="M 117.815 197.572 L 121.568 222.234 C 121.761 223.505 121.853 224.794 121.839 226.076 L 121.533 251.493 L 114.296 251.488 L 112.785 241.472 C 111.935 235.85 112.241 230.128 113.686 224.613 L 107.364 210.333 L 104.89 225.564 C 103.171 236.056 102.311 244.693 102.307 251.476 L 95.293 251.47 L 94.557 240.492 C 94.221 235.546 94.775 230.584 96.184 225.807 L 96.561 224.53 C 94.775 213.399 92.523 202.782 95.562 196.784 L 117.815 197.572 Z" style="fill: rgb(69, 79, 107);"/>
  <path class="s17" d="M 107.416 210.389 L 108.385 204.465 C 110.299 204.465 111.984 203.733 113.437 202.27 C 113.126 204.757 110.947 206.564 108.974 206.805 L 108.995 206.861 C 109.942 209.203 110.527 211.667 110.73 214.165 L 111.097 218.706 L 107.416 210.389 Z" style="fill: rgb(66, 44, 79);"/>
  <path class="s24" d="M 99.016 224.569 L 99.02 224.597 L 98.632 225.908 C 97.225 230.674 96.681 235.603 97.011 240.543 L 97.591 249.18 C 97.597 249.259 97.535 249.332 97.447 249.332 C 97.443 249.336 97.44 249.338 97.435 249.338 C 97.358 249.338 97.286 249.275 97.28 249.197 L 96.701 240.56 C 96.37 235.586 96.918 230.629 98.337 225.829 L 98.704 224.58 C 98.508 223.381 98.311 222.189 98.115 221.007 C 96.825 213.219 95.609 205.865 96.55 200.492 C 96.561 200.407 96.644 200.351 96.727 200.369 C 96.815 200.38 96.871 200.459 96.856 200.537 C 95.924 205.871 97.136 213.197 98.425 220.962 C 98.621 222.155 98.823 223.359 99.016 224.569 Z" style="fill: rgb(121, 124, 153);"/>
  <path class="s24" d="M 116.398 249.18 C 116.408 249.259 116.351 249.332 116.263 249.344 C 116.256 249.347 116.249 249.349 116.242 249.349 C 116.165 249.349 116.098 249.293 116.087 249.22 L 114.933 241.55 C 114.079 235.9 114.379 230.223 115.823 224.687 L 111.879 215.763 C 111.842 215.69 111.884 215.606 111.961 215.572 C 112.039 215.543 112.133 215.577 112.163 215.651 L 116.149 224.664 L 116.139 224.71 C 114.695 230.23 114.394 235.878 115.238 241.506 L 116.398 249.18 Z" style="fill: rgb(121, 124, 153);"/>
  <path class="s24" d="M 101.127 200.932 C 100.676 202.906 98.973 204.55 96.888 205.033 C 96.873 205.033 96.86 205.033 96.846 205.033 C 96.779 205.033 96.716 204.988 96.695 204.926 C 96.674 204.847 96.727 204.763 96.81 204.746 C 98.781 204.296 100.397 202.731 100.821 200.869 C 100.838 200.79 100.92 200.739 101.008 200.757 C 101.091 200.773 101.142 200.847 101.127 200.932 Z" style="fill: rgb(121, 124, 153);"/>
  <path class="s24" d="M 109.704 203.942 C 109.668 203.942 109.632 203.93 109.606 203.908 C 109.554 203.868 109.534 203.8 109.554 203.744 C 109.918 202.805 110.041 201.781 109.911 200.785 C 109.901 200.706 109.963 200.633 110.046 200.621 C 110.135 200.61 110.212 200.666 110.221 200.751 C 110.337 201.64 110.259 202.557 109.995 203.424 C 110.823 202.782 111.305 201.758 111.227 200.751 C 111.221 200.672 111.284 200.599 111.371 200.594 C 111.459 200.588 111.532 200.65 111.537 200.729 C 111.635 201.989 110.932 203.266 109.782 203.918 C 109.758 203.935 109.732 203.942 109.704 203.942 Z" style="fill: rgb(121, 124, 153);"/>
  <path class="s17" d="M 94.785 199.029 C 95.002 198.247 95.273 197.51 95.614 196.841 L 117.868 197.629 L 118.054 198.832 C 110.538 201.021 102.343 201.088 94.785 199.029 Z" style="fill: rgb(66, 44, 79);"/>
  <path class="s25" d="M 121.948 257.66 L 114.943 257.654 L 115.745 254.762 L 115.632 251.544 L 120.156 251.544 L 120.364 254.694 L 123.076 256.163 C 122.594 256.585 122.201 257.102 121.948 257.66 Z" style="fill: rgb(235, 165, 142);"/>
  <path class="s26" d="M 114.115 260.619 L 114.943 257.654 L 121.948 257.66 C 122.201 257.102 122.594 256.585 123.076 256.163 L 123.474 256.382 C 124.008 256.669 124.587 256.867 125.197 256.967 L 125.203 256.967 C 127.242 257.305 128.889 258.74 129.391 260.631 L 114.115 260.619 Z" style="fill: rgb(227, 107, 133);"/>
  <path class="s27" d="M 115.632 251.544 L 120.156 251.544 L 120.233 252.663 L 115.667 252.657 L 115.632 251.544 Z" style="fill: rgb(222, 114, 116);"/>
  <path class="s25" d="M 103.057 257.648 L 96.048 257.643 L 96.856 254.751 L 96.738 251.532 L 101.266 251.532 L 101.473 254.683 L 104.187 256.152 C 103.7 256.574 103.306 257.092 103.057 257.648 Z" style="fill: rgb(235, 165, 142);"/>
  <path class="s26" d="M 95.174 260.608 L 95.997 257.643 L 103.006 257.648 C 103.255 257.092 103.648 256.574 104.134 256.152 L 104.528 256.366 C 105.061 256.658 105.646 256.854 106.251 256.957 L 106.257 256.957 C 108.302 257.288 109.942 258.723 110.45 260.619 L 95.174 260.608 Z" style="fill: rgb(227, 107, 133);"/>
  <path class="s27" d="M 96.738 251.532 L 101.266 251.532 L 101.339 252.652 L 96.779 252.647 L 96.738 251.532 Z" style="fill: rgb(222, 114, 116);"/>
  <path class="s28" d="M 115.363 168.105 C 115.657 169.933 115.952 171.847 115.316 173.596 C 114.648 175.425 113.012 176.843 111.144 177.647 C 109.275 178.447 107.184 178.694 105.128 178.711 C 103.343 178.728 101.525 178.582 99.859 177.979 C 98.192 177.372 96.669 176.281 95.882 174.772 C 94.615 172.352 95.427 169.421 96.769 167.042 C 98.115 164.667 100.029 162.247 100.993 159.716 C 99.445 157.656 99.113 154.848 100.139 152.525 C 101.164 150.194 103.518 148.44 106.158 148.017 C 108.799 147.601 111.635 148.54 113.417 150.42 C 115.104 150.336 116.796 151.5 117.655 152.868 C 118.516 154.229 118.607 155.962 118.044 157.458 C 117.485 158.955 116.305 160.21 114.881 161.06 C 115.238 163.215 115.01 165.955 115.363 168.105 Z" style="fill: rgb(101, 64, 89);"/>
  <path class="s22" d="M 120.839 176.601 L 123.644 184.743 L 137.948 181.272 C 139.228 179.077 141.148 177.667 143.709 177.039 C 143.999 177.749 143.736 178.554 143.072 178.981 C 142.637 179.268 142.178 179.606 141.892 179.932 C 144.278 180.596 146.675 180.416 147.892 180.247 C 148.328 180.191 148.715 180.506 148.715 180.922 C 148.715 181.164 148.576 181.389 148.348 181.512 L 147.819 181.795 C 147.784 182.751 147.571 183.662 147.369 184.338 C 147.162 185.041 146.505 185.553 145.728 185.581 C 143.257 185.687 141.009 185.362 138.983 184.607 L 124.443 190.155 C 122.217 191.005 119.675 189.998 118.764 187.899 L 116.771 183.291 L 115.44 177.856 L 119.306 177.023 L 120.839 176.601 Z" style="fill: rgb(231, 136, 130);"/>
  <path class="s27" d="M 141.301 182.576 C 140.759 183.077 139.781 183.19 139.061 182.954 C 139.77 182.891 140.453 182.599 140.961 182.133 C 141.467 181.665 141.799 181.029 141.883 180.366 C 142.12 181.046 141.845 182.076 141.301 182.576 Z" style="fill: rgb(222, 114, 116);"/>
  <path class="s27" d="M 120.415 176.719 L 121.285 179.251 C 121.709 180.483 121.341 181.828 120.347 182.717 C 119.281 183.674 118.593 184.934 118.391 186.302 L 118.308 186.847 L 116.771 183.291 L 115.44 177.856 L 120.415 176.719 Z" style="fill: rgb(222, 114, 116);"/>
  <path class="s27" d="M 123.644 184.743 L 120.612 186.847 C 120.99 184.833 121.959 184.005 123.516 184.366 L 123.644 184.743 Z" style="fill: rgb(222, 114, 116);"/>
  <path class="s26" d="M 116.051 168.099 C 117.603 168.639 118.821 169.804 119.358 171.272 L 121.264 176.466 L 119.256 177.023 L 117.505 173.377 L 116.051 168.099 Z" style="fill: rgb(227, 107, 133);"/>
  <path class="s29" d="M 118.038 172.274 C 118.199 172.843 118.437 173.394 118.743 173.912 L 120.415 176.719 L 119.306 177.023 L 117.557 173.377 L 116.774 170.541 C 117.396 170.962 117.847 171.576 118.038 172.274 Z" style="fill: rgb(206, 81, 114);"/>
  <path class="s26" d="M 101.417 168.909 C 103.076 168.237 104.661 167.691 106.168 167.271 L 112.086 167.271 C 113.486 167.271 114.826 167.548 116.102 168.099 L 117.557 173.377 L 120.099 178.683 C 120.814 180.168 120.28 181.924 118.831 182.83 C 118.013 183.336 117.458 184.147 117.299 185.053 C 116.714 188.338 116.911 191.708 117.873 194.916 L 118.892 198.32 C 109.029 199.974 100.881 199.798 94.444 197.792 L 96.965 192.682 C 98.503 189.553 99.269 186.138 99.186 182.689 C 99.113 179.403 98.979 175.498 98.761 173.854 C 98.489 171.803 99.374 170.155 101.417 168.909 Z" style="fill: rgb(227, 107, 133);"/>
  <path class="s29" d="M 100.449 182.442 L 98.761 173.854 L 106.784 171.16 L 110.989 178.744 L 110.492 179.403 L 114.171 188.603 L 116.977 188.315 C 116.925 190.538 117.226 192.761 117.873 194.916 L 114.612 196.806 C 111.522 198.601 107.458 197.313 106.158 194.128 L 101.386 182.442 L 100.449 182.442 Z" style="fill: rgb(206, 81, 114);"/>
  <path class="s26" d="M 98.761 173.854 C 98.099 171.807 99.269 169.629 101.417 168.909 C 103.554 168.195 105.915 169.185 106.784 171.16 L 109.809 178.036 L 101.153 181.248 L 98.761 173.854 Z" style="fill: rgb(227, 107, 133);"/>
  <path class="s25" d="M 109.119 178.289 L 113.789 189.458 L 128.707 186.419 C 129.695 184.499 131.165 183.246 133.118 182.661 C 133.573 183.223 133.547 184.017 133.045 184.546 C 132.617 184.993 132.295 185.463 132.079 185.959 C 134.299 186.498 136.841 186.493 138.092 186.442 C 138.534 186.425 138.906 186.741 138.936 187.151 C 138.962 187.511 138.719 187.855 138.34 187.94 C 137.26 188.19 135.952 188.254 134.412 188.13 C 135.478 188.496 136.928 188.608 137.901 188.642 C 138.507 188.659 138.983 189.121 138.978 189.688 L 138.978 190.544 C 138.978 191.056 138.585 191.489 138.052 191.579 C 134.917 192.112 131.898 191.489 128.992 189.712 L 114.689 195.648 C 112.314 196.632 109.538 195.608 108.515 193.369 L 102.684 180.681 L 109.119 178.289 Z" style="fill: rgb(235, 165, 142);"/>
  <path class="s27" d="M 109.332 178.795 L 103.493 182.442 L 102.684 180.681 L 109.119 178.289 L 109.332 178.795 Z" style="fill: rgb(222, 114, 116);"/>
  <path class="s27" d="M 113.789 189.458 L 110.278 191.922 C 110.663 189.773 111.777 188.819 113.624 189.059 L 113.789 189.458 Z" style="fill: rgb(222, 114, 116);"/>
  <path class="s25" d="M 112.086 165.173 L 112.086 167.271 C 111.148 168.909 108.11 170.028 106.168 167.271 L 106.168 162.146 L 112.086 165.173 Z" style="fill: rgb(235, 165, 142);"/>
  <path class="s27" d="M 106.168 162.146 L 112.086 165.173 L 112.086 166.591 C 109.983 167.25 108.4 165.977 106.168 162.866 L 106.168 162.146 Z" style="fill: rgb(222, 114, 116);"/>
  <path class="s25" d="M 116.424 159.917 C 116.47 161.116 116.211 162.314 115.673 163.406 C 114.969 164.824 113.489 165.769 111.822 165.854 C 110.864 165.898 109.911 165.658 109.104 165.161 L 107.065 163.901 C 106.128 163.316 105.476 162.416 105.242 161.392 C 105.418 161.173 105.574 160.941 105.698 160.694 C 106.066 159.957 106.18 159.108 106.013 158.302 C 109.394 157.717 112.464 155.264 113.762 152.266 C 114.82 153.109 115.621 154.184 116.217 155.36 C 116.244 155.544 116.262 155.729 116.269 155.917 L 116.424 159.917 Z" style="fill: rgb(235, 165, 142);"/>
  <path class="s28" d="M 109.404 156.851 C 109.787 156.744 110.206 156.71 110.59 156.829 C 110.968 156.952 111.35 157.25 111.433 157.622 L 108.053 157.617 C 108.41 157.29 108.928 156.98 109.404 156.851 Z" style="fill: rgb(101, 64, 89);"/>
  <path class="s17" d="M 109.819 159.354 L 109.819 158.95 C 109.819 158.747 109.995 158.584 110.206 158.584 C 110.424 158.584 110.594 158.747 110.594 158.95 L 110.594 159.354 C 110.594 159.557 110.424 159.722 110.206 159.722 C 109.995 159.722 109.819 159.557 109.819 159.354 Z" style="fill: rgb(66, 44, 79);"/>
  <path class="s28" d="M 116.014 157.622 L 113.928 157.622 C 113.981 157.25 114.219 156.952 114.452 156.835 C 114.689 156.716 114.948 156.75 115.182 156.851 C 115.477 156.986 115.797 157.295 116.014 157.622 Z" style="fill: rgb(101, 64, 89);"/>
  <path class="s17" d="M 114.773 159.722 C 114.626 159.722 114.502 159.608 114.502 159.468 L 114.502 158.843 C 114.502 158.702 114.626 158.59 114.777 158.59 C 114.921 158.59 115.046 158.702 115.046 158.843 L 115.041 159.468 C 115.041 159.608 114.921 159.722 114.773 159.722 Z" style="fill: rgb(66, 44, 79);"/>
  <path class="s27" d="M 111.977 161.116 L 114.446 161.116 C 114.281 161.364 113.959 161.572 113.577 161.594 C 113.302 161.606 113.034 161.549 112.79 161.464 C 112.546 161.375 112.194 161.235 111.977 161.116 Z" style="fill: rgb(222, 114, 116);"/>
  <path class="s10" d="M 111.62 163.98 C 110.775 163.969 109.948 163.508 109.451 162.866 C 110.905 162.888 112.354 162.914 113.804 162.94 C 113.281 163.558 112.464 163.997 111.62 163.98 Z" style="fill: rgb(255, 255, 255);"/>
  <path class="s25" d="M 105.563 161.82 C 105.527 162.14 105.372 162.461 105.087 162.641 C 104.792 162.822 104.404 162.816 104.062 162.737 C 103.063 162.506 102.271 161.623 102.203 160.655 C 102.177 160.294 102.25 159.912 102.494 159.631 C 102.897 159.169 103.679 159.13 104.233 159.417 C 105.077 159.851 105.672 160.93 105.563 161.82 Z" style="fill: rgb(235, 165, 142);"/>
  <path class="s27" d="M 102.908 160.143 C 103.048 160.019 103.255 159.962 103.446 159.975 C 103.643 159.98 103.83 160.053 104 160.148 C 104.528 160.447 104.874 161.015 104.884 161.594 C 104.89 161.831 104.812 162.095 104.59 162.202 C 104.44 162.275 104.253 162.253 104.103 162.174 C 103.958 162.09 103.849 161.96 103.767 161.826 C 103.643 161.617 103.571 161.369 103.648 161.144 C 103.725 160.92 103.995 160.751 104.233 160.83 C 104.145 160.603 103.963 160.407 103.752 160.277 C 103.539 160.148 103.161 160.131 102.908 160.143 Z" style="fill: rgb(222, 114, 116);"/>
</svg>