<svg xmlns="http://www.w3.org/2000/svg" viewBox="31.2 353.5 1018 1396.7"><path d="M251.4 1638.2H222v-75.9c0-11.1-9.3-19.9-20.4-19.9h-27.7c-11.1 0-20.5 8.8-20.5 19.9V1729c0 11.1 9.4 21.2 20.5 21.2h27.7c11.1 0 20.4-10.1 20.4-21.2v-72.8h29.4c5.1 0 8.6-5 8.6-10.1s-3.5-7.9-8.6-7.9zM830.1 1638.2h29.3v-75.9c0-11.1 9.5-19.9 20.6-19.9h27.7c11.1 0 20.4 8.8 20.4 19.9V1729c0 11.1-9.3 21.2-20.4 21.2H880c-11.1 0-20.6-10.1-20.6-21.2v-72.8h-29.3c-5.1 0-9.6-5-9.6-10.1s4.5-7.9 9.6-7.9z"/><path fill="#2E6B11" d="M540.2 353.5h-489c-11.1 0-20 9.7-20 20.8v69.5c0 11.1 8.9 20 20 20h489V353.5z"/><path fill="#2A5B10" d="M1049.2 443.8v-69.5c0-11.1-7.9-20.8-19-20.8h-490v110.3h490c11.1 0 19-8.9 19-20zM540.2 504.7v-40.9H69.3l1 30.7c101.4-1.7 281.9-1.9 469.9 10.2z"/><path fill="#2E6B11" d="M70.3 493.4l39.1 981.3c0 38.6 27.3 70.4 60.8 70.4h65.4v132.2c0 25.4 31.5 45.9 70.1 45.9h234.6V503.5c-188.1-12.1-368.6-11.8-470-10.1z"/><path fill="#264F0E" d="M1007.6 571.1l4.5-107.4H540.2v40.9c165.5 10.6 334 30.3 467.4 66.5z"/><path fill="#2A5B10" d="M540.2 503.5v1219.6h235.6c38.6 0 69.9-20.5 69.9-45.9V1545h65.5c33.5 0 60.6-31.7 60.6-70.4l35.7-904.5C874.2 534 705.7 514 540.2 503.5z"/><path fill-rule="evenodd" clip-rule="evenodd" fill="#F4F4F4" d="M396.3 1138.5c-15.1.1-28.6-3-40.4-9.6-11.9-6.6-19-13.6-21.5-21.3-1.5-3.8-2.6-7.4-3.2-10.6-.6-3.3-1-7.2-1-12-.1-7.4.8-14.1 2.7-20.2 1.9-6.1 4.1-11.3 6.7-15.8 2.6-4.5 4.9-7.8 6.8-10 1.9-2.2 3.3-3.7 4.2-4.2L319 1016l103.2-3.2 47.8 89.9-29.8-17c-.9.9-2.3 2.3-4.2 4.3-1.9 1.9-4.1 4.3-6.6 7.1-2.5 2.9-4.9 5.7-7.2 8.5s-3.9 5.1-4.8 6.9c-2 3.6-3 6.8-3 9.8 0 4.7 1.8 8.3 5.2 10.8 3.4 2.5 6.2 4.2 8.2 5l-31.5.4zm297.8 13.4c10.1-.4 19.3-2.6 27.6-6.7 8.4-4.1 15.5-8.7 21.4-13.9 5.9-5.2 10.3-9.7 13.2-13.4 2.9-3.7 5-6.4 6.1-8.2-2 6.2-4.5 12.2-7.4 17.8-2.9 5.6-6.7 12.5-11.3 20.5-2.9 5.4-4.9 9.1-6.1 11.2-2.3 5.1-4.8 10.3-7.4 15.6-6.4 13.7-11.6 24.6-15.7 32.6s-8.6 15.8-13.5 23.2c-5 7.4-10.1 13.4-15.3 17.9-5.3 4.5-10.7 6.8-16.3 6.8-3.8 0-21.4.2-52.7.5l.3 36.3-54.9-87.4 54.1-86.6-.1 34.6c51.1-.6 77.1-.8 78-.8zM492.8 850.1c10-.3 29.2-.5 57.6-.8 28.7-.2 49.7.3 63.2 1.9 13.5 1.5 22 5.3 25.6 11.5.6 1.2 2.2 4 4.7 8.6 2.6 4.5 5.6 9.6 9 15.2 3.4 5.6 6.2 10.1 8.3 13.6 2.1 3.5 3.6 6.2 4.5 7.9l31.3-18.5-43 96.6-106.8-8.8 29.5-17.6-37.8-63.7c-5.7-10-12.3-18.1-19.7-24.4-7.5-6.3-14.8-10.8-22.1-13.5-7.3-2.7-13.3-4.4-18.2-5.1-4.9-.7-8.5-1-10.9-1 6.5-1 14.7-1.6 24.8-1.9zm-138.6 288.2c-11.3-5.1-18.9-11.5-22.8-19.1 1.2 2.1 3.1 5.4 5.6 9.9 2.5 4.6 6 10.6 10.4 18.3 4.4 7.6 8.9 15.7 13.7 24.2 4.8 8.5 8.3 14.8 10.4 18.9 1.2 2.4 2 4 2.3 4.9 3.6 7.6 7 14.5 10.1 20.5 3.2 6 6.8 12.3 10.8 18.7 4 6.4 8.2 11.8 12.6 15.8 4.3 4.1 8.4 6.1 12.2 6.1l115.6-1.1-1-110.9c-68.2.6-115.2 1.1-140.9 1.3-14.8.1-27.8-2.4-39-7.5zm328.4-3.8c-5.2-8.2-16.5-25.6-33.7-52.2-17.2-26.6-27.3-42.2-30.3-46.9l90.8-54.9c.9 1.5 3 5.3 6.3 11.5s7.4 13.7 12.2 22.5c9.9 18.5 17.3 32.3 22.1 41.2 4.8 9 8.3 15.2 10.4 18.7 1.5 2.7 2.3 6 2.3 10.2.1 5.6-1.2 12-3.8 19.1-.9 1.8-2.8 4.6-5.9 8.5-3 3.9-7.4 8.4-13.2 13.6-5.7 5.2-12.8 10-21.3 14.2-8.5 4.2-17.7 6.5-27.4 6.9-.4 0-3.2-4.2-8.5-12.4zM470 1014l-90-49.8c.9-1.5 5-8.2 12.2-20.1 1.5-2.4 5.1-8.5 11.1-18.4 6-9.8 11.3-18.5 15.9-26.2 4.7-7.6 8.4-13.9 11.3-19 2.9-5.1 4.9-8.5 6.1-10.3 2-3.6 5-6.3 9-8.1 4-1.8 9.8-3.5 17.4-5 3 0 6.9.3 12 1 5 .7 11.2 2.4 18.4 5.2 7.3 2.7 14.5 7.1 21.8 13.1 7.3 6 13.6 13.9 19 23.6l1.4 2.2c1.5 2.4 2.8 4.6 4.1 6.6L470 1014z"/></svg>