<?xml version="1.0" encoding="utf-8"?>
<svg viewBox="0 0 500 371" xmlns="http://www.w3.org/2000/svg">
  <defs>
    <linearGradient gradientUnits="userSpaceOnUse" x1="98.165" y1="-10.422" x2="98.165" y2="389.402" id="gradient-0" gradientTransform="matrix(-0.998904, -0.046811, 0.046646, -0.995389, 283.193575, 384.126279)">
      <stop offset="0" style="stop-color: rgba(90, 17, 235, 1)"/>
      <stop offset="1" style="stop-color: rgba(53, 10, 140, 1)"/>
    </linearGradient>
    <linearGradient gradientUnits="userSpaceOnUse" x1="305.157" y1="55.123" x2="305.157" y2="266.49" id="gradient-1">
      <stop offset="0" style="stop-color: rgba(90, 17, 235, 1)"/>
      <stop offset="1" style="stop-color: rgba(53, 10, 140, 1)"/>
    </linearGradient>
    <linearGradient gradientUnits="userSpaceOnUse" x1="325.438" y1="64.231" x2="325.438" y2="256.588" id="gradient-2">
      <stop offset="0" style="stop-color: rgba(90, 17, 235, 1)"/>
      <stop offset="1" style="stop-color: rgba(53, 10, 140, 1)"/>
    </linearGradient>
    <linearGradient gradientUnits="userSpaceOnUse" x1="303.578" y1="69.324" x2="303.578" y2="284.378" id="gradient-3" gradientTransform="matrix(-0.000064, 1, -1.850947, -0.000135, 648.769387, -20.018714)">
      <stop offset="0" style="stop-color: rgba(90, 17, 235, 1)"/>
      <stop offset="1" style="stop-color: rgba(53, 10, 140, 1)"/>
    </linearGradient>
  </defs>
  <path d="M 89.951 64.074 L 99.841 60.352 C 109.754 56.344 129.559 49.316 144.952 64.074 C 160.447 78.835 171.639 116.788 188.474 124.027 C 205.355 131.546 228.125 109.055 244.19 120.301 C 260.358 131.546 270.207 176.528 286.27 187.774 C 302.44 199.018 325.206 176.528 344.867 169.007 C 364.575 161.769 381.69 168.798 396.987 184.048 C 412.442 199.018 426.598 221.509 446.258 213.987 C 465.966 206.75 491.692 168.798 511.298 161.559 C 531.062 154.037 545.212 176.528 551.998 187.774 L 559.128 199.018 L 546.207 266.49 L 537.028 266.49 C 527.883 266.49 509.423 266.49 491.202 266.49 C 472.882 266.49 454.421 266.49 436.203 266.49 C 417.881 266.49 399.42 266.49 381.201 266.49 C 362.879 266.49 344.416 266.49 326.199 266.49 C 307.875 266.49 289.419 266.49 271.198 266.49 C 252.874 266.49 234.415 266.49 216.193 266.49 C 197.87 266.49 179.409 266.49 161.192 266.49 C 142.87 266.49 124.408 266.49 106.189 266.49 C 87.867 266.49 69.408 266.49 60.47 266.49 L 51.187 266.49 L 89.951 64.074 Z" style="fill: url(#gradient-1); fill-opacity: 0.73;" transform="matrix(0.135675, 0.990753, -0.990753, 0.135675, 423.074869, -163.346706)"/>
  <path d="M 32.816 72.377 L 42.141 68.99 C 51.372 65.342 70.222 58.946 93.253 72.377 C 116.397 85.81 144.426 120.35 165.925 126.938 C 187.591 133.781 203.289 113.312 225.603 123.547 C 248.03 133.781 277.496 174.717 299.808 184.951 C 322.236 195.184 337.931 174.717 356.417 167.872 C 375.073 161.285 396.793 167.682 419.922 181.561 C 443.11 195.184 467.987 215.652 486.472 208.807 C 505.128 202.221 517.666 167.682 536.21 161.094 C 554.809 154.249 579.68 174.717 591.797 184.951 L 604.292 195.184 L 618.06 256.588 L 607.974 256.588 C 597.925 256.588 577.641 256.588 557.619 256.588 C 537.488 256.588 517.203 256.588 497.185 256.588 C 477.052 256.588 456.766 256.588 436.747 256.588 C 416.614 256.588 396.326 256.588 376.309 256.588 C 356.174 256.588 335.894 256.588 315.872 256.588 C 295.737 256.588 275.454 256.588 255.431 256.588 C 235.297 256.588 215.012 256.588 194.995 256.588 C 174.862 256.588 154.575 256.588 134.556 256.588 C 114.423 256.588 94.14 256.588 84.318 256.588 L 74.118 256.588 L 32.816 72.377 Z" style="fill: url(#gradient-2); fill-opacity: 0.4;" transform="matrix(-0.287173, 0.957879, -0.957879, -0.287173, 572.547826, -105.255419)"/>
  <rect x="-20.317" y="-10.422" width="236.964" height="399.824" style="stroke: rgb(0, 0, 0); stroke-width: 0px; fill: url(#gradient-0);"/>
  <path fill-opacity="1" d="M 60.961 78.432 L 69.995 74.644 C 78.999 70.566 97.169 63.415 115.019 78.432 C 132.97 93.45 150.968 132.065 168.849 139.43 C 186.827 147.081 205.059 124.197 222.922 135.639 C 240.887 147.081 258.86 192.847 276.721 204.289 C 294.688 215.73 312.916 192.847 330.854 185.195 C 348.889 177.831 367.007 184.982 384.853 200.498 C 402.804 215.73 420.864 238.613 438.8 230.96 C 456.835 223.596 475.123 184.982 493.058 177.617 C 511.096 169.964 529.151 192.847 537.894 204.289 L 546.975 215.73 L 546.715 284.378 L 537.694 284.378 C 528.706 284.378 510.562 284.378 492.653 284.378 C 474.648 284.378 456.503 284.378 438.597 284.378 C 420.589 284.378 402.445 284.378 384.538 284.378 C 366.53 284.378 348.384 284.378 330.479 284.378 C 312.469 284.378 294.33 284.378 276.421 284.378 C 258.411 284.378 240.269 284.378 222.359 284.378 C 204.35 284.378 186.206 284.378 168.301 284.378 C 150.293 284.378 132.148 284.378 114.241 284.378 C 96.233 284.378 78.091 284.378 69.306 284.378 L 60.182 284.378 L 60.961 78.432 Z" style="fill: url(#gradient-3);" transform="matrix(-0.049323, 0.998783, -0.998783, -0.049323, 495.18755, -117.635261)"/>
</svg>