<svg xmlns="http://www.w3.org/2000/svg" viewBox="0 0 500 883"><defs><linearGradient id="A" x1="227.5" x2="227.5" y1="-45.096" y2="310.75" gradientTransform="matrix(.015564 -.99988 1.132 .017576 91.437 672.9)" gradientUnits="userSpaceOnUse"><stop stop-color="#542fe4" offset="0"/><stop stop-color="#7558e9" offset="1"/></linearGradient><linearGradient id="B" x1="227.5" x2="227.5" y1="-45.096" y2="310.75" gradientTransform="matrix(.015564 -.99988 1.132 .017576 87.456 676.9)" gradientUnits="userSpaceOnUse"><stop stop-color="#542fe4" offset="0"/><stop stop-color="#7558e9" offset="1"/></linearGradient><linearGradient id="C" x1="227.5" x2="227.5" y1="-45.096" y2="310.75" gradientTransform="matrix(.015564 -.99988 1.132 .017576 94.633 687.76)" gradientUnits="userSpaceOnUse"><stop stop-color="#542fe4" offset="0"/><stop stop-color="#7558e9" offset="1"/></linearGradient></defs><path d="M107.45 587.16c.616 25.992 41.286.729 64.051 28.964 19.199 23.812 80.288 13.859 86.316 14.055 49.964 1.627 58.053 41.873 97.893 20.39 34.973-18.858 53.412 20.603 87.824 10.778 40.115-11.453 28.264 33.976 59.098 19.807 51.17-23.514-7.168 110.06 21.761 104.23 34.673-6.992 19.312 159.5 19.312 159.5s-147.19-53.405-126.71-62.354c13.366-5.841-40.076-33.676-72.745-35.901-25.535-1.739-62.695 11.619-93.333.574-32.662-11.774-61.485 1.6-102.69-.205-47.51-2.081-45.443-17.805-94.483-20.319-72.875-3.736-98.908-81.416-99.076-81.584s-17.596-41.314-17.596-41.314-20.979-110.6-26.457-211.96c-1.592-29.468 36.826-115.81 87.996-92.297 30.834 14.169 18.983-31.26 59.098-19.807 34.412 9.825 52.851-29.636 87.824-10.778 39.84 21.483 47.929-18.763 97.893-20.39 6.028-.196 67.117 9.757 86.316-14.055 22.765-28.235 56.295-12.013 56.432-33.968.097-15.557-24.162-20.872-39.683-24.566-32.221-7.668-68.703 13.09-99.341 2.045-32.662-11.774-61.485 1.6-102.69-.205-47.51-2.081-45.443-17.805-94.483-20.319-72.875-3.736-98.908-81.416-99.076-81.584s-17.596-41.314-17.596-41.314l2.151-126.73c0-.52 43.647 5.371 69.799-3.681C36.02-6.477 55.572 6.264 77.869 21.455c29.457 20.069 67.097-2.752 89.862 25.483 19.199 23.812 80.288 13.859 86.316 14.055 49.964 1.627 58.053 41.873 97.893 20.39 34.973-18.858 53.412 20.603 87.824 10.778 40.115-11.453 28.264 33.976 59.098 19.807 51.17-23.514 59.526 129.09 59.526 129.09l3.627 54.352c0 .523 2.151 126.73 2.151 126.73l-17.596 41.314c-.168.168-26.201 77.848-99.076 81.584-49.04 2.514-46.973 18.238-94.483 20.319-41.203 1.805-70.026-11.569-102.69.205-30.638 11.045-67.798-2.313-93.333-.574-32.669 2.225-49.888 7.71-49.545 22.18z" fill="url(#A)"/><path transform="matrix(.99278 -.11992000000000001 .11992000000000001 .99278 -55.46099999999999 31.425)" d="M103.47 591.16c.616 25.992 41.286.729 64.051 28.964 19.199 23.813 80.288 13.86 86.316 14.056 49.964 1.627 58.053 41.873 97.893 20.39 34.973-18.858 53.412 20.603 87.824 10.778 40.115-11.453 28.264 33.976 59.098 19.807 51.171-23.514-7.168 110.06 21.761 104.23 34.674-6.992 19.313 159.5 19.313 159.5s-147.19-53.405-126.71-62.354c13.366-5.841-40.076-33.676-72.745-35.901-25.535-1.739-62.695 11.619-93.333.574-32.662-11.774-61.485 1.6-102.69-.205-47.51-2.081-45.443-17.805-94.483-20.319-72.875-3.736-98.908-81.416-99.076-81.584s-17.596-41.314-17.596-41.314-20.979-110.6-26.457-211.96c-1.592-29.468 36.826-115.81 87.996-92.297 30.834 14.169 18.983-31.26 59.098-19.807 34.412 9.825 52.851-29.636 87.824-10.778 39.84 21.483 47.929-18.763 97.893-20.39 6.028-.196 67.117 9.757 86.316-14.055 22.765-28.235 56.295-12.013 56.432-33.968.097-15.557-24.162-20.872-39.683-24.566-32.221-7.668-68.703 13.09-99.341 2.045-32.662-11.774-61.485 1.6-102.69-.205-47.51-2.081-45.443-17.805-94.483-20.319-72.875-3.736-98.908-81.416-99.076-81.584s-17.596-41.314-17.596-41.314l2.151-126.73c0-.52 43.647 5.371 69.799-3.681C32.041-2.476 51.593 10.265 73.89 25.456c29.457 20.069 67.097-2.752 89.862 25.483 19.199 23.812 80.288 13.859 86.316 14.055 49.964 1.627 58.053 41.873 97.893 20.39 34.973-18.858 53.412 20.603 87.824 10.778 40.115-11.453 28.264 33.976 59.098 19.807 51.171-23.514 59.527 129.09 59.527 129.09l3.627 54.352c0 .523 2.151 126.73 2.151 126.73l-17.596 41.314c-.168.168-26.202 77.848-99.077 81.584-49.04 2.514-46.973 18.238-94.483 20.319-41.203 1.805-70.026-11.569-102.69.205-30.638 11.045-67.798-2.313-93.333-.574-32.669 2.225-49.888 7.71-49.545 22.18z" fill="url(#B)" fill-opacity=".8"/><path transform="matrix(.99699 .077473 -.077473 .99699 38.484 -17.172)" d="M110.64 602.02c.616 25.992 41.286.729 64.051 28.964 19.199 23.813 80.287 13.86 86.315 14.056 49.964 1.627 58.053 41.873 97.893 20.39 34.973-18.858 53.412 20.603 87.824 10.778 40.115-11.453 28.264 33.976 59.098 19.807 51.171-23.514-7.168 110.06 21.761 104.23 34.674-6.992 19.313 159.5 19.313 159.5s-147.19-53.405-126.71-62.354c13.366-5.841-40.076-33.676-72.745-35.901-25.535-1.739-62.695 11.619-93.333.574-32.662-11.774-61.484 1.6-102.69-.205-47.51-2.081-45.443-17.805-94.483-20.319-72.875-3.736-98.908-81.416-99.076-81.584s-17.596-41.314-17.596-41.314-20.979-110.6-26.457-211.96c-1.592-29.468 36.826-115.81 87.996-92.297 30.834 14.169 18.983-31.26 59.098-19.807 34.412 9.825 52.851-29.636 87.824-10.778 39.84 21.483 47.929-18.763 97.892-20.39 6.028-.196 67.117 9.757 86.316-14.055 22.765-28.235 56.295-12.013 56.432-33.968.097-15.557-24.162-20.872-39.683-24.566-32.221-7.668-68.703 13.09-99.341 2.045-32.662-11.774-61.484 1.6-102.69-.205-47.51-2.081-45.443-17.805-94.483-20.319-72.875-3.736-98.908-81.416-99.076-81.584s-17.596-41.314-17.596-41.314l2.151-126.73c0-.52 43.647 5.371 69.799-3.681 30.765-10.649 50.317 2.092 72.614 17.283 29.457 20.069 67.097-2.752 89.862 25.483 19.199 23.812 80.287 13.859 86.315 14.055 49.964 1.627 58.053 41.873 97.893 20.39 34.973-18.858 53.412 20.603 87.824 10.778 40.115-11.453 28.264 33.976 59.098 19.807 51.171-23.514 59.527 129.09 59.527 129.09l3.627 54.352c0 .523 2.151 126.73 2.151 126.73l-17.596 41.314c-.168.168-26.202 77.848-99.077 81.584-49.04 2.514-46.973 18.238-94.483 20.319-41.203 1.805-70.026-11.569-102.69.205-30.638 11.045-67.797-2.313-93.332-.574-32.669 2.225-49.888 7.71-49.545 22.18z" fill="url(#C)" fill-opacity=".5"/></svg>