<svg xmlns="http://www.w3.org/2000/svg" viewBox="0 0 500 371"><defs><linearGradient id="A" x1="98.165" x2="98.165" y1="-10.422" y2="389.4" gradientTransform="matrix(-.9989 -.046811 .046646 -.99539 283.19 384.13)" gradientUnits="userSpaceOnUse"><stop stop-color="rgba(90, 17, 235, 1)" offset="0"/><stop stop-color="rgba(53, 10, 140, 1)" offset="1"/></linearGradient><linearGradient id="B" x1="305.16" x2="305.16" y1="55.123" y2="266.49" gradientUnits="userSpaceOnUse"><stop stop-color="rgba(90, 17, 235, 1)" offset="0"/><stop stop-color="rgba(53, 10, 140, 1)" offset="1"/></linearGradient><linearGradient id="C" x1="325.44" x2="325.44" y1="64.231" y2="256.59" gradientUnits="userSpaceOnUse"><stop stop-color="rgba(90, 17, 235, 1)" offset="0"/><stop stop-color="rgba(53, 10, 140, 1)" offset="1"/></linearGradient><linearGradient id="D" x1="303.58" x2="303.58" y1="69.324" y2="284.38" gradientTransform="matrix(-6.4e-5 1 -1.8509 -.000135 648.77 -20.019)" gradientUnits="userSpaceOnUse"><stop stop-color="rgba(90, 17, 235, 1)" offset="0"/><stop stop-color="rgba(53, 10, 140, 1)" offset="1"/></linearGradient></defs><path transform="matrix(.13568 .99075 -.99075 .13568 423.07 -163.35)" d="M89.951 64.074l9.89-3.722c9.913-4.008 29.718-11.036 45.111 3.722 15.495 14.761 26.687 52.714 43.522 59.953 16.881 7.519 39.651-14.972 55.716-3.726 16.168 11.245 26.017 56.227 42.08 67.473 16.17 11.244 38.936-11.246 58.597-18.767 19.708-7.238 36.823-.209 52.12 15.041 15.455 14.97 29.611 37.461 49.271 29.939 19.708-7.237 45.434-45.189 65.04-52.428 19.764-7.522 33.914 14.969 40.7 26.215l7.13 11.244-12.921 67.472h-9.179-45.826-54.999-55.002-55.002-55.001-55.005-55.001-55.003H60.47h-9.283L89.951 64.07z" fill="url(#B)" fill-opacity=".73"/><path transform="matrix(-.28717 .95788 -.95788 -.28717 572.55 -105.25999999999999)" d="M32.816 72.377l9.325-3.387c9.231-3.648 28.081-10.044 51.112 3.387 23.144 13.433 51.173 47.973 72.672 54.561 21.666 6.843 37.364-13.626 59.678-3.391 22.427 10.234 51.893 51.17 74.205 61.404 22.428 10.233 38.123-10.234 56.609-17.079 18.656-6.587 40.376-.19 63.505 13.689 23.188 13.623 48.065 34.091 66.55 27.246 18.656-6.586 31.194-41.125 49.738-47.713 18.599-6.845 43.47 13.623 55.587 23.857l12.495 10.233 13.768 61.404h-10.086-50.355-60.434-60.438-60.438-60.437-60.441-60.436-60.439-50.238-10.2L32.816 72.378z" fill="url(#C)" fill-opacity=".4"/><path fill="url(#A)" d="M-20.316999435425-10.421999931335h236.960006713867v399.820007324219H-20.316999435425z"/><path transform="matrix(-.049323 .99878 -.99878 -.049323 495.19 -117.64)" d="M60.961 78.432l9.034-3.788c9.004-4.078 27.174-11.229 45.024 3.788 17.951 15.018 35.949 53.633 53.83 60.998 17.978 7.651 36.21-15.233 54.073-3.791 17.965 11.442 35.938 57.208 53.799 68.65 17.967 11.441 36.195-11.442 54.133-19.094 18.035-7.364 36.153-.213 53.999 15.303 17.951 15.232 36.011 38.115 53.947 30.462 18.035-7.364 36.323-45.978 54.258-53.343 18.038-7.653 36.093 15.23 44.836 26.672l9.081 11.441-.26 68.648h-9.021-45.041-54.056-54.059-54.059-54.058-54.062-54.058-54.06-44.935-9.124l.779-205.95z" fill="url(#D)"/></svg>