<svg xmlns="http://www.w3.org/2000/svg" xmlns:xlink="http://www.w3.org/1999/xlink" width="2757" height="2305" viewBox="0 0 3380 1507"><style><![CDATA[.D{mix-blend-mode:screen}.I{mix-blend-mode:multiply}.K{mix-blend-mode:screen}.Q{mix-blend-mode:multiply}.U{mix-blend-mode:multiply}.o{fill:#333}.p{fill:#ffc0bb}.q{fill:#fff}.r{opacity:.3}.s{fill:#ff5b7e}.t{fill:#f99893}.u{fill:#02baa8}.v{opacity:.5}.w{opacity:.6}.x{fill:#02ccc0}.y{fill:#cfe9fa}.z{fill:#1a1a1a}.AA{fill:#9e9da2}.AB{fill:#07085b}.AC{fill:#183658}.AD{fill:#d8d9dd}.AE{fill:#122f5b}.AF{fill-rule:evenodd}]]></style><path d="M478 626.5h684.3c59.5 0 107.7 41.4 107.7 92.4v342.8h45.6V718.9c0-51 48.2-92.4 107.7-92.4h301.5c59.4 0 107.6 41.4 107.6 92.4v342.8h42.7V718.9c0-51 48.2-92.4 107.7-92.4h664.8c59.4 0 107.6 41.4 107.6 92.4v447.5c0 51-48.2 92.4-107.6 92.4h-664.8c-48.9 0-90.1-27.9-103.3-66.2H1828c-13.1 38.3-54.4 66.2-103.2 66.2h-301.5c-48.9 0-90.1-27.9-103.3-66.2h-54.5c-13.1 38.3-54.3 66.2-103.2 66.2H478c-59.4 0-107.6-41.4-107.6-92.4V718.9c0-51 48.2-92.4 107.6-92.4z" class="o"/><path d="M765.5 609.5v-85.9L919 345.9h1517.6v745.2H765.5z" class="x"/><path d="m2437.5 336.3h58.8v762.5h-58.8z" class="u"/><path d="M749.4 1074.5h279.7V353.6h21.7v720.9h325V353.6h21.7v720.9h324.9V353.6h21.8v720.9h324.9V353.6h21.7v720.9h324.9V353.6h21.8v745.2h-21.8v-8.1h-324.9v8.1h-21.7v-8.1h-324.9v8.1h-21.8v-8.1h-324.9v8.1h-21.7v-8.1h-325v8.1h-21.7v-8.1H749.4z" style="mix-blend-mode:multiply" class="x"/><path d="M2090.8 336.3h58.9v762.5h-58.9zm-346.6 0h58.8v762.5h-58.8zm-346.7 0h58.8v762.5h-58.8zm-346.7 0h58.9v762.5h-58.9z" class="u"/><g class="x"><path d="M692 1154H339.6L282 772.9l243.4-348.7 394.5-70.6L844.1 885z"/><path d="m914 523.6-208.8 618.4-21.7-5.2 236.4-783.2h24.5z" style="mix-blend-mode:multiply"/></g><g class="u"><path d="m954.4 320.5 57.2 13.3-249.2 820.2-57.2-13.4z"/><path d="M292.9 1090.7h2218.4v63.3H292.9z"/></g><g class="x"><path class="D v" d="M292.9 1090.7h2218.4v16.3H292.9z"/><path d="m339.8 785-0.4-3.4 213.8-316.7 305.7-46-190.6 632.8h-294.1zm491-342.5-265.6 40-205 303.6 31.8 246.4h261z" style="mix-blend-mode:multiply" class="AF"/><path d="M3198.7 650.1l134.7 344.6v218.1h-773.5V687.3c0-45.6 38.9-82.6 87-82.6h483c30.6 0 58.1 18.1 68.8 45.4z"/><path d="M2705.5 706.5q80.9 417.6 498.5 400.5l1.6 64.3-1.6 15.5-6.7 10.9-8.6 8.2-13 5.5-6.2.8-29.6.6h-104.2q-126.4-.2-127 .1-.6.3-47.2 0l-157.5-96.4z" opacity=".2" style="mix-blend-mode:multiply"/><path d="m3333.4 994.7h17.9v145.4h-17.9z"/></g><path d="M2702.6 1175V706.5c0-21.6 18.5-39.2 41.2-39.2H3073c17.1 0 32.6 10.3 38.6 25.5l92.7 236.2c1.7 4.3 2.6 8.9 2.6 13.6V1175c0 21.6-18.4 39.2-41.1 39.2h-422c-22.7 0-41.2-17.6-41.2-39.2zm41.2-504.9c-21.2 0-38.3 16.3-38.3 36.4V1175c0 20.1 17.1 36.4 38.3 36.4h422c21.1 0 38.2-16.3 38.2-36.4V942.6c0-4.3-.8-8.6-2.4-12.7l-92.7-236.2c-5.6-14.1-20-23.6-35.9-23.6z" class="AC AF"/><path d="m3363.6 1129.6h-12.3v-124.4h12.3c3.1 0 5.6 2.4 5.6 5.4v113.7c0 2.9-2.5 5.3-5.6 5.3z" fill="#e5be00"/><path d="M3143.3 935.8h-394c-12.3 0-22.2-9.5-22.2-21.1V708.4c0-11.7 9.9-21.1 22.2-21.1h317.2c9.5 0 17.9 5.6 21 14.1l76.8 206.2c5.1 13.8-5.6 28.2-21 28.2z" class="AC"/><path d="m3379.5 1264.2c0 28.4-20.6 51.5-45.9 51.5h-773.7v-102.9h773.7c25.3 0 45.9 23 45.9 51.4z" class="u"/><path d="m3310.4 935.8h-29.9l-86.8-221.9c-5-12.9 5-26.6 19.5-26.6z" class="AC"/><path d="m1580.2 1315.7h-436.5q-17.8-30.1-10.5-31.3 7.2-1.3 45.6-90.5l90.8-64.3 99.8-22.6 90.8 22.6 67.9 46.5 42.1 49.9 21.8 74.2z" class="o"/><path d="M1590.1 1324.7c-5.4 0-9.7-4-9.9-9-5-110.4-101-198.7-218.3-198.7-117.2 0-213.2 88.3-218.2 198.7-.2 5-4.6 9-9.9 9-5.7 0-10.2-4.5-10-9.9 5.5-120.3 110.2-216.7 238.1-216.7 128 0 232.7 96.4 238.1 216.7.3 5.4-4.3 9.9-9.9 9.9z" class="u"/><path d="m2840.5 674.7h15.3v273.7h-15.3z" class="x"/><path d="M923.5 1315.7H487q-17.7-30.1-10.5-31.3 7.3-1.3 45.6-90.5l90.9-64.3 99.7-22.6 90.9 22.6 67.8 46.5 42.2 49.9 21.7 74.2z" class="o"/><path d="M933.4 1324.7c-5.3 0-9.7-4-9.9-9-5-110.4-101-198.7-218.3-198.7-117.2 0-213.2 88.3-218.2 198.7-.2 5-4.6 9-9.9 9-5.7 0-10.2-4.5-10-9.9 5.5-120.3 110.2-216.7 238.1-216.7 128 0 232.7 96.4 238.2 216.7.2 5.4-4.3 9.9-10 9.9z" class="u"/><use xlink:href="#B" class="z"/><g class="AA"><use xlink:href="#C"/><path class="I v" d="m1288.2 1215.3c-12.7 19.3-20.1 42.1-20.1 66.5 0 69.5 59.2 125.8 132.2 125.8 27.3 0 52.7-7.9 73.8-21.4-23.4 35.5-64.9 59.2-112.2 59.2-73 0-132.2-56.3-132.2-125.8 0-43.4 23.2-81.8 58.5-104.3z"/></g><g class="AD"><use xlink:href="#D"/><path class="K r" d="m1313.1 1249.5c-9.3 13.3-14.7 29.3-14.7 46.5 0 46.4 39.6 84.1 88.4 84.1 18.1 0 34.9-5.2 48.8-14-15.8 22.7-42.9 37.6-73.7 37.6-48.8 0-88.4-37.6-88.4-84.1 0-29.2 15.7-55 39.6-70.1z"/></g><path class="D v x" d="M3333.6 1212.8c25.3 0 45.9 23 45.9 51.4 0 2.1-.2 4.2-.4 6.3-2.8-25.5-22-45.3-45.5-45.3h-773.7v-12.4z"/><use xlink:href="#B" x="-656.7" class="z"/><g class="AA"><use xlink:href="#C" x="-656.7"/><path class="I v" d="m631.5 1215.3c-12.7 19.3-20.1 42.1-20.1 66.5 0 69.5 59.2 125.8 132.3 125.8 27.3 0 52.6-7.9 73.7-21.4-23.4 35.5-64.8 59.2-112.2 59.2-73 0-132.2-56.3-132.2-125.8 0-43.4 23.2-81.8 58.5-104.3z"/></g><g class="AD"><use xlink:href="#D" x="-656.7"/><path class="K r" d="m656.4 1249.5c-9.3 13.3-14.7 29.3-14.7 46.5 0 46.4 39.6 84.1 88.4 84.1 18.1 0 34.9-5.2 48.9-14-15.9 22.7-43 37.6-73.8 37.6-48.8 0-88.4-37.6-88.4-84.1 0-29.2 15.7-55 39.6-70.1z"/></g><path d="M3006.9 1315.7h-436.5q-17.7-30.1-10.5-31.3 7.3-1.3 45.6-90.5l90.9-64.3 99.7-22.6 90.9 22.6 67.8 46.5 42.2 49.9 21.7 74.2zm-249.1-342.6v-10.5c0-1.4 1.1-2.4 2.5-2.4h115.2c1.4 0 2.5 1 2.5 2.4v10.5c0 1.3-1.1 2.4-2.5 2.4h-115.2c-1.4 0-2.5-1.1-2.5-2.4z" class="o"/><path d="m2788.7 1138.9c104.9 0 190 80.9 190 180.7s-85.1 180.7-190 180.7c-105 0-190.1-80.9-190.1-180.7s85.1-180.7 190.1-180.7z" class="z"/><g class="AA"><path d="m2788.7 1193.9c73 0 132.2 56.3 132.2 125.7 0 69.5-59.2 125.8-132.2 125.8-73.1 0-132.3-56.3-132.3-125.8 0-69.4 59.2-125.7 132.3-125.7z"/><path class="I v" d="m2714.9 1215.3c-12.7 19.3-20.1 42.1-20.1 66.5 0 69.5 59.2 125.8 132.3 125.8 27.3 0 52.6-7.9 73.7-21.4-23.4 35.5-64.8 59.2-112.1 59.2-73.1 0-132.3-56.3-132.3-125.8 0-43.4 23.2-81.8 58.5-104.3z"/></g><g class="AD"><path d="m2788.7 1235.5c48.8 0 88.4 37.7 88.4 84.1 0 46.5-39.6 84.1-88.4 84.1-48.9 0-88.5-37.6-88.5-84.1 0-46.4 39.6-84.1 88.5-84.1z"/><path class="K r" d="m2739.8 1249.5c-9.3 13.3-14.7 29.3-14.7 46.5 0 46.4 39.6 84.1 88.4 84.1 18.1 0 34.9-5.2 48.9-14-15.9 22.7-43 37.6-73.7 37.6-48.9 0-88.5-37.6-88.5-84.1 0-29.2 15.8-55 39.6-70.1z"/></g><path d="m1980.9 1297.8v-78.3c0-9.8 8.4-17.8 18.8-17.8h380.2c10.4 0 18.8 8 18.8 17.8v78.3c0 9.9-8.4 17.9-18.8 17.9h-380.2c-10.4 0-18.8-8-18.8-17.9z" class="z"/><path d="M2337.2 1317.7V1154h12.8v163.7c0 1.1-.9 1.9-2 1.9h-8.8c-1.1 0-2-.8-2-1.9zm-302.7 0V1154h12.8v163.7c0 1.1-.9 1.9-2 1.9h-8.8c-1.1 0-2-.8-2-1.9z" class="AA"/><path d="M230.5 1174.4v-16.6c0-2.1 1.8-3.8 4-3.8H383c2.2 0 4 1.7 4 3.8v16.6c0 2.1-1.8 3.7-4 3.7H234.5c-2.2 0-4-1.6-4-3.7z" class="o"/><path d="M3016.8 1324.7c-5.3 0-9.7-4-9.9-9-5-110.4-101-198.7-218.2-198.7-117.3 0-213.3 88.3-218.3 198.7-.2 5-4.6 9-9.9 9-5.7 0-10.2-4.5-10-9.9 5.5-120.3 110.2-216.7 238.2-216.7 127.9 0 232.6 96.4 238.1 216.7.2 5.4-4.3 9.9-10 9.9z" class="u"/><path d="M3010.4 687.3l90.1 248.5h-73.7l-92.9-248.5zm-105.3 0l93.6 248.5h-29l-88-248.5z" class="r q"/><path d="m1327.2 966.2q-28.3 18.1-109.3 7-50.4-33.8 16.9-39.5 67.2-5.7 95.8-37.9 24.9 52.3-3.4 70.4z" fill="#c2ddf9"/><path d="M1111.2 910v-.5c-1.4-8.7 4-17 12.4-19.9 1.5-.5 2.3-1.9 2.1-3.3l-1.2-7.9 8.4-1.2 1.2 7.9c.2 1.5 1.4 2.6 2.9 2.6 9 .6 16.6 7 18 15.7l.1.5c.2 1.5-.8 3-2.4 3.3l4.3 27.6c1.6.2 3 1.4 3.3 3.1l6.1 39.7c1 6.5-3.7 12.5-10.5 13.5l-9.6 1.3-9.5 1.3c-6.9 1-13.2-3.5-14.2-10l-6.1-39.7c-.3-1.7.7-3.2 2.2-3.9l-4.2-27.5c-1.6 0-3-1.1-3.3-2.6z" class="w y"/><path d="M1123 882.5l-.5-3.1c-.1-.7.4-1.3 1-1.4l10.2-1.4c.7-.1 1.3.4 1.4 1l.5 3.1c.1.7-.4 1.3-1 1.4l-10.2 1.4c-.7.1-1.3-.4-1.4-1z" class="s"/><path d="M1116.1 909c-.8 0-1.4-.6-1.4-1.3-.1-10.2 8-15.1 8.4-15.3.6-.4 1.4-.2 1.8.4s.2 1.4-.4 1.8c-.3.2-7.2 4.3-7.1 13.1 0 .6-.5 1.1-1.2 1.2q0 .1-.1.1z" class="q"/><g class="y"><path class="Q r" d="M1118.7 940.1l-4.2-27.5 19.2-2.7q-14.2 3.7-14.3 9.7c-.1 6-2.3 21.2 18.5 18.5q-16.8 3.8-16.6 12.3c.1 8.4.3 45 25 42l-9.5 1.3c-6.9 1-13.2-3.5-14.2-10l-6.1-39.7c-.3-1.7.7-3.2 2.2-3.9z"/><path d="M1207.7 903.6l.5-.1c9-2.5 18.3 1.4 22.5 9 .7 1.2 2.3 1.8 3.7 1.4l8.1-2.2 2.4 7.8-8.1 2.2c-1.4.4-2.4 1.7-2.3 3.1.7 8.5-4.9 16.6-13.9 19.1l-.5.1c-1.5.5-3.2-.3-3.8-1.7l-28 7.8c0 1.6-1.1 3.1-2.8 3.5l-40.6 11.3c-6.6 1.8-13.5-1.8-15.4-8.1l-2.8-8.8-2.7-8.8c-1.9-6.3 1.9-12.9 8.5-14.8l40.6-11.2c1.7-.5 3.4.2 4.3 1.6l28.1-7.8c-.3-1.5.7-3 2.2-3.4z" class="w"/></g><path d="M1238 910.9l3.2-.9c.7-.2 1.4.2 1.6.8l2.8 9.4c.2.6-.2 1.3-.8 1.4l-3.2.9c-.6.2-1.3-.2-1.5-.8l-2.9-9.4c-.2-.6.2-1.3.8-1.4z" class="s"/><path d="M1209.5 908c-.1-.7.4-1.4 1.2-1.5 10.6-1.4 16.8 5.5 17 5.8.5.6.4 1.4-.2 1.8-.5.5-1.4.4-1.9-.1-.2-.3-5.5-6.2-14.6-4.9-.6.1-1.3-.3-1.4-.9q-.1-.1-.1-.2z" class="q"/><g class="y"><path class="Q r" d="M1177.4 914.8l28.1-7.8 5.4 17.7q-5.8-12.8-12-12.1c-6.3.8-22.4.8-16.7 20q-6.3-15.3-15.1-14c-8.8 1.3-46.9 6.5-40.4 29.4l-2.7-8.8c-1.9-6.3 1.9-12.9 8.5-14.8l40.6-11.2c1.7-.5 3.4.2 4.3 1.6z"/><path d="M1190.8 871.4l.4-.3c7.4-5.3 17.6-4.7 24.3.9 1.1.9 2.8 1 4 .1l6.7-4.8 5.1 6.5-6.7 4.8c-1.2.9-1.6 2.4-.9 3.7 3.8 7.7 1.6 17.1-5.9 22.4l-.4.3c-1.3.9-3.1.8-4.1-.3l-23.3 16.6c.6 1.5.1 3.3-1.3 4.3l-33.6 24c-5.5 4-13.3 2.9-17.4-2.3l-5.8-7.4-5.8-7.3c-4.2-5.2-3.1-12.7 2.4-16.6l33.6-24c1.4-1 3.3-1 4.6 0l23.3-16.7c-.8-1.3-.5-3 .8-3.9z" class="w"/></g><path d="M1221.7 868l2.7-1.8c.5-.4 1.3-.3 1.7.2l6.2 7.8c.4.5.3 1.3-.3 1.7l-2.6 1.8c-.5.4-1.3.3-1.7-.2l-6.2-7.8c-.4-.5-.3-1.3.2-1.7z" class="s"/><path d="M1194.1 874.9c-.4-.6-.1-1.4.5-1.7 9.4-5 17.7-.5 18.1-.3.6.3.8 1.1.5 1.7-.4.6-1.2.8-1.9.5-.3-.2-7.4-3.9-15.4.3-.6.3-1.3.2-1.7-.4q-.1 0-.1-.1z" class="q"/><g class="y"><path class="Q r" d="m1166.7 892 23.3-16.7 11.7 14.7q-10.3-10-15.8-7.2c-5.6 2.8-20.5 8.2-8.1 24.3q-11.6-12.3-19.3-8.1c-7.7 4.1-41.2 21.7-26.6 40.9l-5.8-7.3c-4.2-5.2-3.1-12.7 2.4-16.6l33.6-24c1.4-1 3.3-1 4.6 0z"/><path d="M1110.8 934.2l-.4-.2c-8-4.4-11.4-13.5-8.6-21.6.5-1.4-.2-2.9-1.5-3.6l-7.2-4 4.3-7 7.2 4c1.3.7 3 .5 4-.6 5.9-6.3 15.9-8.1 24-3.6l.4.2c1.4.8 1.9 2.4 1.3 3.8l25.2 13.9c1.2-1.2 3.1-1.4 4.6-.6l36.4 20c6 3.3 8 10.6 4.5 16.2l-4.8 8-4.8 7.9c-3.5 5.7-11.1 7.6-17 4.4l-36.4-20c-1.6-.9-2.3-2.6-1.9-4.1l-25.2-13.9c-.9 1.2-2.7 1.6-4.1.8z" class="w"/></g><path d="M1095.5 908.5l-2.8-1.6c-.6-.3-.8-1.1-.5-1.6l5.2-8.5c.3-.5 1.1-.7 1.7-.4l2.8 1.5c.6.4.8 1.1.5 1.7l-5.2 8.4c-.3.6-1.1.8-1.7.5z" class="s"/><path d="M1112.9 930c-.4.6-1.3.7-1.8.2-8.5-6.3-7.4-15.3-7.4-15.7.1-.7.8-1.2 1.5-1.1.8.1 1.3.7 1.2 1.4 0 .3-.9 8 6.3 13.4.6.4.7 1.1.4 1.6q-.1.1-.2.2z" class="q"/><path class="Q r y" d="M1140.1 947.3l-25.2-13.9 9.7-15.9q-5.7 12.8-.8 16.6c4.8 3.8 15.9 14.8 26.7-2.4q-7.4 14.9-.3 20c7 5.2 37.1 27.7 50 7.4l-4.8 7.9c-3.5 5.7-11.1 7.6-17 4.4l-36.4-20c-1.6-.9-2.3-2.6-1.9-4.1z"/><path d="M1195 965.6q21.1-45.5 20.7-55 31.6 2.2 63.3 4.8l-22.9 52.1zm-85.3 4.3l-22.9-52q31.7-2.6 63.3-4.9-.4 9.5 20.7 55z" fill="#d7eef9"/><path d="m1081.9 941.9h193.8v122.9h-193.8z" fill="#edd9a4"/><g fill="#d6bb80"><path d="m1210.2 941.9h65.5v122.9h-65.5z"/><path class="U" d="M1219.1 966.6c0-1.6 1.3-2.9 2.9-2.9h44.8c1.6 0 2.9 1.3 2.9 2.9s-1.3 3-2.9 3H1222c-1.6 0-2.9-1.4-2.9-3z"/></g><path d="m1329.1 1502.3-6.9-19 0.9-21.8 4.8-2 21.8 5.7v18.1z" class="p"/><path d="m1343.9 1078.6 41.5 121.2-31.7 270.4h-35.9l-15.4-357.8z" class="AE"/><path d="M1468.1 1502.3l-6.8-19 .8-21.8 4.9-2 21.7 5.7v18.1zm-269.8-495.2q1.2-.9 36.2 11.7l5.4 11-7.2 7.4-10.9 3.5c-27.9 7.7-28.1 7-28.5 6.1-.5-.9 10-7.2 9.1-8s-17.5 3-17 1.7c.6-1.4 15.4-6.7 14.9-7.5-.5-.9-16.5 3.1-16.9 1-.4-2 17.2-5.8 16.1-7.3-1-1.5-19 2.8-19 .9-.1-1.7 19.8-6.9 26.2-8.6.8-.2 1-1.2.4-1.7-9.8-8.2-10-9.4-8.8-10.2z" class="p"/><path d="m1342.5 1084.7q56.3-6.7 82 24.4t68.6 358.4l-34.5 2.7-140.8-357z" fill="#224887"/><path d="m1334.2 872.2 27 5.3 3.2 23.9q-13.6 9.8-31 0z" class="p"/><path d="M1333.8 887.8l.4-15.6 27.4 8.1.7 5.8c-6 2.1-17.6 4.7-28.5 1.7z" fill="#fc8d84"/><path d="M1228.8 1005.3c13.8 3.2 46.2 1.6 70.8-.2.2-19.3 1-37.3 2.8-50q6.3-44.8 28.2-59.3 21.7 2.5 36.9-8.6 29.2.3 46.1 15.4 44.9 36.8 10.9 112.1l12.3 99.5q-27.8 9-141.5 3.6 5.6-31.7 4.8-63.9-36.1-1.9-71.3-7.4-1.4-7.4 0-41.2z" fill="#e4f0ff"/><path d="M1378.5 949.5c-.6 3.7-1.6 7.3-2.9 10.8-1.4 3.6-3.2 6.9-5.3 10.2-2.2 3.1-4.5 6.2-7.3 8.9-5.4 5.6-11.9 10.1-18.8 13.7-7 3.7-14.4 6.5-22 8.6-15.1 4.3-30.9 5.9-46.6 6.3-15.7.3-31.3-.7-46.8-2.7 15.6.8 31.2 1.1 46.7.3l5.8-.3 5.8-.5c3.9-.3 7.8-.8 11.6-1.4l2.9-.3 2.8-.5 5.7-1.1c1.9-.3 3.8-.8 5.7-1.2l2.8-.7c.9-.2 1.8-.5 2.7-.8 7.5-1.9 14.7-4.7 21.4-8.2 6.8-3.4 13.1-7.7 18.5-12.8 10.9-10.3 17.7-24.6 17.7-39.5.4 3.7.2 7.5-.4 11.2zm-123.8 100.1q13 1.3 26 2.1c17.3 1 34.7 1.3 52 .2 8.6-.5 17.3-1.4 25.8-2.8 8.5-1.3 16.9-3.2 25.1-5.9 8.1-2.6 16-6.1 23.1-10.8 7.2-4.6 13.3-10.6 17.8-17.7-3.9 7.5-9.9 13.8-16.9 18.9s-14.9 9-23.2 11.8c-16.5 5.9-34.1 8.4-51.5 9.5-17.5 1-35 .6-52.4-.9-17.4-1.4-34.7-3.9-51.7-7.5 8.6 1.2 17.2 2.3 25.9 3.1z" fill="#a2adbe"/><path d="M1286.7 1503c0-1.9 1.6-3.4 3.5-3.4l63.4-.2c1.9 0 3.5 1.5 3.5 3.4 0 1.8-1.6 3.3-3.5 3.4l-63.3.1c-2 0-3.6-1.5-3.6-3.3z" class="AE"/><path d="M1353.8 1478.9l2.4 18.8c.3 2.3-1 4.4-2.8 4.4l-62.1.2c-1.6 0-3.2-1-4-2.8-.9-1.8-1.1-4.6 1.7-8.3 5.4-7.4 23.4-9.4 32.4-15.6q.3-.2.6-.2l28.6-.1c1.6 0 3 1.6 3.2 3.6z" fill="#3660ac"/><path d="M1325.1 1485.9c-1-2.2-4.3-7.7-11.2-6.5-.5 0-.9-.3-.9-.9-.1-.6.2-1.2.6-1.2 7.8-1.4 11.6 4.9 12.8 7.5.3.5.1 1.2-.3 1.5-.4.2-.8 0-1-.4zm-6.5 2.4c-1-2.2-4.2-7.7-11.2-6.5-.4.1-.8-.3-.9-.9s.2-1.1.7-1.2c7.7-1.3 11.6 4.9 12.8 7.5.3.5.1 1.2-.4 1.5-.3.2-.8 0-1-.4zm-6 2.3c-1-2.2-4.2-7.7-11.2-6.5-.4 0-.8-.3-.9-.9 0-.6.3-1.2.7-1.3 7.7-1.3 11.6 5 12.8 7.5.3.6.1 1.3-.3 1.6-.4.2-.9 0-1.1-.4z" class="q"/><path d="M1424.3 1503c0-1.9 1.6-3.4 3.6-3.4l63.3-.2c2 0 3.5 1.5 3.6 3.4 0 1.8-1.6 3.3-3.6 3.4l-63.3.1c-2 0-3.6-1.5-3.6-3.3z" class="AE"/><path d="M1491.5 1478.9l2.3 18.8c.3 2.3-1 4.4-2.8 4.4l-62.1.2c-1.6 0-3.2-1-4-2.8-.9-1.8-1.1-4.6 1.7-8.3 5.5-7.4 23.4-9.4 32.4-15.6q.3-.2.6-.2l28.6-.1c1.6 0 3 1.6 3.3 3.6z" fill="#3660ac"/><path d="M1462.7 1485.9c-1-2.2-4.3-7.7-11.2-6.5-.4 0-.8-.3-.9-.9s.2-1.2.7-1.2c7.7-1.4 11.5 4.9 12.8 7.5.2.5.1 1.2-.4 1.5-.4.2-.8 0-1-.4zm-6.4 2.4c-1-2.2-4.3-7.7-11.2-6.5-.5.1-.9-.3-.9-.9h-.1c0-.6.3-1.1.7-1.2 7.8-1.3 11.6 4.9 12.8 7.5.3.5.1 1.2-.3 1.5-.4.2-.8 0-1-.4zm-6 2.3c-1-2.2-4.3-7.7-11.2-6.5-.5 0-.9-.3-.9-.9-.1-.6.2-1.2.6-1.3 7.8-1.3 11.6 5 12.8 7.5.3.6.1 1.3-.3 1.6-.4.2-.8 0-1-.4z" class="q"/><path d="M1309.8 806.1q.8-1.7 10.9 4.9l-12.6 28.2-.1-22.6q1.1-8.7 1.8-10.5z" class="o"/><path d="M1315 839.9c1.4 4.5-.5 9-4.3 10.1-3.7 1.1-8-1.7-9.4-6.1-1.4-4.5.5-9.1 4.3-10.1 3.7-1.1 8 1.6 9.4 6.1z" class="t"/><path d="M1309.4 842.2q-.1-1.7-.2-3.3c-.4-4.5.1-9.2 1.7-13.9 5-15.2 20.2-25.6 36.9-25.3 22.6.4 39.4 18.8 37.4 39.6 2.5-1 5.2-1.1 7.4.1 4.3 2.3 5.4 8.4 2.3 13.5-3 5.1-9 7.4-13.3 5.1q-.9-.5-1.6-1.2c-3.6 17.5-20.2 29.8-38.4 27.9-18-1.9-32.1-15.2-32.2-42.5z" class="p"/><path d="M1339.2 841q-.1 1.6-.5 3.2c-.3 1.1-.7 2.1-1.6 3.1l-.3.4-.3.3c-.2.1-.4.2-.5.4q-.4.4-.5.9c-.2.7 0 1.4.4 2.2 1 1.5 2.9 2.4 4.9 3.1-2.1.2-4.6-.3-6.2-2.2-.9-.8-1.4-2.2-1.1-3.5.1-.7.4-1.3.8-1.8.2-.3.5-.5.7-.7.2-.1.2-.2.3-.2l.2-.2c1-1.3 1.6-3.3 2-5.2.5-1.9.8-3.9 1.2-6 .5 2.1.7 4.2.5 6.2z" class="t"/><path d="M1354.4 836.6c1.9.2 3.2 1.8 3 3.5s-1.9 3-3.7 2.8-3.1-1.7-2.9-3.5c.2-1.7 1.8-3 3.6-2.8zm-28.6-1.2c1.9.2 3.2 1.8 3 3.5s-1.9 3-3.7 2.8-3.1-1.7-2.9-3.5c.2-1.7 1.8-3 3.6-2.8z" class="o"/><path d="M1346.8 864.7c-2.2.8-4.6 1.2-7 1.2q-1.8-.1-3.5-.5-1.7-.5-3.3-1.2l-2.9-1.9q-1.4-1-2.5-2.3c1.7 1.4 3.6 2.7 5.7 3.6s4.3 1.4 6.6 1.4c2.2.1 4.5-.2 6.6-.9q1.7-.4 3.2-1.1 1.6-.7 3.1-1.6c-1.8 1.5-3.8 2.5-6 3.3z" class="t"/><g class="o"><path d="M1352.6 829.4c1.7-.4 3.7-.3 5.5.2 1.8.4 3.5 1.3 4.8 2.6.7.5 1.2 1.3 1.7 2q.7 1.1 1.1 2.3c-.8-.5-1.4-1-2.1-1.5-.7-.4-1.3-.9-2-1.3-1.3-.8-2.8-1.3-4.2-1.7q-2.2-.6-4.6-.6c-1.6 0-3.2.1-5 .3 1.3-1.1 3-1.9 4.8-2.3zm-24.4.8q-2.4-.3-4.7.1c-1.4.2-2.9.6-4.4 1.3-.7.2-1.4.7-2.1 1-.8.4-1.4.9-2.3 1.2q.6-1.1 1.4-2.1c.6-.6 1.2-1.3 2-1.8 1.4-1.1 3.2-1.8 5-2.1 1.9-.3 3.8-.1 5.5.5 1.8.6 3.3 1.5 4.5 2.8l-4.9-.9zm-17.4-34.5q-11.2-1.3 1.9-8.4c13.1-7.2 46-12.9 64.3.1q5.3-7.5 10.8-4.7 5.5 2.8-5 6.9 7.4.9 9.1 4.7c1.2 2.8-3.3 2.2-5.7 1.7 4 1.3 18.5 13.4 5.3 43q-2.7-1-15.4-26-40.6 14.2-34.3-1-42.6 17.2-34-1-15.1-1.2 3-15.3z"/><path d="M1391.5 839.2q-2.9-1.5-6.6.5-3.8 2.1-4.9 10.9-17.5 7.4-9-33.6 9.1-43.6 12.7 5.5z"/></g><path d="M1767.8 952.7l-3.1-12.5 7.7-22.7 3.2 4.2q5.3-6.7 11.6-14.9l.5.1c2.6.7 3.3 5.2.4 11.3l-2.3 4.8c-.7 3.1.6 8 3.1 14.1z" class="p"/><path d="m1938.3 953.1q-84.8 55.6-98.5 50.1c-13.7-5.4-63.9-53.1-63.9-53.4q-1.2-14.9 8.9-26.9l62.4 35.5 93.8-61.3z" fill="#f4a640"/><path d="M1814.8 1129.7c-33.7-4.3-60.3 24.2-116.3-8-54.4-31.3-46.6-44.6-45.9-79.5.7-35 31.7-67.1 57.8-88 14.8-11.9 32.9-17.6 50.9-17.5l-9-38q15.2 9.2 37.5 3.2-5.5 22.4-17.6 35.6c18.7 2.6 36.5 11.6 49.5 26.6q.4.5.8.9c22.2 26 10.8 53.6 18.8 87.5 9.1 38.8 7.2 81.5-26.5 77.2z" class="o"/><path d="M1760.9 932.1l.4 4.6c-2.3.2-4.6-1-5.1-3.1l-5.2-24.1c-.3-1.1.2-2.4 1.2-3.1 3.1-2.3 9.6-6.9 11.1-6.2 1.9.9-7.7 9-7 9.5.8.5 11.8-3.5 12.2-2.2.3 1.2-10.1 6.6-9.9 7.3.1.7 10.6-1.4 11.3-.2.6 1-9.9 4.7-10 5.2zm95.4 562.5l34.5-20.2 21.1 17.6-9 6.1-31.3 4.1q-12.2-1.5-12.7-1.8-.6-.3-2.6-5.8z" class="p"/><path d="M1911.9 1492l-.1 11.4c0 1.9-1.6 3.5-3.7 3.5l-57.2-.4c-4.2 0-5.7-5.1-2.2-7.2l7.6-4.7c4.2 5.1 17.4 8.7 55.6-2.6z" class="AB"/><path d="m1970.3 826.3-50.6 5.9c-3.8-15.7 9.6-39.9 25.5-44.8 15.8-5 37.3-2.8 55 12.9q17.7 15.6 3.2 47z" class="o"/><path d="M1986.1 1085.2q-5.8.8-11.6 1.4-11.7 1.2-23.5 1.5-5.9.1-11.8-.1c-3.9-.1-7.8-.3-11.7-.6-3.9-.4-7.8-.9-11.7-1.5q-5.8-1.1-11.4-2.6 5.7 1.4 11.5 2.3c3.8.6 7.7 1.1 11.6 1.4q5.9.5 11.7.6 5.9.2 11.8 0c7.8-.1 15.6-.6 23.4-1.3q5.9-.6 11.7-1.3c3.9-.5 7.8-1.1 11.6-1.7-3.8.7-7.7 1.3-11.6 1.9z" fill="#daeef7" class="v"/><path d="M1896.5 1492.7l-14.2-13.5 5.1-26.8 1.8-1.9 29.8 3-7.1 38.5zm169.9.9l13.4-36.4 28 1-3 10.1-21.5 22q-10.4 6.2-11.1 6.2-.6.1-5.8-2.9z" class="p"/><path d="M2107.8 1458.2l7.5 8.9c1.3 1.5 1 3.7-.6 4.9l-44.6 34.1c-3.3 2.4-7.9-.6-6.5-4.4l2.8-8.1c6.7 1.4 19.2-3.7 41.4-35.4z" class="AB"/><path d="M2096.3 1468l-19.9-2-13.9-23.8.1-2.6 25.2-15.6 20 34.2zm35.8-628.9c.4.6 1.4.6 1.8-.1 2.8-5.3 11.9-22 13.5-21.7 1.9.5-5.8 15.6-4.6 16.9 1.3 1.2 8.5-13.7 10.4-13 2 .8-5.1 14.3-4.4 14.9s8.9-11.6 10.3-11.8c1.5-.2-5.6 13.8-5 14.8.7 1 8.9-7.2 9.7-6.6s1.5.9-11.5 24.2l-5.6 9-8.7 5-9.8-7q-5.6-33.6-4.5-34.5c1.1-.9 2.2-.5 8.4 9.9z" class="p"/><path d="m1960.5 1100.2-9 159.5q-13.5 168.6-30.6 204h-38l18.6-396.1h56.7z" fill="#1e1e1e"/><path d="m1899.4 1113.2 2.1-45.6 45.3-1.1 1 4.4 51.7-6.1q42.5 52.1 32.5 135-10.1 82.9-7.9 112.6 54.8 47.9 71.6 117-24.1 15.9-40.3 18.6-80.5-116.9-86.6-130.8c-3.7-8.2-15.9-94-25.2-161.7 0 0-40.3-28.1-44.2-42.3z" fill="#3a2645"/><path d="M1891.6 965.5c2.8-24.5 15.7-46.8 35.6-62.2 2.4-1.9 5.2-3.2 8.2-3.9 8.3-1.9 19-2.2 24.3-2.3h17.2q27.8 1.5 40.2 5.1c12.3 3.7 60.9 24.2 66.3 21.3q5.4-2.9 43.2-68.2l20.8 10.3q-13.1 91.3-49.4 98.1-36.2 6.7-71.7-2.1-6.9 91.7-24.7 107.8-70 4.6-96.1 1.7c-4.7-.5-8.5-4-9.2-8.4-2.8-16.4-8.9-59.5-4.7-97.2z" fill="#feb546"/><g class="p"><path d="M1914 915.6c3.9-4.4 8.3-8.6 13.1-12.3 2.4-1.9 5.3-3.2 8.3-3.9 8.3-1.9 19-2.2 24.3-2.3h17.2q4.8.3 11.2.8c-14 10.1-40.1 23.8-74.1 17.7z"/><path d="M1970.6 904.2l-32.7.6c.7-6.9 1.2-16 0-19.3q-2-5.6 34.4-6.4-1.9 14.3-1.7 25.1z"/></g><path d="M1972.3 879.1q-.8 5.8-1.3 12.8c-6.6 5.1-15.2 7.7-24.1 6.6-3-.4-5.8-1.1-8.4-2.2.2-4.6.2-8.8-.6-10.8q-2-5.6 34.4-6.4z" class="t"/><path d="M1983.5 836.7q17.5 1.4 32.3 18c14.9 16.7 16.1 55.3-13 74.2s-42.7 17.1-53.3 38.3q-13.3-24.2 9.5-51.1-7.4 1.1-12.4 7-.1-22.1 19.8-32.6c19.9-10.6 25.2-28.8 12.3-34.8q-12.8-6 4.8-19z" class="o"/><path d="M1924.8 839.1c.9 4.7-1.6 9-5.5 9.7-4 .7-7.9-2.6-8.8-7.3s1.6-9 5.6-9.7c3.9-.7 7.9 2.6 8.7 7.3z" class="t"/><path d="M1919 858.2c-1-6-.7-12.2-.1-17.4q.2-1.7.2-3.4c.2-4.6 1.3-9.3 3.4-13.9 7-14.8 23.7-23.6 40.5-21.4 22.8 2.9 37.6 23.5 32.9 44.3 2.7-.8 5.4-.6 7.5.9 4.1 2.8 4.4 9 .7 13.9-3.7 4.8-10 6.5-14.1 3.7q-.9-.6-1.5-1.4c-5.8 17.3-24.1 27.9-42.3 23.9-13.8-3-25.2-14-27.2-29.2z" class="p"/><path d="M1963.9 842.8c2 .4 3.2 2.3 2.8 4.1-.5 1.9-2.5 3.1-4.4 2.7-2-.5-3.2-2.3-2.8-4.2.5-1.9 2.5-3 4.4-2.6zm-29.5-5c2 .5 3.2 2.3 2.8 4.2-.5 1.9-2.4 3-4.4 2.6s-3.2-2.3-2.7-4.2c.4-1.8 2.4-3 4.3-2.6zm25.7.1q1.3-.4 2.8-.7c1.9-.3 3.9-.2 5.7.3q1.5.4 2.7 1 1.3.7 2.4 1.6c1.5 1.2 2.6 2.7 3.5 4.3-1.3-1.3-2.6-2.5-4.1-3.5-.4-.3-1.7-1-2.3-1.3q-1.2-.6-2.5-.9c-1.7-.5-3.5-.6-5.3-.5q-2.7.2-5.4 1c.8-.5 1.6-.9 2.5-1.3zm-21.7-3.8c-1.7-.7-3.4-1.2-5.2-1.3q-1.3-.1-2.6 0c-.8.1-2.2.4-2.7.5-1.7.5-3.4 1.2-5.1 2 1.4-1.3 3-2.3 4.8-2.9q1.4-.5 2.8-.7 1.5-.2 2.9-.1c2 .1 3.9.7 5.5 1.6q1.3.7 2.4 1.6c.7.6 1.4 1.2 1.9 2q-2.2-1.7-4.7-2.7z" class="o"/><path d="M2026.4 961.7l-.9.2c-1.1.2-2.2.3-3.4.4q-1.7 0-3.3-.4-1.7-.3-3.2-1c-1-.4-1.9-1.1-2.8-1.7 1 .5 1.9 1 3 1.3.5.2 1 .3 1.5.5.6.1 1.1.2 1.6.2q1.6.3 3.2.2 1.2-.1 2.3-.3-1.2-1.3-2.2-2.7-1.3-1.7-2.3-3.6c-.4-.7-.7-1.3-1-2l-.7-2c-.5-1.3-.7-2.7-.9-4.1l1.4 3.9q.9 2 1.9 3.8 1.1 1.8 2.4 3.5c.8 1.1 1.8 2.2 2.8 3.2z" class="q"/><path d="M1995.9 846.4q-24.1-14.4-35.2-31.9-1.2 8.3 1.2 11.8c-1 .4-17.8-9.4-19.5-23.2q-1.7-13.8 21.9-4.6 14.4.1 15 .5c.6.4 9.5 7.8 9.9 8.3q.4.5 10.2 20.4l2.1 7.2-.9 9.2z" class="o"/><path d="M1914.1 1124.4q1.8 1.6 3.4 3.3 3.3 3.3 6.5 6.7 3.1 3.4 6.1 7 3 3.5 5.8 7.2l1.2 1.5-1.6-1.1c-1.7-1.2-3.5-2.2-5.3-3.2q-2.7-1.5-5.6-2.8-.7-.3-1.4-.6l-1.5-.5c-.4-.2-.9-.4-1.4-.6q-.8-.2-1.5-.5l-3-.8-1.6-.4-1.5-.3 1.5.3 1.6.2 1.5.4 1.6.4q3 .8 5.9 2.1 2.9 1.2 5.7 2.6l5.4 3.3-.5.4c-1.8-2.5-3.8-4.9-5.8-7.2q-2.9-3.6-6-7.1-3.1-3.5-6.3-6.8-3.2-3.4-6.7-6.5l3.5 3zm50.1 23.8q3.6-4.7 7.5-9.3 3.9-4.5 8-9 4.1-4.4 8.4-8.6l4.4-4.1c1.4-1.4 3-2.7 4.5-4q-4.4 4.1-8.6 8.4-4.2 4.3-8.2 8.8-4 4.4-7.8 9-3.1 3.7-6.2 7.5 2.4-1.6 5-2.9 3.6-1.9 7.4-3.4 3.7-1.5 7.6-2.6l4-1 1-.2 1-.1 2-.3-3 .6-.9.2-2 .5-2 .6q-.9.3-1.9.6c-.6.2-1.3.4-1.9.7l-1.9.7c-.6.2-1.2.5-1.8.8q-3.7 1.6-7.3 3.5l-6.8 4.1-2 1.4z" class="v" fill="#daeef7"/><g class="t"><path d="M1943.7 870q-7.1-.7-7.6-7.1 3.9-1.8 7.7 1.4 4.4-1.8 8.4.4-1.4 6.1-8.5 5.3z" style="mix-blend-mode:multiply" class="r"/><path d="M1950.7 865.8c-2 .6-4.2.9-6.3.7q-1.6-.1-3.1-.6-1.6-.5-2.9-1.3c-.9-.5-1.8-1.1-2.6-1.7q-1.1-1.1-2.1-2.2c1.5 1.3 3.1 2.5 5 3.4 1.8.9 3.7 1.5 5.8 1.7 2 .1 4-.1 6-.5q1.5-.4 2.9-.9 1.5-.6 2.8-1.3c-1.6 1.2-3.5 2.1-5.5 2.7zm-6.9-19.4l-2.7 4.9c-.4.8-.8 1.6-1 2.4-.1.4-.3.9 0 1.3.2.2.4.5.6.7 1.3 1.3 2.9 2.3 4.5 3.4q-1.4-.5-2.7-1.2c-.8-.4-1.7-.9-2.4-1.6-.4-.3-.9-.7-1.1-1.2-.2-.4-.1-1.1 0-1.6.2-1 .6-1.9 1-2.7q1.3-2.5 3-4.8c1.1-1.5 2.3-3 3.6-4.4l-2.8 4.8z"/></g><path d="m1159.1 1084.5h163.7l-43.7 397.9c-1.5 13.9-13.8 24.5-28.5 24.5h-173.7c-14.7 0-27.1-10.6-28.6-24.5l-43.6-397.9z" class="s"/><path d="M986.1 1094.4v-8.5c0-7.1 6.1-12.9 13.6-12.9h325.4c7.5 0 13.6 5.8 13.6 12.9v8.5c0 7.1-6.1 12.9-13.6 12.9H999.7c-7.5 0-13.6-5.8-13.6-12.9z" fill="#f44e7a"/><path d="m1246.1 1107.3-30.5 399.6h-111.7l-28.2-399.6z" opacity=".2" class="q"/><path d="M622.5 983c4.3-6.3 6.9-11.6 6.9-15.2l-1.4-6c-1.8-7.4 0-12.4 3.1-12.6h.6q5.2 10.6 9.5 19.3l4.7-4 3.2 27.3-6.5 13.5zm-187.1 500.6v-15.4l18.6-4.8 4.1 1.7.7 18.5-5.8 16.2z" class="p"/><path d="M495.5 1505.7l-64.2.6c-1.1 0-1.9-.8-2-1.8v-2.7c0-1 .9-1.9 2-1.9l64.2-.6c1.1 0 1.9.8 2 1.9v2.6c0 1.1-.9 1.9-2 1.9z" class="o"/><use xlink:href="#E" class="s"/><g class="o"><use xlink:href="#F"/><use xlink:href="#G"/><use xlink:href="#H"/></g><use xlink:href="#I" fill="#e87b50" style="mix-blend-mode:multiply" class="r"/><path d="M306 1483.6v-15.4l18.6-4.8 4.1 1.7.7 18.5-5.8 16.2z" class="p"/><path d="M366.1 1505.7l-64.2.6c-1 0-1.9-.8-2-1.8v-2.7c0-1 .9-1.9 2-1.9l64.2-.6c1.1 0 2 .8 2 1.9v2.6c0 1.1-.9 1.9-2 1.9z" class="o"/><use xlink:href="#E" x="-129.4" class="s"/><g class="o"><use xlink:href="#F" x="-129.4"/><use xlink:href="#G" x="-129.4"/><use xlink:href="#H" x="-129.4"/></g><use xlink:href="#I" x="-129.4" fill="#e87b50" style="mix-blend-mode:multiply" class="r"/><path d="M460.3 904.6l91.2 89.7 79.1-26.4q8.5 15.7 3.5 32.4c-.1.2-68.4 43.2-85.1 46.4q-16.8 3.2-99.3-78.3z" fill="#f44e7a"/><path d="m366.5 836.7q-8.9-35.5 11.8-49c20.6-13.4 42.6-12.1 57.6-4.2 15 7.8 24.1 35.6 17.5 51.5l-49.7-14.8z" class="AB"/><path d="m419.9 870 5.9 35.2-37.1 3.3 1.8-40.2z" class="p"/><path d="M389.9 882.2l.6-13.9 29.4 1.7 2.8 16.8c-16 6-26.8.7-32.8-4.6zm63.9-48.3c3.8 1.5 5.2 6.4 3.1 10.9-2 4.4-6.7 6.8-10.5 5.3-3.7-1.6-5.1-6.4-3.1-10.9s6.7-6.9 10.5-5.3z" class="t"/><path d="M410.3 882.5c-19.1 0-34.7-14.6-36.3-33.1q-.8.6-1.8 1c-4.8 2-10.7-1.1-13.2-6.7-2.5-5.7-.7-11.8 4.1-13.7 2.5-1 5.2-.6 7.7.7.4-21.7 20.1-38.9 43.5-36.8 17.3 1.6 31.8 14 35.1 30.3 1 5 1 9.9 0 14.5q-.4 1.7-.6 3.5c-3.5 28.2-19.7 40.4-38.5 40.3z" class="p"/><path d="M419.4 831.3l.5 6.3c.2 2 .5 4.2 1.4 5.5l.2.3c.1 0 .1.1.2.2.3.3.5.5.7.8.4.6.6 1.3.7 2 .1 1.4-.6 2.7-1.6 3.5-2 1.7-4.6 2-6.8 1.6 2.2-.5 4.3-1.3 5.5-2.7.5-.7.9-1.5.7-2.2q-.1-.5-.4-1c-.1-.2-.3-.3-.4-.5l-.3-.3-.3-.4c-.8-1.2-1.1-2.3-1.3-3.4q-.2-1.7-.1-3.4c.1-2.1.5-4.3 1.3-6.3z" class="t"/><path d="M402.9 837.9c-1.9 0-3.5-1.4-3.5-3.2 0-1.9 1.6-3.3 3.5-3.3s3.4 1.4 3.4 3.3c0 1.8-1.5 3.2-3.4 3.2zm29.7 2c-1.9 0-3.4-1.5-3.4-3.3s1.5-3.3 3.4-3.3 3.5 1.5 3.5 3.3-1.6 3.3-3.5 3.3z" class="o"/><path d="M410.3 827.1c-1.7-.5-3.4-.8-5.1-1q-2.4-.3-4.8.1c-1.5.3-3.1.7-4.5 1.4-.8.2-1.5.7-2.3 1.1s-1.5.9-2.3 1.3q.6-1.2 1.4-2.3c.6-.6 1.2-1.4 2-1.9 1.5-1.1 3.4-1.8 5.3-2.1 1.9-.4 3.9-.2 5.7.4s3.5 1.6 4.6 3zm15.4 1c1.3-1.3 3.1-2 4.9-2.5 1.9-.4 3.9-.4 5.7.1 1.9.5 3.7 1.4 5 2.7.8.6 1.3 1.4 1.8 2.1q.7 1.2 1.2 2.4l-2.2-1.5c-.7-.4-1.3-1-2.1-1.3-1.4-.9-2.9-1.4-4.4-1.9q-2.3-.6-4.7-.6l-5.2.5zm-54.3 3.1q-2.3-1.8-4.1-1.7l1-11.5 3.7-6.9q14.7-18.7 15.2-19.2c.5-.5 11.7-6.5 12.4-6.8q.7-.3 16.4 1.8 27.7-5.5 23.1 8.3c-4.6 13.8-24.8 21.1-25.9 20.5q3.3-3.1 3.6-11.9c-14.2 14.8-41.2 25.8-45.4 27.4z" class="AB"/><path d="M428.1 856.2c-.8 4.2-4.8 7.4-9.8 7.5-4.9.1-9.1-2.9-10.1-7z" class="q"/><path d="M379.3 899l52.1-.2 6.6 29.3-28.6 71.1q-28.6-29.2-28.6-33.4c0-4.2-13.2-35.6-11-39.8q2.2-4.2 9.5-27z" class="p"/><path d="M467.9 1470.8q-10.1 7.2-39.5 4.3L408 1176.2q44.1-44.5 66.2-75.3 1.4 86.6-6.3 369.9z" fill="#1e1e1e"/><path d="m408 1179.9-65.8 294q-15.4 5.5-42.3 0l41.3-372.6 22.5 4.4q107.1-60.9 110.5 11.7c0.2 3.5-8.4-9.4-8.4-5q-34.2 58.1-57.8 67.5z" fill="#3a2645"/><path d="M329.3 1166.8c-.6-.7-1.7-.4-2 .4-1.8 6.4-7.8 26.6-9.7 26.5-2.1 0 2.8-18.2 1.1-19.3s-6 16.8-8.3 16.3c-2.3-.4 2.2-16.6 1.3-17.1s-7 14.5-8.5 15 2.9-16.3 2-17.2-8 9.7-9.1 9.2c-1-.4-1.8-.6 7-28.9l4-11 8.3-7.3 12.3 5.6q14 35.5 13.1 36.8c-1 1.2-2.3.9-11.5-9z" class="p"/><path d="m383.9 903.6q26.1 15 46.7 0 11.7 29.4 10.6 30.5c-1.1 1-13.3 32.8-13.3 33.8 0 1.1-14.5 13.8-21.2 4.3-6.7-9.6-11.1-8.5-20-28.6s-15.6-26.4-13.4-28.6q2.3-2.1 10.6-11.4z" fill="#3c2340"/><path d="m420.4 959.5 11-60.7 26.4 4.2q28.6 6.3 17.6 213.4-83.6 25.1-136.4-6.3l4.4-127.6q-24.2 64.8-26.4 71.1t11 85.8q-6.6 10.4-24.2 8.3-19.8-56.4-22-85.7c-2.2-29.3 24.2-125.5 35.2-142.2q11-16.8 63.8-21z" class="s"/><path d="M535.4 1102c17.2-36.6 11-70.2 42.4-94.7q.5-.5 1.1-.9c18.3-14.1 40.5-20.4 62.3-19.3q-10.4-17.5-11.2-44 23.7 11.7 43.1 4.5l-19.3 41c20.3 3.8 39.4 14.2 53.3 30.9 24.5 29.3 51.7 72.4 44 112.2-7.6 39.5-2.1 56.3-71.1 79.8-71.1 24.2-94.2-13.9-133.4-16.4-39.1-2.6-30.9-51.2-11.2-93.1z" class="o"/><path d="M659.4 969.8c.1-.5-10.9-7-10-8 1-1.2 12.4 3.4 12.8 2.7.3-.8-10.1-9.1-9.5-10.4.8-1.4 12.2 5.4 13.2 5.1 1-.4-7.9-11.6-5.5-12.3 1.8-.4 8.1 6.2 11 9.5.9 1 1.2 2.5.6 3.8l-11.7 26c-1 2.3-4 3.1-6.5 2.4l1.5-5.1z" class="p"/><path d="M653.1 1084.5h163.7l-43.6 397.9c-1.6 13.9-13.9 24.5-28.6 24.5H570.9c-14.7 0-27-10.6-28.6-24.5l-43.6-397.9z" fill="#feb546"/><path d="M480.1 1094.4v-8.5c0-7.1 6.1-12.9 13.6-12.9h325.4c7.5 0 13.6 5.8 13.6 12.9v8.5c0 7.1-6.1 12.9-13.6 12.9H493.7c-7.5 0-13.6-5.8-13.6-12.9z" fill="#f4a640"/><path d="M740.1 1107.3l-30.5 399.6H598l-28.2-399.6z" opacity=".2" class="q"/><g class="q w"><path d="M623.2 1275.1l-23.1 38q-6.2 9.1-2.2 18.2l-20.5-32.8c-2.7-4.3-3.8-9.4-2.9-14.4.3-1.4.7-2.9 1.4-4q2.6-4.7 14.1-23.3l-19-10.1 47.7-1.7 21.7 39.5zm-15.2 31.2h33.6v36.9h-22.4q-24-1.8-18.2-24.2zm72.3-1.9l46.1-1q11.3.3 17.4-7.7l-18.7 33.7c-2.5 4.4-6.5 8-11.4 9.8-1.5.6-3 1-4.4 1q-5.5.4-28.2.7l.8 20.7-26.4-37.8 24.2-38.2zm35.9-3.9l-17.5-27.3 33.1-19.2 11.7 18.2q10.9 20.5-12.3 27.3z"/><use xlink:href="#J"/><path d="m656.7 1214.2-16.6 27.8-33.8-18.2 11.1-18.5q13.5-19 31.1-3.1z"/></g><path d="m1695.8 1084.5h163.7l-43.7 397.9c-1.5 13.9-13.8 24.5-28.5 24.5h-173.8c-14.7 0-27-10.6-28.5-24.5l-43.7-397.9z" fill="#67a2da"/><path d="m1523.6 1094.4v-8.5c0-7.1 6.1-12.9 13.7-12.9h325.4c7.5 0 13.6 5.8 13.6 12.9v8.5c0 7.1-6.1 12.9-13.6 12.9h-325.4c-7.6 0-13.7-5.8-13.7-12.9z" fill="#224887"/><path d="m1783.6 1107.3-30.4 399.6h-111.7l-28.2-399.6z" opacity=".2" class="q"/><path d="M1666.7 1275.1l-23.1 38q-6.1 9.1-2.2 18.2l-20.4-32.8c-2.7-4.3-3.8-9.4-2.9-14.4.3-1.4.7-2.9 1.3-4q2.6-4.7 14.1-23.3l-19-10.1 47.7-1.7 21.7 39.5zm-15.1 31.2h33.6v36.9h-22.4q-24.1-1.8-18.2-24.2zm72.2-1.9l46.1-1q11.4.3 17.5-7.7l-18.8 33.7c-2.4 4.4-6.4 8-11.4 9.8-1.5.6-2.9 1-4.3 1q-5.6.4-28.3.7l.8 20.7-26.3-37.8 24.1-38.2zm35.9-3.9l-17.5-27.3 33.1-19.2 11.7 18.2q10.9 20.5-12.2 27.3zm-38.5-58.3l-23.3-37.9q-5.2-9.6-15.5-10.8l40-.7c5.3-.1 10.5 1.5 14.6 4.7 1.2 1 2.3 2 3.1 3.1q3 4.5 14.3 23.2l18.6-10.7-22 40.2-46.8-1.5zm-21-28l-16.6 27.8-33.7-18.2 11-18.5q13.6-19 31.1-3.1z" class="q w"/><g class="q w"><path d="M1125.6 1275.1l-23.1 38q-6.2 9.1-2.2 18.2l-20.5-32.8c-2.7-4.3-3.8-9.4-2.8-14.4.2-1.4.7-2.9 1.3-4q2.6-4.7 14.1-23.3l-19-10.1 47.7-1.7 21.7 39.5zm-15.2 31.2h33.6v36.9h-22.4q-24-1.8-18.1-24.2zm72.3-1.9l46.1-1q11.3.3 17.4-7.7l-18.7 33.7c-2.5 4.4-6.5 8-11.4 9.8-1.5.6-3 1-4.4 1q-5.5.4-28.2.7l.8 20.7-26.3-37.8 24.1-38.2zm35.9-3.9l-17.5-27.3 33.1-19.2 11.7 18.2q10.9 20.5-12.3 27.3z"/><use xlink:href="#J" x="502.4"/><path d="m1159.1 1214.2-16.6 27.8-33.8-18.2 11.1-18.5q13.5-19 31.1-3.1z"/></g><path d="M2789.5 387.4q-.4-3.3-.4-6.7c0-38.3 32.7-69.4 73-69.4 12.9 0 25 3.2 35.5 8.8 14.8-38.9 54-66.6 100-66.6 38.6 0 72.4 19.6 91.1 48.9 8.1-2.4 16.7-3.7 25.6-3.7 34.6 0 64.5 19.4 78.2 47.3 4.7-1.2 9.7-1.8 14.8-1.8 27.8 0 51.1 18.5 57.1 43.2zM742.9 186.6q-.5-4.7-.5-9.4c0-53.4 45.5-96.6 101.6-96.6 18 0 34.8 4.4 49.4 12.1C914.1 38.6 968.7 0 1032.7 0c53.8 0 100.9 27.3 126.9 68.1 11.3-3.3 23.3-5.1 35.7-5.1 48.2 0 89.8 27 108.9 65.9 6.6-1.7 13.5-2.5 20.6-2.5 38.8 0 71.3 25.7 79.6 60.2zM0 408.1c4.9-20.1 23.8-35.2 46.4-35.2 4.2 0 8.2.6 12.1 1.5 11.1-22.7 35.4-38.5 63.5-38.5 7.3 0 14.3 1.1 20.9 3 15.1-23.8 42.6-39.7 74-39.7 37.4 0 69.3 22.5 81.3 54.1 8.6-4.5 18.4-7.1 28.9-7.1 32.7 0 59.3 25.3 59.3 56.4q0 2.8-.3 5.5z" class="q"/><defs ><path id="B" d="m1361.9 1138.9c105 0 190.1 80.9 190.1 180.7s-85.1 180.7-190.1 180.7c-104.9 0-190-80.9-190-180.7s85.1-180.7 190-180.7z"/><path id="C" d="m1361.9 1193.9c73.1 0 132.3 56.3 132.3 125.7 0 69.5-59.2 125.8-132.3 125.8-73 0-132.2-56.3-132.2-125.8 0-69.4 59.2-125.7 132.2-125.7z"/><path id="D" d="m1361.9 1235.5c48.9 0 88.5 37.7 88.5 84.1 0 46.5-39.6 84.1-88.5 84.1-48.8 0-88.4-37.6-88.4-84.1 0-46.4 39.6-84.1 88.4-84.1z"/><path id="E" d="M435.3 1476.9l27.4-.3q.6 0 1.1.3c8.8 5.8 26 7.4 31.3 14.4 2.8 3.5 2.6 6.2 1.8 7.9-.8 1.8-2.3 2.7-3.9 2.7l-60 .5c-1.8.1-3.1-1.9-2.9-4.1l2.1-17.9c.3-2 1.6-3.5 3.1-3.5z"/><path id="F" d="M459.2 1487c-.5-.2-.6-.9-.4-1.4 1.2-2.5 4.8-8.5 12.3-7.3.4.1.7.6.7 1.1v.1c-.1.5-.5.9-.9.8-6.7-1-9.8 4.3-10.8 6.3-.2.5-.6.6-.9.4z"/><path id="G" d="M465.4 1489.3c-.4-.3-.6-.9-.3-1.5 1.1-2.4 4.7-8.4 12.3-7.3.4.1.7.6.6 1.2 0 .6-.4.9-.9.8-6.7-1-9.8 4.3-10.7 6.4-.2.4-.6.6-1 .4z"/><path id="H" d="M471.2 1491.4c-.4-.3-.6-.9-.3-1.5 1.1-2.4 4.8-8.4 12.3-7.3.4.1.7.6.6 1.2 0 .5-.4.9-.8.8-6.8-1-9.8 4.3-10.8 6.4-.2.4-.6.6-1 .4z"/><path id="I" d="M446.4 1502.3l-13.4.1c-1.8.1-3.1-1.9-2.9-4.1l1.2-10c.1-.9.9-1.6 1.9-1.6 4.3.2 10.6 2.6 14.9 13.2.5 1.2-.4 2.4-1.7 2.4z"/><path id="J" d="M677.7 1242.2l-23.3-37.9q-5.3-9.6-15.6-10.8l40.1-.7c5.3-.1 10.5 1.5 14.6 4.7 1.2 1 2.3 2 3 3.1q3 4.5 14.3 23.2l18.7-10.7-22 40.2-46.9-1.5z"/></defs></svg>