<svg version="1.2" xmlns="http://www.w3.org/2000/svg" viewBox="0 0 2757 2305" width="2757" height="2305"><defs><linearGradient id="P" gradientUnits="userSpaceOnUse"/><linearGradient id="g1" x1="305.1" y1="307" x2="2365.9" y2="307" href="#P"><stop stop-color="#d8dee8"/><stop offset="1" stop-color="#ffffff"/></linearGradient><linearGradient id="g2" x1="305.2" y1="307" x2="2363.3" y2="307" href="#P"><stop stop-color="#ff9085"/><stop offset="1" stop-color="#fb6fbb"/></linearGradient><linearGradient id="g3" x1="2389.4" y1="832.4" x2="2382.2" y2="1073.1" href="#P"><stop stop-color="#d8dee8"/><stop offset="1" stop-color="#ffffff"/></linearGradient><linearGradient id="g4" x1="1" y1="307" x2="642.7" y2="307" href="#P"><stop stop-color="#d8dee8"/><stop offset="1" stop-color="#ffffff"/></linearGradient><linearGradient id="g5" x1="-37.7" y1="1424.7" x2="-0.1" y2="643.4" href="#P"><stop stop-color="#d8dee8"/><stop offset="1" stop-color="#ffffff"/></linearGradient><linearGradient id="g6" x1="508.4" y1="663.1" x2="508.4" y2="1736.5" href="#P"><stop stop-color="#d8dee8"/><stop offset="1" stop-color="#ffffff"/></linearGradient><linearGradient id="g7" x1="123" y1="651.6" x2="1053.9" y2="2162.5" href="#P"><stop stop-color="#d8dee8"/><stop offset="1" stop-color="#ffffff"/></linearGradient><linearGradient id="g8" x1="351.4" y1="672.3" x2="351.4" y2="1686.6" href="#P"><stop stop-color="#d8dee8"/><stop offset="1" stop-color="#ffffff"/></linearGradient><linearGradient id="g9" x1="2598.7" y1="994.4" x2="1301" y2="1082.8" href="#P"><stop stop-color="#aa80f9"/><stop offset="1" stop-color="#6165d7"/></linearGradient><linearGradient id="g10" x1="1463.7" y1="467.2" x2="1551.7" y2="2643.7" href="#P"><stop stop-color="#aa80f9"/><stop offset="1" stop-color="#6165d7"/></linearGradient><linearGradient id="g11" x1="1193.8" y1="1792.6" x2="2723.7" y2="2872.8" href="#P"><stop offset="0" stop-color="#e38ddd"/><stop offset="1" stop-color="#9571f6"/></linearGradient><linearGradient id="g12" x1="1648.7" y1="1529.9" x2="1764.2" y2="2208.4" href="#P"><stop offset="0" stop-color="#e38ddd"/><stop offset="1" stop-color="#9571f6"/></linearGradient><linearGradient id="g13" x1="2248.3" y1="1020.3" x2="1627.2" y2="1020.3" href="#P"><stop offset="0" stop-color="#e38ddd"/><stop offset="1" stop-color="#9571f6"/></linearGradient><linearGradient id="g14" x1="909.4" y1="1813.6" x2="2457.7" y2="1236.6" href="#P"><stop stop-color="#311944"/><stop offset="1" stop-color="#893976"/></linearGradient><linearGradient id="g15" x1="1753.5" y1="1069.4" x2="1770.1" y2="1478.1" href="#P"><stop stop-color="#ff9085"/><stop offset="1" stop-color="#fb6fbb"/></linearGradient><linearGradient id="g16" x1="2521.5" y1="2339.7" x2="1821.9" y2="1082.9" href="#P"><stop stop-color="#311944"/><stop offset="1" stop-color="#893976"/></linearGradient><linearGradient id="g17" x1="2057.9" y1="1076.9" x2="1069" y2="1990.3" href="#P"><stop stop-color="#ff9085"/><stop offset="1" stop-color="#fb6fbb"/></linearGradient><linearGradient id="g18" x1="2052" y1="1104" x2="1063.1" y2="2017.4" href="#P"><stop stop-color="#ff9085"/><stop offset="1" stop-color="#fb6fbb"/></linearGradient><linearGradient id="g19" x1="1972.3" y1="1001.4" x2="983.4" y2="1914.8" href="#P"><stop stop-color="#ff9085"/><stop offset="1" stop-color="#fb6fbb"/></linearGradient><linearGradient id="g20" x1="2139.8" y1="1182.5" x2="1150.9" y2="2095.9" href="#P"><stop stop-color="#ff9085"/><stop offset="1" stop-color="#fb6fbb"/></linearGradient><linearGradient id="g21" x1="1078.3" y1="2257.7" x2="2626.6" y2="1680.8" href="#P"><stop stop-color="#311944"/><stop offset="1" stop-color="#893976"/></linearGradient><linearGradient id="g22" x1="1706.4" y1="1407.8" x2="1729.8" y2="1987" href="#P"><stop stop-color="#ff9085"/><stop offset="1" stop-color="#fb6fbb"/></linearGradient><linearGradient id="g23" x1="2349.5" y1="2411.2" x2="1669.1" y2="1188.7" href="#P"><stop stop-color="#311944"/><stop offset="1" stop-color="#893976"/></linearGradient><linearGradient id="g24" x1="2255" y1="1321" x2="1266.1" y2="2234.4" href="#P"><stop stop-color="#ff9085"/><stop offset="1" stop-color="#fb6fbb"/></linearGradient><linearGradient id="g25" x1="2239" y1="1351.6" x2="1250" y2="2264.9" href="#P"><stop stop-color="#ff9085"/><stop offset="1" stop-color="#fb6fbb"/></linearGradient><linearGradient id="g26" x1="2124.7" y1="1204" x2="1135.7" y2="2117.4" href="#P"><stop stop-color="#ff9085"/><stop offset="1" stop-color="#fb6fbb"/></linearGradient><linearGradient id="g27" x1="2373.9" y1="1473.6" x2="1384.9" y2="2387" href="#P"><stop stop-color="#ff9085"/><stop offset="1" stop-color="#fb6fbb"/></linearGradient><linearGradient id="g28" x1="2344.3" y1="1788.6" x2="2344.3" y2="1123.2" href="#P"><stop stop-color="#ffc444"/><stop offset="1" stop-color="#f36f56"/></linearGradient><linearGradient id="g29" x1="2138.6" y1="1312.1" x2="2490.6" y2="1267.9" href="#P"><stop stop-color="#ffc444"/><stop offset="1" stop-color="#f36f56"/></linearGradient><linearGradient id="g30" x1="2321.8" y1="1220" x2="2253.1" y2="1229.4" href="#P"><stop stop-color="#311944"/><stop offset=".2" stop-color="#49204e"/><stop offset=".3" stop-color="#532353"/><stop offset="1" stop-color="#a03976"/></linearGradient><linearGradient id="g31" x1="2536.2" y1="2239.8" x2="2308.6" y2="2312.9" href="#P"><stop stop-color="#fcb148"/><stop offset=".3" stop-color="#ffc444"/><stop offset=".9" stop-color="#f8924f"/><stop offset="1" stop-color="#f8924f"/></linearGradient><linearGradient id="g32" x1="2855.7" y1="1902.5" x2="2659.2" y2="2336.1" href="#P"><stop stop-color="#ffdb44"/><stop offset="1" stop-color="#feef06"/></linearGradient><linearGradient id="g33" x1="2413.4" y1="2303.8" x2="2375.5" y2="2096.7" href="#P"><stop stop-color="#fcb148"/><stop offset=".3" stop-color="#ffc444"/><stop offset=".9" stop-color="#f8924f"/><stop offset="1" stop-color="#f8924f"/></linearGradient><linearGradient id="g34" x1="2714.8" y1="1850.1" x2="2871.1" y2="2181.8" href="#P"><stop stop-color="#fcb148"/><stop offset=".3" stop-color="#ffc444"/><stop offset=".9" stop-color="#f8924f"/><stop offset="1" stop-color="#f8924f"/></linearGradient><linearGradient id="g35" x1="2623.1" y1="1827.9" x2="2704.2" y2="2131.8" href="#P"><stop stop-color="#ffdb44"/><stop offset="1" stop-color="#feef06"/></linearGradient><linearGradient id="g36" x1="2601.5" y1="1893.9" x2="2762.7" y2="2236" href="#P"><stop stop-color="#fcb148"/><stop offset=".3" stop-color="#ffc444"/><stop offset=".9" stop-color="#f8924f"/><stop offset="1" stop-color="#f8924f"/></linearGradient><linearGradient id="g37" x1="826.3" y1="1566.4" x2="969.5" y2="1200.8" href="#P"><stop stop-color="#311944"/><stop offset="1" stop-color="#893976"/></linearGradient><linearGradient id="g38" x1="1160.6" y1="1772.4" x2="1329.5" y2="1341.1" href="#P"><stop stop-color="#311944"/><stop offset="1" stop-color="#893976"/></linearGradient><linearGradient id="g39" x1="881.3" y1="1516.7" x2="1002.7" y2="1206.7" href="#P"><stop stop-color="#311944"/><stop offset="1" stop-color="#893976"/></linearGradient><linearGradient id="g40" x1="840.8" y1="1526.1" x2="974.5" y2="1184.5" href="#P"><stop stop-color="#311944"/><stop offset="1" stop-color="#893976"/></linearGradient><linearGradient id="g41" x1="1140.9" y1="1739.7" x2="1053.2" y2="1874.5" href="#P"><stop stop-color="#311944"/><stop offset="1" stop-color="#893976"/></linearGradient><linearGradient id="g42" x1="1287.4" y1="1601.6" x2="1131.2" y2="1842" href="#P"><stop stop-color="#311944"/><stop offset="1" stop-color="#893976"/></linearGradient><linearGradient id="g43" x1="1204" y1="1671.5" x2="1110.5" y2="1815.2" href="#P"><stop offset="0" stop-color="#e38ddd"/><stop offset="1" stop-color="#9571f6"/></linearGradient><linearGradient id="g44" x1="1024.3" y1="1394.5" x2="876.9" y2="1621.2" href="#P"><stop stop-color="#311944"/><stop offset="1" stop-color="#893976"/></linearGradient><linearGradient id="g45" x1="1127.6" y1="1121" x2="1037.9" y2="1293.9" href="#P"><stop stop-color="#ff9085"/><stop offset="1" stop-color="#fb6fbb"/></linearGradient><linearGradient id="g46" x1="1490.4" y1="1265.4" x2="1399.8" y2="1440.1" href="#P"><stop stop-color="#ff9085"/><stop offset="1" stop-color="#fb6fbb"/></linearGradient><linearGradient id="g47" x1="827.9" y1="2185.3" x2="827.9" y2="1995.9" href="#P"><stop stop-color="#aa80f9"/><stop offset="1" stop-color="#6165d7"/></linearGradient><linearGradient id="g48" x1="1496.9" y1="2038.9" x2="944.1" y2="2038.9" href="#P"><stop stop-color="#d8dee8"/><stop offset="1" stop-color="#ffffff"/></linearGradient><linearGradient id="g49" x1="931.5" y1="2033.3" x2="1507.2" y2="2033.3" href="#P"><stop stop-color="#aa80f9"/><stop offset="1" stop-color="#6165d7"/></linearGradient><linearGradient id="g50" x1="832.8" y1="2055.5" x2="832.8" y2="1845.3" href="#P"><stop stop-color="#ffc444"/><stop offset="1" stop-color="#f36f56"/></linearGradient><linearGradient id="g51" x1="1496.9" y1="1861.3" x2="944.1" y2="1861.3" href="#P"><stop stop-color="#d8dee8"/><stop offset="1" stop-color="#ffffff"/></linearGradient><linearGradient id="g52" x1="931.5" y1="1853.1" x2="1507.2" y2="1853.1" href="#P"><stop stop-color="#ffc444"/><stop offset="1" stop-color="#f36f56"/></linearGradient><linearGradient id="g53" x1="659.2" y1="1733.8" x2="969" y2="1733.8" href="#P"><stop stop-color="#ff9085"/><stop offset="1" stop-color="#fb6fbb"/></linearGradient><linearGradient id="g54" x1="640.4" y1="1724.3" x2="777.1" y2="1725.8" href="#P"><stop stop-color="#aa80f9"/><stop offset="1" stop-color="#6165d7"/></linearGradient><linearGradient id="g55" x1="1496.9" y1="1733.3" x2="944.1" y2="1733.3" href="#P"><stop stop-color="#d8dee8"/><stop offset="1" stop-color="#ffffff"/></linearGradient><linearGradient id="g56" x1="931.5" y1="1727.3" x2="1507.2" y2="1727.3" href="#P"><stop stop-color="#aa80f9"/><stop offset="1" stop-color="#6165d7"/></linearGradient><linearGradient id="g57" x1="931.5" y1="1841.4" x2="1507.2" y2="1841.4" href="#P"><stop stop-color="#aa80f9"/><stop offset="1" stop-color="#6165d7"/></linearGradient><linearGradient id="g58" x1="696.7" y1="1907.6" x2="674.1" y2="1874.2" href="#P"><stop stop-color="#ffc444"/><stop offset="1" stop-color="#f36f56"/></linearGradient><linearGradient id="g59" x1="697.3" y1="1898.4" x2="664.4" y2="1849.6" href="#P"><stop stop-color="#aa80f9"/><stop offset="1" stop-color="#6165d7"/></linearGradient><linearGradient id="g60" x1="1102.3" y1="1911.7" x2="1192.5" y2="1911.7" href="#P"><stop stop-color="#444b8c"/><stop offset="1" stop-color="#26264f"/></linearGradient><linearGradient id="g61" x1="1524.3" y1="1895.6" x2="1522.7" y2="2156.3" href="#P"><stop stop-color="#311944"/><stop offset="1" stop-color="#a03976"/></linearGradient><linearGradient id="g62" x1="1785.1" y1="2101.4" x2="1615.6" y2="2387.3" href="#P"><stop stop-color="#ff9085"/><stop offset="1" stop-color="#fb6fbb"/></linearGradient><linearGradient id="g63" x1="1785.1" y1="2101.4" x2="1615.6" y2="2387.3" href="#P"><stop stop-color="#ff9085"/><stop offset="1" stop-color="#fb6fbb"/></linearGradient><linearGradient id="g64" x1="1032.1" y1="1948.6" x2="1122.2" y2="1948.6" href="#P"><stop stop-color="#444b8c"/><stop offset="1" stop-color="#26264f"/></linearGradient><linearGradient id="g65" x1="1454.1" y1="1932.5" x2="1452.5" y2="2193.2" href="#P"><stop stop-color="#311944"/><stop offset="1" stop-color="#a03976"/></linearGradient><linearGradient id="g66" x1="1644.9" y1="2221.3" x2="1563.1" y2="2493.6" href="#P"><stop stop-color="#ff9085"/><stop offset="1" stop-color="#fb6fbb"/></linearGradient><linearGradient id="g67" x1="2170.3" y1="1860.4" x2="1887" y2="2340.9" href="#P"><stop stop-color="#aa80f9"/><stop offset="1" stop-color="#6165d7"/></linearGradient><linearGradient id="g68" x1="1858.4" y1="2241.9" x2="1245.7" y2="3623.6" href="#P"><stop stop-color="#ff9085"/><stop offset="1" stop-color="#fb6fbb"/></linearGradient><linearGradient id="g69" x1="2014.1" y1="2070.7" x2="1736.3" y2="2697.2" href="#P"><stop stop-color="#ff9085"/><stop offset="1" stop-color="#fb6fbb"/></linearGradient><linearGradient id="g70" x1="1915.6" y1="1877.4" x2="1867.1" y2="1986.7" href="#P"><stop stop-color="#ff9085"/><stop offset="1" stop-color="#fb6fbb"/></linearGradient><linearGradient id="g71" x1="1627.1" y1="1863.1" x2="1918.9" y2="1856.2" href="#P"><stop stop-color="#ff9085"/><stop offset="1" stop-color="#fb6fbb"/></linearGradient><linearGradient id="g72" x1="2386.5" y1="1763.2" x2="2582.6" y2="2144.3" href="#P"><stop stop-color="#444b8c"/><stop offset="1" stop-color="#26264f"/></linearGradient><linearGradient id="g73" x1="2191.3" y1="1894.3" x2="2345.2" y2="1897.1" href="#P"><stop stop-color="#40447e"/><stop offset="1" stop-color="#3c3b6b"/></linearGradient><linearGradient id="g74" x1="2263.5" y1="1996.4" x2="2369.5" y2="1891.4" href="#P"><stop stop-color="#444b8c"/><stop offset="1" stop-color="#26264f"/></linearGradient><linearGradient id="g75" x1="2069.6" y1="2082.8" x2="1983.1" y2="1936" href="#P"><stop stop-color="#444b8c"/><stop offset="1" stop-color="#26264f"/></linearGradient><linearGradient id="g76" x1="2137.8" y1="2012.1" x2="2239.6" y2="2014" href="#P"><stop stop-color="#444b8c"/><stop offset="1" stop-color="#26264f"/></linearGradient><linearGradient id="g77" x1="2225.6" y1="1978.6" x2="2230.2" y2="2031.1" href="#P"><stop stop-color="#444b8c"/><stop offset="1" stop-color="#26264f"/></linearGradient><linearGradient id="g78" x1="2226.8" y1="2049.9" x2="2215.5" y2="2138.7" href="#P"><stop stop-color="#444b8c"/><stop offset="1" stop-color="#26264f"/></linearGradient><linearGradient id="g79" x1="2218.7" y1="2036" x2="2216.4" y2="2112" href="#P"><stop stop-color="#444b8c"/><stop offset="1" stop-color="#26264f"/></linearGradient><linearGradient id="g80" x1="2295.9" y1="2005.4" x2="2387.4" y2="2007.1" href="#P"><stop stop-color="#444b8c"/><stop offset="1" stop-color="#26264f"/></linearGradient><linearGradient id="g81" x1="2373.5" y1="1960.6" x2="2378.1" y2="2012.4" href="#P"><stop stop-color="#444b8c"/><stop offset="1" stop-color="#26264f"/></linearGradient><linearGradient id="g82" x1="2380.5" y1="2040.5" x2="2369.4" y2="2127.9" href="#P"><stop stop-color="#444b8c"/><stop offset="1" stop-color="#26264f"/></linearGradient><linearGradient id="g83" x1="2372.6" y1="2026.9" x2="2370.3" y2="2101.8" href="#P"><stop stop-color="#444b8c"/><stop offset="1" stop-color="#26264f"/></linearGradient><linearGradient id="g84" x1="2171.2" y1="1890.7" x2="2189.9" y2="1948.7" href="#P"><stop stop-color="#aa80f9"/><stop offset="1" stop-color="#6165d7"/></linearGradient><linearGradient id="g85" x1="2341.4" y1="1830.8" x2="2359.8" y2="1887.7" href="#P"><stop stop-color="#aa80f9"/><stop offset="1" stop-color="#6165d7"/></linearGradient><linearGradient id="g86" x1="2153.6" y1="2033.3" x2="2138.1" y2="2017.8" href="#P"><stop stop-color="#aa80f9"/><stop offset="1" stop-color="#6165d7"/></linearGradient><linearGradient id="g87" x1="2122.2" y1="2065.3" x2="2106.7" y2="2049.8" href="#P"><stop stop-color="#aa80f9"/><stop offset="1" stop-color="#6165d7"/></linearGradient><linearGradient id="g88" x1="2121.1" y1="2065.2" x2="2105.8" y2="2049.8" href="#P"><stop stop-color="#aa80f9"/><stop offset="1" stop-color="#6165d7"/></linearGradient><linearGradient id="g89" x1="2152.8" y1="2032.2" x2="2137.6" y2="2017" href="#P"><stop stop-color="#aa80f9"/><stop offset="1" stop-color="#6165d7"/></linearGradient><linearGradient id="g90" x1="2132.6" y1="1959.8" x2="2164.7" y2="2031.6" href="#P"><stop stop-color="#aa80f9"/><stop offset="1" stop-color="#6165d7"/></linearGradient><linearGradient id="g91" x1="2107.1" y1="1972" x2="2139.1" y2="2043.4" href="#P"><stop stop-color="#aa80f9"/><stop offset="1" stop-color="#6165d7"/></linearGradient><linearGradient id="g92" x1="2098.7" y1="1976.3" x2="2130.6" y2="2047.2" href="#P"><stop stop-color="#aa80f9"/><stop offset="1" stop-color="#6165d7"/></linearGradient><linearGradient id="g93" x1="2147.3" y1="1953" x2="2178.9" y2="2023.5" href="#P"><stop stop-color="#aa80f9"/><stop offset="1" stop-color="#6165d7"/></linearGradient><linearGradient id="g94" x1="2392.5" y1="2060.8" x2="2303.7" y2="1909.4" href="#P"><stop stop-color="#444b8c"/><stop offset="1" stop-color="#26264f"/></linearGradient><linearGradient id="g95" x1="2478.5" y1="2024.2" x2="2458.4" y2="2003.4" href="#P"><stop stop-color="#aa80f9"/><stop offset="1" stop-color="#6165d7"/></linearGradient><linearGradient id="g96" x1="2441.9" y1="2061.9" x2="2421.9" y2="2041.2" href="#P"><stop stop-color="#aa80f9"/><stop offset="1" stop-color="#6165d7"/></linearGradient><linearGradient id="g97" x1="2442.6" y1="2061.4" x2="2422.5" y2="2040.5" href="#P"><stop stop-color="#aa80f9"/><stop offset="1" stop-color="#6165d7"/></linearGradient><linearGradient id="g98" x1="2477.3" y1="2024.9" x2="2457.4" y2="2004.2" href="#P"><stop stop-color="#aa80f9"/><stop offset="1" stop-color="#6165d7"/></linearGradient><linearGradient id="g99" x1="2443.5" y1="1951" x2="2478.8" y2="2081.1" href="#P"><stop stop-color="#aa80f9"/><stop offset="1" stop-color="#6165d7"/></linearGradient><linearGradient id="g100" x1="2424.1" y1="1958.3" x2="2459" y2="2086.8" href="#P"><stop stop-color="#aa80f9"/><stop offset="1" stop-color="#6165d7"/></linearGradient><linearGradient id="g101" x1="2402.5" y1="1964.2" x2="2437.7" y2="2093.8" href="#P"><stop stop-color="#aa80f9"/><stop offset="1" stop-color="#6165d7"/></linearGradient><linearGradient id="g102" x1="2464.4" y1="1945" x2="2499.4" y2="2073.8" href="#P"><stop stop-color="#aa80f9"/><stop offset="1" stop-color="#6165d7"/></linearGradient><linearGradient id="g103" x1="2090.8" y1="1913.9" x2="2297.7" y2="2316" href="#P"><stop stop-color="#444b8c"/><stop offset="1" stop-color="#26264f"/></linearGradient><linearGradient id="g104" x1="2191" y1="1909.4" x2="2345.1" y2="1912.2" href="#P"><stop stop-color="#aa80f9"/><stop offset="1" stop-color="#6165d7"/></linearGradient></defs><style>.s0{fill:url(#g1)}.s1{fill:url(#g2)}.s2{fill:url(#g3)}.s3{fill:url(#g4)}.s4{fill:url(#g5)}.s5{fill:#ffffff}.s6{fill:url(#g6)}.s7{fill:url(#g7)}.s8{fill:url(#g8)}.s9{fill:#97a6b7}.s10{opacity: .6;mix-blend-mode: multiply;fill:#97a6b7}.s11{fill:#d8dee8}.s12{opacity: .5;mix-blend-mode: multiply;fill:#d8dee8}.s13{opacity: .3;mix-blend-mode: soft-light;fill:#ffffff}.s14{fill:url(#g9)}.s15{fill:url(#g10)}.s16{fill:url(#g11)}.s17{fill:url(#g12)}.s18{opacity: .3;mix-blend-mode: multiply;fill:url(#g13)}.s19{fill:url(#g14)}.s20{fill:url(#g15)}.s21{mix-blend-mode: soft-light;fill:#ffffff}.s22{fill:url(#g16)}.s23{fill:url(#g17)}.s24{fill:url(#g18)}.s25{fill:url(#g19)}.s26{fill:url(#g20)}.s27{fill:url(#g21)}.s28{fill:url(#g22)}.s29{fill:url(#g23)}.s30{fill:url(#g24)}.s31{fill:url(#g25)}.s32{fill:url(#g26)}.s33{fill:url(#g27)}.s34{fill:url(#g28)}.s35{opacity: .2;mix-blend-mode: multiply;fill:url(#g29)}.s36{fill:url(#g30)}.s37{fill:url(#g31)}.s38{fill:url(#g32)}.s39{fill:url(#g33)}.s40{fill:url(#g34)}.s41{fill:url(#g35)}.s42{opacity: .3;mix-blend-mode: multiply;fill:url(#g36)}.s43{opacity: .3;mix-blend-mode: soft-light;fill:#d8dee8}.s44{fill:url(#g37)}.s45{fill:url(#g38)}.s46{fill:url(#g39)}.s47{fill:url(#g40)}.s48{fill:url(#g41)}.s49{fill:url(#g42)}.s50{fill:url(#g43)}.s51{fill:url(#g44)}.s52{fill:url(#g45)}.s53{fill:url(#g46)}.s54{fill:url(#g47)}.s55{fill:url(#g48)}.s56{fill:url(#g49)}.s57{fill:url(#g50)}.s58{fill:url(#g51)}.s59{fill:url(#g52)}.s60{fill:url(#g53)}.s61{fill:url(#g54)}.s62{fill:url(#g55)}.s63{fill:url(#g56)}.s64{fill:url(#g57)}.s65{opacity: .5;mix-blend-mode: soft-light;fill:#ffffff}.s66{opacity: .3;mix-blend-mode: multiply;fill:url(#g58)}.s67{fill:url(#g59)}.s68{fill:url(#g60)}.s69{fill:url(#g61)}.s70{fill:url(#g62)}.s71{opacity: .3;mix-blend-mode: multiply;fill:url(#g63)}.s72{fill:url(#g64)}.s73{fill:url(#g65)}.s74{fill:url(#g66)}.s75{fill:url(#g67)}.s76{fill:url(#g68)}.s77{fill:url(#g69)}.s78{fill:url(#g70)}.s79{fill:url(#g71)}.s80{fill:url(#g72)}.s81{opacity: .3;mix-blend-mode: multiply;fill:url(#g73)}.s82{opacity: .3;mix-blend-mode: multiply;fill:url(#g74)}.s83{fill:url(#g75)}.s84{fill:url(#g76)}.s85{fill:url(#g77)}.s86{fill:url(#g78)}.s87{fill:url(#g79)}.s88{fill:url(#g80)}.s89{fill:url(#g81)}.s90{fill:url(#g82)}.s91{fill:url(#g83)}.s92{fill:url(#g84)}.s93{fill:url(#g85)}.s94{fill:url(#g86)}.s95{fill:url(#g87)}.s96{fill:url(#g88)}.s97{fill:url(#g89)}.s98{fill:url(#g90)}.s99{fill:url(#g91)}.s100{fill:url(#g92)}.s101{fill:url(#g93)}.s102{fill:url(#g94)}.s103{fill:url(#g95)}.s104{fill:url(#g96)}.s105{fill:url(#g97)}.s106{fill:url(#g98)}.s107{fill:url(#g99)}.s108{fill:url(#g100)}.s109{fill:url(#g101)}.s110{fill:url(#g102)}.s111{opacity: .3;mix-blend-mode: multiply;fill:url(#g103)}.s112{opacity: .3;mix-blend-mode: soft-light;fill:url(#g104)}.s113{fill:#102048}.s114{fill:#1f3c88}.s115{fill:#3a6bea}.s116{fill:#ed7545}.s117{fill:#6e3620}.s118{fill:#f9b384}.s119{fill:#e28b6d}.s120{fill:#ba5c36}.s121{fill:#d3dfff}.s122{opacity: .3;fill:#1f3c88}.s123{opacity: .4;fill:#eb5d60}</style><path class="s0" d="m2363.3 672.3l2.6 853.4l-1723.2 36.2l-337.6-1252.9l1661.2 89.1l-6.5 36.1z" /><path class="s1" d="m2363.3 672.3l-1689.8-68.1l-368.3-295.2l479.1 20.7l1178.8 50.9l315.9 230.3q0 0 0 0z" /><path class="s2" d="m2390 743.7l-1749.3-89.7v-71.9l1749 91z" /><path class="s3" d="m642.6 582.1l0.1 980l-641.7-96.8l5.2-795.2l298.9-361.1z" /><path class="s4" d="m640.7 663.1l-338.5-296.5l-302.2 356.3l0.6-51.9l302.9-361.8l337.2 272.9z" /><path fill-rule="evenodd" class="s5" d="m538.1 736.6v607.1l-465.9-53.9v-538.8zm-29.2 544.7v-504.6l-125.1 2.7v489.2zm-157.1-15.9v-485.3l-115.8 2.5v471zm-145.6-14.7v-467.4l-107.6 2.3v454.2z" /><path fill-rule="evenodd" class="s5" d="m549.2 1356.2l-488.2-56.5v-559.5l488.2-15.1zm-465.9-76.3l443.7 51.3v-583.1l-443.7 13.7zm436.8 13.7l-147.4-14.9v-510.2l147.4-3.1zm-125.1-35.1l102.8 10.4v-480.8l-102.8 2.2zm-32.1 19.1l-138.1-14v-492l138.1-2.9zm-115.8-34.1l93.5 9.4v-461.5l-93.5 2zm-29.8 19.4l-129.8-13.2v-475.2l129.8-2.7zm-107.5-33.3l85.2 8.6v-443.7l-85.2 1.9z" /><path class="s6" d="m506.4 780.6v496.6l-120.1-12.1v-482z" /><path class="s7" d="m204 786.8v460l-103.3-10.4v-447.5z" /><path class="s8" d="m349.4 783.8v477.6l-111.2-11.2v-464.1z" /><path class="s9" d="m2145 922v609.6l-1245.5 24.9v-669.3z" /><path class="s10" d="m2118.2 1532.1l-1218.7 24.4v-95.7l43.7-462.4q211.4-77.3 391.6 76.9c175.6 150.1 91.5 286.8 442.5 309.1c268.1 16.9 321.2 57.7 340.9 147.7z" /><path class="s11" d="m961.6 1555.3l-62.1 1.2v-669.3l62.1 1.6z" /><path class="s11" d="m2145 1531.6l-51.8 1v-612l51.8 1.4z" /><path class="s5" d="m909.8 851.9l-55.2-1.7v-96.5l55.2 2.2z" /><path class="s11" d="m2176 890.5l-1266.2-38.6v-96l1266.2 47.3z" /><path class="s5" d="m2155.3 1045.5l-1276.5-23.4v-171.1l1276.5 39z" /><path class="s12" d="m2155.3 938.6l-1276.5-34.1v-17.8l1276.5 35.7z" /><path class="s12" d="m2155.3 980.7l-1276.5-29.9v-17.8l1276.5 31.5z" /><path class="s12" d="m2155.3 1022.8l-1276.5-25.6v-17.8l1276.5 27.2z" /><path class="s13" d="m2279 610.9c-75.6-33.9-162.7-47.3-242-58.8c-106.1-15.5-213.3-13.3-319.7-2c-98.8 10.4-197.7 33.2-297.5 25.8c-108.3-8.1-206.4-50.1-296-109.7c-95.9-63.8-180.7-106.5-295.4-127.8c-14.3-2.7-29-5.6-44.1-8.7l1178.8 50.9z" /><path class="s14" d="m1901.3 1133.3l277-12.5l40.3-98.5l179.7 91v0.1c0 0 0.1 0.1 0.1 0.1q0.1-0.1 0.2-0.2c12.7 4.6 21.9 17.3 21.9 32.6v842.1c0 15.8-9.8 28.1-23.1 31.3l-177.1 117.7l-38.6-144.8l-232-31.3q0-0.1 0-0.1l-48.4-6.5c-15.2-2.1-26.2-18.4-26.2-36.1v-751.5c0-17.8 11-32.7 26.2-33.4z" /><path class="s15" d="m1563.6 1046.9l637.9-26.9c5.7-0.3 12 0.5 17.1 2.3c16.8 5.7 29.7 21.3 29.7 40.1v1036.9c0 24.4-21.7 42-46.4 38.9l-638.4-80.5c-20-2.5-34.4-22.6-34.4-44.4v-925.3c0-21.8 14.4-40.2 34.5-41.1z" /><path class="s16" d="m1539.3 1088.3c0-14.6 10.7-26.9 24.1-27.4l638.4-25.4c16.5-0.7 29.5 12 29.5 28.3v1035.1c0 16.3-13.1 27.9-29.5 25.8l-638.6-79.2c-13.4-1.7-23.9-14.9-23.9-29.5z" /><path class="s17" d="m1730.2 1963.8c0-9.1 5.8-15.7 14.4-14.9l244.8 25.8c9.3 1 15.2 9.4 15.2 18.9v22.1c0 9.5-5.8 16.4-15.1 15.3l-244.1-27.9c-8.6-1-15.2-9.1-15.2-18.2z" /><path class="s18" d="m1637 2053.4c51.1-51.1 191.7-56.9 233.9-112.3c11.2-14.7 15.2-32.8 8.4-55.9q-1.3-4.7-3.2-9.6q-6.9-17.5-12.2-34.8q-4.9-16.4-8.3-32.5c-9.5-44.5-10.4-87.2-2.9-126.2q3.2-16.3 8.3-31.6c4.8-14.7 11-28.7 18.5-41.9c9.7-17 21.6-32.7 35.7-46.9c13.8-13.8 29.8-26.2 48-36.7c75.8-44.2 149.7-63.9 161.3-292.9c4.9-96 40.7-157.7 81.1-197.4c4.4-4.4 9.1-8.6 13.7-12.4c16.8 5.7 29 21.3 29 40.1v1036.9c0 24.4-20.6 42.2-45.3 39.1l-575.8-72.6c2.7-4.9 6-8.6 9.8-12.4z" /><path class="s19" d="m1866.4 1131.3c79.5-2.2 145.3 63.7 145.3 147.1c0 83.3-65.8 149.6-145.3 148c-77.5-1.5-138.9-67.4-138.9-147.1c0-79.7 61.4-146 138.9-148z" /><path class="s20" d="m1866.4 1173.2c56.7-1.1 103.4 46 103.4 105.3c0 59.3-46.7 106.7-103.4 106c-55.7-0.8-100.1-47.9-100.1-105.3c0-57.4 44.4-104.9 100.1-106z" /><path class="s21" d="m1866.4 1206.8c38.5-0.5 70.1 31.6 70.1 71.8c0 40.2-31.6 72.6-70.1 72.3c-38-0.3-68.6-32.5-68.6-71.8c0-39.4 30.6-71.7 68.6-72.3z" /><path class="s22" d="m1866.4 1231c25.6-0.3 46.5 21 46.5 47.7c0 26.6-20.9 48.2-46.5 48.1c-25.3-0.2-45.8-21.5-45.8-47.8c0-26.3 20.5-47.8 45.8-48z" /><path class="s23" d="m1959.1 1182.2c3.3 3.3 3.3 8.7 0 12.1c-3.2 3.3-8.5 3.4-11.7 0.1c-3.2-3.2-3.2-8.6 0-12c3.2-3.4 8.5-3.5 11.7-0.2z" /><path class="s24" d="m1787.5 1361.1c3 3.3 3 8.6 0 11.8c-3.1 3.2-8.1 3.1-11.2-0.2c-3-3.2-3-8.5 0-11.7c3.1-3.2 8.1-3.1 11.2 0.1z" /><path class="s25" d="m1776.3 1185.6c3.1-3.3 8.1-3.4 11.2-0.2c3 3.2 3 8.4 0 11.7c-3.1 3.3-8.1 3.4-11.2 0.2c-3-3.2-3-8.4 0-11.7z" /><path class="s26" d="m1947.4 1362.7c3.2-3.3 8.5-3.2 11.7 0.1c3.3 3.4 3.3 8.8 0 12.1c-3.2 3.3-8.5 3.2-11.7-0.2c-3.2-3.3-3.2-8.7 0-12z" /><path class="s27" d="m1866.7 1493.5c115.3 3.5 212 105 212 226.6c0 121.6-96.7 210.7-212 199.3c-111.2-10.9-198.5-111.8-198.5-225.7c0-113.9 87.3-203.6 198.5-200.2z" /><path class="s28" d="m1866.7 1554c82.1 3.3 150.3 75.9 150.3 162.1c0 86.2-68.2 150.1-150.3 142.8c-80-7.1-143.4-79.4-143.4-161.7c0-82.2 63.4-146.4 143.4-143.2z" /><path class="s21" d="m1866.7 1602.5c55.8 2.7 101.7 52.2 101.7 110.5c0 58.3-45.9 101.9-101.7 97.4c-54.7-4.4-98.4-53.8-98.4-110.3c0-56.5 43.7-100.2 98.4-97.6z" /><path class="s29" d="m1866.7 1637.3c37 2 67.3 34.9 67.3 73.5c0 38.6-30.3 67.6-67.3 64.8c-36.5-2.8-65.8-35.6-65.8-73.4c0-37.7 29.3-66.8 65.8-64.9z" /><path class="s30" d="m2001.4 1575.2c4.8 5.1 4.8 12.9 0 17.5c-4.7 4.6-12.4 4.3-17.1-0.8c-4.7-5-4.7-12.8 0-17.4c4.7-4.6 12.4-4.3 17.1 0.7z" /><path class="s31" d="m1753.4 1816.9c4.4 5 4.4 12.5 0 16.8c-4.4 4.3-11.5 3.7-15.8-1.4c-4.4-5-4.4-12.5 0-16.7c4.3-4.3 11.4-3.7 15.8 1.3z" /><path class="s32" d="m1737.6 1564c4.3-4.5 11.4-4.2 15.8 0.6c4.4 4.9 4.4 12.4 0 16.9c-4.4 4.4-11.5 4.1-15.8-0.8c-4.4-4.8-4.4-12.3 0-16.7z" /><path class="s33" d="m1984.3 1836.1c4.7-4.4 12.4-3.8 17.1 1.5c4.8 5.2 4.8 13 0 17.5c-4.7 4.4-12.4 3.7-17.1-1.5c-4.7-5.2-4.7-13 0-17.5z" /><path fill-rule="evenodd" class="s34" d="m2493.4 1279.2l55.4 441.1c1.9 15-7.1 28.5-22.1 30.4l-300.1 37.7c-15.1 1.9-29.5-8.7-31.4-23.7l-55.4-441.1c-0.4-3.2-0.2-6.5 0.6-9.8c0.9-4.4 2.9-8.7 5.8-12.1l148.9-178.5l187.8 136.2c6.2 4.5 9.5 12.2 10.5 19.8zm-215.1-43.8c2.1 17 17.6 29 34.6 26.9c17-2.2 29.1-17.7 26.9-34.7c-2.1-17-17.6-29-34.6-26.9c-17 2.2-29.1 17.7-26.9 34.7z" /><path class="s5" d="m2467.1 1547.5c3.5 28.1-7.2 54.9-31.7 74.7c-0.1 0-0.5 0.1-0.6 0.2c-12.4 10-26.4 17.9-47.8 23.7l5.6 45.2l-53.2 6.7l-5.2-41.2c-34.1 2.5-71.4-2.8-91.7-10.6l8.3-66.1c23.5 7.9 57 15.5 91.6 11.1c23.6-2.9 40.7-10.5 38.9-25.2c-1.7-13.3-16.5-19.1-54.5-23.4c-53.6-5.9-97.5-24.3-103.6-72.8c-3.3-26.6 5.5-50.8 25.7-69.3c0 0 0 0 0 0c12.5-11.5 30.8-20.9 49.7-26.9l-5.2-41.3l53.3-6.7l4.8 38.2c36.5-3.2 59 0.7 77.2 5.7l-7.6 63.7c-13.5-3.3-40.4-12.1-79-7.2c-13 1.6-21.2 4.6-26.3 8.2c-6.1 4.3-7.6 9.6-7 14.5c1.1 9 14.7 15 41.6 20.2q9.4 1.8 21 3.5c63.9 9.1 90.2 31.1 95.7 75.1z" /><path class="s35" d="m2545.4 1693.2l3.4 27.1c1.9 15-7.1 28.5-22.1 30.4l-300.1 37.7c-15.1 1.9-29.5-8.7-31.4-23.7l-55.4-441.1c-0.4-3.2-0.1-6.5 0.6-9.8c5.1 19.3 13.4 37.4 27.9 50.7c22.1 20.3 53.1 26.4 80.9 36c1.8 0.7 3.7 1.3 5.5 2c21.6 8.1 42.6 18.1 61.1 31.7c8.3 6.1 16.2 12.9 23.3 20.6q6.4 6.8 11.3 14.1c22.4 32.1 27.2 69.8 43.7 105.8c9.1 19.9 24.1 34.8 41.1 47.5c12.1 9.1 24.6 17.2 37.2 25.1c22.9 14.4 51.1 28 73 45.9z" /><path class="s36" d="m2311 1216.1c-1.5 4.6-6.5 7.1-11.3 5.6q-0.2-0.1-0.4-0.1c-4.5-1.7-7.1-6.5-5.6-11q2.5-8.1 4.3-16.3c5.9-25.5 10.9-51.3 10.1-77.6c-0.4-13.3-0.3-27.8-4.2-40.7c-2-6.7-5.6-12.7-10.1-18.1c-5.1-6-12.3-14.6-19.2-18.3q-5.5-3-11.7-3.7c-2.6-0.3-5.1-0.3-7.7 0c-1.4 0.2-5.6 2-6.7 1.6c-5.6-2.2-13.8-5.7-18.1-9.6c3.1-3.2 8.6-6.4 12.9-7.8c23.5-7.4 48.3 6.1 62.9 24c41.7 51.5 6.3 167.1 4.8 172z" /><path class="s5" d="m98.7 74.6q53.3-103.2 144.6-63.2c91.4 40 82.9 19 146.3 27c63.5 7.9 142 52 90.9 60.8q-51.1 8.9-451.2 19q5.9-38.2 69.4-43.6z" /><path class="s5" d="m1057.9 161.5q68-131.6 184.5-80.6c116.5 51.1 105.8 24.3 186.7 34.4c80.9 10.2 181 66.4 115.8 77.7q-65.1 11.3-575.4 24.2q7.5-48.8 88.4-55.7z" /><path class="s37" d="m2728.5 2019.4c0 105.7-82.6 188.7-188.2 185.5c-109.8-3.4-202.2-98.2-202.2-211.8c0-113.5 92.4-195.9 202.2-184.5c105.6 11 188.2 105.2 188.2 210.8z" /><path class="s38" d="m2757 2010.3c0 105.7-82.6 188.7-188.2 185.5c-109.8-3.4-202.2-98.2-202.2-211.8c0-113.5 92.4-195.9 202.2-184.5c105.6 11 188.2 105.2 188.2 210.8z" /><path class="s39" d="m2748.7 2009.8c0 100.9-79 180.2-179.9 177c-104.7-3.4-192.7-94-192.7-202.1c0-108.2 88-186.9 192.7-176.2c100.9 10.4 179.9 100.3 179.9 201.3z" /><path class="s40" d="m2742.8 2009.4c0 97.6-76.5 174.2-174 170.9c-101.1-3.4-185.9-90.8-185.9-195.2c0-104.3 84.8-180.4 185.9-170.1c97.5 9.8 174 96.7 174 194.4z" /><path fill-rule="evenodd" class="s41" d="m2567.8 1848.2c5.2 0.5 9.4 5.2 9.4 10.4v18q15.6 1.7 31.2 5.4q11.5 2.7 22.8 6.4c4.6 1.5 7.7 6.1 7.2 10.8l-2.2 22.6c-0.6 5.9-6.5 9.5-12.1 7q-7.5-3.4-15.3-5.7q-13.7-4.2-28.9-5.4l-2.7-0.3v51.5c27.1 7.6 47 17.8 59.8 30.6c12.8 12.7 19.1 28.6 19.1 47.7c0 20.6-7 37.1-21.1 49.6c-14.2 12.5-34.2 19.6-59.9 21.1v19.8c0 5.3-4.2 9.4-9.4 9.2h-0.2c-5.2-0.2-9.4-4.7-9.4-10v-19.5l-4.2-0.2q-18.1-0.8-34.7-3.7q-12.3-2.2-24-5.5c-4.7-1.4-7.9-5.9-7.5-10.7l2.6-29c0.6-6.3 6.9-9.9 12.8-7.6q10.4 4.1 21.1 7q16.6 4.3 33.7 5.6l0.2-57.3c-26-6.4-45.4-15.9-58.2-28.5c-12.8-12.7-19.3-28.9-19.3-48.6c0-20.4 7-36.2 20.9-47.2c13.9-11 33.5-16.5 58.9-16.5v-18.3c0-5.3 4.2-9.2 9.4-8.7zm-9.4 68.7q-12 0.9-18.7 6.6q-6.8 5.8-6.8 15.5q0 9.2 6.3 15.3q6.2 6.2 19.2 9.9zm16.7 103.7v52.5q13.1 0 20.1-6.3q7-6.2 7-17.6q0-10.4-6.5-17.3q-6.6-6.9-20.6-11.3z" /><path class="s42" d="m2597.6 2178.9c-9.4 1.2-18.9 1.8-28.8 1.4c-101.1-3.4-185.9-90.8-185.9-195.2c0-91.4 65.3-161.2 149.7-170.1c27.8 21.7 52.7 49.4 57 82.3c7 53.4-46.4 77.9-52.2 136c-5.1 49.8 20 105.7 60.2 145.6z" /><path class="s9" d="m797.4 1915.8c-100.5-15.9-178.7-132.2-178.7-260.3c0-128.2 78.2-228 178.7-222.8c105.1 5.5 194 122.9 194 262c0 139.1-88.9 237.8-194 221.1z" /><path class="s43" d="m835.4 1916.8c-12.4 1.4-25.1 1.1-38-1c-100.5-15.9-178.7-132.2-178.7-260.3c0-123.6 72.6-220.7 167.8-222.9c26.4 32.6 48.1 72 58.4 119.2c20.8 95.3-19.1 151.8-20.3 259.8c-0.4 30 2.3 65 10.8 105.2z" /><path fill-rule="evenodd" class="s9" d="m1014.4 1697.1c0 155.6-99.7 265.3-217 246c-111.5-18.4-198-147.7-198-289.7c0-142 86.5-253.1 198-248c117.3 5.4 217 136.1 217 291.7zm-23-2.4c0-139.1-88.9-256.5-194-262c-100.5-5.2-178.7 94.6-178.7 222.8c0 128.1 78.2 244.4 178.7 260.3c105.1 16.7 194-82 194-221.1z" /><path fill-rule="evenodd" class="s11" d="m995.8 1695.1c0 142.3-90.9 243.1-198.4 225.9c-102.6-16.4-182.4-135.1-182.4-265.9c0-130.8 79.8-232.8 182.4-227.6c107.5 5.5 198.4 125.4 198.4 267.6zm-20.9-2.2c0-127.2-81.2-234.9-177.5-240.4c-92.4-5.2-164.6 86.4-164.6 204.4c0 118.1 72.2 224.8 164.6 239.1c96.3 14.8 177.5-75.8 177.5-203.1z" /><path class="s11" d="m819.5 1679.9c0 15.4-9.7 26.9-21.6 25.6c-11.8-1.3-21.4-14.9-21.4-30.2c0-15.4 9.6-26.8 21.4-25.7c11.9 1.2 21.6 14.8 21.6 30.3z" /><path class="s9" d="m1508 2028.4c-134-21.2-237.7-157.1-237.7-304.4c0-147.3 103.7-261.3 237.7-254.3c141.1 7.3 261.3 144.9 261.3 306.8c0 162-120.2 274.3-261.3 251.9z" /><path class="s43" d="m1558.8 2030.7c-16.5 1.2-33.5 0.5-50.8-2.3c-134-21.2-237.7-157.1-237.7-304.4c0-142 96.3-252.9 223-254.6c35.4 38 64.5 83.9 78.3 138.7c28 110.7-25.6 175.5-27.2 300.4c-0.5 34.8 3 75.4 14.4 122.2z" /><path fill-rule="evenodd" class="s9" d="m1800.4 1779.8c0 181.3-134.9 306.1-292.4 280.2c-148.7-24.5-263.1-175.5-263.1-338.6c0-163.2 114.4-290.1 263.1-283.3c157.5 7.3 292.4 160.4 292.4 341.7zm-31.1-3.3c0-161.9-120.2-299.5-261.3-306.8c-134-7-237.7 107-237.7 254.3c0 147.3 103.7 283.2 237.7 304.4c141.1 22.4 261.3-89.9 261.3-251.9z" /><path fill-rule="evenodd" class="s11" d="m1775.2 1777.2c0 165.6-123 280.3-267.2 257.2c-136.8-21.8-242.5-160.5-242.5-310.9c0-150.3 105.7-266.8 242.5-259.9c144.2 7.4 267.2 147.9 267.2 313.6zm-28.4-3c0-148.1-109.5-274.3-238.8-281.6c-123.2-6.9-219 97.7-219 233.4c0 135.7 95.8 260.5 219 279.5c129.3 19.9 238.8-83.2 238.8-231.3z" /><path class="s11" d="m1537.6 1755.9c0 18-13 31.1-29 29.3c-15.8-1.8-28.6-17.6-28.6-35.4c0-17.7 12.8-30.8 28.6-29.2c16 1.6 29 17.4 29 35.3z" /><path fill-rule="evenodd" class="s44" d="m1077 1776.1q0 0 0 0c-7.2-0.9-7.2-0.9-23-61.5c-7.9-30.2-19-73.6-33.1-128.7c-25.6-100.8-56.4-223.3-77.6-307.5c-1.4-5.7 1-11.7 5.5-13.4c4.6-1.8 9.4 1.4 10.8 7.1c63.3 251.2 106.3 419.6 120.5 471.9c22-28.7 87.6-111.6 292-365.6c3.8-4.7 10.2-4.9 14.4-0.4c4.2 4.5 4.5 11.9 0.8 16.6c-121.4 150-293.8 363.9-302.5 377.1c-1.6 3-4.6 4.8-7.8 4.4zm8.6-6.5q0 0 0 0q0 0 0 0zm0 0q0 0 0 0q0 0 0 0z" /><path fill-rule="evenodd" class="s45" d="m1508 1757.3c-5.2-0.5-9.5-5.1-10.5-10.7c-3.7-13.7-62.1-176.8-154-429.9c-2.2-5.9 0.2-12.7 5.3-15.1c5.2-2.4 11.1 0.5 13.3 6.4c156.3 429.1 156.5 434.4 156.6 438c0.2 6.7-4.4 11.7-10.4 11.3q-0.1 0-0.3 0zm-10.7-12.7q0 0 0 0q0 0 0 0zm0 0q0 0 0 0q0 0 0 0z" /><path class="s46" d="m1364.8 1357.1l-398.6-12.5c-4.8-0.2-8.6-5.1-8.6-11.1c0-5.9 3.8-10.6 8.6-10.5l398.6 10.7c5.6 0.1 10.1 5.5 10.1 12c0 6.4-4.5 11.6-10.1 11.4z" /><path class="s47" d="m1077.1 1776.1q-0.8-0.1-1.6-0.4l-281.5-94.8c-2.7-0.9-5-3.6-6-7c-1-3.5-0.7-7.2 1-9.9l179.7-299.2c2.9-4.6 8.3-5.5 12.1-1.8c3.9 3.7 4.7 10.5 1.9 15.2l-173.2 286.7l269.1 89.5c4.9 1.6 8.2 7.7 7.3 13.6c-0.7 5.3-4.5 8.6-8.8 8.1z" /><path fill-rule="evenodd" class="s48" d="m1069.4 1845.9l-2.6-1.3l-271.4-137.7v-59.6l285.8 53.6zm-270-142.4l266.1 134.6l10.7-132.7l-276.8-52.2z" /><path class="s49" d="m1139.9 1781.5c0 41.3-27.6 71-61.2 66.5c-33.1-4.5-59.6-40.7-59.6-80.9c0-40.3 26.5-70.1 59.6-66.7c33.6 3.5 61.2 39.9 61.2 81.1z" /><path class="s50" d="m1115.1 1778.6c0 24.5-16.3 42.3-36.4 39.7c-19.8-2.5-35.8-24.2-35.8-48.4c0-24.2 16-42 35.8-39.8c20.1 2.2 36.4 23.9 36.4 48.5z" /><path class="s51" d="m820.9 1680c0 16.8-10.6 29.3-23.5 27.8c-12.8-1.4-23.2-16.1-23.2-32.8c0-16.6 10.4-29.1 23.2-27.8c12.9 1.3 23.5 16 23.5 32.8z" /><path class="s52" d="m1031.1 1285.1l-144.8-2.7c-6.3-0.1-11.4-6.7-11.4-14.7v-19.8c0-4.1 1.4-8.1 3.8-10.8c2.4-2.7 5.6-4 8.8-3.5l145 21.6c6.1 0.9 10.8 7.4 10.8 15.1c0 8.3-5.5 14.9-12.2 14.8z" /><path class="s53" d="m1242.7 1335.3c-25.5 0-50.9-5.4-74.1-15.9l-32.6-14.9c-4.8-2.2-6.9-7.8-4.7-12.5c2.1-4.8 7.7-6.9 12.5-4.7l32.7 14.9c30.8 14 66 17.8 99.1 10.8l184.7-39.4c0.4-0.1 1.4-0.3 1.6-1.8c0.1-1.4-0.8-1.8-1.2-2l-39.4-16.8c-4.8-2.1-7-7.6-5-12.4c2.1-4.8 7.6-7 12.4-5l39.4 16.8c8.6 3.7 13.5 12 12.6 21.3c-0.9 9.2-7.3 16.4-16.4 18.4l-184.7 39.4c-12.2 2.5-24.6 3.8-36.9 3.8z" /><path class="s54" d="m983.8 2185.3l-283.9-87.3c-27.7-8.5-49-36.5-49-62.9v-0.3c0-26.3 21.3-43.4 49-37.8l305.1 58.5z" /><path class="s55" d="m1496.9 2149.8l-499 30.1c-29.6 1.8-53.8-19.2-53.8-46.9v-18.8c0-27.7 24.2-51.2 53.8-52.4l499-20.9z" /><path class="s56" d="m1501.4 2155.3l-499.5 30.6c-38.7 2.4-70.4-25.1-70.4-61.3v-0.4c0-36.2 31.7-66.9 70.4-68.5l499.5-20.4c3.2-0.2 5.8 2.3 5.8 5.5c0 3.2-2.6 5.9-5.8 6.1l-499.5 21.4c-31.1 1.3-56.6 26.1-56.6 55.2v0.4c0 29.1 25.5 51.3 56.6 49.5l499.5-29.7c3.2-0.2 5.8 2.2 5.8 5.4c0 3.2-2.6 6-5.8 6.2z" /><path class="s57" d="m996.1 2055.5l-296.2-58.5c-27.7-5.6-49-42.2-49-81.8v-0.4c0-39.6 21.3-70.8 49-69.4l314.8 15.6z" /><path class="s58" d="m1496.9 2026.7l-472.4 18.7c-44.2 1.7-80.4-30.6-80.4-72.2v-28.2c0-41.6 36.2-75.7 80.4-76.3l472.4-5.4z" /><path class="s59" d="m1501.4 2035.3l-499.5 20.4c-38.7 1.6-70.4-41.3-70.4-95.7v-0.6c0-54.3 31.7-98.9 70.4-99.3l499.5-5.1c3.2 0 5.8 3.9 5.8 8.7c0 4.8-2.6 8.7-5.8 8.8l-499.5 6.5c-31.1 0.5-56.6 36.4-56.6 80.1v0.6c0 43.7 25.5 78.3 56.6 77.1l499.5-19c3.2-0.1 5.8 3.7 5.8 8.5c0 4.8-2.6 8.8-5.8 9z" /><path class="s60" d="m969 1852.5l-272.1-12.1c-21.2-1-37.7-18.3-37.7-38.7v-13.8c0-20.4 16.5-37.7 37.7-38.8l272.1-13.3z" /><path class="s61" d="m937.8 1860.5l-237.9-15.1c-27.7-1.4-49-23.9-49-50.3v-0.3c0-26.3 21.3-48.9 49-50.4l237.1-14.8c4.6-0.2 46.8 2.4 46.8 5.9c0 3.4-35.5 6.8-40 7l-243.9 11.7c-22.4 0.9-39.9 19.2-39.9 40.6v0.3c0 21.5 17.5 39.6 39.9 40.5l243.9 12.2c4.5 0.2 40 1.9 40 5.3c0 3.5-41.5 7.6-46 7.4z" /><path class="s62" d="m1496.9 1849.3l-552.8 5.1v-119.1l552.8 5.1z" /><path class="s63" d="m1501.4 1746.6l-563-4.6c-3.8-0.1-6.9-2.9-6.9-6.5c0-3.5 3.1-6.3 6.9-6.2l563 5.7c3.2 0 5.8 2.7 5.8 5.9c0 3.2-2.6 5.7-5.8 5.7z" /><path class="s64" d="m1501.4 1855l-563 5.8c-3.8 0-6.9-2.8-6.9-6.3c0-3.5 3.1-6.4 6.9-6.4l563-4.7c3.2 0 5.8 2.6 5.8 5.8c0 3.2-2.6 5.8-5.8 5.8z" /><path class="s65" d="m902.2 2011.6l-63.6-12.8c-14.7-39.8-13.6-76 0-119l63.6 5.4c-13.1 45.6-11.1 87.2 0 126.4z" /><path class="s66" d="m755 1894.3l-34.6-14.5l-37.3 10.9q-5.4-30 26.9-44.6l63.1-62.7l1.9 66.4q-19.2 12.2-20 44.5z" /><path class="s67" d="m703.1 1785.2l70-1.8q-33.6 22.7-18.1 110.9q-30-11.8-42.8-28.2l-29.1 24.6q-17.2-75.5 20-105.5z" /><path class="s68" d="m1197.7 1983.1c7.9 40.8-35.7 60.7-51.1 124.3c-9.2 37.9 9.3 83.5 15.6 115c1.8 8.9-4.8 17.2-13.9 17.4q-0.2 0-0.5 0c-8.6 0.2-15.4-7.1-14.7-15.6c6.8-79.9-13.8-187.5-26.5-239.4c-7.3-29.8-15.8-59-3.4-68.1c18.9-13.8 85.6 20.6 94.5 66.4z" /><path class="s69" d="m1459.6 2211c-10.9 3-58.8 14.8-105.6-8.6c-86.1-43-49.5-146.2-144.4-210.8c-21-14.2-47.8-26.2-76.1-59.8c-21.7-25.8-44-63.8-34.9-73.3c6.7-6.9 27.4 3.1 34 6.3c48 23.2 45.2 61.7 92.3 99.6c24.7 19.9 28.9 12 64.6 39.5c30.3 23.2 52.9 48.5 54.7 50.4c35.6 38 41 56.6 84.4 77c50.1 23.4 90.1 20.6 91.9 37.4c1.8 16.5-34.6 34.9-60.9 42.3z" /><path class="s70" d="m1191.4 1947c35 44.2 62 78.1 95.9 127.6c21.6 31.5 47.5 59.9 70.9 90.2c17.5 22.6 22.4 29 32.4 31.2c34.8 7.3 54.8-54.6 109.8-64.2c21.4-3.7 39.8 3.7 76.7 18.7c36.7 14.9 132.5 59.6 126 86c-5 20.1-69.5 19.1-198.4 17c-141.4-2.3-164.5-14.1-178.8-28.9c-21.8-22.7-19.7-43.1-34.4-83.7q-7.8-24.8-24.3-52.5c-33.5-56.5-85.2-86.3-91.7-89.9c-44.3-25-70.8-20.6-82-46.3c-3.7-8.6-4-21.1-4.1-46.2c-0.1-34.2-0.1-51.3 5.8-54.3c4.8-2.4 18.8-2.2 96.2 95.3z" /><path class="s71" d="m1191.4 1947c35 44.2 62 78.1 95.9 127.6c21.6 31.5 47.5 59.9 70.9 90.2c17.5 22.6 22.4 29 32.4 31.2c34.8 7.3 54.8-54.6 109.8-64.2c21.4-3.7 39.8 3.7 76.7 18.7c36.7 14.9 132.5 59.6 126 86c-5 20.1-69.5 19.1-198.4 17c-141.4-2.3-164.5-14.1-178.8-28.9c-21.8-22.7-19.7-43.1-34.4-83.7q-7.8-24.8-24.3-52.5c-33.5-56.5-85.2-86.3-91.7-89.9c-44.3-25-70.8-20.6-82-46.3c-3.7-8.6-4-21.1-4.1-46.2c-0.1-34.2-0.1-51.3 5.8-54.3c4.8-2.4 18.8-2.2 96.2 95.3z" /><path class="s72" d="m1127.4 2020c7.9 40.8-35.6 60.7-51 124.3c-9.2 37.9 9.2 83.5 15.6 115c1.7 8.9-4.8 17.2-13.9 17.4q-0.3 0-0.6 0c-8.5 0.2-15.4-7.1-14.6-15.6c6.8-79.9-13.9-187.5-26.6-239.4c-7.2-29.8-15.7-59-3.4-68.1c18.9-13.8 85.6 20.6 94.5 66.4z" /><path class="s73" d="m1389.3 2247.8c-10.9 3.1-58.8 14.9-105.5-8.5c-86.2-43-49.5-146.2-144.5-210.8c-20.9-14.2-47.7-26.2-76.1-59.9c-21.7-25.7-44-63.7-34.8-73.2c6.7-6.9 27.4 3.1 33.9 6.3c48.1 23.2 45.2 61.7 92.4 99.6c24.7 19.9 28.8 12 64.6 39.5c30.2 23.2 52.8 48.5 54.6 50.4c35.7 38 41 56.6 84.5 76.9c50.1 23.5 90.1 20.7 91.9 37.5c1.8 16.5-34.6 34.9-61 42.2z" /><path class="s74" d="m1121.2 1983.9c35 44.2 61.9 78.1 95.8 127.6c21.7 31.5 47.5 59.9 71 90.2c17.5 22.6 22.3 29 32.3 31.1c34.8 7.4 54.9-54.6 109.9-64.1c21.4-3.7 39.8 3.7 76.6 18.7c36.8 14.9 132.5 59.6 126 86c-5 20.1-69.4 19.1-198.3 17c-141.5-2.3-164.6-14.1-178.8-28.9c-21.8-22.7-19.8-43.1-34.5-83.7q-7.8-24.8-24.3-52.5c-33.4-56.5-85.1-86.3-91.6-90c-44.4-24.9-70.9-20.5-82-46.3c-3.7-8.5-4.1-21-4.1-46.1c-0.1-34.2-0.2-51.3 5.8-54.3c4.7-2.4 18.7-2.2 96.2 95.3z" /><path class="s75" d="m2011.8 2038.5c0 15.2-0.7 30.1-5.4 44.6q-0.6 2.1-1.4 4.1v0.1c-20.7 84.7-95.4 150.9-184.6 156.5c-12.1 0.7-23.7 0.3-35.2-1.2c-0.1 0-0.2 0-0.3 0c-55.6-7.2-102.6-39.3-129.9-85.5c-0.1 0-0.1-0.1-0.2-0.2c-16.1-27.3-25.3-60.1-25.3-95.2c0-56 23.6-107.6 61.3-146c7.4-6.5 15.5-14.5 24-20.7c2.4-1.8 4.9-2.1 7.4-5.3c6.2-3.4 12.7-7.5 19.4-11.1c24.2-12.6 51.1-20.2 79.4-21.9c22.1-1.4 43.3 1.2 63.1 7c30.6 8.8 57.6 25.7 78.9 48.1l0.3 0.1c0 2.1 3.5 4.1 5.3 6.2c1.8 2.1 3.5 4.3 5.1 6.5c24.1 30.8 38 70.2 38.1 113.9z" /><path class="s76" d="m1785.2 2242.6c-0.1 0-0.2 0-0.3 0c-55.6-7.2-102.6-39.3-129.9-85.5q50-176 205.2-216.3l31.7 23.5q1.8 8.6 2.8 17c16 124.6-70.6 223.7-109.5 261.3z" /><path class="s77" d="m2011.8 2038.5c0 15.2-0.7 30.1-5.4 44.6c-0.5-71.3-42.3-113.9-63.2-130.8q-7-5.7-11.6-8.5l-9.9-24.4l20-3.6l21-3.9c30.7 32.4 49 76.7 49.1 126.6z" /><path class="s78" d="m1896.6 1915.7l-13.6 5.4q-6.8-4.3-13.5-7.9c-72.3-39-138.4-18.4-178.7 3.4c34.1-34.2 79.9-56.6 130.2-59.7c22.1-1.3 43.3 1.1 63.1 6.9c5.9 10.6 9 22.4 10.6 32.1q2 11.4 1.9 19.8z" /><path class="s5" d="m1905.9 1972.2c-19.9 5.6-41.6-5.5-48.4-24.9c-6.9-19.3 3.8-39.6 23.7-45.3c19.9-5.7 41.6 5.5 48.4 24.8c6.8 19.4-3.8 39.7-23.7 45.4z" /><g style="opacity: .2;mix-blend-mode: multiply"><path class="s79" d="m1927.1 2205.3c-28.7 20.2-62.5 35.3-99 38.6c-106.9 9.7-196-69.7-198.5-177.5c-2.3-98.1 67.9-183.6 161.3-205.2c-29.3 33.3-35 58.7-35.3 76.5c-1.2 64.2 65.4 83.9 72.4 158.9c4.6 49.4-21.3 73.1-4.5 96.1c17.8 24.5 64.1 19.9 103.6 12.6z" /></g><path class="s80" d="m2466.2 2204.1c-30.7 15.9-64.5 0.2-72.8-34.6l-13.1-54.7c-2.7-11.5-12.3-18.9-23.5-18.1l-211.8 15.1c-12.9 0.9-24.5 10.5-28.2 23.5l-18 62.6c-11.5 40.5-54.8 67.2-94.5 57.4c-35.9-8.8-56.4-43.7-47.3-81.3l54.2-223.3c10.5-43.1 54.8-69.3 96.2-58l18.2 5c6.4 1.8 13 2.6 19.7 2.6l38.8-0.2l144.8-0.9l34.5-0.2c5.8 0 11.5-0.9 17.1-2.6l15.4-4.7c34-10.3 67.4 12.5 74 49.5l33.1 186.1c5.4 30.3-10.2 63-36.8 76.8z" /><path class="s81" d="m2325.9 1999.2l-117.6 5c-10.6 0.4-19.1-9.5-18.8-22.2l1.5-81.9l154.1-1l-1.4 77.6c-0.2 12-8.2 22.1-17.8 22.5z" /><path class="s82" d="m2448.7 2209.8c-25 3.6-48.6-12.1-55.3-40.3l-13.1-54.7c-2.7-11.5-12.3-18.9-23.5-18.1l-211.8 15.1c-2.2 0.2-4.3 0.6-6.3 1.2c9.1-10.9 21.1-21.3 36.7-26.7c31-10.9 45.7 8.7 87.7 1.8c28.7-4.7 27.3-14.7 67.9-24.9c31.2-7.8 55.3-13.9 72.3-0.2c17.7 14.2 19 42.6 19.4 52.6c1 21.4-5.5 28.8-5.4 42.8c0.1 13.4 6.2 31.1 31.4 51.4z" /><path class="s83" d="m2168.2 1981.8c-0.7 35.7-29.9 66.1-66 67.9c-37 1.9-67-26.6-66.3-63.8c0.7-37.2 31.8-67.6 68.7-68c36.1-0.4 64.2 28.2 63.6 63.9z" /><path class="s84" d="m2239.1 2065.3c-0.5 28.6-23.4 53.6-51.6 55.7c-28.7 2.1-51.9-20.1-51.3-49.7c0.5-29.6 24.6-54.6 53.2-55.8c28.2-1.2 50.2 21.1 49.7 49.8z" /><path class="s85" d="m2229.4 2065.8c-0.4 23.2-19 43.3-41.7 44.9c-23.1 1.7-41.7-16.2-41.2-40c0.4-23.8 19.7-43.9 42.7-44.9c22.8-1.1 40.6 16.9 40.2 40z" /><path class="s86" d="m2221.3 2066.5c-0.3 16.1-13.2 30.1-29 31.3c-16.1 1.2-29.1-11.3-28.8-27.9c0.3-16.6 13.8-30.7 29.8-31.4c15.9-0.7 28.3 11.8 28 28z" /><path class="s87" d="m2215.8 2066.8c-0.2 13-10.7 24.3-23.4 25.2c-13 0.9-23.4-9.1-23.2-22.5c0.3-13.3 11.1-24.6 24-25.2c12.8-0.6 22.9 9.5 22.6 22.5z" /><path class="s88" d="m2387 2056c-0.5 27.2-21.1 50.8-46.5 52.7c-25.8 1.9-46.7-19.2-46.1-47.3c0.5-28 22.1-51.7 47.9-52.7c25.3-1.1 45.2 20.1 44.7 47.3z" /><path class="s89" d="m2378.2 2056.5c-0.4 22-17.1 41-37.5 42.5c-20.8 1.5-37.5-15.6-37.1-38.1c0.4-22.5 17.8-41.6 38.5-42.5c20.5-0.9 36.5 16.1 36.1 38.1z" /><path class="s90" d="m2375.1 2056.9c-0.3 15.9-12.8 29.7-28.2 30.8c-15.6 1.2-28.2-11.1-27.9-27.5c0.3-16.3 13.3-30.1 28.9-30.8c15.4-0.7 27.4 11.7 27.2 27.5z" /><path class="s91" d="m2369.7 2057.3c-0.2 12.8-10.3 23.9-22.7 24.8c-12.6 0.9-22.7-9.1-22.4-22.2c0.2-13.1 10.7-24.3 23.2-24.8c12.4-0.6 22.2 9.3 21.9 22.2z" /><path class="s92" d="m2168.9 1942.7c-4.4 0.1-7.9-3.5-7.8-7.9l0.2-14.3c0.1-4.5 3.8-8.2 8.2-8.2c4.3-0.1 7.8 3.5 7.7 8l-0.2 14.2c-0.1 4.5-3.7 8.1-8.1 8.2z" /><path class="s93" d="m2358.6 1938.9c-3.8 0.1-6.9-3.3-6.8-7.5l0.2-13.4c0.1-4.2 3.3-7.6 7.2-7.6c3.8-0.1 6.9 3.3 6.8 7.5l-0.2 13.3c-0.1 4.2-3.3 7.6-7.2 7.7z" /><path class="s94" d="m2118.4 1943.2l-0.3 15.9c0 1.4-0.5 2.9-1.3 4.1l-6.4 9.5c-1.4 2.1-3.7 3.4-6.2 3.5h-1.4c-2.4 0.1-4.7-1.1-6.1-3.1l-6.1-9.3c-0.8-1.2-1.2-2.6-1.1-4l0.2-16.1c0.1-4.1 3.5-7.4 7.6-7.5l13.9-0.2c4-0.1 7.3 3.1 7.2 7.2z" /><path class="s95" d="m2109.4 2031.2l-13.9 0.6c-4.1 0.2-7.3-3-7.2-7.1l0.2-16c0.1-1.5 0.5-2.9 1.4-4.1l6.4-9.7c1.4-2.1 3.8-3.4 6.3-3.5l1.3-0.1c2.5 0 4.8 1.1 6.1 3.1l6.1 9.2c0.7 1.1 1.1 2.5 1.1 4l-0.3 15.9c-0.1 4.1-3.4 7.5-7.5 7.7z" /><path class="s96" d="m2062.7 1970.6l16.4-0.4c1.4-0.1 2.9 0.3 4.1 1.1l9.4 6c2 1.3 3.2 3.6 3.2 6v1.4c-0.1 2.5-1.4 4.8-3.5 6.3l-9.6 6.6c-1.2 0.8-2.7 1.3-4.2 1.3l-16.3 0.6c-4.2 0.2-7.5-3-7.5-7.2l0.3-14c0.1-4.2 3.5-7.6 7.7-7.7z" /><path class="s97" d="m2150.6 1975.5l-0.2 13.6c-0.1 4-3.4 7.4-7.3 7.6l-15.7 0.5c-1.5 0.1-2.9-0.3-4.1-1.1l-9.2-5.9c-2-1.2-3.2-3.5-3.1-6v-1.3c0-2.5 1.3-4.8 3.4-6.3l9.4-6.4c1.2-0.9 2.6-1.3 4.1-1.4l15.7-0.4c4-0.1 7.1 3.1 7 7.1z" /><path class="s98" d="m2121.5 1943.9l-0.3 15.9c-0.1 1.4-0.5 2.8-1.3 4l-6.4 9.6c-1.4 2.1-3.7 3.4-6.2 3.4l-1.4 0.1c-2.5 0-4.7-1.1-6.1-3.1l-6.1-9.3c-0.8-1.2-1.2-2.6-1.2-4.1l0.3-16c0.1-4.1 3.5-7.5 7.6-7.5l13.9-0.3c4 0 7.2 3.2 7.2 7.3z" /><path class="s99" d="m2112.5 2031.8l-13.9 0.7c-4.1 0.1-7.3-3-7.3-7.1l0.3-16.1c0.1-1.4 0.5-2.8 1.4-4.1l6.4-9.6c1.4-2.1 3.8-3.5 6.2-3.5l1.4-0.1c2.5-0.1 4.8 1.1 6.1 3.1l6 9.1c0.8 1.2 1.2 2.6 1.2 4l-0.3 16c-0.1 4-3.4 7.4-7.5 7.6z" /><path class="s100" d="m2065.8 1971.3l16.4-0.5c1.4 0 2.9 0.4 4.1 1.1l9.4 6c2 1.3 3.2 3.6 3.2 6.1l-0.1 1.4c0 2.4-1.3 4.8-3.4 6.2l-9.6 6.6c-1.3 0.9-2.7 1.4-4.2 1.4l-16.3 0.6c-4.2 0.1-7.5-3.1-7.4-7.2l0.2-14.1c0.1-4.1 3.5-7.5 7.7-7.6z" /><path class="s101" d="m2153.7 1976.1l-0.3 13.7c0 4-3.3 7.4-7.3 7.5l-15.7 0.6c-1.4 0-2.8-0.4-4-1.1l-9.2-5.9c-2-1.3-3.2-3.5-3.2-6l0.1-1.4c0-2.4 1.3-4.8 3.4-6.2l9.4-6.5c1.2-0.8 2.6-1.3 4-1.3l15.7-0.4c4-0.1 7.2 3 7.1 7z" /><path class="s102" d="m2419.3 1914.2c29.3-0.3 52.2 25.6 51.6 57.8c-0.6 32.2-24.4 59.5-53.7 61c-29.9 1.5-54.1-24.3-53.5-57.7c0.6-33.4 25.7-60.7 55.6-61.1z" /><path class="s103" d="m2432.5 1936.1c-0.1 8.3-6.3 15.2-13.8 15.3c-7.6 0.2-13.6-6.4-13.5-14.8c0.2-8.4 6.4-15.3 14-15.4c7.5-0.1 13.5 6.6 13.3 14.9z" /><path class="s104" d="m2431.2 2010.3c-0.2 8.3-6.4 15.4-13.9 15.7c-7.5 0.4-13.6-6.1-13.4-14.5c0.1-8.4 6.4-15.4 14-15.7c7.5-0.3 13.4 6.2 13.3 14.5z" /><path class="s105" d="m2384.5 1959.4c7.7-0.2 13.8 6.4 13.6 14.8c-0.1 8.5-6.5 15.5-14.2 15.8c-7.7 0.3-13.9-6.4-13.7-14.9c0.1-8.5 6.6-15.5 14.3-15.7z" /><path class="s106" d="m2451.8 1957.6c7.4-0.2 13.2 6.3 13 14.6c-0.1 8.2-6.2 15.1-13.5 15.3c-7.4 0.3-13.3-6.2-13.2-14.5c0.2-8.3 6.3-15.2 13.7-15.4z" /><path class="s107" d="m2435.4 1936.7c-0.2 8.3-6.3 15.2-13.9 15.4c-7.5 0.2-13.5-6.5-13.4-14.9c0.2-8.4 6.4-15.2 14-15.3c7.5-0.1 13.4 6.5 13.3 14.8z" /><path class="s108" d="m2434.1 2010.9c-0.2 8.4-6.4 15.4-13.9 15.8c-7.5 0.3-13.6-6.2-13.4-14.6c0.1-8.4 6.4-15.4 14-15.7c7.5-0.3 13.4 6.2 13.3 14.5z" /><path class="s109" d="m2387.4 1960c7.7-0.2 13.8 6.5 13.6 14.9c-0.1 8.4-6.5 15.4-14.1 15.7c-7.8 0.3-13.9-6.4-13.8-14.8c0.2-8.5 6.6-15.6 14.3-15.8z" /><path class="s110" d="m2454.7 1958.3c7.3-0.2 13.1 6.3 13 14.5c-0.2 8.2-6.2 15.1-13.6 15.4c-7.3 0.2-13.2-6.3-13.1-14.6c0.2-8.3 6.3-15.1 13.7-15.3z" /><path class="s111" d="m2038.4 2255.3c-11.1 2.6-22.7 2.8-34.1 0c-35.9-8.8-56.4-43.7-47.3-81.3l54.2-223.3c8.3-34.4 38.3-58 71.1-60.4c-10.5 4.5-21.7 11.2-32.3 21.1c-6.3 5.9-41.1 38.4-36.1 81.4c0.8 6.9 4.6 31 23 47.8c13.1 11.9 22.8 10.4 25.3 19.1c5.1 17.6-32.4 30.4-36.2 59.7c-3.8 29.9 32.1 42.9 25.7 70.7c-4.7 20.4-26.2 23.5-27.7 39.6c-0.6 6.6 2.1 15.1 14.4 25.6z" /><path class="s112" d="m2324.6 1993.3c2.7 1.6 5.5 2.9 8.2 3.9c-2.2 1.2-4.5 1.9-6.9 2l-117.6 5c-10.6 0.4-19.1-9.5-18.8-22.2l1.3-70.6c3.6 2.9 7.3 4.9 10.7 6.3c17.7 7 29.6-2.5 41.7 7.1c14.4 11.3 5 30.5 19.3 40.6c12.2 8.7 22.5-3 39.2 6.5c11.3 6.4 10.7 14 22.9 21.4z" /><path class="s113" d="m553.3 2083.9l-1.9 96.3l104.1 69.8h-206.3l12.4-154.1z" /><path class="s113" d="m319.2 2088.3l-27.9 86.7l20.4 130l-141.3-115.6l55.8-131.8z" /><path class="s114" d="m608.9 1270.6q1 10.6 2.6 30.5c0.2 3.3 0.5 6.8 0.7 10.5c7.5 108.6 21.7 420.4-28.1 789.6l-32.9 0.5l-92.9 1.4l-37.8 0.5q9.1-263.7 7.5-496.8c-0.7-103.5-3.5-200.9-10-266.5c-2-20.1-4.4-37.1-7.2-50.5c-1.6-7.7-3.3-14.2-5.2-19.2z" /><path class="s114" d="m340 1360.3q5.2-27.4 7.9-42.6l109.3-6.1l86.6-4.7c-0.3 10.4-2.6 27.2-6.5 49c-11.2 61.8-35.4 163.5-62.9 272.7q-57.3 226.5-128.9 484.8l-60.6-14.7l-99-24.1l-18.9-4.5c91.2-298.4 152.2-600.6 173-709.8z" /><path class="s113" d="m301.5 1504.7l109.3-6c-1.6-7.7-3.3-14.2-5.2-19.2h80.7l125.2 30.5l20.3 5q-6.9 2.2-19.6 5.5c-23.3 6-66 15.7-121.3 22.4c-22.4 2.7-46.8 5-72.9 6.3c-38.4 1.8-80.3 1.7-124.4-1.9q5.2-27.3 7.9-42.6z" /><path class="s115" d="m411.3 1849c15.1-61.8 37.9-155.7 38.3-161.1v-2.5l61.9-22.5l2.6 6.8l-57.5 20.9c-3.7 19.6-32.1 135.6-38.1 160.1z" /><path class="s115" d="m531.9 1953.3l1.4-7.1c42.9 8.1 73.2-3.3 73.5-3.4l2.8 6.7c-1 0.4-18.1 6.9-45.2 6.9c-9.6 0-20.6-0.8-32.5-3.1z" /><path class="s115" d="m302.5 1940.7l4.2-5.9c23.2 15.7 73.5 6.7 74 6.6l1.4 7.1c-1.1 0.2-15.6 2.8-32.9 2.8c-16 0-34.4-2.2-46.7-10.6z" /><path class="s5" d="m520 2199l29.2-21.7l4.5 5.8l-29.1 21.6z" /><path class="s5" d="m250.2 2187.3l39.7-15.6l2.8 6.6l-39.7 15.7z" /><path class="s116" d="m509.1 1091.5q127.6 15.6 159.8 155.3l-38.4 166.1l17.4 110.7q-173.5 16.9-352-12l54.2-282.3z" /><path class="s117" d="m384.5 1416.2l33.5-118.3q50.2 120.1 11.8 147.5z" /><path class="s113" d="m436.6 1221c-4-2.1-5.5-6.9-3.4-10.7l1.7-3c2.1-3.9 7-5.4 11-3.3l142.8 73.4l-9.2 17.1z" /><path class="s118" d="m398.2 1396.9l6.1-81.1l0.7-8.9q62.9-43.1 98.7-79.2c3.4-3.5 8.8-4.3 13.3-2.3c10.6 4.8 29.3 14.3 37.6 25.6q12.1 16.2-13.9 9.3l-10.6-0.6c6.3 4.8 8.4 8 13.3 14.1l1.9 2.4c0.7 3.7 1.7 10.2-0.5 17.2l-0.1 0.8c-1.3 7-6.3 12.9-12.9 15.6l-4.1 1.6c5.9 5.7 7 13.9 5.5 23.6l-82.6 43.4l-49.3 25.8l-3.8 2.1z" /><path class="s119" d="m493.4 1265l22.5-10.7c3.1-1.4 6.5-1.9 9.8-1.3l24 4l-0.7 3.6l-23.9-4.1c-2.6-0.4-5.2-0.1-7.6 1.1l-22.5 10.6z" /><path class="s119" d="m497.9 1285.4l27-10q2.4-1 5.1-1h15.3v3.7h-15.3q-2 0-3.8 0.6l-27 10.1z" /><path class="s119" d="m501.6 1305.9l24.5-9c2.5-0.9 5.2-1.3 7.8-1l10.1 1.1l-0.4 3.6l-10.1-1.1c-2-0.2-4.2 0-6.1 0.7l-24.5 9z" /><path class="s119" d="m404.3 1315.8l13.7-17.9l32.6 80.5l-49.3 25.8l-3.1-7.3z" /><path class="s120" d="m429.8 1445.4q-73.8 68-133.9 66.2l17.4-80.1z" /><path class="s116" d="m357.6 1325.9l60.4-28c-9.7 56.4-0.5 102.8 11.8 147.5l-130.2 39.7c-51.4-1.2-67.3-60.5-70.3-120.2c-7.3-144.5 106.7-268.9 255.6-273.8q15.1-0.5 24.2 0.4z" /><path class="s121" d="m542.8 1212.3l181.9 4.4l-52.9 157.9l-18.3 54.6l-5 15l-181.9-4.4z" /><path class="s122" d="m671.8 1374.6l-18.3 54.6q-20-24.7-20.3-73.5z" /><path class="s118" d="m725.2 1369c2.4 18.4 0 42.6-19.5 51.6c-16.6 7.7-36.5 0.1-47.1-13.4c-10.5-13.4-16-29.7-24.4-44.3q-11.7-20.4 7.5-18q-8.7-30.1 14.8-15.1q-8-12-2.4-22.9q5.5-10.8 20.4 10.9q-15.5-26.5 0-30.1c7.6-1.8 15.6 9.9 19.2 14.7c11.5 14.9 22 31.5 27.7 49.5c1.8 5.5 3.1 11.2 3.8 17.1z" /><path class="s119" d="m686.3 1346l-17.7-38.8c-0.4-0.9 0-2 1-2.4c0.9-0.4 2 0.1 2.4 1l17.7 38.8c0.4 0.9 0 2-1 2.4q-0.3 0.1-0.7 0.1c-0.7 0-1.4-0.4-1.7-1.1z" /><path class="s119" d="m668.2 1360.5l-16.7-34.7c-0.5-0.9-0.1-2 0.9-2.4c0.9-0.4 2-0.1 2.4 0.8l16.8 34.8c0.4 0.9 0 2-0.9 2.4q-0.4 0.2-0.8 0.2c-0.7 0-1.4-0.4-1.7-1.1z" /><path class="s119" d="m654.3 1372.3l-14.4-26.6c-0.5-0.9-0.1-2 0.8-2.4c0.9-0.5 2-0.2 2.5 0.7l14.4 26.7c0.5 0.8 0.1 1.9-0.8 2.4q-0.4 0.2-0.9 0.2c-0.6 0-1.3-0.3-1.6-1z" /><path class="s113" d="m607 1206.4h65l-11.1 21.7h-65.1z" /><path class="s120" d="m476.7 1152.2c-1.4-0.8-1.8-2.5-1-3.7c0.8-1.3 2.5-1.7 3.8-1c33.8 19.8 59 1.6 60.1 0.8c1.2-0.9 3-0.7 3.9 0.5c0.9 1.2 0.7 2.9-0.5 3.8c-0.2 0.1-12.9 9.4-32.2 9.4c-9.9 0-21.5-2.4-34.1-9.8z" /><path class="s120" d="m427.1 1446.1c-23.2-76.1-15.5-130.1-12.7-144.9l-106.9 17.4c-1.4 0.3-2.9-0.7-3.2-2.2c-0.2-1.5 0.8-2.9 2.3-3.1l115.2-18.7l-1.1 4c-0.2 0.6-15 58.1 11.7 146c0.5 1.4-0.4 2.9-1.8 3.4q-0.4 0.1-0.8 0.1c-1.2 0-2.4-0.8-2.7-2z" /><path class="s120" d="m342.7 1308.9c0-0.6-3.3-60.6 39.5-122c0.9-1.3 2.6-1.6 3.9-0.8c1.3 0.9 1.6 2.6 0.7 3.8c-41.6 59.8-38.6 118.1-38.5 118.7c0.1 1.5-1.1 2.8-2.6 2.9q-0.1 0-0.2 0c-1.5 0-2.7-1.1-2.8-2.6z" /><path class="s118" d="m538.6 1025v69.7c0 22.5-18 40.7-40.3 40.7c-22.3 0-40.3-18.2-40.3-40.7v-69.7z" /><path class="s113" d="m538.6 1028.6v61.2q-38.4-12.4-42.5-55.5z" /><path class="s118" d="m569 945.5q12.5 97.8-26.7 109.4q-39.2 11.6-75.1-22.1l7.4-80.6l58-33.2z" /><path class="s113" d="m392.5 1019.1c1.6-1.1 3-2.4 4.4-3.7c16.1-14.1 24.3-34.9 24.2-56.1q-0.3-118 126-60.4c52.6-34.8 71.1 12.3 49.2 48.1q-29.3 48.1-95.1 5q-19.2 1.7-32.4 40.6l2.1 12.1c18.5 51.1 2.9 110.9-15.7 137.9l-21-1.3c8.6-11.3 11.2-25.5 8-42.6c-3.7 16.6-9.2 31.4-19 41.8l-77.4-4.9c-12.2-51.2 18.4-94.7 46.7-116.5z" /><path class="s118" d="m460.3 972.8c9.9-3.1 21 3.5 24.7 14.7c3.8 11.3-1.3 22.9-11.2 26.1c-9.9 3.1-21-3.6-24.7-14.8c-3.8-11.3 1.3-22.9 11.2-26z" /><path class="s113" d="m467.6 998.2c0-6.6-5.4-11.2-10.4-11.5c-1 0-1.8-0.9-1.7-1.9c0-0.9 0.9-1.7 1.8-1.7q0.1 0 0.1 0c7.5 0.4 13.9 7.3 13.9 15.1c0 1-0.9 1.8-1.9 1.8c-1 0-1.8-0.8-1.8-1.8z" /><path class="s113" d="m559.9 978.3c2.6 0 4.6 2 4.6 4.5c0 2.5-2 4.5-4.6 4.5c-2.6 0-4.7-2-4.7-4.5c0-2.5 2.1-4.5 4.7-4.5z" /><path class="s113" d="m531.8 976.1c2.6 0 4.7 2 4.7 4.5c0 2.5-2.1 4.5-4.7 4.5c-2.5 0-4.6-2-4.6-4.5c0-2.5 2.1-4.5 4.6-4.5z" /><path class="s113" d="m547.2 1012.5c-0.7-0.7-0.7-1.8 0.1-2.5c1.9-1.8 4.1-4.5 3.5-6.8c-0.4-2.1-3.2-3.4-4.2-3.8l-1.3-0.4l0.5-11.5c0-1 0.9-1.7 1.9-1.7c1.1 0 1.9 0.9 1.8 1.8l-0.4 9c1.7 0.8 4.6 2.7 5.4 5.8c0.7 3.2-0.8 6.6-4.6 10.2c-0.4 0.3-0.9 0.5-1.3 0.5c-0.5 0-1-0.2-1.4-0.6z" /><path class="s113" d="m526.7 1019.4c-0.8-0.7-0.9-1.8-0.2-2.5c0.7-0.8 1.9-0.9 2.6-0.2c8.3 7 17.7 5.7 17.8 5.7c0.9-0.2 2 0.5 2.1 1.5c0.2 0.9-0.5 1.9-1.5 2c-0.2 0-1.1 0.2-2.7 0.2c-3.8 0-11.3-0.9-18.1-6.7z" /><path class="s123" d="m508.7 989.4c6.8 0 12.2 5.3 12.2 11.8c0 6.6-5.4 11.9-12.2 11.9c-6.7 0-12.2-5.3-12.2-11.9c0-6.5 5.5-11.8 12.2-11.8z" /></svg>