<svg xmlns="http://www.w3.org/2000/svg" xmlns:xlink="http://www.w3.org/1999/xlink" width="2757" height="2305"><style><![CDATA[.K{mix-blend-mode:multiply}.M{mix-blend-mode:multiply}.N{mix-blend-mode:soft-light}.S{mix-blend-mode:multiply}.V{mix-blend-mode:soft-light}.j{mix-blend-mode:multiply}.q{mix-blend-mode:multiply}.r{mix-blend-mode:soft-light}.AN{mix-blend-mode:soft-light}.AO{mix-blend-mode:multiply}.AT{mix-blend-mode:multiply}.Ad{mix-blend-mode:multiply}.Ae{mix-blend-mode:multiply}.BH{mix-blend-mode:multiply}.BI{mix-blend-mode:soft-light}.BU{opacity:.3}.BV{fill:#fff}.BW{fill:#d8dee8}.BX{fill-rule:evenodd}.BY{fill:#102048}.BZ{fill:#97a6b7}.Ba{fill:#f9b384}]]></style><defs><linearGradient id="A" gradientUnits="userSpaceOnUse"/><linearGradient id="B" x1="305.1" y1="307" x2="2365.9" y2="307" href="#A"><stop stop-color="#d8dee8"/><stop offset="1" stop-color="#fff"/></linearGradient><linearGradient id="C" x1="305.2" y1="307" x2="2363.3" y2="307" href="#A"><stop stop-color="#ff9085"/><stop offset="1" stop-color="#fb6fbb"/></linearGradient><linearGradient id="D" x1="2389.4" y1="832.4" x2="2382.2" y2="1073.1" href="#A"><stop stop-color="#d8dee8"/><stop offset="1" stop-color="#fff"/></linearGradient><linearGradient id="E" x1="1" y1="307" x2="642.7" y2="307" href="#A"><stop stop-color="#d8dee8"/><stop offset="1" stop-color="#fff"/></linearGradient><linearGradient id="F" x1="-37.7" y1="1424.7" x2="-.1" y2="643.4" href="#A"><stop stop-color="#d8dee8"/><stop offset="1" stop-color="#fff"/></linearGradient><linearGradient id="G" x1="508.4" y1="663.1" x2="508.4" y2="1736.5" href="#A"><stop stop-color="#d8dee8"/><stop offset="1" stop-color="#fff"/></linearGradient><linearGradient id="H" x1="123" y1="651.6" x2="1053.9" y2="2162.5" href="#A"><stop stop-color="#d8dee8"/><stop offset="1" stop-color="#fff"/></linearGradient><linearGradient id="I" x1="351.4" y1="672.3" x2="351.4" y2="1686.6" href="#A"><stop stop-color="#d8dee8"/><stop offset="1" stop-color="#fff"/></linearGradient><linearGradient id="J" x1="2598.7" y1="994.4" x2="1301" y2="1082.8" href="#A"><stop stop-color="#aa80f9"/><stop offset="1" stop-color="#6165d7"/></linearGradient><linearGradient id="K" x1="1463.7" y1="467.2" x2="1551.7" y2="2643.7" href="#A"><stop stop-color="#aa80f9"/><stop offset="1" stop-color="#6165d7"/></linearGradient><linearGradient id="L" x1="1193.8" y1="1792.6" x2="2723.7" y2="2872.8" href="#A"><stop offset="0" stop-color="#e38ddd"/><stop offset="1" stop-color="#9571f6"/></linearGradient><linearGradient id="M" x1="1648.7" y1="1529.9" x2="1764.2" y2="2208.4" href="#A"><stop offset="0" stop-color="#e38ddd"/><stop offset="1" stop-color="#9571f6"/></linearGradient><linearGradient id="N" x1="2248.3" y1="1020.3" x2="1627.2" y2="1020.3" href="#A"><stop offset="0" stop-color="#e38ddd"/><stop offset="1" stop-color="#9571f6"/></linearGradient><linearGradient id="O" x1="909.4" y1="1813.6" x2="2457.7" y2="1236.6" href="#A"><stop stop-color="#311944"/><stop offset="1" stop-color="#893976"/></linearGradient><linearGradient id="P" x1="1753.5" y1="1069.4" x2="1770.1" y2="1478.1" href="#A"><stop stop-color="#ff9085"/><stop offset="1" stop-color="#fb6fbb"/></linearGradient><linearGradient id="Q" x1="2521.5" y1="2339.7" x2="1821.9" y2="1082.9" href="#A"><stop stop-color="#311944"/><stop offset="1" stop-color="#893976"/></linearGradient><linearGradient id="R" x1="2057.9" y1="1076.9" x2="1069" y2="1990.3" href="#A"><stop stop-color="#ff9085"/><stop offset="1" stop-color="#fb6fbb"/></linearGradient><linearGradient id="S" x1="2052" y1="1104" x2="1063.1" y2="2017.4" href="#A"><stop stop-color="#ff9085"/><stop offset="1" stop-color="#fb6fbb"/></linearGradient><linearGradient id="T" x1="1972.3" y1="1001.4" x2="983.4" y2="1914.8" href="#A"><stop stop-color="#ff9085"/><stop offset="1" stop-color="#fb6fbb"/></linearGradient><linearGradient id="U" x1="2139.8" y1="1182.5" x2="1150.9" y2="2095.9" href="#A"><stop stop-color="#ff9085"/><stop offset="1" stop-color="#fb6fbb"/></linearGradient><linearGradient id="V" x1="1078.3" y1="2257.7" x2="2626.6" y2="1680.8" href="#A"><stop stop-color="#311944"/><stop offset="1" stop-color="#893976"/></linearGradient><linearGradient id="W" x1="1706.4" y1="1407.8" x2="1729.8" y2="1987" href="#A"><stop stop-color="#ff9085"/><stop offset="1" stop-color="#fb6fbb"/></linearGradient><linearGradient id="X" x1="2349.5" y1="2411.2" x2="1669.1" y2="1188.7" href="#A"><stop stop-color="#311944"/><stop offset="1" stop-color="#893976"/></linearGradient><linearGradient id="Y" x1="2255" y1="1321" x2="1266.1" y2="2234.4" href="#A"><stop stop-color="#ff9085"/><stop offset="1" stop-color="#fb6fbb"/></linearGradient><linearGradient id="Z" x1="2239" y1="1351.6" x2="1250" y2="2264.9" href="#A"><stop stop-color="#ff9085"/><stop offset="1" stop-color="#fb6fbb"/></linearGradient><linearGradient id="a" x1="2124.7" y1="1204" x2="1135.7" y2="2117.4" href="#A"><stop stop-color="#ff9085"/><stop offset="1" stop-color="#fb6fbb"/></linearGradient><linearGradient id="b" x1="2373.9" y1="1473.6" x2="1384.9" y2="2387" href="#A"><stop stop-color="#ff9085"/><stop offset="1" stop-color="#fb6fbb"/></linearGradient><linearGradient id="c" x1="2344.3" y1="1788.6" x2="2344.3" y2="1123.2" href="#A"><stop stop-color="#ffc444"/><stop offset="1" stop-color="#f36f56"/></linearGradient><linearGradient id="d" x1="2138.6" y1="1312.1" x2="2490.6" y2="1267.9" href="#A"><stop stop-color="#ffc444"/><stop offset="1" stop-color="#f36f56"/></linearGradient><linearGradient id="e" x1="2321.8" y1="1220" x2="2253.1" y2="1229.4" href="#A"><stop stop-color="#311944"/><stop offset=".2" stop-color="#49204e"/><stop offset=".3" stop-color="#532353"/><stop offset="1" stop-color="#a03976"/></linearGradient><linearGradient id="f" x1="2536.2" y1="2239.8" x2="2308.6" y2="2312.9" href="#A"><stop stop-color="#fcb148"/><stop offset=".3" stop-color="#ffc444"/><stop offset=".9" stop-color="#f8924f"/></linearGradient><linearGradient id="g" x1="2827.2" y1="1911.6" x2="2630.7" y2="2345.2" href="#A"><stop stop-color="#ffdb44"/><stop offset="1" stop-color="#feef06"/></linearGradient><linearGradient id="h" x1="2413.4" y1="2303.8" x2="2375.5" y2="2096.7" href="#A"><stop stop-color="#fcb148"/><stop offset=".3" stop-color="#ffc444"/><stop offset=".9" stop-color="#f8924f"/></linearGradient><linearGradient id="i" x1="2714.8" y1="1850.1" x2="2871.1" y2="2181.8" href="#A"><stop stop-color="#fcb148"/><stop offset=".3" stop-color="#ffc444"/><stop offset=".9" stop-color="#f8924f"/></linearGradient><linearGradient id="j" x1="2623.1" y1="1827.9" x2="2704.2" y2="2131.8" href="#A"><stop stop-color="#ffdb44"/><stop offset="1" stop-color="#feef06"/></linearGradient><linearGradient id="k" x1="2601.5" y1="1893.9" x2="2762.7" y2="2236" href="#A"><stop stop-color="#fcb148"/><stop offset=".3" stop-color="#ffc444"/><stop offset=".9" stop-color="#f8924f"/></linearGradient><linearGradient id="l" x1="826.3" y1="1566.4" x2="969.5" y2="1200.8" href="#A"><stop stop-color="#311944"/><stop offset="1" stop-color="#893976"/></linearGradient><linearGradient id="m" x1="1160.6" y1="1772.4" x2="1329.5" y2="1341.1" href="#A"><stop stop-color="#311944"/><stop offset="1" stop-color="#893976"/></linearGradient><linearGradient id="n" x1="881.3" y1="1516.7" x2="1002.7" y2="1206.7" href="#A"><stop stop-color="#311944"/><stop offset="1" stop-color="#893976"/></linearGradient><linearGradient id="o" x1="840.8" y1="1526.1" x2="974.5" y2="1184.5" href="#A"><stop stop-color="#311944"/><stop offset="1" stop-color="#893976"/></linearGradient><linearGradient id="p" x1="1140.9" y1="1739.7" x2="1053.2" y2="1874.5" href="#A"><stop stop-color="#311944"/><stop offset="1" stop-color="#893976"/></linearGradient><linearGradient id="q" x1="1287.4" y1="1601.6" x2="1131.2" y2="1842" href="#A"><stop stop-color="#311944"/><stop offset="1" stop-color="#893976"/></linearGradient><linearGradient id="r" x1="1204" y1="1671.5" x2="1110.5" y2="1815.2" href="#A"><stop offset="0" stop-color="#e38ddd"/><stop offset="1" stop-color="#9571f6"/></linearGradient><linearGradient id="s" x1="1024.3" y1="1394.5" x2="876.9" y2="1621.2" href="#A"><stop stop-color="#311944"/><stop offset="1" stop-color="#893976"/></linearGradient><linearGradient id="t" x1="1127.6" y1="1121" x2="1037.9" y2="1293.9" href="#A"><stop stop-color="#ff9085"/><stop offset="1" stop-color="#fb6fbb"/></linearGradient><linearGradient id="u" x1="1490.4" y1="1265.4" x2="1399.8" y2="1440.1" href="#A"><stop stop-color="#ff9085"/><stop offset="1" stop-color="#fb6fbb"/></linearGradient><linearGradient id="v" x1="827.9" y1="2185.3" x2="827.9" y2="1995.9" href="#A"><stop stop-color="#aa80f9"/><stop offset="1" stop-color="#6165d7"/></linearGradient><linearGradient id="w" x1="1496.9" y1="2038.9" x2="944.1" y2="2038.9" href="#A"><stop stop-color="#d8dee8"/><stop offset="1" stop-color="#fff"/></linearGradient><linearGradient id="x" x1="931.5" y1="2033.3" x2="1507.2" y2="2033.3" href="#A"><stop stop-color="#aa80f9"/><stop offset="1" stop-color="#6165d7"/></linearGradient><linearGradient id="y" x1="832.8" y1="2055.5" x2="832.8" y2="1845.3" href="#A"><stop stop-color="#ffc444"/><stop offset="1" stop-color="#f36f56"/></linearGradient><linearGradient id="z" x1="1496.9" y1="1861.3" x2="944.1" y2="1861.3" href="#A"><stop stop-color="#d8dee8"/><stop offset="1" stop-color="#fff"/></linearGradient><linearGradient id="AA" x1="931.5" y1="1853.1" x2="1507.2" y2="1853.1" href="#A"><stop stop-color="#ffc444"/><stop offset="1" stop-color="#f36f56"/></linearGradient><linearGradient id="AB" x1="659.2" y1="1733.8" x2="969" y2="1733.8" href="#A"><stop stop-color="#ff9085"/><stop offset="1" stop-color="#fb6fbb"/></linearGradient><linearGradient id="AC" x1="640.4" y1="1724.3" x2="777.1" y2="1725.8" href="#A"><stop stop-color="#aa80f9"/><stop offset="1" stop-color="#6165d7"/></linearGradient><linearGradient id="AD" x1="1496.9" y1="1733.3" x2="944.1" y2="1733.3" href="#A"><stop stop-color="#d8dee8"/><stop offset="1" stop-color="#fff"/></linearGradient><linearGradient id="AE" x1="931.5" y1="1727.3" x2="1507.2" y2="1727.3" href="#A"><stop stop-color="#aa80f9"/><stop offset="1" stop-color="#6165d7"/></linearGradient><linearGradient id="AF" x1="931.5" y1="1841.4" x2="1507.2" y2="1841.4" href="#A"><stop stop-color="#aa80f9"/><stop offset="1" stop-color="#6165d7"/></linearGradient><linearGradient id="AG" x1="696.7" y1="1907.6" x2="674.1" y2="1874.2" href="#A"><stop stop-color="#ffc444"/><stop offset="1" stop-color="#f36f56"/></linearGradient><linearGradient id="AH" x1="697.3" y1="1898.4" x2="664.4" y2="1849.6" href="#A"><stop stop-color="#aa80f9"/><stop offset="1" stop-color="#6165d7"/></linearGradient><linearGradient id="AI" x1="1102.3" y1="1911.7" x2="1192.5" y2="1911.7" href="#A"><stop stop-color="#444b8c"/><stop offset="1" stop-color="#26264f"/></linearGradient><linearGradient id="AJ" x1="1524.3" y1="1895.6" x2="1522.7" y2="2156.3" href="#A"><stop stop-color="#311944"/><stop offset="1" stop-color="#a03976"/></linearGradient><linearGradient id="AK" x1="1785.1" y1="2101.4" x2="1615.6" y2="2387.3" href="#A"><stop stop-color="#ff9085"/><stop offset="1" stop-color="#fb6fbb"/></linearGradient><linearGradient id="AL" x1="1032.1" y1="1948.6" x2="1122.2" y2="1948.6" href="#A"><stop stop-color="#444b8c"/><stop offset="1" stop-color="#26264f"/></linearGradient><linearGradient id="AM" x1="1454.1" y1="1932.5" x2="1452.5" y2="2193.2" href="#A"><stop stop-color="#311944"/><stop offset="1" stop-color="#a03976"/></linearGradient><linearGradient id="AN" x1="1644.9" y1="2221.3" x2="1563.1" y2="2493.6" href="#A"><stop stop-color="#ff9085"/><stop offset="1" stop-color="#fb6fbb"/></linearGradient><linearGradient id="AO" x1="2170.3" y1="1860.4" x2="1887" y2="2340.9" href="#A"><stop stop-color="#aa80f9"/><stop offset="1" stop-color="#6165d7"/></linearGradient><linearGradient id="AP" x1="1858.4" y1="2241.9" x2="1245.7" y2="3623.6" href="#A"><stop stop-color="#ff9085"/><stop offset="1" stop-color="#fb6fbb"/></linearGradient><linearGradient id="AQ" x1="2014.1" y1="2070.7" x2="1736.3" y2="2697.2" href="#A"><stop stop-color="#ff9085"/><stop offset="1" stop-color="#fb6fbb"/></linearGradient><linearGradient id="AR" x1="1915.6" y1="1877.4" x2="1867.1" y2="1986.7" href="#A"><stop stop-color="#ff9085"/><stop offset="1" stop-color="#fb6fbb"/></linearGradient><linearGradient id="AS" x1="1627.1" y1="1863.1" x2="1918.9" y2="1856.2" href="#A"><stop stop-color="#ff9085"/><stop offset="1" stop-color="#fb6fbb"/></linearGradient><linearGradient id="AT" x1="2386.5" y1="1763.2" x2="2582.6" y2="2144.3" href="#A"><stop stop-color="#444b8c"/><stop offset="1" stop-color="#26264f"/></linearGradient><linearGradient id="AU" x1="2191.3" y1="1894.3" x2="2345.2" y2="1897.1" href="#A"><stop stop-color="#40447e"/><stop offset="1" stop-color="#3c3b6b"/></linearGradient><linearGradient id="AV" x1="2263.5" y1="1996.4" x2="2369.5" y2="1891.4" href="#A"><stop stop-color="#444b8c"/><stop offset="1" stop-color="#26264f"/></linearGradient><linearGradient id="AW" x1="2069.6" y1="2082.8" x2="1983.1" y2="1936" href="#A"><stop stop-color="#444b8c"/><stop offset="1" stop-color="#26264f"/></linearGradient><linearGradient id="AX" x1="2137.8" y1="2012.1" x2="2239.6" y2="2014" href="#A"><stop stop-color="#444b8c"/><stop offset="1" stop-color="#26264f"/></linearGradient><linearGradient id="AY" x1="2225.6" y1="1978.6" x2="2230.2" y2="2031.1" href="#A"><stop stop-color="#444b8c"/><stop offset="1" stop-color="#26264f"/></linearGradient><linearGradient id="AZ" x1="2226.8" y1="2049.9" x2="2215.5" y2="2138.7" href="#A"><stop stop-color="#444b8c"/><stop offset="1" stop-color="#26264f"/></linearGradient><linearGradient id="Aa" x1="2218.7" y1="2036" x2="2216.4" y2="2112" href="#A"><stop stop-color="#444b8c"/><stop offset="1" stop-color="#26264f"/></linearGradient><linearGradient id="Ab" x1="2295.9" y1="2005.4" x2="2387.4" y2="2007.1" href="#A"><stop stop-color="#444b8c"/><stop offset="1" stop-color="#26264f"/></linearGradient><linearGradient id="Ac" x1="2373.5" y1="1960.6" x2="2378.1" y2="2012.4" href="#A"><stop stop-color="#444b8c"/><stop offset="1" stop-color="#26264f"/></linearGradient><linearGradient id="Ad" x1="2380.5" y1="2040.5" x2="2369.4" y2="2127.9" href="#A"><stop stop-color="#444b8c"/><stop offset="1" stop-color="#26264f"/></linearGradient><linearGradient id="Ae" x1="2372.6" y1="2026.9" x2="2370.3" y2="2101.8" href="#A"><stop stop-color="#444b8c"/><stop offset="1" stop-color="#26264f"/></linearGradient><linearGradient id="Af" x1="2171.2" y1="1890.7" x2="2189.9" y2="1948.7" href="#A"><stop stop-color="#aa80f9"/><stop offset="1" stop-color="#6165d7"/></linearGradient><linearGradient id="Ag" x1="2341.4" y1="1830.8" x2="2359.8" y2="1887.7" href="#A"><stop stop-color="#aa80f9"/><stop offset="1" stop-color="#6165d7"/></linearGradient><linearGradient id="Ah" x1="2153.6" y1="2033.3" x2="2138.1" y2="2017.8" href="#A"><stop stop-color="#aa80f9"/><stop offset="1" stop-color="#6165d7"/></linearGradient><linearGradient id="Ai" x1="2122.2" y1="2065.3" x2="2106.7" y2="2049.8" href="#A"><stop stop-color="#aa80f9"/><stop offset="1" stop-color="#6165d7"/></linearGradient><linearGradient id="Aj" x1="2121.1" y1="2065.2" x2="2105.8" y2="2049.8" href="#A"><stop stop-color="#aa80f9"/><stop offset="1" stop-color="#6165d7"/></linearGradient><linearGradient id="Ak" x1="2152.8" y1="2032.2" x2="2137.6" y2="2017" href="#A"><stop stop-color="#aa80f9"/><stop offset="1" stop-color="#6165d7"/></linearGradient><linearGradient id="Al" x1="2132.6" y1="1959.8" x2="2164.7" y2="2031.6" href="#A"><stop stop-color="#aa80f9"/><stop offset="1" stop-color="#6165d7"/></linearGradient><linearGradient id="Am" x1="2107.1" y1="1972" x2="2139.1" y2="2043.4" href="#A"><stop stop-color="#aa80f9"/><stop offset="1" stop-color="#6165d7"/></linearGradient><linearGradient id="An" x1="2098.7" y1="1976.3" x2="2130.6" y2="2047.2" href="#A"><stop stop-color="#aa80f9"/><stop offset="1" stop-color="#6165d7"/></linearGradient><linearGradient id="Ao" x1="2147.3" y1="1953" x2="2178.9" y2="2023.5" href="#A"><stop stop-color="#aa80f9"/><stop offset="1" stop-color="#6165d7"/></linearGradient><linearGradient id="Ap" x1="2392.5" y1="2060.8" x2="2303.7" y2="1909.4" href="#A"><stop stop-color="#444b8c"/><stop offset="1" stop-color="#26264f"/></linearGradient><linearGradient id="Aq" x1="2478.5" y1="2024.2" x2="2458.4" y2="2003.4" href="#A"><stop stop-color="#aa80f9"/><stop offset="1" stop-color="#6165d7"/></linearGradient><linearGradient id="Ar" x1="2441.9" y1="2061.9" x2="2421.9" y2="2041.2" href="#A"><stop stop-color="#aa80f9"/><stop offset="1" stop-color="#6165d7"/></linearGradient><linearGradient id="As" x1="2442.6" y1="2061.4" x2="2422.5" y2="2040.5" href="#A"><stop stop-color="#aa80f9"/><stop offset="1" stop-color="#6165d7"/></linearGradient><linearGradient id="At" x1="2477.3" y1="2024.9" x2="2457.4" y2="2004.2" href="#A"><stop stop-color="#aa80f9"/><stop offset="1" stop-color="#6165d7"/></linearGradient><linearGradient id="Au" x1="2443.5" y1="1951" x2="2478.8" y2="2081.1" href="#A"><stop stop-color="#aa80f9"/><stop offset="1" stop-color="#6165d7"/></linearGradient><linearGradient id="Av" x1="2424.1" y1="1958.3" x2="2459" y2="2086.8" href="#A"><stop stop-color="#aa80f9"/><stop offset="1" stop-color="#6165d7"/></linearGradient><linearGradient id="Aw" x1="2402.5" y1="1964.2" x2="2437.7" y2="2093.8" href="#A"><stop stop-color="#aa80f9"/><stop offset="1" stop-color="#6165d7"/></linearGradient><linearGradient id="Ax" x1="2464.4" y1="1945" x2="2499.4" y2="2073.8" href="#A"><stop stop-color="#aa80f9"/><stop offset="1" stop-color="#6165d7"/></linearGradient><linearGradient id="Ay" x1="2090.8" y1="1913.9" x2="2297.7" y2="2316" href="#A"><stop stop-color="#444b8c"/><stop offset="1" stop-color="#26264f"/></linearGradient><linearGradient id="Az" x1="2191" y1="1909.4" x2="2345.1" y2="1912.2" href="#A"><stop stop-color="#aa80f9"/><stop offset="1" stop-color="#6165d7"/></linearGradient><path id="BA" d="M2728.5 2019.4c0 105.7-82.6 188.7-188.2 185.5-109.8-3.4-202.2-98.2-202.2-211.8 0-113.5 92.4-195.9 202.2-184.5 105.6 11 188.2 105.2 188.2 210.8z"/></defs><path d="M2363.3 672.3l2.6 853.4-1723.2 36.2L305.1 309l1661.2 89.1-6.5 36.1z" fill="url(#B)"/><path d="M2363.3 672.3L673.5 604.2 305.2 309l479.1 20.7 1178.8 50.9L2279 610.9q0 0 0 0z" fill="url(#C)"/><path d="M2390 743.7L640.7 654v-71.9l1749 91z" fill="url(#D)"/><path d="M642.6 582.1l.1 980L1 1465.3l5.2-795.2L305.1 309z" fill="url(#E)"/><path d="M640.7 663.1L302.2 366.6 0 722.9.6 671l302.9-361.8 337.2 272.9z" fill="url(#F)"/><g class="BV BX"><path d="M538.1 736.6v607.1l-465.9-53.9V751zm-29.2 544.7V776.7l-125.1 2.7v489.2zm-157.1-15.9V780.1L236 782.6v471zm-145.6-14.7V783.3l-107.6 2.3v454.2z"/><path d="M549.2 1356.2L61 1299.7V740.2l488.2-15.1zm-465.9-76.3l443.7 51.3V748.1L83.3 761.8zm436.8 13.7l-147.4-14.9V768.5l147.4-3.1zM395 1258.5l102.8 10.4V788.1L395 790.3zm-32.1 19.1l-138.1-14v-492l138.1-2.9zm-115.8-34.1l93.5 9.4V791.4l-93.5 2zm-29.8 19.4l-129.8-13.2V774.5l129.8-2.7zm-107.5-33.3l85.2 8.6V794.5l-85.2 1.9z"/></g><path d="m506.4 780.6v496.6l-120.1-12.1v-482z" fill="url(#G)"/><path d="M204 786.8v460l-103.3-10.4V788.9z" fill="url(#H)"/><path d="M349.4 783.8v477.6l-111.2-11.2V786.1z" fill="url(#I)"/><g class="BZ"><path d="M2145 922v609.6l-1245.5 24.9V887.2z"/><path class="K" d="m2118.2 1532.1l-1218.7 24.4v-95.7l43.7-462.4q211.4-77.3 391.6 76.9c175.6 150.1 91.5 286.8 442.5 309.1c268.1 16.9 321.2 57.7 340.9 147.7z" opacity=".6"/></g><path d="M961.6 1555.3l-62.1 1.2V887.2l62.1 1.6zm1183.4-23.7l-51.8 1v-612l51.8 1.4z" class="BW"/><path d="m909.8 851.9l-55.2-1.7v-96.5l55.2 2.2z" class="BV"/><path d="M2176 890.5L909.8 851.9v-96L2176 803.2z" class="BW"/><path d="M2155.3 1045.5l-1276.5-23.4V851l1276.5 39z" class="BV"/><g class="BW"><path class="M" d="M2155.3 938.6L878.8 904.5v-17.8l1276.5 35.7zm0 42.1L878.8 950.8V933l1276.5 31.5zm0 42.1L878.8 997.2v-17.8l1276.5 27.2z" opacity=".5"/></g><path class="N BU BV" d="M2279 610.9c-75.6-33.9-162.7-47.3-242-58.8-106.1-15.5-213.3-13.3-319.7-2-98.8 10.4-197.7 33.2-297.5 25.8-108.3-8.1-206.4-50.1-296-109.7-95.9-63.8-180.7-106.5-295.4-127.8l-44.1-8.7 1178.8 50.9z"/><path d="M1901.3 1133.3l277-12.5 40.3-98.5 179.7 91v.1l.1.1q.1-.1.2-.2c12.7 4.6 21.9 17.3 21.9 32.6V1988c0 15.8-9.8 28.1-23.1 31.3L2220.3 2137l-38.6-144.8-232-31.3q0-.1 0-.1l-48.4-6.5c-15.2-2.1-26.2-18.4-26.2-36.1v-751.5c0-17.8 11-32.7 26.2-33.4z" fill="url(#J)"/><path d="M1563.6 1046.9l637.9-26.9c5.7-.3 12 .5 17.1 2.3 16.8 5.7 29.7 21.3 29.7 40.1v1036.9c0 24.4-21.7 42-46.4 38.9l-638.4-80.5c-20-2.5-34.4-22.6-34.4-44.4V1088c0-21.8 14.4-40.2 34.5-41.1z" fill="url(#K)"/><path d="M1539.3 1088.3c0-14.6 10.7-26.9 24.1-27.4l638.4-25.4c16.5-.7 29.5 12 29.5 28.3v1035.1c0 16.3-13.1 27.9-29.5 25.8l-638.6-79.2c-13.4-1.7-23.9-14.9-23.9-29.5z" fill="url(#L)"/><path d="m1730.2 1963.8c0-9.1 5.8-15.7 14.4-14.9l244.8 25.8c9.3 1 15.2 9.4 15.2 18.9v22.1c0 9.5-5.8 16.4-15.1 15.3l-244.1-27.9c-8.6-1-15.2-9.1-15.2-18.2z" fill="url(#M)"/><path class="S BU" d="M1637 2053.4c51.1-51.1 191.7-56.9 233.9-112.3 11.2-14.7 15.2-32.8 8.4-55.9q-1.3-4.7-3.2-9.6-6.9-17.5-12.2-34.8-4.9-16.4-8.3-32.5c-9.5-44.5-10.4-87.2-2.9-126.2q3.2-16.3 8.3-31.6c4.8-14.7 11-28.7 18.5-41.9 9.7-17 21.6-32.7 35.7-46.9 13.8-13.8 29.8-26.2 48-36.7 75.8-44.2 149.7-63.9 161.3-292.9 4.9-96 40.7-157.7 81.1-197.4 4.4-4.4 9.1-8.6 13.7-12.4 16.8 5.7 29 21.3 29 40.1v1036.9c0 24.4-20.6 42.2-45.3 39.1l-575.8-72.6c2.7-4.9 6-8.6 9.8-12.4z" fill="url(#N)"/><path d="M1866.4 1131.3c79.5-2.2 145.3 63.7 145.3 147.1 0 83.3-65.8 149.6-145.3 148-77.5-1.5-138.9-67.4-138.9-147.1s61.4-146 138.9-148z" fill="url(#O)"/><path d="M1866.4 1173.2c56.7-1.1 103.4 46 103.4 105.3s-46.7 106.7-103.4 106c-55.7-.8-100.1-47.9-100.1-105.3s44.4-104.9 100.1-106z" fill="url(#P)"/><path class="V BV" d="M1866.4 1206.8c38.5-.5 70.1 31.6 70.1 71.8s-31.6 72.6-70.1 72.3c-38-.3-68.6-32.5-68.6-71.8 0-39.4 30.6-71.7 68.6-72.3z"/><path d="M1866.4 1231c25.6-.3 46.5 21 46.5 47.7 0 26.6-20.9 48.2-46.5 48.1-25.3-.2-45.8-21.5-45.8-47.8s20.5-47.8 45.8-48z" fill="url(#Q)"/><path d="M1959.1 1182.2c3.3 3.3 3.3 8.7 0 12.1-3.2 3.3-8.5 3.4-11.7.1-3.2-3.2-3.2-8.6 0-12s8.5-3.5 11.7-.2z" fill="url(#R)"/><path d="M1787.5 1361.1c3 3.3 3 8.6 0 11.8-3.1 3.2-8.1 3.1-11.2-.2-3-3.2-3-8.5 0-11.7 3.1-3.2 8.1-3.1 11.2.1z" fill="url(#S)"/><path d="M1776.3 1185.6c3.1-3.3 8.1-3.4 11.2-.2 3 3.2 3 8.4 0 11.7-3.1 3.3-8.1 3.4-11.2.2-3-3.2-3-8.4 0-11.7z" fill="url(#T)"/><path d="M1947.4 1362.7c3.2-3.3 8.5-3.2 11.7.1 3.3 3.4 3.3 8.8 0 12.1-3.2 3.3-8.5 3.2-11.7-.2-3.2-3.3-3.2-8.7 0-12z" fill="url(#U)"/><path d="M1866.7 1493.5c115.3 3.5 212 105 212 226.6s-96.7 210.7-212 199.3c-111.2-10.9-198.5-111.8-198.5-225.7s87.3-203.6 198.5-200.2z" fill="url(#V)"/><path d="M1866.7 1554c82.1 3.3 150.3 75.9 150.3 162.1s-68.2 150.1-150.3 142.8c-80-7.1-143.4-79.4-143.4-161.7 0-82.2 63.4-146.4 143.4-143.2z" fill="url(#W)"/><path class="V BV" d="M1866.7 1602.5c55.8 2.7 101.7 52.2 101.7 110.5s-45.9 101.9-101.7 97.4c-54.7-4.4-98.4-53.8-98.4-110.3s43.7-100.2 98.4-97.6z"/><path d="M1866.7 1637.3c37 2 67.3 34.9 67.3 73.5s-30.3 67.6-67.3 64.8c-36.5-2.8-65.8-35.6-65.8-73.4 0-37.7 29.3-66.8 65.8-64.9z" fill="url(#X)"/><path d="M2001.4 1575.2c4.8 5.1 4.8 12.9 0 17.5-4.7 4.6-12.4 4.3-17.1-.8-4.7-5-4.7-12.8 0-17.4s12.4-4.3 17.1.7z" fill="url(#Y)"/><path d="M1753.4 1816.9c4.4 5 4.4 12.5 0 16.8s-11.5 3.7-15.8-1.4c-4.4-5-4.4-12.5 0-16.7 4.3-4.3 11.4-3.7 15.8 1.3z" fill="url(#Z)"/><path d="M1737.6 1564c4.3-4.5 11.4-4.2 15.8.6 4.4 4.9 4.4 12.4 0 16.9-4.4 4.4-11.5 4.1-15.8-.8-4.4-4.8-4.4-12.3 0-16.7z" fill="url(#a)"/><path d="M1984.3 1836.1c4.7-4.4 12.4-3.8 17.1 1.5 4.8 5.2 4.8 13 0 17.5-4.7 4.4-12.4 3.7-17.1-1.5s-4.7-13 0-17.5z" fill="url(#b)"/><path d="M2493.4 1279.2l55.4 441.1c1.9 15-7.1 28.5-22.1 30.4l-300.1 37.7c-15.1 1.9-29.5-8.7-31.4-23.7l-55.4-441.1c-.4-3.2-.2-6.5.6-9.8.9-4.4 2.9-8.7 5.8-12.1l148.9-178.5 187.8 136.2c6.2 4.5 9.5 12.2 10.5 19.8zm-215.1-43.8c2.1 17 17.6 29 34.6 26.9 17-2.2 29.1-17.7 26.9-34.7-2.1-17-17.6-29-34.6-26.9-17 2.2-29.1 17.7-26.9 34.7z" fill="url(#c)" class="BX"/><path d="M2467.1 1547.5c3.5 28.1-7.2 54.9-31.7 74.7-.1 0-.5.1-.6.2-12.4 10-26.4 17.9-47.8 23.7l5.6 45.2-53.2 6.7-5.2-41.2c-34.1 2.5-71.4-2.8-91.7-10.6l8.3-66.1c23.5 7.9 57 15.5 91.6 11.1 23.6-2.9 40.7-10.5 38.9-25.2-1.7-13.3-16.5-19.1-54.5-23.4-53.6-5.9-97.5-24.3-103.6-72.8-3.3-26.6 5.5-50.8 25.7-69.3 12.5-11.5 30.8-20.9 49.7-26.9l-5.2-41.3 53.3-6.7 4.8 38.2c36.5-3.2 59 .7 77.2 5.7l-7.6 63.7c-13.5-3.3-40.4-12.1-79-7.2-13 1.6-21.2 4.6-26.3 8.2-6.1 4.3-7.6 9.6-7 14.5 1.1 9 14.7 15 41.6 20.2q9.4 1.8 21 3.5c63.9 9.1 90.2 31.1 95.7 75.1z" class="BV"/><path class="j" d="M2545.4 1693.2l3.4 27.1c1.9 15-7.1 28.5-22.1 30.4l-300.1 37.7c-15.1 1.9-29.5-8.7-31.4-23.7l-55.4-441.1c-.4-3.2-.1-6.5.6-9.8 5.1 19.3 13.4 37.4 27.9 50.7 22.1 20.3 53.1 26.4 80.9 36 1.8.7 3.7 1.3 5.5 2 21.6 8.1 42.6 18.1 61.1 31.7 8.3 6.1 16.2 12.9 23.3 20.6q6.4 6.8 11.3 14.1c22.4 32.1 27.2 69.8 43.7 105.8 9.1 19.9 24.1 34.8 41.1 47.5 12.1 9.1 24.6 17.2 37.2 25.1 22.9 14.4 51.1 28 73 45.9z" opacity=".2" fill="url(#d)"/><path d="M2311 1216.1c-1.5 4.6-6.5 7.1-11.3 5.6q-.2-.1-.4-.1c-4.5-1.7-7.1-6.5-5.6-11q2.5-8.1 4.3-16.3c5.9-25.5 10.9-51.3 10.1-77.6-.4-13.3-.3-27.8-4.2-40.7-2-6.7-5.6-12.7-10.1-18.1-5.1-6-12.3-14.6-19.2-18.3q-5.5-3-11.7-3.7c-2.6-.3-5.1-.3-7.7 0-1.4.2-5.6 2-6.7 1.6-5.6-2.2-13.8-5.7-18.1-9.6 3.1-3.2 8.6-6.4 12.9-7.8 23.5-7.4 48.3 6.1 62.9 24 41.7 51.5 6.3 167.1 4.8 172z" fill="url(#e)"/><path d="M98.7 74.6Q152-28.6 243.3 11.4c91.4 40 82.9 19 146.3 27 63.5 7.9 142 52 90.9 60.8q-51.1 8.9-451.2 19Q35.2 80 98.7 74.6zm959.2 86.9q68-131.6 184.5-80.6c116.5 51.1 105.8 24.3 186.7 34.4 80.9 10.2 181 66.4 115.8 77.7q-65.1 11.3-575.4 24.2 7.5-48.8 88.4-55.7z" class="BV"/><use xlink:href="#BA" fill="url(#f)"/><use xlink:href="#BA" x="28.5" y="-9.1" fill="url(#g)"/><path d="M2748.7 2009.8c0 100.9-79 180.2-179.9 177-104.7-3.4-192.7-94-192.7-202.1 0-108.2 88-186.9 192.7-176.2 100.9 10.4 179.9 100.3 179.9 201.3z" fill="url(#h)"/><path d="M2742.8 2009.4c0 97.6-76.5 174.2-174 170.9-101.1-3.4-185.9-90.8-185.9-195.2 0-104.3 84.8-180.4 185.9-170.1 97.5 9.8 174 96.7 174 194.4z" fill="url(#i)"/><path d="M2567.8 1848.2c5.2.5 9.4 5.2 9.4 10.4v18q15.6 1.7 31.2 5.4 11.5 2.7 22.8 6.4c4.6 1.5 7.7 6.1 7.2 10.8l-2.2 22.6c-.6 5.9-6.5 9.5-12.1 7q-7.5-3.4-15.3-5.7-13.7-4.2-28.9-5.4l-2.7-.3v51.5c27.1 7.6 47 17.8 59.8 30.6 12.8 12.7 19.1 28.6 19.1 47.7 0 20.6-7 37.1-21.1 49.6-14.2 12.5-34.2 19.6-59.9 21.1v19.8c0 5.3-4.2 9.4-9.4 9.2h-.2c-5.2-.2-9.4-4.7-9.4-10v-19.5l-4.2-.2q-18.1-.8-34.7-3.7-12.3-2.2-24-5.5c-4.7-1.4-7.9-5.9-7.5-10.7l2.6-29c.6-6.3 6.9-9.9 12.8-7.6q10.4 4.1 21.1 7 16.6 4.3 33.7 5.6l.2-57.3c-26-6.4-45.4-15.9-58.2-28.5-12.8-12.7-19.3-28.9-19.3-48.6 0-20.4 7-36.2 20.9-47.2s33.5-16.5 58.9-16.5v-18.3c0-5.3 4.2-9.2 9.4-8.7zm-9.4 68.7q-12 .9-18.7 6.6-6.8 5.8-6.8 15.5 0 9.2 6.3 15.3 6.2 6.2 19.2 9.9zm16.7 103.7v52.5q13.1 0 20.1-6.3 7-6.2 7-17.6 0-10.4-6.5-17.3-6.6-6.9-20.6-11.3z" fill="url(#j)" class="BX"/><path class="q BU" d="M2597.6 2178.9c-9.4 1.2-18.9 1.8-28.8 1.4-101.1-3.4-185.9-90.8-185.9-195.2 0-91.4 65.3-161.2 149.7-170.1 27.8 21.7 52.7 49.4 57 82.3 7 53.4-46.4 77.9-52.2 136-5.1 49.8 20 105.7 60.2 145.6z" fill="url(#k)"/><path d="M797.4 1915.8c-100.5-15.9-178.7-132.2-178.7-260.3 0-128.2 78.2-228 178.7-222.8 105.1 5.5 194 122.9 194 262s-88.9 237.8-194 221.1z" class="BZ"/><path class="r BU BW" d="M835.4 1916.8c-12.4 1.4-25.1 1.1-38-1-100.5-15.9-178.7-132.2-178.7-260.3 0-123.6 72.6-220.7 167.8-222.9 26.4 32.6 48.1 72 58.4 119.2 20.8 95.3-19.1 151.8-20.3 259.8-.4 30 2.3 65 10.8 105.2z"/><g class="BX"><path d="M1014.4 1697.1c0 155.6-99.7 265.3-217 246-111.5-18.4-198-147.7-198-289.7s86.5-253.1 198-248c117.3 5.4 217 136.1 217 291.7zm-23-2.4c0-139.1-88.9-256.5-194-262-100.5-5.2-178.7 94.6-178.7 222.8 0 128.1 78.2 244.4 178.7 260.3 105.1 16.7 194-82 194-221.1z" class="BZ"/><path d="M995.8 1695.1c0 142.3-90.9 243.1-198.4 225.9-102.6-16.4-182.4-135.1-182.4-265.9s79.8-232.8 182.4-227.6c107.5 5.5 198.4 125.4 198.4 267.6zm-20.9-2.2c0-127.2-81.2-234.9-177.5-240.4-92.4-5.2-164.6 86.4-164.6 204.4 0 118.1 72.2 224.8 164.6 239.1 96.3 14.8 177.5-75.8 177.5-203.1z" class="BW"/></g><path d="M819.5 1679.9c0 15.4-9.7 26.9-21.6 25.6-11.8-1.3-21.4-14.9-21.4-30.2 0-15.4 9.6-26.8 21.4-25.7 11.9 1.2 21.6 14.8 21.6 30.3z" class="BW"/><path d="M1508 2028.4c-134-21.2-237.7-157.1-237.7-304.4s103.7-261.3 237.7-254.3c141.1 7.3 261.3 144.9 261.3 306.8 0 162-120.2 274.3-261.3 251.9z" class="BZ"/><path class="r BU BW" d="M1558.8 2030.7c-16.5 1.2-33.5.5-50.8-2.3-134-21.2-237.7-157.1-237.7-304.4 0-142 96.3-252.9 223-254.6 35.4 38 64.5 83.9 78.3 138.7 28 110.7-25.6 175.5-27.2 300.4-.5 34.8 3 75.4 14.4 122.2z"/><g class="BX"><path d="M1800.4 1779.8c0 181.3-134.9 306.1-292.4 280.2-148.7-24.5-263.1-175.5-263.1-338.6 0-163.2 114.4-290.1 263.1-283.3 157.5 7.3 292.4 160.4 292.4 341.7zm-31.1-3.3c0-161.9-120.2-299.5-261.3-306.8-134-7-237.7 107-237.7 254.3s103.7 283.2 237.7 304.4c141.1 22.4 261.3-89.9 261.3-251.9z" class="BZ"/><path d="M1775.2 1777.2c0 165.6-123 280.3-267.2 257.2-136.8-21.8-242.5-160.5-242.5-310.9 0-150.3 105.7-266.8 242.5-259.9 144.2 7.4 267.2 147.9 267.2 313.6zm-28.4-3c0-148.1-109.5-274.3-238.8-281.6-123.2-6.9-219 97.7-219 233.4s95.8 260.5 219 279.5c129.3 19.9 238.8-83.2 238.8-231.3z" class="BW"/></g><path d="M1537.6 1755.9c0 18-13 31.1-29 29.3-15.8-1.8-28.6-17.6-28.6-35.4 0-17.7 12.8-30.8 28.6-29.2 16 1.6 29 17.4 29 35.3z" class="BW"/><g class="BX"><path d="M1077 1776.1q0 0 0 0c-7.2-.9-7.2-.9-23-61.5l-33.1-128.7-77.6-307.5c-1.4-5.7 1-11.7 5.5-13.4 4.6-1.8 9.4 1.4 10.8 7.1l120.5 471.9c22-28.7 87.6-111.6 292-365.6 3.8-4.7 10.2-4.9 14.4-.4s4.5 11.9.8 16.6l-302.5 377.1c-1.6 3-4.6 4.8-7.8 4.4zm8.6-6.5q0 0 0 0 0 0 0 0zm0 0q0 0 0 0 0 0 0 0z" fill="url(#l)"/><path d="M1508 1757.3c-5.2-.5-9.5-5.1-10.5-10.7-3.7-13.7-62.1-176.8-154-429.9-2.2-5.9.2-12.7 5.3-15.1 5.2-2.4 11.1.5 13.3 6.4l156.6 438c.2 6.7-4.4 11.7-10.4 11.3q-.1 0-.3 0zm-10.7-12.7q0 0 0 0 0 0 0 0zm0 0q0 0 0 0 0 0 0 0z" fill="url(#m)"/></g><path d="M1364.8 1357.1l-398.6-12.5c-4.8-.2-8.6-5.1-8.6-11.1 0-5.9 3.8-10.6 8.6-10.5l398.6 10.7c5.6.1 10.1 5.5 10.1 12 0 6.4-4.5 11.6-10.1 11.4z" fill="url(#n)"/><path d="M1077.1 1776.1q-.8-.1-1.6-.4L794 1680.9c-2.7-.9-5-3.6-6-7-1-3.5-.7-7.2 1-9.9l179.7-299.2c2.9-4.6 8.3-5.5 12.1-1.8 3.9 3.7 4.7 10.5 1.9 15.2l-173.2 286.7 269.1 89.5c4.9 1.6 8.2 7.7 7.3 13.6-.7 5.3-4.5 8.6-8.8 8.1z" fill="url(#o)"/><path d="M1069.4 1845.9l-2.6-1.3-271.4-137.7v-59.6l285.8 53.6zm-270-142.4l266.1 134.6 10.7-132.7-276.8-52.2z" fill="url(#p)" class="BX"/><path d="M1139.9 1781.5c0 41.3-27.6 71-61.2 66.5-33.1-4.5-59.6-40.7-59.6-80.9 0-40.3 26.5-70.1 59.6-66.7 33.6 3.5 61.2 39.9 61.2 81.1z" fill="url(#q)"/><path d="M1115.1 1778.6c0 24.5-16.3 42.3-36.4 39.7-19.8-2.5-35.8-24.2-35.8-48.4s16-42 35.8-39.8c20.1 2.2 36.4 23.9 36.4 48.5z" fill="url(#r)"/><path d="M820.9 1680c0 16.8-10.6 29.3-23.5 27.8-12.8-1.4-23.2-16.1-23.2-32.8 0-16.6 10.4-29.1 23.2-27.8 12.9 1.3 23.5 16 23.5 32.8z" fill="url(#s)"/><path d="M1031.1 1285.1l-144.8-2.7c-6.3-.1-11.4-6.7-11.4-14.7v-19.8c0-4.1 1.4-8.1 3.8-10.8s5.6-4 8.8-3.5l145 21.6c6.1.9 10.8 7.4 10.8 15.1 0 8.3-5.5 14.9-12.2 14.8z" fill="url(#t)"/><path d="M1242.7 1335.3c-25.5 0-50.9-5.4-74.1-15.9l-32.6-14.9c-4.8-2.2-6.9-7.8-4.7-12.5 2.1-4.8 7.7-6.9 12.5-4.7l32.7 14.9c30.8 14 66 17.8 99.1 10.8l184.7-39.4c.4-.1 1.4-.3 1.6-1.8.1-1.4-.8-1.8-1.2-2l-39.4-16.8c-4.8-2.1-7-7.6-5-12.4 2.1-4.8 7.6-7 12.4-5l39.4 16.8c8.6 3.7 13.5 12 12.6 21.3-.9 9.2-7.3 16.4-16.4 18.4l-184.7 39.4c-12.2 2.5-24.6 3.8-36.9 3.8z" fill="url(#u)"/><path d="M983.8 2185.3L699.9 2098c-27.7-8.5-49-36.5-49-62.9v-.3c0-26.3 21.3-43.4 49-37.8l305.1 58.5z" fill="url(#v)"/><path d="m1496.9 2149.8l-499 30.1c-29.6 1.8-53.8-19.2-53.8-46.9v-18.8c0-27.7 24.2-51.2 53.8-52.4l499-20.9z" fill="url(#w)"/><path d="M1501.4 2155.3l-499.5 30.6c-38.7 2.4-70.4-25.1-70.4-61.3v-.4c0-36.2 31.7-66.9 70.4-68.5l499.5-20.4c3.2-.2 5.8 2.3 5.8 5.5s-2.6 5.9-5.8 6.1l-499.5 21.4c-31.1 1.3-56.6 26.1-56.6 55.2v.4c0 29.1 25.5 51.3 56.6 49.5l499.5-29.7c3.2-.2 5.8 2.2 5.8 5.4s-2.6 6-5.8 6.2z" fill="url(#x)"/><path d="M996.1 2055.5L699.9 1997c-27.7-5.6-49-42.2-49-81.8v-.4c0-39.6 21.3-70.8 49-69.4l314.8 15.6z" fill="url(#y)"/><path d="M1496.9 2026.7l-472.4 18.7c-44.2 1.7-80.4-30.6-80.4-72.2V1945c0-41.6 36.2-75.7 80.4-76.3l472.4-5.4z" fill="url(#z)"/><path d="M1501.4 2035.3l-499.5 20.4c-38.7 1.6-70.4-41.3-70.4-95.7v-.6c0-54.3 31.7-98.9 70.4-99.3l499.5-5.1c3.2 0 5.8 3.9 5.8 8.7s-2.6 8.7-5.8 8.8l-499.5 6.5c-31.1.5-56.6 36.4-56.6 80.1v.6c0 43.7 25.5 78.3 56.6 77.1l499.5-19c3.2-.1 5.8 3.7 5.8 8.5s-2.6 8.8-5.8 9z" fill="url(#AA)"/><path d="m969 1852.5l-272.1-12.1c-21.2-1-37.7-18.3-37.7-38.7v-13.8c0-20.4 16.5-37.7 37.7-38.8l272.1-13.3z" fill="url(#AB)"/><path d="M937.8 1860.5l-237.9-15.1c-27.7-1.4-49-23.9-49-50.3v-.3c0-26.3 21.3-48.9 49-50.4l237.1-14.8c4.6-.2 46.8 2.4 46.8 5.9 0 3.4-35.5 6.8-40 7l-243.9 11.7c-22.4.9-39.9 19.2-39.9 40.6v.3c0 21.5 17.5 39.6 39.9 40.5l243.9 12.2c4.5.2 40 1.9 40 5.3 0 3.5-41.5 7.6-46 7.4z" fill="url(#AC)"/><path d="m1496.9 1849.3l-552.8 5.1v-119.1l552.8 5.1z" fill="url(#AD)"/><path d="M1501.4 1746.6l-563-4.6c-3.8-.1-6.9-2.9-6.9-6.5 0-3.5 3.1-6.3 6.9-6.2l563 5.7c3.2 0 5.8 2.7 5.8 5.9s-2.6 5.7-5.8 5.7z" fill="url(#AE)"/><path d="M1501.4 1855l-563 5.8c-3.8 0-6.9-2.8-6.9-6.3s3.1-6.4 6.9-6.4l563-4.7c3.2 0 5.8 2.6 5.8 5.8s-2.6 5.8-5.8 5.8z" fill="url(#AF)"/><path class="AN BV" d="m902.2 2011.6l-63.6-12.8c-14.7-39.8-13.6-76 0-119l63.6 5.4c-13.1 45.6-11.1 87.2 0 126.4z" opacity=".5"/><path class="AO BU" d="M755 1894.3l-34.6-14.5-37.3 10.9q-5.4-30 26.9-44.6l63.1-62.7 1.9 66.4q-19.2 12.2-20 44.5z" fill="url(#AG)"/><path d="M703.1 1785.2l70-1.8q-33.6 22.7-18.1 110.9-30-11.8-42.8-28.2l-29.1 24.6q-17.2-75.5 20-105.5z" fill="url(#AH)"/><path d="M1197.7 1983.1c7.9 40.8-35.7 60.7-51.1 124.3-9.2 37.9 9.3 83.5 15.6 115 1.8 8.9-4.8 17.2-13.9 17.4q-.2 0-.5 0c-8.6.2-15.4-7.1-14.7-15.6 6.8-79.9-13.8-187.5-26.5-239.4-7.3-29.8-15.8-59-3.4-68.1 18.9-13.8 85.6 20.6 94.5 66.4z" fill="url(#AI)"/><path d="M1459.6 2211c-10.9 3-58.8 14.8-105.6-8.6-86.1-43-49.5-146.2-144.4-210.8-21-14.2-47.8-26.2-76.1-59.8-21.7-25.8-44-63.8-34.9-73.3 6.7-6.9 27.4 3.1 34 6.3 48 23.2 45.2 61.7 92.3 99.6 24.7 19.9 28.9 12 64.6 39.5 30.3 23.2 52.9 48.5 54.7 50.4 35.6 38 41 56.6 84.4 77 50.1 23.4 90.1 20.6 91.9 37.4 1.8 16.5-34.6 34.9-60.9 42.3z" fill="url(#AJ)"/><path d="M1191.4 1947c35 44.2 62 78.1 95.9 127.6 21.6 31.5 47.5 59.9 70.9 90.2 17.5 22.6 22.4 29 32.4 31.2 34.8 7.3 54.8-54.6 109.8-64.2 21.4-3.7 39.8 3.7 76.7 18.7 36.7 14.9 132.5 59.6 126 86-5 20.1-69.5 19.1-198.4 17-141.4-2.3-164.5-14.1-178.8-28.9-21.8-22.7-19.7-43.1-34.4-83.7q-7.8-24.8-24.3-52.5c-33.5-56.5-85.2-86.3-91.7-89.9-44.3-25-70.8-20.6-82-46.3-3.7-8.6-4-21.1-4.1-46.2-.1-34.2-.1-51.3 5.8-54.3 4.8-2.4 18.8-2.2 96.2 95.3z" fill="url(#AK)"/><path class="AT BU" d="M1191.4 1947c35 44.2 62 78.1 95.9 127.6 21.6 31.5 47.5 59.9 70.9 90.2 17.5 22.6 22.4 29 32.4 31.2 34.8 7.3 54.8-54.6 109.8-64.2 21.4-3.7 39.8 3.7 76.7 18.7 36.7 14.9 132.5 59.6 126 86-5 20.1-69.5 19.1-198.4 17-141.4-2.3-164.5-14.1-178.8-28.9-21.8-22.7-19.7-43.1-34.4-83.7q-7.8-24.8-24.3-52.5c-33.5-56.5-85.2-86.3-91.7-89.9-44.3-25-70.8-20.6-82-46.3-3.7-8.6-4-21.1-4.1-46.2-.1-34.2-.1-51.3 5.8-54.3 4.8-2.4 18.8-2.2 96.2 95.3z" fill="url(#AK)"/><path d="M1127.4 2020c7.9 40.8-35.6 60.7-51 124.3-9.2 37.9 9.2 83.5 15.6 115 1.7 8.9-4.8 17.2-13.9 17.4q-.3 0-.6 0c-8.5.2-15.4-7.1-14.6-15.6 6.8-79.9-13.9-187.5-26.6-239.4-7.2-29.8-15.7-59-3.4-68.1 18.9-13.8 85.6 20.6 94.5 66.4z" fill="url(#AL)"/><path d="M1389.3 2247.8c-10.9 3.1-58.8 14.9-105.5-8.5-86.2-43-49.5-146.2-144.5-210.8-20.9-14.2-47.7-26.2-76.1-59.9-21.7-25.7-44-63.7-34.8-73.2 6.7-6.9 27.4 3.1 33.9 6.3 48.1 23.2 45.2 61.7 92.4 99.6 24.7 19.9 28.8 12 64.6 39.5 30.2 23.2 52.8 48.5 54.6 50.4 35.7 38 41 56.6 84.5 76.9 50.1 23.5 90.1 20.7 91.9 37.5 1.8 16.5-34.6 34.9-61 42.2z" fill="url(#AM)"/><path d="M1121.2 1983.9c35 44.2 61.9 78.1 95.8 127.6 21.7 31.5 47.5 59.9 71 90.2 17.5 22.6 22.3 29 32.3 31.1 34.8 7.4 54.9-54.6 109.9-64.1 21.4-3.7 39.8 3.7 76.6 18.7 36.8 14.9 132.5 59.6 126 86-5 20.1-69.4 19.1-198.3 17-141.5-2.3-164.6-14.1-178.8-28.9-21.8-22.7-19.8-43.1-34.5-83.7q-7.8-24.8-24.3-52.5c-33.4-56.5-85.1-86.3-91.6-90-44.4-24.9-70.9-20.5-82-46.3-3.7-8.5-4.1-21-4.1-46.1-.1-34.2-.2-51.3 5.8-54.3 4.7-2.4 18.7-2.2 96.2 95.3z" fill="url(#AN)"/><path d="M2011.8 2038.5c0 15.2-.7 30.1-5.4 44.6q-.6 2.1-1.4 4.1v.1c-20.7 84.7-95.4 150.9-184.6 156.5-12.1.7-23.7.3-35.2-1.2h-.3c-55.6-7.2-102.6-39.3-129.9-85.5-.1 0-.1-.1-.2-.2-16.1-27.3-25.3-60.1-25.3-95.2 0-56 23.6-107.6 61.3-146 7.4-6.5 15.5-14.5 24-20.7 2.4-1.8 4.9-2.1 7.4-5.3 6.2-3.4 12.7-7.5 19.4-11.1 24.2-12.6 51.1-20.2 79.4-21.9 22.1-1.4 43.3 1.2 63.1 7 30.6 8.8 57.6 25.7 78.9 48.1l.3.1c0 2.1 3.5 4.1 5.3 6.2s3.5 4.3 5.1 6.5c24.1 30.8 38 70.2 38.1 113.9z" fill="url(#AO)"/><path d="M1785.2 2242.6h-.3c-55.6-7.2-102.6-39.3-129.9-85.5q50-176 205.2-216.3l31.7 23.5q1.8 8.6 2.8 17c16 124.6-70.6 223.7-109.5 261.3z" fill="url(#AP)"/><path d="M2011.8 2038.5c0 15.2-.7 30.1-5.4 44.6-.5-71.3-42.3-113.9-63.2-130.8q-7-5.7-11.6-8.5l-9.9-24.4 20-3.6 21-3.9c30.7 32.4 49 76.7 49.1 126.6z" fill="url(#AQ)"/><path d="m1896.6 1915.7l-13.6 5.4q-6.8-4.3-13.5-7.9c-72.3-39-138.4-18.4-178.7 3.4c34.1-34.2 79.9-56.6 130.2-59.7c22.1-1.3 43.3 1.1 63.1 6.9c5.9 10.6 9 22.4 10.6 32.1q2 11.4 1.9 19.8z" fill="url(#AR)"/><path d="M1905.9 1972.2c-19.9 5.6-41.6-5.5-48.4-24.9-6.9-19.3 3.8-39.6 23.7-45.3s41.6 5.5 48.4 24.8c6.8 19.4-3.8 39.7-23.7 45.4z" class="BV"/><path d="M1927.1 2205.3c-28.7 20.2-62.5 35.3-99 38.6-106.9 9.7-196-69.7-198.5-177.5-2.3-98.1 67.9-183.6 161.3-205.2-29.3 33.3-35 58.7-35.3 76.5-1.2 64.2 65.4 83.9 72.4 158.9 4.6 49.4-21.3 73.1-4.5 96.1 17.8 24.5 64.1 19.9 103.6 12.6z" fill="url(#AS)" style="mix-blend-mode:multiply" opacity=".2"/><path d="M2466.2 2204.1c-30.7 15.9-64.5.2-72.8-34.6l-13.1-54.7c-2.7-11.5-12.3-18.9-23.5-18.1l-211.8 15.1c-12.9.9-24.5 10.5-28.2 23.5l-18 62.6c-11.5 40.5-54.8 67.2-94.5 57.4-35.9-8.8-56.4-43.7-47.3-81.3l54.2-223.3c10.5-43.1 54.8-69.3 96.2-58l18.2 5c6.4 1.8 13 2.6 19.7 2.6l38.8-.2 144.8-.9 34.5-.2c5.8 0 11.5-.9 17.1-2.6l15.4-4.7c34-10.3 67.4 12.5 74 49.5l33.1 186.1c5.4 30.3-10.2 63-36.8 76.8z" fill="url(#AT)"/><path class="Ad BU" d="M2325.9 1999.2l-117.6 5c-10.6.4-19.1-9.5-18.8-22.2l1.5-81.9 154.1-1-1.4 77.6c-.2 12-8.2 22.1-17.8 22.5z" fill="url(#AU)"/><path class="Ae BU" d="M2448.7 2209.8c-25 3.6-48.6-12.1-55.3-40.3l-13.1-54.7c-2.7-11.5-12.3-18.9-23.5-18.1l-211.8 15.1c-2.2.2-4.3.6-6.3 1.2 9.1-10.9 21.1-21.3 36.7-26.7 31-10.9 45.7 8.7 87.7 1.8 28.7-4.7 27.3-14.7 67.9-24.9 31.2-7.8 55.3-13.9 72.3-.2 17.7 14.2 19 42.6 19.4 52.6 1 21.4-5.5 28.8-5.4 42.8.1 13.4 6.2 31.1 31.4 51.4z" fill="url(#AV)"/><path d="M2168.2 1981.8c-.7 35.7-29.9 66.1-66 67.9-37 1.9-67-26.6-66.3-63.8s31.8-67.6 68.7-68c36.1-.4 64.2 28.2 63.6 63.9z" fill="url(#AW)"/><path d="M2239.1 2065.3c-.5 28.6-23.4 53.6-51.6 55.7-28.7 2.1-51.9-20.1-51.3-49.7.5-29.6 24.6-54.6 53.2-55.8 28.2-1.2 50.2 21.1 49.7 49.8z" fill="url(#AX)"/><path d="M2229.4 2065.8c-.4 23.2-19 43.3-41.7 44.9-23.1 1.7-41.7-16.2-41.2-40 .4-23.8 19.7-43.9 42.7-44.9 22.8-1.1 40.6 16.9 40.2 40z" fill="url(#AY)"/><path d="M2221.3 2066.5c-.3 16.1-13.2 30.1-29 31.3-16.1 1.2-29.1-11.3-28.8-27.9s13.8-30.7 29.8-31.4c15.9-.7 28.3 11.8 28 28z" fill="url(#AZ)"/><path d="M2215.8 2066.8c-.2 13-10.7 24.3-23.4 25.2-13 .9-23.4-9.1-23.2-22.5.3-13.3 11.1-24.6 24-25.2 12.8-.6 22.9 9.5 22.6 22.5z" fill="url(#Aa)"/><path d="M2387 2056c-.5 27.2-21.1 50.8-46.5 52.7-25.8 1.9-46.7-19.2-46.1-47.3.5-28 22.1-51.7 47.9-52.7 25.3-1.1 45.2 20.1 44.7 47.3z" fill="url(#Ab)"/><path d="M2378.2 2056.5c-.4 22-17.1 41-37.5 42.5-20.8 1.5-37.5-15.6-37.1-38.1s17.8-41.6 38.5-42.5c20.5-.9 36.5 16.1 36.1 38.1z" fill="url(#Ac)"/><path d="M2375.1 2056.9c-.3 15.9-12.8 29.7-28.2 30.8-15.6 1.2-28.2-11.1-27.9-27.5.3-16.3 13.3-30.1 28.9-30.8 15.4-.7 27.4 11.7 27.2 27.5z" fill="url(#Ad)"/><path d="M2369.7 2057.3c-.2 12.8-10.3 23.9-22.7 24.8-12.6.9-22.7-9.1-22.4-22.2.2-13.1 10.7-24.3 23.2-24.8 12.4-.6 22.2 9.3 21.9 22.2z" fill="url(#Ae)"/><path d="M2168.9 1942.7c-4.4.1-7.9-3.5-7.8-7.9l.2-14.3c.1-4.5 3.8-8.2 8.2-8.2 4.3-.1 7.8 3.5 7.7 8l-.2 14.2c-.1 4.5-3.7 8.1-8.1 8.2z" fill="url(#Af)"/><path d="M2358.6 1938.9c-3.8.1-6.9-3.3-6.8-7.5l.2-13.4c.1-4.2 3.3-7.6 7.2-7.6 3.8-.1 6.9 3.3 6.8 7.5l-.2 13.3c-.1 4.2-3.3 7.6-7.2 7.7z" fill="url(#Ag)"/><path d="M2118.4 1943.2l-.3 15.9c0 1.4-.5 2.9-1.3 4.1l-6.4 9.5c-1.4 2.1-3.7 3.4-6.2 3.5h-1.4c-2.4.1-4.7-1.1-6.1-3.1l-6.1-9.3c-.8-1.2-1.2-2.6-1.1-4l.2-16.1c.1-4.1 3.5-7.4 7.6-7.5l13.9-.2c4-.1 7.3 3.1 7.2 7.2z" fill="url(#Ah)"/><path d="M2109.4 2031.2l-13.9.6c-4.1.2-7.3-3-7.2-7.1l.2-16c.1-1.5.5-2.9 1.4-4.1l6.4-9.7c1.4-2.1 3.8-3.4 6.3-3.5l1.3-.1c2.5 0 4.8 1.1 6.1 3.1l6.1 9.2c.7 1.1 1.1 2.5 1.1 4l-.3 15.9c-.1 4.1-3.4 7.5-7.5 7.7z" fill="url(#Ai)"/><path d="M2062.7 1970.6l16.4-.4c1.4-.1 2.9.3 4.1 1.1l9.4 6c2 1.3 3.2 3.6 3.2 6v1.4c-.1 2.5-1.4 4.8-3.5 6.3l-9.6 6.6c-1.2.8-2.7 1.3-4.2 1.3l-16.3.6c-4.2.2-7.5-3-7.5-7.2l.3-14c.1-4.2 3.5-7.6 7.7-7.7z" fill="url(#Aj)"/><path d="M2150.6 1975.5l-.2 13.6c-.1 4-3.4 7.4-7.3 7.6l-15.7.5c-1.5.1-2.9-.3-4.1-1.1l-9.2-5.9c-2-1.2-3.2-3.5-3.1-6v-1.3c0-2.5 1.3-4.8 3.4-6.3l9.4-6.4c1.2-.9 2.6-1.3 4.1-1.4l15.7-.4c4-.1 7.1 3.1 7 7.1z" fill="url(#Ak)"/><path d="M2121.5 1943.9l-.3 15.9c-.1 1.4-.5 2.8-1.3 4l-6.4 9.6c-1.4 2.1-3.7 3.4-6.2 3.4l-1.4.1c-2.5 0-4.7-1.1-6.1-3.1l-6.1-9.3c-.8-1.2-1.2-2.6-1.2-4.1l.3-16c.1-4.1 3.5-7.5 7.6-7.5l13.9-.3c4 0 7.2 3.2 7.2 7.3z" fill="url(#Al)"/><path d="M2112.5 2031.8l-13.9.7c-4.1.1-7.3-3-7.3-7.1l.3-16.1c.1-1.4.5-2.8 1.4-4.1l6.4-9.6c1.4-2.1 3.8-3.5 6.2-3.5l1.4-.1c2.5-.1 4.8 1.1 6.1 3.1l6 9.1c.8 1.2 1.2 2.6 1.2 4l-.3 16c-.1 4-3.4 7.4-7.5 7.6z" fill="url(#Am)"/><path d="M2065.8 1971.3l16.4-.5c1.4 0 2.9.4 4.1 1.1l9.4 6c2 1.3 3.2 3.6 3.2 6.1l-.1 1.4c0 2.4-1.3 4.8-3.4 6.2l-9.6 6.6c-1.3.9-2.7 1.4-4.2 1.4l-16.3.6c-4.2.1-7.5-3.1-7.4-7.2l.2-14.1c.1-4.1 3.5-7.5 7.7-7.6z" fill="url(#An)"/><path d="M2153.7 1976.1l-.3 13.7c0 4-3.3 7.4-7.3 7.5l-15.7.6c-1.4 0-2.8-.4-4-1.1l-9.2-5.9c-2-1.3-3.2-3.5-3.2-6l.1-1.4c0-2.4 1.3-4.8 3.4-6.2l9.4-6.5c1.2-.8 2.6-1.3 4-1.3l15.7-.4c4-.1 7.2 3 7.1 7z" fill="url(#Ao)"/><path d="M2419.3 1914.2c29.3-.3 52.2 25.6 51.6 57.8s-24.4 59.5-53.7 61c-29.9 1.5-54.1-24.3-53.5-57.7s25.7-60.7 55.6-61.1z" fill="url(#Ap)"/><path d="M2432.5 1936.1c-.1 8.3-6.3 15.2-13.8 15.3-7.6.2-13.6-6.4-13.5-14.8.2-8.4 6.4-15.3 14-15.4 7.5-.1 13.5 6.6 13.3 14.9z" fill="url(#Aq)"/><path d="M2431.2 2010.3c-.2 8.3-6.4 15.4-13.9 15.7-7.5.4-13.6-6.1-13.4-14.5.1-8.4 6.4-15.4 14-15.7 7.5-.3 13.4 6.2 13.3 14.5z" fill="url(#Ar)"/><path d="M2384.5 1959.4c7.7-.2 13.8 6.4 13.6 14.8-.1 8.5-6.5 15.5-14.2 15.8s-13.9-6.4-13.7-14.9c.1-8.5 6.6-15.5 14.3-15.7z" fill="url(#As)"/><path d="M2451.8 1957.6c7.4-.2 13.2 6.3 13 14.6-.1 8.2-6.2 15.1-13.5 15.3-7.4.3-13.3-6.2-13.2-14.5.2-8.3 6.3-15.2 13.7-15.4z" fill="url(#At)"/><path d="M2435.4 1936.7c-.2 8.3-6.3 15.2-13.9 15.4-7.5.2-13.5-6.5-13.4-14.9.2-8.4 6.4-15.2 14-15.3 7.5-.1 13.4 6.5 13.3 14.8z" fill="url(#Au)"/><path d="M2434.1 2010.9c-.2 8.4-6.4 15.4-13.9 15.8-7.5.3-13.6-6.2-13.4-14.6.1-8.4 6.4-15.4 14-15.7 7.5-.3 13.4 6.2 13.3 14.5z" fill="url(#Av)"/><path d="M2387.4 1960c7.7-.2 13.8 6.5 13.6 14.9-.1 8.4-6.5 15.4-14.1 15.7-7.8.3-13.9-6.4-13.8-14.8.2-8.5 6.6-15.6 14.3-15.8z" fill="url(#Aw)"/><path d="M2454.7 1958.3c7.3-.2 13.1 6.3 13 14.5-.2 8.2-6.2 15.1-13.6 15.4-7.3.2-13.2-6.3-13.1-14.6.2-8.3 6.3-15.1 13.7-15.3z" fill="url(#Ax)"/><path class="BH BU" d="M2038.4 2255.3c-11.1 2.6-22.7 2.8-34.1 0-35.9-8.8-56.4-43.7-47.3-81.3l54.2-223.3c8.3-34.4 38.3-58 71.1-60.4-10.5 4.5-21.7 11.2-32.3 21.1-6.3 5.9-41.1 38.4-36.1 81.4.8 6.9 4.6 31 23 47.8 13.1 11.9 22.8 10.4 25.3 19.1 5.1 17.6-32.4 30.4-36.2 59.7-3.8 29.9 32.1 42.9 25.7 70.7-4.7 20.4-26.2 23.5-27.7 39.6-.6 6.6 2.1 15.1 14.4 25.6z" fill="url(#Ay)"/><path class="BI BU" d="M2324.6 1993.3c2.7 1.6 5.5 2.9 8.2 3.9-2.2 1.2-4.5 1.9-6.9 2l-117.6 5c-10.6.4-19.1-9.5-18.8-22.2l1.3-70.6c3.6 2.9 7.3 4.9 10.7 6.3 17.7 7 29.6-2.5 41.7 7.1 14.4 11.3 5 30.5 19.3 40.6 12.2 8.7 22.5-3 39.2 6.5 11.3 6.4 10.7 14 22.9 21.4z" fill="url(#Az)"/><path d="M553.3 2083.9l-1.9 96.3 104.1 69.8H449.2l12.4-154.1zm-234.1 4.4l-27.9 86.7 20.4 130-141.3-115.6 55.8-131.8z" class="BY"/><g fill="#1f3c88"><path d="M608.9 1270.6q1 10.6 2.6 30.5l.7 10.5c7.5 108.6 21.7 420.4-28.1 789.6l-32.9.5-92.9 1.4-37.8.5q9.1-263.7 7.5-496.8c-.7-103.5-3.5-200.9-10-266.5-2-20.1-4.4-37.1-7.2-50.5-1.6-7.7-3.3-14.2-5.2-19.2z"/><path d="M340 1360.3q5.2-27.4 7.9-42.6l109.3-6.1 86.6-4.7c-.3 10.4-2.6 27.2-6.5 49-11.2 61.8-35.4 163.5-62.9 272.7q-57.3 226.5-128.9 484.8l-60.6-14.7-99-24.1-18.9-4.5c91.2-298.4 152.2-600.6 173-709.8z"/></g><path d="M301.5 1504.7l109.3-6c-1.6-7.7-3.3-14.2-5.2-19.2h80.7l125.2 30.5 20.3 5q-6.9 2.2-19.6 5.5c-23.3 6-66 15.7-121.3 22.4-22.4 2.7-46.8 5-72.9 6.3-38.4 1.8-80.3 1.7-124.4-1.9q5.2-27.3 7.9-42.6z" class="BY"/><path d="M411.3 1849l38.3-161.1v-2.5l61.9-22.5 2.6 6.8-57.5 20.9c-3.7 19.6-32.1 135.6-38.1 160.1zm120.6 104.3l1.4-7.1c42.9 8.1 73.2-3.3 73.5-3.4l2.8 6.7c-1 .4-18.1 6.9-45.2 6.9-9.6 0-20.6-.8-32.5-3.1zm-229.4-12.6l4.2-5.9c23.2 15.7 73.5 6.7 74 6.6l1.4 7.1c-1.1.2-15.6 2.8-32.9 2.8-16 0-34.4-2.2-46.7-10.6z" fill="#3a6bea"/><path d="M520 2199l29.2-21.7 4.5 5.8-29.1 21.6zm-269.8-11.7l39.7-15.6 2.8 6.6L253 2194z" class="BV"/><path d="m509.1 1091.5q127.6 15.6 159.8 155.3l-38.4 166.1l17.4 110.7q-173.5 16.9-352-12l54.2-282.3z" fill="#ed7545"/><path d="m384.5 1416.2l33.5-118.3q50.2 120.1 11.8 147.5z" fill="#6e3620"/><path d="M436.6 1221c-4-2.1-5.5-6.9-3.4-10.7l1.7-3c2.1-3.9 7-5.4 11-3.3l142.8 73.4-9.2 17.1z" class="BY"/><path d="M398.2 1396.9l6.1-81.1.7-8.9q62.9-43.1 98.7-79.2c3.4-3.5 8.8-4.3 13.3-2.3 10.6 4.8 29.3 14.3 37.6 25.6q12.1 16.2-13.9 9.3l-10.6-.6c6.3 4.8 8.4 8 13.3 14.1l1.9 2.4c.7 3.7 1.7 10.2-.5 17.2l-.1.8c-1.3 7-6.3 12.9-12.9 15.6l-4.1 1.6c5.9 5.7 7 13.9 5.5 23.6l-82.6 43.4-49.3 25.8-3.8 2.1z" class="Ba"/><path d="M493.4 1265l22.5-10.7c3.1-1.4 6.5-1.9 9.8-1.3l24 4-.7 3.6-23.9-4.1c-2.6-.4-5.2-.1-7.6 1.1l-22.5 10.6zm4.5 20.4l27-10q2.4-1 5.1-1h15.3v3.7H530q-2 0-3.8.6l-27 10.1zm3.7 20.5l24.5-9c2.5-.9 5.2-1.3 7.8-1l10.1 1.1-.4 3.6-10.1-1.1c-2-.2-4.2 0-6.1.7l-24.5 9zm-97.3 9.9l13.7-17.9 32.6 80.5-49.3 25.8-3.1-7.3z" fill="#e28b6d"/><path d="m429.8 1445.4q-73.8 68-133.9 66.2l17.4-80.1z" fill="#ba5c36"/><path d="M357.6 1325.9l60.4-28c-9.7 56.4-.5 102.8 11.8 147.5l-130.2 39.7c-51.4-1.2-67.3-60.5-70.3-120.2C222 1220.4 336 1096 484.9 1091.1q15.1-.5 24.2.4z" fill="#ed7545"/><path d="M542.8 1212.3l181.9 4.4-52.9 157.9-18.3 54.6-5 15-181.9-4.4z" fill="#d3dfff"/><path d="m671.8 1374.6l-18.3 54.6q-20-24.7-20.3-73.5z" fill="#1f3c88" class="BU"/><path d="M725.2 1369c2.4 18.4 0 42.6-19.5 51.6-16.6 7.7-36.5.1-47.1-13.4-10.5-13.4-16-29.7-24.4-44.3q-11.7-20.4 7.5-18-8.7-30.1 14.8-15.1-8-12-2.4-22.9 5.5-10.8 20.4 10.9-15.5-26.5 0-30.1c7.6-1.8 15.6 9.9 19.2 14.7 11.5 14.9 22 31.5 27.7 49.5 1.8 5.5 3.1 11.2 3.8 17.1z" class="Ba"/><path d="M686.3 1346l-17.7-38.8c-.4-.9 0-2 1-2.4.9-.4 2 .1 2.4 1l17.7 38.8c.4.9 0 2-1 2.4q-.3.1-.7.1c-.7 0-1.4-.4-1.7-1.1zm-18.1 14.5l-16.7-34.7c-.5-.9-.1-2 .9-2.4.9-.4 2-.1 2.4.8l16.8 34.8c.4.9 0 2-.9 2.4q-.4.2-.8.2c-.7 0-1.4-.4-1.7-1.1zm-13.9 11.8l-14.4-26.6c-.5-.9-.1-2 .8-2.4.9-.5 2-.2 2.5.7l14.4 26.7c.5.8.1 1.9-.8 2.4q-.4.2-.9.2c-.6 0-1.3-.3-1.6-1z" fill="#e28b6d"/><path d="m607 1206.4h65l-11.1 21.7h-65.1z" class="BY"/><g fill="#ba5c36"><path d="M476.7 1152.2c-1.4-.8-1.8-2.5-1-3.7.8-1.3 2.5-1.7 3.8-1 33.8 19.8 59 1.6 60.1.8 1.2-.9 3-.7 3.9.5s.7 2.9-.5 3.8c-.2.1-12.9 9.4-32.2 9.4-9.9 0-21.5-2.4-34.1-9.8zm-49.6 293.9c-23.2-76.1-15.5-130.1-12.7-144.9l-106.9 17.4c-1.4.3-2.9-.7-3.2-2.2-.2-1.5.8-2.9 2.3-3.1l115.2-18.7-1.1 4c-.2.6-15 58.1 11.7 146 .5 1.4-.4 2.9-1.8 3.4q-.4.1-.8.1c-1.2 0-2.4-.8-2.7-2z"/><path d="M342.7 1308.9c0-.6-3.3-60.6 39.5-122 .9-1.3 2.6-1.6 3.9-.8 1.3.9 1.6 2.6.7 3.8-41.6 59.8-38.6 118.1-38.5 118.7.1 1.5-1.1 2.8-2.6 2.9q-.1 0-.2 0c-1.5 0-2.7-1.1-2.8-2.6z"/></g><path d="M538.6 1025v69.7c0 22.5-18 40.7-40.3 40.7s-40.3-18.2-40.3-40.7V1025z" class="Ba"/><path d="m538.6 1028.6v61.2q-38.4-12.4-42.5-55.5z" class="BY"/><path d="M569 945.5q12.5 97.8-26.7 109.4-39.2 11.6-75.1-22.1l7.4-80.6 58-33.2z" class="Ba"/><path d="M392.5 1019.1c1.6-1.1 3-2.4 4.4-3.7 16.1-14.1 24.3-34.9 24.2-56.1q-.3-118 126-60.4c52.6-34.8 71.1 12.3 49.2 48.1q-29.3 48.1-95.1 5-19.2 1.7-32.4 40.6l2.1 12.1c18.5 51.1 2.9 110.9-15.7 137.9l-21-1.3c8.6-11.3 11.2-25.5 8-42.6-3.7 16.6-9.2 31.4-19 41.8l-77.4-4.9c-12.2-51.2 18.4-94.7 46.7-116.5z" class="BY"/><path d="M460.3 972.8c9.9-3.1 21 3.5 24.7 14.7 3.8 11.3-1.3 22.9-11.2 26.1-9.9 3.1-21-3.6-24.7-14.8-3.8-11.3 1.3-22.9 11.2-26z" class="Ba"/><path d="M467.6 998.2c0-6.6-5.4-11.2-10.4-11.5-1 0-1.8-.9-1.7-1.9 0-.9.9-1.7 1.8-1.7q.1 0 .1 0c7.5.4 13.9 7.3 13.9 15.1 0 1-.9 1.8-1.9 1.8s-1.8-.8-1.8-1.8zm92.3-19.9c2.6 0 4.6 2 4.6 4.5s-2 4.5-4.6 4.5-4.7-2-4.7-4.5 2.1-4.5 4.7-4.5zm-28.1-2.2c2.6 0 4.7 2 4.7 4.5s-2.1 4.5-4.7 4.5c-2.5 0-4.6-2-4.6-4.5s2.1-4.5 4.6-4.5zm15.4 36.4c-.7-.7-.7-1.8.1-2.5 1.9-1.8 4.1-4.5 3.5-6.8-.4-2.1-3.2-3.4-4.2-3.8l-1.3-.4.5-11.5c0-1 .9-1.7 1.9-1.7 1.1 0 1.9.9 1.8 1.8l-.4 9c1.7.8 4.6 2.7 5.4 5.8.7 3.2-.8 6.6-4.6 10.2-.4.3-.9.5-1.3.5-.5 0-1-.2-1.4-.6zm-20.5 6.9c-.8-.7-.9-1.8-.2-2.5.7-.8 1.9-.9 2.6-.2 8.3 7 17.7 5.7 17.8 5.7.9-.2 2 .5 2.1 1.5.2.9-.5 1.9-1.5 2-.2 0-1.1.2-2.7.2-3.8 0-11.3-.9-18.1-6.7z" class="BY"/><path d="M508.7 989.4c6.8 0 12.2 5.3 12.2 11.8 0 6.6-5.4 11.9-12.2 11.9-6.7 0-12.2-5.3-12.2-11.9 0-6.5 5.5-11.8 12.2-11.8z" opacity=".4" fill="#eb5d60"/></svg>