<svg version="1.2" xmlns="http://www.w3.org/2000/svg" viewBox="0 0 2771 2772" width="2771" height="2772"><defs><linearGradient id="P" gradientUnits="userSpaceOnUse"/><linearGradient id="g1" x1="332.6" y1="933.1" x2="771.6" y2="1026" href="#P"><stop stop-color="#4f52ff"/><stop offset="1" stop-color="#4042e2"/></linearGradient><linearGradient id="g2" x1="2707.9" y1="740.6" x2="2678.9" y2="1254.5" href="#P"><stop stop-color="#4f52ff"/><stop offset="1" stop-color="#4042e2"/></linearGradient><linearGradient id="g3" x1="1290.4" y1="680.1" x2="2196.1" y2="2269.7" href="#P"><stop stop-color="#4f52ff"/><stop offset="1" stop-color="#4042e2"/></linearGradient><linearGradient id="g4" x1="1495.2" y1="362.3" x2="1870.7" y2="362.3" href="#P"><stop stop-color="#dae3fe"/><stop offset="1" stop-color="#e9effd"/></linearGradient><linearGradient id="g5" x1="1495.3" y1="417.5" x2="1870.8" y2="417.5" href="#P"><stop stop-color="#dae3fe"/><stop offset="1" stop-color="#e9effd"/></linearGradient><linearGradient id="g6" x1="1495.3" y1="472.7" x2="1870.8" y2="472.7" href="#P"><stop stop-color="#dae3fe"/><stop offset="1" stop-color="#e9effd"/></linearGradient><linearGradient id="g7" x1="1495.4" y1="528" x2="1870.9" y2="528" href="#P"><stop stop-color="#dae3fe"/><stop offset="1" stop-color="#e9effd"/></linearGradient><linearGradient id="g8" x1="1899.6" y1="479.4" x2="2025.6" y2="479.4" href="#P"><stop stop-color="#dae3fe"/><stop offset="1" stop-color="#e9effd"/></linearGradient><linearGradient id="g9" x1="2056.1" y1="479.3" x2="2182.1" y2="479.3" href="#P"><stop stop-color="#dae3fe"/><stop offset="1" stop-color="#e9effd"/></linearGradient><linearGradient id="g10" x1="2212.7" y1="479.1" x2="2338.7" y2="479.1" href="#P"><stop stop-color="#dae3fe"/><stop offset="1" stop-color="#e9effd"/></linearGradient><linearGradient id="g11" x1="1899.6" y1="515.7" x2="2025.7" y2="515.7" href="#P"><stop stop-color="#dae3fe"/><stop offset="1" stop-color="#e9effd"/></linearGradient><linearGradient id="g12" x1="2056.2" y1="515.6" x2="2182.2" y2="515.6" href="#P"><stop stop-color="#dae3fe"/><stop offset="1" stop-color="#e9effd"/></linearGradient><linearGradient id="g13" x1="2212.7" y1="515.5" x2="2338.8" y2="515.5" href="#P"><stop stop-color="#dae3fe"/><stop offset="1" stop-color="#e9effd"/></linearGradient><linearGradient id="g14" x1="1259.9" y1="2650.8" x2="788.6" y2="3153.8" href="#P"><stop stop-color="#09005d"/><stop offset="1" stop-color="#1a0f91"/></linearGradient><linearGradient id="g15" x1="1044.6" y1="2605.1" x2="1086.5" y2="2605.5" href="#P"><stop stop-color="#febbba"/><stop offset="1" stop-color="#ff928e"/></linearGradient><linearGradient id="g16" x1="1423.3" y1="2185" x2="1026.6" y2="2712.1" href="#P"><stop stop-color="#09005d"/><stop offset="1" stop-color="#1a0f91"/></linearGradient><linearGradient id="g17" x1="1125.2" y1="2522.6" x2="648.6" y2="3031.2" href="#P"><stop stop-color="#09005d"/><stop offset="1" stop-color="#1a0f91"/></linearGradient><linearGradient id="g18" x1="893.5" y1="2594.9" x2="929.8" y2="2595.3" href="#P"><stop stop-color="#febbba"/><stop offset="1" stop-color="#ff928e"/></linearGradient><linearGradient id="g19" x1="1309.4" y1="2112.9" x2="944.8" y2="2597.3" href="#P"><stop stop-color="#09005d"/><stop offset="1" stop-color="#1a0f91"/></linearGradient><linearGradient id="g20" x1="1606.6" y1="3269.7" x2="1535.1" y2="2925.4" href="#P"><stop stop-color="#ff928e"/><stop offset="1" stop-color="#fe7062"/></linearGradient><linearGradient id="g21" x1="1227.6" y1="1407.2" x2="1441.7" y2="1409.3" href="#P"><stop stop-color="#febbba"/><stop offset="1" stop-color="#ff928e"/></linearGradient><linearGradient id="g22" x1="1399.8" y1="1481" x2="1423.4" y2="1324.6" href="#P"><stop stop-color="#febbba"/><stop offset="1" stop-color="#ff928e"/></linearGradient><linearGradient id="g23" x1="1427.3" y1="1380.8" x2="1484.4" y2="1294.9" href="#P"><stop stop-color="#febbba"/><stop offset="1" stop-color="#ff928e"/></linearGradient><linearGradient id="g24" x1="1271.4" y1="3392.6" x2="1197.8" y2="3038.1" href="#P"><stop stop-color="#ff928e"/><stop offset="1" stop-color="#fe7062"/></linearGradient><linearGradient id="g25" x1="758.4" y1="1764.2" x2="1026.7" y2="1766.7" href="#P"><stop stop-color="#febbba"/><stop offset="1" stop-color="#ff928e"/></linearGradient><linearGradient id="g26" x1="966.6" y1="1487.4" x2="1073.3" y2="1488.5" href="#P"><stop stop-color="#febbba"/><stop offset="1" stop-color="#ff928e"/></linearGradient><linearGradient id="g27" x1="1062.8" y1="1526.1" x2="949.8" y2="1455.7" href="#P"><stop stop-color="#febbba"/><stop offset="1" stop-color="#ff928e"/></linearGradient><linearGradient id="g28" x1="991.3" y1="1270.3" x2="1136.5" y2="1387.2" href="#P"><stop stop-color="#09005d"/><stop offset="1" stop-color="#1a0f91"/></linearGradient><linearGradient id="g29" x1="1056.3" y1="1516.4" x2="956.2" y2="1454.1" href="#P"><stop stop-color="#febbba"/><stop offset="1" stop-color="#ff928e"/></linearGradient><linearGradient id="g30" x1="1265.2" y1="1624.2" x2="1413.8" y2="2243.4" href="#P"><stop stop-color="#09005d"/><stop offset="1" stop-color="#1a0f91"/></linearGradient><linearGradient id="g31" x1="998.7" y1="1787.6" x2="1081" y2="1787.6" href="#P"><stop stop-color="#febbba"/><stop offset="1" stop-color="#ff928e"/></linearGradient><linearGradient id="g32" x1="1053" y1="1690.3" x2="1234.8" y2="1690.3" href="#P"><stop stop-color="#dae3fe"/><stop offset="1" stop-color="#e9effd"/></linearGradient><linearGradient id="g33" x1="889.1" y1="2393.7" x2="844.4" y2="2702.7" href="#P"><stop stop-color="#4f52ff"/><stop offset="1" stop-color="#4042e2"/></linearGradient><linearGradient id="g34" x1="686.7" y1="2625.6" x2="731.4" y2="2625.6" href="#P"><stop stop-color="#febbba"/><stop offset="1" stop-color="#ff928e"/></linearGradient><linearGradient id="g35" x1="1096.9" y1="2431.7" x2="1053.4" y2="2731.9" href="#P"><stop stop-color="#4f52ff"/><stop offset="1" stop-color="#4042e2"/></linearGradient><linearGradient id="g36" x1="1262" y1="2215" x2="801.9" y2="2555.6" href="#P"><stop stop-color="#09005d"/><stop offset="1" stop-color="#1a0f91"/></linearGradient><linearGradient id="g37" x1="898.5" y1="2618" x2="951.9" y2="2618" href="#P"><stop stop-color="#febbba"/><stop offset="1" stop-color="#ff928e"/></linearGradient><linearGradient id="g38" x1="512.6" y1="2124.5" x2="1145.2" y2="1688.3" href="#P"><stop stop-color="#09005d"/><stop offset="1" stop-color="#1a0f91"/></linearGradient><linearGradient id="g39" x1="557.4" y1="1881" x2="583.7" y2="1814.7" href="#P"><stop stop-color="#febbba"/><stop offset="1" stop-color="#ff928e"/></linearGradient><linearGradient id="g40" x1="993.3" y1="1787.5" x2="911.8" y2="1996" href="#P"><stop stop-color="#ff928e"/><stop offset="1" stop-color="#fe7062"/></linearGradient><linearGradient id="g41" x1="651.6" y1="1413.1" x2="626.7" y2="2223.4" href="#P"><stop stop-color="#e1473d"/><stop offset="1" stop-color="#e9605a"/></linearGradient><linearGradient id="g42" x1="826.4" y1="2139.4" x2="949.7" y2="2139.4" href="#P"><stop stop-color="#febbba"/><stop offset="1" stop-color="#ff928e"/></linearGradient><linearGradient id="g43" x1="729.6" y1="1819" x2="621.2" y2="1927.1" href="#P"><stop stop-color="#febbba"/><stop offset="1" stop-color="#ff928e"/></linearGradient><linearGradient id="g44" x1="648.7" y1="1628.1" x2="777.4" y2="1755.3" href="#P"><stop stop-color="#09005d"/><stop offset="1" stop-color="#1a0f91"/></linearGradient><linearGradient id="g45" x1="664.8" y1="1775.2" x2="575.7" y2="1864.1" href="#P"><stop stop-color="#febbba"/><stop offset="1" stop-color="#ff928e"/></linearGradient><linearGradient id="g46" x1="-25667.5" y1="-26118.6" x2="-25229.5" y2="-25651.9" href="#P"><stop stop-color="#09005d"/><stop offset="1" stop-color="#1a0f91"/></linearGradient><linearGradient id="g47" x1="36872.3" y1="-10008.4" x2="36283" y2="-9814" href="#P"><stop stop-color="#09005d"/><stop offset="1" stop-color="#1a0f91"/></linearGradient><linearGradient id="g48" x1="1472.9" y1="2228.2" x2="1656.8" y2="2228.2" href="#P"><stop stop-color="#febbba"/><stop offset="1" stop-color="#ff928e"/></linearGradient><linearGradient id="g49" x1="1651.9" y1="2586.4" x2="1626.3" y2="2977.8" href="#P"><stop stop-color="#4f52ff"/><stop offset="1" stop-color="#4042e2"/></linearGradient><linearGradient id="g50" x1="1255.5" y1="2242.7" x2="1645" y2="2242.7" href="#P"><stop stop-color="#febbba"/><stop offset="1" stop-color="#ff928e"/></linearGradient><linearGradient id="g51" x1="1495.6" y1="2175.1" x2="1928.3" y2="2175.1" href="#P"><stop stop-color="#09005d"/><stop offset="1" stop-color="#1a0f91"/></linearGradient><linearGradient id="g52" x1="1408.2" y1="2582.7" x2="1384.4" y2="2947.2" href="#P"><stop stop-color="#4f52ff"/><stop offset="1" stop-color="#4042e2"/></linearGradient><linearGradient id="g53" x1="2000.3" y1="1599.3" x2="1939.4" y2="1919.1" href="#P"><stop stop-color="#09005d"/><stop offset="1" stop-color="#1a0f91"/></linearGradient><linearGradient id="g54" x1="2395.7" y1="970.8" x2="2148.7" y2="1571.7" href="#P"><stop stop-color="#ff928e"/><stop offset="1" stop-color="#fe7062"/></linearGradient><linearGradient id="g55" x1="1657.3" y1="1964.3" x2="1631.6" y2="1799.4" href="#P"><stop stop-color="#febbba"/><stop offset="1" stop-color="#ff928e"/></linearGradient><linearGradient id="g56" x1="1527.4" y1="1704" x2="1708.6" y2="1642.9" href="#P"><stop stop-color="#febbba"/><stop offset="1" stop-color="#ff928e"/></linearGradient><linearGradient id="g57" x1="1592.3" y1="1573.2" x2="1788.5" y2="1790.7" href="#P"><stop stop-color="#09005d"/><stop offset="1" stop-color="#1a0f91"/></linearGradient><linearGradient id="g58" x1="1579.4" y1="1731.5" x2="1709.9" y2="1687.5" href="#P"><stop stop-color="#febbba"/><stop offset="1" stop-color="#ff928e"/></linearGradient><linearGradient id="g59" x1="1803.4" y1="2112" x2="2167.4" y2="2112" href="#P"><stop stop-color="#febbba"/><stop offset="1" stop-color="#ff928e"/></linearGradient><linearGradient id="g60" x1="1829" y1="2175.1" x2="1605.3" y2="2248.5" href="#P"><stop stop-color="#09005d"/><stop offset="1" stop-color="#1a0f91"/></linearGradient><linearGradient id="g61" x1="1671.1" y1="2130.4" x2="1507.5" y2="2303.4" href="#P"><stop stop-color="#09005d"/><stop offset="1" stop-color="#1a0f91"/></linearGradient><linearGradient id="g62" x1="1930.8" y1="2955.4" x2="1928.5" y2="3200.2" href="#P"><stop stop-color="#09005d"/><stop offset="1" stop-color="#1a0f91"/></linearGradient><linearGradient id="g63" x1="2099.1" y1="2686.6" x2="2112.2" y2="2583.6" href="#P"><stop stop-color="#febbba"/><stop offset="1" stop-color="#ff928e"/></linearGradient><linearGradient id="g64" x1="2311.8" y1="2972.5" x2="2309.4" y2="3228.6" href="#P"><stop stop-color="#09005d"/><stop offset="1" stop-color="#1a0f91"/></linearGradient><linearGradient id="g65" x1="2388.9" y1="2721.5" x2="2401.6" y2="2621.9" href="#P"><stop stop-color="#febbba"/><stop offset="1" stop-color="#ff928e"/></linearGradient><linearGradient id="g66" x1="2415.8" y1="1997.3" x2="2056.1" y2="1997.3" href="#P"><stop stop-color="#09005d"/><stop offset="1" stop-color="#1a0f91"/></linearGradient><linearGradient id="g67" x1="2828.1" y1="1513.9" x2="2731.3" y2="1647.4" href="#P"><stop stop-color="#ff928e"/><stop offset="1" stop-color="#fe7062"/></linearGradient><linearGradient id="g68" x1="2644.9" y1="1209" x2="2105.6" y2="1860.7" href="#P"><stop stop-color="#e1473d"/><stop offset="1" stop-color="#e9605a"/></linearGradient><linearGradient id="g69" x1="2441.5" y1="1923.1" x2="2145.4" y2="2239.3" href="#P"><stop stop-color="#febbba"/><stop offset="1" stop-color="#ff928e"/></linearGradient><linearGradient id="g70" x1="2098.5" y1="1673.2" x2="1759.6" y2="1673.2" href="#P"><stop stop-color="#febbba"/><stop offset="1" stop-color="#ff928e"/></linearGradient><linearGradient id="g71" x1="2264.3" y1="1599.1" x2="2146.3" y2="1478.1" href="#P"><stop stop-color="#febbba"/><stop offset="1" stop-color="#ff928e"/></linearGradient><linearGradient id="g72" x1="1998" y1="1478.2" x2="2145.1" y2="1672.8" href="#P"><stop stop-color="#febbba"/><stop offset="1" stop-color="#ff928e"/></linearGradient><linearGradient id="g73" x1="2158.7" y1="1370.9" x2="1990.8" y2="1370.9" href="#P"><stop stop-color="#09005d"/><stop offset="1" stop-color="#1a0f91"/></linearGradient><linearGradient id="g74" x1="2267.7" y1="1553.7" x2="2170.5" y2="1453.9" href="#P"><stop stop-color="#febbba"/><stop offset="1" stop-color="#ff928e"/></linearGradient><linearGradient id="g75" x1="2799.9" y1="1330.9" x2="2256.5" y2="1987.7" href="#P"><stop stop-color="#e1473d"/><stop offset="1" stop-color="#e9605a"/></linearGradient><linearGradient id="g76" x1="-4738.5" y1="-14152.7" x2="-4491.1" y2="-13550.9" href="#P"><stop stop-color="#4f52ff"/><stop offset="1" stop-color="#4042e2"/></linearGradient><linearGradient id="g77" x1="912.2" y1="321.7" x2="1034.9" y2="321.7" href="#P"><stop stop-color="#dae3fe"/><stop offset="1" stop-color="#e9effd"/></linearGradient><linearGradient id="g78" x1="806.1" y1="221.8" x2="1139.2" y2="221.8" href="#P"><stop stop-color="#dae3fe"/><stop offset="1" stop-color="#e9effd"/></linearGradient><linearGradient id="g79" x1="1375.9" y1="622.5" x2="1462.2" y2="622.5" href="#P"><stop stop-color="#dae3fe"/><stop offset="1" stop-color="#e9effd"/></linearGradient><linearGradient id="g80" x1="1305" y1="552.9" x2="1534.8" y2="552.9" href="#P"><stop stop-color="#dae3fe"/><stop offset="1" stop-color="#e9effd"/></linearGradient></defs><style>.s0{fill:url(#g1)}.s1{fill:#7d97f4}.s2{fill:url(#g2)}.s3{fill:#91b3fa}.s4{fill:url(#g3)}.s5{fill:#ffffff}.s6{opacity: .7;fill:url(#g4)}.s7{opacity: .7;fill:url(#g5)}.s8{opacity: .7;fill:url(#g6)}.s9{opacity: .7;fill:url(#g7)}.s10{fill:url(#g8)}.s11{fill:url(#g9)}.s12{fill:url(#g10)}.s13{fill:url(#g11)}.s14{fill:url(#g12)}.s15{fill:url(#g13)}.s16{fill:url(#g14)}.s17{fill:url(#g15)}.s18{fill:url(#g16)}.s19{fill:url(#g17)}.s20{fill:url(#g18)}.s21{fill:url(#g19)}.s22{fill:url(#g20)}.s23{fill:url(#g21)}.s24{fill:url(#g22)}.s25{fill:url(#g23)}.s26{fill:url(#g24)}.s27{fill:url(#g25)}.s28{fill:url(#g26)}.s29{fill:url(#g27)}.s30{fill:url(#g28)}.s31{fill:url(#g29)}.s32{fill:url(#g30)}.s33{fill:url(#g31)}.s34{fill:url(#g32)}.s35{fill:url(#g33)}.s36{fill:url(#g34)}.s37{fill:url(#g35)}.s38{fill:url(#g36)}.s39{fill:url(#g37)}.s40{fill:url(#g38)}.s41{fill:url(#g39)}.s42{fill:url(#g40)}.s43{fill:url(#g41)}.s44{fill:url(#g42)}.s45{fill:url(#g43)}.s46{fill:url(#g44)}.s47{fill:url(#g45)}.s48{fill:url(#g46)}.s49{fill:url(#g47)}.s50{fill:url(#g48)}.s51{fill:url(#g49)}.s52{fill:url(#g50)}.s53{fill:url(#g51)}.s54{fill:url(#g52)}.s55{fill:url(#g53)}.s56{fill:url(#g54)}.s57{fill:url(#g55)}.s58{fill:url(#g56)}.s59{fill:url(#g57)}.s60{fill:url(#g58)}.s61{fill:url(#g59)}.s62{fill:url(#g60)}.s63{fill:url(#g61)}.s64{fill:url(#g62)}.s65{fill:url(#g63)}.s66{fill:url(#g64)}.s67{fill:url(#g65)}.s68{fill:url(#g66)}.s69{fill:url(#g67)}.s70{fill:url(#g68)}.s71{fill:url(#g69)}.s72{fill:url(#g70)}.s73{fill:url(#g71)}.s74{fill:url(#g72)}.s75{fill:url(#g73)}.s76{fill:url(#g74)}.s77{fill:url(#g75)}.s78{fill:#bdd0fb}.s79{fill:url(#g76)}.s80{fill:url(#g77)}.s81{fill:url(#g78)}.s82{fill:url(#g79)}.s83{fill:url(#g80)}</style><path class="s0" d="m191.9 899.7l186.1 203.2c-116.2 87.9-189 260.1 5.8 464.6l-261.6 127.1c-183.7-321-158-574.9 69.7-794.9z" /><path class="s1" d="m83.1 1620.9l180.3 2.7l32.3-177.6c99.2 203.3 333.3 288.1 601 201.1l135.5 251.2c-386.3 176.6-777.7 86.5-949.1-277.4z" /><path class="s2" d="m1389.5 1103.4c370.3-438.2 967-521.9 1295.9-84l-281.1 93.3c-277.6-157.9-663.3-51-809.2 238z" /><path class="s3" d="m2354.8 1087.8l184.9-38.6l-3-180.6c393.3 270.1 262.1 884.3-173 1066l-119.6-278.6c262.2-72.8 383.2-439.2 110.7-568.2z" /><path class="s1" d="m1669.3 1521.4c225.4 179.2 460.2 236 712.6 60.5l-56.2 180.5l202.6 71.8c-287.6 235.9-648.5 197.6-1061.2-98.7z" /><path class="s1" d="m1020.1 817.8l-127.4 283.1c-219.7-70.1-394.3-76.2-514.7 2l-185.9-7.8l-0.2-195.4c220.6-190.2 494.3-224.6 828.2-81.9z" /><path class="s4" d="m892.7 1100.9l-104.6-217.4l232-65.7c150.8 78.4 272.3 174.6 369.4 285.6c106.9 234.9 253.6 435.4 436.8 520.9l-240.4 2.7l37.2 209.7c-94.2-56.3-185.2-119.6-265.2-188.5l-180.8-320.8c-63.1-95.6-151-173.4-284.4-226.5z" /><path class="s3" d="m1594.8 1073l0.3 277.7c-125.5 288.8-397 542.4-785.4 619.9l115.6-189.9l-194.5-100.4c238.1-21.4 370-184.6 475.7-310.8c66.3-79.2 112.4-190.5 183-266.1z" /><path class="s1" d="m1454.7 295.4l945.4-5c9.1-0.1 16.4 7.2 16.4 16.3l-1.7 330.9c-0.1 9.1-7.6 16.4-16.7 16.1c-83.4-2.4-937.8-12.6-954.2-11.9c-16.1 0.7-7.6-260.6-5.2-330.8c0.2-8.6 7.3-15.5 16-15.6z" /><path fill-rule="evenodd" class="s5" d="m2398.6 640.9h-0.1c-53.3-1.5-563.9-7.4-809.3-10.3c-71.7-0.8-122.7-1.4-136.3-1.6h-1.2l-0.2-1.2c-5.9-32.7-5.9-142.1 0-316.3c0-1.8 1.5-3.3 3.3-3.3l945.5-5c0.9 0 1.7 0.4 2.4 1c0.6 0.6 1 1.5 1 2.4l-1.7 330.9c-0.1 1.9-1.6 3.4-3.4 3.4zm-944.3-14.9c15.2 0.2 65.3 0.8 134.9 1.6c245.4 2.8 756.1 8.7 809.4 10.3h0.1c0.1 0 0.2-0.2 0.2-0.4l1.7-330.9l-0.3-1.9v1.6l-945.5 5c-0.1 0-0.3 0.1-0.3 0.3c-5.7 171.8-5.8 280.4-0.2 314.4z" /><path class="s6" d="m1501.9 364.6l362.1-0.3c3.7 0 6.7 7.2 6.7 16.2c0 8.9-3 16.2-6.7 16.2l-362.1 0.3c-3.7 0-6.7-7.2-6.7-16.2c0-8.9 3-16.2 6.7-16.2z" /><path class="s7" d="m1501.9 419.8l362.2-0.3c3.7 0 6.6 7.3 6.7 16.2c0 9-3 16.2-6.7 16.2l-362.2 0.4c-3.6 0-6.6-7.3-6.6-16.2c0-9 2.9-16.2 6.6-16.3z" /><path class="s8" d="m1502 475.1l362.1-0.3c3.7 0 6.7 7.2 6.7 16.2c0 8.9-3 16.2-6.7 16.2l-362.1 0.3c-3.7 0-6.7-7.3-6.7-16.2c0-9 3-16.2 6.7-16.2z" /><path class="s9" d="m1502 530.3l362.2-0.3c3.7 0 6.6 7.2 6.7 16.2c0 8.9-3 16.2-6.7 16.2l-362.1 0.3c-3.7 0-6.7-7.2-6.7-16.2c0-8.9 2.9-16.2 6.6-16.2z" /><path class="s5" d="m1962.5 454.8c-34.8 0-63-28.1-63-62.9c-0.1-34.9 28.1-63.1 62.9-63.1c34.8 0 63 28.1 63.1 63c0 34.8-28.1 63-63 63z" /><path class="s5" d="m2119.1 454.7c-34.8 0-63-28.1-63.1-63c0-34.8 28.1-63 63-63c34.8-0.1 63 28.1 63 62.9c0.1 34.8-28.1 63-62.9 63.1z" /><path class="s5" d="m2275.7 456.6c-34.9 0-63.1-28.1-63.1-63c0-34.8 28.1-63 62.9-63c34.9 0 63.1 28.1 63.1 62.9c0 34.9-28.1 63-62.9 63.1z" /><path class="s1" d="m2009.3 374.4c2.5 6 3.9 12.5 3.9 19.4c0 28-22.7 50.8-50.7 50.8c-28 0-50.7-22.7-50.7-50.7c-0.1-28 22.6-50.7 50.6-50.7q1 0 2.1 0v10.3q-1-0.1-2.1-0.1c-22.3 0-40.4 18.2-40.4 40.5c0 22.4 18.2 40.5 40.5 40.4c22.4 0 40.5-18.1 40.4-40.5c0-5.4-1.1-10.6-3-15.3z" /><path class="s1" d="m2145 436.9c-7.7 4.8-16.8 7.5-26.6 7.5c-28 0.1-50.7-22.6-50.8-50.6c0-28 22.7-50.8 50.7-50.8q1 0 2 0.1l0.1 10.2q-1.1 0-2.1 0c-22.3 0-40.4 18.1-40.4 40.5c0 22.3 18.1 40.4 40.5 40.4c7.9 0 15.3-2.3 21.5-6.3z" /><path class="s1" d="m2317.7 422.3c-9.1 13.3-24.4 22-41.8 22c-28 0-50.7-22.7-50.7-50.7c0-28 22.6-50.7 50.7-50.7q1 0 2 0v10.3q-1-0.1-2-0.1c-22.4 0-40.5 18.2-40.5 40.5c0.1 22.4 18.2 40.5 40.5 40.4c14 0 26.2-7 33.5-17.7z" /><g style="opacity: .6"><path class="s10" d="m2025.6 493.1c0 6.4-5.3 11.7-11.7 11.7l-102.7 0.1c-6.4 0-11.6-5.2-11.6-11.7c0-6.4 5.2-11.7 11.6-11.7l102.7-0.1c6.4 0 11.7 5.3 11.7 11.7z" /><path class="s11" d="m2182.1 493c0 6.4-5.2 11.6-11.6 11.6l-102.7 0.1c-6.4 0-11.7-5.2-11.7-11.6c0-6.5 5.2-11.7 11.7-11.7l102.6-0.1c6.5 0 11.7 5.2 11.7 11.7z" /><path class="s12" d="m2212.7 492.9c0-6.4 5.2-11.6 11.6-11.7h102.7c6.5-0.1 11.7 5.2 11.7 11.6c0 6.5-5.2 11.7-11.7 11.7l-102.6 0.1c-6.5 0-11.7-5.2-11.7-11.7z" /><path class="s13" d="m2025.6 529.4l0.1 68.7c0 6.4-5.3 11.7-11.7 11.7l-102.7 0.1c-6.4 0-11.6-5.2-11.6-11.7l-0.1-68.7c0-6.4 5.2-11.7 11.7-11.7l102.6-0.1c6.5 0 11.7 5.3 11.7 11.7z" /><path class="s14" d="m2182.2 529.3v68.7c0 6.4-5.2 11.6-11.6 11.6l-102.7 0.1c-6.4 0-11.7-5.2-11.7-11.6v-68.7c0-6.5 5.2-11.7 11.6-11.7l102.7-0.1c6.4 0 11.6 5.2 11.7 11.7z" /><path class="s15" d="m2338.7 529.1l0.1 68.7c0 6.5-5.2 11.7-11.7 11.7l-102.6 0.1c-6.5 0-11.7-5.2-11.7-11.7l-0.1-68.7c0-6.4 5.2-11.6 11.7-11.7h102.6c6.5-0.1 11.7 5.2 11.7 11.6z" /></g><path class="s16" d="m1071.1 2632.2l128.4 60.3c3.2 1.5 5.7 4.2 6.9 7.5c1.6 3.9-1.2 8.2-5.4 8.3c-28 1.1-106.1-2.6-142.5-4.4c-10.8-0.5-18.9-9.9-17.9-20.6q2.6-27.4 7.8-55z" /><path class="s17" d="m1077.1 2607.2l9 36.9q-15.5 11.7-38 1l-3.6-33.1z" /><path class="s18" d="m1052.8 1989.7c-1.8 8.6-12.8 431.3 30.7 621.1c0.7 3.1-0.8 6.3-3.8 7.5c-7 2.7-20.6 6.7-36.9 7.1c-5 0.1-9.5-3.2-10.9-8c-12.5-44.1-72.5-264.8-78.8-475.3q-7-235.1 0.1-8l6.5-145.3z" /><path class="s19" d="m929 2643.3c15.6 17.4 20.6 39.7 22.1 53.3c0.8 6.8-4.6 12.7-11.5 12.7c-14.8 0-33.4-1.7-45.4-3c-6.8-0.7-11.4-7.2-10-13.9q7.8-37.1 15.7-51z" /><path class="s20" d="m925.3 2597.1l3.9 53.9q-18 4.8-27-2.1l-8.7-50.1z" /><path class="s21" d="m1056.6 1979.3l-5.8 76.7l-67.2 47c-5.4 3.8-9.4 9.3-11.2 15.7c-35.5 125.7-34.6 444.6-37.1 496.5c-0.2 3.9-2.8 7.3-6.6 8.4c-11.1 3.1-22.2 2.1-29 0.9c-3.9-0.7-7.1-3.8-8-7.7c-14.6-64.4-56.7-393-17.9-615.7z" /><path class="s22" d="m1226.1 1563.4c5.5 24.4 18.4 65.8 46.1 98.5c-36.9 20.4-81.6 35.6-135.8 41.9q-68.4 226-83.4 306.4q-97 35.4-182.6 12.1q-25.3-222.4 9.4-414.7q122.4-29.9 233.2-27.1c34.1 0.9 73.8-5.3 113.1-17.1z" /><path class="s23" d="m1272.2 1661.9c-27.7-32.7-40.6-74.1-46.1-98.5c88-26.6 174-81.6 190.9-150.4q13.8-6.1 24.5 7.2q-22.9 161.1-169.3 241.7z" /><path class="s24" d="m1438.9 1423.5c1.1 3.6-12.2 9-19.8-5.8c-0.2-7.1-4.2-37.6 0-43.3q22.9-30.6 67-68.8q7.3 7.4 1.2 14.5l-21.5 21.9c4.4 8.1 9.8 14.9 12.2 24.6c1.9 7.4 0.6 15.2-3.1 21.9c-3.8 6.7-9 15.4-13.8 22.2q-9.3 12.8-22.2 12.8z" /><path class="s25" d="m1458.3 1368.8q-4.4 6.9-10.5 39.3l-17.1-19.3l6.2-16.3l19.5-16.2c4 2.1 6.2 5.5 1.9 12.5z" /><path class="s26" d="m847.7 1790.8c-34.7-17.9-70.2-23.2-89.8-24.9q17.8-88.9 121.9-158.3l41.5 107.6q-65.6 33.6-73.6 75.6z" /><path class="s27" d="m1026 1845.6q-187.9 131-255.4 4.8c-15.6-29-18-57.6-12.7-84.5c19.6 1.7 55.1 7 89.8 24.9c-2.1 11-0.3 22.6 7.7 34.3q38.7 56.4 155.5-8.2z" /><path class="s28" d="m1073.3 1490.2l-12.2 88.1c-0.7 5.1-3.7 9.6-8 12.3c-42 26.1-76.5 10.5-86 5.1c-1.6-0.9-2.2-2.8-1.6-4.5l36.1-101.6z" /><path class="s29" d="m1079.1 1395.9q38 73.2 32.8 102.6c-5.2 29.3-53.1 26.8-94.8 2.6l-28.6-78.9z" /><path class="s30" d="m1013.8 1464.8c-1.4 0.6-2.1 2.2-1.6 3.7l10.6 32c0.7 2.1-1 4.3-3.2 4c-25.3-3.2-48.5-27.8-53.6-33.6c-0.7-0.7-1.7-1.1-2.7-1c-6.1 0.9-27.4 2.3-28.3-16.7c-0.6-13.8 7-18.7 12.9-20.5c2.2-0.6 2.9-3.3 1.4-4.9c-4.9-5.1-10.2-15.4-1.7-33.5c10.2-21.9 31.6-20.2 40.5-18.5c1.9 0.4 3.7-1.1 3.6-3c-0.2-6.5 1.9-19.5 19.7-27.2c19-8.4 32.5 5.7 37.6 12.5c1.2 1.6 3.5 1.6 4.7 0c32-40.7 51.3 10.9 43.6 31.3c-7.9 21-44.7 29.8-69.5 35.5q-24.7 5.7-17.7 10.2c1.7 8.5 7.5 18.2 10.5 23c1 1.5 0.4 3.6-1.3 4.3z" /><path class="s31" d="m1032.1 1481.2c-13.4 5.8-40.1-1.5-38-17.4q2.2-15.9 29.5 3.2z" /><path class="s32" d="m987.1 1918.9l63.4-222.2c0.7-2.5 2.9-4.4 5.5-4.7c11.5-1.3 44.9-5.2 83.4-8.5c46.5-3.9 100.4-7.2 132.7-4.5c4.5 0.4 7.3 5.2 5.3 9.4c-18.3 37.1-93.6 188-131.3 237.4c-1.2 1.7-3.2 2.6-5.2 2.6l-147.6-1.2c-4.3-0.1-7.4-4.2-6.2-8.3z" /><path class="s33" d="m1002.4 1865.2q-8.9-36.4-5.3-49.4c3.5-12.9 10.4-29.5 33.5-25.8q23.1 3.6 50.4 13.3q-1.4 16.9-18.9 11.5l10.8 8.4q-1.5 13.4-16.3 6.3l10.1 11.1q-6.4 11.1-17.3 4c-10.9-7.1-16.1 25-47 20.6z" /><path class="s3" d="m1153.9 1731.2c10.3 0 18.7 8.3 18.7 18.6c0 10.3-8.3 18.7-18.6 18.7c-10.4 0-18.7-8.3-18.7-18.6c0-10.3 8.3-18.7 18.6-18.7z" /><path class="s34" d="m1057.8 1762.3l-4.8-1.5l12.9-43.9c2.1-7.2 7.9-12.5 15.1-14c41-8.6 149.1-10.5 153.7-10.6l0.1 5c-1.1 0-112.2 1.9-152.8 10.4c-5.4 1.2-9.7 5.2-11.3 10.6z" /><path class="s1" d="m336.6 2391.8l-49 316c-0.8 4.8-4.9 8.4-9.8 8.4c-5.7 0-10.3-4.7-10-10.4c4.2-83.9 30.9-311.1 37.7-321.2z" /><path class="s1" d="m522.2 2384.4c6.7 10.1 33.9 237.2 38.2 321.1c0.3 5.7-4.2 10.4-9.9 10.4c-4.9 0-9.1-3.5-9.9-8.4l-49.5-315.8z" /><path class="s1" d="m300.4 2334.7l228 3.9c19.7 0.3 35.3 15.7 34.3 34l-0.1 2.3c-0.9 17.5-16.7 31.2-35.6 30.9l-227.9-3.6c-19.2-0.3-34.6-15-34.4-32.8v-2.5c0.1-18 16.2-32.5 35.7-32.2z" /><path class="s1" d="m843.5 2693.5c1.2 4.2-1.9 8.8-6.7 8.8l-143.3 0.1c-7.5 0-13.4-5.2-15-11.9c8 3.2 26 6.6 66.5 6.6c47.5 0 82.2-2.3 98.5-3.6z" /><path class="s35" d="m745 2697.1c-40.5 0-58.5-3.4-66.5-6.6c-0.6-2.5-0.6-5.2 0.3-7.9l7.9-26.6c34 5.1 49.2 0.4 92.9-0.3c29.9-0.4 51.8 21.4 62.7 35.3c0.6 0.8 1 1.6 1.2 2.5c-16.3 1.3-51 3.6-98.5 3.6z" /><path class="s36" d="m731.4 2633.8l-3.7 29q-19.2 8-41-1.9l9.9-33.5z" /><path class="s1" d="m1068.1 2611.3c3.5 2.5 4 8 0.3 11l-111.6 89.9c-5.9 4.7-13.8 4.3-19.1 0.1c8.2-2.5 24.3-11.1 55.9-36.5c37-29.8 62.6-53.3 74.5-64.5z" /><path class="s37" d="m993.6 2675.8c-31.6 25.4-47.7 34-55.9 36.5c-2-1.5-3.7-3.6-4.8-6.3l-10.3-25.6c29.6-17.3 38.5-30.5 72.2-58.4c23-19 53.7-15.8 70.9-11.9c0.9 0.3 1.7 0.7 2.4 1.2c-11.9 11.2-37.5 34.7-74.5 64.5z" /><path class="s38" d="m485.9 2246.6q242.5 19.6 292.2 43q49.8 23.3-40.2 351.6q-13.6 6.6-43.7-2.8q30.7-242.2 7.6-294.7l-262.6-42.7z" /><path class="s39" d="m929.9 2620l22 39.8q-5 15.4-29.3 20.6q-21.9-44-24.1-46z" /><path class="s40" d="m485.9 2246.6l244.4 62.3c16.4 4.1 30.5 14.6 39.2 29l167.2 284.9c1.4 2.5 0.7 5.6-1.7 7.1l-22.9 14.5c-5.1 3.3-11.8 2.5-16.1-1.7c-161.1-159.5-194.1-239.5-200.8-265.6c-1.6-5.8-6.7-10-12.7-10.3l-286.7-12.8c-34.9-1.7-63-30-63.5-65q-0.4-25.2 7.5-44.3z" /><path class="s41" d="m672.6 1841.6q-33.3 16.8-47.9 74.3l-64.7-36q31.3-26.3 61.9-80.7z" /><path class="s42" d="m565.1 1872.3c3.6-2.3 8.2-2 11.6 0.7c6.1 4.8 17.9 13.7 37.6 26.7c31.7 20.9 45.7 55 80.6 135q34.9 80.1 147.9 132.1l-7.9 17.7q-142-14.2-205.8-114.8q-40 37.9-143.2 176.9q-73.9 19-151.3 0.2c38.9-245.6 196.9-354 230.5-374.5z" /><path class="s43" d="m624.9 2067.8c-1.5 0-3-0.7-4-2c-24.7-32.1-38.4-67.5-39-69c-1-2.5 0.3-5.4 2.9-6.4c2.5-1 5.4 0.3 6.4 2.9c0.1 0.3 13.8 35.5 37.6 66.5c1.7 2.2 1.3 5.3-0.9 6.9c-0.9 0.7-2 1.1-3 1.1z" /><path class="s44" d="m826.4 2157.5l15.9-4.2l48.6-11.3c5.8-1.4 11.9-0.4 17 2.8l41.8 26.2h-115.3z" /><path class="s45" d="m670.6 1717.8q29.9 49.6 35.1 77c5.2 27.4 13.5 44.5-17.7 54.3c-31.2 9.8-60.2-2.5-78.4-28.1q-28.5-39.4-25.7-57.4q2.9-18 86.7-45.8z" /><path class="s46" d="m609.3 1800.9c-1.3 0.2-2.1 1.4-1.9 2.6l4.7 23.9c0.2 1.1-0.4 2.1-1.3 2.5c-3.7 1.5-13.6 3.8-31.8-3c-17.8-6.7-12.3-14.2-8.4-17.6c1.2-0.9 0.9-2.7-0.3-3.5c-26.3-16.2-33.9-39.3-24.3-49.8c5.6-6 10.3-5.8 13.5-4.4c1.6 0.7 3.3-0.5 3.1-2.3c-3-27.3 21-46.7 59.4-59.2c27.1-8.8 36.1-20.2 39.1-26.8c0.8-1.7 3.3-1.6 4 0.1c0.8 1.8 3.4 1.7 4.1-0.2l1-2.7c0.3-1 1.5-1.6 2.6-1.3c17 5 31.1 29.2 21.7 50.6c-9.8 22.2-66.1 41.7-79.9 49.6q-13.8 7.9 7.3 39.8l-4 0.6z" /><path class="s47" d="m617.6 1819.9c-12.3 0.4-38.9-24.8-25.1-36.2q13.8-11.5 27 21z" /><path class="s48" d="m771.4 2182.8c0-6 4.9-11 11-11l246.1-0.5c6.1-0.1 11.1 4.9 11.1 11c0 6.1-4.9 11-11 11l-246.1 0.5q-0.3 0-0.6 0c-5.8-0.3-10.5-5.1-10.5-11z" /><path class="s49" d="m1138 1947.6c5.6 2.5 8 9.1 5.4 14.6l-103.4 223.4c-2.4 5.5-9.1 7.9-14.6 5.3c-5.5-2.5-7.9-9-5.3-14.6l103.3-223.3q0.2-0.3 0.3-0.6c2.7-5.1 9-7.3 14.3-4.8z" /><path class="s1" d="m1742.7 2417.3h25.9l0.3 280.9l-26 0.1z" /><path class="s1" d="m1869.7 2703.6l-227.6 0.2c0-9.4 7.6-17 16.9-17l193.7-0.1c9.4-0.1 17 7.5 17 16.9z" /><path class="s1" d="m1617.1 2382.4c0-15.4 12.5-27.9 27.9-27.9l230.2-0.3c15.4 0 27.9 12.5 27.9 28l0.1 25.2c0 15.4-12.5 28-27.9 28l-230.2 0.2c-15.5 0-28-12.5-28-27.9z" /><path class="s50" d="m1656.8 2348.2l-93.4 4.7q32.6 34.7 31 85l2 113.1c0.3 13.5 9.1 25.4 22 29.4l16.7 5.3l-38.8 105.4h-58.5l22.7-21.3l12.2-57c1.6-7.6 0.5-15.6-3.2-22.4c-70.6-130.1-92.1-263.3-97.3-304.5c-1-8.1 2.7-16.1 9.5-20.7q43.4-29 82-35z" /><path class="s51" d="m1544.7 2682q28 9.1 43.6-1q15.5-10.2 30.1-100.6q25.8-1.8 29.3 6.2q0 39.3-43.8 115.7c-31.6 15.2-94.3 6.1-88.9-0.9q7.8-10.3 29.7-19.4z" /><path class="s52" d="m1645 2354.5q-0.5-0.9-100.6-12q3.3 30.4-6.9 72.3q-10.2 41.9-156.9 223.5l15.5 48.8c-47.6 16.6-94.5 19.3-140.6 8.6l95.4-57.4q89.1-304.5 143.7-358.9l100.3-34.8z" /><path class="s53" d="m1869.2 2177.1q57.7 85.7 62.5 124.8c4.7 39.1-15.8 55-76.2 57.7q-60.5 2.7-222 2.8l-137.9-117.7q100.4-35.9 126.5-46.1q26.1-10.1 247.1-21.5z" /><path class="s54" d="m1390.2 2670.6q16.6 16.1 5.4 34q-131.3 23.4-167 12.8q7.4-16.9 47.6-36.1l-3 2.2c-3.7 2.9-1.5 8.9 3.2 8.6c26.4-1.5 81.2-6.4 113.8-21.5z" /><path class="s55" d="m1619 1633.6c117.8-20.1 173.4 75.9 169.3 96.1c-0.5 2.7 2 5 4.7 4.3c13.5-3.7 43.4-8.3 61.9 14.9c16.4 20.5 4.2 39.8-5.8 50.5c-2.4 2.5-0.3 6.7 3.1 6.2c24.9-3.1 79-3.9 87.8 46.7c8.3 47.2-24.5 60.5-44 64.3c-3.3 0.6-4.1 5-1.2 6.8c9.7 6.1 21 18.9 16.4 44c-7 39.4-84.3 36.3-93.4 35.8q-0.8-0.1-1.6-0.5l-123.9-70.5c-0.9-0.5-1.6-1.5-1.8-2.6l-25.1-144.3c-0.2-1.2 0.2-2.4 1-3.2l-80.8-113.8c-29.3-4.3 32-34.4 33.4-34.7z" /><path class="s56" d="m1713.3 2165.9q-67.2-63.8-100.3-106.1c-17.8-22.9-23.5-53-15.3-80.9c15.1-50.8 41.8-103.5 44.3-111.7q3.7-12.5 79-12.1q148.2 96 206.5 258.8l-65.3 20.4q-38.7-64.9-77-106.1q66.2 87.3 68.6 123.1z" /><path class="s57" d="m1668.9 1761.5l48.6 94.8c-19.6 13.4-61.1 11.2-62.7 9.8c-1.5-1.3-21.2-66.4-22-69z" /><path class="s58" d="m1674.6 1743.1c4.8 48.5-15.2 75.8-31.5 91.8c-16.2 16.1-45.9 16.2-72.3-34q-26.3-50.1-16.8-87.4c13.7-47.5 115.8-18.9 120.6 29.6z" /><path class="s59" d="m1638.3 1745.7q-43.7-66.5-84.5-14.1l-0.7 19.1q-47.9-5.6-39.6-49.5c8.4-43.9 49.7-71.4 103-52.4c53.3 18.9 83.8 38.4 87.3 76.6q3.5 38.1-26.9 29.8q-9.9-26.9-24-29.7q-14.1-2.7-10.4 18.2z" /><path class="s60" d="m1649.4 1744.8q-22.6-34.1 0.5-39.2c23.2-5.1 19.6 33.3 17.1 47.4z" /><path class="s61" d="m1576.6 2170.8l49.2-47.6l68.3 28.8q67.9 10.4 106.8-0.1q38.8-10.6 38.8-10.6l87.8-27.4l13.8 39c3.6 9.9 0 20.8-8.5 26.9c-7.6 5.4-16.5 11.4-22.2 13.9q-11.5 5-285.1-3.3z" /><path class="s62" d="m1763.2 2193q-0.3 0-0.7 0h-286c-7.1 0-12.8-5.7-12.8-12.8c0-7.1 5.7-12.9 12.8-12.8h286c7.1 0 12.9 5.8 12.9 12.8c0 6.9-5.4 12.5-12.2 12.8z" /><path class="s63" d="m1219.1 1933.8l238.2-0.2c17.6-0.1 33.6 10.1 41.1 26l110.4 233.4l-296.1 0.3c-11.4 0-21.5-6.9-25.7-17.4l-85.6-216.1c-5-12.5 4.2-26 17.7-26z" /><path class="s3" d="m1387 2053.4c5.2 16 1.4 31.6-8.5 34.8c-9.8 3.2-22-7.3-27.2-23.3c-5.2-16-1.4-31.6 8.5-34.8c9.8-3.2 22 7.2 27.2 23.3z" /><path class="s64" d="m2089.8 2667.9q3 16.7 4.2 36.5c0.5 8.4-5.7 15.8-14.1 16.6c-29.3 2.9-96 8.2-138.5 2.1c-6-0.9-8.4-8.2-4-12.3c17.6-16.4 59.9-48.2 129.7-55.2z" /><path class="s65" d="m2104.3 2630.3l-14.8 36.3c-2 5-7 8.1-12.4 7.6c-3.6-0.4-7.9-1.1-12.1-2.4c-8.3-2.5-13-11.3-10.5-19.7l11.1-37.4z" /><path class="s66" d="m2404.4 2754.3c1.6 8.8-5.3 16.9-14.2 16.9h-61c-9.3 0-16-9.2-12.9-17.9q11.6-31.9 41.2-56.7c31.8 0.1 43 35.8 46.9 57.7z" /><path class="s67" d="m2394.2 2664.3q-6 26.5-10.6 44c-0.8 3.2-4.2 4.9-7.3 3.8c-9.2-3.3-16.7-4.7-22.2-4c-2.5 0.4-4.7-1.7-4.8-4.3l-0.6-44z" /><path class="s68" d="m2425.7 1999.3q75.7 171.1-23.6 670.9l-61.3-4.6q17.9-195.6-19.8-467.9l-213.8 442.3q-16.4 0.9-51.1-21.7l179.9-550.3z" /><path class="s3" d="m2318.1 2191.4l-7-55.6c-0.2-0.9 0.5-1.8 1.5-1.9c0.9-0.1 1.8 0.5 1.9 1.5l7.1 55.5c0.1 1-0.6 1.9-1.5 2q-0.1 0-0.3 0c-0.8 0-1.6-0.6-1.7-1.5z" /><path class="s69" d="m2201.7 1584q146.1 12.8 125.6 116.9q80.8 151.9 118.8 330.9c1.2 5.8-2.7 11.5-8.6 12.5l-243.2 41.9c-6.7 1.2-13.2-3-14.9-9.6l-58.4-224.6l-22.5 104.5l-72-18.7l60.3-307q8.4-44.8 114.9-46.8z" /><path class="s70" d="m2118 1840.5l-20.3-93.1c-0.3-1 0.4-1.9 1.3-2.1c1-0.2 2 0.4 2.2 1.3l20.4 93.1c0.2 1-0.4 2-1.4 2.2q-0.2 0-0.4 0c-0.8 0-1.6-0.5-1.8-1.4z" /><path class="s71" d="m2134.7 2119c7.7-4.2 16.7-5.4 25.2-3.3l16.9 4.2c3.6 0.9 7.1-1.5 7.6-5.2l17.3-156c21.9 10.4 53.5 9.1 64 8.4l-40.2 183.8l-141.1 0.2z" /><path class="s72" d="m1759.6 1781.2l4.2-14.2c2.5-8.2 8.5-14.8 16.4-17.9l77.1-31.1q1.1-9.9-16.3-16.6q-17.5-6.7-13.4-26.3q23.8 10.9 58.8 28.1c19.9 9.8 31.2 27.3 37.1 40.4l175 212.9l-20.5 14.1c-27 18.6-64.1 9.5-79.5-19.4l-94.8-181.5c-47.5 14.3-95.6 17.1-144.1 11.5z" /><path class="s73" d="m2154.3 1484.6l45 125.7q-39.7 31.2-68.8 20.7l-22.7-72.1q17.2-88.1 46.5-74.3z" /><path class="s74" d="m2107.7 1415.5l24.1 120.3l-68.3 26.3q-43.4-120.6-43.4-122.5q0-32.5 87.6-24.1z" /><path class="s75" d="m2090.6 1439c-8-3.4-26-9.2-37.8 0.6c-15.5 12.8-48.4 25.6-59.7 6.2c-11.3-19.3-12.9-54.9 18-64.9c17.4-5.7 27.7 2.6 33.4 10.9c2.9 4.4 9 5.4 13 2c3-2.5 5.7-2.5 8-1.4c4.1 1.8 8.7 0.6 11.3-3c6.2-9 18.4-20.7 37.8-15.2c19 5.5 19.7 20.3 17.7 30.3c-1.1 5.1 2.3 9.9 7.3 10.8c24.3 4.2 22.6 23.2 20.6 31.6c-0.6 2.4-2.1 4.4-4.2 5.6c-6.4 3.8-21.1 13.7-20.7 26.8c0.4 13.9 9.4 62.4 12.4 78.4c0.6 3.3-0.6 6.6-3.2 8.7c-19 15.6-45.8 28.7-58.6 34.5c-4.2 2-9.3 0.4-11.6-3.7c-11.4-20.1-20.7-44.6-24.7-55.5c-1.5-4.4 0.5-9.3 4.7-11.3c9.4-4.4 24.2-2.7 40.4-0.6c17.8 2.4 19.1-15.1 19.1-20.2q0-1.2-0.4-2.4l-17.7-62.4c-0.7-2.6-2.6-4.8-5.1-5.8z" /><path class="s76" d="m2141.5 1502.1q-18.3-34.6-6.2-45.4c12-10.9 32.5-9.1 32 17.9q-0.7 33.6-25.8 27.5z" /><path class="s77" d="m2192 1955.1l-0.9-0.7l46.1-216.5l-9-17c-0.5-0.9-0.2-2 0.7-2.4c0.9-0.5 2-0.2 2.5 0.7l9.6 18.1l-45.9 215.6c22.4 15.7 64.6 12.9 72.5 12.2l52.5-245.5c0.2-1 1.1-1.6 2.1-1.4c1 0.2 1.6 1.2 1.4 2.1l-53 248.1l-1.3 0.2c-0.7 0.1-7.8 0.8-17.8 0.8c-17.4 0-43.3-2.2-59.5-14.3z" /><path class="s3" d="m657.4 2727.1c-1.3 0-2.5-0.3-3.7-0.8c-4.7-2.2-6.9-8.2-4.9-13.3l194-493.4c2-5.2 7.5-7.5 12.2-5.3c4.7 2.2 6.8 8.1 4.8 13.2l-193.9 493.5c-1.5 3.8-4.9 6.1-8.5 6.1z" /><path class="s3" d="m876.4 2726.9c-3.6 0-7.1-2.3-8.6-6.1l-194.8-493.1c-2-5.1 0.1-11.1 4.8-13.3c4.7-2.2 10.2 0.2 12.2 5.3l194.9 493.1c2 5.1-0.2 11-4.9 13.3c-1.2 0.5-2.4 0.8-3.6 0.8z" /><path class="s3" d="m1976.7 2725.9c-1.3 0-2.5-0.3-3.7-0.8c-4.7-2.2-6.9-8.2-4.9-13.3l194-493.4c2-5.2 7.4-7.5 12.2-5.3c4.7 2.2 6.8 8.1 4.8 13.2l-193.9 493.5c-1.5 3.8-4.9 6.1-8.5 6.1z" /><path class="s3" d="m2195.7 2725.7c-3.6 0-7.1-2.3-8.6-6.1l-194.8-493.1c-2-5.1 0.1-11.1 4.8-13.3c4.7-2.2 10.2 0.2 12.2 5.3l194.8 493.1c2.1 5.1-0.1 11-4.8 13.3c-1.2 0.5-2.4 0.8-3.6 0.8z" /><path class="s78" d="m1947.9 2154.7l281.6-0.3v29.1l-281.5 0.2c6 0 6-29-0.1-29z" /><path class="s79" d="m2226.2 2183.5c1.8 0 3.3-1.5 3.3-3.4v-22.4c0-1.8-1.5-3.3-3.4-3.3l-283.4 0.3c-1.8 0-3.4-1.5-3.4-3.3c0-1.8 1.5-3.3 3.4-3.3l302.9-0.3c6.7 0 12.2 5.5 12.2 12.2v18.5c0 6.4-5.1 11.5-11.5 11.5l-303.6 0.3c-1.8 0-3.3-1.5-3.3-3.3c0-1.8 1.5-3.3 3.3-3.3z" /><path class="s3" d="m2261.4 2233.6c-1.7 6.1-9.7 10.4-19 10.4l-1651.3 1.6c-10 0-19.1-3.9-23.3-9.9l-18.3-26.2c-2.7-3.9-2.3-8.5 1.3-12.2c3.5-3.7 9.6-5.9 16.1-5.9l1687-1.5c5 0 9.7 1.4 12.9 4c3.2 2.5 4.5 5.9 3.5 9.1z" /><g style="opacity: .3"><path class="s78" d="m1348 482.6c-5.3-1.1-8.7-6.3-7.6-11.7c2.1-10.3 3.9-21 5.1-31.5c0.7-5.4 5.5-9.2 10.8-8.7q0.1 0 0.2 0c5.4 0.7 9.3 5.6 8.6 11c-1.3 11.2-3.1 22.3-5.4 33.3c-1 5-5.7 8.3-10.6 7.8q-0.5-0.1-1.1-0.2zm0.1-95.1c-0.1-10.7-0.8-21.4-1.9-32c-0.5-5.4 3.4-10.2 8.8-10.8c5.5-0.5 10.3 3.4 10.9 8.8c1.1 11.1 1.8 22.4 2 33.6c0.1 5.5-4.3 10-9.7 10.1q-0.6 0-1.2-0.1c-4.9-0.5-8.8-4.6-8.9-9.6zm-10.8-83.1c-2.5-10.3-5.6-20.7-9-30.7c-1.7-5.2 1-10.8 6.2-12.5c5.1-1.8 10.7 1 12.5 6.1c3.6 10.6 6.8 21.5 9.5 32.3c1.3 5.3-1.9 10.7-7.2 12q-1.7 0.4-3.4 0.2c-4-0.4-7.6-3.3-8.6-7.4zm-29.1-78.6c-4.8-9.5-10.1-18.9-15.7-27.9c-2.8-4.7-1.4-10.8 3.2-13.6c4.7-2.9 10.8-1.4 13.6 3.2c5.9 9.5 11.4 19.4 16.5 29.4c2.5 4.8 0.5 10.8-4.4 13.2c-1.7 0.9-3.6 1.2-5.4 1.1c-3.2-0.4-6.3-2.3-7.8-5.4zm-46-70.2c-6.7-8.1-13.9-16.1-21.4-23.7c-3.8-3.9-3.8-10.2 0.1-14c3.9-3.8 10.2-3.7 14 0.1c7.8 8 15.4 16.5 22.6 25c3.4 4.2 2.8 10.5-1.4 14c-2.1 1.7-4.7 2.4-7.2 2.2c-2.5-0.3-4.9-1.5-6.7-3.6zm-60.3-58.2c-8.4-6.5-17.2-12.7-26.1-18.4c-4.6-3-5.9-9.1-3-13.7c3-4.5 9.1-5.9 13.7-2.9c9.4 6 18.6 12.5 27.5 19.4c4.3 3.3 5.1 9.5 1.8 13.8c-2.2 2.8-5.5 4.1-8.8 3.8c-1.8-0.2-3.5-0.8-5.1-2zm-361-64.2c-1.8-5.1 1-10.7 6.2-12.5c10.5-3.6 21.4-6.7 32.3-9.4c5.3-1.3 10.6 2 11.9 7.2c1.3 5.3-1.9 10.7-7.2 12c-10.3 2.5-20.7 5.5-30.7 8.9c-1.4 0.5-2.8 0.6-4.2 0.5c-3.7-0.4-7-2.9-8.3-6.7zm289.4 20.8c-9.7-4.4-19.6-8.5-29.6-12.1c-5.1-1.8-7.8-7.5-5.9-12.6c1.8-5.2 7.5-7.8 12.6-6c10.5 3.8 21 8.1 31.1 12.8c5 2.3 7.2 8.1 4.9 13.1c-1.8 3.9-5.9 6.1-10 5.7q-1.6-0.2-3.1-0.9zm-205.8-41.2c-0.6-5.4 3.4-10.2 8.8-10.8c11.1-1.1 22.4-1.8 33.6-1.9c5.5-0.1 10 4.2 10.1 9.7c0.1 5.4-4.3 9.9-9.7 10c-10.7 0.2-21.4 0.8-32 1.9q-1 0.1-2 0c-4.6-0.5-8.3-4.1-8.8-8.9zm126.2 15c-10.4-2.2-21-4-31.5-5.3c-5.4-0.6-9.3-5.5-8.6-11c0.6-5.3 5.4-9.1 10.7-8.6q0.1 0 0.3 0c11.1 1.4 22.2 3.2 33.2 5.5c5.3 1.1 8.7 6.4 7.6 11.7c-1 5-5.7 8.3-10.6 7.8q-0.5 0-1.1-0.1z" /><path class="s78" d="m778.2 63c-2.7-4.8-0.9-10.8 3.8-13.5c4.7-2.6 9.5-5.1 14.3-7.5c4.9-2.5 10.8-0.5 13.3 4.3c2.5 4.9 0.5 10.8-4.4 13.3c-4.6 2.3-9.1 4.7-13.6 7.2c-1.8 1-3.8 1.4-5.8 1.2c-3.1-0.3-6-2.1-7.6-5z" /></g><g style="opacity: .3"><path class="s78" d="m599.2 305.2c-5.2-1.4-8.4-6.8-7-12.1c1.4-5.1 2.9-10.4 4.5-15.5c1.6-5.2 7.1-8.2 12.3-6.5c5.3 1.6 8.2 7.1 6.6 12.3c-1.6 4.9-3 9.9-4.3 14.8c-1.2 4.8-5.8 7.8-10.5 7.3q-0.8-0.1-1.6-0.3z" /><path class="s78" d="m914.5 784.5c-5.4-0.8-9.1-5.9-8.3-11.3c0.8-5.3 5.8-9.1 11.2-8.3c10.3 1.6 20.8 2.7 31.3 3.4c5.4 0.4 9.6 5.1 9.2 10.5c-0.4 5.5-5.1 9.6-10.5 9.2q-6.9-0.4-13.6-1.1c-6.5-0.7-13-1.5-19.3-2.4zm76.2-5.7c-0.4-5.5 3.7-10.2 9.1-10.6c10.5-0.7 21-1.9 31.3-3.5c5.4-0.8 10.5 2.9 11.3 8.3c0.8 5.4-2.9 10.4-8.2 11.3c-10.9 1.6-22 2.9-33 3.6q-0.8 0.1-1.7 0c-4.7-0.5-8.5-4.3-8.8-9.1zm-128.8-5.9c-10.5-3.1-21.1-6.7-31.3-10.7c-5.1-2-7.6-7.7-5.7-12.8c2-5.1 7.7-7.6 12.8-5.6c9.8 3.8 19.8 7.2 29.8 10.1c5.2 1.6 8.2 7 6.7 12.3c-1.4 4.6-5.8 7.5-10.5 7q-0.9-0.1-1.8-0.3zm212.5-7.1c-1.6-5.2 1.4-10.7 6.6-12.3c10-3 20-6.5 29.8-10.3c5-2 10.8 0.5 12.8 5.6c2 5-0.5 10.8-5.6 12.8c-10.2 4-20.8 7.7-31.3 10.8c-1.3 0.4-2.6 0.5-3.8 0.4c-3.9-0.4-7.3-3.1-8.5-7zm-292.5-26.5c-9.6-5.3-19.1-11.2-28.2-17.3c-4.6-3.1-5.8-9.2-2.7-13.7c3-4.5 9.2-5.7 13.7-2.7c8.7 5.8 17.7 11.4 26.8 16.4c4.8 2.7 6.5 8.7 3.8 13.5c-2 3.5-5.8 5.4-9.6 5c-1.3-0.1-2.6-0.5-3.8-1.2zm-70.7-50.3c-8.3-7.3-16.3-15.1-23.8-23.1c-3.8-3.9-3.6-10.2 0.3-13.9c4-3.8 10.3-3.6 14 0.4c7.2 7.5 14.8 14.9 22.6 21.9c4.1 3.6 4.4 9.8 0.8 13.9c-2.2 2.5-5.3 3.6-8.4 3.3c-2-0.2-3.9-1.1-5.5-2.5zm-58.1-64.5c-6.5-9-12.6-18.3-18.2-27.7c-2.8-4.7-1.3-10.7 3.4-13.6c4.7-2.8 10.7-1.2 13.5 3.4c5.4 9 11.2 17.9 17.3 26.4c3.2 4.4 2.2 10.6-2.2 13.7c-2.1 1.5-4.5 2.1-6.8 1.8c-2.7-0.2-5.3-1.6-7-4zm-42.7-75.7c-4.3-10.1-8.2-20.5-11.6-31c-1.8-5.2 1.1-10.8 6.2-12.5c5.2-1.7 10.8 1.2 12.5 6.3c3.3 10 7 19.9 11.1 29.5c2.2 5-0.2 10.8-5.2 12.9c-1.6 0.7-3.2 0.9-4.8 0.8c-3.5-0.4-6.7-2.5-8.2-6zm-24.9-83.2c-2-10.8-3.5-21.8-4.6-32.8c-0.5-5.4 3.5-10.3 8.9-10.8c5.4-0.5 10.2 3.5 10.8 8.9c1 10.4 2.4 20.9 4.3 31.2c1 5.3-2.6 10.5-7.9 11.5q-1.5 0.2-2.8 0.1c-4.3-0.5-7.9-3.7-8.7-8.1zm-6.1-86.6c0.3-8.1 0.9-16.2 1.7-24.3q0.4-4.4 0.9-8.7c0.7-5.4 5.6-9.4 11-8.6c5.5 0.7 9.3 5.6 8.6 11q-0.5 4.1-0.9 8.3c-0.7 7.6-1.3 15.4-1.6 23.1c-0.2 5.4-4.8 9.7-10.2 9.5q-0.3 0-0.6-0.1c-5.2-0.5-9.1-4.9-8.9-10.2z" /><path class="s78" d="m1153.4 734.6c-2.7-4.8-1-10.8 3.7-13.5c4.5-2.5 8.9-5.1 13.3-7.8c4.6-2.9 10.7-1.4 13.6 3.2c2.8 4.6 1.4 10.7-3.2 13.6c-4.6 2.8-9.3 5.6-14 8.2c-1.8 1.1-3.8 1.4-5.8 1.3c-3.1-0.4-6-2.1-7.6-5z" /></g><path class="s78" d="m1159.2 624.3c-1.4 1.3-3.5 1.7-5.3 0.8l-50.5-24.5c-22.3 13.8-47 24.2-73.2 30.4l-18.3 53.1c-0.6 1.9-2.4 3.1-4.4 3.1l-67.3 0.1c-2 0-3.8-1.2-4.4-3.1l-18.4-53.1c-26.3-6.1-50.9-16.4-73.2-30.3l-50.5 24.7c-1.8 0.9-3.9 0.5-5.3-0.9l-47.7-47.6c-1.4-1.4-1.7-3.5-0.9-5.3l24.6-50.5c-13.9-22.3-24.3-46.9-30.5-73.2l-53.1-18.2c-1.8-0.7-3.1-2.4-3.1-4.4v-67.4c0-2 1.2-3.7 3.1-4.4l53-18.3c6.2-26.3 16.5-51 30.3-73.3l-24.6-50.5c-0.9-1.7-0.5-3.8 0.8-5.2l47.6-47.7c1.4-1.4 3.6-1.8 5.3-0.9l50.6 24.5c22.2-13.8 46.9-24.2 73.2-30.4l18.2-53.1c0.7-1.9 2.4-3.1 4.4-3.1l67.4-0.1c1.9 0 3.7 1.3 4.3 3.1l18.4 53.1c26.3 6.1 50.9 16.5 73.2 30.3l50.5-24.7c1.8-0.8 3.9-0.5 5.3 0.9l47.7 47.6c1.4 1.4 1.8 3.5 0.9 5.3l-24.6 50.5c13.9 22.3 24.3 46.9 30.5 73.2l53.1 18.3c1.8 0.6 3.1 2.4 3.1 4.3l0.1 67.4c0 2-1.3 3.7-3.2 4.4l-53 18.3c-6.1 26.3-16.5 51-30.3 73.3l24.7 50.5c0.8 1.7 0.5 3.9-0.9 5.3z" /><path fill-rule="evenodd" class="s80" d="m957 457.1c-36.2-9.1-58.2-46-49.1-82.2c4.4-17.6 15.4-32.3 30.9-41.6c15.5-9.3 33.7-12 51.3-7.6c36.2 9.1 58.3 46 49.1 82.2c-8.2 33-39.5 54.2-72.4 50.9q-4.8-0.5-9.8-1.7zm-10.1-110.3c-11.9 7.2-20.3 18.5-23.7 31.9c-7 27.8 9.9 56.1 37.7 63.1c27.8 7 56-10 63-37.7c7-27.8-9.9-56.1-37.7-63.1q-3.8-0.9-7.6-1.3c-11-1.1-22 1.4-31.7 7.1z" /><path class="s81" d="m855 508.2c-31.5-31.4-48.9-73.2-48.9-117.7q0-8.7 0.8-17.1c3.9-38.1 20.5-73.3 47.9-100.7c31.4-31.5 73.2-48.9 117.7-48.9c91.8-0.1 166.6 74.5 166.7 166.4q0 8.4-0.9 16.8c-2.4 24.3-10.1 47.8-22.6 68.7c-1.2 1.9-3.6 2.5-5.5 1.4c-1.3-0.9-2-2.4-1.9-3.8q0.1-0.9 0.6-1.7c11.9-19.9 19.3-42.2 21.6-65.3q0.8-8 0.8-16.1c-0.1-87.5-71.3-158.6-158.8-158.5c-42.4 0-82.2 16.6-112.2 46.6c-26 26.1-41.9 59.6-45.5 95.9q-0.8 8-0.8 16.3c0 31.2 9.1 60.4 24.8 85c28.3 44.2 77.8 73.5 134 73.5c11.3-0.1 22.6-1.3 33.6-3.6c2.1-0.5 4.2 0.9 4.7 3q0.1 0.6 0 1.2c-0.1 1.7-1.3 3.1-3 3.5q-1 0.2-2 0.4q-0.5 0.1-1 0.2q-0.2 0-0.4 0.1c-8.7 1.7-17.6 2.7-26.5 3q-2.7 0.1-5.4 0.1q-8.6 0-17.1-0.9c-38-3.8-73.3-20.4-100.7-47.8z" /><g style="opacity: .3"><path class="s78" d="m1656.7 774.9c-3.1-1.2-4.6-4.8-3.3-7.9c1.8-4.6 3.6-9.3 5.2-14c1-3.1 4.5-4.9 7.7-3.8c3.2 1.1 4.9 4.6 3.8 7.8c-1.6 4.9-3.5 9.8-5.4 14.6c-1.1 2.6-3.7 4-6.3 3.8q-0.8-0.1-1.7-0.5z" /><path class="s78" d="m1671.4 730.4c-3.3-0.7-5.5-3.9-4.8-7.2c1.7-8.4 3-16.9 3.9-25.3q0.2-2.7 0.4-5.4c0.3-3.4 3.3-5.9 6.6-5.6c3.2 0.4 5.9 3.2 5.6 6.5q-0.2 2.9-0.5 5.7c-0.9 8.8-2.2 17.8-4 26.5c-0.7 3.1-3.5 5.2-6.6 4.8q-0.3 0-0.6 0zm0.1-68.9c-0.4-10.3-1.5-20.7-3.2-30.8c-0.6-3.3 1.7-6.5 5-7c3.3-0.6 6.5 1.7 7 5c1.8 10.6 2.9 21.5 3.4 32.3c0.1 3.3-2.5 6.2-5.8 6.3q-0.5 0.1-0.9 0c-3-0.3-5.4-2.7-5.5-5.8zm-10.2-61c-3-9.8-6.6-19.6-10.7-29c-1.4-3.1 0-6.7 3.1-8.1c3.1-1.3 6.7 0.1 8 3.1c4.4 9.9 8.2 20.2 11.3 30.5c0.9 3.3-0.9 6.7-4.1 7.6q-1.2 0.4-2.4 0.3c-2.4-0.3-4.5-1.9-5.2-4.4zm-24.9-56.6c-5.3-8.8-11.2-17.4-17.5-25.5c-2.1-2.7-1.6-6.5 1-8.6c2.7-2 6.5-1.6 8.6 1.1c6.6 8.5 12.8 17.5 18.3 26.8c1.8 2.9 0.8 6.6-2.1 8.3c-1.1 0.7-2.4 1-3.7 0.9c-1.9-0.2-3.6-1.2-4.6-3zm-38-48.8c-7.3-7.3-15.1-14.2-23.2-20.5c-2.6-2.1-3.1-5.9-1-8.6c2.1-2.6 5.9-3.1 8.6-1c8.4 6.6 16.6 13.9 24.2 21.5c2.4 2.4 2.4 6.3 0 8.6c-1.3 1.4-3.1 2-4.9 1.8c-1.4-0.1-2.7-0.7-3.7-1.8zm-48.7-38.1c-8.8-5.3-18-10.1-27.4-14.2c-3.1-1.4-4.5-5-3.1-8.1c1.3-3.1 4.9-4.4 8-3.1c9.9 4.4 19.6 9.4 28.8 15c2.9 1.7 3.8 5.5 2.1 8.3c-1.3 2.1-3.6 3.2-5.8 3c-0.9-0.1-1.8-0.4-2.6-0.9zm-56.5-25c-9.8-3-19.9-5.4-30.1-7.1c-3.3-0.6-5.5-3.7-5-7c0.6-3.4 3.7-5.5 7.1-5c10.6 1.8 21.3 4.3 31.6 7.4c3.2 1 5 4.4 4.1 7.6c-0.9 2.9-3.6 4.6-6.5 4.3q-0.6 0-1.2-0.2zm-98.4-15.6c-0.3-3.4 2.3-6.3 5.6-6.5c9.3-0.8 18.8-1 28.2-0.7q2.2 0.1 4.3 0.2c3.3 0 6 3 5.8 6.4c-0.2 3.3-3 5.9-6.4 5.8q-2-0.1-4-0.2c-9-0.3-18.1-0.1-27 0.6q-0.5 0.1-1 0c-2.9-0.3-5.3-2.6-5.5-5.6z" /></g><g style="opacity: .3"><path class="s78" d="m1390.6 934.3c-10.6-1.2-21.2-3.1-31.5-5.5c-3.3-0.8-5.3-4.1-4.5-7.4c0.8-3.3 4.1-5.3 7.3-4.5c9.9 2.3 20 4.1 30 5.2c3.4 0.4 5.8 3.5 5.4 6.8c-0.4 3.3-3.3 5.7-6.7 5.4q0 0 0 0zm25.7-4.4c0-3.4 2.7-6.1 6.1-6.1c10.1-0.1 20.3-0.8 30.4-2.1c3.3-0.4 6.4 1.9 6.8 5.3c0.4 3.3-1.9 6.4-5.3 6.8c-10.5 1.4-21.2 2.1-31.8 2.2q-0.4 0-0.7-0.1c-3-0.3-5.5-2.9-5.5-6zm-87.8-10.4c-9.9-3.8-19.7-8.1-29.2-13c-2.9-1.5-4.1-5.2-2.6-8.2c1.6-3 5.3-4.2 8.3-2.6c8.9 4.6 18.3 8.8 27.8 12.3c3.2 1.2 4.8 4.7 3.6 7.9c-1 2.6-3.6 4.2-6.3 3.9q-0.8-0.1-1.6-0.3zm149.8 3.9c-0.8-3.2 1.2-6.6 4.4-7.4c9.8-2.5 19.6-5.6 29-9.3c3.2-1.2 6.7 0.3 7.9 3.4c1.2 3.2-0.3 6.7-3.4 7.9c-9.9 3.9-20.2 7.2-30.5 9.8q-1 0.3-2.1 0.2c-2.5-0.3-4.6-2-5.3-4.6zm-206.3-33.3c-8.8-6-17.3-12.6-25.3-19.6c-2.5-2.2-2.7-6-0.5-8.6c2.2-2.5 6.1-2.8 8.6-0.5c7.6 6.7 15.7 12.9 24 18.6c2.8 1.9 3.5 5.7 1.6 8.5c-1.3 1.9-3.5 2.9-5.6 2.7c-1-0.1-2-0.5-2.8-1.1zm-47.9-42c-7.1-8-13.8-16.4-19.9-25.1c-1.9-2.8-1.2-6.6 1.6-8.5c2.7-1.9 6.5-1.2 8.5 1.5c5.7 8.3 12.1 16.4 18.9 23.9c2.2 2.5 2 6.4-0.5 8.6c-1.4 1.2-3.1 1.7-4.7 1.6c-1.5-0.2-2.9-0.9-3.9-2zm-36.5-52.4c-5-9.4-9.4-19.2-13.2-29.1c-1.2-3.1 0.4-6.6 3.5-7.8c3.1-1.3 6.7 0.3 7.9 3.5c3.6 9.4 7.8 18.7 12.6 27.7c1.6 3 0.4 6.7-2.6 8.2c-1.1 0.6-2.3 0.8-3.4 0.7c-2-0.2-3.8-1.3-4.8-3.2z" /><path class="s78" d="m1537.2 902c-1.6-2.9-0.5-6.6 2.4-8.2c4.4-2.4 8.7-4.9 12.9-7.5c2.9-1.7 6.6-0.8 8.4 2c1.8 2.9 0.9 6.6-2 8.4c-4.3 2.7-8.9 5.3-13.5 7.8c-1.1 0.6-2.3 0.8-3.5 0.7c-1.9-0.2-3.7-1.3-4.7-3.2z" /></g><path class="s78" d="m1544.7 826.3c-0.9 0.9-2.3 1.2-3.5 0.6l-33.8-16.4c-14.9 9.2-31.4 16.2-49 20.3l-12.2 35.6c-0.4 1.2-1.6 2-2.9 2l-45.1 0.1c-1.3 0-2.5-0.8-2.9-2.1l-12.3-35.5c-17.6-4.1-34.1-11-49-20.3l-33.8 16.5c-1.2 0.6-2.6 0.4-3.6-0.5l-31.9-31.9c-0.9-0.9-1.1-2.4-0.6-3.5l16.5-33.8c-9.3-15-16.3-31.4-20.4-49l-35.5-12.2c-1.3-0.5-2.1-1.6-2.1-3l-0.1-45.1c0-1.3 0.9-2.4 2.1-2.9l35.5-12.3c4.1-17.5 11-34.1 20.3-49l-16.5-33.8c-0.6-1.1-0.4-2.6 0.6-3.5l31.8-31.9c1-0.9 2.4-1.2 3.6-0.6l33.8 16.4c14.9-9.2 31.4-16.2 49-20.3l12.2-35.6c0.4-1.2 1.6-2.1 2.9-2.1h45.1c1.3 0 2.5 0.8 2.9 2.1l12.3 35.5c17.6 4.1 34.1 11 49 20.2l33.8-16.4c1.2-0.6 2.6-0.4 3.5 0.5l31.9 31.9c1 0.9 1.2 2.3 0.6 3.5l-16.4 33.8c9.3 14.9 16.2 31.4 20.4 49l35.5 12.2c1.2 0.5 2.1 1.6 2.1 3v45c0 1.4-0.8 2.5-2 3l-35.6 12.2c-4.1 17.6-11 34.1-20.2 49.1l16.5 33.8c0.6 1.1 0.3 2.6-0.6 3.5z" /><path fill-rule="evenodd" class="s82" d="m1409.3 715.2c-12-3-22-10.4-28.4-21c-6.3-10.6-8.1-23-5.1-35c6.2-24.6 31.3-39.6 56-33.5c24.7 6.3 39.7 31.4 33.5 56c-3 12-10.5 22.1-21.1 28.4c-8.6 5.1-18.4 7.3-28.2 6.3q-3.4-0.3-6.7-1.2zm-21.7-53c-2.2 8.8-0.8 17.9 3.8 25.7c4.7 7.8 12.1 13.3 20.9 15.5c8.8 2.2 17.9 0.9 25.7-3.8c7.7-4.6 13.2-12 15.4-20.8c4.6-18.2-6.4-36.7-24.6-41.2q-2.4-0.6-4.9-0.9c-16.5-1.6-32.1 9-36.3 25.5z" /><path class="s83" d="m1305 669.9q0-6 0.6-11.8c2.6-26.3 14.1-50.6 33-69.5c21.7-21.7 50.5-33.7 81.2-33.7c30.7-0.1 59.6 11.9 81.3 33.5c21.7 21.7 33.7 50.6 33.7 81.3q0 5.8-0.6 11.6c-1.6 16.7-7 32.9-15.6 47.4c-1.7 2.9-5.5 3.8-8.4 2.1c-2.1-1.3-3.1-3.6-2.9-5.9q0.1-1.3 0.8-2.5c7.7-12.9 12.5-27.4 14-42.3q0.5-5.2 0.5-10.4c0-27.5-10.7-53.2-30.1-72.6c-19.5-19.4-45.3-30-72.7-30c-27.4 0-53.2 10.7-72.6 30.1c-16.8 16.9-27.1 38.7-29.5 62.1q-0.5 5.2-0.5 10.6c0 27.4 10.8 53.2 30.2 72.6q0.2 0.2 0.5 0.5q0 0 0.1 0.1c6.7 6.6 14.2 12.1 22.2 16.6c14.7 8.2 31.3 12.6 48.6 12.8q0.6 0 1.2 0c7.3 0 14.6-0.8 21.8-2.4c3.3-0.7 6.5 1.4 7.2 4.7q0.2 1 0.1 1.9c-0.2 2.6-2.1 4.8-4.8 5.4q-0.5 0.1-1 0.2c-7.6 1.6-15.4 2.4-23.3 2.4q-5.9 0-11.6-0.6c-57.9-5.8-103.3-54.8-103.4-114.2z" /></svg>