<svg xmlns="http://www.w3.org/2000/svg" viewBox="0 0 3176 2562"><style><![CDATA[.e{fill:#422c4f}.f{fill:#454f6b}.g{fill:#fff}.h{fill:#de7274}.i{fill:#eba58e}.j{fill:#e78882}.k{fill:#e36b85}.l{fill:#bd6c67}.m{fill:#df8d6d}.n{fill-rule:evenodd}.o{fill:#f0bf9c}.p{fill:#fbeed1}.q{fill:#a34262}.r{fill:#7dd3e9}.s{fill:#8c404c}.t{fill:#654059}]]></style><path d="M566.6 1876.7l477 .3-.4 626.4-477-.3z" fill="#a64f5a"/><path d="M.8 1876.4l565.8.3-.4 626.4-565.8-.4z" class="l"/><path d="M224.4 1876.5l94.2.1-.1 76.8h-94.1zm580.6.4h54.7l-.1 76.9-54.6-.1zm-580.9 558.8h94.1v67.2H224zm580.6.3h54.7l-.1 67.3-54.7-.1z" opacity=".5" class="g"/><path d="M599 1876.7l-.3 457.2c-.1 85.6 80.1 155.1 179.1 155.1l265.4.2v14.2l-477-.3.4-626.4z" opacity=".2" class="e"/><path d="M997.7 2009.4l477 .3-.3 493.9-477-.3z" class="l"/><path d="M431.9 2009l565.8.4-.3 493.9-565.9-.3z" class="m"/><path d="M655.5 2009.2h94.2l-.1 76.9-94.1-.1zm580.6.3h54.7l-.1 76.9h-54.6zm-580.9 426.4l94.2.1v67.2l-94.2-.1zm580.7.4h54.6v67.2h-54.7z" opacity=".5" class="g"/><path d="M1030.1 2009.4l-.2 324.8c-.1 85.6 80.1 155 179 155.1l265.5.1v14.2l-477-.3.3-493.9z" opacity=".2" class="e"/><path d="m914.9 2277.3-358.1 23-12.8-147.8 358.1-23z" class="p"/><path d="M704.3 2219.6q-1.2 2.8-2.3 5.5-1.5 3.2-3.4 5.1-4.2 4.7-8.4 9.3-5.1 5.6-9.3 7.9-1.4 1.5-3.1 3.1-1.6 1.5-3.4 1.7-.9 0-2.1-.3-1.3-.2-2.7-.6-1.5-.4-2.2-1.4-.9-4.8-1.4-10.3-.6-5.6-1.1-16.7-.5-11.1-1-16.7-.7-7.4-2.1-13.6-.1-.1-3.5-2.4-2.1-1.4-2.2-2.6-.1-.6.2-1.2.6-1.4 3.1-1.8 1.9-.3 3.8-.6 12.8 1.4 27.4 9.3 3.8 2.1 6.3 4.5 8 7.7 8.7 14.8.3 3.6-1.3 7zm-11.9-11.6q-2.1-7.1-17.3-11.8.8 19.2 3.4 40.5 15.6-13.8 14.5-25.5-.2-1.6-.6-3.2zm83.8 10.7q-8.1 16.4-25.5 20.4-2.1.4-4.3.6-9.3.5-19.6-6.4-6.9-4.7-7.7-12.7-1-8.9 5.2-19.5 2.7-4.5 6.8-7.8 4.7-4 9.3-4.2 2.7-.2 5.1 1.1 2.5 1.3 12.7 3.2 8.1 1.5 11.8 5.9 6.6 7.7 7.2 13.4.3 3.2-1 6zm-13.9-6.7q-2.1-8.7-7.5-10.1-.9-.2-1.5-.2-2 .1-4.7 2.7-3 2.9-4.8 3.5-1.1.4-3.3-.5-2.3-1-2.9-1-.5.1-.8.3-5.4 3.9-4.6 11.5.5 5.1 4.2 8.5 5.1 4.7 8.2 4.5 7.2-.4 13.3-7.3 5.7-6.6 4.4-11.9z" class="f n"/><path d="M834.1 2180.9q-.4 12.6-.7 25.3-.6 15.1.3 25.1.3 3.3.7 6.4.3 1.5-1 2.7-1.2 1.2-3 1.4-3.3.2-5.9-3.6-7.9-11.2-20.3-35.5-.3-.6-.6-.6-.8.1-.9 1.4-.7 13.5.6 28.3.6 7.1 1.7 14.4.3 2.7-1.5 3.9-.7.7-1.6.7-.8.1-2-.4-1.7-.6-2.1-.7-1.5-.3-1.9-2.2-.3-1.4-.5-3-.8-5.2-1.3-10.9-.8-9.9-.8-24.9.1-22.7.1-25.2-.1-2 3.8-2.3 1.8-.3 5.6 2 4 5.5 10.1 18 6 11.9 10.5 18 .5-12.6 1.8-37.9.2-1.9 3-2.1 1 0 2.3.1 1.8.3 2.1.4 1.1.3 1.5 1.2z" class="f"/><g class="q"><path d="m2010.8 726.8-248.3 29.3-22.8-144.6c59.9 94.7 192.6 110.4 248.2-29.3z"/><path d="m2207.9 912.4 1.9 1.8-580.8 68.6 1.1-2.2c49-92.2 69.6-193.7 59.7-294.8l-3.8-39.5 67.4 58.8 136.2 55.1 114.1-84.6 46.7-72.3 8.6 38.9c21.8 99.7 73.1 192.7 148.9 270.2z"/></g><path d="M2109.5 652.5c-1.7 13.6-13.5 24-29.2 25.9l-399.8 47.2c-15.7 1.9-30.2-5.4-36.2-18.1-5.9-12.7-1.3-26.7 11.5-34.8l193.7-122.8-5.5-35.1c-.5-3.2-3.9-5.4-7.6-5-25.4 3-48.9-11.9-53.4-33.5l-3.2-20.2c-3.6-22.5 14.7-43.4 40.8-46.5l9.3-1.1c12.9-1.5 25.2 1.6 34.9 7.8 9.9 6.4 17.1 16.1 18.9 27.5l1.2 7.9c.5 3.2-2.1 6.2-5.8 6.6-3.7.5-7.2-1.8-7.7-5l-1.2-7.9c-2.6-16.1-19.8-27.4-38.4-25.2l-9.4 1.1c-18.6 2.2-31.7 17.1-29.2 33.2l3.3 20.2c3.5 15.2 20.1 25.6 38.1 23.4 11.1-1.3 21.3 5.5 22.8 15.1l5.6 35.1 224.7 73.4c14.9 4.8 23.6 17.2 21.8 30.8zm-26.6-19.8l-225.1-73.5-194 123c-9.5 6-9.6 15-6.9 20.9 2.8 5.9 10.1 12.2 21.7 10.9l399.9-47.3c11.6-1.3 16.7-9.2 17.5-15.5s-2.1-14.9-13.1-18.5z" class="f n"/><path d="M2243 1224.4c7.7 71.8 21.7 143 42 213l16.3 56.4-580.8 68.6-1.7-58.1c-2.2-72.1-10.8-144-25.6-215L1629 982.8c142.9-110.3 127.8-191.8 57-336.5l53.7-34.8 27.3 58.1c17.3 36.8 61.1 58.7 106.6 53.3l9.9-1.1 10-1.2c45.4-5.4 80.9-36.7 86.1-76.1l8.3-62.3 62.5 21.1c-23.3 155.8-12.6 237.8 159.4 310.9z" fill="#cc6164"/><path d="m1554.4 888.9c94.5-11.8 201.5-11.4 288.2-7.7-4.7 19.7-11.7 39-22.4 56.8-16.3 27.4-41.6 51.5-73.8 64.6-47.3 19.3-107.4 12-146.7-17.8-31.1-23.6-47.7-60.2-45.3-95.9z" fill="#eca85e"/><path d="M1523 893.8c5.4-1.1 10.8-2.1 16.4-2.9q7.4-1 15-2c-2.4 35.7 14.2 72.3 45.3 95.9 39.3 29.8 99.4 37.1 146.7 17.8 32.2-13.1 57.5-37.2 73.8-64.6 10.7-17.8 17.7-37.1 22.4-56.8q14.7.6 28.5 1.4c-5.6 21.9-13.8 43.3-25.7 63.2-19.8 33.2-50.4 62.4-89.5 78.3-57.2 23.4-130 14.5-177.6-21.5-35.5-27-55.5-68-55.3-108.8z" class="g"/><path d="M2019.1 1307.5q0 54.6 15.8 105l-705 .1q5.5-71.7 7.5-105.7c-55-14.8-104.7-43.9-141-82.6 72.5-99.6 157.5-202.2 208.6-262.3 29-34.1 70.8-58.1 118-68.2-.2 40.8 19.8 81.8 55.3 108.8 47.6 36 120.4 44.9 177.6 21.5 39.1-15.9 69.7-45.1 89.5-78.3 11.9-19.9 20.1-41.3 25.7-63.2l51.9 3.2c62.9 4.5 120 33.3 155.4 78.5q89 113.7 146.9 264c-87.8 51.5-140 63.6-206.2 79.2z" fill="#f4d071"/><path d="M1415.3 993.5c-27.1 45.5-73.8 203-77.9 313.4-9-2.4-17.8-5.3-26.5-8.4 16.2-11.4 28.2-30.7 8-61.5-39.1-59.7 19.6-157.7 96.4-243.5zm541.2 324.3q33.1-1.2 62.6-10.3 0 54.6 15.8 105h-57c-6-23-12-53-10.9-77.7q-18.1 3.8-40.3-.1c-55.1-245.9-40.7-417.7 67.6-415-105.3 50.7-61.8 208.2-37.8 398.1z" fill="#eca85e"/><path d="m2706.9 1053.9c-33 25-83.5 31-123.2 14.8-27.1-11.1-48.3-31.4-62-54.4-8.9-15-14.8-31.2-18.7-47.8 72.9-3 162.7-3.2 242.1 6.8 2 30-12 60.8-38.2 80.6z" class="q"/><path d="M2724.9 1068.8c-40 30.2-101.2 37.6-149.2 17.9-32.8-13.4-58.5-37.9-75.1-65.9-10-16.7-16.9-34.7-21.6-53.2q11.6-.6 24-1.1c3.9 16.6 9.8 32.8 18.7 47.8 13.7 23 34.9 43.3 62 54.4 39.7 16.2 90.2 10.2 123.2-14.8 26.2-19.8 40.2-50.6 38.2-80.6q6.4.8 12.7 1.7c4.6.7 9.2 1.5 13.7 2.5.1 34.2-16.7 68.7-46.6 91.3z" fill="#e8916a"/><path d="M2181.1 1257.8q48.7-126.3 123.6-221.7c29.8-37.9 77.9-62.1 130.7-65.8l43.6-2.7c4.7 18.5 11.6 36.5 21.6 53.2 16.6 28 42.3 52.5 75.1 65.9 48 19.7 109.2 12.3 149.2-17.9 29.9-22.6 46.7-57.1 46.6-91.3 39.6 8.5 74.8 28.7 99.1 57.4 42.8 50.5 114.2 136.8 175 220.6-30.5 32.5-72.4 56.9-118.6 69.2q1.7 28.6 6.2 88.8l-592.4-.8q13.4-42.3 13.4-88.2c-55.6-13.1-99.4-23.4-173.1-66.7z" fill="#cc6164"/><path d="M2942.7 1266c-17 25.9-7 42.1 6.6 51.7-7.3 2.6-14.7 5-22.3 7-3.3-92.8-42.4-225.1-65.1-263.3 64.4 72.1 113.6 154.5 80.8 204.6zm-567.2-267.3c90.9-2.1 102.9 142.2 56.3 348.8q-18.6 3.3-33.8 0c.9 20.8-4.2 46-9.3 65.3l-47.9-.1q13.4-42.3 13.4-88.2 24.8 7.7 52.6 8.8c20.4-159.6 57.1-291.9-31.3-334.6z" class="q"/><path d="M2577.7 1413.3l433.9.3-.6 1092.2-433.9-.3z" class="l"/><path d="M1119.7 1412.8l1459.5.7-.4 1092.2-1459.6-.7z" class="m"/><path d="M1117.6 2398.6l865.5.5c156.2.1 282.8-109.3 282.9-244.4l.2-287.6c0-86.2-80.7-156.2-180.4-156.2l-967.8-.6.2-297.9 1459.5.9 433.9.3-.2 287.4-136.3-.1c-99.7 0-180.5 69.8-180.6 156.1l-.1 288.8c-.1 135.1 126.4 244.7 282.5 244.8h34.1v115.2l-433.9-.3-1459.5-.9z" opacity=".3" class="e"/><path d="M2409.2 1655.5l-1459.5-.9 168.5-242.2 1459.5.9z" fill="#ef9c81"/><path d="M3175.9 1656l-433.9-.3-164.3-242.4 433.9.3z" class="m"/><path d="M1659.2 1370.7c38.5.1 74.8 15.6 98.2 42.1h-52.6c-91.8 78.5-142.2 189.4-136.7 300.9 5.2 106.1 53 213.5 30.6 317.9-55.9-21.3-119.4-17.3-180.4-17.7-61-.3-130.4-4.7-174.4-41.3 39.6-60.1 49.3-131.6 48.7-200.8-.6-69.1-10.5-138.3-6.7-207.3 2.4-45.1 11.4-91 31.3-132.3 18.2-37.7 61.6-61.6 108.8-61.6z" class="g"/><path d="M1383 1877.2c-22.9 0-52.8-4-75.2-21.2-1.2-.9-1.3-2.6-.2-3.6 1.1-1.1 3-1.2 4.2-.2 22.7 17.4 54 20.4 76.3 19.8 18.2-.5 36.6-3.3 54.3-5.9l28.3-3.9c35.2-4.2 61.9-2.2 84.1 6.2 1.5.6 2.2 2.1 1.5 3.4-.6 1.4-2.4 2-3.9 1.4-21.1-8-46.8-9.9-80.9-5.9-9.3 1.1-18.8 2.5-28 3.9-18 2.7-36.6 5.5-55.3 6q-2.5 0-5.2 0zm6.9-141c-1.3-34.3-7.9-70.3-14.2-106.9-6.1-36.5-10-74.7-1.3-109.8 4.4-17.4 11.4-33.7 21.2-47.7 4.9-7 10.4-13.4 16.3-19.1 6-5.7 12.4-10.5 19-14.7-23.7 19.6-39.6 49.9-45.2 83.3-5.8 33.5-.9 69.9 5.2 106.1 6.2 36.3 11.8 73.6 10.5 108.8-1.1 35.1-9.2 68.1-23.6 93.5 9.6-27 13.5-59.3 12.1-93.5zm73.7-99.9c-5.6-27.3-13.6-55.2-13.3-82.4.1-13.6 2.4-26.7 6.8-38.5 4.5-11.9 11.3-22.3 19.6-30.4-13.6 18.2-19.4 43-17.6 68.7 1.5 25.9 10.2 52.9 16 80.8s8.9 56.3 9.3 82.9c.5 26.6-1.7 51.5-5.3 72.8-.3-43-3.8-99-15.5-153.9z" fill="#f6dcc5"/><path d="M2713.5 1385.2l62.6.1c13 0 25.4 4.4 34.8 12.1 34.2 28.5 58.1 66.1 67.1 106.4 4.2 18.7 5.3 38 10.3 56.6s14.6 37.1 32.2 48.7c21 14 49.6 15.6 76 13.3s52.6-7.9 79-6.2c34.7 2.3 71.9 20.6 68.3 56.7-1.1 11.4-6.4 22.2-14.4 31.3-23.6 26.9-62.7 36.7-97.1 48.9-28.5 10-57.6 18.8-87.1 26.4-27 7-55 12.9-83.2 11.7-25.9-1.1-52.2-8.8-70.3-24.8-19.4-17.1-27.4-41.7-29.1-65.6s2.1-47.8 3-71.7c2.7-79.6-19.3-175.7-98.9-215.7 7.3-17 25.9-28.2 46.8-28.2z" class="f"/><path d="M2747.5 1507.8c-3.4-8.8-7.2-17.3-11.6-25.5 9.9-15.9 25.3-29.4 43.9-37.6 20.7-9.2 44.9-11.8 67.7-8 7.6 10.7 14.1 22.1 19.4 33.8-25.9-7.2-55.1-5.4-79.3 5.3-16.4 7.3-30.2 18.5-40.1 32zm15.9 67.3c-1.3-11.5-3.3-22.9-5.9-34.2 10-14.6 24.6-26.9 42.1-34.7 23.7-10.4 52.1-12.4 77.6-5.8.2 1.2.5 2.3.8 3.4 2 9 3.3 18.2 4.7 27.3-24.9-5.9-52.3-3.9-75.3 6.3-18.7 8.3-34 21.7-44 37.7z" class="g"/><path d="m1979.9 2376.3-633.8-42.4 23.3-261.7 633.8 42.4z" class="p"/><path d="M1580.4 2223.5q-3.5 4.4-6.6 8.7-4.2 5.2-8.7 8.1-10.1 7.2-20.1 14.2-12 8.4-21.2 11.5-3.3 2.2-7.1 4.6-3.8 2.4-7.4 2.2-1.8-.1-4.1-.8-2.3-.7-5-1.7-2.7-.9-3.7-2.7.1-8.3 1.2-17.7 1.1-9.7 4.5-28.7 3.4-18.9 4.5-28.6 1.5-12.7 1.2-23.4-.2-.2-6-4.9-3.5-2.7-3.2-4.9.1-1 .8-1.9 1.7-2.3 6.8-2.4 3.9-.2 7.7-.2 24.5 4.8 49.9 21.1 6.7 4.3 10.6 8.9 12.6 14.6 11.2 26.8-.8 6.3-5.3 11.8zm-18.8-22.1q-1.3-12.5-29.1-23.4-5.9 32.6-9.3 69.4 36-20.5 38.3-40.5.3-2.7.1-5.5zm164 40q-21.8 26.3-56.3 29.7-4.1.4-8.2.2-17.9-.9-34.6-14.5-11.3-9.2-9.7-22.9 1.8-15.2 17.7-31.9 6.8-7 15.9-11.9 10.5-5.9 19.3-5.4 5 .2 9.2 2.9 4.1 2.7 22.7 7.8 14.7 4 20.1 12.1 9.4 14.2 8.2 24-.6 5.6-4.3 9.9zm-23.6-13.9q-.5-15.1-10.2-18.4-1.5-.5-2.8-.6-3.7-.2-9.9 3.6-6.8 4.4-10.4 5-2.2.5-6.1-1.5-3.9-2-5.1-2.1-1-.1-1.6.3-11.8 5.6-13.3 18.5-1 8.8 4.5 15.2 7.8 8.9 13.8 9.2 13.8.7 28-9.9 13.5-10.1 13.1-19.3z" class="f n"/><path d="M1862.6 2182.9q-5.2 22.2-10.2 44.5-6.2 26.4-8 44.2-.5 5.8-.7 11.5 0 2.7-2.9 4.5-2.8 1.9-6.2 1.7-6.6-.4-10.4-7.7-11.6-21.6-27.4-67.3-.3-1-1-1.1-1.4-.1-2.1 2.2-6 23.6-8.5 49.9-1.3 12.7-1.7 25.9-.3 4.8-4.3 6.4-1.6 1.1-3.3 1-1.5-.1-3.7-1.2-3.1-1.4-3.9-1.8-2.7-.8-3-4.2 0-2.6.1-5.5.3-9.3 1.3-19.5 1.7-17.6 6.8-44 8-40 8.9-44.3.6-3.7 8.2-3.2 3.7-.1 10.2 4.8 5.9 10.6 13.6 34 7.4 22.4 14.2 34.2 5.4-22 16.6-66.4.9-3.3 6.5-2.9 1.9.1 4.4.8 3.3.8 3.9 1 2.1.8 2.6 2.5z" class="f"/><path d="M2553.5 1428c45.1 177.3-120.6 421.1-90.9 1001.5l-207.5-.2q-35.8-556.9 26.6-809.3c-67.2 98.9-173.8 450.1-174 809.3l-204.5-.2q-35.8-627.1 186.4-1001.4z" fill="#984058"/><path d="M2165.4 1566.6l116.3 53.4c-35.8 52.7-82.8 176.9-118.9 335.8-.2-25.1.1-55.4 1.8-87.9 4.5-85.9 34.2-169.5 86.4-242.7-29.7 0-57-13.9-71.4-36.4z" class="e"/><path d="M2435.6 2410.4c-1.6 0-2.9-1.1-3-2.4-27-290.9 22.8-539 59.1-720.1 20.5-102.3 36.7-183.2 34-242.1-.1-1.4 1.2-2.6 2.9-2.7 1.7.1 3 1.1 3.1 2.5 2.7 59.5-13.5 140.5-34.1 243.2-36.3 180.8-85.9 428.6-59 718.8.1 1.4-1.1 2.6-2.8 2.8q-.1 0-.2 0zm70-832.4c-.8 0-1.5-.3-2.1-.8-17.8-15.2-30.5-37.1-36.7-63.4-5.5-23.3-5.6-47.4-5.7-70.7 0-1.4 1.4-2.6 3-2.6q0 0 .1 0c1.6 0 3 1.2 3 2.6.1 23 .1 46.8 5.5 69.7 5.9 25.2 18 46.2 35 60.7 1.2 1 1.2 2.7.1 3.7-.6.5-1.4.8-2.2.8zm-237.4 26l-3.6-1.9c-10.2-5.3-17.1-15.9-18.6-28.3-1.3-11 1.3-21.6 3.8-32l19.7-81c.4-1.4 2-2.3 3.6-2s2.7 1.6 2.3 3.1l-19.7 81c-2.4 9.9-4.9 20.2-3.7 30.3 1.1 9.3 5.6 17.4 12.2 22.3l35.6-134.7c.4-1.4 2-2.3 3.6-2 1.7.3 2.7 1.7 2.3 3.1zm-193.7 806.1c-1.7 0-3-1.1-3-2.6.2-307.8 47.1-567.3 139.1-771.1.6-1.3 2.4-2 3.9-1.5 1.6.5 2.3 2.1 1.7 3.4-91.8 203.2-138.5 462-138.7 769.2 0 1.5-1.4 2.6-3 2.6z" fill="#b55975"/><path d="M2564.5 1316.4c16.7 26.8 17.7 59 2.7 86.6l-13.7 25-463.9-.3-9.8-13.4c-18.4-25.3-21.4-56.7-8.1-84.2 6.3-13.1 9-27.2 8-41.3l-28.9-389.7 155.4.1q55.8 64.2 116.2 0l150.8.1 44.4 35.2 34 344.5c1.3 13.1 5.7 25.8 12.9 37.4z" class="r"/><path d="M2333.2 1427.9l-243.6-.2-9.8-13.4c-18.4-25.3-21.4-56.7-8.1-84.2 6.3-13.1 9-27.2 8-41.3l-.7-9.8 185.1-49.3 112.2-230.2 152.6 49.5-58.9 256.6c-10.9 47.2-47.3 87-97.9 106.9z" fill="#5fa5cc"/><path d="m2333.2 1427.9-89.6 35.3-30.1 43.6-179.3 31c16.4-38.4 34.8-75.3 55.4-110.1z" class="e"/><path d="m2434.9 2540-291.9-0.1c8.9-15.3 24.4-27.2 43.6-33l28.3-8.3c14.9-4.5 27.8-12.7 37.1-23.7l38.4-45.5h109.8q30.4 40.6 34.7 110.6z" class="f"/><path d="M2435.4 2561.5h-76.7l.1-21.5h76.1c.4 7 .7 14 .5 21.5zm-75.6-22.5l-69.8 21.4-153.6-.1c1.1-7.6 3.8-14.8 7.6-21.4z" class="e"/><path d="M2070.8 2539.8l-291.9-.2c8.9-15.2 24.3-27.2 43.6-32.9l28.3-8.4c14.8-4.4 27.8-12.6 37-23.6l38.5-45.6 109.8.1q30.4 40.6 34.7 110.6z" class="f"/><g class="e"><path d="M2071.3 2560.3l-76.7-.1v-21.4h76.2c.4 6.9.7 14 .5 21.5z"/><path d="m1995.6 2538.8-69.8 21.4-153.5-0.1c1.1-7.6 3.8-14.8 7.6-21.5z"/></g><path d="m2065 1035.3-118.7-0.1 42.9-97c10.4-23.6 36.6-39.1 65.7-39.1z" class="r"/><path d="m2019.3 1035.2 34.9-89.3 6.7 89.4z" fill="#5fa5cc"/><path d="m2206.2 899.2v-43.4l92-64.7 24.2 108.1q-60.4 64.2-116.2 0z" class="o"/><path d="m2298.2 791.1c-4.6 50-46.2 96.4-92 89.4v-24.7z" class="j"/><path d="M2206.4 597.9c68 .1 121.5 50.5 115.7 109.2l-4.5 45.6c-2.9 28.8-16.3 56.1-38.3 77.9l-9.3 9.2c-15.2 15.1-36.7 24.4-59.8 26-27.1 1.7-53.6-7.4-71.9-24.7-22.2-21.1-36.2-47.7-40-76l-7.4-55c-8.1-59.7 45.9-112.2 115.5-112.2z" class="o"/><path d="M2306 780.8c-5.8-14.1-8.8-28.9-8.8-43.8v-15.6c-25.3-15.9-40.7-41-41.9-68l-.2-4.9c-38.8 34.4-99.3 55-154.8 51.8-27.8-1.6-58.8-10.6-64.2-38.2-1.5-7.5-.5-15.3 2.2-22.6 7.3-19.6 24.6-33.7 42.1-46.6 27.2-20 57.1-38.6 91.7-45.8 34.7-7.1 75.2-.5 97.8 23.4 20.4-13.8 53.8-10.6 74.8 2.5 20.9 13.1 32.7 35.2 36.2 57.3 3.5 22.2-.4 44.8-5.4 66.7-4.2 18-9.2 36.2-19.3 52.3s-28.9 31.5-50.2 31.5z" class="s"/><path d="M2327.3 736.9c7.9-6.6 20.6-9.8 29.9-5 7.8 4.1 11.2 12.4 11.7 20.2 1.2 17.5-9.6 35.1-27 44.1-8.4 4.3-19.7 6.4-27.7 1.5-6-3.7-8.5-10.5-8.2-16.9.5-7.7 4.1-16 7.2-23.2 3.1-7.5 7.4-15.1 14.1-20.7z" class="o"/><path d="M2343.9 751.6c-4.2.4-8.9 4.8-8.9 8.5 5.7-.4 10.5 4.7 10.6 9.6.1 5-3.2 9.6-7.3 13.1-2.8 2.6-7.1 4.9-10.8 3.3-3.5-1.6-3.9-5.7-3.6-9 .6-7.1 2.6-14 5.9-20.5 1.2-2.4 2.7-4.9 4.9-6.8s5.2-3.2 8.3-3.1c3.3.2 6.2 1.9 8.2 4.2 2 2.2 3.3 4.9 4.5 7.5-1.1-3.6-7.6-7.3-11.8-6.8z" class="j"/><path d="M2252.6 724.7h-65.2c1.6-6.6 9-11.9 16.3-14s15.4-1.5 22.8.4c9.2 2.3 19.2 7.9 26.1 13.6z" class="s"/><path d="m2211 762c-4.2 0-7.5-2.9-7.5-6.5v-7.1c0-3.6 3.3-6.5 7.5-6.5s7.5 2.9 7.5 6.5v7.1c0 3.6-3.4 6.5-7.5 6.5z" class="e"/><path d="M2115 711c4.6-1.9 9.6-2.5 14.1-.3 4.5 2.1 9.1 7.4 10.1 14l-40.3-.1c4.2-5.7 10.4-11.3 16.1-13.6z" class="s"/><path d="m2117.6 757.5v-11.2c0-2.5 2.4-4.5 5.2-4.5 2.9 0 5.2 2 5.2 4.5v11.2c0 2.4-2.3 4.5-5.2 4.5-2.8 0-5.2-2.1-5.2-4.5z" class="e"/><path d="M2161.1 792.9c-4.7 1.6-9.9 2.6-15.1 2.3-7.4-.4-13.7-4.1-16.8-8.5l47.6.1c-4.2 2.1-11 4.5-15.7 6.1z" class="j"/><path d="M2141.5 819.1q42-.6 84-1.2c-9.6 11.3-25.6 19.5-41.9 19.8-16.3.2-32-7.6-42.1-18.6z" class="g"/><path d="M1393.7 1034.9l381 .2-.3 452.8-381-.2z" class="m"/><path d="M1774.7 1035.1l428.6.2-.3 452.8-428.6-.2z" class="l"/><path d="M1923 1h-1V0h1z" class="g"/><path d="m1731 1256-293.6 35.6-19.7-121.2 293.6-35.7z" class="p"/><path d="M1537.9 1226.9q-1 2.3-1.7 4.5-1.1 2.6-2.7 4.2-3.5 4-7 7.8-4.1 4.7-7.8 6.7-1.1 1.2-2.5 2.6-1.4 1.3-3 1.5-.8.1-1.9-.1-1.2-.2-2.5-.4-1.4-.3-2.1-1-1.2-3.8-2.1-8.2-1-4.5-2.3-13.4-1.3-8.8-2.2-13.3-1.3-5.9-3-10.8-.1-.1-3.4-1.8-2-1-2.2-2-.1-.5.1-1 .4-1.1 2.7-1.5 1.7-.4 3.5-.6 11.7.5 25.6 6.3 3.6 1.5 6 3.3 7.9 5.9 9.1 11.5.6 2.9-.6 5.7zm-11.8-8.8q-2.4-5.6-16.6-8.7 2.2 15.3 6.2 32.3 13.1-11.8 11.2-21.1-.3-1.2-.8-2.5zm70.3 2.4q-4.9 12.3-17.4 15.7-1.5.5-3 .6-6.9.7-14.8-4-5.4-3.1-6.5-8.9-1.3-6.5 2.5-14.4 1.7-3.3 4.5-5.9 3.2-3.1 6.5-3.4 2-.2 3.8.6 1.9.9 9.5 1.9 6.1.8 9.1 3.9 5.3 5.4 6.1 9.5.5 2.4-.3 4.4zm-10.7-4.4q-2-6.3-6.1-7.1-.6-.1-1.1-.1-1.4.2-3.3 2.1-2 2.3-3.2 2.8-.8.3-2.5-.3-1.7-.6-2.2-.6-.4.1-.6.2-3.6 3.1-2.6 8.6.7 3.7 3.6 6 4.1 3.3 6.4 3 5.2-.5 9.2-5.8 3.8-5 2.4-8.8z" class="f n"/><path d="M1650.2 1182.6q.5 10.4 1 20.9.5 12.4 1.8 20.6.4 2.7 1 5.3.3 1.2-.6 2.2-1 1.1-2.4 1.3-2.7.3-5.1-2.7-7.3-8.9-19-28.3-.2-.4-.5-.4-.6.1-.6 1.2.2 11.1 2.2 23.2 1 5.8 2.3 11.8.4 2.2-1 3.3-.5.6-1.3.7-.6.1-1.6-.3-1.4-.4-1.8-.5-1.2-.1-1.7-1.6-.3-1.3-.6-2.5-1-4.3-1.7-9-1.4-8.1-2.3-20.4-1.3-18.7-1.5-20.8-.1-1.7 3-2 1.5-.4 4.8 1.3 3.6 4.4 9.4 14.3 5.7 9.6 9.8 14.4-.3-10.3-.9-31.3.1-1.6 2.4-1.8.8-.1 1.9 0 1.4.1 1.7.1.9.2 1.3 1z" class="f"/><path d="M1855.3 1035.1l-.1 271.8c-.1 47.1 44.1 85.3 98.5 85.4l249.4.1-.1 95.7-428.6-.2.3-452.8z" opacity=".3" class="e"/><path d="m2472.2 898.2c54.2 0 92.9 45.4 76.9 90.2l-106.5 298.8c-14.4 40.2-46.9 73.7-90.2 92.9l-173 76.7c-17.5 7.7-37.5 9.9-56.6 6.2l-51.6-9.9-14.1 15.6-48-94.6h24.9c6.1-29.1 32.1-52 65.6-58 39.9-7.2 78-20.6 112.3-39.7l69.9-38.8 114.1-292.1c11-28.3 41.8-47.4 76.3-47.3z" class="r"/><path d="m2050.4 1454.6-43.6 15.2-60.7 50.4c-14.3 11.9-35.4 15.1-53.5 8.3l-47.5-18-15.9 6.8c-8.3 3.6-18.3 1.6-23.9-4.7-7.2-8-4.6-19.7 5.6-24.7l70.2-35.1c9.9-5 16.4-13.9 17.3-23.9 1-11-5.1-21.7-15.9-27.7l-27.4-15.3c-7-3.9-9.7-11.7-6.4-18.4 3.8-7.6 14.1-10.9 22.8-7.5l51.1 20.4 54.9 24.1 41.2-12.2z" class="o"/><path d="m2018.7 1392.3 31.7 62.3-24.2 8.5-14.4-68.7z" class="j"/><path d="M679.9 1439.1l72.5 438.3c3.7 22.6 5.5 45.5 5.2 68.3l-5.9 451.7-139.8-.1-29.2-178c-16.4-99.9-10.5-201.6 17.4-299.6L478 1665.9l-47.8 270.7q-49.8 279.7-49.9 460.5l-135.5-.1-14.2-195.1c-6.5-87.9 4.2-176.1 31.4-261l7.3-22.7c-34.5-197.8-78-386.5-19.3-493.1z" class="f"/><path d="M479 1666.9l18.7-105.3q55.5 0 97.6-39c-6 44.2-48.1 76.3-86.2 80.6l.4 1c18.3 41.6 29.6 85.4 33.5 129.8l7.1 80.7z" class="e"/><path d="M316.7 1918.9l.1.5-7.5 23.3c-27.2 84.7-37.7 172.3-31.3 260.1l11.2 153.5c.1 1.4-1.1 2.7-2.8 2.7q-.1.1-.2.1c-1.5 0-2.9-1.1-3-2.5L272 2203.1c-6.4-88.4 4.2-176.5 31.6-261.8l7.1-22.2-11.4-63.5c-24.9-138.4-48.4-269.1-30.2-364.6.2-1.5 1.8-2.5 3.4-2.2 1.7.2 2.8 1.6 2.5 3-18 94.8 5.4 225 30.3 363l11.4 64.1zm335.8 437.4c.2 1.4-.9 2.7-2.6 2.9q-.2.1-.4.1c-1.5 0-2.8-1-3-2.3l-22.3-136.3c-16.5-100.4-10.7-201.3 17.2-299.7l-76.2-158.6c-.7-1.3.1-2.8 1.6-3.4 1.5-.5 3.3.1 3.9 1.4l77 160.2-.2.8c-27.9 98.1-33.7 198.5-17.4 298.5zm-295-857.5c-8.7 35.1-41.6 64.3-81.9 72.9q-.4 0-.8 0c-1.3 0-2.5-.8-2.9-1.9-.4-1.4.6-2.9 2.2-3.2 38.1-8 69.3-35.8 77.5-68.9.3-1.4 1.9-2.3 3.6-2 1.6.3 2.6 1.6 2.3 3.1zm165.7 53.5c-.7 0-1.4-.2-1.9-.6-1-.7-1.4-1.9-1-2.9 7-16.7 9.4-34.9 6.9-52.6-.2-1.4 1-2.7 2.6-2.9 1.7-.2 3.2.8 3.4 2.3 2.2 15.8.7 32.1-4.4 47.5 16-11.4 25.3-29.6 23.8-47.5-.1-1.4 1.1-2.7 2.8-2.8s3.1 1 3.2 2.4c1.9 22.4-11.7 45.1-33.9 56.7q-.7.4-1.5.4z" fill="#797c99"/><path d="m235 1465c4.2-13.9 9.4-27 16-38.9l429.9 14 3.6 21.4c-145.2 38.9-303.5 40.1-449.5 3.5z" class="e"/><path d="m759.7 2507-135.3-0.1 15.5-51.4-2.2-57.2h87.4l4 56 52.4 26.1c-9.3 7.5-16.9 16.7-21.8 26.6z" class="i"/><path d="M608.4 2559.6l16-52.7 135.3.1c4.9-9.9 12.5-19.1 21.8-26.6l7.7 3.9c10.3 5.1 21.5 8.6 33.3 10.4h.1c39.4 6 71.2 31.5 80.9 65.1z" class="k"/><path d="M637.7 2398.3h87.4l1.5 19.9-88.2-.1z" class="h"/><path d="m394.8 2506.8-135.4-0.1 15.6-51.4-2.3-57.2h87.5l4 56 52.4 26.1c-9.4 7.5-17 16.7-21.8 26.6z" class="i"/><path d="M242.5 2559.4l15.9-52.7 135.4.1c4.8-9.9 12.4-19.1 21.8-26.6l7.6 3.8c10.3 5.2 21.6 8.7 33.3 10.5h.1c39.5 5.9 71.2 31.4 81 65.1z" class="k"/><path d="M272.7 2398.1h87.5l1.4 19.9-88.1-.1z" class="h"/><path d="M632.5 915.4c5.7 32.5 11.4 66.5-.9 97.6-12.9 32.5-44.5 57.7-80.6 72-36.1 14.2-76.5 18.6-116.2 18.9-34.5.3-69.6-2.3-101.8-13-32.2-10.8-61.6-30.2-76.8-57-24.5-43-8.8-95.1 17.1-137.4 26-42.2 63-85.2 81.6-130.2-29.9-36.6-36.3-86.5-16.5-127.8 19.8-41.4 65.3-72.6 116.3-80.1 51-7.4 105.8 9.3 140.2 42.7 32.6-1.5 65.3 19.2 81.9 43.5 16.6 24.2 18.4 55 7.5 81.6-10.8 26.6-33.6 48.9-61.1 64 6.9 38.3 2.5 87 9.3 125.2z" class="t"/><path d="M738.3 1066.4l54.2 144.7 276.3-61.7q37.1-58.5 111.3-75.2c5.6 12.6.5 26.9-12.3 34.5-8.4 5.1-17.3 11.1-22.8 16.9 46.1 11.8 92.4 8.6 115.9 5.6 8.4-1 15.9 4.6 15.9 12 0 4.3-2.7 8.3-7.1 10.5l-10.2 5c-.7 17-4.8 33.2-8.7 45.2-4 12.5-16.7 21.6-31.7 22.1q-71.6 2.8-130.3-17.3l-280.9 98.6c-43 15.1-92.1-2.8-109.7-40.1l-38.5-81.9-25.7-96.6 74.7-14.8z" class="j"/><path d="M1133.6 1172.6c-10.5 8.9-29.4 10.9-43.3 6.7 13.7-1.1 26.9-6.3 36.7-14.6s16.2-19.6 17.8-31.4c4.6 12.1-.7 30.4-11.2 39.3zm-403.5-104.1l16.8 45c8.2 21.9 1.1 45.8-18.1 61.6-20.6 17-33.9 39.4-37.8 63.7l-1.6 9.7-29.7-63.2-25.7-96.6zm62.4 142.6l-58.6 37.4q11-53.7 56.1-44.1z" class="h"/><path d="m645.8 915.3c30 9.6 53.5 30.3 63.9 56.4l36.8 92.3-38.8 9.9-33.8-64.8z" class="k"/><path d="m684.2 989.5c3.1 10.1 7.7 19.9 13.6 29.1l32.3 49.9-21.4 5.4-33.8-64.8-15.1-50.4c12 7.5 20.7 18.4 24.4 30.8z" fill="#ce5172"/><path d="m363.1 929.7q48.1-17.9 91.8-29.1h114.3q40.6 0 77.6 14.7l28.1 93.8 49.1 94.3c13.8 26.4 3.5 57.6-24.5 73.7-15.8 9-26.5 23.4-29.6 39.5-11.3 58.4-7.5 118.3 11.1 175.3l19.7 60.5q-285.8 44.1-472.3-9.4l48.7-90.8c29.7-55.6 44.5-116.3 42.9-177.6-1.4-58.4-4-127.8-8.2-157q-7.9-54.7 51.3-87.9z" class="k"/><path d="m344.4 1170.2-32.6-152.6 155-47.9 81.2 134.8-9.6 11.7 71.1 163.5 54.2-5.1c-1 39.5 4.8 79 17.3 117.3l-63 33.6c-59.7 31.9-138.2 9-163.3-47.6l-92.2-207.7z" fill="#ce5172"/><path d="M311.8 1017.6c-12.8-36.4 9.8-75.1 51.3-87.9 41.3-12.7 86.9 4.9 103.7 40l58.4 122.2L358 1149z" class="k"/><path d="M511.9 1096.4l90.2 198.5 288.2-54q28.6-51.2 85.2-66.8c8.8 10 8.3 24.1-1.4 33.5q-12.4 11.9-18.7 25.1c42.9 9.6 92 9.5 116.2 8.6 8.5-.3 15.7 5.3 16.3 12.6.5 6.4-4.2 12.5-11.5 14q-31.3 6.7-75.9 3.4c20.6 6.5 48.6 8.5 67.4 9.1 11.7.3 20.9 8.5 20.8 18.6v15.2c0 9.1-7.6 16.8-17.9 18.4q-90.8 14.2-175-33.2l-276.3 105.5c-45.9 17.5-99.5-.7-119.3-40.5l-112.6-225.5z" class="i"/><path d="M516 1105.4l-112.8 64.8-15.6-31.3 124.3-42.5zm86.1 189.5l-67.8 43.8q11.1-57.3 64.6-50.9z" class="h"/><path d="m569.2 863.3v37.3c-18.1 29.1-76.8 49-114.3 0v-91.1z" class="i"/><path d="m454.9 809.5 114.3 53.8v25.2c-40.6 11.7-71.2-10.9-114.3-66.2z" class="h"/><path d="M653 769.9c.9 21.3-4.1 42.6-14.5 62-13.6 25.2-42.2 42-74.4 43.5-18.5.8-36.9-3.5-52.5-12.3l-39.4-22.4c-18.1-10.4-30.7-26.4-35.2-44.6 3.4-3.9 6.4-8 8.8-12.4 7.1-13.1 9.3-28.2 6.1-42.5 65.3-10.4 124.6-54 149.7-107.3 20.4 15 35.9 34.1 47.4 55q.8 4.9 1 9.9z" class="i"/><path d="M517.4 715.4c7.4-1.9 15.5-2.5 22.9-.4 7.3 2.2 14.7 7.5 16.3 14.1l-65.3-.1c6.9-5.8 16.9-11.3 26.1-13.6z" class="t"/><path d="m525.4 759.9v-7.2c0-3.6 3.4-6.5 7.5-6.5 4.2 0 7.5 2.9 7.5 6.5v7.2c0 3.6-3.3 6.5-7.5 6.5-4.1 0-7.5-2.9-7.5-6.5z" class="e"/><path d="M645.1 729.1h-40.3c1-6.6 5.6-11.9 10.1-14 4.6-2.1 9.6-1.5 14.1.3 5.7 2.4 11.9 7.9 16.1 13.7z" class="t"/><path d="M621.1 766.4c-2.8 0-5.2-2-5.2-4.5v-11.1c0-2.5 2.4-4.5 5.3-4.5 2.8 0 5.2 2 5.2 4.5l-.1 11.1c0 2.5-2.3 4.5-5.2 4.5z" class="e"/><path d="M567.1 791.2h47.7c-3.2 4.4-9.4 8.1-16.8 8.5-5.3.2-10.5-.8-15.2-2.3-4.7-1.6-11.5-4.1-15.7-6.2z" class="h"/><path d="M560.2 842.1c-16.3-.2-32.3-8.4-41.9-19.8q42.1.6 84.1 1.3c-10.1 11-25.9 18.8-42.2 18.5z" class="g"/><path d="M443.2 803.7c-.7 5.7-3.7 11.4-9.2 14.6-5.7 3.2-13.2 3.1-19.8 1.7-19.3-4.1-34.6-19.8-35.9-37-.5-6.4.9-13.2 5.6-18.2 7.8-8.2 22.9-8.9 33.6-3.8 16.3 7.7 27.8 26.9 25.7 42.7z" class="i"/><path d="M391.9 773.9c2.7-2.2 6.7-3.2 10.4-3 3.8.1 7.4 1.4 10.7 3.1 10.2 5.3 16.9 15.4 17.1 25.7.1 4.2-1.4 8.9-5.7 10.8-2.9 1.3-6.5.9-9.4-.5-2.8-1.5-4.9-3.8-6.5-6.2-2.4-3.7-3.8-8.1-2.3-12.1s6.7-7 11.3-5.6c-1.7-4-5.2-7.5-9.3-9.8s-11.4-2.6-16.3-2.4z" class="h"/></svg>