<svg xmlns="http://www.w3.org/2000/svg" viewBox="14.1 297.2 1020.7 1397.7"><path d="M234.6 1581.9h-29.7v-74.6c0-11.1-9.1-21.2-20.2-21.2h-27.8c-11.1 0-20.7 10.1-20.7 21.2v167.1c0 11.1 9.6 20.5 20.7 20.5h27.8c11.1 0 20.2-9.4 20.2-20.5V1600h29.7c5.1 0 9.1-3.6 9.1-8.7v-.2c.1-5-3.9-9.2-9.1-9.2zM814.4 1581.9H844v-74.6c0-11.1 9.2-21.2 20.3-21.2h27.8c11.1 0 19.7 10.1 19.7 21.2v167.1c0 11.1-8.6 20.5-19.7 20.5h-27.8c-11.1 0-20.3-9.4-20.3-20.5V1600h-29.6c-5.1 0-8.3-3.6-8.3-8.7v-.2c0-5 3.2-9.2 8.3-9.2z"/><path fill="#E23513" d="M524.9 297.3H34.1c-11.1 0-20 8.8-20 19.9v69.7c0 11.1 8.9 19.9 20 19.9h490.8V297.3z"/><path fill="#D3260F" d="M1034.8 386.8v-69.7c0-11.1-8.8-19.9-19.9-19.9h-490v109.4h490c11.2.1 19.9-8.7 19.9-19.8zM524.9 447.8v-41.1H52.3l1.4 30.9c101.6-1.8 282.3-2 471.2 10.2z"/><path fill="#E23513" d="M53.7 436.5L92.6 1419c0 38.7 27.1 69.9 60.7 69.9h65.2v133.7c0 25.4 31.8 46.2 70.5 46.2h235.9V446.6C336 434.4 155.3 434.8 53.7 436.5z"/><path fill="#BF1C10" d="M992.8 514.3l4.1-107.6h-472v41.1c162.8 10.5 334.2 30.2 467.9 66.5z"/><path fill="#D3260F" d="M524.9 446.6v1222.1H760c38.7 0 70.4-20.8 70.4-46.2v-133.7h65.3c33.6 0 60.8-31.2 60.8-69.9l36.2-905.8c-133.6-36.3-305-56-467.8-66.5z"/><path fill-rule="evenodd" clip-rule="evenodd" fill="#F4F4F4" d="M379.8 1082.8c-15.1.1-28.6-3-40.5-9.6-11.9-6.6-19.1-13.7-21.5-21.3-1.5-3.8-2.6-7.4-3.2-10.6-.6-3.3-1-7.2-1-12-.1-7.4.8-14.1 2.7-20.2 1.9-6.1 4.1-11.4 6.7-15.8 2.6-4.5 4.9-7.8 6.8-10.1 1.9-2.2 3.3-3.7 4.2-4.3l-31.7-18.8 103.4-3.2 47.9 90.1-29.9-17c-.9.9-2.3 2.3-4.2 4.3-1.9 1.9-4.1 4.3-6.6 7.2-2.5 2.9-4.9 5.7-7.2 8.5-2.3 2.9-4 5.2-4.8 6.9-2 3.6-3 6.8-3 9.8 0 4.7 1.8 8.4 5.2 10.8 3.4 2.5 6.2 4.2 8.3 5l-31.6.3zm298.4 13.4c10.1-.4 19.3-2.6 27.7-6.7 8.4-4.1 15.5-8.7 21.4-14 5.9-5.2 10.3-9.7 13.2-13.4 2.9-3.7 5-6.5 6.1-8.3-2 6.2-4.5 12.2-7.4 17.8-2.9 5.7-6.7 12.5-11.3 20.5-2.9 5.4-4.9 9.1-6.1 11.2-2.3 5.1-4.8 10.3-7.4 15.6-6.4 13.7-11.6 24.6-15.7 32.6-4.1 8.1-8.6 15.8-13.5 23.3-5 7.4-10.1 13.4-15.4 17.9-5.3 4.5-10.8 6.8-16.4 6.8-3.9 0-21.5.2-52.8.5l.3 36.4-55-87.5 54.2-86.8-.1 34.6c51.3-.3 77.3-.5 78.2-.5zM476.5 793.9c10.1-.3 29.3-.5 57.7-.8 28.7-.2 49.8.3 63.3 1.9 13.5 1.5 22 5.3 25.6 11.5.6 1.2 2.2 4 4.7 8.6 2.6 4.6 5.6 9.6 9 15.2 3.4 5.6 6.2 10.1 8.3 13.7 2.1 3.5 3.6 6.2 4.5 8l31.4-18.5-43 96.7-107-8.8 29.6-17.6-37.9-64c-5.7-10-12.3-18.2-19.8-24.5-7.5-6.3-14.8-10.8-22.1-13.6-7.3-2.7-13.4-4.5-18.2-5.1-4.9-.7-8.5-1-10.9-1 6.5-.9 14.7-1.5 24.8-1.7zm-138.9 288.7c-11.3-5.1-18.9-11.5-22.8-19.2 1.2 2.1 3.1 5.4 5.6 9.9 2.6 4.6 6 10.7 10.4 18.3 4.4 7.6 8.9 15.7 13.8 24.2 4.8 8.5 8.3 14.8 10.4 18.9 1.2 2.4 2 4 2.3 4.9 3.6 7.6 7 14.5 10.2 20.5 3.2 6 6.8 12.3 10.8 18.8 4.1 6.5 8.2 11.8 12.6 15.9 4.3 4.1 8.4 6.1 12.3 6.1l115.9-1.1-1-111.2c-68.3.7-115.4 1.1-141.2 1.3-15 .3-28-2.2-39.3-7.3zm329.1-3.8c-5.3-8.3-16.5-25.7-33.8-52.3-17.2-26.6-27.4-42.3-30.4-47l90.9-55c.9 1.5 3 5.3 6.3 11.5s7.4 13.7 12.2 22.5c9.9 18.5 17.3 32.3 22.1 41.3 4.8 9 8.3 15.2 10.4 18.7 1.5 2.7 2.3 6 2.3 10.2.1 5.6-1.2 12-3.8 19.1-.9 1.8-2.8 4.6-5.9 8.5-3 3.9-7.5 8.4-13.2 13.6-5.7 5.2-12.8 10-21.4 14.2-8.6 4.2-17.7 6.5-27.5 6.9-.2.2-2.9-4-8.2-12.2zM453.6 958l-90.1-49.9c.9-1.5 5-8.2 12.2-20.1 1.5-2.4 5.2-8.5 11.1-18.4 6-9.8 11.3-18.6 16-26.2 4.7-7.6 8.5-13.9 11.4-19 2.9-5.1 5-8.5 6.1-10.3 2-3.6 5-6.3 9-8.1 4-1.8 9.8-3.5 17.5-5.1 3 0 7 .3 12 1s11.2 2.4 18.5 5.2c7.3 2.7 14.6 7.1 21.9 13.2 7.3 6 13.7 13.9 19.1 23.7l1.4 2.2c1.5 2.4 2.9 4.6 4.1 6.6L453.6 958z"/></svg>