<svg xmlns="http://www.w3.org/2000/svg" xmlns:xlink="http://www.w3.org/1999/xlink" viewBox="46.739 0.861 282.26 343.14"><style><![CDATA[.B{opacity:.3}.C{fill:#fff}.D{fill:#d8dee8}.E{fill-rule:evenodd}.F{fill:#102048}.G{fill:#97a6b7}.H{fill:#f9b384}]]></style><defs><linearGradient id="A" x1="253.43" x2="253.43" y1="-203.83" y2="348.95" gradientUnits="userSpaceOnUse"><stop stop-color="rgba(153, 106, 246, 1)" offset="0"/><stop stop-color="rgba(88, 14, 236, 1)" offset="1"/></linearGradient><linearGradient id="B" x1="190.8" x2="190.8" y1="-96.498" y2="359.17" gradientUnits="userSpaceOnUse"><stop stop-color="rgba(153, 106, 246, 1)" offset="0"/><stop stop-color="rgba(88, 14, 236, 1)" offset="1"/></linearGradient><linearGradient id="C" x1="151.78" x2="151.78" y1="-34.836" y2="309.19" gradientUnits="userSpaceOnUse"><stop stop-color="rgba(153, 106, 246, 1)" offset="0"/><stop stop-color="rgba(88, 14, 236, 1)" offset="1"/></linearGradient><linearGradient id="D" x1="99.1956794" x2="223.0373946" y1="157.158928" y2="157.158928" xlink:href="#E"><stop stop-color="#d8dee8" offset="0"/><stop stop-color="#fff" offset="1"/></linearGradient><linearGradient id="E" gradientUnits="userSpaceOnUse"/><linearGradient id="F" x1="99.2016888" x2="222.8811502" y1="157.158928" y2="157.158928" xlink:href="#E"><stop stop-color="#ff9085" offset="0"/><stop stop-color="#fb6fbb" offset="1"/></linearGradient><linearGradient id="G" x1="224.4496036" x2="224.0169268" y1="184.0089696" y2="196.3097024" xlink:href="#E"><stop stop-color="#d8dee8" offset="0"/><stop stop-color="#fff" offset="1"/></linearGradient><linearGradient id="H" x1="80.921094" x2="119.4834138" y1="157.158928" y2="157.158928" xlink:href="#E"><stop stop-color="#d8dee8" offset="0"/><stop stop-color="#fff" offset="1"/></linearGradient><linearGradient id="I" x1="78.5954562" x2="80.8549906" y1="214.2778688" y2="174.3503136" xlink:href="#E"><stop stop-color="#d8dee8" offset="0"/><stop stop-color="#fff" offset="1"/></linearGradient><linearGradient id="J" x1="111.4127896" x2="111.4127896" y1="175.3570624" y2="230.212096" xlink:href="#E"><stop stop-color="#d8dee8" offset="0"/><stop stop-color="#fff" offset="1"/></linearGradient><linearGradient id="K" x1="88.252562" x2="144.1940666" y1="174.7693664" y2="251.9824" xlink:href="#E"><stop stop-color="#d8dee8" offset="0"/><stop stop-color="#fff" offset="1"/></linearGradient><linearGradient id="L" x1="101.9780316" x2="101.9780316" y1="175.8272192" y2="227.6620064" xlink:href="#E"><stop stop-color="#d8dee8" offset="0"/><stop stop-color="#fff" offset="1"/></linearGradient><linearGradient id="M" x1="237.0272778" x2="159.043294" y1="192.2878176" y2="196.8054112" xlink:href="#E"><stop stop-color="#aa80f9" offset="0"/><stop stop-color="#6165d7" offset="1"/></linearGradient><linearGradient id="N" x1="168.8205878" x2="174.1088598" y1="165.3457888" y2="276.5736448" xlink:href="#E"><stop stop-color="#aa80f9" offset="0"/><stop stop-color="#6165d7" offset="1"/></linearGradient><linearGradient id="O" x1="152.6012172" x2="244.5390278" y1="184.120772058875" y2="337.239829541125" xlink:href="#E"><stop stop-color="#e38ddd" offset="0"/><stop stop-color="#9571f6" offset="1"/></linearGradient><linearGradient id="P" x1="179.9379778" x2="186.8788348" y1="219.6540096" y2="254.3280736" xlink:href="#E"><stop stop-color="#e38ddd" offset="0"/><stop stop-color="#9571f6" offset="1"/></linearGradient><linearGradient id="Q" x1="215.9703402" x2="178.6459568" y1="193.6114112" y2="193.6114112" xlink:href="#E"><stop stop-color="#e38ddd" offset="0"/><stop stop-color="#9571f6" offset="1"/></linearGradient><linearGradient id="R" x1="135.5104836" x2="228.5540238" y1="234.1522144" y2="204.6652064" xlink:href="#E"><stop stop-color="#311944" offset="0"/><stop stop-color="#893976" offset="1"/></linearGradient><linearGradient id="S" x1="186.235829" x2="187.2333894" y1="196.1206176" y2="217.0068224" xlink:href="#E"><stop stop-color="#ff9085" offset="0"/><stop stop-color="#fb6fbb" offset="1"/></linearGradient><linearGradient id="T" x1="232.388021" x2="190.3462586" y1="261.0380288" y2="196.8105216" xlink:href="#E"><stop stop-color="#311944" offset="0"/><stop stop-color="#893976" offset="1"/></linearGradient><linearGradient id="U" x1="204.5284426" x2="145.101486" y1="182.01442359139" y2="257.67176520861" xlink:href="#E"><stop stop-color="#ff9085" offset="0"/><stop stop-color="#fb6fbb" offset="1"/></linearGradient><linearGradient id="V" x1="204.173888" x2="144.7469314" y1="183.39934199139" y2="259.05668360861" xlink:href="#E"><stop stop-color="#ff9085" offset="0"/><stop stop-color="#fb6fbb" offset="1"/></linearGradient><linearGradient id="W" x1="199.3843962" x2="139.9574396" y1="178.15607159139" y2="253.81341320861" xlink:href="#E"><stop stop-color="#ff9085" offset="0"/><stop stop-color="#fb6fbb" offset="1"/></linearGradient><linearGradient id="X" x1="209.4501412" x2="150.0231846" y1="187.41100599139" y2="263.06834760861" xlink:href="#E"><stop stop-color="#ff9085" offset="0"/><stop stop-color="#fb6fbb" offset="1"/></linearGradient><linearGradient id="Y" x1="145.6603602" x2="238.7039004" y1="256.8475008" y2="227.3656032" xlink:href="#E"><stop stop-color="#311944" offset="0"/><stop stop-color="#893976" offset="1"/></linearGradient><linearGradient id="Z" x1="183.4054016" x2="184.8116012" y1="213.4142112" y2="243.013648" xlink:href="#E"><stop stop-color="#ff9085" offset="0"/><stop stop-color="#fb6fbb" offset="1"/></linearGradient><linearGradient id="a" x1="222.051853" x2="181.1638954" y1="264.6919648" y2="202.2173248" xlink:href="#E"><stop stop-color="#311944" offset="0"/><stop stop-color="#893976" offset="1"/></linearGradient><linearGradient id="b" x1="216.37297" x2="156.9460134" y1="194.48890999139" y2="270.14625160861" xlink:href="#E"><stop stop-color="#ff9085" offset="0"/><stop stop-color="#fb6fbb" offset="1"/></linearGradient><linearGradient id="c" x1="215.411466" x2="155.9785" y1="196.038343333941" y2="271.719272666059" xlink:href="#E"><stop stop-color="#ff9085" offset="0"/><stop stop-color="#fb6fbb" offset="1"/></linearGradient><linearGradient id="d" x1="208.5427218" x2="149.1097558" y1="188.502090948115" y2="264.174734651885" xlink:href="#E"><stop stop-color="#ff9085" offset="0"/><stop stop-color="#fb6fbb" offset="1"/></linearGradient><linearGradient id="e" x1="223.5181466" x2="164.0851806" y1="202.279729348115" y2="277.952373051885" xlink:href="#E"><stop stop-color="#ff9085" offset="0"/><stop stop-color="#fb6fbb" offset="1"/></linearGradient><linearGradient id="f" x1="221.7393642" x2="221.7393642" y1="232.8746144" y2="198.8700128" xlink:href="#E"><stop stop-color="#ffc444" offset="0"/><stop stop-color="#f36f56" offset="1"/></linearGradient><linearGradient id="g" x1="209.3780284" x2="230.5311164" y1="208.5235584" y2="206.2647616" xlink:href="#E"><stop stop-color="#ffc444" offset="0"/><stop stop-color="#f36f56" offset="1"/></linearGradient><linearGradient id="h" x1="220.3872492" x2="216.2587914" y1="203.81688" y2="204.2972576" xlink:href="#E"><stop stop-color="#311944" offset="0"/><stop stop-color="#49204e" offset=".2"/><stop stop-color="#532353" offset=".3"/><stop stop-color="#a03976" offset="1"/></linearGradient><linearGradient id="i" x1="233.2714028" x2="219.5940084" y1="255.9327392" y2="259.6684416" xlink:href="#E"><stop stop-color="#fcb148" offset="0"/><stop stop-color="#ffc444" offset=".3"/><stop stop-color="#f8924f" offset=".9"/></linearGradient><linearGradient id="j" x1="252.4714358" x2="240.6629648" y1="238.69536" y2="260.8540544" xlink:href="#E"><stop stop-color="#ffdb44" offset="0"/><stop stop-color="#feef06" offset="1"/></linearGradient><linearGradient id="k" x1="225.8918596" x2="223.614297" y1="259.2033952" y2="248.6197568" xlink:href="#E"><stop stop-color="#fcb148" offset="0"/><stop stop-color="#ffc444" offset=".3"/><stop stop-color="#f8924f" offset=".9"/></linearGradient><linearGradient id="l" x1="244.0041912" x2="253.3968834" y1="236.0175104" y2="252.9687072" xlink:href="#E"><stop stop-color="#fcb148" offset="0"/><stop stop-color="#ffc444" offset=".3"/><stop stop-color="#f8924f" offset=".9"/></linearGradient><linearGradient id="m" x1="238.4935714" x2="243.3671948" y1="234.8830016" y2="250.4135072" xlink:href="#E"><stop stop-color="#ffdb44" offset="0"/><stop stop-color="#feef06" offset="1"/></linearGradient><linearGradient id="n" x1="237.195541" x2="246.8826938" y1="238.2558656" y2="255.738544" xlink:href="#E"><stop stop-color="#fcb148" offset="0"/><stop stop-color="#ffc444" offset=".3"/><stop stop-color="#f8924f" offset=".9"/></linearGradient><linearGradient id="o" x1="130.5166722" x2="139.122133" y1="221.5193056" y2="202.8356832" xlink:href="#E"><stop stop-color="#311944" offset="0"/><stop stop-color="#893976" offset="1"/></linearGradient><linearGradient id="p" x1="150.6060964" x2="160.755973" y1="232.0467296" y2="210.0055744" xlink:href="#E"><stop stop-color="#311944" offset="0"/><stop stop-color="#893976" offset="1"/></linearGradient><linearGradient id="q" x1="133.8218422" x2="141.1172538" y1="218.9794368" y2="203.1371968" xlink:href="#E"><stop stop-color="#311944" offset="0"/><stop stop-color="#893976" offset="1"/></linearGradient><linearGradient id="r" x1="131.3880352" x2="139.422603" y1="219.4598144" y2="202.002688" xlink:href="#E"><stop stop-color="#311944" offset="0"/><stop stop-color="#893976" offset="1"/></linearGradient><linearGradient id="s" x1="149.4222446" x2="144.1520008" y1="230.3756288" y2="237.264448" xlink:href="#E"><stop stop-color="#311944" offset="0"/><stop stop-color="#893976" offset="1"/></linearGradient><linearGradient id="t" x1="158.2260156" x2="148.8393328" y1="223.3181664" y2="235.603568" xlink:href="#E"><stop stop-color="#311944" offset="0"/><stop stop-color="#893976" offset="1"/></linearGradient><linearGradient id="u" x1="153.214176" x2="147.595387" y1="226.890336" y2="234.2339808" xlink:href="#E"><stop stop-color="#e38ddd" offset="0"/><stop stop-color="#9571f6" offset="1"/></linearGradient><linearGradient id="v" x1="142.4152842" x2="133.5574286" y1="212.734528" y2="224.3198048" xlink:href="#E"><stop stop-color="#311944" offset="0"/><stop stop-color="#893976" offset="1"/></linearGradient><linearGradient id="w" x1="148.6229944" x2="143.2325626" y1="198.757584" y2="207.5934656" xlink:href="#E"><stop stop-color="#ff9085" offset="0"/><stop stop-color="#fb6fbb" offset="1"/></linearGradient><linearGradient id="x" x1="170.4250976" x2="164.9805812" y1="206.1370016" y2="215.0648704" xlink:href="#E"><stop stop-color="#ff9085" offset="0"/><stop stop-color="#fb6fbb" offset="1"/></linearGradient><linearGradient id="y" x1="130.6128226" x2="130.6128226" y1="253.1475712" y2="243.4684736" xlink:href="#E"><stop stop-color="#aa80f9" offset="0"/><stop stop-color="#6165d7" offset="1"/></linearGradient><linearGradient id="z" x1="170.8157086" x2="137.5957454" y1="245.6659456" y2="245.6659456" xlink:href="#E"><stop stop-color="#d8dee8" offset="0"/><stop stop-color="#fff" offset="1"/></linearGradient><linearGradient id="AA" x1="136.838561" x2="171.4346768" y1="245.3797632" y2="245.3797632" xlink:href="#E"><stop stop-color="#aa80f9" offset="0"/><stop stop-color="#6165d7" offset="1"/></linearGradient><linearGradient id="AB" x1="130.9072832" x2="130.9072832" y1="246.514272" y2="235.7722112" xlink:href="#E"><stop stop-color="#ffc444" offset="0"/><stop stop-color="#f36f56" offset="1"/></linearGradient><linearGradient id="AC" x1="170.8157086" x2="137.5957454" y1="236.5898752" y2="236.5898752" xlink:href="#E"><stop stop-color="#d8dee8" offset="0"/><stop stop-color="#fff" offset="1"/></linearGradient><linearGradient id="AD" x1="136.838561" x2="171.4346768" y1="236.1708224" y2="236.1708224" xlink:href="#E"><stop stop-color="#ffc444" offset="0"/><stop stop-color="#f36f56" offset="1"/></linearGradient><linearGradient id="AE" x1="120.4749648" x2="139.092086" y1="230.0741152" y2="230.0741152" xlink:href="#E"><stop stop-color="#ff9085" offset="0"/><stop stop-color="#fb6fbb" offset="1"/></linearGradient><linearGradient id="AF" x1="119.3451976" x2="127.5600474" y1="229.5886272" y2="229.6652832" xlink:href="#E"><stop stop-color="#aa80f9" offset="0"/><stop stop-color="#6165d7" offset="1"/></linearGradient><linearGradient id="AG" x1="170.8157086" x2="137.5957454" y1="230.0485632" y2="230.0485632" xlink:href="#E"><stop stop-color="#d8dee8" offset="0"/><stop stop-color="#fff" offset="1"/></linearGradient><linearGradient id="AH" x1="136.838561" x2="171.4346768" y1="229.7419392" y2="229.7419392" xlink:href="#E"><stop stop-color="#aa80f9" offset="0"/><stop stop-color="#6165d7" offset="1"/></linearGradient><linearGradient id="AI" x1="136.838561" x2="171.4346768" y1="235.5729056" y2="235.5729056" xlink:href="#E"><stop stop-color="#aa80f9" offset="0"/><stop stop-color="#6165d7" offset="1"/></linearGradient><linearGradient id="AJ" x1="122.7284898" x2="121.3703654" y1="238.9559904" y2="237.2491168" xlink:href="#E"><stop stop-color="#ffc444" offset="0"/><stop stop-color="#f36f56" offset="1"/></linearGradient><linearGradient id="AK" x1="122.7645462" x2="120.7874536" y1="238.4858336" y2="235.9919584" xlink:href="#E"><stop stop-color="#aa80f9" offset="0"/><stop stop-color="#6165d7" offset="1"/></linearGradient><linearGradient id="AL" x1="147.1026162" x2="152.523095" y1="239.1655168" y2="239.1655168" xlink:href="#E"><stop stop-color="#444b8c" offset="0"/><stop stop-color="#26264f" offset="1"/></linearGradient><linearGradient id="AM" x1="172.4622842" x2="172.3661338" y1="238.3427424" y2="251.6655552" xlink:href="#E"><stop stop-color="#311944" offset="0"/><stop stop-color="#a03976" offset="1"/></linearGradient><linearGradient id="AN" x1="188.1347994" x2="177.9488664" y1="248.8599456" y2="263.4705792" xlink:href="#E"><stop stop-color="#ff9085" offset="0"/><stop stop-color="#fb6fbb" offset="1"/></linearGradient><linearGradient id="AO" x1="142.8840174" x2="148.2984868" y1="241.0512544" y2="241.0512544" xlink:href="#E"><stop stop-color="#444b8c" offset="0"/><stop stop-color="#26264f" offset="1"/></linearGradient><linearGradient id="AP" x1="168.2436854" x2="168.147535" y1="240.22848" y2="253.5512928" xlink:href="#E"><stop stop-color="#311944" offset="0"/><stop stop-color="#a03976" offset="1"/></linearGradient><linearGradient id="AQ" x1="179.7096206" x2="174.7939314" y1="254.9873152" y2="268.9029344" xlink:href="#E"><stop stop-color="#ff9085" offset="0"/><stop stop-color="#fb6fbb" offset="1"/></linearGradient><linearGradient id="AR" x1="211.2830082" x2="194.258378" y1="236.5438816" y2="261.0993536" xlink:href="#E"><stop stop-color="#aa80f9" offset="0"/><stop stop-color="#6165d7" offset="1"/></linearGradient><linearGradient id="AS" x1="192.5396896" x2="155.7200958" y1="256.0400576" y2="326.6504544" xlink:href="#E"><stop stop-color="#ff9085" offset="0"/><stop stop-color="#fb6fbb" offset="1"/></linearGradient><linearGradient id="AT" x1="201.8963254" x2="185.2022122" y1="247.2910528" y2="279.3077088" xlink:href="#E"><stop stop-color="#ff9085" offset="0"/><stop stop-color="#fb6fbb" offset="1"/></linearGradient><linearGradient id="AU" x1="195.9770664" x2="193.0625074" y1="237.4126496" y2="242.9983168" xlink:href="#E"><stop stop-color="#ff9085" offset="0"/><stop stop-color="#fb6fbb" offset="1"/></linearGradient><linearGradient id="AV" x1="1627.1" x2="1918.9" y1="1863.1" y2="1856.2" xlink:href="#E"><stop stop-color="#ff9085" offset="0"/><stop stop-color="#fb6fbb" offset="1"/></linearGradient><linearGradient id="AW" x1="224.275331" x2="236.0597644" y1="231.5765728" y2="251.0523072" xlink:href="#E"><stop stop-color="#444b8c" offset="0"/><stop stop-color="#26264f" offset="1"/></linearGradient><linearGradient id="AX" x1="212.5449822" x2="221.7934488" y1="238.2763072" y2="238.4193984" xlink:href="#E"><stop stop-color="#40447e" offset="0"/><stop stop-color="#3c3b6b" offset="1"/></linearGradient><linearGradient id="AY" x1="216.883769" x2="223.253733" y1="244.592005435228" y2="237.030125764772" xlink:href="#E"><stop stop-color="#444b8c" offset="0"/><stop stop-color="#26264f" offset="1"/></linearGradient><linearGradient id="AZ" x1="205.2315424" x2="200.0334114" y1="247.9094112" y2="240.407344" xlink:href="#E"><stop stop-color="#444b8c" offset="0"/><stop stop-color="#26264f" offset="1"/></linearGradient><linearGradient id="Aa" x1="209.3299532" x2="215.4475224" y1="244.2963584" y2="244.393456" xlink:href="#E"><stop stop-color="#444b8c" offset="0"/><stop stop-color="#26264f" offset="1"/></linearGradient><linearGradient id="Ab" x1="214.6062064" x2="214.8826388" y1="242.5843744" y2="245.2673344" xlink:href="#E"><stop stop-color="#444b8c" offset="0"/><stop stop-color="#26264f" offset="1"/></linearGradient><linearGradient id="Ac" x1="214.6783192" x2="213.999257" y1="246.2280896" y2="250.7661248" xlink:href="#E"><stop stop-color="#444b8c" offset="0"/><stop stop-color="#26264f" offset="1"/></linearGradient><linearGradient id="Ad" x1="214.1915578" x2="214.0533416" y1="245.517744" y2="249.401648" xlink:href="#E"><stop stop-color="#444b8c" offset="0"/><stop stop-color="#26264f" offset="1"/></linearGradient><linearGradient id="Ae" x1="218.8308146" x2="224.3294156" y1="243.9539616" y2="244.0408384" xlink:href="#E"><stop stop-color="#444b8c" offset="0"/><stop stop-color="#26264f" offset="1"/></linearGradient><linearGradient id="Af" x1="223.494109" x2="223.7705414" y1="241.6645024" y2="244.3116896" xlink:href="#E"><stop stop-color="#444b8c" offset="0"/><stop stop-color="#26264f" offset="1"/></linearGradient><linearGradient id="Ag" x1="223.914767" x2="223.2477236" y1="245.747712" y2="250.2142016" xlink:href="#E"><stop stop-color="#444b8c" offset="0"/><stop stop-color="#26264f" offset="1"/></linearGradient><linearGradient id="Ah" x1="223.4400244" x2="223.3018082" y1="245.0526976" y2="248.8803872" xlink:href="#E"><stop stop-color="#444b8c" offset="0"/><stop stop-color="#26264f" offset="1"/></linearGradient><linearGradient id="Ai" x1="211.3370928" x2="212.4608506" y1="238.0923328" y2="241.0563648" xlink:href="#E"><stop stop-color="#aa80f9" offset="0"/><stop stop-color="#6165d7" offset="1"/></linearGradient><linearGradient id="Aj" x1="221.5650916" x2="222.6708212" y1="235.0312032" y2="237.9390208" xlink:href="#E"><stop stop-color="#aa80f9" offset="0"/><stop stop-color="#6165d7" offset="1"/></linearGradient><linearGradient id="Ak" x1="210.2794384" x2="209.3479814" y1="245.531364692153" y2="244.436049707847" xlink:href="#E"><stop stop-color="#aa80f9" offset="0"/><stop stop-color="#6165d7" offset="1"/></linearGradient><linearGradient id="Al" x1="208.3924868" x2="207.4610298" y1="247.166692692153" y2="246.071377707847" xlink:href="#E"><stop stop-color="#aa80f9" offset="0"/><stop stop-color="#6165d7" offset="1"/></linearGradient><linearGradient id="Am" x1="208.3263834" x2="207.4069452" y1="247.153560613063" y2="246.079399386937" xlink:href="#E"><stop stop-color="#aa80f9" offset="0"/><stop stop-color="#6165d7" offset="1"/></linearGradient><linearGradient id="An" x1="210.2313632" x2="209.3179344" y1="245.472216069725" y2="244.398100730275" xlink:href="#E"><stop stop-color="#aa80f9" offset="0"/><stop stop-color="#6165d7" offset="1"/></linearGradient><linearGradient id="Ao" x1="209.0174644" x2="210.9464818" y1="241.6236192" y2="245.2928864" xlink:href="#E"><stop stop-color="#aa80f9" offset="0"/><stop stop-color="#6165d7" offset="1"/></linearGradient><linearGradient id="Ap" x1="207.4850674" x2="209.4080754" y1="242.247088" y2="245.8959136" xlink:href="#E"><stop stop-color="#aa80f9" offset="0"/><stop stop-color="#6165d7" offset="1"/></linearGradient><linearGradient id="Aq" x1="206.9802778" x2="208.8972764" y1="242.4668352" y2="246.0901088" xlink:href="#E"><stop stop-color="#aa80f9" offset="0"/><stop stop-color="#6165d7" offset="1"/></linearGradient><linearGradient id="Ar" x1="209.9008462" x2="211.7998166" y1="241.276112" y2="244.878944" xlink:href="#E"><stop stop-color="#aa80f9" offset="0"/><stop stop-color="#6165d7" offset="1"/></linearGradient><linearGradient id="As" x1="224.635895" x2="219.2995478" y1="246.7851232" y2="239.0479776" xlink:href="#E"><stop stop-color="#444b8c" offset="0"/><stop stop-color="#26264f" offset="1"/></linearGradient><linearGradient id="At" x1="229.803979" x2="228.5960896" y1="245.069522741578" y2="243.696947658422" xlink:href="#E"><stop stop-color="#aa80f9" offset="0"/><stop stop-color="#6165d7" offset="1"/></linearGradient><linearGradient id="Au" x1="227.6045386" x2="226.4026586" y1="246.995169488488" y2="245.629652911512" xlink:href="#E"><stop stop-color="#aa80f9" offset="0"/><stop stop-color="#6165d7" offset="1"/></linearGradient><linearGradient id="Av" x1="227.6466044" x2="226.438715" y1="246.964752669131" y2="245.59874493087" xlink:href="#E"><stop stop-color="#aa80f9" offset="0"/><stop stop-color="#6165d7" offset="1"/></linearGradient><linearGradient id="Aw" x1="229.7318662" x2="228.5359956" y1="245.09751097456" y2="243.74561542544" xlink:href="#E"><stop stop-color="#aa80f9" offset="0"/><stop stop-color="#6165d7" offset="1"/></linearGradient><linearGradient id="Ax" x1="227.700689" x2="229.8220072" y1="241.173904" y2="247.8225344" xlink:href="#E"><stop stop-color="#aa80f9" offset="0"/><stop stop-color="#6165d7" offset="1"/></linearGradient><linearGradient id="Ay" x1="226.5348654" x2="228.632146" y1="241.5469632" y2="248.1138272" xlink:href="#E"><stop stop-color="#aa80f9" offset="0"/><stop stop-color="#6165d7" offset="1"/></linearGradient><linearGradient id="Az" x1="225.236835" x2="227.3521438" y1="241.8484768" y2="248.4715552" xlink:href="#E"><stop stop-color="#aa80f9" offset="0"/><stop stop-color="#6165d7" offset="1"/></linearGradient><linearGradient id="BA" x1="228.9566536" x2="231.0599436" y1="240.86728" y2="247.4494752" xlink:href="#E"><stop stop-color="#aa80f9" offset="0"/><stop stop-color="#6165d7" offset="1"/></linearGradient><linearGradient id="BB" x1="206.5055352" x2="218.9389838" y1="239.2779456" y2="259.826864" xlink:href="#E"><stop stop-color="#444b8c" offset="0"/><stop stop-color="#26264f" offset="1"/></linearGradient><linearGradient id="BC" x1="212.526954" x2="221.7874394" y1="239.0479776" y2="239.1910688" xlink:href="#E"><stop stop-color="#aa80f9" offset="0"/><stop stop-color="#6165d7" offset="1"/></linearGradient><path id="BD" d="M152.46 240.97l5.763 6.522c1.297 1.609 2.854 3.06 4.26 4.609 1.052 1.156 1.347 1.482 1.948 1.595 2.092.373 3.293-2.79 6.599-3.281 1.285-.189 2.39.189 4.608.956 2.206.761 7.962 3.045 7.573 4.395-.301 1.026-4.178.976-11.924.868-8.497-.112-9.885-.72-10.744-1.476-1.311-1.161-1.184-2.203-2.067-4.277-.313-.846-.799-1.74-1.46-2.685-2.014-2.886-5.12-4.41-5.512-4.593-2.661-1.278-4.254-1.053-4.926-2.367-.223-.439-.241-1.078-.248-2.361-.005-1.747-.005-2.621.349-2.774.288-.123 1.13-.112 5.781 4.869z"/></defs><path transform="matrix(-.91352 .4068 -.4068 -.91352 514.47 35.745)" d="M638.91-203.83c-24.023.116-49.471 3.111-72.074 6.725-67.98 10.879-147.02 42.082-201.48 91.934-62.531 57.23-43.521 148.39-107.4 204.49-74.579 65.501-191.67 52.563-272.91 111.08-51.082 36.79-104.98 92.804-117.72 138.55h570.11l202.1-552.78h-.634z" fill="url(#A)" fill-opacity=".35"/><path transform="matrix(-.99345 .11424000000000001 -.11424000000000001 -.99345 395.37 240.02)" d="M396.32-96.498c-15.434.095-31.341 2.563-45.324 5.545-42.053 8.966-88.1 34.689-115.48 75.781-31.436 47.177-5.223 122.33-37.699 168.57-37.916 53.995-115.21 43.331-158.48 91.567-27.208 30.33-53.279 76.504-54.455 114.21h366.68l45.165-455.67h-.407z" fill="url(#B)" fill-opacity=".7"/><path transform="matrix(-.97112 .23857 -.23857 -.97112 331.89 234.18)" d="M349.78-34.836c-13.264.071-27.158 1.936-39.448 4.186-36.962 6.769-78.936 26.19-106.33 57.215-31.451 35.618-16.034 92.353-48.291 127.27-37.66 40.765-103.04 32.714-144.75 69.131-26.23 22.899-52.98 57.76-57.55 86.228h314.9l81.812-344.03h-.35z" fill="url(#C)" paint-order="stroke markers"/><path d="M222.88 175.83l.155 43.614-103.55 1.849-20.289-64.029 99.829 4.554-.39 1.845 24.248 12.167z" fill="url(#D)"/><path d="m222.88 175.83-101.55-3.48-22.132-15.086 99.631 3.659 18.982 11.77 5.067 3.137z" fill="url(#F)"/><path d="M224.48 179.48l-105.12-4.585v-3.673l105.1 4.649.018 3.609z" fill="url(#G)"/><path d="M119.48 171.22l.007 50.081-38.563-4.947.312-40.638 17.962-18.454 20.282 13.958z" fill="url(#H)"/><path d="M119.36 175.36l-20.342-15.152-18.16 18.208.036-2.653 18.202-18.488 20.264 13.947v4.138z" fill="url(#I)"/><g class="C E"><path d="M113.2 179.12v31.026l-27.999-2.755v-27.535l27.999-.736zm-1.755 27.838V181.17l-7.518.138v25.001l7.518.649zm-9.442-.813v-24.801l-6.958.127v24.071l6.958.603zm-8.748-.752v-23.885l-6.467.117v23.212l6.467.556z"/><path d="M113.86 210.78l-29.338-2.888V179.3l29.338-.772v32.252zm-27.999-3.9l26.664 2.622v-29.798l-26.664.699v26.477zm26.249.701l-8.857-.762v-26.073l8.857-.159v26.994zm-7.517-1.795l6.178.538v-24.577l-6.178.113v23.926zm-1.928.977l-8.3-.715v-25.144l8.3-.148v26.007zm-6.96-1.742l5.619.48v-23.585l-5.619.102v23.003zm-1.79.991l-7.801-.675v-24.285l7.801-.137v25.097zm-6.461-1.701l5.12.439v-22.676l-5.12.097v22.14z"/></g><path d="M111.29 181.36v25.378l-7.218-.618v-24.634l7.218-.126z" fill="url(#J)"/><path d="M93.119 181.68v23.51l-6.208-.532v-22.87l6.208-.108z" fill="url(#K)"/><path d="M101.86 181.53v24.407l-6.682-.572v-23.717l6.682-.118z" fill="url(#L)"/><g class="G"><path d="m209.76 188.59v31.154l-74.847 1.272v-34.204l74.847 1.778z"/><path d="M208.15 219.77l-73.236 1.247v-4.89l2.626-23.632c8.469-2.633 16.313-1.323 23.532 3.931 10.553 7.671 5.499 14.656 26.592 15.797 16.112.863 19.302 2.948 20.486 7.547z" opacity=".6" style="mix-blend-mode:multiply"/></g><path d="M138.65 220.96l-3.731.061v-34.204l3.731.081v34.062zm71.11-1.22l-3.113.051v-31.277l3.113.072v31.154z" class="D"/><path d="M135.53 185.01l-3.318-.088v-4.931l3.318.113v4.906z" class="C"/><path d="m211.62 186.98-76.091-1.973v-4.906l76.091 2.417v4.462z" class="D"/><path d="m210.38 194.9-76.71-1.197v-8.743l76.71 1.993v7.947z" class="C"/><path d="M210.38 189.44l-76.71-1.743v-.91l76.71 1.825v.828zm0 2.15l-76.71-1.528v-.909l76.71 1.608v.829zm0 2.15l-76.71-1.307v-.91l76.71 1.39v.827z" opacity=".5" style="mix-blend-mode:multiply" class="D"/><path d="M217.81 172.69c-4.543-1.732-9.777-2.418-14.543-3.005-6.375-.793-12.817-.68-19.212-.102-5.937.531-11.881 1.696-17.877 1.319-6.509-.414-12.404-2.561-17.788-5.608-5.764-3.26-10.859-5.441-17.752-6.53l-2.65-.445 70.84 2.601 18.982 11.77z" style="mix-blend-mode:soft-light" class="B C"/><path d="M195.12 199.39l16.646-.638 2.422-5.034 10.799 4.651v.005l.006.005c.004-.004.008-.007.012-.01.763.234 1.316.884 1.316 1.666v43.035c0 .807-.59 1.435-1.388 1.6l-10.643 6.015-2.32-7.401-13.941-1.598v-.007l-2.909-.331c-.914-.108-1.574-.94-1.574-1.845v-38.406c0-.909.66-1.67 1.574-1.707z" fill="url(#M)"/><path d="M174.82 194.97l38.334-1.375c.343-.015.721.025 1.028.117 1.01.291 1.786 1.089 1.786 2.05v52.99c0 1.247-1.306 2.146-2.79 1.987l-38.364-4.113c-1.202-.128-2.067-1.155-2.067-2.268V197.07c0-1.115.865-2.054 2.073-2.1z" fill="url(#N)"/><path d="M173.36 197.09c0-.747.643-1.374 1.449-1.4l38.363-1.298c.992-.036 1.773.613 1.773 1.445v52.9c0 .832-.787 1.425-1.773 1.319l-38.376-4.049c-.806-.087-1.436-.76-1.436-1.507v-47.41z" fill="url(#O)"/><path d="M184.83 241.83c0-.465.349-.801.866-.761l14.711 1.319c.559.05.914.479.914.965v1.13c0 .485-.349.838-.908.781l-14.669-1.425c-.517-.052-.914-.465-.914-.93v-1.079z" fill="url(#P)"/><path d="M179.23 246.41c3.071-2.611 11.52-2.908 14.057-5.738.672-.752.912-1.677.503-2.857-.051-.161-.115-.324-.192-.491-.276-.596-.52-1.19-.733-1.779-.195-.558-.362-1.111-.499-1.66-.571-2.275-.624-4.457-.174-6.45.128-.556.295-1.094.498-1.615.29-.751.662-1.467 1.113-2.142.583-.868 1.299-1.67 2.145-2.396.83-.705 1.791-1.339 2.885-1.875 4.555-2.26 8.996-3.265 9.693-14.969.294-4.907 2.446-8.059 4.874-10.088.264-.224.547-.44.822-.634 1.01.291 1.745 1.089 1.745 2.05v52.99c0 1.247-1.239 2.156-2.724 1.998l-34.602-3.71c.163-.25.361-.439.589-.634z" fill="url(#Q)" style="mix-blend-mode:multiply" class="B"/><path d="M193.02 199.29c4.779-.113 8.733 3.256 8.733 7.518s-3.954 7.645-8.733 7.563c-4.657-.077-8.346-3.443-8.346-7.517s3.689-7.462 8.346-7.564z" fill="url(#R)"/><path d="M193.02 201.43c3.408-.055 6.214 2.352 6.214 5.383s-2.806 5.452-6.214 5.416c-3.346-.04-6.015-2.448-6.015-5.381s2.669-5.361 6.015-5.418z" fill="url(#S)"/><path d="M193.02 203.14c2.315-.025 4.213 1.615 4.213 3.669s-1.898 3.711-4.213 3.696c-2.284-.016-4.122-1.661-4.122-3.67 0-2.014 1.838-3.664 4.122-3.695z" style="mix-blend-mode:soft-light" class="C"/><path d="M193.02 204.38c1.539-.015 2.795 1.073 2.795 2.437s-1.256 2.464-2.795 2.458c-1.52-.01-2.752-1.098-2.752-2.442s1.232-2.443 2.752-2.453z" fill="url(#T)"/><path d="M198.59 201.89c.198.169.198.445 0 .619-.192.169-.51.173-.703.006s-.193-.44 0-.614.511-.18.703-.011z" fill="url(#U)"/><path d="M188.28 211.03c.18.166.18.439 0 .601-.186.164-.486.159-.673-.01-.18-.164-.18-.434 0-.598.187-.163.487-.158.673.007z" fill="url(#V)"/><path d="M187.6 202.06c.187-.169.487-.175.673-.011.18.164.18.429 0 .599-.186.169-.486.173-.673.009-.18-.163-.18-.428 0-.597z" fill="url(#W)"/><path d="M197.89 211.11c.193-.169.511-.164.703.004.198.174.198.45 0 .619-.192.168-.51.164-.703-.011-.193-.169-.193-.444 0-.612z" fill="url(#X)"/><path d="M193.04 217.8c6.929.18 12.74 5.367 12.74 11.581s-5.811 10.768-12.74 10.185c-6.683-.556-11.93-5.713-11.93-11.534s5.247-10.405 11.93-10.232z" fill="url(#Y)"/><path d="M193.04 220.89c4.934.169 9.032 3.879 9.032 8.284s-4.098 7.672-9.032 7.298c-4.808-.362-8.618-4.058-8.618-8.263s3.81-7.482 8.618-7.319z" fill="url(#Z)"/><path d="M193.04 223.37c3.352.137 6.112 2.667 6.112 5.648s-2.76 5.207-6.112 4.977c-3.287-.225-5.913-2.749-5.913-5.637s2.626-5.121 5.913-4.988z" style="mix-blend-mode:soft-light" class="C"/><path d="M193.04 225.14c2.223.103 4.044 1.784 4.044 3.757s-1.821 3.454-4.044 3.311c-2.194-.142-3.955-1.819-3.955-3.751 0-1.926 1.761-3.414 3.955-3.317z" fill="url(#a)"/><path d="M201.13 221.97c.288.261.288.66 0 .894-.283.236-.746.22-1.026-.041-.284-.255-.284-.655 0-.889s.743-.22 1.026.036z" fill="url(#b)"/><path d="M186.23 234.32c.265.256.265.639 0 .859s-.691.188-.949-.072c-.265-.255-.265-.639 0-.853.258-.221.684-.189.949.066z" fill="url(#c)"/><path d="M185.28 221.4c.258-.231.684-.215.949.03s.265.634 0 .863-.691.21-.949-.04c-.265-.245-.265-.629 0-.853z" fill="url(#d)"/><path d="M200.11 235.3c.28-.225.743-.194 1.026.076s.288.666 0 .895c-.283.225-.746.189-1.026-.077s-.284-.664 0-.894z" fill="url(#e)"/><path d="M230.7 206.84l3.329 22.542c.115.767-.425 1.458-1.328 1.554l-18.034 1.927c-.907.097-1.772-.446-1.887-1.211l-3.329-22.543c-.024-.163-.011-.332.037-.501.054-.225.174-.444.347-.619l8.949-9.122 11.285 6.962c.373.229.572.623.631 1.011zm-12.925-2.238c.126.869 1.056 1.481 2.078 1.375 1.022-.113 1.749-.905 1.617-1.773s-1.058-1.483-2.079-1.375-1.749.905-1.616 1.773z" fill="url(#f)" class="E"/><path d="M229.12 220.56c.212 1.437-.432 2.807-1.903 3.817-.007 0-.031.007-.038.011-.743.511-1.585.915-2.871 1.211l.337 2.31-3.198.343-.312-2.106c-2.05.128-4.291-.143-5.511-.542l.499-3.378c1.413.404 3.425.792 5.505.568 1.418-.149 2.445-.537 2.337-1.288-.103-.68-.991-.976-3.275-1.196-3.221-.301-5.859-1.242-6.226-3.721-.198-1.359.331-2.596 1.545-3.541.751-.587 1.85-1.067 2.986-1.375l-.312-2.111 3.203-.342.288 1.953c2.194-.164 3.546.036 4.64.29l-.457 3.256c-.811-.169-2.428-.618-4.747-.369-.781.083-1.275.236-1.581.421-.367.219-.456.491-.421.74.067.46.883.767 2.5 1.033l1.262.178c3.84.465 5.42 1.59 5.75 3.838z" class="C"/><path d="M233.82 228l.203 1.384c.115.767-.425 1.458-1.328 1.554l-18.034 1.927c-.907.097-1.772-.446-1.887-1.211l-3.329-22.543c-.024-.163-.006-.332.037-.501.306.985.804 1.912 1.676 2.592 1.328 1.037 3.191 1.348 4.861 1.839l.332.102c1.297.414 2.559.926 3.671 1.621.499.311.974.659 1.4 1.053.256.231.483.471.679.72 1.345 1.64 1.635 3.566 2.627 5.406.547 1.018 1.448 1.779 2.469 2.427l2.235 1.283c1.377.736 3.071 1.431 4.388 2.347z" fill="url(#g)" opacity=".2" style="mix-blend-mode:multiply"/><path d="M219.74 203.62c-.089.235-.39.363-.679.287-.008-.004-.016-.006-.023-.006-.272-.087-.427-.332-.337-.562l.258-.833c.354-1.303.654-2.621.607-3.965-.024-.68-.018-1.422-.253-2.08-.119-.343-.337-.65-.607-.926-.305-.307-.738-.746-1.153-.935-.22-.102-.455-.165-.703-.189-.157-.015-.307-.015-.463 0-.084.01-.336.102-.403.082-.336-.112-.829-.291-1.088-.491.188-.164.518-.326.776-.398 1.412-.378 2.903.312 3.78 1.226 2.506 2.632.379 8.54.288 8.79z" fill="url(#h)"/><path d="M86.791 145.28c2.135-3.515 5.032-4.592 8.69-3.23 5.493 2.045 4.982.972 8.792 1.381 3.816.403 8.533 2.656 5.462 3.107-2.047.302-11.084.627-27.114.97.236-1.301 1.626-2.044 4.17-2.228zm57.639 4.44c2.724-4.484 6.42-5.856 11.087-4.119 7.001 2.611 6.358 1.243 11.219 1.758 4.861.521 10.878 3.394 6.96 3.971-2.609.385-14.135.797-34.578 1.237.3-1.663 2.07-2.611 5.312-2.847z" class="C"/><path d="M244.83 244.67c0 5.402-4.963 9.644-11.309 9.48-6.599-.173-12.151-5.018-12.151-10.823s5.552-10.012 12.151-9.429c6.346.561 11.309 5.376 11.309 10.772z" fill="url(#i)"/><path d="M246.54 244.21c0 5.401-4.964 9.643-11.309 9.479-6.598-.173-12.152-5.018-12.152-10.824 0-5.801 5.554-10.011 12.152-9.428 6.345.562 11.309 5.376 11.309 10.773z" fill="url(#j)"/><path d="M246.04 244.18c0 5.157-4.747 9.209-10.811 9.046-6.292-.174-11.581-4.805-11.581-10.329s5.289-9.551 11.581-9.004c6.064.531 10.811 5.125 10.811 10.287z" fill="url(#k)"/><path d="M245.69 244.16c0 4.988-4.596 8.901-10.456 8.733-6.076-.173-11.172-4.64-11.172-9.976 0-5.33 5.096-9.219 11.172-8.692 5.86.501 10.456 4.942 10.456 9.935z" fill="url(#l)"/><path d="M235.17 235.92c.313.025.564.266.564.531v.92c.625.058 1.251.15 1.875.276l1.371.327c.276.077.462.312.433.551l-.133 1.156c-.036.302-.391.485-.727.358-.301-.116-.607-.214-.919-.292-.549-.142-1.128-.235-1.737-.276l-.163-.015v2.631c1.63.39 2.825.911 3.594 1.565s1.147 1.461 1.147 2.438c0 1.052-.419 1.895-1.266 2.534-.855.64-2.056 1.002-3.6 1.078v1.012c0 .271-.253.48-.566.471h-.012c-.312-.011-.565-.24-.565-.512v-.995l-.252-.012c-.725-.027-1.42-.089-2.085-.188l-1.442-.281c-.283-.072-.475-.303-.452-.547l.156-1.482c.037-.322.416-.507.77-.389l1.268.358c.665.146 1.34.242 2.025.286l.012-2.928c-1.562-.327-2.728-.812-3.498-1.456-.768-.65-1.159-1.478-1.159-2.484 0-1.043.421-1.85 1.256-2.413s2.013-.843 3.54-.843v-.934c0-.272.252-.471.565-.445zm-.565 3.51c-.481.031-.856.144-1.125.337-.272.199-.408.463-.408.793 0 .314.127.574.378.782s.634.38 1.155.506v-2.418zm1.004 5.3v2.683c.524 0 .927-.107 1.208-.321s.417-.512.414-.9c.003-.355-.125-.649-.385-.884s-.677-.429-1.237-.578z" fill="url(#m)" class="E"/><path d="M236.96 252.82c-.566.061-1.137.091-1.731.071-6.076-.173-11.172-4.64-11.172-9.976 0-4.671 3.924-8.237 8.997-8.692 1.669 1.109 3.166 2.525 3.424 4.206.422 2.729-2.788 3.981-3.136 6.95-.307 2.545 1.202 5.401 3.618 7.441z" fill="url(#n)" style="mix-blend-mode:multiply" class="B"/><path d="M128.78 239.38c-6.04-.813-10.74-6.756-10.74-13.302 0-6.552 4.7-11.653 10.74-11.386 6.316.28 11.658 6.28 11.658 13.389s-5.342 12.153-11.658 11.299z" class="G"/><path d="M131.06 239.43c-.746.071-1.509.056-2.284-.052-6.04-.813-10.74-6.756-10.74-13.302 0-6.318 4.363-11.28 10.084-11.392 1.587 1.667 2.891 3.681 3.511 6.092 1.249 4.871-1.148 7.758-1.221 13.277-.023 1.533.139 3.322.65 5.377z" style="mix-blend-mode:soft-light" class="B D"/><g class="E"><path d="M141.82 228.2c0 7.952-5.991 13.559-13.04 12.572-6.7-.941-11.899-7.548-11.899-14.804s5.199-12.935 11.899-12.675c7.049.276 13.04 6.956 13.04 14.907zm-1.382-.122c0-7.109-5.342-13.109-11.658-13.389-6.04-.267-10.74 4.834-10.74 11.386 0 6.546 4.7 12.489 10.74 13.302 6.316.854 11.658-4.19 11.658-11.299z" class="G"/><path d="M140.7 228.1c0 7.271-5.462 12.423-11.922 11.544-6.166-.838-10.961-6.904-10.961-13.588s4.795-11.898 10.961-11.633c6.46.281 11.922 6.409 11.922 13.677zm-1.256-.113c0-6.5-4.879-12.005-10.666-12.286-5.552-.266-9.891 4.415-9.891 10.446s4.339 11.489 9.891 12.22c5.787.756 10.666-3.875 10.666-10.38z" class="D"/></g><path d="M130.11 227.32c0 .787-.583 1.375-1.298 1.308-.709-.066-1.286-.761-1.286-1.544s.577-1.369 1.286-1.313c.715.061 1.298.757 1.298 1.549z" class="D"/><path d="M171.48 245.13c-8.052-1.084-14.284-8.029-14.284-15.557s6.232-13.353 14.284-12.995c8.479.373 15.703 7.404 15.703 15.679s-7.224 14.017-15.703 12.873z" class="G"/><path d="M174.54 245.25c-.992.062-2.014.025-3.053-.117-8.052-1.084-14.284-8.029-14.284-15.557 0-7.257 5.786-12.924 13.401-13.011 2.127 1.942 3.876 4.288 4.706 7.088 1.682 5.658-1.54 8.969-1.636 15.353-.03 1.777.18 3.853.866 6.244z" style="mix-blend-mode:soft-light" class="B D"/><g class="E"><path d="M189.05 232.43c0 9.264-8.107 15.642-17.572 14.319-8.936-1.252-15.811-8.97-15.811-17.305s6.875-14.825 15.811-14.478c9.465.374 17.572 8.198 17.572 17.464zm-1.869-.169c0-8.275-7.224-15.306-15.703-15.679-8.052-.358-14.284 5.468-14.284 12.995s6.232 14.473 14.284 15.557c8.479 1.144 15.703-4.595 15.703-12.873z" class="G"/><path d="M187.54 232.3c0 8.461-7.391 14.323-16.057 13.143-8.221-1.114-14.573-8.202-14.573-15.888 0-7.68 6.352-13.635 14.573-13.283 8.666.379 16.057 7.558 16.057 16.028zm-1.706-.155c0-7.568-6.582-14.017-14.351-14.39-7.404-.354-13.161 4.993-13.161 11.927s5.757 13.313 13.161 14.285c7.769 1.016 14.351-4.252 14.351-11.822z" class="D"/></g><path d="M173.26 231.21c0 .92-.781 1.589-1.742 1.497-.95-.093-1.72-.899-1.72-1.809s.77-1.574 1.72-1.492c.961.081 1.742.888 1.742 1.804z" class="D"/><g class="E"><path d="M145.58 232.24c-.433-.046-.433-.046-1.382-3.142l-1.988-6.578-4.664-15.715c-.084-.291.06-.597.331-.685s.564.073.648.363l7.242 24.117c1.321-1.467 5.265-5.704 17.547-18.685.229-.239.613-.25.866-.021s.27.61.047.849l-18.178 19.272c-.096.154-.276.246-.469.225zm.517-.333zm0 0z" fill="url(#o)"/><path d="M171.48 231.28c-.312-.026-.571-.26-.632-.547-.221-.7-3.731-9.035-9.254-21.97-.131-.301.013-.648.318-.771.314-.123.668.026.8.326l9.411 22.385c.012.342-.265.598-.625.577h-.018zm-.644-.649zm0 0z" fill="url(#p)"/></g><path d="M162.88 210.83l-23.954-.639c-.288-.01-.516-.26-.516-.567 0-.301.228-.542.516-.536l23.954.546c.336.005.608.282.608.614 0 .326-.272.592-.608.582z" fill="url(#q)"/><path d="M145.59 232.24c-.032-.004-.064-.01-.096-.021l-16.916-4.845c-.162-.045-.301-.183-.361-.356-.06-.18-.042-.369.06-.506l10.799-15.292c.174-.235.498-.28.727-.091s.282.536.115.776l-10.409 14.652 16.172 4.574c.294.081.492.394.438.695-.042.271-.271.439-.529.414z" fill="url(#r)"/><path d="M145.12 235.81l-.157-.067-16.309-7.037v-3.046l17.175 2.74-.709 7.41zm-16.226-7.277l15.991 6.879.643-6.782-16.634-2.669v2.572z" fill="url(#s)" class="E"/><path d="M149.36 232.51c0 2.111-1.659 3.629-3.678 3.4-1.989-.231-3.582-2.081-3.582-4.135 0-2.06 1.593-3.583 3.582-3.409 2.019.18 3.678 2.04 3.678 4.144z" fill="url(#t)"/><path d="M147.87 232.37c0 1.253-.978 2.162-2.186 2.029-1.19-.127-2.152-1.237-2.152-2.473s.962-2.146 2.152-2.034c1.208.113 2.186 1.222 2.186 2.478z" fill="url(#u)"/><path d="M130.19 227.33c0 .858-.637 1.496-1.412 1.421s-1.394-.823-1.394-1.677.624-1.487 1.394-1.421 1.412.819 1.412 1.677z" fill="url(#v)"/><path d="M142.82 207.15l-8.701-.138c-.379-.004-.686-.342-.686-.751v-1.011c0-.21.084-.414.228-.553s.337-.205.529-.178l8.715 1.103c.366.046.648.378.648.772 0 .424-.33.762-.733.756z" fill="url(#w)"/><path d="M155.54 209.71c-1.534 0-3.06-.277-4.454-.814l-1.959-.761c-.288-.113-.414-.399-.283-.639.126-.246.463-.353.751-.24l1.966.762c1.851.715 3.966.909 5.955.551l11.1-2.014c.023-.004.084-.015.095-.092.007-.07-.047-.092-.072-.101l-2.368-.859c-.288-.107-.419-.388-.299-.633.126-.246.455-.358.744-.256l2.368.859c.517.188.811.612.758 1.089-.054.469-.44.837-.987.939l-11.099 2.013c-.733.129-1.478.196-2.216.196z" fill="url(#x)"/><path d="M139.98 253.15l-17.061-4.462c-1.665-.434-2.945-1.866-2.945-3.214v-.015c0-1.344 1.28-2.218 2.945-1.933l18.335 2.99-1.274 6.634z" fill="url(#y)"/><path d="M170.82 251.34l-29.987 1.537c-1.78.093-3.233-.98-3.233-2.396v-.961c0-1.416 1.453-2.617 3.233-2.678l29.987-1.069v5.567z" fill="url(#z)"/><path d="M171.09 251.62l-30.018 1.564c-2.325.122-4.23-1.283-4.23-3.134v-.02c0-1.85 1.905-3.418 4.23-3.5l30.018-1.043c.192-.01.348.119.348.281s-.156.302-.348.312l-30.018 1.094c-1.869.065-3.401 1.334-3.401 2.82v.022c0 1.486 1.532 2.621 3.401 2.529l30.018-1.519c.192-.009.348.113.348.277s-.156.306-.348.317z" fill="url(#AA)"/><path d="M140.72 246.52l-17.799-2.99c-1.665-.285-2.945-2.156-2.945-4.179v-.021c0-2.024 1.28-3.617 2.945-3.547l18.918.798-1.119 9.939z" fill="url(#AB)"/><path d="M170.82 245.05l-28.389.956c-2.656.086-4.831-1.565-4.831-3.69v-1.442c0-2.126 2.175-3.868 4.831-3.899l28.389-.275v8.35z" fill="url(#AC)"/><path d="M171.09 245.48l-30.018 1.043c-2.325.082-4.23-2.11-4.23-4.892v-.029c0-2.776 1.905-5.055 4.23-5.076l30.018-.259c.192 0 .348.198.348.444s-.156.445-.348.45l-30.018.332c-1.869.025-3.401 1.859-3.401 4.094v.029c0 2.234 1.532 4.002 3.401 3.941l30.018-.971c.192-.005.348.189.348.434s-.156.45-.348.46z" fill="url(#AD)"/><path d="M139.09 236.14l-16.346-.618c-1.281-.051-2.272-.935-2.272-1.978v-.704c0-1.044.991-1.928 2.272-1.984l16.346-.68v5.964z" fill="url(#AE)"/><path d="M137.22 236.55l-14.296-.772c-1.665-.07-2.945-1.221-2.945-2.57v-.016c0-1.344 1.28-2.498 2.945-2.575l14.248-.756c.277-.011 2.813.122 2.813.302 0 .173-2.133.347-2.405.358l-14.656.596c-1.346.047-2.398.981-2.398 2.075v.016c0 1.099 1.052 2.023 2.398 2.069l14.656.624c.272.011 2.405.097 2.405.271 0 .179-2.495.389-2.765.378z" fill="url(#AF)"/><path d="M170.82 235.98l-33.22.261v-6.087l33.22.261v5.565z" fill="url(#AG)"/><path d="M171.09 230.73l-33.833-.235c-.229-.005-.415-.148-.415-.331s.186-.323.415-.318l33.833.292c.192 0 .348.137.348.3s-.156.292-.348.292z" fill="url(#AH)"/><path d="M171.09 236.27l-33.833.295c-.229 0-.415-.142-.415-.321s.186-.328.415-.328l33.833-.24c.192 0 .348.133.348.297s-.156.297-.348.297z" fill="url(#AI)"/><path d="M135.08 244.27l-3.822-.654c-.883-2.035-.817-3.884 0-6.081l3.822.276c-.787 2.33-.667 4.456 0 6.459z" opacity=".5" style="mix-blend-mode:soft-light" class="C"/><path d="M126.23 238.28l-2.08-.74-2.242.556c-.216-1.021.322-1.781 1.617-2.279l3.792-3.205.113 3.394c-.768.416-1.169 1.174-1.2 2.274z" fill="url(#AJ)" style="mix-blend-mode:multiply" class="B"/><path d="M123.11 232.7l4.207-.093c-1.346.774-1.709 2.664-1.087 5.668-1.203-.401-2.061-.882-2.573-1.44l-1.749 1.256c-.689-2.572-.289-4.369 1.202-5.391z" fill="url(#AK)"/><path d="M152.84 242.82c.475 2.084-2.146 3.101-3.071 6.352-.553 1.938.559 4.267.937 5.877.109.455-.288.878-.836.89h-.029c-.517.009-.926-.364-.883-.798.409-4.083-.83-9.583-1.593-12.236-.438-1.521-.949-3.014-.204-3.479 1.136-.706 5.144 1.053 5.679 3.394z" fill="url(#AL)"/><path d="M168.57 254.46c-.655.154-3.535.757-6.346-.44-5.174-2.196-2.975-7.471-8.678-10.772-1.262-.726-2.873-1.339-4.572-3.056-1.305-1.319-2.645-3.26-2.099-3.746.403-.353 1.647.158 2.044.321 2.884 1.186 2.716 3.154 5.546 5.091 1.485 1.016 1.737.614 3.882 2.019 1.821 1.185 3.179 2.478 3.288 2.576 2.139 1.941 2.463 2.892 5.071 3.935 3.011 1.195 5.415 1.052 5.523 1.91.109.844-2.08 1.785-3.659 2.162z" fill="url(#AM)"/><g fill="url(#AN)"><use xlink:href="#BD"/><use xlink:href="#BD" style="mix-blend-mode:multiply" class="B"/></g><path d="M148.61 244.7c.474 2.085-2.139 3.102-3.065 6.353-.553 1.937.553 4.267.937 5.877.103.455-.288.878-.834.889h-.037c-.51.01-.926-.364-.877-.798.409-4.083-.835-9.581-1.598-12.234-.433-1.522-.944-3.015-.204-3.48 1.135-.706 5.144 1.053 5.678 3.393z" fill="url(#AO)"/><path d="M164.35 256.34c-.655.159-3.534.763-6.34-.433-5.181-2.198-2.975-7.472-8.683-10.773-1.257-.727-2.866-1.339-4.574-3.062-1.304-1.312-2.644-3.255-2.092-3.74.403-.353 1.647.158 2.038.322 2.891 1.186 2.717 3.152 5.553 5.09 1.484 1.016 1.731.614 3.881 2.018 1.815 1.186 3.174 2.479 3.282 2.576 2.145 1.942 2.464 2.892 5.077 3.93 3.011 1.201 5.416 1.057 5.523 1.917.109.843-2.079 1.783-3.665 2.155z" fill="url(#AP)"/><path d="M148.24 242.86l5.758 6.521c1.303 1.609 2.854 3.061 4.267 4.609 1.051 1.155 1.339 1.482 1.94 1.59 2.091.377 3.3-2.79 6.605-3.277 1.286-.189 2.391.189 4.603.957 2.211.761 7.962 3.044 7.571 4.395-.3 1.027-4.169.976-11.917.868-8.503-.117-9.891-.72-10.743-1.477-1.312-1.16-1.19-2.202-2.074-4.277-.313-.845-.8-1.74-1.46-2.684-2.007-2.887-5.114-4.41-5.505-4.599-2.668-1.272-4.26-1.048-4.927-2.366-.223-.434-.247-1.073-.247-2.355-.006-1.748-.011-2.622.348-2.775.283-.124 1.125-.113 5.781 4.87z" fill="url(#AQ)"/><path d="M201.76 245.65c0 .777-.042 1.54-.324 2.28-.024.072-.052.141-.084.21v.004c-1.243 4.329-5.733 7.712-11.094 7.999-.726.035-1.424.014-2.115-.062h-.019c-3.34-.367-6.165-2.008-7.805-4.37-.006 0-.006-.005-.012-.01-.968-1.395-1.52-3.071-1.52-4.865 0-2.862 1.418-5.498 3.682-7.461.446-.332.933-.741 1.443-1.058.144-.092.294-.108.446-.27.372-.174.762-.384 1.165-.569 1.453-.643 3.071-1.031 4.771-1.118 1.329-.072 2.602.061 3.792.358 1.839.45 3.462 1.314 4.741 2.457l.018.006c0 .107.211.21.319.318s.211.218.308.331c1.448 1.574 2.283 3.587 2.288 5.82z" fill="url(#AR)"/><path d="M188.14 256.08h-.019c-3.34-.367-6.165-2.008-7.805-4.37 2.003-5.996 6.113-9.68 12.331-11.053l1.904 1.201c.074.292.13.582.169.869.962 6.368-4.242 11.431-6.58 13.353z" fill="url(#AS)"/><path d="M201.76 245.65c0 .777-.042 1.54-.324 2.28-.03-3.643-2.542-5.821-3.798-6.685l-.697-.434-.596-1.247 1.203-.184 1.262-.199c1.845 1.656 2.945 3.92 2.95 6.469z" fill="url(#AT)"/><path d="M194.84 239.37l-.818.276-.811-.404c-4.344-1.994-8.318-.941-10.74.175 2.05-1.748 4.803-2.894 7.825-3.051 1.329-.067 2.602.056 3.792.352.355.541.542 1.144.637 1.64.08.389.118.726.115 1.012z" fill="url(#AU)"/><path d="M195.39 242.26c-1.196.286-2.501-.281-2.91-1.271s.23-2.025 1.425-2.316 2.5.281 2.908 1.267c.409.992-.228 2.029-1.423 2.32z" class="C"/><path d="m1927.1 2205.3c-28.7 20.2-62.5 35.3-99 38.6-106.9 9.7-196-69.7-198.5-177.5-2.3-98.1 67.9-183.6 161.3-205.2-29.3 33.3-35 58.7-35.3 76.5-1.2 64.2 65.4 83.9 72.4 158.9 4.6 49.4-21.3 73.1-4.5 96.1 17.8 24.5 64.1 19.9 103.6 12.6z" fill="url(#AV)" transform="matrix(.06009400000000001 0 0 .05110399999999999 80.861 141.47)" opacity=".2" style="mix-blend-mode:multiply"/><path d="M229.06 254.11c-1.845.812-3.878.01-4.376-1.769l-.787-2.795c-.162-.587-.74-.966-1.413-.925l-12.727.772c-.776.046-1.472.536-1.694 1.2l-1.082 3.199c-.692 2.07-3.293 3.435-5.68 2.934-2.156-.45-3.389-2.233-2.842-4.154l3.258-11.412c.63-2.203 3.292-3.542 5.781-2.964l1.093.255c.385.092.781.132 1.183.132l2.332-.008 8.702-.048 2.074-.009c.348 0 .69-.047 1.026-.133l.927-.241c2.043-.526 4.05.639 4.446 2.53l1.99 9.512c.324 1.548-.614 3.219-2.211 3.924z" fill="url(#AW)"/><path d="M220.63 243.64l-7.068.256c-.636.02-1.146-.486-1.129-1.134l.09-4.185 9.261-.052-.084 3.965c-.013.613-.493 1.13-1.07 1.15z" fill="url(#AX)" style="mix-blend-mode:multiply" class="B"/><path d="M228.01 254.4c-1.502.184-2.921-.618-3.323-2.06l-.787-2.795c-.162-.587-.74-.966-1.413-.925l-12.727.772c-.132.01-.258.03-.379.061.548-.558 1.269-1.089 2.206-1.364 1.863-.557 2.746.444 5.27.091 1.725-.24 1.641-.75 4.08-1.272 1.874-.398 3.323-.71 4.345-.011 1.064.727 1.141 2.177 1.166 2.689.06 1.094-.33 1.472-.325 2.188.007.684.374 1.588 1.887 2.626z" fill="url(#AY)" style="mix-blend-mode:multiply" class="B"/><path d="M211.16 242.75c-.042 1.825-1.796 3.377-3.966 3.47-2.223.096-4.027-1.36-3.985-3.26s1.911-3.456 4.129-3.475c2.17-.021 3.858 1.44 3.822 3.265z" fill="url(#AZ)"/><path d="M215.42 247.02c-.03 1.461-1.405 2.738-3.1 2.846-1.725.107-3.119-1.028-3.083-2.54.03-1.513 1.479-2.79 3.197-2.851 1.695-.063 3.017 1.078 2.986 2.545z" fill="url(#Aa)"/><path d="M214.83 247.04c-.023 1.186-1.141 2.212-2.505 2.295-1.389.086-2.506-.828-2.475-2.045.023-1.216 1.183-2.244 2.566-2.294 1.37-.058 2.439.863 2.414 2.044z" fill="url(#Ab)"/><path d="M214.35 247.08c-.018.823-.793 1.539-1.743 1.599-.967.057-1.748-.578-1.73-1.425s.829-1.569 1.79-1.606c.955-.035 1.701.604 1.683 1.432z" fill="url(#Ac)"/><path d="M214.02 247.1c-.013.663-.642 1.241-1.406 1.287-.781.046-1.406-.466-1.394-1.15.018-.68.667-1.257 1.442-1.288s1.377.486 1.358 1.151z" fill="url(#Ad)"/><path d="M224.3 246.54c-.03 1.391-1.269 2.597-2.795 2.694-1.55.097-2.807-.981-2.77-2.417.03-1.431 1.328-2.642 2.878-2.693 1.521-.056 2.717 1.027 2.687 2.416z" fill="url(#Ae)"/><path d="M223.78 246.57c-.024 1.124-1.028 2.094-2.254 2.172-1.25.076-2.253-.798-2.23-1.947s1.071-2.126 2.315-2.173c1.231-.045 2.192.823 2.169 1.948z" fill="url(#Af)"/><path d="M223.59 246.59c-.017.813-.768 1.518-1.693 1.574-.939.061-1.696-.568-1.679-1.405s.8-1.539 1.738-1.575c.926-.035 1.647.599 1.634 1.406z" fill="url(#Ag)"/><path d="M223.26 246.61c-.013.654-.618 1.221-1.364 1.267-.757.046-1.364-.466-1.346-1.135.012-.669.642-1.242 1.394-1.267.745-.031 1.335.475 1.316 1.135z" fill="url(#Ah)"/><path d="M211.2 240.75c-.263.004-.474-.178-.468-.403l.012-.732c.007-.229.229-.419.493-.419s.469.179.463.41l-.012.725c-.007.23-.222.414-.488.419z" fill="url(#Ai)"/><path d="M222.6 240.56c-.228.005-.414-.169-.409-.383l.012-.686c.006-.214.198-.388.433-.388.228-.005.414.169.409.384l-.012.679c-.006.215-.198.389-.433.394z" fill="url(#Aj)"/><path d="M208.16 240.78l-.018.813c0 .07-.029.148-.077.209l-.385.485c-.085.107-.223.174-.373.178h-.084c-.144.006-.283-.056-.367-.157l-.366-.476c-.048-.061-.073-.133-.066-.204l.011-.823c.007-.209.211-.379.458-.383l.834-.011c.241-.004.44.158.433.369z" fill="url(#Ak)"/><path d="M207.62 245.28l-.836.032c-.246.009-.438-.154-.432-.365l.011-.816c.006-.077.031-.148.084-.21l.385-.495c.084-.108.229-.174.379-.179l.078-.006c.149 0 .288.057.367.159l.366.47c.043.057.066.128.066.205l-.018.812c-.005.209-.204.383-.45.393z" fill="url(#Al)"/><path d="M204.82 242.18l.986-.021c.085-.004.174.016.246.057l.565.306c.12.067.191.184.191.307v.071c-.005.128-.082.245-.209.322l-.577.337c-.072.041-.162.067-.253.067l-.978.031c-.253.01-.452-.154-.452-.368l.018-.716c.007-.215.211-.388.463-.393z" fill="url(#Am)"/><path d="M210.1 242.43l-.012.695c-.005.205-.204.378-.438.389l-.944.025c-.09.005-.174-.015-.246-.056l-.554-.302c-.12-.061-.192-.178-.185-.306v-.067c0-.128.078-.245.204-.322l.565-.327c.072-.046.156-.067.245-.071l.945-.021c.24-.004.426.158.42.363z" fill="url(#An)"/><path d="M208.35 240.82l-.018.812c-.005.071-.03.143-.077.204l-.385.492c-.085.106-.222.173-.373.173l-.085.005c-.15 0-.281-.056-.365-.159l-.368-.475c-.048-.061-.071-.133-.071-.21l.017-.817c.006-.209.211-.383.458-.383l.835-.015c.24 0 .432.162.432.373z" fill="url(#Ao)"/><path d="M207.81 245.31l-.834.035c-.247.006-.44-.152-.44-.363l.019-.822c.006-.072.03-.144.085-.209l.384-.491c.084-.108.228-.18.372-.18l.085-.004c.15-.005.288.056.366.158l.36.465c.049.061.072.133.072.205l-.017.816c-.006.205-.204.379-.452.39z" fill="url(#Ap)"/><path d="M205 242.22l.986-.026c.084 0 .174.021.246.056l.565.307c.12.066.193.184.193.311l-.006.072c0 .122-.078.245-.204.317l-.577.338c-.079.045-.164.07-.253.07l-.98.031c-.253.005-.451-.158-.444-.367l.012-.721c.005-.21.209-.383.462-.388z" fill="url(#Aq)"/><path d="M210.28 242.46l-.018.7c0 .205-.199.378-.439.383l-.944.031c-.084 0-.168-.021-.24-.057l-.553-.3c-.12-.067-.192-.18-.192-.307l.005-.072c0-.123.078-.245.205-.317l.565-.332c.072-.041.157-.066.24-.066l.944-.021c.24-.004.432.154.427.358z" fill="url(#Ar)"/><path d="M226.25 239.3c1.76-.016 3.137 1.307 3.101 2.953s-1.467 3.041-3.227 3.118c-1.797.076-3.252-1.242-3.216-2.948s1.545-3.103 3.342-3.123z" fill="url(#As)"/><path d="M227.04 240.42c-.008.424-.38.777-.83.781-.457.01-.819-.327-.811-.755s.384-.783.841-.787c.45-.006.81.337.8.761z" fill="url(#At)"/><path d="M226.96 244.21c-.012.424-.385.786-.836.802s-.817-.311-.805-.741c.006-.429.384-.787.842-.803.451-.015.805.317.799.742z" fill="url(#Au)"/><path d="M224.16 241.61c.463-.011.829.327.817.756-.006.434-.392.792-.854.806s-.834-.326-.822-.761c.005-.433.396-.791.859-.801z" fill="url(#Av)"/><path d="M228.2 241.52c.444-.011.793.321.782.745s-.374.772-.811.783c-.446.014-.801-.317-.795-.742.013-.424.379-.776.824-.786z" fill="url(#Aw)"/><path d="M227.21 240.45c-.013.424-.38.776-.836.788-.451.009-.811-.333-.805-.762s.384-.777.84-.782c.451-.005.807.332.801.756z" fill="url(#Ax)"/><path d="M227.14 244.24c-.013.43-.385.787-.836.808-.451.015-.817-.318-.805-.747.005-.424.384-.786.841-.802.451-.015.805.318.8.741z" fill="url(#Ay)"/><path d="M224.33 241.64c.463-.009.829.333.817.761-.006.431-.391.788-.847.804-.47.016-.836-.327-.829-.756.011-.435.396-.797.859-.809z" fill="url(#Az)"/><path d="M228.37 241.55c.439-.011.787.321.781.74-.012.42-.373.772-.818.787-.438.01-.793-.323-.786-.746s.378-.771.823-.781z" fill="url(#BA)"/><path d="M203.36 256.73c-.667.133-1.365.143-2.05 0-2.156-.45-3.389-2.233-2.842-4.154l3.258-11.412c.498-1.758 2.301-2.964 4.271-3.087-.629.229-1.303.573-1.94 1.078-.379.302-2.47 1.962-2.17 4.16.048.353.278 1.585 1.383 2.443.787.608 1.369.532 1.521.975.305.9-1.949 1.555-2.176 3.051-.229 1.529 1.929 2.194 1.544 3.614-.283 1.042-1.575 1.201-1.665 2.023-.036.338.127.772.866 1.309z" fill="url(#BB)" style="mix-blend-mode:multiply" class="B"/><path d="M220.56 243.34c.163.083.33.149.492.2-.131.061-.27.097-.414.102l-7.068.256c-.636.02-1.146-.486-1.129-1.134l.078-3.609c.216.148.439.251.643.322 1.064.357 1.78-.127 2.506.363.866.578.3 1.558 1.16 2.075.732.444 1.352-.153 2.356.332.679.327.643.716 1.376 1.093z" fill="url(#BC)" style="mix-blend-mode:soft-light" class="B"/><path d="M114.11 247.97l-.115 4.921 6.257 3.567h-12.397l.745-7.875 5.51-.613zm-14.07.22l-1.676 4.43 1.225 6.644-8.491-5.907 3.353-6.737 5.589 1.57z" class="F"/><g fill="#1f3c88"><path d="M117.45 206.41l.156 1.559.043.536c.45 5.55 1.304 21.484-1.689 40.352l-1.977.025-5.583.072-2.271.027c.364-8.985.514-17.448.451-25.39-.043-5.289-.21-10.268-.602-13.619-.119-1.027-.264-1.897-.432-2.582-.096-.393-.199-.724-.313-.98h12.217z"/><path d="M101.29 210.99l.475-2.177 6.568-.312 5.205-.24c-.018.532-.157 1.389-.392 2.504-.672 3.159-2.126 8.355-3.78 13.936l-7.745 24.775-3.642-.751-5.951-1.231-1.134-.23c5.48-15.25 9.146-30.694 10.396-36.274z"/></g><path d="M98.979 218.37l6.568-.306c-.096-.393-.199-.726-.313-.982h4.85l7.523 1.558 1.221.257-1.178.281c-1.401.307-3.966.802-7.289 1.144l-4.382.322c-2.308.092-4.826.087-7.476-.098l.476-2.176z" class="F"/><path d="M105.58 235.96l2.301-8.233v-.127l3.72-1.15.157.347-3.456 1.069c-.222 1.001-1.928 6.929-2.29 8.181l-.432-.087zm7.24 5.34l.084-.363c2.578.414 4.399-.168 4.417-.175l.168.344c-.06.021-1.087.352-2.717.352-.577 0-1.236-.041-1.952-.158zm-13.782-.65l.253-.301c1.394.801 4.416.341 4.447.337l.084.362c-.066.011-.937.144-1.977.144-.962 0-2.066-.113-2.807-.542z" fill="#3a6bea"/><path d="M112.11 253.85l1.755-1.109.27.296-1.749 1.105-.276-.292zm-16.215-.6l2.387-.797.168.337-2.386.803-.169-.343z" class="C"/><path d="M111.46 197.25c5.111.531 8.311 3.177 9.602 7.937l-2.308 8.487 1.046 5.658c-6.95.576-14.002.372-21.154-.614l3.258-14.427 9.556-7.041z" fill="#ed7545"/><path d="M103.97 213.85l2.013-6.047c2.012 4.093 2.248 6.604.71 7.539l-2.723-1.492z" fill="#6e3620"/><path d="M107.1 203.87c-.241-.107-.331-.353-.204-.546l.102-.155c.127-.199.421-.276.661-.168l8.581 3.752-.553.873-8.587-3.756z" class="F"/><path d="M104.79 212.86l.367-4.145.042-.455c2.52-1.468 4.498-2.818 5.931-4.048.204-.179.53-.22.8-.117.637.245 1.76.73 2.259 1.308.485.552.206.71-.835.474l-.637-.029c.378.245.505.408.799.72l.114.122c.042.189.102.522-.029.88l-.006.04c-.079.358-.38.66-.776.797l-.246.083c.354.291.42.709.331 1.206l-4.964 2.217-2.963 1.319-.229.107.042-.479z" class="H"/><path d="M110.51 206.12l1.352-.547c.186-.071.39-.096.588-.066l1.443.205-.043.183-1.435-.208c-.158-.022-.312-.006-.457.055l-1.352.542-.096-.164zm.27 1.04l1.622-.511c.097-.034.199-.051.307-.051h.919v.189h-.919c-.08 0-.156.011-.229.031l-1.622.516-.078-.174zm.22 1.05l1.473-.46c.149-.046.313-.065.468-.05l.607.056-.024.183-.607-.056c-.12-.009-.253 0-.366.035l-1.473.462-.078-.17zm-5.84.51l.823-.916 1.96 4.114-2.963 1.319-.187-.372.367-4.145z" fill="#e28b6d"/><path d="M106.69 215.34c-2.958 2.316-5.639 3.444-8.048 3.382l1.046-4.093 7.002.711z" fill="#ba5c36"/><path d="M102.35 209.23l3.63-1.432c-.583 2.883-.03 5.254.71 7.539l-7.825 2.029c-3.089-.063-4.044-3.092-4.224-6.143-.438-7.385 6.413-13.742 15.36-13.993.605-.016 1.09-.01 1.455.021l-9.106 11.979z" fill="#ed7545"/><path d="M113.48 203.43l10.931.225-3.178 8.069-1.1 2.791-.301.766-10.932-.225 4.58-11.626z" fill="#d3dfff"/><path d="M121.23 211.72l-1.1 2.791c-.801-.843-1.208-2.094-1.22-3.756l2.32.965z" fill="#1f3c88" class="B"/><path d="M124.44 211.43c.143.94 0 2.177-1.172 2.638-.998.393-2.194.004-2.831-.686s-.962-1.517-1.466-2.264c-.47-.696-.318-1.002.45-.919-.349-1.027-.052-1.284.89-.771-.321-.41-.369-.801-.144-1.171s.629-.183 1.225.557c-.621-.903-.621-1.416 0-1.539.457-.092.938.506 1.154.752.691.762 1.322 1.609 1.665 2.53.109.279.186.571.229.873z" class="H"/><path d="M122.1 210.26l-1.063-1.985c-.024-.044 0-.102.06-.122.054-.02.12.005.144.052l1.064 1.982c.024.046 0 .102-.06.123-.011.003-.026.006-.042.006-.043 0-.084-.022-.103-.056zm-1.08.74l-1.003-1.773c-.032-.047-.007-.103.053-.124.054-.019.121-.004.144.041l1.01 1.78c.024.045 0 .101-.054.122-.016.007-.032.011-.048.011-.042 0-.084-.021-.102-.057zm-.84.6l-.867-1.359c-.03-.047-.005-.103.049-.124s.121-.009.15.036l.866 1.364c.03.042.005.099-.048.124-.016.006-.034.01-.054.01-.037 0-.078-.016-.096-.051z" fill="#e28b6d"/><path d="M117.34 203.12h3.906l-.667 1.109h-3.911l.672-1.109z" class="F"/><g fill="#ba5c36"><path d="M109.51 200.36c-.085-.041-.108-.129-.06-.189.048-.066.15-.088.228-.052 2.032 1.012 3.546.083 3.612.042.071-.047.18-.036.235.025s.041.148-.031.194c-.012.005-.775.48-1.935.48-.595 0-1.292-.123-2.049-.5zm-2.98 15.01c-1.394-3.888-.931-6.648-.762-7.405l-6.426.889c-.083.016-.174-.036-.191-.113s.047-.148.137-.158l6.923-.955-.065.204c-.012.031-.901 2.97.702 7.462.03.072-.023.148-.108.174l-.047.004c-.073 0-.144-.041-.163-.102z"/><path d="M101.46 208.36c0-.032-.198-3.097 2.373-6.235.053-.066.156-.081.235-.041s.096.133.041.194c-2.5 3.056-2.319 6.035-2.314 6.066.006.077-.065.144-.155.149h-.012c-.091 0-.163-.057-.168-.133z"/></g><path d="M113.23 193.85v3.562c0 1.15-1.083 2.081-2.422 2.081s-2.422-.931-2.422-2.081v-3.562h4.844z" class="H"/><path d="M113.23 194.04v3.128c-1.538-.422-2.39-1.368-2.555-2.837l2.555-.291z" class="F"/><path d="M115.05 189.79c.5 3.332-.035 5.195-1.604 5.59s-3.076.019-4.514-1.13l.445-4.118 3.485-1.697 2.188 1.355z" class="H"/><path d="M104.45 193.55c.096-.057.18-.123.264-.19.968-.72 1.461-1.782 1.455-2.867-.013-4.019 2.511-5.049 7.571-3.086 3.162-1.778 4.273.629 2.957 2.458-1.174 1.639-3.079 1.724-5.715.255-.769.058-1.418.75-1.946 2.075l.126.619c1.111 2.611.174 5.668-.945 7.047l-1.261-.066c.518-.577.673-1.304.48-2.177-.222.847-.552 1.604-1.141 2.135l-4.651-.25c-.733-2.616 1.105-4.84 2.806-5.953z" class="F"/><path d="M108.52 191.19c.594-.16 1.262.179 1.483.751.229.577-.077 1.17-.672 1.333s-1.263-.183-1.485-.756c-.228-.577.078-1.17.674-1.328z" class="H"/><path d="M108.96 192.49c0-.339-.324-.574-.625-.589-.061 0-.108-.046-.102-.098 0-.045.054-.085.108-.085h.006c.451.019.835.372.835.772 0 .049-.054.09-.114.09s-.108-.041-.108-.09zm5.55-1.02c.156 0 .278.103.278.231s-.122.23-.278.23-.282-.103-.282-.23.127-.231.282-.231zm-1.69-.11c.156 0 .282.103.282.23s-.126.23-.282.23-.277-.101-.277-.23.126-.23.277-.23zm.92 1.85c-.043-.035-.043-.09.006-.126.114-.092.245-.231.21-.348-.024-.106-.192-.173-.253-.194l-.078-.02.03-.588c0-.051.055-.087.115-.087.066 0 .114.046.107.092l-.023.459c.102.041.276.139.324.298.042.163-.048.336-.276.521-.025.014-.055.025-.078.025-.03 0-.06-.011-.084-.032zm-1.23.36c-.048-.036-.054-.092-.011-.128.041-.041.115-.046.155-.01.5.358 1.065.291 1.07.291.055-.009.121.026.126.076.013.048-.03.097-.089.104-.012 0-.066.009-.162.009-.229 0-.68-.046-1.089-.342z" class="F"/><path d="M111.43 192.04c.409 0 .733.27.733.603s-.324.608-.733.608c-.402 0-.734-.271-.734-.608s.332-.603.734-.603z" fill="#eb5d60" opacity=".4"/></svg>