<?xml version="1.0" encoding="utf-8"?>
<svg viewBox="46.739 0.861 282.261 343.139" xmlns="http://www.w3.org/2000/svg" xmlns:xlink="http://www.w3.org/1999/xlink">
  <defs>
    <linearGradient gradientUnits="userSpaceOnUse" x1="253.434" y1="-203.83" x2="253.434" y2="348.946" id="gradient-3">
      <stop offset="0" style="stop-color: rgba(153, 106, 246, 1)"/>
      <stop offset="1" style="stop-color: rgba(88, 14, 236, 1)"/>
    </linearGradient>
    <linearGradient gradientUnits="userSpaceOnUse" x1="190.805" y1="-96.498" x2="190.805" y2="359.173" id="gradient-2">
      <stop offset="0" style="stop-color: rgba(153, 106, 246, 1)"/>
      <stop offset="1" style="stop-color: rgba(88, 14, 236, 1)"/>
    </linearGradient>
    <linearGradient gradientUnits="userSpaceOnUse" x1="151.775" y1="-34.836" x2="151.775" y2="309.19" id="gradient-1">
      <stop offset="0" style="stop-color: rgba(153, 106, 246, 1)"/>
      <stop offset="1" style="stop-color: rgba(88, 14, 236, 1)"/>
    </linearGradient>
    <linearGradient gradientUnits="userSpaceOnUse" x1="151.775" y1="-34.836" x2="151.775" y2="309.19" id="gradient-0">
      <stop offset="0" style="stop-color: rgba(187, 218, 85, 1)"/>
      <stop offset="1" style="stop-color: rgba(135, 165, 36, 1)"/>
    </linearGradient>
    <linearGradient id="g1" x1="305.1" y1="307" x2="2365.9" y2="307" gradientTransform="matrix(0.060094, 0, 0, 0.051104, 80.860907, 141.472403)" xlink:href="#P">
      <stop stop-color="#d8dee8"/>
      <stop offset="1" stop-color="#ffffff"/>
    </linearGradient>
    <linearGradient id="P" gradientUnits="userSpaceOnUse"/>
    <linearGradient id="g2" x1="305.2" y1="307" x2="2363.3" y2="307" gradientTransform="matrix(0.060094, 0, 0, 0.051104, 80.860907, 141.472403)" xlink:href="#P">
      <stop stop-color="#ff9085"/>
      <stop offset="1" stop-color="#fb6fbb"/>
    </linearGradient>
    <linearGradient id="g3" x1="2389.4" y1="832.4" x2="2382.2" y2="1073.1" gradientTransform="matrix(0.060094, 0, 0, 0.051104, 80.860907, 141.472403)" xlink:href="#P">
      <stop stop-color="#d8dee8"/>
      <stop offset="1" stop-color="#ffffff"/>
    </linearGradient>
    <linearGradient id="g4" x1="1" y1="307" x2="642.7" y2="307" gradientTransform="matrix(0.060094, 0, 0, 0.051104, 80.860907, 141.472403)" xlink:href="#P">
      <stop stop-color="#d8dee8"/>
      <stop offset="1" stop-color="#ffffff"/>
    </linearGradient>
    <linearGradient id="g5" x1="-37.7" y1="1424.7" x2="-0.1" y2="643.4" gradientTransform="matrix(0.060094, 0, 0, 0.051104, 80.860907, 141.472403)" xlink:href="#P">
      <stop stop-color="#d8dee8"/>
      <stop offset="1" stop-color="#ffffff"/>
    </linearGradient>
    <linearGradient id="g6" x1="508.4" y1="663.1" x2="508.4" y2="1736.5" gradientTransform="matrix(0.060094, 0, 0, 0.051104, 80.860907, 141.472403)" xlink:href="#P">
      <stop stop-color="#d8dee8"/>
      <stop offset="1" stop-color="#ffffff"/>
    </linearGradient>
    <linearGradient id="g7" x1="123" y1="651.6" x2="1053.9" y2="2162.5" gradientTransform="matrix(0.060094, 0, 0, 0.051104, 80.860907, 141.472403)" xlink:href="#P">
      <stop stop-color="#d8dee8"/>
      <stop offset="1" stop-color="#ffffff"/>
    </linearGradient>
    <linearGradient id="g8" x1="351.4" y1="672.3" x2="351.4" y2="1686.6" gradientTransform="matrix(0.060094, 0, 0, 0.051104, 80.860907, 141.472403)" xlink:href="#P">
      <stop stop-color="#d8dee8"/>
      <stop offset="1" stop-color="#ffffff"/>
    </linearGradient>
    <linearGradient id="g9" x1="2598.7" y1="994.4" x2="1301" y2="1082.8" gradientTransform="matrix(0.060094, 0, 0, 0.051104, 80.860907, 141.472403)" xlink:href="#P">
      <stop stop-color="#aa80f9"/>
      <stop offset="1" stop-color="#6165d7"/>
    </linearGradient>
    <linearGradient id="g10" x1="1463.7" y1="467.2" x2="1551.7" y2="2643.7" gradientTransform="matrix(0.060094, 0, 0, 0.051104, 80.860907, 141.472403)" xlink:href="#P">
      <stop stop-color="#aa80f9"/>
      <stop offset="1" stop-color="#6165d7"/>
    </linearGradient>
    <linearGradient id="g11" x1="1193.8" y1="1792.6" x2="2723.7" y2="2872.8" gradientTransform="matrix(0.060094, 0, 0, 0.051104, 80.860907, 141.472403)" xlink:href="#P">
      <stop offset="0" stop-color="#e38ddd"/>
      <stop offset="1" stop-color="#9571f6"/>
    </linearGradient>
    <linearGradient id="g12" x1="1648.7" y1="1529.9" x2="1764.2" y2="2208.4" gradientTransform="matrix(0.060094, 0, 0, 0.051104, 80.860907, 141.472403)" xlink:href="#P">
      <stop offset="0" stop-color="#e38ddd"/>
      <stop offset="1" stop-color="#9571f6"/>
    </linearGradient>
    <linearGradient id="g13" x1="2248.3" y1="1020.3" x2="1627.2" y2="1020.3" gradientTransform="matrix(0.060094, 0, 0, 0.051104, 80.860907, 141.472403)" xlink:href="#P">
      <stop offset="0" stop-color="#e38ddd"/>
      <stop offset="1" stop-color="#9571f6"/>
    </linearGradient>
    <linearGradient id="g14" x1="909.4" y1="1813.6" x2="2457.7" y2="1236.6" gradientTransform="matrix(0.060094, 0, 0, 0.051104, 80.860907, 141.472403)" xlink:href="#P">
      <stop stop-color="#311944"/>
      <stop offset="1" stop-color="#893976"/>
    </linearGradient>
    <linearGradient id="g15" x1="1753.5" y1="1069.4" x2="1770.1" y2="1478.1" gradientTransform="matrix(0.060094, 0, 0, 0.051104, 80.860907, 141.472403)" xlink:href="#P">
      <stop stop-color="#ff9085"/>
      <stop offset="1" stop-color="#fb6fbb"/>
    </linearGradient>
    <linearGradient id="g16" x1="2521.5" y1="2339.7" x2="1821.9" y2="1082.9" gradientTransform="matrix(0.060094, 0, 0, 0.051104, 80.860907, 141.472403)" xlink:href="#P">
      <stop stop-color="#311944"/>
      <stop offset="1" stop-color="#893976"/>
    </linearGradient>
    <linearGradient id="g17" x1="2057.9" y1="1076.9" x2="1069" y2="1990.3" gradientTransform="matrix(0.060094, 0, 0, 0.051104, 80.860907, 141.472403)" xlink:href="#P">
      <stop stop-color="#ff9085"/>
      <stop offset="1" stop-color="#fb6fbb"/>
    </linearGradient>
    <linearGradient id="g18" x1="2052" y1="1104" x2="1063.1" y2="2017.4" gradientTransform="matrix(0.060094, 0, 0, 0.051104, 80.860907, 141.472403)" xlink:href="#P">
      <stop stop-color="#ff9085"/>
      <stop offset="1" stop-color="#fb6fbb"/>
    </linearGradient>
    <linearGradient id="g19" x1="1972.3" y1="1001.4" x2="983.4" y2="1914.8" gradientTransform="matrix(0.060094, 0, 0, 0.051104, 80.860907, 141.472403)" xlink:href="#P">
      <stop stop-color="#ff9085"/>
      <stop offset="1" stop-color="#fb6fbb"/>
    </linearGradient>
    <linearGradient id="g20" x1="2139.8" y1="1182.5" x2="1150.9" y2="2095.9" gradientTransform="matrix(0.060094, 0, 0, 0.051104, 80.860907, 141.472403)" xlink:href="#P">
      <stop stop-color="#ff9085"/>
      <stop offset="1" stop-color="#fb6fbb"/>
    </linearGradient>
    <linearGradient id="g21" x1="1078.3" y1="2257.7" x2="2626.6" y2="1680.8" gradientTransform="matrix(0.060094, 0, 0, 0.051104, 80.860907, 141.472403)" xlink:href="#P">
      <stop stop-color="#311944"/>
      <stop offset="1" stop-color="#893976"/>
    </linearGradient>
    <linearGradient id="g22" x1="1706.4" y1="1407.8" x2="1729.8" y2="1987" gradientTransform="matrix(0.060094, 0, 0, 0.051104, 80.860907, 141.472403)" xlink:href="#P">
      <stop stop-color="#ff9085"/>
      <stop offset="1" stop-color="#fb6fbb"/>
    </linearGradient>
    <linearGradient id="g23" x1="2349.5" y1="2411.2" x2="1669.1" y2="1188.7" gradientTransform="matrix(0.060094, 0, 0, 0.051104, 80.860907, 141.472403)" xlink:href="#P">
      <stop stop-color="#311944"/>
      <stop offset="1" stop-color="#893976"/>
    </linearGradient>
    <linearGradient id="g24" x1="2255" y1="1321" x2="1266.1" y2="2234.4" gradientTransform="matrix(0.060094, 0, 0, 0.051104, 80.860907, 141.472403)" xlink:href="#P">
      <stop stop-color="#ff9085"/>
      <stop offset="1" stop-color="#fb6fbb"/>
    </linearGradient>
    <linearGradient id="g25" x1="2239" y1="1351.6" x2="1250" y2="2264.9" gradientTransform="matrix(0.060094, 0, 0, 0.051104, 80.860907, 141.472403)" xlink:href="#P">
      <stop stop-color="#ff9085"/>
      <stop offset="1" stop-color="#fb6fbb"/>
    </linearGradient>
    <linearGradient id="g26" x1="2124.7" y1="1204" x2="1135.7" y2="2117.4" gradientTransform="matrix(0.060094, 0, 0, 0.051104, 80.860907, 141.472403)" xlink:href="#P">
      <stop stop-color="#ff9085"/>
      <stop offset="1" stop-color="#fb6fbb"/>
    </linearGradient>
    <linearGradient id="g27" x1="2373.9" y1="1473.6" x2="1384.9" y2="2387" gradientTransform="matrix(0.060094, 0, 0, 0.051104, 80.860907, 141.472403)" xlink:href="#P">
      <stop stop-color="#ff9085"/>
      <stop offset="1" stop-color="#fb6fbb"/>
    </linearGradient>
    <linearGradient id="g28" x1="2344.3" y1="1788.6" x2="2344.3" y2="1123.2" gradientTransform="matrix(0.060094, 0, 0, 0.051104, 80.860907, 141.472403)" xlink:href="#P">
      <stop stop-color="#ffc444"/>
      <stop offset="1" stop-color="#f36f56"/>
    </linearGradient>
    <linearGradient id="g29" x1="2138.6" y1="1312.1" x2="2490.6" y2="1267.9" gradientTransform="matrix(0.060094, 0, 0, 0.051104, 80.860907, 141.472403)" xlink:href="#P">
      <stop stop-color="#ffc444"/>
      <stop offset="1" stop-color="#f36f56"/>
    </linearGradient>
    <linearGradient id="g30" x1="2321.8" y1="1220" x2="2253.1" y2="1229.4" gradientTransform="matrix(0.060094, 0, 0, 0.051104, 80.860907, 141.472403)" xlink:href="#P">
      <stop stop-color="#311944"/>
      <stop offset="0.2" stop-color="#49204e"/>
      <stop offset="0.3" stop-color="#532353"/>
      <stop offset="1" stop-color="#a03976"/>
    </linearGradient>
    <linearGradient id="g31" x1="2536.2" y1="2239.8" x2="2308.6" y2="2312.9" gradientTransform="matrix(0.060094, 0, 0, 0.051104, 80.860907, 141.472403)" xlink:href="#P">
      <stop stop-color="#fcb148"/>
      <stop offset="0.3" stop-color="#ffc444"/>
      <stop offset="0.9" stop-color="#f8924f"/>
      <stop offset="1" stop-color="#f8924f"/>
    </linearGradient>
    <linearGradient id="g32" x1="2855.7" y1="1902.5" x2="2659.2" y2="2336.1" gradientTransform="matrix(0.060094, 0, 0, 0.051104, 80.860907, 141.472403)" xlink:href="#P">
      <stop stop-color="#ffdb44"/>
      <stop offset="1" stop-color="#feef06"/>
    </linearGradient>
    <linearGradient id="g33" x1="2413.4" y1="2303.8" x2="2375.5" y2="2096.7" gradientTransform="matrix(0.060094, 0, 0, 0.051104, 80.860907, 141.472403)" xlink:href="#P">
      <stop stop-color="#fcb148"/>
      <stop offset="0.3" stop-color="#ffc444"/>
      <stop offset="0.9" stop-color="#f8924f"/>
      <stop offset="1" stop-color="#f8924f"/>
    </linearGradient>
    <linearGradient id="g34" x1="2714.8" y1="1850.1" x2="2871.1" y2="2181.8" gradientTransform="matrix(0.060094, 0, 0, 0.051104, 80.860907, 141.472403)" xlink:href="#P">
      <stop stop-color="#fcb148"/>
      <stop offset="0.3" stop-color="#ffc444"/>
      <stop offset="0.9" stop-color="#f8924f"/>
      <stop offset="1" stop-color="#f8924f"/>
    </linearGradient>
    <linearGradient id="g35" x1="2623.1" y1="1827.9" x2="2704.2" y2="2131.8" gradientTransform="matrix(0.060094, 0, 0, 0.051104, 80.860907, 141.472403)" xlink:href="#P">
      <stop stop-color="#ffdb44"/>
      <stop offset="1" stop-color="#feef06"/>
    </linearGradient>
    <linearGradient id="g36" x1="2601.5" y1="1893.9" x2="2762.7" y2="2236" gradientTransform="matrix(0.060094, 0, 0, 0.051104, 80.860907, 141.472403)" xlink:href="#P">
      <stop stop-color="#fcb148"/>
      <stop offset="0.3" stop-color="#ffc444"/>
      <stop offset="0.9" stop-color="#f8924f"/>
      <stop offset="1" stop-color="#f8924f"/>
    </linearGradient>
    <linearGradient id="g37" x1="826.3" y1="1566.4" x2="969.5" y2="1200.8" gradientTransform="matrix(0.060094, 0, 0, 0.051104, 80.860907, 141.472403)" xlink:href="#P">
      <stop stop-color="#311944"/>
      <stop offset="1" stop-color="#893976"/>
    </linearGradient>
    <linearGradient id="g38" x1="1160.6" y1="1772.4" x2="1329.5" y2="1341.1" gradientTransform="matrix(0.060094, 0, 0, 0.051104, 80.860907, 141.472403)" xlink:href="#P">
      <stop stop-color="#311944"/>
      <stop offset="1" stop-color="#893976"/>
    </linearGradient>
    <linearGradient id="g39" x1="881.3" y1="1516.7" x2="1002.7" y2="1206.7" gradientTransform="matrix(0.060094, 0, 0, 0.051104, 80.860907, 141.472403)" xlink:href="#P">
      <stop stop-color="#311944"/>
      <stop offset="1" stop-color="#893976"/>
    </linearGradient>
    <linearGradient id="g40" x1="840.8" y1="1526.1" x2="974.5" y2="1184.5" gradientTransform="matrix(0.060094, 0, 0, 0.051104, 80.860907, 141.472403)" xlink:href="#P">
      <stop stop-color="#311944"/>
      <stop offset="1" stop-color="#893976"/>
    </linearGradient>
    <linearGradient id="g41" x1="1140.9" y1="1739.7" x2="1053.2" y2="1874.5" gradientTransform="matrix(0.060094, 0, 0, 0.051104, 80.860907, 141.472403)" xlink:href="#P">
      <stop stop-color="#311944"/>
      <stop offset="1" stop-color="#893976"/>
    </linearGradient>
    <linearGradient id="g42" x1="1287.4" y1="1601.6" x2="1131.2" y2="1842" gradientTransform="matrix(0.060094, 0, 0, 0.051104, 80.860907, 141.472403)" xlink:href="#P">
      <stop stop-color="#311944"/>
      <stop offset="1" stop-color="#893976"/>
    </linearGradient>
    <linearGradient id="g43" x1="1204" y1="1671.5" x2="1110.5" y2="1815.2" gradientTransform="matrix(0.060094, 0, 0, 0.051104, 80.860907, 141.472403)" xlink:href="#P">
      <stop offset="0" stop-color="#e38ddd"/>
      <stop offset="1" stop-color="#9571f6"/>
    </linearGradient>
    <linearGradient id="g44" x1="1024.3" y1="1394.5" x2="876.9" y2="1621.2" gradientTransform="matrix(0.060094, 0, 0, 0.051104, 80.860907, 141.472403)" xlink:href="#P">
      <stop stop-color="#311944"/>
      <stop offset="1" stop-color="#893976"/>
    </linearGradient>
    <linearGradient id="g45" x1="1127.6" y1="1121" x2="1037.9" y2="1293.9" gradientTransform="matrix(0.060094, 0, 0, 0.051104, 80.860907, 141.472403)" xlink:href="#P">
      <stop stop-color="#ff9085"/>
      <stop offset="1" stop-color="#fb6fbb"/>
    </linearGradient>
    <linearGradient id="g46" x1="1490.4" y1="1265.4" x2="1399.8" y2="1440.1" gradientTransform="matrix(0.060094, 0, 0, 0.051104, 80.860907, 141.472403)" xlink:href="#P">
      <stop stop-color="#ff9085"/>
      <stop offset="1" stop-color="#fb6fbb"/>
    </linearGradient>
    <linearGradient id="g47" x1="827.9" y1="2185.3" x2="827.9" y2="1995.9" gradientTransform="matrix(0.060094, 0, 0, 0.051104, 80.860907, 141.472403)" xlink:href="#P">
      <stop stop-color="#aa80f9"/>
      <stop offset="1" stop-color="#6165d7"/>
    </linearGradient>
    <linearGradient id="g48" x1="1496.9" y1="2038.9" x2="944.1" y2="2038.9" gradientTransform="matrix(0.060094, 0, 0, 0.051104, 80.860907, 141.472403)" xlink:href="#P">
      <stop stop-color="#d8dee8"/>
      <stop offset="1" stop-color="#ffffff"/>
    </linearGradient>
    <linearGradient id="g49" x1="931.5" y1="2033.3" x2="1507.2" y2="2033.3" gradientTransform="matrix(0.060094, 0, 0, 0.051104, 80.860907, 141.472403)" xlink:href="#P">
      <stop stop-color="#aa80f9"/>
      <stop offset="1" stop-color="#6165d7"/>
    </linearGradient>
    <linearGradient id="g50" x1="832.8" y1="2055.5" x2="832.8" y2="1845.3" gradientTransform="matrix(0.060094, 0, 0, 0.051104, 80.860907, 141.472403)" xlink:href="#P">
      <stop stop-color="#ffc444"/>
      <stop offset="1" stop-color="#f36f56"/>
    </linearGradient>
    <linearGradient id="g51" x1="1496.9" y1="1861.3" x2="944.1" y2="1861.3" gradientTransform="matrix(0.060094, 0, 0, 0.051104, 80.860907, 141.472403)" xlink:href="#P">
      <stop stop-color="#d8dee8"/>
      <stop offset="1" stop-color="#ffffff"/>
    </linearGradient>
    <linearGradient id="g52" x1="931.5" y1="1853.1" x2="1507.2" y2="1853.1" gradientTransform="matrix(0.060094, 0, 0, 0.051104, 80.860907, 141.472403)" xlink:href="#P">
      <stop stop-color="#ffc444"/>
      <stop offset="1" stop-color="#f36f56"/>
    </linearGradient>
    <linearGradient id="g53" x1="659.2" y1="1733.8" x2="969" y2="1733.8" gradientTransform="matrix(0.060094, 0, 0, 0.051104, 80.860907, 141.472403)" xlink:href="#P">
      <stop stop-color="#ff9085"/>
      <stop offset="1" stop-color="#fb6fbb"/>
    </linearGradient>
    <linearGradient id="g54" x1="640.4" y1="1724.3" x2="777.1" y2="1725.8" gradientTransform="matrix(0.060094, 0, 0, 0.051104, 80.860907, 141.472403)" xlink:href="#P">
      <stop stop-color="#aa80f9"/>
      <stop offset="1" stop-color="#6165d7"/>
    </linearGradient>
    <linearGradient id="g55" x1="1496.9" y1="1733.3" x2="944.1" y2="1733.3" gradientTransform="matrix(0.060094, 0, 0, 0.051104, 80.860907, 141.472403)" xlink:href="#P">
      <stop stop-color="#d8dee8"/>
      <stop offset="1" stop-color="#ffffff"/>
    </linearGradient>
    <linearGradient id="g56" x1="931.5" y1="1727.3" x2="1507.2" y2="1727.3" gradientTransform="matrix(0.060094, 0, 0, 0.051104, 80.860907, 141.472403)" xlink:href="#P">
      <stop stop-color="#aa80f9"/>
      <stop offset="1" stop-color="#6165d7"/>
    </linearGradient>
    <linearGradient id="g57" x1="931.5" y1="1841.4" x2="1507.2" y2="1841.4" gradientTransform="matrix(0.060094, 0, 0, 0.051104, 80.860907, 141.472403)" xlink:href="#P">
      <stop stop-color="#aa80f9"/>
      <stop offset="1" stop-color="#6165d7"/>
    </linearGradient>
    <linearGradient id="g58" x1="696.7" y1="1907.6" x2="674.1" y2="1874.2" gradientTransform="matrix(0.060094, 0, 0, 0.051104, 80.860907, 141.472403)" xlink:href="#P">
      <stop stop-color="#ffc444"/>
      <stop offset="1" stop-color="#f36f56"/>
    </linearGradient>
    <linearGradient id="g59" x1="697.3" y1="1898.4" x2="664.4" y2="1849.6" gradientTransform="matrix(0.060094, 0, 0, 0.051104, 80.860907, 141.472403)" xlink:href="#P">
      <stop stop-color="#aa80f9"/>
      <stop offset="1" stop-color="#6165d7"/>
    </linearGradient>
    <linearGradient id="g60" x1="1102.3" y1="1911.7" x2="1192.5" y2="1911.7" gradientTransform="matrix(0.060094, 0, 0, 0.051104, 80.860907, 141.472403)" xlink:href="#P">
      <stop stop-color="#444b8c"/>
      <stop offset="1" stop-color="#26264f"/>
    </linearGradient>
    <linearGradient id="g61" x1="1524.3" y1="1895.6" x2="1522.7" y2="2156.3" gradientTransform="matrix(0.060094, 0, 0, 0.051104, 80.860907, 141.472403)" xlink:href="#P">
      <stop stop-color="#311944"/>
      <stop offset="1" stop-color="#a03976"/>
    </linearGradient>
    <linearGradient id="g62" x1="1785.1" y1="2101.4" x2="1615.6" y2="2387.3" gradientTransform="matrix(0.060094, 0, 0, 0.051104, 80.860907, 141.472403)" xlink:href="#P">
      <stop stop-color="#ff9085"/>
      <stop offset="1" stop-color="#fb6fbb"/>
    </linearGradient>
    <linearGradient id="g63" x1="1785.1" y1="2101.4" x2="1615.6" y2="2387.3" gradientTransform="matrix(0.060094, 0, 0, 0.051104, 80.860907, 141.472403)" xlink:href="#P">
      <stop stop-color="#ff9085"/>
      <stop offset="1" stop-color="#fb6fbb"/>
    </linearGradient>
    <linearGradient id="g64" x1="1032.1" y1="1948.6" x2="1122.2" y2="1948.6" gradientTransform="matrix(0.060094, 0, 0, 0.051104, 80.860907, 141.472403)" xlink:href="#P">
      <stop stop-color="#444b8c"/>
      <stop offset="1" stop-color="#26264f"/>
    </linearGradient>
    <linearGradient id="g65" x1="1454.1" y1="1932.5" x2="1452.5" y2="2193.2" gradientTransform="matrix(0.060094, 0, 0, 0.051104, 80.860907, 141.472403)" xlink:href="#P">
      <stop stop-color="#311944"/>
      <stop offset="1" stop-color="#a03976"/>
    </linearGradient>
    <linearGradient id="g66" x1="1644.9" y1="2221.3" x2="1563.1" y2="2493.6" gradientTransform="matrix(0.060094, 0, 0, 0.051104, 80.860907, 141.472403)" xlink:href="#P">
      <stop stop-color="#ff9085"/>
      <stop offset="1" stop-color="#fb6fbb"/>
    </linearGradient>
    <linearGradient id="g67" x1="2170.3" y1="1860.4" x2="1887" y2="2340.9" gradientTransform="matrix(0.060094, 0, 0, 0.051104, 80.860907, 141.472403)" xlink:href="#P">
      <stop stop-color="#aa80f9"/>
      <stop offset="1" stop-color="#6165d7"/>
    </linearGradient>
    <linearGradient id="g68" x1="1858.4" y1="2241.9" x2="1245.7" y2="3623.6" gradientTransform="matrix(0.060094, 0, 0, 0.051104, 80.860907, 141.472403)" xlink:href="#P">
      <stop stop-color="#ff9085"/>
      <stop offset="1" stop-color="#fb6fbb"/>
    </linearGradient>
    <linearGradient id="g69" x1="2014.1" y1="2070.7" x2="1736.3" y2="2697.2" gradientTransform="matrix(0.060094, 0, 0, 0.051104, 80.860907, 141.472403)" xlink:href="#P">
      <stop stop-color="#ff9085"/>
      <stop offset="1" stop-color="#fb6fbb"/>
    </linearGradient>
    <linearGradient id="g70" x1="1915.6" y1="1877.4" x2="1867.1" y2="1986.7" gradientTransform="matrix(0.060094, 0, 0, 0.051104, 80.860907, 141.472403)" xlink:href="#P">
      <stop stop-color="#ff9085"/>
      <stop offset="1" stop-color="#fb6fbb"/>
    </linearGradient>
    <linearGradient id="g71" x1="1627.1" y1="1863.1" x2="1918.9" y2="1856.2" xlink:href="#P">
      <stop stop-color="#ff9085"/>
      <stop offset="1" stop-color="#fb6fbb"/>
    </linearGradient>
    <linearGradient id="g72" x1="2386.5" y1="1763.2" x2="2582.6" y2="2144.3" gradientTransform="matrix(0.060094, 0, 0, 0.051104, 80.860907, 141.472403)" xlink:href="#P">
      <stop stop-color="#444b8c"/>
      <stop offset="1" stop-color="#26264f"/>
    </linearGradient>
    <linearGradient id="g73" x1="2191.3" y1="1894.3" x2="2345.2" y2="1897.1" gradientTransform="matrix(0.060094, 0, 0, 0.051104, 80.860907, 141.472403)" xlink:href="#P">
      <stop stop-color="#40447e"/>
      <stop offset="1" stop-color="#3c3b6b"/>
    </linearGradient>
    <linearGradient id="g74" x1="2263.5" y1="1996.4" x2="2369.5" y2="1891.4" gradientTransform="matrix(0.060094, 0, 0, 0.051104, 80.860907, 141.472403)" xlink:href="#P">
      <stop stop-color="#444b8c"/>
      <stop offset="1" stop-color="#26264f"/>
    </linearGradient>
    <linearGradient id="g75" x1="2069.6" y1="2082.8" x2="1983.1" y2="1936" gradientTransform="matrix(0.060094, 0, 0, 0.051104, 80.860907, 141.472403)" xlink:href="#P">
      <stop stop-color="#444b8c"/>
      <stop offset="1" stop-color="#26264f"/>
    </linearGradient>
    <linearGradient id="g76" x1="2137.8" y1="2012.1" x2="2239.6" y2="2014" gradientTransform="matrix(0.060094, 0, 0, 0.051104, 80.860907, 141.472403)" xlink:href="#P">
      <stop stop-color="#444b8c"/>
      <stop offset="1" stop-color="#26264f"/>
    </linearGradient>
    <linearGradient id="g77" x1="2225.6" y1="1978.6" x2="2230.2" y2="2031.1" gradientTransform="matrix(0.060094, 0, 0, 0.051104, 80.860907, 141.472403)" xlink:href="#P">
      <stop stop-color="#444b8c"/>
      <stop offset="1" stop-color="#26264f"/>
    </linearGradient>
    <linearGradient id="g78" x1="2226.8" y1="2049.9" x2="2215.5" y2="2138.7" gradientTransform="matrix(0.060094, 0, 0, 0.051104, 80.860907, 141.472403)" xlink:href="#P">
      <stop stop-color="#444b8c"/>
      <stop offset="1" stop-color="#26264f"/>
    </linearGradient>
    <linearGradient id="g79" x1="2218.7" y1="2036" x2="2216.4" y2="2112" gradientTransform="matrix(0.060094, 0, 0, 0.051104, 80.860907, 141.472403)" xlink:href="#P">
      <stop stop-color="#444b8c"/>
      <stop offset="1" stop-color="#26264f"/>
    </linearGradient>
    <linearGradient id="g80" x1="2295.9" y1="2005.4" x2="2387.4" y2="2007.1" gradientTransform="matrix(0.060094, 0, 0, 0.051104, 80.860907, 141.472403)" xlink:href="#P">
      <stop stop-color="#444b8c"/>
      <stop offset="1" stop-color="#26264f"/>
    </linearGradient>
    <linearGradient id="g81" x1="2373.5" y1="1960.6" x2="2378.1" y2="2012.4" gradientTransform="matrix(0.060094, 0, 0, 0.051104, 80.860907, 141.472403)" xlink:href="#P">
      <stop stop-color="#444b8c"/>
      <stop offset="1" stop-color="#26264f"/>
    </linearGradient>
    <linearGradient id="g82" x1="2380.5" y1="2040.5" x2="2369.4" y2="2127.9" gradientTransform="matrix(0.060094, 0, 0, 0.051104, 80.860907, 141.472403)" xlink:href="#P">
      <stop stop-color="#444b8c"/>
      <stop offset="1" stop-color="#26264f"/>
    </linearGradient>
    <linearGradient id="g83" x1="2372.6" y1="2026.9" x2="2370.3" y2="2101.8" gradientTransform="matrix(0.060094, 0, 0, 0.051104, 80.860907, 141.472403)" xlink:href="#P">
      <stop stop-color="#444b8c"/>
      <stop offset="1" stop-color="#26264f"/>
    </linearGradient>
    <linearGradient id="g84" x1="2171.2" y1="1890.7" x2="2189.9" y2="1948.7" gradientTransform="matrix(0.060094, 0, 0, 0.051104, 80.860907, 141.472403)" xlink:href="#P">
      <stop stop-color="#aa80f9"/>
      <stop offset="1" stop-color="#6165d7"/>
    </linearGradient>
    <linearGradient id="g85" x1="2341.4" y1="1830.8" x2="2359.8" y2="1887.7" gradientTransform="matrix(0.060094, 0, 0, 0.051104, 80.860907, 141.472403)" xlink:href="#P">
      <stop stop-color="#aa80f9"/>
      <stop offset="1" stop-color="#6165d7"/>
    </linearGradient>
    <linearGradient id="g86" x1="2153.6" y1="2033.3" x2="2138.1" y2="2017.8" gradientTransform="matrix(0.060094, 0, 0, 0.051104, 80.860907, 141.472403)" xlink:href="#P">
      <stop stop-color="#aa80f9"/>
      <stop offset="1" stop-color="#6165d7"/>
    </linearGradient>
    <linearGradient id="g87" x1="2122.2" y1="2065.3" x2="2106.7" y2="2049.8" gradientTransform="matrix(0.060094, 0, 0, 0.051104, 80.860907, 141.472403)" xlink:href="#P">
      <stop stop-color="#aa80f9"/>
      <stop offset="1" stop-color="#6165d7"/>
    </linearGradient>
    <linearGradient id="g88" x1="2121.1" y1="2065.2" x2="2105.8" y2="2049.8" gradientTransform="matrix(0.060094, 0, 0, 0.051104, 80.860907, 141.472403)" xlink:href="#P">
      <stop stop-color="#aa80f9"/>
      <stop offset="1" stop-color="#6165d7"/>
    </linearGradient>
    <linearGradient id="g89" x1="2152.8" y1="2032.2" x2="2137.6" y2="2017" gradientTransform="matrix(0.060094, 0, 0, 0.051104, 80.860907, 141.472403)" xlink:href="#P">
      <stop stop-color="#aa80f9"/>
      <stop offset="1" stop-color="#6165d7"/>
    </linearGradient>
    <linearGradient id="g90" x1="2132.6" y1="1959.8" x2="2164.7" y2="2031.6" gradientTransform="matrix(0.060094, 0, 0, 0.051104, 80.860907, 141.472403)" xlink:href="#P">
      <stop stop-color="#aa80f9"/>
      <stop offset="1" stop-color="#6165d7"/>
    </linearGradient>
    <linearGradient id="g91" x1="2107.1" y1="1972" x2="2139.1" y2="2043.4" gradientTransform="matrix(0.060094, 0, 0, 0.051104, 80.860907, 141.472403)" xlink:href="#P">
      <stop stop-color="#aa80f9"/>
      <stop offset="1" stop-color="#6165d7"/>
    </linearGradient>
    <linearGradient id="g92" x1="2098.7" y1="1976.3" x2="2130.6" y2="2047.2" gradientTransform="matrix(0.060094, 0, 0, 0.051104, 80.860907, 141.472403)" xlink:href="#P">
      <stop stop-color="#aa80f9"/>
      <stop offset="1" stop-color="#6165d7"/>
    </linearGradient>
    <linearGradient id="g93" x1="2147.3" y1="1953" x2="2178.9" y2="2023.5" gradientTransform="matrix(0.060094, 0, 0, 0.051104, 80.860907, 141.472403)" xlink:href="#P">
      <stop stop-color="#aa80f9"/>
      <stop offset="1" stop-color="#6165d7"/>
    </linearGradient>
    <linearGradient id="g94" x1="2392.5" y1="2060.8" x2="2303.7" y2="1909.4" gradientTransform="matrix(0.060094, 0, 0, 0.051104, 80.860907, 141.472403)" xlink:href="#P">
      <stop stop-color="#444b8c"/>
      <stop offset="1" stop-color="#26264f"/>
    </linearGradient>
    <linearGradient id="g95" x1="2478.5" y1="2024.2" x2="2458.4" y2="2003.4" gradientTransform="matrix(0.060094, 0, 0, 0.051104, 80.860907, 141.472403)" xlink:href="#P">
      <stop stop-color="#aa80f9"/>
      <stop offset="1" stop-color="#6165d7"/>
    </linearGradient>
    <linearGradient id="g96" x1="2441.9" y1="2061.9" x2="2421.9" y2="2041.2" gradientTransform="matrix(0.060094, 0, 0, 0.051104, 80.860907, 141.472403)" xlink:href="#P">
      <stop stop-color="#aa80f9"/>
      <stop offset="1" stop-color="#6165d7"/>
    </linearGradient>
    <linearGradient id="g97" x1="2442.6" y1="2061.4" x2="2422.5" y2="2040.5" gradientTransform="matrix(0.060094, 0, 0, 0.051104, 80.860907, 141.472403)" xlink:href="#P">
      <stop stop-color="#aa80f9"/>
      <stop offset="1" stop-color="#6165d7"/>
    </linearGradient>
    <linearGradient id="g98" x1="2477.3" y1="2024.9" x2="2457.4" y2="2004.2" gradientTransform="matrix(0.060094, 0, 0, 0.051104, 80.860907, 141.472403)" xlink:href="#P">
      <stop stop-color="#aa80f9"/>
      <stop offset="1" stop-color="#6165d7"/>
    </linearGradient>
    <linearGradient id="g99" x1="2443.5" y1="1951" x2="2478.8" y2="2081.1" gradientTransform="matrix(0.060094, 0, 0, 0.051104, 80.860907, 141.472403)" xlink:href="#P">
      <stop stop-color="#aa80f9"/>
      <stop offset="1" stop-color="#6165d7"/>
    </linearGradient>
    <linearGradient id="g100" x1="2424.1" y1="1958.3" x2="2459" y2="2086.8" gradientTransform="matrix(0.060094, 0, 0, 0.051104, 80.860907, 141.472403)" xlink:href="#P">
      <stop stop-color="#aa80f9"/>
      <stop offset="1" stop-color="#6165d7"/>
    </linearGradient>
    <linearGradient id="g101" x1="2402.5" y1="1964.2" x2="2437.7" y2="2093.8" gradientTransform="matrix(0.060094, 0, 0, 0.051104, 80.860907, 141.472403)" xlink:href="#P">
      <stop stop-color="#aa80f9"/>
      <stop offset="1" stop-color="#6165d7"/>
    </linearGradient>
    <linearGradient id="g102" x1="2464.4" y1="1945" x2="2499.4" y2="2073.8" gradientTransform="matrix(0.060094, 0, 0, 0.051104, 80.860907, 141.472403)" xlink:href="#P">
      <stop stop-color="#aa80f9"/>
      <stop offset="1" stop-color="#6165d7"/>
    </linearGradient>
    <linearGradient id="g103" x1="2090.8" y1="1913.9" x2="2297.7" y2="2316" gradientTransform="matrix(0.060094, 0, 0, 0.051104, 80.860907, 141.472403)" xlink:href="#P">
      <stop stop-color="#444b8c"/>
      <stop offset="1" stop-color="#26264f"/>
    </linearGradient>
    <linearGradient id="g104" x1="2191" y1="1909.4" x2="2345.1" y2="1912.2" gradientTransform="matrix(0.060094, 0, 0, 0.051104, 80.860907, 141.472403)" xlink:href="#P">
      <stop stop-color="#aa80f9"/>
      <stop offset="1" stop-color="#6165d7"/>
    </linearGradient>
  </defs>
  <path id="path-4" style="stroke: none; stroke-linecap: butt; stroke-linejoin: miter; stroke-opacity: 1; stroke-width: 0px; fill-opacity: 0.35; fill: url(#gradient-3);" d="M 638.908 -203.83 C 614.885 -203.714 589.437 -200.719 566.834 -197.105 C 498.854 -186.226 419.816 -155.023 365.358 -105.171 C 302.827 -47.941 321.837 43.22 257.958 99.318 C 183.379 164.819 66.285 151.881 -14.952 210.398 C -66.034 247.188 -119.934 303.202 -132.673 348.946 L 437.44 348.946 L 639.542 -203.83 L 638.908 -203.83 Z" transform="matrix(-0.913519, 0.406795, -0.406795, -0.913519, 514.468018, 35.745216)"/>
  <path id="path-3" style="stroke: none; stroke-linecap: butt; stroke-linejoin: miter; stroke-opacity: 1; stroke-width: 0px; fill-opacity: 0.7; fill: url(#gradient-2);" d="M 396.32 -96.498 C 380.886 -96.403 364.979 -93.935 350.996 -90.953 C 308.943 -81.987 262.896 -56.264 235.521 -15.172 C 204.085 32.005 230.298 107.154 197.822 153.396 C 159.906 207.391 82.608 196.727 39.338 244.963 C 12.13 275.293 -13.941 321.467 -15.117 359.173 L 351.562 359.173 L 396.727 -96.498 L 396.32 -96.498 Z" transform="matrix(-0.993453, 0.114244, -0.114244, -0.993453, 395.365265, 240.0168)"/>
  <path id="path-1" style="fill-opacity: 1; stroke-linecap: butt; stroke-linejoin: miter; stroke-opacity: 1; stroke: url(#gradient-0); paint-order: stroke markers; fill: url(#gradient-1); stroke-width: 0px;" d="M 349.783 -34.836 C 336.519 -34.765 322.625 -32.9 310.335 -30.65 C 273.373 -23.881 231.399 -4.46 204.009 26.565 C 172.558 62.183 187.975 118.918 155.718 153.831 C 118.058 194.596 52.681 186.545 10.967 222.962 C -15.263 245.861 -42.013 280.722 -46.583 309.19 L 268.321 309.19 L 350.133 -34.836 L 349.783 -34.836 Z" transform="matrix(-0.971125, 0.238573, -0.238573, -0.971125, 331.894165, 234.183517)"/>
  <path class="s0" d="M 222.881 175.829 L 223.036 219.443 L 119.483 221.292 L 99.194 157.263 L 199.023 161.817 L 198.633 163.662 L 222.881 175.829 Z" style="fill: url(#g1);"/>
  <path class="s1" d="M 222.881 175.829 L 121.333 172.349 L 99.201 157.263 L 127.992 158.321 L 198.832 160.922 L 217.814 172.692 C 217.814 172.692 217.814 172.692 217.814 172.692 L 222.881 175.829 Z" style="fill: url(#g2);"/>
  <path class="s2" d="M 224.484 179.479 L 119.362 174.894 L 119.362 171.221 L 224.466 175.87 L 224.484 179.479 Z" style="fill: url(#g3);"/>
  <path class="s3" d="M 119.476 171.221 L 119.483 221.302 L 80.92 216.355 L 81.232 175.717 L 99.194 157.263 L 119.476 171.221 Z" style="fill: url(#g4);"/>
  <path class="s4" d="M 119.362 175.359 L 99.02 160.207 L 80.86 178.415 L 80.896 175.762 L 99.098 157.274 L 119.362 171.221 L 119.362 175.359 Z" style="fill: url(#g5);"/>
  <path fill-rule="evenodd" class="s5" d="M 113.197 179.115 L 113.197 210.141 L 85.198 207.386 L 85.198 179.851 L 113.197 179.115 Z M 111.442 206.953 L 111.442 181.165 L 103.924 181.303 L 103.924 206.304 L 111.442 206.953 Z M 102 206.14 L 102 181.339 L 95.042 181.466 L 95.042 205.537 L 102 206.14 Z M 93.252 205.388 L 93.252 181.503 L 86.785 181.62 L 86.785 204.832 L 93.252 205.388 Z" style="fill: rgb(255, 255, 255);"/>
  <path fill-rule="evenodd" class="s5" d="M 113.864 210.78 L 84.526 207.892 L 84.526 179.3 L 113.864 178.528 L 113.864 210.78 Z M 85.865 206.88 L 112.529 209.502 L 112.529 179.704 L 85.865 180.403 L 85.865 206.88 Z M 112.114 207.581 L 103.257 206.819 L 103.257 180.746 L 112.114 180.587 L 112.114 207.581 Z M 104.597 205.786 L 110.775 206.324 L 110.775 181.747 L 104.597 181.86 L 104.597 205.786 Z M 102.669 206.763 L 94.369 206.048 L 94.369 180.904 L 102.669 180.756 L 102.669 206.763 Z M 95.709 205.021 L 101.328 205.501 L 101.328 181.916 L 95.709 182.018 L 95.709 205.021 Z M 93.919 206.012 L 86.118 205.337 L 86.118 181.052 L 93.919 180.915 L 93.919 206.012 Z M 87.458 204.311 L 92.578 204.75 L 92.578 182.074 L 87.458 182.171 L 87.458 204.311 Z" style="fill: rgb(255, 255, 255);"/>
  <path class="s6" d="M 111.292 181.365 L 111.292 206.743 L 104.074 206.125 L 104.074 181.491 L 111.292 181.365 Z" style="fill: url(#g6);"/>
  <path class="s7" d="M 93.119 181.68 L 93.119 205.19 L 86.911 204.658 L 86.911 181.788 L 93.119 181.68 Z" style="fill: url(#g7);"/>
  <path class="s8" d="M 101.856 181.528 L 101.856 205.935 L 95.174 205.363 L 95.174 181.646 L 101.856 181.528 Z" style="fill: url(#g8);"/>
  <path class="s9" d="M 209.762 188.59 L 209.762 219.744 L 134.915 221.016 L 134.915 186.812 L 209.762 188.59 Z" style="fill: rgb(151, 166, 183);"/>
  <path class="s10" d="M 208.151 219.769 L 134.915 221.016 L 134.915 216.126 L 137.541 192.494 C 146.01 189.861 153.854 191.171 161.073 196.425 C 171.626 204.096 166.572 211.081 187.665 212.222 C 203.777 213.085 206.967 215.17 208.151 219.769 Z" style="fill: rgb(151, 166, 183); mix-blend-mode: multiply; opacity: 0.6;"/>
  <path class="s11" d="M 138.646 220.955 L 134.915 221.016 L 134.915 186.812 L 138.646 186.893 L 138.646 220.955 Z" style="fill: rgb(216, 222, 232);"/>
  <path class="s11" d="M 209.762 219.744 L 206.649 219.795 L 206.649 188.518 L 209.762 188.59 L 209.762 219.744 Z" style="fill: rgb(216, 222, 232);"/>
  <path class="s5" d="M 135.534 185.008 L 132.216 184.92 L 132.216 179.989 L 135.534 180.102 L 135.534 185.008 Z" style="fill: rgb(255, 255, 255);"/>
  <path class="s11" d="M 211.625 186.981 L 135.534 185.008 L 135.534 180.102 L 211.625 182.519 L 211.625 186.981 Z" style="fill: rgb(216, 222, 232);"/>
  <path class="s5" d="M 210.381 194.902 L 133.671 193.705 L 133.671 184.962 L 210.381 186.955 L 210.381 194.902 Z" style="fill: rgb(255, 255, 255);"/>
  <path class="s12" d="M 210.381 189.439 L 133.671 187.696 L 133.671 186.786 L 210.381 188.611 L 210.381 189.439 Z" style="fill: rgb(216, 222, 232); mix-blend-mode: multiply; opacity: 0.5;"/>
  <path class="s12" d="M 210.381 191.59 L 133.671 190.062 L 133.671 189.153 L 210.381 190.761 L 210.381 191.59 Z" style="fill: rgb(216, 222, 232); mix-blend-mode: multiply; opacity: 0.5;"/>
  <path class="s12" d="M 210.381 193.741 L 133.671 192.434 L 133.671 191.524 L 210.381 192.914 L 210.381 193.741 Z" style="fill: rgb(216, 222, 232); mix-blend-mode: multiply; opacity: 0.5;"/>
  <path class="s13" d="M 217.814 172.692 C 213.271 170.96 208.037 170.274 203.271 169.687 C 196.896 168.894 190.454 169.007 184.059 169.585 C 178.122 170.116 172.178 171.281 166.182 170.904 C 159.673 170.49 153.778 168.343 148.394 165.296 C 142.63 162.036 137.535 159.855 130.642 158.766 C 129.783 158.627 128.899 158.48 127.992 158.321 L 198.832 160.922 L 217.814 172.692 Z" style="fill: rgb(255, 255, 255); mix-blend-mode: soft-light; opacity: 0.3;"/>
  <path class="s14" d="M 195.117 199.388 L 211.763 198.75 L 214.185 193.716 L 224.984 198.367 L 224.984 198.372 C 224.984 198.372 224.99 198.377 224.99 198.377 C 224.994 198.373 224.998 198.37 225.002 198.367 C 225.765 198.601 226.318 199.251 226.318 200.033 L 226.318 243.068 C 226.318 243.875 225.728 244.503 224.93 244.668 L 214.287 250.683 L 211.967 243.282 L 198.026 241.684 C 198.026 241.679 198.026 241.677 198.026 241.677 L 195.117 241.346 C 194.203 241.238 193.543 240.406 193.543 239.501 L 193.543 201.095 C 193.543 200.186 194.203 199.425 195.117 199.388 Z" style="fill: url(#g9);"/>
  <path class="s15" d="M 174.823 194.974 L 213.157 193.599 C 213.5 193.584 213.878 193.624 214.185 193.716 C 215.195 194.007 215.971 194.805 215.971 195.766 L 215.971 248.756 C 215.971 250.003 214.665 250.902 213.181 250.743 L 174.817 246.63 C 173.615 246.502 172.75 245.475 172.75 244.362 L 172.75 197.074 C 172.75 195.959 173.615 195.02 174.823 194.974 Z" style="fill: url(#g10);"/>
  <path class="s16" d="M 173.363 197.089 C 173.363 196.342 174.006 195.715 174.812 195.689 L 213.175 194.391 C 214.167 194.355 214.948 195.004 214.948 195.836 L 214.948 248.736 C 214.948 249.568 214.161 250.161 213.175 250.055 L 174.799 246.006 C 173.993 245.919 173.363 245.246 173.363 244.499 L 173.363 197.089 Z" style="fill: url(#g11);"/>
  <path class="s17" d="M 184.834 241.831 C 184.834 241.366 185.183 241.03 185.7 241.07 L 200.411 242.389 C 200.97 242.439 201.325 242.868 201.325 243.354 L 201.325 244.484 C 201.325 244.969 200.976 245.322 200.417 245.265 L 185.748 243.84 C 185.231 243.788 184.834 243.375 184.834 242.91 L 184.834 241.831 Z" style="fill: url(#g12);"/>
  <path class="s18" d="M 179.234 246.41 C 182.305 243.799 190.754 243.502 193.291 240.672 C 193.963 239.92 194.203 238.995 193.794 237.815 C 193.743 237.654 193.679 237.491 193.602 237.324 C 193.326 236.728 193.082 236.134 192.869 235.545 C 192.674 234.987 192.507 234.434 192.37 233.885 C 191.799 231.61 191.746 229.428 192.196 227.435 C 192.324 226.879 192.491 226.341 192.694 225.82 C 192.984 225.069 193.356 224.353 193.807 223.678 C 194.39 222.81 195.106 222.008 195.952 221.282 C 196.782 220.577 197.743 219.943 198.837 219.407 C 203.392 217.147 207.833 216.142 208.53 204.438 C 208.824 199.531 210.976 196.379 213.404 194.35 C 213.668 194.126 213.951 193.91 214.226 193.716 C 215.236 194.007 215.971 194.805 215.971 195.766 L 215.971 248.756 C 215.971 250.003 214.732 250.912 213.247 250.754 L 178.645 247.044 C 178.808 246.794 179.006 246.605 179.234 246.41 Z" style="fill: url(#g13); mix-blend-mode: multiply; opacity: 0.3;"/>
  <path class="s19" d="M 193.019 199.286 C 197.798 199.173 201.752 202.542 201.752 206.804 C 201.752 211.061 197.798 214.449 193.019 214.367 C 188.362 214.29 184.673 210.924 184.673 206.85 C 184.673 202.778 188.362 199.388 193.019 199.286 Z" style="fill: url(#g14);"/>
  <path class="s20" d="M 193.019 201.427 C 196.427 201.372 199.233 203.779 199.233 206.81 C 199.233 209.839 196.427 212.262 193.019 212.226 C 189.673 212.186 187.004 209.778 187.004 206.845 C 187.004 203.912 189.673 201.484 193.019 201.427 Z" style="fill: url(#g15);"/>
  <path class="s21" d="M 193.019 203.145 C 195.334 203.12 197.232 204.76 197.232 206.814 C 197.232 208.869 195.334 210.525 193.019 210.51 C 190.735 210.494 188.897 208.849 188.897 206.84 C 188.897 204.826 190.735 203.176 193.019 203.145 Z" style="fill: rgb(255, 255, 255); mix-blend-mode: soft-light;"/>
  <path class="s22" d="M 193.019 204.382 C 194.558 204.367 195.814 205.455 195.814 206.819 C 195.814 208.179 194.558 209.283 193.019 209.277 C 191.499 209.267 190.267 208.179 190.267 206.835 C 190.267 205.491 191.499 204.392 193.019 204.382 Z" style="fill: url(#g16);"/>
  <path class="s23" d="M 198.59 201.887 C 198.788 202.056 198.788 202.332 198.59 202.506 C 198.398 202.675 198.08 202.679 197.887 202.512 C 197.694 202.348 197.694 202.072 197.887 201.898 C 198.08 201.725 198.398 201.718 198.59 201.887 Z" style="fill: url(#g17);"/>
  <path class="s24" d="M 188.278 211.032 C 188.458 211.198 188.458 211.471 188.278 211.633 C 188.092 211.797 187.792 211.792 187.605 211.623 C 187.425 211.459 187.425 211.189 187.605 211.025 C 187.792 210.862 188.092 210.867 188.278 211.032 Z" style="fill: url(#g18);"/>
  <path class="s25" d="M 187.605 202.062 C 187.792 201.893 188.092 201.887 188.278 202.051 C 188.458 202.215 188.458 202.48 188.278 202.65 C 188.092 202.819 187.792 202.823 187.605 202.659 C 187.425 202.496 187.425 202.231 187.605 202.062 Z" style="fill: url(#g19);"/>
  <path class="s26" d="M 197.887 211.113 C 198.08 210.944 198.398 210.949 198.59 211.117 C 198.788 211.291 198.788 211.567 198.59 211.736 C 198.398 211.904 198.08 211.9 197.887 211.725 C 197.694 211.556 197.694 211.281 197.887 211.113 Z" style="fill: url(#g20);"/>
  <path class="s27" d="M 193.038 217.796 C 199.967 217.976 205.778 223.163 205.778 229.377 C 205.778 235.591 199.967 240.145 193.038 239.562 C 186.355 239.006 181.108 233.849 181.108 228.028 C 181.108 222.207 186.355 217.623 193.038 217.796 Z" style="fill: url(#g21);"/>
  <path class="s28" d="M 193.038 220.888 C 197.972 221.057 202.07 224.767 202.07 229.172 C 202.07 233.578 197.972 236.844 193.038 236.47 C 188.23 236.108 184.42 232.412 184.42 228.207 C 184.42 224.006 188.23 220.725 193.038 220.888 Z" style="fill: url(#g22);"/>
  <path class="s21" d="M 193.038 223.367 C 196.39 223.504 199.15 226.034 199.15 229.015 C 199.15 231.994 196.39 234.222 193.038 233.992 C 189.751 233.767 187.125 231.243 187.125 228.355 C 187.125 225.467 189.751 223.234 193.038 223.367 Z" style="fill: rgb(255, 255, 255); mix-blend-mode: soft-light;"/>
  <path class="s29" d="M 193.038 225.145 C 195.261 225.248 197.082 226.929 197.082 228.902 C 197.082 230.874 195.261 232.356 193.038 232.213 C 190.844 232.071 189.083 230.394 189.083 228.462 C 189.083 226.536 190.844 225.048 193.038 225.145 Z" style="fill: url(#g23);"/>
  <path class="s30" d="M 201.132 221.972 C 201.42 222.233 201.42 222.632 201.132 222.866 C 200.849 223.102 200.386 223.086 200.106 222.825 C 199.822 222.57 199.822 222.17 200.106 221.936 C 200.386 221.701 200.849 221.716 201.132 221.972 Z" style="fill: url(#g24);"/>
  <path class="s31" d="M 186.229 234.324 C 186.494 234.58 186.494 234.963 186.229 235.183 C 185.964 235.402 185.538 235.371 185.28 235.111 C 185.015 234.856 185.015 234.472 185.28 234.258 C 185.538 234.037 185.964 234.069 186.229 234.324 Z" style="fill: url(#g25);"/>
  <path class="s32" d="M 185.28 221.4 C 185.538 221.169 185.964 221.185 186.229 221.43 C 186.494 221.68 186.494 222.064 186.229 222.293 C 185.964 222.519 185.538 222.503 185.28 222.253 C 185.015 222.008 185.015 221.624 185.28 221.4 Z" style="fill: url(#g26);"/>
  <path class="s33" d="M 200.106 235.305 C 200.386 235.08 200.849 235.111 201.132 235.381 C 201.42 235.647 201.42 236.047 201.132 236.276 C 200.849 236.501 200.386 236.465 200.106 236.199 C 199.822 235.934 199.822 235.535 200.106 235.305 Z" style="fill: url(#g27);"/>
  <path fill-rule="evenodd" class="s34" d="M 230.698 206.845 L 234.027 229.387 C 234.142 230.154 233.602 230.845 232.699 230.941 L 214.665 232.868 C 213.758 232.965 212.893 232.422 212.778 231.657 L 209.449 209.114 C 209.425 208.951 209.438 208.782 209.486 208.613 C 209.54 208.388 209.66 208.169 209.833 207.994 L 218.782 198.872 L 230.067 205.834 C 230.44 206.063 230.639 206.457 230.698 206.845 Z M 217.773 204.607 C 217.899 205.476 218.829 206.088 219.851 205.982 C 220.873 205.869 221.6 205.077 221.468 204.209 C 221.341 203.339 220.41 202.726 219.389 202.834 C 218.366 202.946 217.64 203.739 217.773 204.607 Z" style="fill: url(#g28);"/>
  <path class="s5" d="M 229.117 220.556 C 229.329 221.993 228.685 223.363 227.214 224.373 C 227.207 224.373 227.183 224.38 227.176 224.384 C 226.433 224.895 225.591 225.299 224.305 225.595 L 224.642 227.905 L 221.444 228.248 L 221.132 226.142 C 219.082 226.27 216.841 225.999 215.621 225.6 L 216.12 222.222 C 217.533 222.626 219.545 223.014 221.625 222.79 C 223.043 222.641 224.07 222.253 223.962 221.502 C 223.859 220.822 222.971 220.526 220.687 220.306 C 217.466 220.005 214.828 219.064 214.461 216.585 C 214.263 215.226 214.792 213.989 216.006 213.044 C 216.006 213.044 216.006 213.044 216.006 213.044 C 216.757 212.457 217.856 211.977 218.992 211.669 L 218.68 209.558 L 221.883 209.216 L 222.171 211.169 C 224.365 211.005 225.717 211.205 226.811 211.459 L 226.354 214.715 C 225.543 214.546 223.926 214.097 221.607 214.346 C 220.826 214.429 220.332 214.582 220.026 214.767 C 219.659 214.986 219.57 215.258 219.605 215.507 C 219.672 215.967 220.488 216.274 222.105 216.54 C 222.482 216.6 222.902 216.66 223.367 216.718 C 227.207 217.183 228.787 218.308 229.117 220.556 Z" style="fill: rgb(255, 255, 255);"/>
  <path class="s35" d="M 233.824 228.003 L 234.027 229.387 C 234.142 230.154 233.602 230.845 232.699 230.941 L 214.665 232.868 C 213.758 232.965 212.893 232.422 212.778 231.657 L 209.449 209.114 C 209.425 208.951 209.443 208.782 209.486 208.613 C 209.792 209.598 210.29 210.525 211.162 211.205 C 212.49 212.242 214.353 212.553 216.023 213.044 C 216.132 213.079 216.246 213.111 216.355 213.146 C 217.652 213.56 218.914 214.072 220.026 214.767 C 220.525 215.078 221 215.426 221.426 215.82 C 221.682 216.051 221.909 216.291 222.105 216.54 C 223.45 218.18 223.74 220.106 224.732 221.946 C 225.279 222.964 226.18 223.725 227.201 224.373 C 227.928 224.838 228.68 225.252 229.436 225.656 C 230.813 226.392 232.507 227.087 233.824 228.003 Z" style="fill: url(#g29); mix-blend-mode: multiply; opacity: 0.2;"/>
  <path class="s36" d="M 219.737 203.62 C 219.648 203.855 219.347 203.983 219.058 203.907 C 219.05 203.903 219.042 203.901 219.035 203.901 C 218.763 203.814 218.608 203.569 218.698 203.339 C 218.798 203.063 218.884 202.786 218.956 202.506 C 219.31 201.203 219.61 199.885 219.563 198.541 C 219.539 197.861 219.545 197.119 219.31 196.461 C 219.191 196.118 218.973 195.811 218.703 195.535 C 218.398 195.228 217.965 194.789 217.55 194.6 C 217.33 194.498 217.095 194.435 216.847 194.411 C 216.69 194.396 216.54 194.396 216.384 194.411 C 216.3 194.421 216.048 194.513 215.981 194.493 C 215.645 194.381 215.152 194.202 214.893 194.002 C 215.081 193.838 215.411 193.676 215.669 193.604 C 217.081 193.226 218.572 193.916 219.449 194.83 C 221.955 197.462 219.828 203.37 219.737 203.62 Z" style="fill: url(#g30);"/>
  <path class="s5" d="M 86.791 145.284 C 88.926 141.769 91.823 140.692 95.481 142.054 C 100.974 144.099 100.463 143.026 104.273 143.435 C 108.089 143.838 112.806 146.091 109.735 146.542 C 107.688 146.844 98.651 147.169 82.621 147.512 C 82.857 146.211 84.247 145.468 86.791 145.284 Z" style="fill: rgb(255, 255, 255);"/>
  <path class="s5" d="M 144.434 149.725 C 147.158 145.241 150.854 143.869 155.521 145.606 C 162.522 148.217 161.879 146.849 166.74 147.364 C 171.601 147.885 177.618 150.758 173.7 151.335 C 171.091 151.72 159.565 152.132 139.122 152.572 C 139.422 150.909 141.192 149.961 144.434 149.725 Z" style="fill: rgb(255, 255, 255);"/>
  <path class="s37" d="M 244.826 244.672 C 244.826 250.074 239.863 254.316 233.517 254.152 C 226.918 253.979 221.366 249.134 221.366 243.329 C 221.366 237.528 226.918 233.317 233.517 233.9 C 239.863 234.461 244.826 239.276 244.826 244.672 Z" style="fill: url(#g31);"/>
  <path class="s38" d="M 246.539 244.208 C 246.539 249.609 241.575 253.851 235.23 253.687 C 228.632 253.514 223.078 248.669 223.078 242.863 C 223.078 237.062 228.632 232.852 235.23 233.435 C 241.575 233.997 246.539 238.811 246.539 244.208 Z" style="fill: url(#g32);"/>
  <path class="s39" d="M 246.041 244.182 C 246.041 249.339 241.294 253.391 235.23 253.228 C 228.938 253.054 223.649 248.423 223.649 242.899 C 223.649 237.37 228.938 233.348 235.23 233.895 C 241.294 234.426 246.041 239.02 246.041 244.182 Z" style="fill: url(#g33);"/>
  <path class="s40" d="M 245.686 244.162 C 245.686 249.15 241.09 253.063 235.23 252.895 C 229.154 252.722 224.058 248.255 224.058 242.919 C 224.058 237.589 229.154 233.7 235.23 234.227 C 241.09 234.728 245.686 239.169 245.686 244.162 Z" style="fill: url(#g34);"/>
  <path fill-rule="evenodd" class="s41" d="M 235.17 235.924 C 235.483 235.949 235.734 236.19 235.734 236.455 L 235.734 237.375 C 236.359 237.433 236.985 237.525 237.609 237.651 C 238.07 237.743 238.527 237.851 238.98 237.978 C 239.256 238.055 239.442 238.29 239.413 238.529 L 239.28 239.685 C 239.244 239.987 238.889 240.17 238.553 240.043 C 238.252 239.927 237.946 239.829 237.634 239.751 C 237.085 239.609 236.506 239.516 235.897 239.475 L 235.734 239.46 L 235.734 242.091 C 237.364 242.481 238.559 243.002 239.328 243.656 C 240.097 244.305 240.475 245.117 240.475 246.094 C 240.475 247.146 240.056 247.989 239.209 248.628 C 238.354 249.268 237.153 249.63 235.609 249.706 L 235.609 250.718 C 235.609 250.989 235.356 251.198 235.043 251.189 L 235.031 251.189 C 234.719 251.178 234.466 250.949 234.466 250.677 L 234.466 249.682 L 234.214 249.67 C 233.489 249.643 232.794 249.581 232.129 249.482 C 231.636 249.407 231.155 249.312 230.687 249.201 C 230.404 249.129 230.212 248.898 230.235 248.654 L 230.391 247.172 C 230.428 246.85 230.807 246.665 231.161 246.783 C 231.578 246.923 232.001 247.042 232.429 247.141 C 233.094 247.287 233.769 247.383 234.454 247.427 L 234.466 244.499 C 232.904 244.172 231.738 243.687 230.968 243.043 C 230.2 242.393 229.809 241.565 229.809 240.559 C 229.809 239.516 230.23 238.709 231.065 238.146 C 231.901 237.584 233.078 237.303 234.605 237.303 L 234.605 236.369 C 234.605 236.097 234.857 235.898 235.17 235.924 Z M 234.605 239.434 C 234.124 239.465 233.749 239.578 233.48 239.771 C 233.208 239.97 233.072 240.234 233.072 240.564 C 233.072 240.878 233.199 241.138 233.45 241.346 C 233.699 241.557 234.084 241.726 234.605 241.852 L 234.605 239.434 Z M 235.609 244.734 L 235.609 247.417 C 236.133 247.417 236.536 247.31 236.817 247.096 C 237.096 246.883 237.234 246.584 237.231 246.196 C 237.234 245.841 237.106 245.547 236.846 245.312 C 236.582 245.077 236.169 244.883 235.609 244.734 Z" style="fill: url(#g35);"/>
  <path class="s42" d="M 236.961 252.824 C 236.395 252.885 235.824 252.915 235.23 252.895 C 229.154 252.722 224.058 248.255 224.058 242.919 C 224.058 238.248 227.982 234.682 233.055 234.227 C 234.724 235.336 236.221 236.752 236.479 238.433 C 236.901 241.162 233.691 242.414 233.343 245.383 C 233.036 247.928 234.545 250.784 236.961 252.824 Z" style="fill: url(#g36); mix-blend-mode: multiply; opacity: 0.3;"/>
  <path class="s9" d="M 128.779 239.378 C 122.739 238.565 118.039 232.622 118.039 226.076 C 118.039 219.524 122.739 214.423 128.779 214.69 C 135.095 214.97 140.437 220.97 140.437 228.079 C 140.437 235.188 135.095 240.232 128.779 239.378 Z" style="fill: rgb(151, 166, 183);"/>
  <path class="s43" d="M 131.063 239.43 C 130.317 239.501 129.554 239.486 128.779 239.378 C 122.739 238.565 118.039 232.622 118.039 226.076 C 118.039 219.758 122.402 214.796 128.123 214.684 C 129.71 216.351 131.014 218.365 131.634 220.776 C 132.883 225.647 130.486 228.534 130.413 234.053 C 130.39 235.586 130.552 237.375 131.063 239.43 Z" style="fill: rgb(216, 222, 232); mix-blend-mode: soft-light; opacity: 0.3;"/>
  <path fill-rule="evenodd" class="s9" d="M 141.819 228.201 C 141.819 236.153 135.828 241.76 128.779 240.773 C 122.079 239.832 116.88 233.225 116.88 225.969 C 116.88 218.712 122.079 213.034 128.779 213.294 C 135.828 213.57 141.819 220.25 141.819 228.201 Z M 140.437 228.079 C 140.437 220.97 135.095 214.97 128.779 214.69 C 122.739 214.423 118.039 219.524 118.039 226.076 C 118.039 232.622 122.739 238.565 128.779 239.378 C 135.095 240.232 140.437 235.188 140.437 228.079 Z" style="fill: rgb(151, 166, 183);"/>
  <path fill-rule="evenodd" class="s11" d="M 140.701 228.1 C 140.701 235.371 135.239 240.523 128.779 239.644 C 122.613 238.806 117.818 232.74 117.818 226.056 C 117.818 219.37 122.613 214.158 128.779 214.423 C 135.239 214.704 140.701 220.832 140.701 228.1 Z M 139.445 227.987 C 139.445 221.487 134.566 215.982 128.779 215.701 C 123.227 215.435 118.888 220.116 118.888 226.147 C 118.888 232.177 123.227 237.636 128.779 238.367 C 134.566 239.123 139.445 234.492 139.445 227.987 Z" style="fill: rgb(216, 222, 232);"/>
  <path class="s11" d="M 130.107 227.323 C 130.107 228.11 129.524 228.698 128.809 228.631 C 128.1 228.565 127.523 227.87 127.523 227.087 C 127.523 226.301 128.1 225.718 128.809 225.774 C 129.524 225.835 130.107 226.531 130.107 227.323 Z" style="fill: rgb(216, 222, 232);"/>
  <path class="s9" d="M 171.482 245.133 C 163.43 244.049 157.198 237.104 157.198 229.576 C 157.198 222.049 163.43 216.223 171.482 216.581 C 179.961 216.954 187.185 223.985 187.185 232.26 C 187.185 240.538 179.961 246.277 171.482 245.133 Z" style="fill: rgb(151, 166, 183);"/>
  <path class="s43" d="M 174.535 245.25 C 173.543 245.312 172.521 245.275 171.482 245.133 C 163.43 244.049 157.198 237.104 157.198 229.576 C 157.198 222.319 162.984 216.652 170.599 216.565 C 172.726 218.507 174.475 220.853 175.305 223.653 C 176.987 229.311 173.765 232.622 173.669 239.006 C 173.639 240.783 173.849 242.859 174.535 245.25 Z" style="fill: rgb(216, 222, 232); mix-blend-mode: soft-light; opacity: 0.3;"/>
  <path fill-rule="evenodd" class="s9" d="M 189.054 232.429 C 189.054 241.693 180.947 248.071 171.482 246.748 C 162.546 245.496 155.671 237.778 155.671 229.443 C 155.671 221.103 162.546 214.618 171.482 214.965 C 180.947 215.339 189.054 223.163 189.054 232.429 Z M 187.185 232.26 C 187.185 223.985 179.961 216.954 171.482 216.581 C 163.43 216.223 157.198 222.049 157.198 229.576 C 157.198 237.104 163.43 244.049 171.482 245.133 C 179.961 246.277 187.185 240.538 187.185 232.26 Z" style="fill: rgb(151, 166, 183);"/>
  <path fill-rule="evenodd" class="s11" d="M 187.539 232.296 C 187.539 240.757 180.148 246.619 171.482 245.439 C 163.261 244.325 156.909 237.237 156.909 229.551 C 156.909 221.871 163.261 215.916 171.482 216.268 C 180.148 216.647 187.539 223.826 187.539 232.296 Z M 185.833 232.141 C 185.833 224.573 179.251 218.124 171.482 217.751 C 164.078 217.397 158.321 222.744 158.321 229.678 C 158.321 236.614 164.078 242.991 171.482 243.963 C 179.251 244.979 185.833 239.711 185.833 232.141 Z" style="fill: rgb(216, 222, 232);"/>
  <path class="s11" d="M 173.261 231.207 C 173.261 232.127 172.48 232.796 171.519 232.704 C 170.569 232.611 169.799 231.805 169.799 230.895 C 169.799 229.99 170.569 229.321 171.519 229.403 C 172.48 229.484 173.261 230.291 173.261 231.207 Z" style="fill: rgb(216, 222, 232);"/>
  <path fill-rule="evenodd" class="s44" d="M 145.581 232.239 C 145.581 232.239 145.581 232.239 145.581 232.239 C 145.148 232.193 145.148 232.193 144.199 229.097 C 143.725 227.553 143.058 225.334 142.211 222.519 C 140.671 217.368 138.821 211.106 137.547 206.804 C 137.463 206.513 137.607 206.207 137.878 206.119 C 138.153 206.027 138.442 206.192 138.526 206.482 C 142.33 219.319 144.915 227.926 145.768 230.599 C 147.089 229.132 151.033 224.895 163.315 211.914 C 163.544 211.675 163.928 211.664 164.181 211.893 C 164.432 212.125 164.451 212.503 164.228 212.742 C 156.933 220.408 146.574 231.34 146.05 232.014 C 145.954 232.168 145.774 232.26 145.581 232.239 Z M 146.098 231.906 C 146.098 231.906 146.098 231.906 146.098 231.906 C 146.098 231.906 146.098 231.906 146.098 231.906 Z M 146.098 231.906 C 146.098 231.906 146.098 231.906 146.098 231.906 C 146.098 231.906 146.098 231.906 146.098 231.906 Z" style="fill: url(#g37);"/>
  <path fill-rule="evenodd" class="s45" d="M 171.482 231.278 C 171.17 231.252 170.911 231.018 170.85 230.731 C 170.629 230.031 167.119 221.696 161.596 208.761 C 161.465 208.46 161.609 208.113 161.914 207.99 C 162.228 207.867 162.582 208.016 162.714 208.316 C 172.107 230.246 172.119 230.516 172.125 230.701 C 172.137 231.043 171.86 231.299 171.5 231.278 C 171.496 231.278 171.491 231.278 171.482 231.278 Z M 170.838 230.629 C 170.838 230.629 170.838 230.629 170.838 230.629 C 170.838 230.629 170.838 230.629 170.838 230.629 Z M 170.838 230.629 C 170.838 230.629 170.838 230.629 170.838 230.629 C 170.838 230.629 170.838 230.629 170.838 230.629 Z" style="fill: url(#g38);"/>
  <path class="s46" d="M 162.876 210.826 L 138.922 210.187 C 138.634 210.177 138.406 209.927 138.406 209.62 C 138.406 209.319 138.634 209.078 138.922 209.084 L 162.876 209.63 C 163.212 209.635 163.484 209.912 163.484 210.244 C 163.484 210.57 163.212 210.836 162.876 210.826 Z" style="fill: url(#g39);"/>
  <path class="s47" d="M 145.587 232.239 C 145.555 232.235 145.523 232.229 145.491 232.218 L 128.575 227.373 C 128.413 227.328 128.274 227.19 128.214 227.017 C 128.154 226.837 128.172 226.648 128.274 226.511 L 139.073 211.219 C 139.247 210.984 139.571 210.939 139.8 211.128 C 140.034 211.317 140.082 211.664 139.915 211.904 L 129.506 226.556 L 145.678 231.13 C 145.972 231.211 146.17 231.524 146.116 231.825 C 146.074 232.096 145.845 232.264 145.587 232.239 Z" style="fill: url(#g40);"/>
  <path fill-rule="evenodd" class="s48" d="M 145.125 235.806 L 144.968 235.739 L 128.659 228.702 L 128.659 225.656 L 145.834 228.396 L 145.125 235.806 Z M 128.899 228.529 L 144.89 235.408 L 145.533 228.626 L 128.899 225.957 L 128.899 228.529 Z" style="fill: url(#g41);"/>
  <path class="s49" d="M 149.362 232.514 C 149.362 234.625 147.703 236.143 145.684 235.914 C 143.695 235.683 142.102 233.833 142.102 231.779 C 142.102 229.719 143.695 228.196 145.684 228.37 C 147.703 228.55 149.362 230.41 149.362 232.514 Z" style="fill: url(#g42);"/>
  <path class="s50" d="M 147.87 232.366 C 147.87 233.619 146.892 234.528 145.684 234.395 C 144.494 234.268 143.532 233.158 143.532 231.922 C 143.532 230.685 144.494 229.776 145.684 229.888 C 146.892 230.001 147.87 231.11 147.87 232.366 Z" style="fill: url(#g43);"/>
  <path class="s51" d="M 130.191 227.328 C 130.191 228.186 129.554 228.824 128.779 228.749 C 128.009 228.677 127.385 227.926 127.385 227.072 C 127.385 226.223 128.009 225.585 128.779 225.651 C 129.554 225.718 130.191 226.47 130.191 227.328 Z" style="fill: url(#g44);"/>
  <path class="s52" d="M 142.823 207.146 L 134.122 207.008 C 133.743 207.004 133.436 206.666 133.436 206.257 L 133.436 205.246 C 133.436 205.036 133.52 204.832 133.664 204.693 C 133.809 204.555 134.001 204.488 134.193 204.515 L 142.908 205.618 C 143.274 205.664 143.556 205.996 143.556 206.39 C 143.556 206.814 143.226 207.152 142.823 207.146 Z" style="fill: url(#g45);"/>
  <path class="s53" d="M 155.54 209.713 C 154.006 209.713 152.48 209.436 151.086 208.899 L 149.127 208.138 C 148.839 208.025 148.713 207.739 148.844 207.499 C 148.97 207.253 149.307 207.146 149.595 207.259 L 151.561 208.021 C 153.412 208.736 155.527 208.93 157.516 208.572 L 168.616 206.558 C 168.639 206.554 168.7 206.543 168.711 206.466 C 168.718 206.396 168.664 206.374 168.639 206.365 L 166.271 205.506 C 165.983 205.399 165.852 205.118 165.972 204.873 C 166.098 204.627 166.427 204.515 166.716 204.617 L 169.084 205.476 C 169.601 205.664 169.895 206.088 169.842 206.565 C 169.788 207.034 169.402 207.402 168.855 207.504 L 157.756 209.517 C 157.023 209.646 156.278 209.713 155.54 209.713 Z" style="fill: url(#g46);"/>
  <path class="s54" d="M 139.981 253.151 L 122.92 248.689 C 121.255 248.255 119.975 246.823 119.975 245.475 L 119.975 245.46 C 119.975 244.116 121.255 243.242 122.92 243.527 L 141.255 246.517 L 139.981 253.151 Z" style="fill: url(#g47);"/>
  <path class="s55" d="M 170.815 251.337 L 140.828 252.874 C 139.048 252.967 137.595 251.894 137.595 250.478 L 137.595 249.517 C 137.595 248.101 139.048 246.9 140.828 246.839 L 170.815 245.77 L 170.815 251.337 Z" style="fill: url(#g48);"/>
  <path class="s56" d="M 171.086 251.618 L 141.068 253.182 C 138.743 253.304 136.838 251.899 136.838 250.048 L 136.838 250.028 C 136.838 248.178 138.743 246.61 141.068 246.528 L 171.086 245.485 C 171.278 245.475 171.434 245.604 171.434 245.766 C 171.434 245.93 171.278 246.068 171.086 246.078 L 141.068 247.172 C 139.199 247.237 137.667 248.506 137.667 249.992 L 137.667 250.014 C 137.667 251.5 139.199 252.635 141.068 252.543 L 171.086 251.024 C 171.278 251.015 171.434 251.137 171.434 251.301 C 171.434 251.463 171.278 251.607 171.086 251.618 Z" style="fill: url(#g49);"/>
  <path class="s57" d="M 140.719 246.517 L 122.92 243.527 C 121.255 243.242 119.975 241.371 119.975 239.348 L 119.975 239.327 C 119.975 237.303 121.255 235.71 122.92 235.78 L 141.838 236.578 L 140.719 246.517 Z" style="fill: url(#g50);"/>
  <path class="s58" d="M 170.815 245.046 L 142.426 246.002 C 139.77 246.088 137.595 244.437 137.595 242.312 L 137.595 240.87 C 137.595 238.744 139.77 237.002 142.426 236.971 L 170.815 236.696 L 170.815 245.046 Z" style="fill: url(#g51);"/>
  <path class="s59" d="M 171.086 245.485 L 141.068 246.528 C 138.743 246.61 136.838 244.418 136.838 241.636 L 136.838 241.607 C 136.838 238.831 138.743 236.552 141.068 236.531 L 171.086 236.272 C 171.278 236.272 171.434 236.47 171.434 236.716 C 171.434 236.961 171.278 237.161 171.086 237.166 L 141.068 237.498 C 139.199 237.523 137.667 239.357 137.667 241.592 L 137.667 241.621 C 137.667 243.855 139.199 245.623 141.068 245.562 L 171.086 244.591 C 171.278 244.586 171.434 244.78 171.434 245.025 C 171.434 245.271 171.278 245.475 171.086 245.485 Z" style="fill: url(#g52);"/>
  <path class="s60" d="M 139.092 236.143 L 122.746 235.525 C 121.465 235.474 120.474 234.59 120.474 233.547 L 120.474 232.843 C 120.474 231.799 121.465 230.915 122.746 230.859 L 139.092 230.179 L 139.092 236.143 Z" style="fill: url(#g53);"/>
  <path class="s61" d="M 137.216 236.552 L 122.92 235.78 C 121.255 235.71 119.975 234.559 119.975 233.21 L 119.975 233.194 C 119.975 231.85 121.255 230.696 122.92 230.619 L 137.168 229.863 C 137.445 229.852 139.981 229.985 139.981 230.165 C 139.981 230.338 137.848 230.512 137.576 230.523 L 122.92 231.119 C 121.574 231.166 120.522 232.1 120.522 233.194 L 120.522 233.21 C 120.522 234.309 121.574 235.233 122.92 235.279 L 137.576 235.903 C 137.848 235.914 139.981 236 139.981 236.174 C 139.981 236.353 137.486 236.563 137.216 236.552 Z" style="fill: url(#g54);"/>
  <path class="s62" d="M 170.815 235.98 L 137.595 236.241 L 137.595 230.154 L 170.815 230.415 L 170.815 235.98 Z" style="fill: url(#g55);"/>
  <path class="s63" d="M 171.086 230.731 L 137.253 230.496 C 137.024 230.491 136.838 230.348 136.838 230.165 C 136.838 229.985 137.024 229.842 137.253 229.847 L 171.086 230.139 C 171.278 230.139 171.434 230.276 171.434 230.439 C 171.434 230.604 171.278 230.731 171.086 230.731 Z" style="fill: url(#g56);"/>
  <path class="s64" d="M 171.086 236.272 L 137.253 236.567 C 137.024 236.567 136.838 236.425 136.838 236.246 C 136.838 236.067 137.024 235.918 137.253 235.918 L 171.086 235.678 C 171.278 235.678 171.434 235.811 171.434 235.975 C 171.434 236.138 171.278 236.272 171.086 236.272 Z" style="fill: url(#g57);"/>
  <path class="s65" d="M 135.077 244.274 L 131.255 243.62 C 130.372 241.585 130.438 239.736 131.255 237.539 L 135.077 237.815 C 134.29 240.145 134.41 242.271 135.077 244.274 Z" style="fill: rgb(255, 255, 255); mix-blend-mode: soft-light; opacity: 0.5;"/>
  <path class="s66" d="M 126.232 238.279 L 124.152 237.539 L 121.91 238.095 C 121.694 237.074 122.232 236.314 123.527 235.816 L 127.319 232.611 L 127.432 236.005 C 126.664 236.421 126.263 237.179 126.232 238.279 Z" style="fill: url(#g58); mix-blend-mode: multiply; opacity: 0.3;"/>
  <path class="s67" d="M 123.112 232.704 L 127.319 232.611 C 125.973 233.385 125.61 235.275 126.232 238.279 C 125.029 237.878 124.171 237.397 123.659 236.839 L 121.91 238.095 C 121.221 235.523 121.621 233.726 123.112 232.704 Z" style="fill: url(#g59);"/>
  <path class="s68" d="M 152.835 242.818 C 153.31 244.902 150.689 245.919 149.764 249.17 C 149.211 251.108 150.323 253.437 150.701 255.047 C 150.81 255.502 150.413 255.925 149.865 255.937 C 149.857 255.937 149.848 255.937 149.836 255.937 C 149.319 255.946 148.91 255.573 148.953 255.139 C 149.362 251.056 148.123 245.556 147.36 242.903 C 146.922 241.382 146.411 239.889 147.156 239.424 C 148.292 238.718 152.3 240.477 152.835 242.818 Z" style="fill: url(#g60);"/>
  <path class="s69" d="M 168.574 254.464 C 167.919 254.618 165.039 255.221 162.228 254.024 C 157.054 251.828 159.253 246.553 153.55 243.252 C 152.288 242.526 150.677 241.913 148.978 240.196 C 147.673 238.877 146.333 236.936 146.879 236.45 C 147.282 236.097 148.526 236.608 148.923 236.771 C 151.807 237.957 151.639 239.925 154.469 241.862 C 155.954 242.878 156.206 242.476 158.351 243.881 C 160.172 245.066 161.53 246.359 161.639 246.457 C 163.778 248.398 164.102 249.349 166.71 250.392 C 169.721 251.587 172.125 251.444 172.233 252.302 C 172.342 253.146 170.153 254.087 168.574 254.464 Z" style="fill: url(#g61);"/>
  <path class="s70" d="M 152.456 240.972 C 154.56 243.232 156.182 244.964 158.219 247.494 C 159.516 249.103 161.073 250.554 162.479 252.103 C 163.531 253.259 163.826 253.585 164.427 253.698 C 166.519 254.071 167.72 250.908 171.026 250.417 C 172.311 250.228 173.416 250.606 175.634 251.373 C 177.84 252.134 183.596 254.418 183.207 255.768 C 182.906 256.794 179.029 256.744 171.283 256.636 C 162.786 256.524 161.398 255.916 160.539 255.16 C 159.228 253.999 159.355 252.957 158.472 250.883 C 158.159 250.037 157.673 249.143 157.012 248.198 C 154.998 245.312 151.892 243.788 151.5 243.605 C 148.839 242.327 147.246 242.552 146.574 241.238 C 146.351 240.799 146.333 240.16 146.326 238.877 C 146.321 237.13 146.321 236.256 146.675 236.103 C 146.963 235.98 147.805 235.991 152.456 240.972 Z" style="fill: url(#g62);"/>
  <path class="s71" d="M 152.456 240.972 C 154.56 243.232 156.182 244.964 158.219 247.494 C 159.516 249.103 161.073 250.554 162.479 252.103 C 163.531 253.259 163.826 253.585 164.427 253.698 C 166.519 254.071 167.72 250.908 171.026 250.417 C 172.311 250.228 173.416 250.606 175.634 251.373 C 177.84 252.134 183.596 254.418 183.207 255.768 C 182.906 256.794 179.029 256.744 171.283 256.636 C 162.786 256.524 161.398 255.916 160.539 255.16 C 159.228 253.999 159.355 252.957 158.472 250.883 C 158.159 250.037 157.673 249.143 157.012 248.198 C 154.998 245.312 151.892 243.788 151.5 243.605 C 148.839 242.327 147.246 242.552 146.574 241.238 C 146.351 240.799 146.333 240.16 146.326 238.877 C 146.321 237.13 146.321 236.256 146.675 236.103 C 146.963 235.98 147.805 235.991 152.456 240.972 Z" style="fill: url(#g63); mix-blend-mode: multiply; opacity: 0.3;"/>
  <path class="s72" d="M 148.61 244.703 C 149.084 246.788 146.471 247.805 145.545 251.056 C 144.992 252.993 146.098 255.323 146.482 256.933 C 146.585 257.388 146.194 257.811 145.648 257.822 C 145.636 257.822 145.624 257.822 145.611 257.822 C 145.101 257.832 144.685 257.458 144.734 257.024 C 145.143 252.941 143.899 247.443 143.136 244.79 C 142.703 243.268 142.192 241.775 142.932 241.31 C 144.067 240.604 148.076 242.363 148.61 244.703 Z" style="fill: url(#g64);"/>
  <path class="s73" d="M 164.349 256.344 C 163.694 256.503 160.815 257.107 158.009 255.911 C 152.828 253.713 155.034 248.439 149.326 245.138 C 148.069 244.411 146.46 243.799 144.752 242.076 C 143.448 240.764 142.108 238.821 142.66 238.336 C 143.063 237.983 144.307 238.494 144.698 238.658 C 147.589 239.844 147.415 241.81 150.251 243.748 C 151.735 244.764 151.982 244.362 154.132 245.766 C 155.947 246.952 157.306 248.245 157.414 248.342 C 159.559 250.284 159.878 251.234 162.491 252.272 C 165.502 253.473 167.907 253.329 168.014 254.189 C 168.123 255.032 165.935 255.972 164.349 256.344 Z" style="fill: url(#g65);"/>
  <path class="s74" d="M 148.237 242.859 C 150.341 245.117 151.958 246.85 153.995 249.38 C 155.298 250.989 156.849 252.441 158.262 253.989 C 159.313 255.144 159.601 255.471 160.202 255.579 C 162.293 255.956 163.502 252.789 166.807 252.302 C 168.093 252.113 169.198 252.491 171.41 253.259 C 173.621 254.02 179.372 256.303 178.981 257.654 C 178.681 258.681 174.812 258.63 167.064 258.522 C 158.561 258.405 157.173 257.802 156.321 257.045 C 155.009 255.885 155.131 254.843 154.247 252.768 C 153.934 251.923 153.447 251.028 152.787 250.084 C 150.78 247.197 147.673 245.674 147.282 245.485 C 144.614 244.213 143.022 244.437 142.355 243.119 C 142.132 242.685 142.108 242.046 142.108 240.764 C 142.102 239.016 142.097 238.142 142.456 237.989 C 142.739 237.865 143.581 237.876 148.237 242.859 Z" style="fill: url(#g66);"/>
  <path class="s75" d="M 201.757 245.648 C 201.757 246.425 201.715 247.188 201.433 247.928 C 201.409 248 201.381 248.069 201.349 248.138 L 201.349 248.142 C 200.106 252.471 195.616 255.854 190.255 256.141 C 189.529 256.176 188.831 256.155 188.14 256.079 C 188.133 256.079 188.128 256.079 188.121 256.079 C 184.781 255.712 181.956 254.071 180.316 251.709 C 180.31 251.709 180.31 251.704 180.304 251.699 C 179.336 250.304 178.784 248.628 178.784 246.834 C 178.784 243.972 180.202 241.336 182.466 239.373 C 182.912 239.041 183.399 238.632 183.909 238.315 C 184.053 238.223 184.203 238.207 184.355 238.045 C 184.727 237.871 185.117 237.661 185.52 237.476 C 186.973 236.833 188.591 236.445 190.291 236.358 C 191.62 236.286 192.893 236.419 194.083 236.716 C 195.922 237.166 197.545 238.03 198.824 239.173 L 198.842 239.179 C 198.842 239.286 199.053 239.389 199.161 239.497 C 199.27 239.603 199.372 239.715 199.469 239.828 C 200.917 241.402 201.752 243.415 201.757 245.648 Z" style="fill: url(#g67);"/>
  <path class="s76" d="M 188.14 256.079 C 188.133 256.079 188.128 256.079 188.121 256.079 C 184.781 255.712 181.956 254.071 180.316 251.709 C 182.319 245.713 186.429 242.029 192.647 240.656 L 194.551 241.857 C 194.625 242.149 194.681 242.439 194.72 242.726 C 195.682 249.094 190.478 254.157 188.14 256.079 Z" style="fill: url(#g68);"/>
  <path class="s77" d="M 201.757 245.648 C 201.757 246.425 201.715 247.188 201.433 247.928 C 201.403 244.285 198.891 242.107 197.635 241.243 C 197.354 241.049 197.122 240.904 196.938 240.809 L 196.342 239.562 L 197.545 239.378 L 198.807 239.179 C 200.652 240.835 201.752 243.099 201.757 245.648 Z" style="fill: url(#g69);"/>
  <path class="s78" d="M 194.835 239.373 L 194.017 239.649 C 193.745 239.503 193.474 239.368 193.206 239.245 C 188.862 237.251 184.888 238.304 182.466 239.42 C 184.516 237.672 187.269 236.526 190.291 236.369 C 191.62 236.302 192.893 236.425 194.083 236.721 C 194.438 237.262 194.625 237.865 194.72 238.361 C 194.8 238.75 194.838 239.087 194.835 239.373 Z" style="fill: url(#g70);"/>
  <path class="s5" d="M 195.394 242.26 C 194.198 242.546 192.893 241.979 192.484 240.989 C 192.07 240.002 192.714 238.964 193.909 238.673 C 195.106 238.381 196.409 238.954 196.817 239.94 C 197.226 240.932 196.589 241.969 195.394 242.26 Z" style="fill: rgb(255, 255, 255);"/>
  <g style="opacity: 0.2; mix-blend-mode: multiply;" transform="matrix(0.060094, 0, 0, 0.051104, 80.860901, 141.472397)">
    <path class="s79" d="m1927.1 2205.3c-28.7 20.2-62.5 35.3-99 38.6c-106.9 9.7-196-69.7-198.5-177.5c-2.3-98.1 67.9-183.6 161.3-205.2c-29.3 33.3-35 58.7-35.3 76.5c-1.2 64.2 65.4 83.9 72.4 158.9c4.6 49.4-21.3 73.1-4.5 96.1c17.8 24.5 64.1 19.9 103.6 12.6z" style="fill: url(#g71);"/>
  </g>
  <path class="s80" d="M 229.065 254.112 C 227.22 254.924 225.187 254.122 224.689 252.343 L 223.902 249.548 C 223.74 248.961 223.162 248.582 222.489 248.623 L 209.762 249.395 C 208.986 249.441 208.29 249.931 208.068 250.595 L 206.986 253.794 C 206.294 255.864 203.693 257.229 201.306 256.728 C 199.15 256.278 197.917 254.495 198.464 252.574 L 201.722 241.162 C 202.352 238.959 205.014 237.62 207.503 238.198 L 208.596 238.453 C 208.981 238.545 209.377 238.585 209.779 238.585 L 212.111 238.577 L 220.813 238.529 L 222.887 238.52 C 223.235 238.52 223.577 238.473 223.913 238.387 L 224.84 238.146 C 226.883 237.62 228.89 238.785 229.286 240.676 L 231.276 250.188 C 231.6 251.736 230.662 253.407 229.065 254.112 Z" style="fill: url(#g72);"/>
  <path class="s81" d="M 220.633 243.64 L 213.565 243.896 C 212.929 243.916 212.419 243.41 212.436 242.762 L 212.526 238.577 L 221.787 238.525 L 221.703 242.49 C 221.69 243.103 221.21 243.62 220.633 243.64 Z" style="fill: url(#g73); mix-blend-mode: multiply; opacity: 0.3;"/>
  <path class="s82" d="M 228.012 254.403 C 226.51 254.587 225.091 253.785 224.689 252.343 L 223.902 249.548 C 223.74 248.961 223.162 248.582 222.489 248.623 L 209.762 249.395 C 209.63 249.405 209.504 249.425 209.383 249.456 C 209.931 248.898 210.652 248.367 211.589 248.092 C 213.452 247.535 214.335 248.536 216.859 248.183 C 218.584 247.943 218.5 247.433 220.939 246.911 C 222.813 246.513 224.262 246.201 225.284 246.9 C 226.348 247.627 226.425 249.077 226.45 249.589 C 226.51 250.683 226.12 251.061 226.125 251.777 C 226.132 252.461 226.499 253.365 228.012 254.403 Z" style="fill: url(#g74); mix-blend-mode: multiply; opacity: 0.3;"/>
  <path class="s83" d="M 211.156 242.751 C 211.114 244.576 209.36 246.128 207.19 246.221 C 204.967 246.317 203.163 244.861 203.205 242.961 C 203.247 241.06 205.116 239.505 207.334 239.486 C 209.504 239.465 211.192 240.926 211.156 242.751 Z" style="fill: url(#g75);"/>
  <path class="s84" d="M 215.416 247.019 C 215.386 248.48 214.011 249.757 212.316 249.865 C 210.591 249.972 209.197 248.837 209.233 247.325 C 209.263 245.812 210.712 244.535 212.43 244.474 C 214.125 244.411 215.447 245.552 215.416 247.019 Z" style="fill: url(#g76);"/>
  <path class="s85" d="M 214.833 247.044 C 214.81 248.23 213.692 249.256 212.328 249.339 C 210.939 249.425 209.822 248.511 209.853 247.294 C 209.876 246.078 211.036 245.05 212.419 245 C 213.789 244.942 214.858 245.863 214.833 247.044 Z" style="fill: url(#g77);"/>
  <path class="s86" d="M 214.347 247.08 C 214.329 247.903 213.554 248.619 212.604 248.679 C 211.637 248.736 210.856 248.101 210.874 247.254 C 210.892 246.405 211.703 245.685 212.664 245.648 C 213.619 245.613 214.365 246.252 214.347 247.08 Z" style="fill: url(#g78);"/>
  <path class="s87" d="M 214.016 247.096 C 214.003 247.759 213.374 248.337 212.61 248.383 C 211.829 248.429 211.204 247.917 211.216 247.233 C 211.234 246.553 211.883 245.976 212.658 245.945 C 213.428 245.914 214.035 246.431 214.016 247.096 Z" style="fill: url(#g79);"/>
  <path class="s88" d="M 224.305 246.542 C 224.275 247.933 223.036 249.139 221.51 249.236 C 219.96 249.333 218.703 248.255 218.74 246.819 C 218.77 245.388 220.068 244.177 221.618 244.126 C 223.139 244.07 224.335 245.153 224.305 246.542 Z" style="fill: url(#g80);"/>
  <path class="s89" d="M 223.776 246.569 C 223.752 247.693 222.748 248.663 221.522 248.741 C 220.272 248.817 219.269 247.943 219.292 246.794 C 219.317 245.644 220.363 244.668 221.607 244.621 C 222.838 244.576 223.799 245.444 223.776 246.569 Z" style="fill: url(#g81);"/>
  <path class="s90" d="M 223.589 246.589 C 223.572 247.402 222.821 248.107 221.896 248.163 C 220.957 248.224 220.2 247.595 220.217 246.758 C 220.236 245.925 221.017 245.219 221.955 245.183 C 222.881 245.148 223.602 245.782 223.589 246.589 Z" style="fill: url(#g82);"/>
  <path class="s91" d="M 223.265 246.61 C 223.252 247.264 222.647 247.831 221.901 247.877 C 221.144 247.923 220.537 247.411 220.555 246.742 C 220.567 246.073 221.197 245.5 221.949 245.475 C 222.694 245.444 223.284 245.95 223.265 246.61 Z" style="fill: url(#g83);"/>
  <path class="s92" d="M 211.197 240.753 C 210.934 240.757 210.723 240.575 210.729 240.35 L 210.741 239.618 C 210.748 239.389 210.97 239.199 211.234 239.199 C 211.493 239.195 211.703 239.378 211.697 239.609 L 211.685 240.334 C 211.678 240.564 211.463 240.748 211.197 240.753 Z" style="fill: url(#g84);"/>
  <path class="s93" d="M 222.598 240.559 C 222.37 240.564 222.184 240.39 222.189 240.176 L 222.201 239.49 C 222.207 239.276 222.399 239.102 222.634 239.102 C 222.862 239.097 223.048 239.271 223.043 239.486 L 223.031 240.165 C 223.025 240.38 222.833 240.554 222.598 240.559 Z" style="fill: url(#g85);"/>
  <path class="s94" d="M 208.163 240.779 L 208.145 241.592 C 208.145 241.662 208.116 241.74 208.068 241.801 L 207.683 242.286 C 207.598 242.393 207.46 242.46 207.31 242.464 L 207.226 242.464 C 207.082 242.47 206.943 242.408 206.859 242.307 L 206.493 241.831 C 206.445 241.77 206.42 241.698 206.427 241.627 L 206.438 240.804 C 206.445 240.595 206.649 240.425 206.896 240.421 L 207.73 240.41 C 207.971 240.406 208.17 240.568 208.163 240.779 Z" style="fill: url(#g86);"/>
  <path class="s95" d="M 207.623 245.275 L 206.787 245.307 C 206.541 245.316 206.349 245.153 206.355 244.942 L 206.366 244.126 C 206.372 244.049 206.397 243.978 206.45 243.916 L 206.835 243.421 C 206.919 243.313 207.064 243.247 207.214 243.242 L 207.292 243.236 C 207.441 243.236 207.58 243.293 207.659 243.395 L 208.025 243.865 C 208.068 243.922 208.091 243.993 208.091 244.07 L 208.073 244.882 C 208.068 245.091 207.869 245.265 207.623 245.275 Z" style="fill: url(#g87);"/>
  <path class="s96" d="M 204.816 242.179 L 205.802 242.158 C 205.887 242.154 205.976 242.174 206.048 242.215 L 206.613 242.521 C 206.733 242.588 206.804 242.705 206.804 242.828 L 206.804 242.899 C 206.799 243.027 206.722 243.144 206.595 243.221 L 206.018 243.558 C 205.946 243.599 205.856 243.625 205.765 243.625 L 204.787 243.656 C 204.534 243.666 204.335 243.502 204.335 243.288 L 204.353 242.572 C 204.36 242.357 204.564 242.184 204.816 242.179 Z" style="fill: url(#g88);"/>
  <path class="s97" d="M 210.098 242.429 L 210.086 243.124 C 210.081 243.329 209.882 243.502 209.648 243.513 L 208.704 243.538 C 208.614 243.543 208.53 243.523 208.458 243.482 L 207.904 243.18 C 207.784 243.119 207.712 243.002 207.719 242.874 L 207.719 242.807 C 207.719 242.679 207.797 242.562 207.923 242.485 L 208.488 242.158 C 208.56 242.112 208.644 242.091 208.733 242.087 L 209.678 242.066 C 209.918 242.062 210.104 242.224 210.098 242.429 Z" style="fill: url(#g89);"/>
  <path class="s98" d="M 208.349 240.815 L 208.331 241.627 C 208.326 241.698 208.301 241.77 208.254 241.831 L 207.869 242.323 C 207.784 242.429 207.647 242.496 207.496 242.496 L 207.411 242.501 C 207.261 242.501 207.13 242.445 207.046 242.342 L 206.678 241.867 C 206.63 241.806 206.607 241.734 206.607 241.657 L 206.624 240.84 C 206.63 240.631 206.835 240.457 207.082 240.457 L 207.917 240.442 C 208.157 240.442 208.349 240.604 208.349 240.815 Z" style="fill: url(#g90);"/>
  <path class="s99" d="M 207.808 245.307 L 206.974 245.342 C 206.727 245.348 206.534 245.19 206.534 244.979 L 206.553 244.157 C 206.559 244.085 206.583 244.013 206.638 243.948 L 207.022 243.457 C 207.106 243.349 207.25 243.277 207.394 243.277 L 207.479 243.273 C 207.629 243.268 207.767 243.329 207.845 243.431 L 208.205 243.896 C 208.254 243.957 208.277 244.029 208.277 244.101 L 208.26 244.917 C 208.254 245.122 208.056 245.296 207.808 245.307 Z" style="fill: url(#g91);"/>
  <path class="s100" d="M 205.002 242.215 L 205.988 242.189 C 206.072 242.189 206.162 242.21 206.234 242.245 L 206.799 242.552 C 206.919 242.618 206.992 242.736 206.992 242.863 L 206.986 242.935 C 206.986 243.057 206.908 243.18 206.782 243.252 L 206.205 243.59 C 206.126 243.635 206.041 243.66 205.952 243.66 L 204.972 243.691 C 204.719 243.696 204.521 243.533 204.528 243.324 L 204.54 242.603 C 204.545 242.393 204.749 242.22 205.002 242.215 Z" style="fill: url(#g92);"/>
  <path class="s101" d="M 210.285 242.46 L 210.267 243.16 C 210.267 243.365 210.068 243.538 209.828 243.543 L 208.884 243.574 C 208.8 243.574 208.716 243.553 208.644 243.517 L 208.091 243.217 C 207.971 243.15 207.899 243.037 207.899 242.91 L 207.904 242.838 C 207.904 242.715 207.982 242.593 208.109 242.521 L 208.674 242.189 C 208.746 242.148 208.831 242.123 208.914 242.123 L 209.858 242.102 C 210.098 242.098 210.29 242.256 210.285 242.46 Z" style="fill: url(#g93);"/>
  <path class="s102" d="M 226.246 239.297 C 228.006 239.281 229.383 240.604 229.347 242.25 C 229.31 243.896 227.88 245.291 226.12 245.368 C 224.323 245.444 222.868 244.126 222.904 242.42 C 222.94 240.712 224.449 239.317 226.246 239.297 Z" style="fill: url(#g94);"/>
  <path class="s103" d="M 227.04 240.416 C 227.032 240.84 226.66 241.193 226.21 241.197 C 225.753 241.207 225.391 240.87 225.399 240.442 C 225.41 240.011 225.783 239.659 226.24 239.655 C 226.69 239.649 227.05 239.992 227.04 240.416 Z" style="fill: url(#g95);"/>
  <path class="s104" d="M 226.961 244.208 C 226.949 244.632 226.576 244.994 226.125 245.01 C 225.675 245.03 225.308 244.699 225.32 244.269 C 225.326 243.84 225.704 243.482 226.162 243.466 C 226.613 243.451 226.967 243.783 226.961 244.208 Z" style="fill: url(#g96);"/>
  <path class="s105" d="M 224.155 241.607 C 224.618 241.596 224.984 241.934 224.972 242.363 C 224.966 242.797 224.58 243.155 224.118 243.169 C 223.655 243.185 223.284 242.843 223.296 242.408 C 223.301 241.975 223.692 241.617 224.155 241.607 Z" style="fill: url(#g97);"/>
  <path class="s106" d="M 228.199 241.515 C 228.643 241.504 228.992 241.836 228.981 242.26 C 228.973 242.679 228.607 243.032 228.17 243.043 C 227.724 243.057 227.369 242.726 227.375 242.301 C 227.388 241.877 227.754 241.525 228.199 241.515 Z" style="fill: url(#g98);"/>
  <path class="s107" d="M 227.214 240.446 C 227.201 240.87 226.834 241.222 226.378 241.234 C 225.927 241.243 225.567 240.901 225.573 240.472 C 225.584 240.043 225.957 239.695 226.413 239.69 C 226.864 239.685 227.22 240.022 227.214 240.446 Z" style="fill: url(#g99);"/>
  <path class="s108" d="M 227.136 244.238 C 227.123 244.668 226.751 245.025 226.3 245.046 C 225.849 245.061 225.483 244.728 225.495 244.299 C 225.5 243.875 225.879 243.513 226.336 243.497 C 226.787 243.482 227.141 243.815 227.136 244.238 Z" style="fill: url(#g100);"/>
  <path class="s109" d="M 224.329 241.636 C 224.792 241.627 225.158 241.969 225.146 242.397 C 225.14 242.828 224.755 243.185 224.299 243.201 C 223.829 243.217 223.463 242.874 223.47 242.445 C 223.481 242.01 223.866 241.648 224.329 241.636 Z" style="fill: url(#g101);"/>
  <path class="s110" d="M 228.373 241.551 C 228.812 241.54 229.16 241.872 229.154 242.291 C 229.142 242.711 228.781 243.063 228.336 243.078 C 227.898 243.088 227.543 242.755 227.55 242.332 C 227.562 241.909 227.928 241.561 228.373 241.551 Z" style="fill: url(#g102);"/>
  <path class="s111" d="M 203.356 256.728 C 202.689 256.861 201.991 256.871 201.306 256.728 C 199.15 256.278 197.917 254.495 198.464 252.574 L 201.722 241.162 C 202.22 239.404 204.023 238.198 205.993 238.075 C 205.364 238.304 204.69 238.648 204.053 239.153 C 203.674 239.455 201.583 241.115 201.883 243.313 C 201.931 243.666 202.161 244.898 203.266 245.756 C 204.053 246.364 204.635 246.288 204.787 246.731 C 205.092 247.631 202.838 248.286 202.611 249.782 C 202.382 251.311 204.54 251.976 204.155 253.396 C 203.872 254.438 202.58 254.597 202.49 255.419 C 202.454 255.757 202.617 256.191 203.356 256.728 Z" style="fill: url(#g103); mix-blend-mode: multiply; opacity: 0.3;"/>
  <path class="s112" d="M 220.555 243.338 C 220.718 243.421 220.885 243.487 221.047 243.538 C 220.916 243.599 220.777 243.635 220.633 243.64 L 213.565 243.896 C 212.929 243.916 212.419 243.41 212.436 242.762 L 212.514 239.153 C 212.73 239.301 212.953 239.404 213.157 239.475 C 214.221 239.832 214.937 239.348 215.663 239.838 C 216.529 240.416 215.963 241.396 216.823 241.913 C 217.555 242.357 218.175 241.76 219.179 242.245 C 219.858 242.572 219.822 242.961 220.555 243.338 Z" style="fill: url(#g104); mix-blend-mode: soft-light; opacity: 0.3;"/>
  <path class="s113" d="M 114.11 247.969 L 113.995 252.89 L 120.252 256.457 L 107.855 256.457 L 108.6 248.582 L 114.11 247.969 Z" style="fill: rgb(16, 32, 72);"/>
  <path class="s113" d="M 100.042 248.194 L 98.366 252.624 L 99.591 259.268 L 91.1 253.361 L 94.453 246.624 L 100.042 248.194 Z" style="fill: rgb(16, 32, 72);"/>
  <path class="s114" d="M 117.451 206.406 C 117.491 206.766 117.544 207.286 117.607 207.965 C 117.62 208.133 117.637 208.312 117.65 208.501 C 118.1 214.051 118.954 229.985 115.961 248.853 L 113.984 248.878 L 108.401 248.95 L 106.13 248.977 C 106.494 239.992 106.644 231.529 106.581 223.587 C 106.538 218.298 106.371 213.319 105.979 209.968 C 105.86 208.941 105.715 208.071 105.547 207.386 C 105.451 206.993 105.348 206.662 105.234 206.406 L 117.451 206.406 Z" style="fill: rgb(31, 60, 136);"/>
  <path class="s114" d="M 101.292 210.99 C 101.5 210.056 101.659 209.33 101.767 208.813 L 108.335 208.501 L 113.54 208.261 C 113.522 208.793 113.383 209.65 113.148 210.765 C 112.476 213.924 111.022 219.12 109.368 224.701 C 107.073 232.418 104.491 240.676 101.623 249.476 L 97.981 248.725 L 92.03 247.494 L 90.896 247.264 C 96.376 232.014 100.042 216.57 101.292 210.99 Z" style="fill: rgb(31, 60, 136);"/>
  <path class="s113" d="M 98.979 218.369 L 105.547 218.063 C 105.451 217.67 105.348 217.337 105.234 217.081 L 110.084 217.081 L 117.607 218.639 L 118.828 218.896 C 118.551 218.971 118.158 219.064 117.65 219.177 C 116.249 219.484 113.684 219.979 110.361 220.321 C 109.015 220.46 107.548 220.577 105.979 220.643 C 103.671 220.735 101.153 220.73 98.503 220.545 C 98.712 219.617 98.871 218.89 98.979 218.369 Z" style="fill: rgb(16, 32, 72);"/>
  <path class="s115" d="M 105.577 235.964 C 106.485 232.806 107.855 228.008 107.878 227.731 L 107.878 227.604 L 111.598 226.454 L 111.755 226.801 L 108.299 227.87 C 108.077 228.871 106.371 234.799 106.009 236.051 L 105.577 235.964 Z" style="fill: rgb(58, 107, 234);"/>
  <path class="s115" d="M 112.824 241.295 L 112.908 240.932 C 115.486 241.346 117.307 240.764 117.325 240.757 L 117.493 241.101 C 117.433 241.122 116.406 241.453 114.776 241.453 C 114.199 241.453 113.54 241.412 112.824 241.295 Z" style="fill: rgb(58, 107, 234);"/>
  <path class="s115" d="M 99.038 240.651 L 99.291 240.35 C 100.685 241.151 103.707 240.691 103.738 240.687 L 103.822 241.049 C 103.756 241.06 102.885 241.193 101.845 241.193 C 100.883 241.193 99.779 241.08 99.038 240.651 Z" style="fill: rgb(58, 107, 234);"/>
  <path class="s5" d="M 112.109 253.851 L 113.864 252.742 L 114.134 253.038 L 112.385 254.143 L 112.109 253.851 Z" style="fill: rgb(255, 255, 255);"/>
  <path class="s5" d="M 95.895 253.253 L 98.282 252.456 L 98.45 252.793 L 96.064 253.596 L 95.895 253.253 Z" style="fill: rgb(255, 255, 255);"/>
  <path class="s116" d="M 111.455 197.253 C 116.566 197.784 119.766 200.43 121.057 205.19 L 118.749 213.677 L 119.795 219.335 C 112.845 219.911 105.793 219.707 98.641 218.721 L 101.899 204.294 L 111.455 197.253 Z" style="fill: rgb(237, 117, 69);"/>
  <path class="s117" d="M 103.966 213.847 L 105.979 207.8 C 107.991 211.893 108.227 214.404 106.689 215.339 L 103.966 213.847 Z" style="fill: rgb(110, 54, 32);"/>
  <path class="s113" d="M 107.097 203.871 C 106.856 203.764 106.766 203.518 106.893 203.325 L 106.995 203.17 C 107.122 202.971 107.416 202.894 107.656 203.002 L 116.237 206.754 L 115.684 207.627 L 107.097 203.871 Z" style="fill: rgb(16, 32, 72);"/>
  <path class="s118" d="M 104.789 212.861 L 105.156 208.716 L 105.198 208.261 C 107.718 206.793 109.696 205.443 111.129 204.213 C 111.333 204.034 111.659 203.993 111.929 204.096 C 112.566 204.341 113.689 204.826 114.188 205.404 C 114.673 205.956 114.394 206.114 113.353 205.878 L 112.716 205.849 C 113.094 206.094 113.221 206.257 113.515 206.569 L 113.629 206.691 C 113.671 206.88 113.731 207.213 113.6 207.571 L 113.594 207.611 C 113.515 207.969 113.214 208.271 112.818 208.408 L 112.572 208.491 C 112.926 208.782 112.992 209.2 112.903 209.697 L 107.939 211.914 L 104.976 213.233 L 104.747 213.34 L 104.789 212.861 Z" style="fill: rgb(249, 179, 132);"/>
  <path class="s119" d="M 110.511 206.119 L 111.863 205.572 C 112.049 205.501 112.253 205.476 112.451 205.506 L 113.894 205.711 L 113.851 205.894 L 112.416 205.686 C 112.258 205.664 112.104 205.68 111.959 205.741 L 110.607 206.283 L 110.511 206.119 Z" style="fill: rgb(226, 139, 109);"/>
  <path class="s119" d="M 110.781 207.161 L 112.403 206.65 C 112.5 206.616 112.602 206.599 112.71 206.599 L 113.629 206.599 L 113.629 206.788 L 112.71 206.788 C 112.63 206.788 112.554 206.799 112.481 206.819 L 110.859 207.335 L 110.781 207.161 Z" style="fill: rgb(226, 139, 109);"/>
  <path class="s119" d="M 111.003 208.209 L 112.476 207.749 C 112.625 207.703 112.789 207.684 112.944 207.699 L 113.551 207.755 L 113.527 207.938 L 112.92 207.882 C 112.8 207.873 112.667 207.882 112.554 207.917 L 111.081 208.379 L 111.003 208.209 Z" style="fill: rgb(226, 139, 109);"/>
  <path class="s119" d="M 105.156 208.716 L 105.979 207.8 L 107.939 211.914 L 104.976 213.233 L 104.789 212.861 L 105.156 208.716 Z" style="fill: rgb(226, 139, 109);"/>
  <path class="s120" d="M 106.689 215.339 C 103.731 217.655 101.05 218.783 98.641 218.721 L 99.687 214.628 L 106.689 215.339 Z" style="fill: rgb(186, 92, 54);"/>
  <path class="s116" d="M 102.349 209.232 L 105.979 207.8 C 105.396 210.683 105.949 213.054 106.689 215.339 L 98.864 217.368 C 95.775 217.305 94.82 214.276 94.64 211.225 C 94.202 203.84 101.053 197.483 110 197.232 C 110.605 197.216 111.09 197.222 111.455 197.253 L 102.349 209.232 Z" style="fill: rgb(237, 117, 69);"/>
  <path class="s121" d="M 113.479 203.426 L 124.41 203.651 L 121.232 211.72 L 120.132 214.511 L 119.831 215.277 L 108.899 215.052 L 113.479 203.426 Z" style="fill: rgb(211, 223, 255);"/>
  <path class="s122" d="M 121.232 211.72 L 120.132 214.511 C 119.331 213.668 118.924 212.417 118.912 210.755 L 121.232 211.72 Z" style="fill: rgb(31, 60, 136); opacity: 0.3;"/>
  <path class="s118" d="M 124.441 211.434 C 124.584 212.374 124.441 213.611 123.269 214.072 C 122.271 214.465 121.075 214.076 120.438 213.386 C 119.806 212.701 119.476 211.869 118.972 211.122 C 118.502 210.426 118.654 210.12 119.422 210.203 C 119.073 209.176 119.37 208.919 120.312 209.432 C 119.991 209.022 119.943 208.631 120.168 208.261 C 120.388 207.892 120.797 208.078 121.393 208.818 C 120.772 207.915 120.772 207.402 121.393 207.279 C 121.85 207.187 122.331 207.785 122.547 208.031 C 123.238 208.793 123.869 209.64 124.212 210.561 C 124.321 210.84 124.398 211.132 124.441 211.434 Z" style="fill: rgb(249, 179, 132);"/>
  <path class="s119" d="M 122.102 210.26 L 121.039 208.275 C 121.015 208.231 121.039 208.173 121.099 208.153 C 121.153 208.133 121.219 208.158 121.243 208.205 L 122.307 210.187 C 122.331 210.233 122.307 210.289 122.247 210.31 C 122.236 210.313 122.221 210.316 122.205 210.316 C 122.162 210.316 122.121 210.294 122.102 210.26 Z" style="fill: rgb(226, 139, 109);"/>
  <path class="s119" d="M 121.015 211 L 120.012 209.227 C 119.98 209.18 120.005 209.124 120.065 209.103 C 120.119 209.084 120.186 209.099 120.209 209.144 L 121.219 210.924 C 121.243 210.969 121.219 211.025 121.165 211.046 C 121.149 211.053 121.133 211.057 121.117 211.057 C 121.075 211.057 121.033 211.036 121.015 211 Z" style="fill: rgb(226, 139, 109);"/>
  <path class="s119" d="M 120.18 211.603 L 119.313 210.244 C 119.283 210.197 119.308 210.141 119.362 210.12 C 119.417 210.095 119.483 210.111 119.512 210.156 L 120.378 211.52 C 120.408 211.562 120.383 211.619 120.33 211.644 C 120.314 211.65 120.296 211.654 120.276 211.654 C 120.239 211.654 120.198 211.638 120.18 211.603 Z" style="fill: rgb(226, 139, 109);"/>
  <path class="s113" d="M 117.337 203.125 L 121.243 203.125 L 120.576 204.234 L 116.665 204.234 L 117.337 203.125 Z" style="fill: rgb(16, 32, 72);"/>
  <path class="s120" d="M 109.507 200.355 C 109.422 200.314 109.399 200.226 109.447 200.166 C 109.495 200.1 109.597 200.078 109.675 200.114 C 111.707 201.126 113.221 200.197 113.287 200.156 C 113.358 200.109 113.467 200.12 113.522 200.181 C 113.576 200.242 113.563 200.329 113.491 200.375 C 113.479 200.38 112.716 200.855 111.556 200.855 C 110.961 200.855 110.264 200.732 109.507 200.355 Z" style="fill: rgb(186, 92, 54);"/>
  <path class="s120" d="M 106.526 215.374 C 105.132 211.486 105.595 208.726 105.764 207.969 L 99.338 208.858 C 99.255 208.874 99.164 208.822 99.147 208.745 C 99.134 208.669 99.194 208.597 99.284 208.587 L 106.207 207.632 L 106.142 207.836 C 106.13 207.867 105.241 210.806 106.844 215.298 C 106.874 215.37 106.821 215.446 106.736 215.472 C 106.717 215.474 106.7 215.476 106.689 215.476 C 106.616 215.476 106.545 215.435 106.526 215.374 Z" style="fill: rgb(186, 92, 54);"/>
  <path class="s120" d="M 101.455 208.363 C 101.455 208.331 101.257 205.266 103.828 202.128 C 103.881 202.062 103.984 202.047 104.063 202.087 C 104.141 202.132 104.159 202.22 104.104 202.281 C 101.604 205.337 101.785 208.316 101.79 208.347 C 101.796 208.424 101.725 208.491 101.635 208.496 C 101.631 208.496 101.626 208.496 101.623 208.496 C 101.532 208.496 101.46 208.439 101.455 208.363 Z" style="fill: rgb(186, 92, 54);"/>
  <path class="s118" d="M 113.227 193.854 L 113.227 197.416 C 113.227 198.566 112.144 199.497 110.805 199.497 C 109.465 199.497 108.383 198.566 108.383 197.416 L 108.383 193.854 L 113.227 193.854 Z" style="fill: rgb(249, 179, 132);"/>
  <path class="s113" d="M 113.227 194.038 L 113.227 197.166 C 111.689 196.744 110.837 195.798 110.672 194.329 L 113.227 194.038 Z" style="fill: rgb(16, 32, 72);"/>
  <path class="s118" d="M 115.054 189.792 C 115.554 193.124 115.019 194.987 113.45 195.382 C 111.879 195.777 110.374 195.401 108.936 194.252 L 109.381 190.134 L 112.866 188.437 L 115.054 189.792 Z" style="fill: rgb(249, 179, 132);"/>
  <path class="s113" d="M 104.447 193.553 C 104.543 193.496 104.627 193.43 104.711 193.363 C 105.679 192.643 106.172 191.581 106.166 190.496 C 106.153 186.477 108.677 185.447 113.737 187.41 C 116.899 185.632 118.01 188.039 116.694 189.868 C 115.52 191.507 113.615 191.592 110.979 190.123 C 110.21 190.181 109.561 190.873 109.033 192.198 L 109.159 192.817 C 110.27 195.428 109.333 198.485 108.214 199.864 L 106.953 199.798 C 107.471 199.221 107.626 198.494 107.433 197.621 C 107.211 198.468 106.881 199.225 106.292 199.756 L 101.641 199.506 C 100.908 196.89 102.746 194.666 104.447 193.553 Z" style="fill: rgb(16, 32, 72);"/>
  <path class="s118" d="M 108.522 191.187 C 109.116 191.027 109.784 191.366 110.005 191.938 C 110.234 192.515 109.928 193.108 109.333 193.271 C 108.738 193.43 108.07 193.088 107.848 192.515 C 107.62 191.938 107.926 191.345 108.522 191.187 Z" style="fill: rgb(249, 179, 132);"/>
  <path class="s113" d="M 108.96 192.486 C 108.96 192.147 108.636 191.912 108.335 191.897 C 108.274 191.897 108.227 191.851 108.233 191.799 C 108.233 191.754 108.287 191.714 108.341 191.714 C 108.345 191.714 108.347 191.714 108.347 191.714 C 108.798 191.733 109.182 192.086 109.182 192.486 C 109.182 192.535 109.128 192.576 109.068 192.576 C 109.008 192.576 108.96 192.535 108.96 192.486 Z" style="fill: rgb(16, 32, 72);"/>
  <path class="s113" d="M 114.506 191.467 C 114.662 191.467 114.784 191.57 114.784 191.698 C 114.784 191.825 114.662 191.928 114.506 191.928 C 114.351 191.928 114.224 191.825 114.224 191.698 C 114.224 191.57 114.351 191.467 114.506 191.467 Z" style="fill: rgb(16, 32, 72);"/>
  <path class="s113" d="M 112.818 191.355 C 112.974 191.355 113.1 191.458 113.1 191.585 C 113.1 191.714 112.974 191.815 112.818 191.815 C 112.667 191.815 112.541 191.714 112.541 191.585 C 112.541 191.458 112.667 191.355 112.818 191.355 Z" style="fill: rgb(16, 32, 72);"/>
  <path class="s113" d="M 113.744 193.214 C 113.701 193.179 113.701 193.124 113.75 193.088 C 113.864 192.996 113.995 192.857 113.96 192.74 C 113.936 192.634 113.768 192.567 113.707 192.546 L 113.629 192.526 L 113.659 191.938 C 113.659 191.887 113.714 191.851 113.774 191.851 C 113.84 191.851 113.888 191.897 113.881 191.943 L 113.858 192.402 C 113.96 192.443 114.134 192.541 114.182 192.7 C 114.224 192.863 114.134 193.036 113.906 193.221 C 113.881 193.235 113.851 193.246 113.828 193.246 C 113.798 193.246 113.768 193.235 113.744 193.214 Z" style="fill: rgb(16, 32, 72);"/>
  <path class="s113" d="M 112.511 193.568 C 112.463 193.532 112.457 193.476 112.5 193.44 C 112.541 193.399 112.615 193.394 112.655 193.43 C 113.155 193.788 113.72 193.721 113.725 193.721 C 113.78 193.712 113.846 193.747 113.851 193.797 C 113.864 193.845 113.821 193.894 113.762 193.901 C 113.75 193.901 113.696 193.91 113.6 193.91 C 113.371 193.91 112.92 193.864 112.511 193.568 Z" style="fill: rgb(16, 32, 72);"/>
  <path class="s123" d="M 111.43 192.035 C 111.839 192.035 112.163 192.305 112.163 192.638 C 112.163 192.975 111.839 193.246 111.43 193.246 C 111.028 193.246 110.696 192.975 110.696 192.638 C 110.696 192.305 111.028 192.035 111.43 192.035 Z" style="fill: rgb(235, 93, 96); opacity: 0.4;"/>
</svg>