<svg xmlns="http://www.w3.org/2000/svg" viewBox="32 411 1015.3 1390.5"><path d="M251.8 1689.4h-30v-74.3c0-11.1-8.6-18.8-19.7-18.8h-27.6c-11.1 0-19.6 7.7-19.6 18.8v166.2c0 11.1 8.5 20.2 19.6 20.2h27.6c11.1 0 19.7-9.2 19.7-20.2v-73.8h30c5.1 0 9.8-3.6 9.8-8.7 0-5.2-4.7-9.4-9.8-9.4zM828.4 1689.4h29.9v-74.3c0-11.1 8.7-18.8 19.7-18.8h27.6c11.1 0 19.5 7.7 19.5 18.8v166.2c0 11.1-8.5 20.2-19.5 20.2H878c-11.1 0-19.7-9.2-19.7-20.2v-73.8h-29.9c-5.1 0-9-3.6-9-8.7 0-5.2 3.9-9.4 9-9.4z"/><path fill="#E5BC0E" d="M541 411H52.4c-11.1 0-20.4 9.4-20.4 20.5v69.3c0 11.1 9.4 19.7 20.4 19.7H541V411z"/><path fill="#D3AD0F" d="M1047.3 500.8v-69.3c0-11.1-8.4-20.5-19.5-20.5H541v109.4h486.8c11 0 19.5-8.6 19.5-19.6zM541 561.4v-41H70.4l1.7 30.7c101-1.6 279-1.8 468.9 10.3z"/><path fill="#E5BC0E" d="M72.1 550.1l38.6 977.3c0 38.5 26.8 69.7 60.2 69.7h64.5v132.4c0 25.3 32 44.7 70.5 44.7H541v-1214c-189.9-12.1-367.9-11.7-468.9-10.1z"/><path fill="#C19F10" d="M1006 627.5l3.8-107.1H541v41c160.9 10.5 332 30 465 66.1z"/><path fill="#D3AD0F" d="M541 560.2v1214.1h233.3c38.5 0 70.4-19.4 70.4-44.7v-132.4h64.6c33.4 0 60.4-31.2 60.4-69.7l36.2-900.9c-132.9-36.2-304-55.9-464.9-66.4z"/><path fill-rule="evenodd" clip-rule="evenodd" fill="#F4F4F4" d="M396.1 1192.9c-15 .1-28.5-3-40.3-9.6-11.8-6.5-19-13.6-21.4-21.2-1.5-3.8-2.6-7.3-3.2-10.6-.6-3.2-1-7.2-1-11.9-.1-7.3.8-14.1 2.7-20.1 1.9-6 4.1-11.3 6.7-15.7 2.6-4.4 4.9-7.8 6.7-10 1.9-2.2 3.3-3.6 4.2-4.2l-31.5-18.7 102.9-3.2 47.6 89.6-29.7-16.9c-.9.9-2.3 2.3-4.2 4.3-1.9 1.9-4.1 4.3-6.6 7.1s-4.9 5.7-7.2 8.4c-2.3 2.8-3.9 5.1-4.8 6.9-2 3.6-3 6.8-3 9.7 0 4.7 1.8 8.3 5.2 10.8 3.4 2.5 6.1 4.1 8.2 5l-31.3.3zm296.8 13.3c10-.4 19.2-2.6 27.5-6.7s15.4-8.7 21.3-13.9c5.8-5.2 10.2-9.6 13.1-13.4 2.9-3.7 4.9-6.4 6.1-8.2-2 6.2-4.4 12.1-7.3 17.7-2.9 5.6-6.6 12.4-11.3 20.4-2.9 5.4-4.9 9.1-6.1 11.1-2.3 5-4.8 10.2-7.4 15.6-6.3 13.7-11.5 24.5-15.6 32.5-4 8-8.5 15.7-13.5 23.2-4.9 7.4-10 13.4-15.3 17.8-5.3 4.5-10.7 6.7-16.3 6.8-3.8 0-21.3.2-52.5.5l.3 36.2-54.7-87 53.9-86.3-.1 34.5c51.1-.5 77-.8 77.9-.8zM492.3 905.6c10-.3 29.1-.5 57.4-.8 28.5-.2 49.5.3 62.9 1.9 13.4 1.5 21.9 5.3 25.5 11.4.6 1.2 2.2 4 4.7 8.6 2.6 4.5 5.5 9.6 9 15.1 3.4 5.6 6.2 10.1 8.3 13.6 2.1 3.5 3.6 6.1 4.5 7.9l31.2-18.4-42.8 96.2-106.4-8.7 29.4-17.5-37.7-63.7c-5.7-10-12.2-18.1-19.7-24.3-7.4-6.3-14.7-10.7-22-13.5-7.2-2.7-13.3-4.4-18.1-5.1-4.9-.7-8.5-1-10.8-1 6.4-.9 14.6-1.5 24.6-1.7zm-138.1 287.1c-11.2-5.1-18.8-11.4-22.7-19.1 1.2 2.1 3.1 5.3 5.6 9.8 2.5 4.5 6 10.6 10.3 18.2 4.3 7.6 8.9 15.6 13.7 24.1 4.8 8.5 8.2 14.7 10.3 18.8 1.2 2.3 1.9 4 2.3 4.9 3.6 7.6 7 14.4 10.1 20.4 3.2 6 6.7 12.2 10.8 18.7 4 6.4 8.2 11.7 12.5 15.8 4.3 4.1 8.4 6.1 12.2 6.1l115.2-1.1-1-110.5c-68 .6-114.8 1.1-140.4 1.3-14.7.1-27.7-2.3-38.9-7.4zm327.3-3.8c-5.2-8.2-16.4-25.5-33.6-52-17.1-26.5-27.2-42.1-30.2-46.7l90.4-54.7c.9 1.5 3 5.3 6.3 11.4 3.3 6.1 7.3 13.6 12.1 22.4 9.9 18.4 17.2 32.1 22 41.1 4.8 8.9 8.2 15.2 10.3 18.6 1.5 2.7 2.3 6 2.3 10.1.1 5.6-1.2 11.9-3.8 19-.9 1.8-2.8 4.6-5.9 8.5-3 3.8-7.4 8.4-13.1 13.6-5.7 5.2-12.8 9.9-21.3 14.1-8.5 4.2-17.6 6.5-27.3 6.9-.2 0-3-4.1-8.2-12.3zm-211.9-120.1l-89.6-49.7c.9-1.5 4.9-8.1 12.2-20 1.5-2.4 5.1-8.5 11.1-18.3s11.2-18.5 15.9-26.1c4.6-7.5 8.4-13.9 11.3-18.9 2.9-5 4.9-8.5 6.1-10.3 2-3.6 5-6.2 9-8 3.9-1.8 9.7-3.5 17.4-5 3 0 6.9.3 11.9 1s11.1 2.4 18.4 5.1c7.2 2.7 14.5 7.1 21.8 13.1 7.3 6 13.6 13.8 19 23.5l1.3 2.2c1.5 2.4 2.8 4.5 4 6.6l-69.8 104.8z"/></svg>