<?xml version="1.0" encoding="UTF-8" standalone="no"?>
<svg
   xmlns:dc="http://purl.org/dc/elements/1.1/"
   xmlns:cc="http://creativecommons.org/ns#"
   xmlns:rdf="http://www.w3.org/1999/02/22-rdf-syntax-ns#"
   xmlns:svg="http://www.w3.org/2000/svg"
   xmlns="http://www.w3.org/2000/svg"
   xmlns:sodipodi="http://sodipodi.sourceforge.net/DTD/sodipodi-0.dtd"
   xmlns:inkscape="http://www.inkscape.org/namespaces/inkscape"
   inkscape:version="1.0beta2 (2b71d25, 2019-12-03)"
   sodipodi:docname="donner.svg"
   viewBox="0 0 1496 1496"
   height="1496"
   width="1496"
   xml:space="preserve"
   id="svg10"
   version="1.1"><metadata
     id="metadata16"><rdf:RDF><cc:Work
         rdf:about=""><dc:format>image/svg+xml</dc:format><dc:type
           rdf:resource="http://purl.org/dc/dcmitype/StillImage" /><dc:title></dc:title></cc:Work></rdf:RDF></metadata><defs
     id="defs14" /><sodipodi:namedview
     inkscape:current-layer="g18"
     inkscape:window-maximized="0"
     inkscape:window-y="25"
     inkscape:window-x="0"
     inkscape:cy="748"
     inkscape:cx="748"
     inkscape:zoom="0.37967914"
     showgrid="false"
     id="namedview12"
     inkscape:window-height="480"
     inkscape:window-width="752"
     inkscape:pageshadow="2"
     inkscape:pageopacity="0"
     guidetolerance="10"
     gridtolerance="10"
     objecttolerance="10"
     borderopacity="1"
     inkscape:document-rotation="0"
     bordercolor="#666666"
     pagecolor="#ffffff" /><g
     transform="matrix(1.3333333,0,0,-1.3333333,0,1496)"
     inkscape:label="ink_ext_XXXXXX"
     inkscape:groupmode="layer"
     id="g18"><g
       transform="scale(0.1)"
       id="g20"><path
         inkscape:connector-curvature="0"
         id="path22"
         style="fill:#ffffff;fill-opacity:1;fill-rule:nonzero;stroke:none"
         d="M 11220,0 H 0 V 11220 H 11220 V 0" /><path
         inkscape:connector-curvature="0"
         id="path24"
         style="fill:#82bfab;fill-opacity:1;fill-rule:nonzero;stroke:none"
         d="M 3559.77,6171.9 4606.18,5125.35 c -3.33,8.17 -8.05,15.58 -11.02,24.08 -20,56.8 -31.01,117.84 -31.01,181.56 0,65.64 12.13,128.43 33.52,186.95 l -364.6,364.42 -0.16,-0.14 c -43.27,-37.92 -108.87,-36.68 -150.27,4.71 -41.21,41.22 -41.84,106.7 -4.09,149.98 l -338.6,338.61 -33.23,-32.89 0.48,-0.46 -2.66,-2.54 c -53.05,-53.17 -100.25,-109.82 -144.77,-167.73" /><path
         inkscape:connector-curvature="0"
         id="path26"
         style="fill:#82bfab;fill-opacity:1;fill-rule:nonzero;stroke:none"
         d="m 2890.23,4240.53 1392.82,-1392.73 199.6,199.54 124.31,124.31 c 85.28,59.16 185.04,88.57 284.63,87.63 7.87,0 15.74,-0.63 23.45,-1.09 84.97,-3.48 170.09,0.94 254.46,13.05 188.04,26.74 371.35,92.23 537.97,195.75 -119.59,50.05 -233.67,117.23 -338.31,202.2 l -2.42,-2.36 -30.29,30.38 c -25.82,22.18 -51,45.14 -75.54,69.54 -24.38,24.39 -47.29,49.71 -69.56,75.37 l -630.11,630.21 1.03,1.08 -1247.97,1247.82 c -61.7,-172.61 -96.17,-352.78 -99.61,-533.88 -1.27,-69.57 1.42,-139.26 8.65,-208.35 6.78,-62.15 16.83,-124 30.39,-185.19 -3.64,-121.01 -51.15,-240.93 -143.53,-333.29 l -219.97,-219.99" /><path
         inkscape:connector-curvature="0"
         id="path28"
         style="fill:#82bfab;fill-opacity:1;fill-rule:nonzero;stroke:none"
         d="m 4427.34,6384.32 192.66,191.19 -337.97,338.01 -192.76,-191.19 338.07,-338.01" /><path
         inkscape:connector-curvature="0"
         id="path30"
         style="fill:#82bfab;fill-opacity:1;fill-rule:nonzero;stroke:none"
         d="m 7910.42,6321.23 -1.88,-1.57 -1.57,-1.88 -163.47,-163.5 c 96.9,-152.33 166.31,-316.76 209.28,-486.7 l 287.11,287.17 17.49,15.88 15.86,17.65 c 80.12,96.92 75.04,240.6 -15.74,331.38 -95.8,95.68 -250.67,96.13 -347.08,1.57" /><path
         inkscape:connector-curvature="0"
         id="path32"
         style="fill:#82bfab;fill-opacity:1;fill-rule:nonzero;stroke:none"
         d="m 7515.46,6440.33 c 21.91,-22.03 41.33,-45.45 61.85,-68.26 l 396.23,396.19 8.77,8.02 7.88,8.84 c 41.21,45.3 62.63,102.1 63.84,159.38 1.58,65 -22.33,130.3 -71.72,179.72 -49.44,49.56 -114.86,73.32 -179.68,71.74 -61.06,-1.27 -121.59,-25.17 -168.18,-71.74 l -7.94,-8.84 -0.9,0.97 -393.69,-393.72 281.48,-279.3 -0.6,-0.45 2.66,-2.55" /><path
         inkscape:connector-curvature="0"
         id="path34"
         style="fill:#82bfab;fill-opacity:1;fill-rule:nonzero;stroke:none"
         d="m 6893.91,6384.66 -154.2,-154.21 237.06,-237.15 10.32,-10.38 c 43.27,-37.92 109.02,-36.67 150.27,4.72 42.63,42.49 42.93,111.24 1.24,154.36 l -2.81,2.84 -241.88,239.82" /><path
         inkscape:connector-curvature="0"
         id="path36"
         style="fill:#82bfab;fill-opacity:1;fill-rule:nonzero;stroke:none"
         d="m 6343.51,7506.1 c 58.22,0.31 110.6,-21.39 152.15,-55.86 l 392.59,392.75 8.81,7.87 7.87,8.81 c 43.27,47.38 64.69,107.33 64.36,167.27 -0.63,62.46 -24.53,124.8 -72.23,172.46 -47.66,47.68 -109.97,71.59 -172.46,72.08 -62,0.63 -123.91,-22.37 -171.96,-68.3 l -4.12,-3.78 -3.75,-4.09 -884.33,-884.48 348,-347.9 151.99,152.15 c -34.07,41.06 -55.31,92.99 -55.64,150.57 -0.3,132.36 106.39,239.97 238.72,240.45" /><path
         inkscape:connector-curvature="0"
         id="path38"
         style="fill:#82bfab;fill-opacity:1;fill-rule:nonzero;stroke:none"
         d="m 7208.95,7780.53 -7.41,-8.5 -511.61,-511.55 349.24,-346.66 512,512.03 6.47,5.99 c 96.29,96.29 96.29,252.37 0,348.69 -96.22,96.29 -252.4,96.29 -348.69,0" /><path
         inkscape:connector-curvature="0"
         id="path40"
         style="fill:#82bfab;fill-opacity:1;fill-rule:nonzero;stroke:none"
         d="m 4699.01,7327.2 -67.66,-67.06 337.82,-337.97 66.09,65.6 c 47.7,42.64 77.9,104.19 79.47,172.79 l -244.2,244.35 c -65.06,-1.57 -123.71,-28.78 -166.01,-72.2 l -5.51,-5.51" /><path
         inkscape:connector-curvature="0"
         id="path42"
         style="fill:#82bfab;fill-opacity:1;fill-rule:nonzero;stroke:none"
         d="m 5120.39,6770.96 188.37,-188.37 c 74.41,57.28 152.29,107.79 233.04,151.06 l -229.44,229.28 -154.66,-154.69 -37.31,-37.28" /><path
         inkscape:connector-curvature="0"
         id="path44"
         style="fill:#82bfab;fill-opacity:1;fill-rule:nonzero;stroke:none"
         d="m 4824.11,5987.49 c 40.27,83.06 88.12,163.8 143.19,240.75 l -194.81,194.78 -191.98,-191.97 243.6,-243.56" /><path
         inkscape:connector-curvature="0"
         id="path46"
         style="fill:#82bfab;fill-opacity:1;fill-rule:nonzero;stroke:none"
         d="m 6548.22,6423.02 152.94,152.97 -349.32,346.63 -151.53,-151.66 347.91,-347.94" /><path
         inkscape:connector-curvature="0"
         id="path48"
         style="fill:#616e7d;fill-opacity:1;fill-rule:nonzero;stroke:none"
         d="m 5191.35,3842.12 c 22.27,-25.66 45.18,-50.98 69.56,-75.37 24.54,-24.4 49.72,-47.36 75.54,-69.54 l 30.29,-30.38 2.42,2.36 c 104.64,-84.97 218.72,-152.15 338.31,-202.2 110.63,-46.42 225.98,-78.35 343.21,-95.05 84.19,-12.1 169.31,-16.52 254.28,-13.04 7.87,0.46 15.73,1.09 23.45,1.09 99.73,0.94 199.35,-28.47 284.63,-87.63 l 124.31,-124.31 199.68,-199.54 1392.74,1392.73 -220.19,219.99 c -92.16,92.36 -139.67,212.28 -143.18,333.29 13.43,61.19 23.66,123.03 30.2,185.19 7.08,69.08 10.1,138.78 8.65,208.35 -2.35,127.76 -21,254.9 -52.47,379.52 -42.97,169.94 -112.38,334.37 -209.28,486.7 -48.48,76.17 -104.21,148.7 -166.19,217.79 -20.52,22.81 -39.94,46.23 -61.85,68.26 l -2.66,2.55 0.6,0.45 -281.48,279.3 -192.75,191.19 -349.24,346.66 -168.76,167.43 -5.51,5.51 c -6.14,6.29 -13.23,11.31 -20,16.82 -41.55,34.47 -93.93,56.17 -152.15,55.86 -132.33,-0.48 -239.02,-108.09 -238.72,-240.45 0.33,-57.58 21.57,-109.51 55.64,-150.57 7.78,-9.29 15.34,-18.58 24.31,-26.6 l 159.07,-157.81 8.03,-8.05 349.32,-346.63 192.75,-191.33 241.88,-239.82 2.81,-2.84 c 41.69,-43.12 41.39,-111.87 -1.24,-154.36 -41.25,-41.39 -107,-42.64 -150.27,-4.72 l -10.32,10.38 -237.06,237.15 -38.31,38.22 0.54,0.64 -153.72,153.71 -347.91,347.94 -138.01,137.98 -53.86,53.99 -348,347.9 -985.36,985.19 -3.61,4.08 -3.93,3.78 c -48.17,45.94 -110.14,68.93 -172.24,68.3 -62.39,-0.48 -124.76,-24.39 -172.36,-72.08 -47.69,-47.66 -71.6,-109.99 -72.23,-172.45 -0.33,-59.95 21.24,-119.89 64.18,-167.28 l 8.05,-8.81 8.72,-7.86 538.87,-538.79 244.2,-244.35 197.63,-197.63 229.44,-229.28 c -80.75,-43.27 -158.63,-93.78 -233.04,-151.06 l -188.37,188.37 -151.22,151.21 -337.82,337.97 -612.89,612.6 -7.41,8.5 c -96.29,96.29 -252.41,96.29 -348.69,0 -96.47,-96.32 -96.29,-252.4 0,-348.69 l 6.6,-5.99 613.07,-613.04 337.97,-338.01 152.49,-152.49 194.81,-194.78 c -55.07,-76.95 -102.92,-157.69 -143.19,-240.75 l -243.6,243.56 -153.17,153.27 -338.07,338.01 -494.82,494.73 -0.69,-0.97 -8.02,8.83 c -46.6,46.57 -107.34,70.48 -168.37,71.75 -65,1.57 -130.15,-22.18 -179.71,-71.75 -49.42,-49.41 -73.18,-114.71 -71.75,-179.71 1.27,-57.28 22.51,-114.08 63.88,-159.38 l 7.87,-8.84 8.8,-8.02 493.49,-493.45 338.6,-338.61 154.52,-154.55 364.6,-364.42 c 76.62,209.92 277.64,360.49 513.61,360.49 221.54,0 412.57,-132.33 498.81,-321.79 86.06,189.46 277.09,321.79 498.48,321.79 301.82,0 547.38,-245.62 547.38,-547.44 0,-65.12 -11.44,-127.61 -32.5,-185.68 -27.39,-75.97 -71.45,-144.43 -127.64,-200.62 v -0.15 L 5630,4084.3 l -18.73,-7.72 -18.67,7.72 -834.76,829.25 c -21.85,18.73 -42.49,39.01 -61.13,60.74 -38.3,44.54 -67.9,95.98 -90.53,151.06 l -1046.41,1046.55 -246.59,246.59 -1.72,1.88 -1.88,1.56 c -96.46,94.57 -251.31,94.11 -346.96,-1.56 -90.73,-90.79 -96.08,-234.47 -15.92,-331.39 l 15.92,-17.64 17.46,-15.89 334.22,-334.22 1247.97,-1247.82 -1.03,-1.08 630.11,-630.21" /><path
         inkscape:connector-curvature="0"
         id="path50"
         style="fill:#aad4c8;fill-opacity:1;fill-rule:nonzero;stroke:none"
         d="m 5610.09,5556.64 c -86.24,189.46 -277.27,321.79 -498.81,321.79 -235.97,0 -436.99,-150.57 -513.61,-360.49 -21.39,-58.52 -33.52,-121.31 -33.52,-186.95 0,-63.72 11.01,-124.76 31.01,-181.56 2.97,-8.5 7.69,-15.91 11.02,-24.08 22.63,-55.08 52.23,-106.52 90.53,-151.06 18.64,-21.73 39.28,-42.01 61.13,-60.74 l 834.76,-829.25 18.67,-7.72 18.73,7.72 865.81,860.24 v 0.15 c 56.19,56.19 100.25,124.65 127.64,200.62 21.06,58.07 32.5,120.56 32.5,185.68 0,301.82 -245.56,547.44 -547.38,547.44 -221.39,0 -412.42,-132.33 -498.48,-321.79" /></g></g></svg>
