<?xml version="1.0" encoding="UTF-8" standalone="no"?>
<svg
   xmlns:dc="http://purl.org/dc/elements/1.1/"
   xmlns:cc="http://creativecommons.org/ns#"
   xmlns:rdf="http://www.w3.org/1999/02/22-rdf-syntax-ns#"
   xmlns:svg="http://www.w3.org/2000/svg"
   xmlns="http://www.w3.org/2000/svg"
   xmlns:sodipodi="http://sodipodi.sourceforge.net/DTD/sodipodi-0.dtd"
   xmlns:inkscape="http://www.inkscape.org/namespaces/inkscape"
   inkscape:version="1.0beta2 (2b71d25, 2019-12-03)"
   sodipodi:docname="vendre.svg"
   viewBox="0 0 1496 1496"
   height="1496"
   width="1496"
   xml:space="preserve"
   id="svg10"
   version="1.1"><metadata
     id="metadata16"><rdf:RDF><cc:Work
         rdf:about=""><dc:format>image/svg+xml</dc:format><dc:type
           rdf:resource="http://purl.org/dc/dcmitype/StillImage" /><dc:title></dc:title></cc:Work></rdf:RDF></metadata><defs
     id="defs14" /><sodipodi:namedview
     inkscape:current-layer="g18"
     inkscape:window-maximized="0"
     inkscape:window-y="25"
     inkscape:window-x="0"
     inkscape:cy="887.59155"
     inkscape:cx="716.39437"
     inkscape:zoom="0.37967914"
     showgrid="false"
     id="namedview12"
     inkscape:window-height="480"
     inkscape:window-width="759"
     inkscape:pageshadow="2"
     inkscape:pageopacity="0"
     guidetolerance="10"
     gridtolerance="10"
     objecttolerance="10"
     borderopacity="1"
     inkscape:document-rotation="0"
     bordercolor="#666666"
     pagecolor="#ffffff" /><g
     transform="matrix(1.3333333,0,0,-1.3333333,0,1496)"
     inkscape:label="ink_ext_XXXXXX"
     inkscape:groupmode="layer"
     id="g18"><g
       transform="scale(0.1)"
       id="g20"><path
         inkscape:connector-curvature="0"
         id="path22"
         style="fill:#ffffff;fill-opacity:1;fill-rule:nonzero;stroke:none"
         d="M 11220,0 H 0 V 11220 H 11220 V 0" /><path
         inkscape:connector-curvature="0"
         id="path24"
         style="fill:#f6d738;fill-opacity:1;fill-rule:nonzero;stroke:none"
         d="m 4628.47,7833.8 c 0,566.76 459.44,1026.2 1026.19,1026.2 566.76,0 1026.2,-459.44 1026.2,-1026.2 0,-566.75 -459.44,-1026.19 -1026.2,-1026.19 -566.75,0 -1026.19,459.44 -1026.19,1026.19" /><path
         inkscape:connector-curvature="0"
         id="path26"
         style="fill:#f3cc30;fill-opacity:1;fill-rule:nonzero;stroke:none"
         d="m 4783.74,7833.8 c 0,481 389.92,870.92 870.92,870.92 480.99,0 870.92,-389.92 870.92,-870.92 0,-480.99 -389.93,-870.92 -870.92,-870.92 -481,0 -870.92,389.93 -870.92,870.92" /><path
         inkscape:connector-curvature="0"
         id="path28"
         style="fill:#edbd31;fill-opacity:1;fill-rule:nonzero;stroke:none"
         d="m 6110.31,8577.13 c 86.73,-135.4 137.02,-296.38 137.02,-469.11 0,-481 -389.92,-870.92 -870.91,-870.92 -167.05,0 -323.1,47.06 -455.66,128.61 154.78,-241.64 425.64,-401.8 733.9,-401.8 480.99,0 870.92,389.92 870.92,870.92 0,313.94 -166.14,589.06 -415.27,742.3" /><path
         inkscape:connector-curvature="0"
         id="path30"
         style="fill:#f7db5e;fill-opacity:1;fill-rule:nonzero;stroke:none"
         d="m 4936.3,7754.11 c 0,424.6 344.21,768.8 768.8,768.8 248.18,0 468.86,-117.63 609.42,-300.15 -132.75,230.47 -381.58,385.62 -666.65,385.62 -424.59,0 -768.79,-344.2 -768.79,-768.79 0,-176.42 59.46,-338.92 159.38,-468.65 -64.98,112.8 -102.16,243.64 -102.16,383.17" /><path
         inkscape:connector-curvature="0"
         id="path32"
         style="fill:#dc8ea2;fill-opacity:1;fill-rule:nonzero;stroke:none"
         d="m 4565.26,2360 h -396.01 c -71.64,0 -129.72,58.07 -129.72,129.71 l -109.24,745.59 c 0,71.64 58.08,129.71 129.72,129.71 h 614.5 c 71.63,0 129.71,-58.07 129.71,-129.71 l -109.24,-745.59 c 0,-71.64 -58.08,-129.71 -129.72,-129.71" /><path
         inkscape:connector-curvature="0"
         id="path34"
         style="fill:#dc8ea2;fill-opacity:1;fill-rule:nonzero;stroke:none"
         d="m 7236.2,2360 h -396.01 c -71.65,0 -129.72,58.07 -129.72,129.71 l -109.24,745.59 c 0,71.64 58.08,129.71 129.71,129.71 h 614.5 c 71.64,0 129.72,-58.07 129.72,-129.71 l -109.25,-745.59 c 0,-71.64 -58.07,-129.71 -129.71,-129.71" /><path
         inkscape:connector-curvature="0"
         id="path36"
         style="fill:#e1a1b0;fill-opacity:1;fill-rule:nonzero;stroke:none"
         d="m 8019.05,4490.28 c 0,-1110.11 -1058.87,-2010.03 -2365.06,-2010.03 -1306.19,0 -2365.05,899.92 -2365.05,2010.03 0,1110.1 808.37,2075.57 2365.05,2075.57 1558.21,0 2365.06,-965.47 2365.06,-2075.57" /><path
         inkscape:connector-curvature="0"
         id="path38"
         style="fill:#e1a1b0;fill-opacity:1;fill-rule:nonzero;stroke:none"
         d="m 3930.29,3463.7 -364.28,1.58 c -315.31,-14.7 -454.63,72.01 -515.27,294.77 l -199.63,733.41 c -40.67,149.41 48.3,304.93 197.72,345.6 l 452.39,123.15 c 222.76,60.63 454.63,-72.02 515.26,-294.78 l 185.19,-643.74 c 60.63,-222.76 -48.61,-499.36 -271.38,-559.99" /><path
         inkscape:connector-curvature="0"
         id="path40"
         style="fill:#e1a1b0;fill-opacity:1;fill-rule:nonzero;stroke:none"
         d="m 4690.3,6160.7 c -6.34,5.27 -640.12,524.95 -1357.36,262.47 -7.78,-2.86 -13.27,-9.86 -14.21,-18.09 -0.92,-8.2 -82.44,-823.47 704.83,-1234.29 3.23,-1.67 6.68,-2.48 10.1,-2.48 7.06,0 13.96,3.44 18.14,9.65 l 642.59,953.76 c 6.25,9.28 4.49,21.78 -4.09,28.98" /><path
         inkscape:connector-curvature="0"
         id="path42"
         style="fill:#e1a1b0;fill-opacity:1;fill-rule:nonzero;stroke:none"
         d="m 8300.34,5467.42 c -49.73,15.54 -101.18,-4.07 -128.1,-48.56 -138.36,-228.81 -385.03,-273.1 -490.35,-292.01 -38.93,-6.99 -56.7,-10.19 -73.95,-24.66 -20.76,-17.43 -28.65,-45.83 -19.86,-71.45 l 173.23,-505.2 c 5.84,-17.05 18.43,-30.91 34.79,-38.38 8.65,-3.93 17.92,-5.91 27.21,-5.91 8.34,0 16.7,1.6 24.6,4.8 427.17,172.97 515.8,618.34 530.63,868.42 3.07,52.06 -28.35,97.44 -78.2,112.95" /><path
         inkscape:connector-curvature="0"
         id="path44"
         style="fill:#3e3d40;fill-opacity:1;fill-rule:nonzero;stroke:none"
         d="m 3995.84,4962.62 c 0,78.83 63.91,142.73 142.73,142.73 78.83,0 142.73,-63.9 142.73,-142.73 0,-78.83 -63.9,-142.73 -142.73,-142.73 -78.82,0 -142.73,63.9 -142.73,142.73" /><path
         inkscape:connector-curvature="0"
         id="path46"
         style="fill:#58595a;fill-opacity:1;fill-rule:nonzero;stroke:none"
         d="m 6338.03,5992.06 c -701.45,237.27 -1336.71,3.54 -1343.02,1.13 l -69.38,184 c 28.54,10.75 708.11,260.67 1475.38,1.13 l -62.98,-186.26" /><path
         inkscape:connector-curvature="0"
         id="path48"
         style="fill:#de96a6;fill-opacity:1;fill-rule:nonzero;stroke:none"
         d="m 3959.69,3088.08 c 429.62,-374.9 1029.91,-607.83 1694.3,-607.83 1282.1,0 2325.8,867.05 2363.87,1948.85 C 6721.3,2696.18 4804.22,2908.46 3959.69,3088.08" /><path
         inkscape:connector-curvature="0"
         id="path50"
         style="fill:#e7b9c6;fill-opacity:1;fill-rule:nonzero;stroke:none"
         d="m 2938.68,4429.1 c 0,0 -128.84,323.23 377.25,406.9 0,0 -289.71,-142.72 -377.25,-406.9" /><path
         inkscape:connector-curvature="0"
         id="path52"
         style="fill:#e7b9c6;fill-opacity:1;fill-rule:nonzero;stroke:none"
         d="m 3391.83,6351.69 c 0,0 185.38,102.99 336.42,75.52 0,0 -233.44,-192.24 -137.31,-768.97 0,0 -199.11,315.83 -199.11,693.45" /><path
         inkscape:connector-curvature="0"
         id="path54"
         style="fill:#3e3d40;fill-opacity:1;fill-rule:nonzero;stroke:none"
         d="m 5596.33,6096.9 c 216.91,7.5 474.44,-14.44 741.7,-104.84 l 62.98,186.26 -804.68,-81.39 v -0.03" /></g></g></svg>
