<svg viewBox="0 0 800 800" opacity="0.46" width="800" height="800"><g stroke-width="0.75" stroke="hsl(129, 82%, 83%)" fill="none"><circle r="3.263157894736842" cx="0" cy="0" opacity="0.25"></circle><circle r="0.8157894736842105" cx="0" cy="0" fill="hsl(129, 82%, 83%)" stroke="none"></circle><circle r="3.263157894736842" cx="114.28571428571429" cy="0" opacity="0.25"></circle><circle r="0.8157894736842105" cx="114.28571428571429" cy="0" fill="hsl(129, 82%, 83%)" stroke="none"></circle><circle r="3.263157894736842" cx="228.57142857142858" cy="0" opacity="0.25"></circle><circle r="0.8157894736842105" cx="228.57142857142858" cy="0" fill="hsl(129, 82%, 83%)" stroke="none"></circle><circle r="3.263157894736842" cx="342.8571428571429" cy="0" opacity="0.25"></circle><circle r="0.8157894736842105" cx="342.8571428571429" cy="0" fill="hsl(129, 82%, 83%)" stroke="none"></circle><circle r="3.263157894736842" cx="457.14285714285717" cy="0" opacity="0.25"></circle><circle r="0.8157894736842105" cx="457.14285714285717" cy="0" fill="hsl(129, 82%, 83%)" stroke="none"></circle><circle r="3.263157894736842" cx="571.4285714285714" cy="0" opacity="0.25"></circle><circle r="0.8157894736842105" cx="571.4285714285714" cy="0" fill="hsl(129, 82%, 83%)" stroke="none"></circle><circle r="3.263157894736842" cx="685.7142857142858" cy="0" opacity="0.25"></circle><circle r="0.8157894736842105" cx="685.7142857142858" cy="0" fill="hsl(129, 82%, 83%)" stroke="none"></circle><circle r="3.263157894736842" cx="800.0000000000001" cy="0" opacity="0.25"></circle><circle r="0.8157894736842105" cx="800.0000000000001" cy="0" fill="hsl(129, 82%, 83%)" stroke="none"></circle><circle r="3.263157894736842" cx="0" cy="100" opacity="0.25"></circle><circle r="0.8157894736842105" cx="0" cy="100" fill="hsl(129, 82%, 83%)" stroke="none"></circle><circle r="3.263157894736842" cx="114.28571428571429" cy="100" opacity="0.25"></circle><circle r="0.8157894736842105" cx="114.28571428571429" cy="100" fill="hsl(129, 82%, 83%)" stroke="none"></circle><circle r="3.263157894736842" cx="228.57142857142858" cy="100" opacity="0.25"></circle><circle r="0.8157894736842105" cx="228.57142857142858" cy="100" fill="hsl(129, 82%, 83%)" stroke="none"></circle><circle r="3.263157894736842" cx="342.8571428571429" cy="100" opacity="0.25"></circle><circle r="0.8157894736842105" cx="342.8571428571429" cy="100" fill="hsl(129, 82%, 83%)" stroke="none"></circle><circle r="3.263157894736842" cx="457.14285714285717" cy="100" opacity="0.25"></circle><circle r="0.8157894736842105" cx="457.14285714285717" cy="100" fill="hsl(129, 82%, 83%)" stroke="none"></circle><circle r="3.263157894736842" cx="571.4285714285714" cy="100" opacity="0.25"></circle><circle r="0.8157894736842105" cx="571.4285714285714" cy="100" fill="hsl(129, 82%, 83%)" stroke="none"></circle><circle r="3.263157894736842" cx="685.7142857142858" cy="100" opacity="0.25"></circle><circle r="0.8157894736842105" cx="685.7142857142858" cy="100" fill="hsl(129, 82%, 83%)" stroke="none"></circle><circle r="3.263157894736842" cx="800.0000000000001" cy="100" opacity="0.25"></circle><circle r="0.8157894736842105" cx="800.0000000000001" cy="100" fill="hsl(129, 82%, 83%)" stroke="none"></circle><circle r="3.263157894736842" cx="0" cy="200" opacity="0.25"></circle><circle r="0.8157894736842105" cx="0" cy="200" fill="hsl(129, 82%, 83%)" stroke="none"></circle><circle r="3.263157894736842" cx="114.28571428571429" cy="200" opacity="0.25"></circle><circle r="0.8157894736842105" cx="114.28571428571429" cy="200" fill="hsl(129, 82%, 83%)" stroke="none"></circle><circle r="3.263157894736842" cx="228.57142857142858" cy="200" opacity="0.25"></circle><circle r="0.8157894736842105" cx="228.57142857142858" cy="200" fill="hsl(129, 82%, 83%)" stroke="none"></circle><circle r="3.263157894736842" cx="342.8571428571429" cy="200" opacity="0.25"></circle><circle r="0.8157894736842105" cx="342.8571428571429" cy="200" fill="hsl(129, 82%, 83%)" stroke="none"></circle><circle r="3.263157894736842" cx="457.14285714285717" cy="200" opacity="0.25"></circle><circle r="0.8157894736842105" cx="457.14285714285717" cy="200" fill="hsl(129, 82%, 83%)" stroke="none"></circle><circle r="3.263157894736842" cx="571.4285714285714" cy="200" opacity="0.25"></circle><circle r="0.8157894736842105" cx="571.4285714285714" cy="200" fill="hsl(129, 82%, 83%)" stroke="none"></circle><circle r="3.263157894736842" cx="685.7142857142858" cy="200" opacity="0.25"></circle><circle r="0.8157894736842105" cx="685.7142857142858" cy="200" fill="hsl(129, 82%, 83%)" stroke="none"></circle><circle r="3.263157894736842" cx="800.0000000000001" cy="200" opacity="0.25"></circle><circle r="0.8157894736842105" cx="800.0000000000001" cy="200" fill="hsl(129, 82%, 83%)" stroke="none"></circle><circle r="3.263157894736842" cx="0" cy="300" opacity="0.25"></circle><circle r="0.8157894736842105" cx="0" cy="300" fill="hsl(129, 82%, 83%)" stroke="none"></circle><circle r="3.263157894736842" cx="114.28571428571429" cy="300" opacity="0.25"></circle><circle r="0.8157894736842105" cx="114.28571428571429" cy="300" fill="hsl(129, 82%, 83%)" stroke="none"></circle><circle r="3.263157894736842" cx="228.57142857142858" cy="300" opacity="0.25"></circle><circle r="0.8157894736842105" cx="228.57142857142858" cy="300" fill="hsl(129, 82%, 83%)" stroke="none"></circle><circle r="3.263157894736842" cx="342.8571428571429" cy="300" opacity="0.25"></circle><circle r="0.8157894736842105" cx="342.8571428571429" cy="300" fill="hsl(129, 82%, 83%)" stroke="none"></circle><circle r="3.263157894736842" cx="457.14285714285717" cy="300" opacity="0.25"></circle><circle r="0.8157894736842105" cx="457.14285714285717" cy="300" fill="hsl(129, 82%, 83%)" stroke="none"></circle><circle r="3.263157894736842" cx="571.4285714285714" cy="300" opacity="0.25"></circle><circle r="0.8157894736842105" cx="571.4285714285714" cy="300" fill="hsl(129, 82%, 83%)" stroke="none"></circle><circle r="3.263157894736842" cx="685.7142857142858" cy="300" opacity="0.25"></circle><circle r="0.8157894736842105" cx="685.7142857142858" cy="300" fill="hsl(129, 82%, 83%)" stroke="none"></circle><circle r="3.263157894736842" cx="800.0000000000001" cy="300" opacity="0.25"></circle><circle r="0.8157894736842105" cx="800.0000000000001" cy="300" fill="hsl(129, 82%, 83%)" stroke="none"></circle><circle r="3.263157894736842" cx="0" cy="400" opacity="0.25"></circle><circle r="0.8157894736842105" cx="0" cy="400" fill="hsl(129, 82%, 83%)" stroke="none"></circle><circle r="3.263157894736842" cx="114.28571428571429" cy="400" opacity="0.25"></circle><circle r="0.8157894736842105" cx="114.28571428571429" cy="400" fill="hsl(129, 82%, 83%)" stroke="none"></circle><circle r="3.263157894736842" cx="228.57142857142858" cy="400" opacity="0.25"></circle><circle r="0.8157894736842105" cx="228.57142857142858" cy="400" fill="hsl(129, 82%, 83%)" stroke="none"></circle><circle r="3.263157894736842" cx="342.8571428571429" cy="400" opacity="0.25"></circle><circle r="0.8157894736842105" cx="342.8571428571429" cy="400" fill="hsl(129, 82%, 83%)" stroke="none"></circle><circle r="3.263157894736842" cx="457.14285714285717" cy="400" opacity="0.25"></circle><circle r="0.8157894736842105" cx="457.14285714285717" cy="400" fill="hsl(129, 82%, 83%)" stroke="none"></circle><circle r="3.263157894736842" cx="571.4285714285714" cy="400" opacity="0.25"></circle><circle r="0.8157894736842105" cx="571.4285714285714" cy="400" fill="hsl(129, 82%, 83%)" stroke="none"></circle><circle r="3.263157894736842" cx="685.7142857142858" cy="400" opacity="0.25"></circle><circle r="0.8157894736842105" cx="685.7142857142858" cy="400" fill="hsl(129, 82%, 83%)" stroke="none"></circle><circle r="3.263157894736842" cx="800.0000000000001" cy="400" opacity="0.25"></circle><circle r="0.8157894736842105" cx="800.0000000000001" cy="400" fill="hsl(129, 82%, 83%)" stroke="none"></circle><circle r="3.263157894736842" cx="0" cy="500" opacity="0.25"></circle><circle r="0.8157894736842105" cx="0" cy="500" fill="hsl(129, 82%, 83%)" stroke="none"></circle><circle r="3.263157894736842" cx="114.28571428571429" cy="500" opacity="0.25"></circle><circle r="0.8157894736842105" cx="114.28571428571429" cy="500" fill="hsl(129, 82%, 83%)" stroke="none"></circle><circle r="3.263157894736842" cx="228.57142857142858" cy="500" opacity="0.25"></circle><circle r="0.8157894736842105" cx="228.57142857142858" cy="500" fill="hsl(129, 82%, 83%)" stroke="none"></circle><circle r="3.263157894736842" cx="342.8571428571429" cy="500" opacity="0.25"></circle><circle r="0.8157894736842105" cx="342.8571428571429" cy="500" fill="hsl(129, 82%, 83%)" stroke="none"></circle><circle r="3.263157894736842" cx="457.14285714285717" cy="500" opacity="0.25"></circle><circle r="0.8157894736842105" cx="457.14285714285717" cy="500" fill="hsl(129, 82%, 83%)" stroke="none"></circle><circle r="3.263157894736842" cx="571.4285714285714" cy="500" opacity="0.25"></circle><circle r="0.8157894736842105" cx="571.4285714285714" cy="500" fill="hsl(129, 82%, 83%)" stroke="none"></circle><circle r="3.263157894736842" cx="685.7142857142858" cy="500" opacity="0.25"></circle><circle r="0.8157894736842105" cx="685.7142857142858" cy="500" fill="hsl(129, 82%, 83%)" stroke="none"></circle><circle r="3.263157894736842" cx="800.0000000000001" cy="500" opacity="0.25"></circle><circle r="0.8157894736842105" cx="800.0000000000001" cy="500" fill="hsl(129, 82%, 83%)" stroke="none"></circle><circle r="3.263157894736842" cx="0" cy="600" opacity="0.25"></circle><circle r="0.8157894736842105" cx="0" cy="600" fill="hsl(129, 82%, 83%)" stroke="none"></circle><circle r="3.263157894736842" cx="114.28571428571429" cy="600" opacity="0.25"></circle><circle r="0.8157894736842105" cx="114.28571428571429" cy="600" fill="hsl(129, 82%, 83%)" stroke="none"></circle><circle r="3.263157894736842" cx="228.57142857142858" cy="600" opacity="0.25"></circle><circle r="0.8157894736842105" cx="228.57142857142858" cy="600" fill="hsl(129, 82%, 83%)" stroke="none"></circle><circle r="3.263157894736842" cx="342.8571428571429" cy="600" opacity="0.25"></circle><circle r="0.8157894736842105" cx="342.8571428571429" cy="600" fill="hsl(129, 82%, 83%)" stroke="none"></circle><circle r="3.263157894736842" cx="457.14285714285717" cy="600" opacity="0.25"></circle><circle r="0.8157894736842105" cx="457.14285714285717" cy="600" fill="hsl(129, 82%, 83%)" stroke="none"></circle><circle r="3.263157894736842" cx="571.4285714285714" cy="600" opacity="0.25"></circle><circle r="0.8157894736842105" cx="571.4285714285714" cy="600" fill="hsl(129, 82%, 83%)" stroke="none"></circle><circle r="3.263157894736842" cx="685.7142857142858" cy="600" opacity="0.25"></circle><circle r="0.8157894736842105" cx="685.7142857142858" cy="600" fill="hsl(129, 82%, 83%)" stroke="none"></circle><circle r="3.263157894736842" cx="800.0000000000001" cy="600" opacity="0.25"></circle><circle r="0.8157894736842105" cx="800.0000000000001" cy="600" fill="hsl(129, 82%, 83%)" stroke="none"></circle><circle r="3.263157894736842" cx="0" cy="700" opacity="0.25"></circle><circle r="0.8157894736842105" cx="0" cy="700" fill="hsl(129, 82%, 83%)" stroke="none"></circle><circle r="3.263157894736842" cx="114.28571428571429" cy="700" opacity="0.25"></circle><circle r="0.8157894736842105" cx="114.28571428571429" cy="700" fill="hsl(129, 82%, 83%)" stroke="none"></circle><circle r="3.263157894736842" cx="228.57142857142858" cy="700" opacity="0.25"></circle><circle r="0.8157894736842105" cx="228.57142857142858" cy="700" fill="hsl(129, 82%, 83%)" stroke="none"></circle><circle r="3.263157894736842" cx="342.8571428571429" cy="700" opacity="0.25"></circle><circle r="0.8157894736842105" cx="342.8571428571429" cy="700" fill="hsl(129, 82%, 83%)" stroke="none"></circle><circle r="3.263157894736842" cx="457.14285714285717" cy="700" opacity="0.25"></circle><circle r="0.8157894736842105" cx="457.14285714285717" cy="700" fill="hsl(129, 82%, 83%)" stroke="none"></circle><circle r="3.263157894736842" cx="571.4285714285714" cy="700" opacity="0.25"></circle><circle r="0.8157894736842105" cx="571.4285714285714" cy="700" fill="hsl(129, 82%, 83%)" stroke="none"></circle><circle r="3.263157894736842" cx="685.7142857142858" cy="700" opacity="0.25"></circle><circle r="0.8157894736842105" cx="685.7142857142858" cy="700" fill="hsl(129, 82%, 83%)" stroke="none"></circle><circle r="3.263157894736842" cx="800.0000000000001" cy="700" opacity="0.25"></circle><circle r="0.8157894736842105" cx="800.0000000000001" cy="700" fill="hsl(129, 82%, 83%)" stroke="none"></circle><circle r="3.263157894736842" cx="0" cy="800" opacity="0.25"></circle><circle r="0.8157894736842105" cx="0" cy="800" fill="hsl(129, 82%, 83%)" stroke="none"></circle><circle r="3.263157894736842" cx="114.28571428571429" cy="800" opacity="0.25"></circle><circle r="0.8157894736842105" cx="114.28571428571429" cy="800" fill="hsl(129, 82%, 83%)" stroke="none"></circle><circle r="3.263157894736842" cx="228.57142857142858" cy="800" opacity="0.25"></circle><circle r="0.8157894736842105" cx="228.57142857142858" cy="800" fill="hsl(129, 82%, 83%)" stroke="none"></circle><circle r="3.263157894736842" cx="342.8571428571429" cy="800" opacity="0.25"></circle><circle r="0.8157894736842105" cx="342.8571428571429" cy="800" fill="hsl(129, 82%, 83%)" stroke="none"></circle><circle r="3.263157894736842" cx="457.14285714285717" cy="800" opacity="0.25"></circle><circle r="0.8157894736842105" cx="457.14285714285717" cy="800" fill="hsl(129, 82%, 83%)" stroke="none"></circle><circle r="3.263157894736842" cx="571.4285714285714" cy="800" opacity="0.25"></circle><circle r="0.8157894736842105" cx="571.4285714285714" cy="800" fill="hsl(129, 82%, 83%)" stroke="none"></circle><circle r="3.263157894736842" cx="685.7142857142858" cy="800" opacity="0.25"></circle><circle r="0.8157894736842105" cx="685.7142857142858" cy="800" fill="hsl(129, 82%, 83%)" stroke="none"></circle><circle r="3.263157894736842" cx="800.0000000000001" cy="800" opacity="0.25"></circle><circle r="0.8157894736842105" cx="800.0000000000001" cy="800" fill="hsl(129, 82%, 83%)" stroke="none"></circle></g></svg>